<svg width="96" height="96" viewBox="0 0 96 96" fill="none" xmlns="http://www.w3.org/2000/svg">
<g filter="url(#filter0_d)">
<path d="M9 27C9 15.9543 17.9543 7 29 7H89V87H29C17.9543 87 9 78.0457 9 67V27Z" fill="#1DD03F"/>
<path d="M57.9315 50.4511C57.8251 50.2789 57.5483 50.1724 57.1322 49.9653C56.7141 49.7621 54.6548 48.7557 54.2735 48.6163C54.107 48.5563 53.9599 48.5079 53.8244 48.5079C53.6464 48.5079 53.4877 48.5892 53.3309 48.8234C53.0522 49.2395 52.2489 50.1724 52.007 50.4511C51.8696 50.6099 51.7283 50.6892 51.558 50.6892C51.4302 50.6892 51.2812 50.6447 51.1031 50.5537C50.6812 50.3505 49.3341 49.9092 47.7373 48.4982C46.4948 47.397 45.6548 46.0382 45.4089 45.6221C45.1651 45.2099 45.3838 44.9834 45.5948 44.7782C45.7825 44.5866 46.0109 44.2905 46.2238 44.0486C46.4328 43.8066 46.5025 43.6344 46.6399 43.3576C46.7773 43.0808 46.7096 42.8369 46.6031 42.6299C46.5006 42.4228 45.6644 40.3808 45.3122 39.5486C45.0528 38.9292 44.7915 38.8499 44.5748 38.8499C44.5012 38.8499 44.4315 38.8595 44.3696 38.8595C44.1296 38.8595 43.8528 38.8228 43.5702 38.8228C43.2915 38.8228 42.8406 38.9273 42.4554 39.3453C42.0741 39.7576 40.9902 40.7621 40.9902 42.804C40.9902 44.8479 42.4883 46.8182 42.7012 47.095C42.9083 47.3737 45.5948 51.6995 49.8451 53.3621C52.3089 54.326 53.3464 54.5447 53.9309 54.5447C54.3567 54.5447 54.5425 54.4286 54.8657 54.3995C55.6302 54.3318 57.3393 53.3931 57.6896 52.4253C58.038 51.4576 58.038 50.6234 57.9315 50.4511Z" fill="white"/>
<path d="M49.3151 27.6842C38.8403 27.6842 30.3184 36.1481 30.3184 46.5532C30.3184 49.6907 31.0984 52.7661 32.5848 55.501L29.788 63.7578C29.5538 64.4487 29.728 65.2113 30.239 65.7339C30.6087 66.1132 31.11 66.3145 31.6209 66.3145C31.8164 66.3145 32.0138 66.2855 32.2074 66.2236L40.888 63.4674C43.4913 64.7448 46.3867 65.4184 49.3151 65.4184C59.7919 65.4184 68.3158 56.9565 68.3158 46.5532C68.3158 36.1481 59.7919 27.6842 49.3151 27.6842ZM49.3113 61.5494C46.7487 61.5494 44.219 60.9048 41.9971 59.6836C41.7106 59.5268 41.3893 59.4455 41.0661 59.4455C40.8706 59.4455 40.6732 59.4745 40.4777 59.5365L34.6771 61.3771L36.5274 55.919C36.7113 55.3771 36.6454 54.779 36.3474 54.2894C34.9325 51.9668 34.1854 49.2919 34.1854 46.5552C34.1854 38.2868 40.9713 31.5571 49.3113 31.5571C57.6532 31.5571 64.4409 38.2868 64.4409 46.5552C64.4409 54.8216 57.6551 61.5494 49.3113 61.5494Z" fill="white"/>
</g>
<defs>
<filter id="filter0_d" x="0" y="0" width="96" height="96" filterUnits="userSpaceOnUse" color-interpolation-filters="sRGB">
<feFlood flood-opacity="0" result="BackgroundImageFix"/>
<feColorMatrix in="SourceAlpha" type="matrix" values="0 0 0 0 0 0 0 0 0 0 0 0 0 0 0 0 0 0 127 0"/>
<feOffset dx="-1" dy="1"/>
<feGaussianBlur stdDeviation="4"/>
<feColorMatrix type="matrix" values="0 0 0 0 0 0 0 0 0 0 0 0 0 0 0 0 0 0 0.2 0"/>
<feBlend mode="normal" in2="BackgroundImageFix" result="effect1_dropShadow"/>
<feBlend mode="normal" in="SourceGraphic" in2="effect1_dropShadow" result="shape"/>
</filter>
</defs>
</svg>
