<svg width="34" height="34" viewBox="0 0 34 34" fill="none" xmlns="http://www.w3.org/2000/svg">
<path fill-rule="evenodd" clip-rule="evenodd" d="M32.8982 14.1569C33.4897 17.7638 32.9406 21.4724 31.3329 24.7286C29.7253 27.9847 27.1455 30.6136 23.979 32.2222C20.8126 33.8308 17.2295 34.3329 13.7654 33.6533C10.3012 32.9737 7.14201 31.149 4.75985 28.4519C2.3777 25.7548 0.900532 22.33 0.549122 18.6896C0.197712 15.0491 0.990926 11.3883 2.81022 8.25442C4.62951 5.1205 7.37718 2.68171 10.6426 1.30252C13.908 -0.0766663 17.5158 -0.322191 20.9268 0.602644C19.8595 4.8421 12.9204 7.11068 12.9204 7.11068C10.8632 7.97957 9.13212 9.51601 7.98597 11.4904C6.83982 13.4647 6.34009 15.771 6.56148 18.0645C6.78287 20.358 7.71348 22.5156 9.21424 24.2148C10.715 25.914 12.7053 27.0635 14.8877 27.4917C17.0701 27.9198 19.3274 27.6035 21.3223 26.5901C23.3172 25.5766 24.9425 23.9205 25.9553 21.8691C25.9553 21.8691 28.6464 14.9078 32.8982 14.1569Z" fill="#3F474F"/>
<path d="M28.8891 5.60734C27.6031 4.13761 26.08 2.91565 24.3906 1.99507C23.9415 1.75034 23.3886 1.95913 23.1833 2.42761L22.7594 3.39531C21.8116 5.55847 22.8605 8.04538 24.4156 9.82276C25.9697 11.599 28.3605 12.8853 30.584 12.0939L31.4612 11.7817C31.8977 11.6264 32.1323 11.1499 31.966 10.7175C31.2435 8.83915 30.202 7.10797 28.8891 5.60734Z" fill="#0080FF"/>
<path d="M13.7742 17.0001C13.7742 18.7437 15.1257 20.1385 16.7984 20.1385C18.4577 20.1385 19.8226 18.7437 19.8226 17.0001C19.8226 15.2704 18.4577 13.8616 16.7984 13.8616C15.1257 13.8616 13.7742 15.2704 13.7742 17.0001Z" fill="#0080FF"/>
<rect x="13.2288" y="13.3013" width="7.05903" height="7.32757" rx="3.52951" fill="#0080FF"/>
</svg>
