<svg width="150" height="34" viewBox="0 0 150 34" fill="none" xmlns="http://www.w3.org/2000/svg">
<g clip-path="url(#clip0)">
<path fill-rule="evenodd" clip-rule="evenodd" d="M115.898 14.1569C116.49 17.7638 115.941 21.4724 114.333 24.7286C112.725 27.9847 110.145 30.6136 106.979 32.2222C103.813 33.8308 100.23 34.3329 96.7654 33.6533C93.3012 32.9737 90.142 31.149 87.7599 28.4519C85.3777 25.7548 83.9005 22.33 83.5491 18.6896C83.1977 15.0491 83.9909 11.3883 85.8102 8.25442C87.6295 5.1205 90.3772 2.68171 93.6426 1.30252C96.908 -0.0766663 100.516 -0.322191 103.927 0.602644C102.86 4.8421 95.9204 7.11068 95.9204 7.11068C93.8632 7.97957 92.1321 9.51601 90.986 11.4904C89.8398 13.4647 89.3401 15.771 89.5615 18.0645C89.7829 20.358 90.7135 22.5156 92.2142 24.2148C93.715 25.914 95.7053 27.0635 97.8877 27.4917C100.07 27.9198 102.327 27.6035 104.322 26.5901C106.317 25.5766 107.942 23.9205 108.955 21.8691C108.955 21.8691 111.646 14.9078 115.898 14.1569Z" fill="#3F474F"/>
<path d="M111.889 5.60734C110.603 4.13761 109.08 2.91565 107.391 1.99507C106.941 1.75034 106.389 1.95913 106.183 2.42761L105.759 3.39531C104.812 5.55847 105.86 8.04538 107.416 9.82276C108.97 11.599 111.361 12.8853 113.584 12.0939L114.461 11.7817C114.898 11.6264 115.132 11.1499 114.966 10.7175C114.244 8.83915 113.202 7.10797 111.889 5.60734Z" fill="#0080FF"/>
<path d="M96.7742 17.0001C96.7742 18.7437 98.1257 20.1385 99.7984 20.1385C101.458 20.1385 102.823 18.7437 102.823 17.0001C102.823 15.2704 101.458 13.8616 99.7984 13.8616C98.1257 13.8616 96.7742 15.2704 96.7742 17.0001Z" fill="#0080FF"/>
<rect x="96.2288" y="13.3013" width="7.05903" height="7.32757" rx="3.52951" fill="#0080FF"/>
<path d="M146.371 26.5202V0.19494C142.45 0.19494 140.23 3.46754 140.23 7.54679V22.6679L127.94 3.39612C126.639 1.35525 124.498 -0.478265 122.236 0.193442C119.758 0.928972 119.758 3.64925 119.758 7.4791V33.8034C120.941 33.8034 121.97 33.5117 122.829 32.9923C124.817 31.7903 125.9 29.3686 125.9 26.5202L125.807 11.3311L138.188 30.6221C139.49 32.6515 141.623 34.4704 143.88 33.8096C146.371 33.08 146.371 30.3569 146.371 26.5202Z" fill="#3F474F"/>
<path d="M38.7098 26.5449V0.0522461C35.3704 0.0522461 32.6614 3.41188 32.6614 7.55709V33.9476C36.0008 33.9476 38.7098 30.7068 38.7098 26.5449Z" fill="#3F474F"/>
<path d="M78.6723 26.5455V0.0528591C75.3091 0.0528591 72.5807 3.41249 72.5807 7.55771V33.9482C75.9439 33.9482 78.6723 30.7074 78.6723 26.5455Z" fill="#3F474F"/>
<path d="M18.5313 5.30944L15.7259 10.5791L12.978 5.41728C10.6463 1.03739 6.45998 -1.07452 3.62915 0.697969L12.3077 16.9999L3.62915 33.3019C6.45998 35.0744 10.6463 32.9625 12.978 28.5826L15.7259 23.4208L18.5313 28.6904C20.8724 33.088 24.9919 35.0744 27.8227 33.3019L19.1441 16.9999L27.8227 0.697996C24.9919 -1.0745 20.8724 0.911892 18.5313 5.30944Z" fill="#3F474F"/>
<path d="M44.7582 7.45562C44.7582 3.29369 47.533 0.0528591 50.9534 0.0528591V27.5929L67.7421 27.5929C67.7421 31.1017 64.3373 33.9482 60.1364 33.9482H44.7582V7.45562Z" fill="#3F474F"/>
</g>
<defs>
<clipPath id="clip0">
<rect width="150" height="33.8954" fill="white" transform="translate(0 0.0522461)"/>
</clipPath>
</defs>
</svg>
