<svg width="51" height="50" viewBox="0 0 51 50" fill="none" xmlns="http://www.w3.org/2000/svg">
<rect x="0.666626" width="50" height="50" rx="25" fill="#5B42F5"/>
<path d="M14.9166 35.5C14.9166 35.9142 15.2524 36.25 15.6666 36.25C16.0808 36.25 16.4166 35.9142 16.4166 35.5H14.9166ZM16.197 24.9697C15.9041 24.6768 15.4292 24.6768 15.1363 24.9697L10.3633 29.7426C10.0704 30.0355 10.0704 30.5104 10.3633 30.8033C10.6562 31.0962 11.1311 31.0962 11.424 30.8033L15.6666 26.5607L19.9093 30.8033C20.2022 31.0962 20.677 31.0962 20.9699 30.8033C21.2628 30.5104 21.2628 30.0355 20.9699 29.7426L16.197 24.9697ZM16.4166 35.5V25.5H14.9166V35.5H16.4166Z" fill="white"/>
<path d="M24.9166 35.5C24.9166 35.9142 25.2524 36.25 25.6666 36.25C26.0808 36.25 26.4166 35.9142 26.4166 35.5H24.9166ZM26.197 10.9697C25.9041 10.6768 25.4292 10.6768 25.1363 10.9697L20.3633 15.7426C20.0704 16.0355 20.0704 16.5104 20.3633 16.8033C20.6562 17.0962 21.1311 17.0962 21.424 16.8033L25.6666 12.5607L29.9093 16.8033C30.2022 17.0962 30.677 17.0962 30.9699 16.8033C31.2628 16.5104 31.2628 16.0355 30.9699 15.7426L26.197 10.9697ZM26.4166 35.5V11.5H24.9166V35.5H26.4166Z" fill="white"/>
<path d="M34.9166 35.5C34.9166 35.9142 35.2524 36.25 35.6666 36.25C36.0808 36.25 36.4166 35.9142 36.4166 35.5H34.9166ZM36.197 24.9697C35.9041 24.6768 35.4292 24.6768 35.1363 24.9697L30.3633 29.7426C30.0704 30.0355 30.0704 30.5104 30.3633 30.8033C30.6562 31.0962 31.1311 31.0962 31.424 30.8033L35.6666 26.5607L39.9093 30.8033C40.2022 31.0962 40.677 31.0962 40.9699 30.8033C41.2628 30.5104 41.2628 30.0355 40.9699 29.7426L36.197 24.9697ZM36.4166 35.5V25.5H34.9166V35.5H36.4166Z" fill="white"/>
</svg>
