<svg width="51" height="50" viewBox="0 0 51 50" fill="none" xmlns="http://www.w3.org/2000/svg">
<rect x="0.333252" width="50" height="50" rx="25" fill="#00DAB4"/>
<path d="M14.5833 35.5C14.5833 35.9142 14.919 36.25 15.3333 36.25C15.7475 36.25 16.0833 35.9142 16.0833 35.5H14.5833ZM15.8636 24.9697C15.5707 24.6768 15.0958 24.6768 14.8029 24.9697L10.03 29.7426C9.73706 30.0355 9.73706 30.5104 10.03 30.8033C10.3228 31.0962 10.7977 31.0962 11.0906 30.8033L15.3333 26.5607L19.5759 30.8033C19.8688 31.0962 20.3437 31.0962 20.6366 30.8033C20.9294 30.5104 20.9294 30.0355 20.6366 29.7426L15.8636 24.9697ZM16.0833 35.5V25.5H14.5833V35.5H16.0833Z" fill="white"/>
<path d="M24.5833 35.5C24.5833 35.9142 24.919 36.25 25.3333 36.25C25.7475 36.25 26.0833 35.9142 26.0833 35.5H24.5833ZM25.8636 10.9697C25.5707 10.6768 25.0958 10.6768 24.8029 10.9697L20.03 15.7426C19.7371 16.0355 19.7371 16.5104 20.03 16.8033C20.3228 17.0962 20.7977 17.0962 21.0906 16.8033L25.3333 12.5607L29.5759 16.8033C29.8688 17.0962 30.3437 17.0962 30.6366 16.8033C30.9294 16.5104 30.9294 16.0355 30.6366 15.7426L25.8636 10.9697ZM26.0833 35.5V11.5H24.5833V35.5H26.0833Z" fill="white"/>
<path d="M34.5833 35.5C34.5833 35.9142 34.919 36.25 35.3333 36.25C35.7475 36.25 36.0833 35.9142 36.0833 35.5H34.5833ZM35.8636 24.9697C35.5707 24.6768 35.0958 24.6768 34.8029 24.9697L30.03 29.7426C29.7371 30.0355 29.7371 30.5104 30.03 30.8033C30.3228 31.0962 30.7977 31.0962 31.0906 30.8033L35.3333 26.5607L39.5759 30.8033C39.8688 31.0962 40.3437 31.0962 40.6366 30.8033C40.9294 30.5104 40.9294 30.0355 40.6366 29.7426L35.8636 24.9697ZM36.0833 35.5V25.5H34.5833V35.5H36.0833Z" fill="white"/>
</svg>
