<svg width="50" height="50" viewBox="0 0 50 50" fill="none" xmlns="http://www.w3.org/2000/svg">
<rect width="50" height="50" rx="25" fill="#CD52F9"/>
<path d="M14.25 35.5C14.25 35.9142 14.5858 36.25 15 36.25C15.4142 36.25 15.75 35.9142 15.75 35.5H14.25ZM15.5303 24.9697C15.2374 24.6768 14.7626 24.6768 14.4697 24.9697L9.6967 29.7426C9.40381 30.0355 9.40381 30.5104 9.6967 30.8033C9.98959 31.0962 10.4645 31.0962 10.7574 30.8033L15 26.5607L19.2426 30.8033C19.5355 31.0962 20.0104 31.0962 20.3033 30.8033C20.5962 30.5104 20.5962 30.0355 20.3033 29.7426L15.5303 24.9697ZM15.75 35.5V25.5H14.25V35.5H15.75Z" fill="white"/>
<path d="M24.25 35.5C24.25 35.9142 24.5858 36.25 25 36.25C25.4142 36.25 25.75 35.9142 25.75 35.5H24.25ZM25.5303 10.9697C25.2374 10.6768 24.7626 10.6768 24.4697 10.9697L19.6967 15.7426C19.4038 16.0355 19.4038 16.5104 19.6967 16.8033C19.9896 17.0962 20.4645 17.0962 20.7574 16.8033L25 12.5607L29.2426 16.8033C29.5355 17.0962 30.0104 17.0962 30.3033 16.8033C30.5962 16.5104 30.5962 16.0355 30.3033 15.7426L25.5303 10.9697ZM25.75 35.5V11.5H24.25V35.5H25.75Z" fill="white"/>
<path d="M34.25 35.5C34.25 35.9142 34.5858 36.25 35 36.25C35.4142 36.25 35.75 35.9142 35.75 35.5H34.25ZM35.5303 24.9697C35.2374 24.6768 34.7626 24.6768 34.4697 24.9697L29.6967 29.7426C29.4038 30.0355 29.4038 30.5104 29.6967 30.8033C29.9896 31.0962 30.4645 31.0962 30.7574 30.8033L35 26.5607L39.2426 30.8033C39.5355 31.0962 40.0104 31.0962 40.3033 30.8033C40.5962 30.5104 40.5962 30.0355 40.3033 29.7426L35.5303 24.9697ZM35.75 35.5V25.5H34.25V35.5H35.75Z" fill="white"/>
</svg>
