<svg width="160" height="160" viewBox="0 0 160 160" fill="none" xmlns="http://www.w3.org/2000/svg">
<path d="M0 20C0 8.95431 8.95431 0 20 0H140C151.046 0 160 8.95431 160 20V140C160 151.046 151.046 160 140 160H20C8.95431 160 0 151.046 0 140V20Z" fill="#EEEDF5" fill-opacity="0.4"/>
<g clip-path="url(#clip0)">
<path d="M73.3512 45.3491C57.8931 45.3491 45.3618 57.8804 45.3618 73.3385C45.3618 88.7966 57.8931 101.328 73.3512 101.328C88.8093 101.328 101.341 88.7966 101.341 73.3385C101.324 57.8874 88.8023 45.3659 73.3512 45.3491ZM73.3512 48.0148C81.5841 48.0213 89.299 52.0338 94.0314 58.7707L90.6993 62.1028C89.8884 61.6121 88.9601 61.3496 88.0123 61.3431C85.0679 61.3431 82.681 63.73 82.681 66.6744C82.6857 67.6232 82.9467 68.553 83.4367 69.3653L74.7094 78.0927C73.0568 77.0851 70.9799 77.0851 69.3274 78.0927L63.2657 72.031C63.7557 71.2186 64.0167 70.2888 64.0214 69.34C64.0251 66.4015 61.646 64.0164 58.7074 64.0127C56.2772 64.0097 54.1538 65.6536 53.548 68.0072H48.6033C51.1268 56.3538 61.4277 48.0323 73.3512 48.0148ZM90.678 66.6744C90.678 68.1466 89.4846 69.34 88.0123 69.34C86.54 69.34 85.3467 68.1466 85.3467 66.6744C85.3467 65.2021 86.54 64.0087 88.0123 64.0087C89.4846 64.0087 90.678 65.2021 90.678 66.6744ZM74.684 82.6683C74.684 84.1406 73.4907 85.3339 72.0184 85.3339C70.5461 85.3339 69.3527 84.1406 69.3527 82.6683C69.3527 81.196 70.5461 80.0026 72.0184 80.0026C73.4907 80.0026 74.684 81.196 74.684 82.6683ZM61.3558 69.34C61.3558 70.8123 60.1624 72.0057 58.6901 72.0057C57.2178 72.0057 56.0244 70.8123 56.0244 69.34C56.0244 67.8677 57.2178 66.6744 58.6901 66.6744C60.1624 66.6744 61.3558 67.8677 61.3558 69.34ZM85.6555 95.4811C81.8916 97.571 77.6566 98.6659 73.3512 98.6621C59.3748 98.6716 48.037 87.3493 48.0275 73.373C48.0268 72.471 48.0745 71.5695 48.1701 70.6727H53.548C54.154 73.0193 56.2665 74.662 58.6901 74.6712C59.6389 74.6665 60.5687 74.4054 61.3811 73.9154L67.4428 79.9771C66.9528 80.7895 66.6917 81.7193 66.6871 82.6681C66.6871 85.6125 69.074 87.9994 72.0184 87.9994C74.9628 87.9994 77.3497 85.6125 77.3497 82.6681C77.345 81.7193 77.084 80.7895 76.594 79.9771L85.3213 71.2498C86.1337 71.7398 87.0635 72.0008 88.0123 72.0055C90.9567 72.0055 93.3436 69.6186 93.3436 66.6742C93.339 65.7254 93.0779 64.7956 92.5879 63.9832L95.4935 61.079C102.277 73.2957 97.8721 88.698 85.6555 95.4811Z" fill="#1A75CF"/>
<path d="M106.672 53.3453C109.095 53.3361 111.208 51.6935 111.814 49.3468H120V46.6811H111.814C111.208 44.3343 109.095 42.6918 106.672 42.6826C103.728 42.6826 101.341 45.0696 101.341 48.0139C101.345 48.9628 101.606 49.8926 102.096 50.7049L99.7545 53.0467C88.5496 38.4487 67.6322 35.6981 53.0343 46.903C38.4363 58.1079 35.6857 79.0255 46.8906 93.6235C57.4672 107.403 76.8551 110.745 91.435 101.303L95.4575 105.326L97.3421 107.21L108.071 117.939C110.8 120.668 115.224 120.668 117.953 117.939C120.682 115.211 120.682 110.787 117.953 108.058L107.224 97.3286L105.339 95.444L101.317 91.4215C108.457 80.423 108.457 66.2525 101.317 55.2539L103.982 52.5882C104.794 53.0784 105.724 53.3399 106.672 53.3453ZM106.672 45.3483C108.144 45.3483 109.338 46.5417 109.338 48.0139C109.338 49.4862 108.144 50.6796 106.672 50.6796C105.2 50.6796 104.006 49.4862 104.006 48.0139C104.006 46.5417 105.2 45.3483 106.672 45.3483ZM116.068 109.942C117.775 111.611 117.807 114.348 116.138 116.055C114.469 117.762 111.732 117.793 110.025 116.124C110.002 116.101 109.979 116.078 109.956 116.055L99.2267 105.326L105.339 99.2132L116.068 109.942ZM103.454 97.3286L97.3421 103.441L93.6528 99.7517C93.8408 99.6077 94.0167 99.4491 94.202 99.3012C94.3872 99.1532 94.6018 98.976 94.8004 98.8093C95.0923 98.5641 95.3802 98.3162 95.6628 98.0616C95.808 97.9284 95.9466 97.7951 96.0893 97.6618C96.6357 97.15 97.1648 96.6208 97.6767 96.0744C97.8099 95.9318 97.9432 95.7932 98.0765 95.6479C98.3311 95.3653 98.579 95.0774 98.8242 94.7855C98.9913 94.5883 99.1553 94.3889 99.316 94.1871C99.4626 94.0032 99.6213 93.8272 99.7652 93.6393L103.454 97.3286ZM98.2858 91.1376C97.8659 91.724 97.4327 92.2985 96.9756 92.8516C96.8423 93.0129 96.6997 93.1688 96.5624 93.3274C96.1546 93.8019 95.7334 94.2622 95.2989 94.7082C95.1096 94.9037 94.9172 95.0961 94.7218 95.2854C94.2774 95.7199 93.8173 96.141 93.341 96.5489C93.1824 96.6822 93.0264 96.8274 92.8651 96.9621C92.312 97.4192 91.7376 97.8524 91.1511 98.2722C77.3537 108.129 58.1778 104.935 48.3207 91.1376C38.4636 77.3402 41.6579 58.1643 55.4553 48.3072C69.2528 38.4501 88.4287 41.6442 98.2858 55.4418C105.913 66.1181 105.913 80.4613 98.2858 91.1376Z" fill="#1A75CF"/>
</g>
<defs>
<clipPath id="clip0">
<rect width="80" height="80" fill="white" transform="translate(40 40)"/>
</clipPath>
</defs>
</svg>
