<svg width="160" height="160" viewBox="0 0 160 160" fill="none" xmlns="http://www.w3.org/2000/svg">
<rect width="160" height="160" rx="20" fill="#EEEDF5" fill-opacity="0.4"/>
<g clip-path="url(#clip0)">
<path d="M112.842 104.129L109.613 103.007C111.421 101.575 112.584 99.3635 112.584 96.8837V94.5167C112.584 90.2101 109.08 86.7061 104.773 86.7061C100.466 86.7061 96.9623 90.2101 96.9623 94.5167V96.8837C96.9623 99.3635 98.1256 101.575 99.9335 103.007L96.7035 104.129C94.632 104.848 92.8906 106.168 91.6437 107.85H82.9193V104.407C82.9193 99.8756 80.0427 95.832 75.7617 94.3458L72.5317 93.2246C74.3396 91.7927 75.5029 89.5808 75.5029 87.101V84.734C75.5029 80.4268 71.9989 76.9233 67.6923 76.9233C63.3856 76.9233 59.8816 80.4274 59.8816 84.734V87.101C59.8816 89.5808 61.0449 91.7927 62.8522 93.2246L59.6228 94.3458C55.3418 95.832 52.4652 99.8756 52.4652 104.407V107.85H41.1835C40.5298 107.85 40 108.38 40 109.034V118.817C40 119.47 40.5298 120 41.1835 120H90.4144C90.4675 120 90.52 119.995 90.5719 119.989C90.6238 119.995 90.6763 120 90.73 120H118.817C119.47 120 120 119.47 120 118.817V114.19C120 109.659 117.124 105.615 112.842 104.129ZM99.3292 94.5167C99.3292 91.515 101.771 89.073 104.773 89.073C107.775 89.073 110.217 91.515 110.217 94.5167V96.8837C110.217 99.8854 107.775 102.327 104.773 102.327C101.771 102.327 99.3292 99.8854 99.3292 96.8837V94.5167ZM62.2485 84.734C62.2485 81.7323 64.6906 79.2903 67.6923 79.2903C70.694 79.2903 73.136 81.7323 73.136 84.734V87.101C73.136 90.1027 70.694 92.5447 67.6923 92.5447C64.6906 92.5447 62.2485 90.1027 62.2485 87.101V84.734ZM70.1752 94.9116L71.3251 95.3108L67.6923 101.614L64.0594 95.3108L65.2094 94.9116H70.1752ZM54.8322 104.407C54.8322 100.883 57.0697 97.7375 60.3992 96.5815L61.7834 96.1012L66.6669 104.575C66.8781 104.942 67.2693 105.168 67.6923 105.168C68.1152 105.168 68.5065 104.942 68.7177 104.575L73.6011 96.1012L74.9854 96.5815C78.3148 97.7375 80.5518 100.883 80.5518 104.407V107.85H54.8322V104.407ZM42.3669 110.217H90.3174C89.8181 111.456 89.5465 112.8 89.5465 114.19V117.633H42.3669V110.217ZM117.633 117.633H91.9135V114.19C91.9135 110.665 94.1504 107.521 97.4799 106.364L102.29 104.694H107.256L112.066 106.364C115.396 107.521 117.633 110.665 117.633 114.19V117.633Z" fill="#1A75CF"/>
<path d="M112.505 48.5205H100.483C99.8297 48.5205 99.2999 49.0509 99.2999 49.704C99.2999 50.3577 99.8297 50.8875 100.483 50.8875H112.505C115.333 50.8875 117.633 53.1879 117.633 56.0162V72.4261C117.633 75.2539 115.333 77.5543 112.505 77.5543H96.2524C95.5988 77.5543 95.069 78.0841 95.069 78.7378V83.7708L89.1998 77.901C88.9777 77.6788 88.6768 77.5543 88.363 77.5543H78.7378C75.91 77.5543 73.609 75.2539 73.609 72.4261V56.0156C73.609 53.1879 75.9094 50.8875 78.7378 50.8875H94.9506C95.6042 50.8875 96.134 50.3577 96.134 49.704C96.134 49.0503 95.6042 48.5205 94.9506 48.5205H88.7573V47.4951C88.7573 43.3624 85.3949 40 81.2622 40H47.4951C43.3624 40 40 43.3624 40 47.4951V50.1117C40 50.7654 40.5298 51.2952 41.1835 51.2952C41.8372 51.2952 42.3669 50.7654 42.3669 50.1117V47.4951C42.3669 44.6674 44.6674 42.3669 47.4951 42.3669H81.2622C84.09 42.3669 86.3904 44.6674 86.3904 47.4951V48.5205H78.7378C74.6051 48.5205 71.2427 51.8829 71.2427 56.0156V69.0332H58.8562C58.2025 69.0332 57.6727 69.563 57.6727 70.2167V75.2496L51.8036 69.3799C51.5814 69.1577 51.2805 69.0332 50.9668 69.0332H47.4951C44.6674 69.0332 42.3669 66.7328 42.3669 63.905V55.6146C42.3669 54.9609 41.8372 54.4312 41.1835 54.4312C40.5298 54.4312 40 54.9609 40 55.6146V63.905C40 68.0383 43.3624 71.4001 47.4951 71.4001H50.4761L58.0194 78.9435C58.2458 79.1699 58.5486 79.2902 58.8562 79.2896C59.0088 79.2896 59.1626 79.2603 59.3091 79.1998C59.751 79.0167 60.0397 78.5852 60.0397 78.1067V71.4001H71.2427V72.4261C71.2427 76.5588 74.6051 79.9207 78.7378 79.9207H87.8729L95.4156 87.464C95.6421 87.6904 95.9448 87.8107 96.2524 87.8107C96.405 87.8107 96.5588 87.7814 96.7053 87.7203C97.1472 87.5372 97.4359 87.1057 97.4359 86.6272V79.9207H112.505C116.638 79.9207 120 76.5588 120 72.4261V56.0156C120 51.8829 116.638 48.5205 112.505 48.5205Z" fill="#1A75CF"/>
</g>
<defs>
<clipPath id="clip0">
<rect width="80" height="80" fill="white" transform="translate(40 40)"/>
</clipPath>
</defs>
</svg>
