<svg width="61" height="60" viewBox="0 0 61 60" fill="none" xmlns="http://www.w3.org/2000/svg">
<rect x="0.666504" width="60" height="60" rx="30" fill="#FF5630"/>
<path d="M42.5409 28.0137C44.9688 28.8106 46.7322 31.1537 46.7322 33.9128V39.4128C46.7322 39.9489 46.3099 40.3833 45.7889 40.3833H38.2123V45.5295C38.2123 46.0655 37.7899 46.5 37.269 46.5H24.0637C23.5428 46.5 23.1205 46.0655 23.1205 45.5295V40.3833H15.5438C15.0229 40.3833 14.6006 39.9489 14.6006 39.4128V33.9128C14.6006 31.1537 16.364 28.8106 18.7919 28.0137C18.1902 27.2499 17.8287 26.278 17.8287 25.2204C17.8287 22.7704 19.7657 20.7775 22.1466 20.7775C24.5275 20.7775 26.4645 22.7704 26.4645 25.2204C26.4645 26.2786 26.1026 27.2511 25.5002 28.015C26.0705 28.2022 26.612 28.4764 27.1053 28.8281C27.8843 27.6613 29.1897 26.8942 30.6664 26.8942C32.143 26.8942 33.4485 27.6613 34.2274 28.8281C34.7208 28.4764 35.2622 28.2022 35.8326 28.015C35.2301 27.2511 34.8682 26.2786 34.8682 25.2204C34.8682 22.7704 36.8053 20.7775 39.1861 20.7775C41.567 20.7775 43.504 22.7704 43.504 25.2204C43.504 26.278 43.1426 27.25 42.5409 28.0137ZM39.1862 22.7185C37.8455 22.7185 36.7548 23.8408 36.7549 25.2204C36.7549 26.5991 37.8442 27.721 39.1838 27.7223H39.1887C40.5282 27.721 41.6176 26.5991 41.6176 25.2204C41.6176 23.8408 40.5269 22.7185 39.1862 22.7185ZM30.6664 28.8351C29.3095 28.8351 28.2349 29.9762 28.2349 31.3374C28.2349 32.7103 29.3213 33.8393 30.6664 33.8393C31.9905 33.8393 33.0774 32.7417 33.097 31.374C33.1162 29.9746 32.0163 28.8351 30.6664 28.8351ZM22.1466 22.7185C20.8059 22.7185 19.7152 23.8408 19.7153 25.2204C19.7153 26.5991 20.8046 27.721 22.1443 27.7223H22.1491C23.4886 27.721 24.5781 26.5991 24.5781 25.2204C24.5781 23.8408 23.4873 22.7185 22.1466 22.7185ZM16.4871 33.9128V38.442H18.6244V34.8098C18.6244 34.2738 19.0467 33.8393 19.5676 33.8393C20.0885 33.8393 20.5109 34.2738 20.5109 34.8098V38.442H23.3208C23.8432 36.4096 25.3543 34.7717 27.309 34.1307C26.5617 33.1797 26.2223 31.9369 26.3911 30.711C25.6433 30.0405 24.6769 29.6636 23.677 29.6636H20.6165C18.3395 29.6636 16.4871 31.5698 16.4871 33.9128ZM36.3258 44.5587V40.0295C36.3258 37.6924 34.4779 35.7803 32.1965 35.7803H29.1363C26.8518 35.7803 25.007 37.6958 25.007 40.0295V44.5587H26.8934V41.6902C26.8934 41.1542 27.3158 40.7197 27.8367 40.7197C28.3576 40.7197 28.7799 41.1542 28.7799 41.6902V44.5587H32.5528V41.6902C32.5528 41.1542 32.9752 40.7197 33.4961 40.7197C34.017 40.7197 34.4393 41.1542 34.4393 41.6902V44.5587H36.3258ZM44.8457 38.442V33.9128C44.8457 31.5698 42.9933 29.6636 40.7162 29.6636H37.6558C36.6558 29.6636 35.6895 30.0405 34.9416 30.711C35.1162 31.9787 34.745 33.2129 34.0238 34.1307C35.9912 34.776 37.493 36.423 38.012 38.442H40.8219V34.8098C40.8219 34.2738 41.2442 33.8393 41.7651 33.8393C42.286 33.8393 42.7084 34.2738 42.7084 34.8098V38.442H44.8457ZM25.5725 18.4186L24.3149 15.5712C24.0993 15.0832 24.309 14.508 24.7832 14.2862C25.2573 14.0643 25.8166 14.2802 26.0322 14.7682L27.2898 17.6153C27.5055 18.1033 27.2958 18.6785 26.8215 18.9003C26.3472 19.1222 25.788 18.9065 25.5725 18.4186ZM34.5112 18.9003C34.037 18.6785 33.8273 18.1033 34.0429 17.6153L35.3005 14.7682C35.516 14.2802 36.0752 14.0643 36.5495 14.2862C37.0238 14.5079 37.2335 15.0832 37.0178 15.5712L35.7602 18.4186C35.5449 18.9061 34.986 19.1223 34.5112 18.9003ZM30.6664 18.2776C30.1455 18.2776 29.7231 17.8428 29.7231 17.3068V14.4705C29.7231 13.9345 30.1455 13.5 30.6664 13.5C31.1873 13.5 31.6096 13.9345 31.6096 14.4705V17.3068C31.6096 17.8428 31.1873 18.2776 30.6664 18.2776Z" fill="white"/>
</svg>
