<svg width="160" height="160" viewBox="0 0 160 160" fill="none" xmlns="http://www.w3.org/2000/svg">
<rect width="160" height="160" rx="20" fill="#EEEDF5" fill-opacity="0.4"/>
<path d="M87.3334 72L72.6667 106.667" stroke="#1A75CF" stroke-width="3" stroke-linecap="round" stroke-linejoin="round"/>
<path d="M94.6667 79.3335L106.667 90.0002L94.6667 100.667" stroke="#1A75CF" stroke-width="3" stroke-linecap="round" stroke-linejoin="round"/>
<path d="M65.3333 79.3335L53.3333 90.0002L65.3333 100.667" stroke="#1A75CF" stroke-width="3" stroke-linecap="round" stroke-linejoin="round"/>
<path d="M52.6667 53.3335C53.7713 53.3335 54.6667 52.4381 54.6667 51.3335C54.6667 50.2289 53.7713 49.3335 52.6667 49.3335C51.5622 49.3335 50.6667 50.2289 50.6667 51.3335C50.6667 52.4381 51.5622 53.3335 52.6667 53.3335Z" fill="#1A75CF"/>
<path d="M60.6667 53.3335C61.7713 53.3335 62.6667 52.4381 62.6667 51.3335C62.6667 50.2289 61.7713 49.3335 60.6667 49.3335C59.5622 49.3335 58.6667 50.2289 58.6667 51.3335C58.6667 52.4381 59.5622 53.3335 60.6667 53.3335Z" fill="#1A75CF"/>
<path d="M68.6667 53.3335C69.7713 53.3335 70.6667 52.4381 70.6667 51.3335C70.6667 50.2289 69.7713 49.3335 68.6667 49.3335C67.5622 49.3335 66.6667 50.2289 66.6667 51.3335C66.6667 52.4381 67.5622 53.3335 68.6667 53.3335Z" fill="#1A75CF"/>
<path d="M93.0001 53.3335H107C108.289 53.3335 109.333 52.438 109.333 51.3335C109.333 50.229 108.289 49.3335 107 49.3335H93.0001C91.7115 49.3335 90.6667 50.229 90.6667 51.3335C90.6667 52.438 91.7115 53.3335 93.0001 53.3335Z" fill="#1A75CF"/>
<path d="M112.969 40.1562H47.0312C43.1542 40.1562 40 43.3105 40 47.1875V112.812C40 116.69 43.1542 119.844 47.0312 119.844H112.969C116.846 119.844 120 116.69 120 112.812V47.1875C120 43.3105 116.846 40.1562 112.969 40.1562ZM47.0312 43.3333H112.969C115.333 43.3333 116.667 44.6667 116.667 47.1875V59.3333H43.3333V47.1875C43.3333 44.6667 44.6667 43.3333 47.0312 43.3333ZM112.969 116.667H47.0312C44.6667 116.667 43.3333 115.333 43.3333 112.812V62.6667H116.667V112.812C116.667 115.333 115.333 116.667 112.969 116.667Z" fill="#1A75CF"/>
</svg>
