<svg width="160" height="160" viewBox="0 0 160 160" fill="none" xmlns="http://www.w3.org/2000/svg">
<rect width="160" height="160" rx="20" fill="#EEEDF5" fill-opacity="0.4"/>
<path fill-rule="evenodd" clip-rule="evenodd" d="M89.4139 112.352V110.19V107.377C91.3188 106.651 92.6773 104.811 92.6773 102.654C92.6773 100.605 91.4492 98.8396 89.6928 98.0461L95.3959 83.7895C95.5263 83.4645 95.491 83.0969 95.3007 82.8021L80.6557 60.0864L80.6499 60.08C80.4568 59.7859 80.1253 59.5913 79.7469 59.5913C79.3692 59.5913 79.0377 59.7859 78.8438 60.08L78.838 60.0864L64.193 82.8021C64.0027 83.0969 63.9681 83.4645 64.0979 83.7895L69.8009 98.0461C68.0438 98.8396 66.8164 100.605 66.8164 102.654C66.8164 104.811 68.1757 106.652 70.0798 107.377V110.19V112.352H71.1609H88.3328H89.4139ZM72.242 110.191H87.2517V107.712H72.242V110.191ZM71.8737 105.55H87.62C89.2164 105.55 90.5159 104.251 90.5159 102.654C90.5159 101.057 89.2164 99.7585 87.62 99.7585H71.8737C70.2773 99.7585 68.9779 101.057 68.9779 102.654C68.9779 104.251 70.2773 105.55 71.8737 105.55ZM74.0409 84.9369C74.0409 82.1607 76.0352 79.8436 78.6658 79.3369L78.6665 64.3445L66.3134 83.5048L71.9501 97.5964H87.5443L93.1811 83.5048L80.828 64.3445V79.3369C83.4586 79.8443 85.4528 82.1607 85.4528 84.9369C85.4528 88.0828 82.8928 90.6428 79.7469 90.6428C76.6009 90.6428 74.0409 88.0828 74.0409 84.9369ZM83.2907 84.9369C83.2907 82.983 81.7007 81.3931 79.7469 81.3931C77.793 81.3931 76.2031 82.983 76.2031 84.9369C76.2031 86.8908 77.793 88.4807 79.7469 88.4807C81.7007 88.4807 83.2907 86.8908 83.2907 84.9369Z" fill="#1A75CF"/>
<path d="M46.1994 45.6453C43.2184 45.6453 40.7939 48.0698 40.7939 51.0507C40.7939 54.0316 43.2184 56.4561 46.1994 56.4561C48.8098 56.4561 50.9936 54.5959 51.4959 52.1318H68.4012C57.0166 56.6305 49.2451 67.6092 49.1226 80.2975H45.6329C45.0361 80.2975 44.5518 80.7811 44.5518 81.3786V90.508C44.5518 91.1055 45.0361 91.5891 45.6329 91.5891H54.7615C55.3583 91.5891 55.8426 91.1055 55.8426 90.508V81.3786C55.8426 80.7811 55.3583 80.2975 54.7615 80.2975H51.2848C51.4253 66.7703 60.9201 55.3368 74.1013 52.6961V55.615C74.1013 56.2125 74.5857 56.6961 75.1824 56.6961H84.3111C84.9078 56.6961 85.3921 56.2125 85.3921 55.615V52.6975C98.5712 55.3382 108.068 66.7761 108.209 80.2975H104.732C104.135 80.2975 103.651 80.7811 103.651 81.3786V90.508C103.651 91.1055 104.135 91.5891 104.732 91.5891H113.861C114.457 91.5891 114.942 91.1055 114.942 90.508V81.3786C114.942 80.7811 114.457 80.2975 113.861 80.2975H110.371C110.248 67.6136 102.473 56.6312 91.0894 52.1318H107.998C108.5 54.5959 110.684 56.4561 113.294 56.4561C116.275 56.4561 118.7 54.0316 118.7 51.0507C118.7 48.0698 116.275 45.6453 113.294 45.6453C110.684 45.6453 108.5 47.5055 107.998 49.9696H85.3921V46.4864C85.3921 45.8889 84.9078 45.4053 84.3111 45.4053H75.1824C74.5857 45.4053 74.1013 45.8889 74.1013 46.4864V49.9696H51.4959C50.9936 47.5055 48.8098 45.6453 46.1994 45.6453ZM46.1994 54.2939C44.4112 54.2939 42.9561 52.8388 42.9561 51.0507C42.9561 49.2626 44.4112 47.8074 46.1994 47.8074C47.9875 47.8074 49.4426 49.2626 49.4426 51.0507C49.4426 52.8388 47.9882 54.2939 46.1994 54.2939ZM53.6804 82.4597V89.4269H46.7139V82.4597H53.6804ZM112.78 82.4597V89.4269H105.813V82.4597H112.78ZM113.294 47.8074C115.082 47.8074 116.537 49.2626 116.537 51.0507C116.537 52.8388 115.082 54.2939 113.294 54.2939C111.506 54.2939 110.051 52.8388 110.051 51.0507C110.051 49.2626 111.505 47.8074 113.294 47.8074ZM76.2635 47.5674H83.23V54.5346H76.2635V47.5674Z" fill="#1A75CF"/>
</svg>
