<svg width="60" height="60" viewBox="0 0 60 60" fill="none" xmlns="http://www.w3.org/2000/svg">
<rect width="60" height="60" rx="30" fill="#FF9400"/>
<path d="M45.5332 44.5664H44.4289V30C44.4289 29.466 43.9961 29.0332 43.4621 29.0332H40.2868V23.7868C40.2868 23.5303 40.1849 23.2846 40.0036 23.103L36.897 19.9964C36.7155 19.8152 36.4697 19.7132 36.2132 19.7132C35.9569 19.7132 35.7109 19.8152 35.5296 19.9964L32.423 23.103C32.2418 23.2846 32.1398 23.5303 32.1398 23.7868V26.9622H29.9313V14.4668C29.9313 14.1317 29.7578 13.8205 29.4728 13.6443C29.1878 13.4683 28.8318 13.4522 28.5322 13.602L22.3187 16.7086C21.9912 16.8725 21.7842 17.2074 21.7842 17.5734V23.8553H18.6089C18.0752 23.8553 17.6421 24.2884 17.6421 24.8221V31.1043H16.5379C16.0039 31.1043 15.5711 31.5371 15.5711 32.0711V44.5664H14.4668C13.9328 44.5664 13.5 44.9992 13.5 45.5332C13.5 46.0672 13.9328 46.5 14.4668 46.5H45.5332C46.0672 46.5 46.5 46.0672 46.5 45.5332C46.5 44.9992 46.0672 44.5664 45.5332 44.5664ZM34.0734 24.1872L36.2132 22.0474L38.3532 24.1872V33.1753H36.1444V27.929C36.1444 27.395 35.7117 26.9622 35.1777 26.9622H34.0734V24.1872ZM17.5047 33.0379H19.7132V44.5664H17.5047V33.0379ZM20.68 31.1043H19.5757V25.7889H23.8556V44.5664H21.6468V32.0711C21.6468 31.5371 21.214 31.1043 20.68 31.1043ZM24.8223 23.8553H23.7181V18.1709L27.9977 16.0311V44.5664H25.7891V24.8221C25.7891 24.2884 25.3561 23.8553 24.8223 23.8553ZM29.9313 28.8958H34.2109V33.1753H33.1066C32.5726 33.1753 32.1398 33.6081 32.1398 34.1421V44.5664H29.9313V28.8958ZM34.0734 35.1089H38.3532V44.5664H34.0734V35.1089ZM40.2868 44.5664V30.9668H42.4953V44.5664H40.2868Z" fill="white"/>
</svg>
