<svg width="61" height="60" viewBox="0 0 61 60" fill="none" xmlns="http://www.w3.org/2000/svg">
<rect x="0.333252" width="60" height="60" rx="30" fill="#6554C0"/>
<path d="M39.5742 17.2676C41.6325 17.2676 43.307 18.911 43.307 20.9311V46.0039C43.307 46.554 42.8525 47 42.292 47H18.3746C17.8141 47 17.3596 46.554 17.3596 46.0039V20.9311C17.3596 18.911 19.0342 17.2676 21.0925 17.2676H21.7083V16.6634C21.7083 14.6434 23.3829 13 25.4412 13H35.2256C37.2839 13 38.9584 14.6434 38.9584 16.6634V17.2676H39.5742ZM23.7383 16.6634V17.2676H36.9285V16.6634C36.9285 15.7419 36.1646 14.9922 35.2256 14.9922H25.4412C24.5022 14.9922 23.7383 15.7419 23.7383 16.6634ZM31.9641 40.5984H31.3483V45.0078H33.667V42.2696C33.667 41.3481 32.9031 40.5984 31.9641 40.5984ZM29.3184 45.0078V40.5984H28.7026C27.7636 40.5984 26.9997 41.3481 26.9997 42.2696V45.0078H29.3184ZM41.2771 45.0078V20.9311C41.2771 20.0095 40.5132 19.2598 39.5742 19.2598H21.0926C20.1536 19.2598 19.3897 20.0095 19.3897 20.9311V45.0078H24.9697V42.2696C24.9697 40.2496 26.6443 38.6062 28.7026 38.6062H31.9641C34.0224 38.6062 35.6969 40.2496 35.6969 42.2696V45.0078H41.2771ZM23.8781 21.5353C24.1632 21.5353 24.4418 21.6486 24.6439 21.8462C24.8452 22.0445 24.9607 22.3188 24.9607 22.5978C24.9607 22.8776 24.8452 23.1514 24.6439 23.349C24.4418 23.5466 24.1632 23.6603 23.8781 23.6603C23.593 23.6603 23.3145 23.5466 23.1124 23.349C22.911 23.1507 22.7955 22.8776 22.7955 22.5978C22.7955 22.3188 22.911 22.0445 23.1124 21.8462C23.3144 21.6486 23.593 21.5353 23.8781 21.5353ZM28.2269 21.5353C28.5113 21.5353 28.7906 21.6486 28.992 21.8462C29.194 22.0445 29.3096 22.3188 29.3096 22.5978C29.3096 22.8776 29.1941 23.1507 28.992 23.349C28.7906 23.5466 28.512 23.6603 28.2269 23.6603C27.9418 23.6603 27.6625 23.5466 27.4611 23.349C27.2598 23.1507 27.1443 22.8776 27.1443 22.5978C27.1443 22.3188 27.2598 22.0445 27.4611 21.8462C27.6625 21.6486 27.9418 21.5353 28.2269 21.5353ZM23.8781 25.8033C24.1632 25.8033 24.4418 25.9165 24.6439 26.1142C24.8452 26.3125 24.9607 26.586 24.9607 26.8658C24.9607 27.1456 24.8452 27.4197 24.6439 27.6173C24.4418 27.815 24.1632 27.9283 23.8781 27.9283C23.593 27.9283 23.3145 27.815 23.1124 27.6173C22.911 27.4197 22.7955 27.1456 22.7955 26.8658C22.7955 26.586 22.911 26.3126 23.1124 26.1142C23.3144 25.9166 23.593 25.8033 23.8781 25.8033ZM28.2269 25.8033C28.5113 25.8033 28.7906 25.9165 28.9927 26.1142C29.194 26.3125 29.3096 26.586 29.3096 26.8658C29.3096 27.1456 29.194 27.4197 28.9927 27.6173C28.7906 27.815 28.5112 27.9283 28.2269 27.9283C27.9418 27.9283 27.6625 27.815 27.4611 27.6173C27.2598 27.4197 27.1443 27.1456 27.1443 26.8658C27.1443 26.586 27.2598 26.3126 27.4611 26.1142C27.6625 25.9166 27.9418 25.8033 28.2269 25.8033ZM23.8781 30.0709C24.1632 30.0709 24.4418 30.1846 24.6439 30.3822C24.8452 30.5798 24.9607 30.8537 24.9607 31.1334C24.9607 31.4126 24.8452 31.6867 24.6439 31.8843C24.4418 32.0825 24.1632 32.1959 23.8781 32.1959C23.593 32.1959 23.3145 32.0826 23.1124 31.8843C22.911 31.6867 22.7955 31.4125 22.7955 31.1334C22.7955 30.8537 22.911 30.5798 23.1124 30.3822C23.3144 30.1846 23.593 30.0709 23.8781 30.0709ZM28.2269 30.0709C28.5113 30.0709 28.7906 30.1846 28.9927 30.3822C29.194 30.5798 29.3096 30.8537 29.3096 31.1334C29.3096 31.4126 29.194 31.6867 28.9927 31.8843C28.7906 32.0825 28.5112 32.1959 28.2269 32.1959C27.9418 32.1959 27.6625 32.0826 27.4611 31.8843C27.2598 31.6867 27.1443 31.4125 27.1443 31.1334C27.1443 30.8537 27.2598 30.5798 27.4611 30.3822C27.6625 30.1846 27.9418 30.0709 28.2269 30.0709ZM23.8781 34.3382C24.1632 34.3382 24.4425 34.4516 24.6439 34.6498C24.8452 34.8474 24.9607 35.1209 24.9607 35.4007C24.9607 35.6804 24.8452 35.9546 24.6439 36.1523C24.4425 36.3499 24.1632 36.4632 23.8781 36.4632C23.593 36.4632 23.3145 36.3499 23.1124 36.1523C22.911 35.9546 22.7955 35.6804 22.7955 35.4007C22.7955 35.1208 22.911 34.8474 23.1124 34.6498C23.3144 34.4516 23.593 34.3382 23.8781 34.3382ZM28.2269 34.3382C28.512 34.3382 28.7906 34.4516 28.992 34.6498C29.194 34.8474 29.3096 35.1209 29.3096 35.4007C29.3096 35.6804 29.1941 35.9546 28.992 36.1523C28.7906 36.3499 28.512 36.4632 28.2269 36.4632C27.9418 36.4632 27.6625 36.3499 27.4611 36.1523C27.2598 35.9546 27.1443 35.6804 27.1443 35.4007C27.1443 35.1208 27.2598 34.8474 27.4611 34.6498C27.6625 34.4516 27.9418 34.3382 28.2269 34.3382ZM32.5754 21.5353C32.8606 21.5353 33.1399 21.6486 33.3414 21.8462C33.5428 22.0445 33.6583 22.3188 33.6583 22.5978C33.6583 22.8776 33.5428 23.1514 33.3414 23.349C33.1399 23.5466 32.8606 23.6603 32.5754 23.6603C32.2901 23.6603 32.0114 23.5466 31.8101 23.349C31.6086 23.1514 31.4931 22.8776 31.4931 22.5978C31.4931 22.3181 31.6086 22.0445 31.8101 21.8462C32.0114 21.6486 32.2909 21.5353 32.5754 21.5353ZM36.9239 21.5353C37.209 21.5353 37.4876 21.6486 37.6896 21.8462C37.891 22.0445 38.0065 22.3181 38.0065 22.5978C38.0065 22.8776 37.891 23.1514 37.6896 23.349C37.4876 23.5466 37.209 23.6603 36.9239 23.6603C36.6389 23.6603 36.3595 23.5466 36.1582 23.349C35.9568 23.1514 35.8412 22.8776 35.8412 22.5978C35.8412 22.3188 35.9568 22.0445 36.1582 21.8462C36.3602 21.6486 36.6389 21.5353 36.9239 21.5353ZM32.5751 25.8033C32.8602 25.8033 33.1388 25.9165 33.3409 26.1142C33.5423 26.3125 33.6577 26.586 33.6577 26.8658C33.6577 27.1456 33.5423 27.4197 33.3409 27.6173C33.1388 27.815 32.8602 27.9283 32.5751 27.9283C32.2906 27.9283 32.0113 27.815 31.81 27.6173C31.6079 27.4197 31.4924 27.1456 31.4924 26.8658C31.4924 26.586 31.6079 26.3126 31.81 26.1142C32.0113 25.9166 32.2907 25.8033 32.5751 25.8033ZM36.9239 25.8033C37.209 25.8033 37.4876 25.9165 37.6896 26.1142C37.891 26.3125 38.0065 26.586 38.0065 26.8658C38.0065 27.1456 37.891 27.4189 37.6896 27.6173C37.4876 27.815 37.209 27.9283 36.9239 27.9283C36.6389 27.9283 36.3603 27.815 36.1582 27.6173C35.9568 27.419 35.8412 27.1456 35.8412 26.8658C35.8412 26.586 35.9568 26.3126 36.1582 26.1142C36.3602 25.9166 36.6389 25.8033 36.9239 25.8033ZM32.5754 30.0709C32.8606 30.0709 33.1399 30.1846 33.3414 30.3822C33.5428 30.5798 33.6583 30.8537 33.6583 31.1334C33.6583 31.4126 33.5428 31.6867 33.3414 31.8843C33.1399 32.0825 32.8606 32.1959 32.5754 32.1959C32.2909 32.1959 32.0114 32.0826 31.8101 31.8843C31.6086 31.6867 31.4931 31.4132 31.4931 31.1334C31.4931 30.8537 31.6086 30.5798 31.8101 30.3822C32.0114 30.1846 32.2909 30.0709 32.5754 30.0709ZM36.9239 30.0709C37.209 30.0709 37.4876 30.1846 37.6896 30.3822C37.891 30.5798 38.0065 30.8537 38.0065 31.1334C38.0065 31.4126 37.891 31.6867 37.6896 31.8843C37.4876 32.0825 37.209 32.1959 36.9239 32.1959C36.6389 32.1959 36.3603 32.0826 36.1582 31.8843C35.9568 31.6867 35.8412 31.4125 35.8412 31.1334C35.8412 30.8537 35.9568 30.5798 36.1582 30.3822C36.3602 30.1846 36.6389 30.0709 36.9239 30.0709ZM32.5751 34.3382C32.8602 34.3382 33.1395 34.4516 33.3409 34.6498C33.5423 34.8474 33.6577 35.1209 33.6577 35.4007C33.6577 35.6804 33.5423 35.9546 33.3409 36.1523C33.1395 36.3499 32.8602 36.4632 32.5751 36.4632C32.2906 36.4632 32.0113 36.3499 31.81 36.1523C31.6079 35.9546 31.4924 35.6804 31.4924 35.4007C31.4924 35.1208 31.6079 34.8474 31.81 34.6498C32.0113 34.4516 32.2907 34.3382 32.5751 34.3382ZM36.9239 34.3382C37.209 34.3382 37.4876 34.4516 37.6896 34.6498C37.891 34.8474 38.0065 35.1209 38.0065 35.4007C38.0065 35.6804 37.891 35.9546 37.6896 36.1523C37.4876 36.3499 37.209 36.4632 36.9239 36.4632C36.6389 36.4632 36.3603 36.3499 36.1582 36.1523C35.9568 35.9546 35.8412 35.6804 35.8412 35.4007C35.8412 35.1208 35.9568 34.8474 36.1582 34.6498C36.3602 34.4516 36.6389 34.3382 36.9239 34.3382Z" fill="white"/>
</svg>
