<svg width="28" height="20" viewBox="0 0 28 20" fill="none" xmlns="http://www.w3.org/2000/svg">
<mask id="mask0_7073_34135" style="mask-type:alpha" maskUnits="userSpaceOnUse" x="0" y="0" width="28" height="20">
<path d="M25.3333 0H2.66667C1.19391 0 0 1.19391 0 2.66667V17.3333C0 18.8061 1.19391 20 2.66667 20H25.3333C26.8061 20 28 18.8061 28 17.3333V2.66667C28 1.19391 26.8061 0 25.3333 0Z" fill="white"/>
</mask>
<g mask="url(#mask0_7073_34135)">
<path d="M25.3333 0H2.66667C1.19391 0 0 1.19391 0 2.66667V17.3333C0 18.8061 1.19391 20 2.66667 20H25.3333C26.8061 20 28 18.8061 28 17.3333V2.66667C28 1.19391 26.8061 0 25.3333 0Z" fill="#003495"/>
<path fill-rule="evenodd" clip-rule="evenodd" d="M0 0H28V9.33333H0V0Z" fill="#FDD200"/>
<path fill-rule="evenodd" clip-rule="evenodd" d="M0 14.6667H28V20.0001H0V14.6667Z" fill="#D0091E"/>
<path d="M25.3334 0.666748H2.66669C1.56212 0.666748 0.666687 1.56218 0.666687 2.66675V17.3334C0.666687 18.438 1.56212 19.3334 2.66669 19.3334H25.3334C26.4379 19.3334 27.3334 18.438 27.3334 17.3334V2.66675C27.3334 1.56218 26.4379 0.666748 25.3334 0.666748Z" stroke="black" stroke-opacity="0.1"/>
</g>
</svg>
