<svg width="28" height="20" viewBox="0 0 28 20" fill="none" xmlns="http://www.w3.org/2000/svg">
<mask id="mask0_7073_34130" style="mask-type:alpha" maskUnits="userSpaceOnUse" x="0" y="0" width="28" height="20">
<path d="M25.3333 0H2.66667C1.19391 0 0 1.19391 0 2.66667V17.3333C0 18.8061 1.19391 20 2.66667 20H25.3333C26.8061 20 28 18.8061 28 17.3333V2.66667C28 1.19391 26.8061 0 25.3333 0Z" fill="white"/>
</mask>
<g mask="url(#mask0_7073_34130)">
<path d="M25.3333 0H2.66667C1.19391 0 0 1.19391 0 2.66667V17.3333C0 18.8061 1.19391 20 2.66667 20H25.3333C26.8061 20 28 18.8061 28 17.3333V2.66667C28 1.19391 26.8061 0 25.3333 0Z" fill="white"/>
<path fill-rule="evenodd" clip-rule="evenodd" d="M17.3334 10.0001C17.3334 8.16008 15.84 6.66675 14 6.66675C12.16 6.66675 10.6667 8.16008 10.6667 10.0001C10.6667 11.8401 12.16 13.3334 14 13.3334C15.84 13.3334 17.3334 11.8401 17.3334 10.0001ZM14 12.0001C15.104 12.0001 16 10.8067 16 9.33341C16 7.86008 15.104 6.66675 14 6.66675C12.896 6.66675 12 7.86008 12 9.33341C12 10.8067 12.896 12.0001 14 12.0001Z" fill="#644B21"/>
<path d="M14 10.6667C14.3682 10.6667 14.6666 10.0697 14.6666 9.33333C14.6666 8.59695 14.3682 8 14 8C13.6318 8 13.3333 8.59695 13.3333 9.33333C13.3333 10.0697 13.6318 10.6667 14 10.6667Z" fill="#D5B852"/>
<path fill-rule="evenodd" clip-rule="evenodd" d="M0 0H9.33333V20H0V0Z" fill="#006946"/>
<path fill-rule="evenodd" clip-rule="evenodd" d="M18.6667 0H28V20H18.6667V0Z" fill="#D0091E"/>
<path d="M25.3334 0.666748H2.66669C1.56212 0.666748 0.666687 1.56218 0.666687 2.66675V17.3334C0.666687 18.438 1.56212 19.3334 2.66669 19.3334H25.3334C26.4379 19.3334 27.3334 18.438 27.3334 17.3334V2.66675C27.3334 1.56218 26.4379 0.666748 25.3334 0.666748Z" stroke="black" stroke-opacity="0.1"/>
</g>
</svg>
