<svg width="28" height="20" viewBox="0 0 28 20" fill="none" xmlns="http://www.w3.org/2000/svg">
<mask id="mask0_7073_34132" style="mask-type:alpha" maskUnits="userSpaceOnUse" x="0" y="0" width="28" height="20">
<path d="M25.3333 0H2.66667C1.19391 0 0 1.19391 0 2.66667V17.3333C0 18.8061 1.19391 20 2.66667 20H25.3333C26.8061 20 28 18.8061 28 17.3333V2.66667C28 1.19391 26.8061 0 25.3333 0Z" fill="white"/>
</mask>
<g mask="url(#mask0_7073_34132)">
<path d="M25.3333 0H2.66667C1.19391 0 0 1.19391 0 2.66667V17.3333C0 18.8061 1.19391 20 2.66667 20H25.3333C26.8061 20 28 18.8061 28 17.3333V2.66667C28 1.19391 26.8061 0 25.3333 0Z" fill="#009C34"/>
<path fill-rule="evenodd" clip-rule="evenodd" d="M14 2.66675L24 10.0001L14 17.3334L4 10.0001" fill="#F8E23D"/>
<path d="M14 14.6666C16.5773 14.6666 18.6666 12.5772 18.6666 9.99992C18.6666 7.42259 16.5773 5.33325 14 5.33325C11.4227 5.33325 9.33331 7.42259 9.33331 9.99992C9.33331 12.5772 11.4227 14.6666 14 14.6666Z" fill="#002478"/>
<path fill-rule="evenodd" clip-rule="evenodd" d="M12 12V13.3333H13.3333V12H12ZM14.6667 12V13.3333H16V12H14.6667Z" fill="#91A1C3"/>
<path d="M10.6667 8C10.6667 8 13.6854 8.53333 15.8614 9.464L18.6667 10.6667" stroke="#C9D0E0"/>
<path d="M25.3334 0.666748H2.66669C1.56212 0.666748 0.666687 1.56218 0.666687 2.66675V17.3334C0.666687 18.438 1.56212 19.3334 2.66669 19.3334H25.3334C26.4379 19.3334 27.3334 18.438 27.3334 17.3334V2.66675C27.3334 1.56218 26.4379 0.666748 25.3334 0.666748Z" stroke="black" stroke-opacity="0.1"/>
</g>
</svg>
