<svg width="28" height="20" viewBox="0 0 28 20" fill="none" xmlns="http://www.w3.org/2000/svg">
<mask id="mask0_7073_34134" style="mask-type:alpha" maskUnits="userSpaceOnUse" x="0" y="0" width="28" height="20">
<path d="M25.3333 0H2.66667C1.19391 0 0 1.19391 0 2.66667V17.3333C0 18.8061 1.19391 20 2.66667 20H25.3333C26.8061 20 28 18.8061 28 17.3333V2.66667C28 1.19391 26.8061 0 25.3333 0Z" fill="white"/>
</mask>
<g mask="url(#mask0_7073_34134)">
<path d="M25.3333 0H2.66667C1.19391 0 0 1.19391 0 2.66667V17.3333C0 18.8061 1.19391 20 2.66667 20H25.3333C26.8061 20 28 18.8061 28 17.3333V2.66667C28 1.19391 26.8061 0 25.3333 0Z" fill="white"/>
<path fill-rule="evenodd" clip-rule="evenodd" d="M0 0H12V10.6667H0V0Z" fill="#0034A9"/>
<path fill-rule="evenodd" clip-rule="evenodd" d="M6.00001 6.96935L4.04001 8.00002L4.41335 5.81868L2.82935 4.27202L5.02001 3.95468L6.00001 1.96802L6.98001 3.95468L9.17068 4.27468L7.58401 5.81868L7.96001 8.00002" fill="white"/>
<path fill-rule="evenodd" clip-rule="evenodd" d="M0 10.6667H28V20.0001H0V10.6667Z" fill="#D7280F"/>
<path d="M25.3334 0.666748H2.66669C1.56212 0.666748 0.666687 1.56218 0.666687 2.66675V17.3334C0.666687 18.438 1.56212 19.3334 2.66669 19.3334H25.3334C26.4379 19.3334 27.3334 18.438 27.3334 17.3334V2.66675C27.3334 1.56218 26.4379 0.666748 25.3334 0.666748Z" stroke="black" stroke-opacity="0.1"/>
</g>
</svg>
