<svg width="160" height="32" viewBox="0 0 160 32" fill="none" xmlns="http://www.w3.org/2000/svg">
<path fill-rule="evenodd" clip-rule="evenodd" d="M75.819 23.8522H78.9726V18.9699C78.9726 17.5172 79.7947 13.5593 82.8109 13.5593C84.3185 13.5593 84.5943 15.0103 84.5943 16.4631V23.853H87.6096V15.2749C87.6096 13.5593 86.5125 11.7123 84.0444 11.7123C80.8917 11.7123 79.5207 13.9554 78.9717 14.8789V11.976H75.8181V23.8522H75.819ZM48.3987 23.8522H52.7859C55.3905 23.8522 60.4633 23.8522 60.4633 19.6288C60.4633 16.8583 58.2701 15.9339 56.2135 15.6701V15.5378C57.7221 15.2741 59.6412 14.2182 59.6412 11.9751C59.6412 8.67621 55.9395 8.28017 52.7859 8.28017H48.3987V23.8522ZM51.5514 9.73204H52.785C55.1156 9.73204 56.4867 10.1281 56.4867 12.2389C56.4867 14.3497 54.979 14.878 52.785 14.878H51.5514V9.73204ZM51.5514 16.4622H52.785C55.2531 16.4622 57.4462 16.9897 57.4462 19.3642C57.4462 22.2662 54.8416 22.3985 52.785 22.3985H51.5514V16.4622ZM152.323 23.8522H155.34V18.4407C155.34 15.2741 157.121 14.482 160 14.3505V11.8437C157.395 11.976 156.298 13.4279 155.34 15.0103V12.1074H152.323V23.8522ZM108.86 24.1159C113.112 24.1159 115.304 22.0042 115.304 17.9141C115.304 13.9545 113.112 11.7114 108.86 11.7114C104.61 11.7114 102.555 13.9545 102.555 17.9141C102.555 22.0034 104.61 24.1159 108.86 24.1159ZM105.845 17.9132C105.845 15.8015 106.255 12.7664 108.86 12.7664C111.604 12.7664 112.015 15.8015 112.015 17.9132C112.015 20.1572 111.604 23.0592 108.86 23.0592C106.255 23.0601 105.845 20.1572 105.845 17.9132ZM70.1973 19.7603C70.1973 21.7405 68.6887 22.5326 67.5917 22.5326C66.6321 22.5326 65.9466 21.8719 65.9466 20.8161C65.9466 18.5721 68.9628 18.4407 70.1964 18.3093V19.7603H70.1973ZM70.1973 23.8522H73.2134V16.1976C73.2134 13.9545 72.8019 11.7114 68.1407 11.7114C63.7535 11.7114 63.067 13.5584 62.793 15.4064H66.0832C66.2197 13.9545 66.3572 12.7672 68.1398 12.7672C70.1964 12.7672 70.1964 14.8789 70.1964 16.1976V17.2534C68.2772 17.3849 62.244 17.5172 62.244 21.2121C62.244 22.7972 63.8891 24.1159 66.0832 24.1159C68.4138 24.1159 69.6483 22.9286 70.1964 22.268V23.8522H70.1973ZM100.771 22.3994C99.95 22.6649 99.2636 22.7963 98.3031 22.7963C94.6014 22.7963 93.0929 19.4965 93.0929 16.5945C93.0929 14.4829 93.9159 12.7672 95.6976 12.7672C97.7551 12.7672 97.7551 14.4829 97.7551 15.8024H101.044C101.044 13.4279 99.8117 11.7123 95.8341 11.7123C91.5844 11.7123 89.6662 13.9554 89.6662 17.5172C89.6662 21.8728 92.4083 23.9845 97.0686 24.1159C98.5762 24.2473 99.9491 23.719 101.182 23.1915L100.771 22.3994ZM149.854 22.3994C148.896 22.7963 148.209 22.7963 147.25 22.7963C142.864 22.7963 141.629 18.9699 141.629 16.5945H150.265C150.265 14.3505 149.306 11.7114 144.644 11.7114C140.121 11.7114 138.613 14.0868 138.613 17.3849C138.613 22.1357 141.766 24.1159 145.741 24.1159C147.523 24.1159 149.032 23.719 150.265 23.3238L149.854 22.3994ZM141.767 15.4064C141.767 14.7466 142.177 12.7672 144.645 12.7672C146.839 12.7672 147.25 14.4829 147.25 15.4064H141.767ZM117.361 23.8522H120.24V18.9699C120.24 17.7827 120.653 13.6908 123.395 13.6908C125.04 13.6908 125.176 15.0103 125.176 16.4631V23.853H128.192V18.9708C128.192 17.518 128.604 13.6916 131.209 13.6916C132.716 13.6916 132.99 14.8789 132.99 16.1985V23.853H136.007V15.8024C136.007 13.8231 135.457 11.8437 132.442 11.8437C129.7 11.8437 128.603 13.8231 128.191 14.7466H128.054C128.054 13.427 127.095 11.8437 124.627 11.8437C121.885 11.8437 120.652 13.9554 120.376 14.8789H120.239V12.1074H117.361V23.8522H117.361ZM0 0.362732H40.3089V31.6373H0V0.362732Z" fill="#000000"/>
<path fill-rule="evenodd" clip-rule="evenodd" d="M34.0033 10.5237C34.8254 10.5237 34.9629 10.7875 35.3735 11.5795L38.8011 21.4763H35.6484L34.9629 19.1009H30.8497L30.0267 21.4763H28.2442L31.8093 10.5237H34.0033ZM34.4139 17.5167H31.2603L32.9054 12.5031L34.4139 17.5167ZM16.5901 21.4772H11.7914V10.5246H16.7267C19.0573 10.5246 19.8803 12.3716 18.6458 14.0873L18.0978 14.8785C22.0744 16.7264 20.7042 21.4772 16.5901 21.4772ZM16.0421 15.4068L17.0016 13.9549C17.1382 13.6912 17.2757 13.4275 17.2757 13.1629C17.2757 12.5031 16.5901 11.9756 15.9046 11.9756H14.5335V20.0244H15.2191C16.5901 20.0244 17.6872 19.3655 17.6872 17.649C17.6872 16.3312 17.0016 15.5383 16.0421 15.4068Z" fill="white"/>
<path fill-rule="evenodd" clip-rule="evenodd" d="M6.99247 21.4772H2.19376V10.5246H7.12903C9.45965 10.5246 10.2827 12.3716 9.04815 14.0873L8.50009 14.8785C12.4758 16.7264 11.1057 21.4772 6.99247 21.4772ZM6.4435 15.4068L7.40306 13.9549C7.53962 13.6912 7.67709 13.4275 7.67709 13.1629C7.67709 12.5031 6.99156 11.9756 6.30603 11.9756H4.93497V20.0244H5.6205C6.99156 20.0244 8.08859 19.3655 8.08859 17.649C8.08859 16.3312 7.40306 15.5383 6.4435 15.4068ZM27.8324 10.5237H29.615L26.1873 21.4763H23.4452L19.7435 10.5237H21.8001C22.4857 10.5237 22.7597 10.6551 23.1712 11.9756L25.2278 18.8363L27.8324 10.5237Z" fill="white"/>
<path fill-rule="evenodd" clip-rule="evenodd" d="M34.4133 17.5166H31.2596L32.9047 12.5029L34.4133 17.5166Z" fill="#000000"/>
</svg>
