<svg width="156" height="48" viewBox="0 0 156 48" fill="none" xmlns="http://www.w3.org/2000/svg">
<g clip-path="url(#clip0_6397_29319)">
<path fill-rule="evenodd" clip-rule="evenodd" d="M28.9247 40.1569C28.9247 44.882 31.9749 46.4333 35.5365 46.4333C40.6964 46.4333 42.5138 43.9972 42.5138 41.4125V37.795H38.1528V40.1569C38.1528 42.149 37.6458 43.4041 35.9018 43.4041C34.3722 43.4041 33.573 42.7419 33.573 40.3797V34.9881H42.5138V26.7897C42.5138 22.0612 39.3859 20.4356 35.6827 20.4356C31.3214 20.4356 28.9247 22.95 28.9247 27.3043V40.1569ZM33.573 26.2712C33.573 24.4276 34.1571 23.4648 35.9018 23.4648C37.4999 23.4648 38.1528 24.3539 38.1528 26.6417V31.5886H33.573V26.2712Z" fill="#000000"/>
<path fill-rule="evenodd" clip-rule="evenodd" d="M44.6434 46.0222H49.4096V9.70242H44.6434V46.0222Z" fill="#000000"/>
<path fill-rule="evenodd" clip-rule="evenodd" d="M51.6415 40.1569C51.6415 44.882 54.6994 46.4333 58.2696 46.4333C63.4413 46.4333 65.263 43.9972 65.263 41.4125V37.795H60.8942V40.1569C60.8942 42.149 60.3829 43.4041 58.6346 43.4041C57.1051 43.4041 56.3023 42.7419 56.3023 40.3797V34.9881H65.263V26.7897C65.263 22.0612 62.204 20.4356 58.415 20.4356C54.0425 20.4356 51.6415 22.95 51.6415 27.3043V40.1569ZM56.3023 26.2712C56.3023 24.4276 56.8864 23.4648 58.6346 23.4648C60.2373 23.4648 60.8942 24.3539 60.8942 26.6417V31.5886H56.3023V26.2712Z" fill="#000000"/>
<path fill-rule="evenodd" clip-rule="evenodd" d="M67.3602 46.0222H72.0977V26.7613C72.0977 24.7737 72.9736 24.0409 74.1424 24.0409C75.5987 24.0409 75.8906 24.996 75.8906 26.3211V46.0222H80.6327V26.7613C80.6327 24.7737 81.505 24.0409 82.6731 24.0409C84.1298 24.0409 84.4945 24.996 84.4945 26.3211V46.0222H89.1625V25.4363C89.1625 21.687 87.119 20.4359 84.5673 20.4359C82.4541 20.4359 81.1403 21.6127 80.4133 22.8641C79.3914 21.2468 77.9308 20.4359 76.3288 20.4359C74.3614 20.4359 72.6089 21.5384 71.8786 22.8641H71.733V20.7322H67.3602V46.0222Z" fill="#000000"/>
<path fill-rule="evenodd" clip-rule="evenodd" d="M91.2931 40.1569C91.2931 44.882 94.4334 46.4333 97.9345 46.4333C103.191 46.4333 105.016 43.9972 105.016 41.4125V37.795H100.562V40.1569C100.562 42.149 100.051 43.4041 98.2995 43.4041C96.8431 43.4041 96.0393 42.7419 96.0393 40.3797V34.9881H105.016V26.7897C105.016 22.0612 101.877 20.4356 98.1526 20.4356C93.7762 20.4356 91.2931 22.95 91.2931 27.3043V40.1569ZM96.0393 26.2712C96.0393 24.4276 96.5506 23.4648 98.2995 23.4648C99.9057 23.4648 100.562 24.3539 100.562 26.6417V31.5886H96.0393V26.2712Z" fill="#000000"/>
<path fill-rule="evenodd" clip-rule="evenodd" d="M107.151 46.0266H111.872V26.7661C111.872 24.7742 112.74 24.0414 113.9 24.0414C115.352 24.0414 115.717 24.9965 115.717 26.3216V46.0266H120.367V25.441C120.367 21.6875 118.33 20.4364 116.009 20.4364C115.069 20.4364 114.192 20.6584 113.47 21.1026C112.74 21.4735 112.091 22.1317 111.653 22.8643H111.58V20.733H107.151V46.0266Z" fill="#000000"/>
<path fill-rule="evenodd" clip-rule="evenodd" d="M124.544 42.6437C124.544 44.9238 125.94 46.0266 129.688 46.0266C131.01 46.0266 132.187 45.9523 132.771 45.8787V42.57C132.479 42.6437 132.114 42.7179 131.522 42.7179C130.126 42.7179 129.315 42.3477 129.315 40.4378V24.0414H132.187V20.7327H129.315V14.2633L124.544 15.9586V20.7327H122.192V24.0414H124.544V42.6437Z" fill="#000000"/>
<path fill-rule="evenodd" clip-rule="evenodd" d="M134.093 19.201H138.717V14.2626H134.093V19.201Z" fill="#000000"/>
<path fill-rule="evenodd" clip-rule="evenodd" d="M134.093 46.0266H138.717V20.6831H134.093V46.0266Z" fill="#000000"/>
<path fill-rule="evenodd" clip-rule="evenodd" d="M141.249 28.2721H146.003V25.9011C146.003 24.3541 146.66 23.761 147.974 23.761C149.589 23.761 149.954 24.7246 149.954 26.1971V30.338C144.535 30.338 143.731 30.7085 142.636 31.8856C141.321 33.2186 140.948 34.396 140.948 39.5648C140.948 45.623 142.71 46.4378 145.566 46.4378C146.733 46.4378 148.047 45.9933 148.932 45.1042C149.443 44.586 149.735 44.0754 150.247 43.5565V46.1412H154.709V26.6419C154.709 22.1393 152.298 20.4358 147.974 20.4358C143.513 20.4358 141.249 22.2133 141.249 25.9751V28.2721ZM149.954 33.6632V40.157C149.954 41.927 149.078 43.1117 147.463 43.1117C146.003 43.1117 145.639 42.5938 145.639 38.9066C145.639 34.8406 146.222 33.6632 148.494 33.6632H149.954Z" fill="#000000"/>
<path d="M2.80443 22.324H11.0581C11.0581 22.324 12.1826 22.3735 12.1826 20.7901V1.98906C12.1826 1.98906 12.0864 0.801577 11.4011 0.801577C10.7158 0.801577 10.2268 1.5439 10.08 1.79155C9.93354 2.03859 0.985356 18.6132 0.985356 18.6132C0.985356 18.6132 0.240472 20.1141 0.985356 21.2352C1.47388 21.9705 2.80443 22.324 2.80443 22.324Z" fill="#000000"/>
<path d="M9.65788 2.60317V10.9541C9.65788 10.9541 9.60902 12.0923 11.1736 12.0923H29.7543C29.7543 12.0923 30.9277 11.9948 30.9277 11.3017C30.9277 10.6083 30.1946 10.1133 29.9502 9.96471C29.7055 9.81643 13.3253 0.76263 13.3253 0.76263C13.3253 0.76263 12.0311 0.0835886 10.92 0.694452C9.78077 1.32121 9.65788 2.60317 9.65788 2.60317Z" fill="#000000"/>
<path d="M22.3549 29.3101V20.9583C22.3549 20.9583 22.4041 19.8203 20.8393 19.8203H2.25858C2.25858 19.8203 1.21107 19.8237 1.08513 20.6116C0.984922 21.2359 1.81857 21.7997 2.063 21.9479C2.30733 22.0959 18.6877 31.1506 18.6877 31.1506C18.6877 31.1506 20.0396 31.6273 21.2794 31.1506C22.0975 30.8357 22.3549 29.3101 22.3549 29.3101Z" fill="#000000"/>
<path d="M29.2874 9.8572H21.0336C21.0336 9.8572 19.9088 9.80767 19.9088 11.3908V30.1918C19.9088 30.1918 20.0117 31.3557 20.695 31.3028C21.398 31.2487 21.865 30.6373 22.0117 30.3896C22.1581 30.1423 31.1063 13.5679 31.1063 13.5679C31.1063 13.5679 31.8815 12.1542 31.2873 11.2171C30.5369 10.0342 29.2874 9.8572 29.2874 9.8572Z" fill="#000000"/>
<path d="M2.25863 19.8197H12.1828V20.7901C12.1828 22.3735 11.058 22.324 11.058 22.324H2.80427H2.73771C2.73771 22.324 1.84529 21.8721 1.57759 21.5862C1.57759 21.5862 0.763662 20.942 1.20202 20.2994C1.20202 20.2994 1.41955 19.857 2.25863 19.8197Z" fill="#000000"/>
<path d="M12.1824 12.0923V1.98924C12.1824 1.98924 12.0861 0.801765 11.4008 0.801765C10.7156 0.801765 10.2265 1.54409 10.08 1.79174C10.0624 1.8214 9.91472 2.09228 9.67042 2.54233C9.66215 2.58054 9.65789 2.60317 9.65789 2.60317V10.9541C9.65789 10.9541 9.60878 12.0923 11.1737 12.0923H12.1824Z" fill="#000000"/>
<path d="M21.6429 30.8863C21.666 30.8616 21.6893 30.8374 21.7098 30.8117C22.3558 30.0101 22.3556 29.3106 22.3556 29.3106V20.9587C22.3556 20.9587 22.4046 19.8208 20.8397 19.8208H19.9088V30.1917C19.9088 30.1917 19.9828 31.0945 20.4556 31.3254C20.7499 31.3073 21.0376 31.2563 21.2798 31.1511C21.416 31.0918 21.5359 30.9979 21.6429 30.8863Z" fill="#000000"/>
<path d="M30.2668 10.1861C29.783 9.94942 29.2874 9.85617 29.2874 9.85617H21.0333C21.0333 9.85617 19.9088 9.80634 19.9088 11.3897V12.0923H29.7548C29.7548 12.0923 30.9283 11.9948 30.9283 11.3017C30.9283 10.8144 30.6692 10.4401 30.2668 10.1861Z" fill="#000000"/>
</g>
<defs>
<clipPath id="clip0_6397_29319">
<rect width="155" height="47.12" fill="white" transform="translate(0.5 0.440002)"/>
</clipPath>
</defs>
</svg>
