<svg width="160" height="40" viewBox="0 0 160 40" fill="none" xmlns="http://www.w3.org/2000/svg">
<path fill-rule="evenodd" clip-rule="evenodd" d="M58.1165 33.9722H50.2118V19.6327H66.0213C72.0598 19.4048 72.386 27.3032 68.4266 29.2145L71.9206 33.9722H62.4786L60.0564 29.5779H58.1165V33.9722ZM58.1165 23.2718V25.9372H61.2216C64.0647 25.9372 64.0187 23.2718 61.1742 23.2718H58.1165Z" fill="#000000"/>
<path fill-rule="evenodd" clip-rule="evenodd" d="M33.0071 33.9724H19.2951V7.52189H138.184C143.571 7.33742 145.063 16.6921 138.184 17.4203H33.0071V33.9724ZM33.0073 13.6895V11.2322C33.0073 11.2322 123.152 11.1875 123.336 11.2322C124.546 11.5509 124.637 13.2337 123.336 13.6895H33.0073Z" fill="#000000"/>
<path d="M37.6966 33.9727H45.5526V19.6331H37.6966V33.9727Z" fill="#000000"/>
<path d="M75.3503 19.6331V33.9726H92.5111V30.3498H83.3937V28.4406H91.5801V24.9092H83.444V23.2725H91.9063V19.6331H75.3503Z" fill="#000000"/>
<path d="M96.7061 19.6331V33.9726H112.187V30.3078H104.795V19.6331H96.7061Z" fill="#000000"/>
<path d="M114.21 19.6331V33.9726H129.688V30.3078H122.299V19.6331H114.21Z" fill="#000000"/>
<path d="M132.018 33.9727H139.875V19.6331H132.018V33.9727Z" fill="#000000"/>
</svg>
