<svg width="160" height="62" viewBox="0 0 160 62" fill="none" xmlns="http://www.w3.org/2000/svg">
<g clip-path="url(#clip0_6417_29812)">
<path d="M27.8503 32.4091C28.6082 32.4091 29.3666 32.4925 30.125 32.6582C30.8829 32.8239 31.5649 33.098 32.1691 33.4815C32.7738 33.8656 33.2656 34.3629 33.6447 34.9736C34.0232 35.5852 34.2136 36.3367 34.2136 37.2276C34.2136 38.7191 33.7837 39.9423 32.9222 40.8949C32.0616 41.8476 30.9446 42.5009 29.5724 42.8531V42.9149C30.6786 43.1021 31.6052 43.6045 32.3542 44.4226C33.1017 45.2408 33.4757 46.3028 33.4757 47.6085C33.4757 48.7276 33.2456 49.7123 32.7841 50.5617C32.3233 51.4111 31.6825 52.1215 30.8629 52.6908C30.0428 53.2607 29.0586 53.6903 27.9122 53.9808C26.7642 54.2714 25.5139 54.4156 24.1617 54.4156H16.6866C16.0641 54.4156 15.5922 53.8471 15.7003 53.2273L19.3354 32.4091H27.8503ZM21.9788 44.9978L21.0874 50.251H24.0692C24.6432 50.251 25.1854 50.199 25.6985 50.095C26.2108 49.9917 26.6663 49.826 27.0661 49.5978C27.466 49.3704 27.7835 49.0591 28.0195 48.6652C28.2547 48.2721 28.373 47.795 28.373 47.2354C28.373 46.5317 28.1062 45.9817 27.5734 45.5879C27.0406 45.1948 26.2827 44.9978 25.2987 44.9978H21.9788ZM23.4547 36.5745L22.655 41.268H25.7911C26.1593 41.268 26.5437 41.2272 26.9435 41.1439C27.3425 41.0621 27.7064 40.9181 28.0349 40.7123C28.3627 40.5064 28.634 40.2285 28.8492 39.8784C29.0646 39.5284 29.1719 39.0965 29.1719 38.5815C29.1719 37.8607 28.8955 37.3465 28.3422 37.0381C27.7886 36.7282 27.0919 36.5745 26.2518 36.5745H23.4547ZM50.4434 43.4744C50.4434 43.765 50.4279 44.0756 50.3971 44.407C50.367 44.7392 50.3207 45.0602 50.259 45.3709L49.2138 51.4007C49.1109 51.9402 49.0345 52.4886 48.9832 53.0482C48.9316 53.6078 48.9068 54.0633 48.9068 54.4156H44.5418C44.5418 54.1882 44.5514 53.9236 44.5726 53.6234C44.5926 53.3232 44.6234 53.0378 44.6646 52.768H44.6029C43.4761 54.1153 41.9181 54.7886 39.9301 54.7886C39.3973 54.7886 38.8496 54.721 38.2859 54.5865C37.7222 54.452 37.2101 54.2246 36.7491 53.9028C36.2883 53.5818 35.9136 53.1567 35.6268 52.6283C35.3403 52.1 35.1969 51.4527 35.1969 50.6858C35.1969 49.4425 35.5041 48.4274 36.1194 47.6404C36.7337 46.8527 37.5378 46.2411 38.5322 45.8056C39.5258 45.3709 40.6524 45.0707 41.913 44.9042C43.1734 44.7392 44.4389 44.656 45.7096 44.656C45.7508 44.4695 45.7713 44.3245 45.7713 44.2205C45.7713 44.1172 45.7713 44.0236 45.7713 43.9403C45.7713 43.3399 45.5612 42.9 45.1408 42.6198C44.7205 42.3403 44.1318 42.2007 43.3732 42.2007C42.6765 42.2007 41.9747 42.3352 41.2676 42.6042C40.5606 42.874 39.9205 43.2262 39.3465 43.6609L37.3173 40.802C38.2396 40.0559 39.3002 39.4808 40.4996 39.0765C41.6983 38.6723 42.8816 38.4701 44.0494 38.4701C44.9717 38.4701 45.8221 38.569 46.6012 38.7659C47.3802 38.9628 48.0513 39.2683 48.615 39.6821C49.1779 40.0976 49.624 40.6148 49.9517 41.2368C50.2795 41.8588 50.4434 42.6042 50.4434 43.4744ZM45.0027 47.6404C44.3875 47.6404 43.7628 47.6657 43.1279 47.717C42.4921 47.769 41.9232 47.8782 41.4219 48.0439C40.9192 48.2097 40.504 48.4378 40.1762 48.7276C39.8485 49.0182 39.6853 49.4016 39.6853 49.878C39.6853 50.4993 39.8947 50.9184 40.3151 51.1361C40.7348 51.3546 41.2007 51.4631 41.7137 51.4631C42.656 51.4631 43.4453 51.1673 44.0803 50.5765C44.716 49.9865 45.1151 49.256 45.2789 48.3858L45.4334 47.6404H45.0027ZM59.2041 41.1744C59.6964 40.4082 60.3521 39.7759 61.1715 39.2786C61.9909 38.7807 62.9339 38.5326 63.9995 38.5326C64.8609 38.5326 65.598 38.6567 66.2133 38.9055C66.8278 39.1545 67.3348 39.4964 67.7346 39.9311C68.1344 40.3658 68.4262 40.869 68.6106 41.4382C68.7952 42.0089 68.887 42.6042 68.887 43.2262C68.887 43.516 68.8767 43.8006 68.8569 44.0808C68.8362 44.3602 68.7952 44.6352 68.7341 44.9042L67.0739 54.4156H63.347C62.7245 54.4156 62.2526 53.8485 62.3606 53.2288L63.6005 46.0456C63.7026 45.57 63.7534 45.1361 63.7534 44.7437C63.7534 44.1648 63.605 43.6743 63.3079 43.2715C63.011 42.8681 62.4834 42.6666 61.7248 42.6666C61.2744 42.6666 60.8688 42.7543 60.5107 42.9297C60.1521 43.1058 59.8347 43.3488 59.5583 43.6587C59.2812 43.9686 59.0556 44.3305 58.8814 44.7437C58.7072 45.1568 58.5794 45.5916 58.497 46.0456L57.0219 54.4156H53.2951C52.6725 54.4156 52.2014 53.8485 52.3088 53.2288L54.2247 42.1383C54.3057 41.7443 54.3939 41.2368 54.4857 40.6148C54.5775 39.9935 54.6438 39.434 54.6855 38.9369H59.3884C59.3679 39.1857 59.332 39.5381 59.2812 39.9935C59.2298 40.4491 59.1835 40.8429 59.1431 41.1744H59.2041ZM75.5882 55.0064C75.4244 55.9382 75.1935 56.8293 74.8966 57.6794C74.599 58.5288 74.1896 59.2749 73.6671 59.9177C73.1446 60.5591 72.4684 61.0674 71.6379 61.4404C70.8082 61.8135 69.7681 62 68.5181 62C68.1696 62 67.8007 61.974 67.4112 61.922C67.0225 61.87 66.6844 61.8023 66.3969 61.7198L67.2885 57.5858C67.4729 57.6482 67.6575 57.6898 67.8419 57.7106C68.0264 57.7307 68.1903 57.7418 68.3335 57.7418C69.0921 57.7418 69.63 57.4877 69.9476 56.9801C70.2658 56.4718 70.4951 55.8149 70.639 55.0064L73.4364 38.9369H76.5958C77.5299 38.9369 78.237 39.7884 78.0753 40.7189L75.5882 55.0064ZM79.4313 33.746C79.4313 34.1607 79.3585 34.5435 79.2151 34.8956C79.072 35.2487 78.872 35.5645 78.6163 35.8439C78.3596 36.124 78.0577 36.3411 77.7092 36.4963C77.361 36.6517 76.9817 36.7297 76.5722 36.7297C75.7933 36.7297 75.1525 36.4963 74.6505 36.0304C74.1485 35.5645 73.8979 34.9685 73.8979 34.2433C73.8979 33.3938 74.1786 32.684 74.7431 32.1141C75.3068 31.5441 75.9976 31.2587 76.8178 31.2587C77.5756 31.2587 78.201 31.4981 78.6927 31.9744C79.185 32.4515 79.4313 33.0415 79.4313 33.746ZM83.6118 48.0127C83.5911 48.096 83.5807 48.1888 83.5807 48.2921C83.5807 48.7276 83.6778 49.1163 83.8725 49.4581C84.0673 49.8 84.3231 50.0905 84.6413 50.3283C84.9589 50.5669 85.3182 50.7475 85.7173 50.8723C86.1164 50.9964 86.5316 51.0588 86.9623 51.0588C87.7406 51.0588 88.427 50.9139 89.0223 50.6234C89.2987 50.4888 89.5619 50.3313 89.8118 50.1515C90.3453 49.7665 91.0699 49.7977 91.5858 50.2065L93.7252 51.8986C92.7412 52.9546 91.6447 53.7163 90.4356 54.183C89.2266 54.6489 87.9258 54.8815 86.5316 54.8815C85.4659 54.8815 84.4774 54.7314 83.5653 54.4312C82.6541 54.1309 81.8596 53.6851 81.1834 53.095C80.5066 52.5042 79.9738 51.7737 79.5849 50.9035C79.1954 50.0333 79.0014 49.0383 79.0014 47.9191C79.0014 46.5933 79.2313 45.3545 79.6923 44.2049C80.1538 43.0553 80.7881 42.055 81.5978 41.2056C82.4078 40.3561 83.3758 39.6882 84.5032 39.2006C85.6298 38.7139 86.8705 38.4701 88.2227 38.4701C89.2266 38.4701 90.1438 38.6158 90.9736 38.9055C91.8042 39.1962 92.5156 39.6153 93.1102 40.1645C93.7047 40.7136 94.1655 41.3922 94.494 42.2007C94.8212 43.0085 94.985 43.9403 94.985 44.9978C94.985 45.3709 94.9497 45.842 94.8776 46.412C94.8065 46.982 94.7087 47.5148 94.586 48.0127H83.6118ZM90.5899 44.9666C90.6099 44.8633 90.6208 44.76 90.6208 44.656C90.6208 44.552 90.6208 44.4487 90.6208 44.3446C90.6208 43.6609 90.379 43.0917 89.8977 42.6354C89.4163 42.1798 88.7246 41.9509 87.8229 41.9509C87.2695 41.9509 86.7726 42.0506 86.3324 42.2467C85.8915 42.4444 85.5071 42.6873 85.1794 42.9772C84.8515 43.2678 84.5847 43.5889 84.3798 43.9403C84.1754 44.2933 84.0313 44.6352 83.9497 44.9666H90.5899ZM103.29 41.2056C103.782 40.4179 104.37 39.7759 105.057 39.2786C105.744 38.7807 106.568 38.5326 107.532 38.5326C107.717 38.5326 107.905 38.5429 108.1 38.5638C108.295 38.5846 108.454 38.6158 108.577 38.6567L107.778 43.0709C107.553 43.0085 107.337 42.9668 107.132 42.9461C106.928 42.9259 106.733 42.9149 106.548 42.9149C105.831 42.9149 105.226 43.0397 104.735 43.2879C104.243 43.5368 103.838 43.843 103.52 44.2049C103.203 44.5676 102.967 44.9562 102.814 45.3709C102.66 45.7855 102.552 46.1475 102.491 46.4588L101.107 54.4156H97.3867C96.7621 54.4156 96.2902 53.8448 96.4012 53.2236L98.3717 42.1383C98.4531 41.7443 98.5406 41.2368 98.6324 40.6148C98.7245 39.9935 98.7913 39.434 98.8325 38.9369H103.505C103.505 39.0408 103.494 39.1909 103.474 39.3872C103.454 39.5849 103.428 39.7915 103.398 40.0091C103.367 40.2262 103.336 40.4438 103.305 40.6616C103.274 40.8793 103.248 41.0608 103.229 41.2056H103.29ZM119.915 43.8474C119.689 43.496 119.335 43.1846 118.854 42.9149C118.372 42.6466 117.835 42.5114 117.241 42.5114C116.584 42.5114 115.98 42.6398 115.427 42.8978C114.874 43.1563 114.397 43.5123 113.997 43.9664C113.598 44.4204 113.285 44.9421 113.06 45.5299C112.834 46.1185 112.721 46.7323 112.721 47.3729C112.721 47.8061 112.788 48.2245 112.921 48.6265C113.055 49.0293 113.254 49.3801 113.521 49.6796C113.787 49.9783 114.13 50.2213 114.551 50.4071C114.97 50.5929 115.468 50.6858 116.042 50.6858C116.78 50.6858 117.405 50.5513 117.917 50.2815C118.019 50.228 118.119 50.1715 118.215 50.1128C118.862 49.7197 119.704 49.9203 120.153 50.5334L121.575 52.4708C120.776 53.2013 119.874 53.7809 118.869 54.209C117.865 54.6363 116.708 54.8511 115.396 54.8511C114.29 54.8511 113.276 54.6898 112.353 54.3687C111.431 54.0485 110.647 53.587 110.001 52.9858C109.356 52.3846 108.854 51.6704 108.495 50.8411C108.136 50.0125 107.957 49.0799 107.957 48.0439C107.957 46.7799 108.182 45.573 108.634 44.4226C109.083 43.2723 109.719 42.2572 110.54 41.3766C111.358 40.4959 112.347 39.7915 113.506 39.263C114.663 38.7347 115.949 38.4701 117.364 38.4701C118.531 38.4701 119.623 38.6677 120.638 39.0609C121.651 39.4548 122.446 40.0559 123.02 40.8637L119.915 43.8474ZM123.02 54.4156L125.694 38.9369H130.643L127.907 54.4156H123.02ZM131.688 33.746C131.688 34.1607 131.616 34.5435 131.473 34.8956C131.33 35.2487 131.13 35.5645 130.874 35.8439C130.617 36.124 130.315 36.3411 129.967 36.4963C129.618 36.6517 129.239 36.7297 128.829 36.7297C128.05 36.7297 127.41 36.4963 126.909 36.0304C126.406 35.5645 126.156 34.9685 126.156 34.2433C126.156 33.3938 126.437 32.684 127.001 32.1141C127.564 31.5441 128.255 31.2587 129.076 31.2587C129.833 31.2587 130.459 31.4981 130.951 31.9744C131.442 32.4515 131.688 33.0415 131.688 33.746ZM132.249 42.6666L132.925 38.9369H135.353L135.844 36.0943C135.969 35.3661 136.595 34.8332 137.327 34.8332H140.856L140.149 38.9369H143.408L142.731 42.6666H139.565L138.459 48.7507C138.437 48.8963 138.422 49.0472 138.412 49.2032C138.401 49.3593 138.397 49.4893 138.397 49.5934C138.397 50.1136 138.54 50.4666 138.827 50.6531C139.114 50.8411 139.504 50.9347 139.995 50.9347C140.242 50.9347 140.482 50.9139 140.718 50.8723C140.721 50.8716 140.724 50.8716 140.727 50.8708C141.034 50.8166 141.306 51.0767 141.265 51.3888L140.887 54.3227C140.6 54.4468 140.195 54.5553 139.673 54.6489C139.15 54.7418 138.653 54.7886 138.182 54.7886C136.707 54.7886 135.543 54.4869 134.693 53.885C133.842 53.2823 133.417 52.3266 133.417 51.018C133.417 50.769 133.432 50.4836 133.463 50.1619C133.494 49.8393 133.54 49.5332 133.601 49.2419L134.77 42.6666H132.249ZM150.562 54.8511C149.456 54.8511 148.426 54.6957 147.473 54.3851C146.52 54.0737 145.7 53.6234 145.014 53.0326C144.327 52.4418 143.784 51.7277 143.385 50.8879C142.985 50.0489 142.785 49.1007 142.785 48.0439C142.785 46.7591 143.001 45.5373 143.431 44.3758C143.861 43.2158 144.481 42.2007 145.291 41.3298C146.1 40.4594 147.078 39.7654 148.226 39.2474C149.373 38.7303 150.674 38.4701 152.13 38.4701C153.257 38.4701 154.302 38.6262 155.265 38.9369C156.228 39.2474 157.059 39.6985 157.755 40.2886C158.452 40.8793 159 41.5942 159.4 42.4332C159.8 43.2723 160 44.2205 160 45.2773C160 46.5829 159.784 47.8158 159.354 48.9766C158.924 50.1373 158.298 51.1525 157.479 52.0219C156.659 52.8929 155.67 53.5818 154.512 54.0893C153.355 54.5969 152.038 54.8511 150.562 54.8511ZM155.143 45.8056C155.143 44.873 154.86 44.0964 154.297 43.4744C153.733 42.8531 152.939 42.5426 151.916 42.5426C151.259 42.5426 150.665 42.6771 150.132 42.9461C149.599 43.2158 149.149 43.5784 148.78 44.034C148.411 44.4903 148.123 45.0186 147.918 45.6191C147.714 46.221 147.612 46.8527 147.612 47.5148C147.612 48.4475 147.888 49.2203 148.441 49.8312C148.995 50.4428 149.783 50.7475 150.808 50.7475C151.464 50.7475 152.058 50.6189 152.592 50.3595C153.124 50.1009 153.58 49.7435 153.959 49.2872C154.338 48.8316 154.63 48.3033 154.835 47.7021C155.04 47.1009 155.143 46.4692 155.143 45.8056Z" fill="#000000"/>
<path d="M58.8179 15.45C58.127 14.9522 56.2544 15.002 52.9016 11.5621C50.6335 9.1692 43.9285 7.37445 37.1244 7.17527C30.321 6.97551 28.1118 6.97551 24.7296 6.2777C18.1437 4.83224 15.1363 -0.00333786 15.1363 -0.00333786C15.1363 -0.00333786 16.0726 13.2571 28.3727 13.9549C30.7091 14.1733 36.394 14.3919 41.0593 14.5451C41.0352 14.6855 41.0197 14.8289 41.0197 14.9767C41.0197 16.4496 42.2668 17.6439 43.8051 17.6439C45.3441 17.6439 46.5906 16.4496 46.5906 14.9767C46.5906 14.8875 46.5861 14.7992 46.5767 14.7121C47.5108 14.7382 48.07 14.7522 48.07 14.7522C48.07 14.7522 48.464 19.2393 43.8301 19.2393C39.8856 19.2393 39.4858 17.4447 34.2134 17.3451C27.4613 17.3451 21.3481 15.8492 20.5594 14.1541C20.8557 17.3451 23.9116 19.5382 23.9116 19.5382C21.0871 20.6848 0.789334 26.3176 0 51.044C1.03554 44.6137 5.17697 24.0252 43.534 24.0252C61.48 24.0252 60.1488 26.7666 61.0852 30.8047C61.0852 30.8047 63.057 28.1124 63.057 22.9283C63.057 17.7434 59.508 15.9487 58.8179 15.45Z" fill="#000000"/>
</g>
<defs>
<clipPath id="clip0_6417_29812">
<rect width="160" height="62" fill="white"/>
</clipPath>
</defs>
</svg>
