<svg width="100" height="100" viewBox="0 0 100 100" fill="none" xmlns="http://www.w3.org/2000/svg">
<path fill-rule="evenodd" clip-rule="evenodd" d="M49.7332 0.431419C49.3312 1.12444 49.0821 1.55289 48.8178 2.00548C48.6865 2.2303 48.5791 2.43768 48.5791 2.46632C48.5791 2.50756 48.6341 2.5121 48.8431 2.488C48.9884 2.47125 49.4681 2.45912 49.9093 2.46108C50.5687 2.46397 50.7805 2.47935 51.1008 2.54763C51.315 2.59329 51.4995 2.62138 51.5108 2.61004C51.5221 2.59873 51.4987 2.53335 51.4588 2.4648C51.194 2.01045 50.7746 1.28319 50.6537 1.06853C50.3679 0.56148 50.0577 0.03099 50.0295 0.00101838C50.0136 -0.0158064 49.8803 0.177873 49.7332 0.431419ZM48.9899 3.24425C47.7802 3.41684 46.7618 3.78852 45.9294 4.36126L45.7622 4.47638V8.40681C45.7622 10.5686 45.7698 12.3372 45.7791 12.3372C45.7884 12.3372 45.935 12.2528 46.1048 12.1497C46.4225 11.9567 47.0971 11.6412 47.4795 11.5068C47.8209 11.3868 48.7266 11.1631 48.9771 11.137L49.205 11.1131V12.0946C49.205 12.6344 49.2205 13.0856 49.2394 13.0972C49.2777 13.1209 49.579 12.9062 49.7965 12.7003L49.938 12.5663L50.2828 12.843C50.4726 12.9952 50.6422 13.1198 50.6597 13.1198C50.6773 13.1198 50.6917 12.662 50.6917 12.1025V11.0852H50.8071C51.0065 11.0852 51.7428 11.2415 52.2084 11.3826C52.6271 11.5095 53.5098 11.8895 53.5076 11.9419C53.5071 11.9549 53.3398 12.071 53.1359 12.2C52.9319 12.3289 52.7701 12.4497 52.7763 12.4682C52.8063 12.5582 53.9769 12.9317 54.6973 13.0812C55.8049 13.311 57.2575 13.3245 58.2425 13.114C58.8329 12.9879 59.5535 12.7391 60.0618 12.486C60.5822 12.2268 61.0973 11.9092 61.098 11.8469C61.0983 11.8247 60.5876 11.341 59.9631 10.772C59.3386 10.2031 58.8358 9.71942 58.8459 9.69727C58.9601 9.4449 59.4988 8.20608 59.6121 7.9354C59.8198 7.43938 60.0994 6.78912 60.3007 6.33434C60.3951 6.1209 60.4636 5.93748 60.4529 5.92671C60.4421 5.91596 60.3585 5.96056 60.2671 6.02582C59.7894 6.36682 58.9709 6.73935 58.2231 6.95608C57.1479 7.26769 55.7141 7.23377 54.6041 6.87043L54.2715 6.76158L54.252 5.60876L54.2324 4.45591L53.8803 4.26971C53.0586 3.83516 52.1346 3.5293 50.9851 3.3112C50.6844 3.25415 49.2564 3.20626 48.9899 3.24425ZM50.6526 6.03772V6.70289H51.2786H51.9045V7.34849V7.99409H51.2786H50.6526V8.67972V9.36535L49.9582 9.35467L49.2637 9.34399L49.253 8.66904L49.2423 7.99409H48.5977H47.9531V7.34849V6.70289H48.5986H49.2442V6.03772V5.37255H49.9484H50.6526V6.03772ZM34.8859 13.1054C34.3171 13.1765 33.4324 13.3947 32.9688 13.5781C30.9508 14.3767 29.3303 16.116 28.6271 18.238C28.3709 19.0113 28.3007 19.4876 28.2976 20.4757C28.2938 21.6487 28.4015 22.3122 28.7466 23.2426C29.4358 25.1007 31.0084 26.5229 33.0886 27.1692C33.3054 27.2365 33.4763 27.2981 33.4684 27.306C33.4333 27.341 32.0889 27.9994 31.7988 28.1236C30.9194 28.5 30.3472 28.4789 29.1982 28.0277C28.1329 27.6094 27.442 27.4387 26.4899 27.3585C24.5846 27.1982 23.0163 27.6602 22.004 28.68C21.666 29.0206 21.4658 29.2831 21.5252 29.3079C21.5468 29.3169 21.8009 29.4066 22.0901 29.5073C22.3792 29.6079 22.6205 29.7079 22.6263 29.7294C22.6321 29.7509 22.5454 29.8389 22.4336 29.925C21.4764 30.6621 20.8875 31.5818 20.7051 32.6248C20.6179 33.1229 20.5937 33.7556 20.6422 34.2662C20.6666 34.5233 20.6951 34.7422 20.7054 34.7525C20.7157 34.7628 20.7812 34.7291 20.8508 34.6776C22.0705 33.7752 23.127 33.203 23.9629 32.9919C24.4201 32.8764 24.5584 32.8569 24.5559 32.9085C24.5551 32.9246 24.4391 33.0259 24.2981 33.1335C24.1572 33.2411 23.8418 33.537 23.5972 33.7912C22.6284 34.7978 21.894 36.1794 21.5654 37.6136C21.1962 39.2247 21.2004 40.3708 21.5811 41.9175C21.859 43.0465 22.4828 44.3117 23.2402 45.2826C23.5106 45.6293 24.1579 46.2918 24.5377 46.6108C25.4297 47.3598 26.5606 47.9601 27.671 48.2738C28.4275 48.4877 29.0581 48.5776 29.9468 48.5984C30.8502 48.6196 31.2364 48.5875 32.003 48.4272C33.4688 48.1207 34.9147 47.2617 35.7157 46.2216L35.8212 46.0847L35.823 49.6527C35.8244 52.4629 35.8352 53.2274 35.8737 53.2519C35.9007 53.269 36.0371 53.321 36.1769 53.3676C36.3168 53.4141 37.69 53.8787 39.2286 54.3999C40.7671 54.9212 42.2812 55.4319 42.5932 55.5348C42.9052 55.6378 44.4193 56.148 45.9578 56.6686C50.1735 58.0951 49.8876 58.0063 50.0584 57.9423C50.1377 57.9125 53.3409 56.8465 57.1764 55.5734L64.1502 53.2586V49.6618C64.1502 47.6836 64.1634 46.0652 64.1795 46.0654C64.1956 46.0656 64.247 46.1316 64.2936 46.2121C64.5149 46.5947 65.1552 47.1613 65.8319 47.5733C66.7085 48.1072 67.6656 48.4273 68.8048 48.5676C69.2294 48.6198 70.3727 48.6202 70.8022 48.5682C71.5906 48.4728 72.4273 48.2707 73.0703 48.0204C75.4585 47.0907 77.3355 45.1093 78.2057 42.5995C78.8395 40.7714 78.8477 38.8061 78.2293 36.9242C77.7281 35.3989 76.8617 34.0822 75.7822 33.2049C75.5769 33.0381 75.4301 32.8946 75.4559 32.886C75.4818 32.8773 75.6113 32.8916 75.7439 32.9177C76.6138 33.0886 77.544 33.5475 78.7372 34.3946C79.1314 34.6744 79.2705 34.7543 79.3045 34.7202C79.3361 34.6886 79.3491 34.3929 79.348 33.7282C79.3464 32.8326 79.3408 32.7611 79.2444 32.4067C78.9708 31.4014 78.5398 30.7453 77.6761 30.019C77.4887 29.8614 77.3492 29.7189 77.3659 29.7022C77.3825 29.6855 77.6327 29.594 77.9218 29.4989C78.2108 29.4038 78.4539 29.3061 78.462 29.2818C78.4818 29.2226 78.202 28.8644 77.9495 28.6257C77.4509 28.1541 77.0056 27.8951 76.2573 27.641C75.5496 27.4008 75.1837 27.3471 74.244 27.3457C72.894 27.3438 72.1916 27.4877 70.6509 28.0821C69.6488 28.4687 69.059 28.484 68.2443 28.1445C67.9746 28.032 66.5424 27.3418 66.5084 27.3078C66.4993 27.2987 66.5943 27.2624 66.7196 27.2273C67.5536 26.9934 68.4691 26.5412 69.1971 26.0034C69.6014 25.7047 70.2353 25.0464 70.5225 24.6271C71.3143 23.4709 71.7136 22.0948 71.7158 20.5149C71.7169 19.7036 71.6489 19.2239 71.4238 18.4541C70.8157 16.3745 69.3341 14.6367 67.417 13.7547C66.8295 13.4844 66.3137 13.3242 65.5391 13.1712C65.0429 13.0733 63.5419 13.0711 63.0352 13.1676C61.5842 13.4438 60.3366 14.0416 59.4307 14.8948C58.3306 15.9309 57.7262 17.3629 57.7854 18.7933C57.8145 19.4959 57.9625 20.1122 58.2317 20.6518C58.7049 21.6001 59.4769 22.3572 60.4734 22.8501C60.9772 23.0993 61.3358 23.1841 61.881 23.1829C62.3346 23.1818 62.5782 23.1433 62.8996 23.0215C63.2499 22.8887 63.2474 22.8947 63.0431 22.6675C62.7791 22.3738 62.1549 21.4507 62.1549 21.354C62.1549 21.3444 62.4046 21.3366 62.7099 21.3366C63.5083 21.3366 63.9732 21.199 64.6132 20.7735C64.9141 20.5735 65.4022 20.1389 65.402 20.0712C65.4019 20.0411 65.2996 20.024 65.0988 20.0205C64.577 20.0113 64.0645 19.773 63.5853 19.3167C63.2298 18.9783 63.0952 18.6386 63.0943 18.0782C63.0934 17.5245 63.3227 17.1192 63.7582 16.9045C63.9157 16.8268 63.9947 16.8174 64.4827 16.8179C65.1316 16.8185 65.3545 16.869 65.9303 17.1456C66.6561 17.4944 67.2296 18.0491 67.5876 18.7487C67.8282 19.2187 67.9252 19.5314 67.9847 20.0284C68.0657 20.7047 67.9614 21.3414 67.6686 21.9577C67.2082 22.9268 66.4757 23.5995 65.5782 23.8775C64.9437 24.074 64.9128 24.075 59.6261 24.0752L54.6911 24.0755L54.232 23.8813C53.9795 23.7745 53.6562 23.612 53.5136 23.5203C53.2453 23.3476 52.4914 22.6318 52.4914 22.5497C52.4914 22.5242 52.6516 22.3332 52.8475 22.1253C53.3232 21.6204 53.6667 21.1355 53.925 20.6046C54.121 20.2015 54.3302 19.54 54.3302 19.3233C54.3302 19.276 54.3759 19.1946 54.4318 19.1424C54.6272 18.96 54.7005 18.7635 54.7007 18.4216C54.7008 18.0605 54.6503 17.9378 54.3837 17.6505C54.2897 17.5492 54.2128 17.4411 54.2128 17.4104C54.2128 17.2988 54.0021 16.7301 53.8191 16.3478C53.5091 15.7004 52.9466 15.0161 52.374 14.5897C52.1123 14.3949 51.4555 14.0524 51.192 13.9735C51.1102 13.949 50.9245 13.8258 50.7794 13.6998C50.4672 13.4285 50.1825 13.2763 49.9875 13.2763C49.7863 13.2763 49.4683 13.4481 49.1903 13.7069C49.0197 13.8658 48.8888 13.9499 48.7356 13.9993C48.4169 14.102 47.8757 14.3897 47.5735 14.6171C46.7886 15.2077 46.1192 16.1872 45.8508 17.1383C45.7621 17.4525 45.7193 17.542 45.6132 17.6353C45.464 17.7663 45.3547 17.9635 45.291 18.2166C45.2308 18.4557 45.2969 18.7651 45.4607 19.0105C45.5297 19.1138 45.5977 19.2173 45.6119 19.2404C45.6261 19.2635 45.6725 19.432 45.7149 19.6149C45.9272 20.5299 46.4281 21.3786 47.2363 22.1931C47.4369 22.3952 47.601 22.5731 47.601 22.5886C47.601 22.604 47.4469 22.7646 47.2586 22.9455C46.8566 23.3318 46.4016 23.6412 45.8645 23.8937L45.4778 24.0755L40.4459 24.0752C34.9888 24.075 35.0206 24.0761 34.3577 23.8602C33.2067 23.4851 32.2768 22.369 32.0306 21.0671C31.9727 20.7611 31.983 20.0689 32.0501 19.7522C32.2405 18.8527 32.6509 18.1705 33.3487 17.5935C34.0092 17.0473 34.7928 16.7752 35.6228 16.8037C35.9833 16.8161 36.0705 16.8329 36.264 16.9277C36.6492 17.1163 36.8542 17.4379 36.907 17.9366C36.9375 18.224 36.863 18.638 36.7331 18.9033C36.4456 19.4905 35.3921 20.0945 34.7587 20.0351C34.6565 20.0255 34.5729 20.0303 34.5729 20.0458C34.5729 20.0973 34.9525 20.4604 35.2044 20.6498C35.5375 20.9002 36.0812 21.1688 36.4424 21.2612C36.6638 21.3178 36.8721 21.3366 37.2787 21.3366C37.633 21.3366 37.8201 21.3508 37.8201 21.3779C37.8201 21.506 36.9774 22.6936 36.8138 22.796C36.7269 22.8504 36.7583 22.8896 36.9568 22.9751C37.4458 23.1854 38.2051 23.2462 38.7982 23.1224C39.3868 22.9995 40.4241 22.3771 40.9348 21.8402C41.3992 21.3521 41.8107 20.6609 42.0034 20.0453C42.2691 19.1965 42.2604 17.9743 41.9827 17.1207C41.3407 15.1475 39.5917 13.7239 37.1837 13.2145C36.7716 13.1273 36.5883 13.1115 35.864 13.1008C35.4013 13.0939 34.9612 13.096 34.8859 13.1054ZM36.9978 14.2508C39.5105 14.8147 41.0836 16.394 41.1718 18.4411C41.2052 19.2192 41.0553 19.807 40.6497 20.4876C40.2941 21.0843 39.5616 21.7058 38.9295 21.9473C38.7299 22.0235 38.69 22.0058 38.7734 21.878C38.8731 21.7253 39.1081 21.0813 39.1963 20.7192C39.294 20.3177 39.311 19.6126 39.2319 19.2432C39.1727 18.967 38.9629 18.4411 38.9119 18.4411C38.8924 18.4411 38.8765 18.6154 38.8765 18.8283C38.8765 19.6413 38.6437 19.9748 37.9202 20.1983C37.6715 20.2751 37.0377 20.3171 37.0377 20.2568C37.0377 20.2439 37.1412 20.1204 37.2677 19.9824C37.5187 19.7084 37.7208 19.3328 37.8652 18.8715C37.987 18.4825 37.9963 17.755 37.8836 17.4238C37.7354 16.9882 37.5105 16.6143 37.2501 16.3707C36.2471 15.4323 34.4682 15.4977 33.0104 16.5265C32.121 17.1542 31.3681 18.1952 31.1299 19.1263C30.9367 19.8819 30.9383 20.8377 31.1342 21.6104C31.3533 22.4745 31.8752 23.3788 32.4921 23.9632C33.3029 24.7312 34.1271 25.0751 35.2673 25.121L35.8248 25.1434V27.2441V29.3448L35.3651 29.5458C31.5372 31.2189 29.1881 32.5822 27.1981 34.2851C25.6288 35.6281 24.661 37.061 24.3555 38.4939C24.2559 38.9608 24.2182 39.9433 24.2801 40.4538C24.4075 41.5023 24.8805 42.64 25.5266 43.452C25.8291 43.8323 26.4622 44.4218 26.8331 44.6686C27.4579 45.0844 28.2508 45.4218 28.9391 45.5649C29.2395 45.6273 29.4159 45.6389 29.8585 45.6251C30.3463 45.6099 30.4469 45.5943 30.7779 45.4823C31.2322 45.3285 31.5817 45.1406 31.8924 44.8834C32.1746 44.6498 32.5042 44.252 32.6438 43.9767C32.8926 43.4857 33.0383 42.8101 32.9896 42.3733C32.9578 42.0883 33.0134 42.0891 33.1867 42.3762C33.345 42.6385 33.4137 42.952 33.4096 43.3946C33.4078 43.5937 33.4207 43.7566 33.4382 43.7566C33.4921 43.7566 33.7063 43.405 33.7921 43.1757C33.9773 42.6808 34.0046 42.4843 34.0025 41.6633C34.0002 40.7488 33.9467 40.4329 33.6322 39.4789C33.4372 38.8871 33.2435 38.4835 32.9574 38.0728C32.871 37.9488 32.8114 37.8362 32.8249 37.8227C32.874 37.7736 33.4569 38.0217 33.7473 38.2152C34.1158 38.4608 34.3988 38.7512 34.6715 39.1634C35.8403 40.9305 36.0854 43.2848 35.2716 44.925C34.8579 45.7587 34.2285 46.3708 33.3094 46.8332C32.7943 47.0924 32.6078 47.1623 32.0299 47.3131C31.4211 47.472 31.163 47.5138 30.5682 47.5499C28.9876 47.6458 27.3276 47.2212 26.0076 46.3833C23.8912 45.0399 22.5753 42.8727 22.3624 40.3802C22.1882 38.3399 22.9076 36.3265 24.4763 34.4643C25.234 33.5647 26.9916 32.0206 27.6634 31.6641C27.7626 31.6115 27.8437 31.5553 27.8437 31.5391C27.8437 31.4837 27.3157 31.5107 26.9592 31.5843C26.7632 31.6247 26.4463 31.7195 26.2549 31.7948C25.9158 31.9284 25.8898 31.9324 25.2224 31.9527C24.8458 31.964 24.3854 32.0009 24.1992 32.0345C23.4288 32.1737 22.4421 32.5498 21.8444 32.9322C21.7218 33.0106 21.6131 33.0748 21.6027 33.0748C21.5621 33.0748 21.5871 32.7267 21.6435 32.5059C21.7968 31.9065 22.0464 31.4695 22.4817 31.0387C22.9913 30.5343 23.8318 30.0692 24.6484 29.8396C24.9219 29.7628 25.0268 29.7162 25.0268 29.6716C25.0268 29.5997 24.9265 29.4469 24.8128 29.3456C24.6094 29.1644 23.9875 28.9667 23.4325 28.9068C23.298 28.8923 23.188 28.8675 23.188 28.8517C23.188 28.7859 23.905 28.4908 24.3283 28.3823C25.4157 28.1036 26.3567 28.1202 27.5923 28.4396C28.9117 28.7808 31.5983 30.0079 31.9478 30.429C32.0104 30.5045 32.069 30.5115 32.069 30.4435C32.0689 30.345 31.8403 29.9185 31.659 29.6786C31.5566 29.5431 31.4793 29.4274 31.4872 29.4215C31.4952 29.4156 31.9418 29.2027 32.4798 28.9485C33.9119 28.2716 34.3558 28.0444 34.7223 27.8005C35.2817 27.4282 35.5505 27.1178 35.5508 26.8437C35.551 26.7098 35.5416 26.697 35.4434 26.6967C35.2029 26.6959 34.1287 26.4484 33.6339 26.2797C32.5078 25.8958 32.1538 25.7182 31.5812 25.2504C30.4767 24.3478 29.7228 23.0842 29.4443 21.6691C29.3669 21.2761 29.3518 21.0785 29.3517 20.4562C29.3514 19.3952 29.4795 18.7807 29.8926 17.8606C30.7568 15.9357 32.5256 14.5725 34.6511 14.1933C35.1185 14.1099 36.5233 14.1443 36.9978 14.2508ZM65.3388 14.1992C65.8952 14.2864 66.8212 14.6021 67.2996 14.8677C68.9191 15.7666 70.0192 17.1723 70.4792 18.9302C70.6094 19.4282 70.6489 19.786 70.6477 20.4583C70.646 21.3852 70.5587 21.8785 70.2515 22.6964C69.7712 23.9751 68.8828 25.0377 67.7148 25.7304C67.1716 26.0526 65.6343 26.5432 64.7814 26.6666C64.5882 26.6946 64.4463 26.7347 64.4348 26.7645C64.3871 26.8889 64.4746 27.0945 64.6629 27.3006C65.0421 27.7155 65.5948 28.0495 66.9671 28.6926C68.376 29.3529 68.4929 29.4102 68.4929 29.4406C68.4929 29.4573 68.4021 29.5907 68.2911 29.7371C68.0722 30.0261 67.9474 30.2667 67.946 30.4025C67.9452 30.4795 67.98 30.4637 68.2679 30.2569C68.7798 29.8891 69.72 29.428 70.9968 28.9183C71.8575 28.5748 72.4856 28.3882 73.2268 28.256C73.6651 28.1779 74.8028 28.1893 75.2402 28.2763C75.7444 28.3766 76.2978 28.5604 76.5914 28.7251L76.8457 28.8678L76.5914 28.8991C75.9715 28.9753 75.3579 29.1756 75.15 29.3697C75.0303 29.4815 74.9327 29.6711 74.9742 29.7112C74.9922 29.7285 75.1566 29.7862 75.3395 29.8394C76.9269 30.301 78.0189 31.2406 78.3154 32.4001C78.3836 32.6666 78.4186 33.0748 78.3732 33.0748C78.3635 33.0748 78.2886 33.029 78.207 32.9731C78.1253 32.9172 77.8561 32.7701 77.6086 32.6461C76.6657 32.1739 75.6793 31.9426 74.6015 31.9409C74.1454 31.9401 74.0971 31.9323 73.7518 31.803C73.5505 31.7275 73.284 31.6385 73.1596 31.605C72.8964 31.5341 72.1703 31.4815 72.1708 31.5334C72.1709 31.5526 72.2419 31.6088 72.3285 31.6583C72.5295 31.7731 73.2884 32.346 73.7941 32.7647C74.3125 33.1939 75.3264 34.215 75.6949 34.679C76.7461 36.0027 77.2776 37.1317 77.5554 38.6309C77.6518 39.151 77.6527 40.456 77.5571 40.9785C77.2387 42.7193 76.5867 44.019 75.4401 45.1985C73.9452 46.7362 72.0073 47.556 69.8615 47.5586C68.373 47.5604 66.9252 47.1225 65.9303 46.3696C65.2311 45.8405 64.7678 45.1958 64.4993 44.3782C64.0389 42.9764 64.1839 41.3912 64.909 39.9002C65.3125 39.0703 65.6984 38.5831 66.2466 38.2113C66.5588 37.9996 67.2018 37.7404 67.2018 37.8263C67.2018 37.8391 67.1213 37.9593 67.0228 38.0935C66.8079 38.3865 66.5081 38.9921 66.3439 39.4648C66.139 40.0548 65.9514 41.134 65.9514 41.722C65.9514 42.4721 66.1906 43.3553 66.4919 43.7176L66.5732 43.8153L66.5745 43.3988C66.5755 43.0983 66.5972 42.913 66.6527 42.7336C66.7281 42.4894 66.9361 42.1131 66.9955 42.1133C67.0122 42.1134 67.0271 42.3379 67.0288 42.6122C67.0324 43.2146 67.0955 43.4799 67.35 43.9644C67.6633 44.5606 68.1262 44.9943 68.7795 45.3039C69.3448 45.5717 69.7258 45.6473 70.3904 45.6236C71.0269 45.6009 71.3657 45.5242 72.0531 45.2472C73.9363 44.4883 75.2045 42.9306 75.6572 40.8204C75.7831 40.2333 75.7847 39.1777 75.6605 38.6055C75.234 36.6404 73.9379 35.0093 71.3097 33.1301C70.749 32.7291 70.0184 32.2694 68.9232 31.6282C68.3762 31.308 66.3359 30.2989 65.4804 29.9255C65.1038 29.7611 64.6504 29.5581 64.4729 29.4744L64.1502 29.3222V27.227V25.1319H64.5558C65.6392 25.1319 66.5889 24.7797 67.3671 24.0893C68.6659 22.9371 69.2936 20.995 68.9062 19.3269C68.7733 18.754 68.5638 18.2847 68.2103 17.7672C67.3225 16.4677 65.7405 15.6227 64.3685 15.7152C63.3653 15.7829 62.6665 16.2139 62.2621 17.0146C62.0092 17.5152 61.9674 18.3829 62.1665 18.9998C62.2919 19.3887 62.5327 19.7936 62.781 20.0332C62.8882 20.1367 62.9762 20.2346 62.9763 20.2508C62.9764 20.2669 62.8287 20.2801 62.648 20.2801C62.2525 20.2801 61.9184 20.1862 61.5972 19.9847C61.2267 19.7523 61.1003 19.4386 61.0967 18.7424L61.0948 18.3824L60.9783 18.6082C60.7762 18.9998 60.729 19.2526 60.7322 19.928C60.7354 20.6207 60.7878 20.8748 61.0608 21.5211C61.1497 21.7316 61.2316 21.9259 61.2429 21.9528C61.2785 22.0377 61.1669 22.0065 60.8493 21.8429C60.035 21.4237 59.5037 20.8846 59.1403 20.109C58.8842 19.5625 58.8178 19.2547 58.8142 18.5976C58.8117 18.1255 58.8258 17.9761 58.8988 17.7075C59.2323 16.479 59.9682 15.5829 61.1992 14.906C61.7791 14.5871 62.8328 14.2478 63.5046 14.1636C63.8499 14.1203 64.975 14.1421 65.3388 14.1992ZM50.2433 14.6996C50.3979 14.8349 50.5046 14.8888 50.7512 14.9564C51.5719 15.1813 52.2634 15.7402 52.7518 16.5733C52.9794 16.9617 53.1412 17.3847 53.0621 17.3847C53.0064 17.3847 51.6886 17.0682 50.6059 16.7948L49.9919 16.6398L49.2757 16.8156C48.8818 16.9124 48.2079 17.0732 47.7782 17.173C47.3485 17.2729 46.9744 17.3633 46.9468 17.3738C46.8713 17.4028 46.8851 17.329 47.0166 17.0006C47.1544 16.6564 47.4779 16.1526 47.7574 15.8467C48.1134 15.4571 48.7051 15.0988 49.2307 14.9546C49.4596 14.8918 49.5868 14.8288 49.7452 14.6998C49.8609 14.6055 49.9762 14.5284 50.0015 14.5284C50.0268 14.5284 50.1356 14.6054 50.2433 14.6996ZM49.518 19.0867C49.518 19.9475 49.5044 20.3975 49.4783 20.3975C49.4349 20.3975 49.1862 20.2632 48.6272 19.9379L48.2646 19.7269L48.2751 18.8797L48.2856 18.0326L48.7942 17.9067C49.074 17.8374 49.3512 17.7796 49.4104 17.7783L49.518 17.776V19.0867ZM51.0172 17.8759C51.2362 17.9309 51.4819 17.9933 51.563 18.0146L51.7105 18.0533L51.6999 18.8999L51.6894 19.7465L51.4938 19.8619C51.0756 20.1087 50.5393 20.3975 50.4991 20.3975C50.4699 20.3975 50.457 19.9968 50.457 19.0867C50.457 17.5622 50.3852 17.7173 51.0172 17.8759ZM47.3271 18.7346C47.3271 18.9821 47.3155 19.1845 47.3012 19.1845C47.287 19.1845 47.1373 19.1036 46.9687 19.0048L46.662 18.825V18.6203V18.4156L46.9065 18.3545C47.3554 18.2423 47.3271 18.2168 47.3271 18.7346ZM52.8435 18.3215C52.9188 18.3415 53.0552 18.3773 53.1467 18.401L53.313 18.4441V18.633V18.8218L53.0009 19.0032C52.8293 19.1029 52.6796 19.1845 52.6684 19.1845C52.6571 19.1845 52.6479 18.9821 52.6479 18.7346C52.6479 18.4871 52.6611 18.2847 52.6772 18.2848C52.6934 18.285 52.7682 18.3014 52.8435 18.3215ZM52.7592 20.5396C52.0739 21.6368 50.7669 22.6278 50.0051 22.6278C49.22 22.6278 47.7759 21.4891 47.1145 20.3486C47.0552 20.2464 47.0194 20.1627 47.0349 20.1627C47.0655 20.1627 47.5274 20.4101 47.8748 20.6125C47.9932 20.6814 48.3365 20.8756 48.6377 21.0441C48.939 21.2126 49.366 21.4535 49.5866 21.5795C49.9386 21.7805 49.9986 21.803 50.0757 21.763C50.2237 21.686 52.497 20.3943 52.7261 20.2569C52.8445 20.186 52.9474 20.1452 52.9549 20.1663C52.9623 20.1875 52.8743 20.3554 52.7592 20.5396ZM51.7627 23.3253C51.9206 23.5404 52.423 24.0283 52.6964 24.232C52.7975 24.3073 52.8808 24.3873 52.8814 24.4098C52.884 24.4985 52.2045 24.9572 51.5916 25.2804C51.1165 25.531 50.1947 25.9145 50.0674 25.9145C49.9035 25.9145 48.8727 25.516 48.3593 25.2542C47.838 24.9883 47.1125 24.499 47.1386 24.4308C47.1454 24.4128 47.2919 24.2923 47.464 24.163C47.6362 24.0336 47.9317 23.7673 48.1207 23.5712C48.3097 23.3751 48.4836 23.2147 48.5072 23.2147C48.5307 23.2147 48.6401 23.2656 48.7503 23.3279C48.8606 23.3902 49.0828 23.4906 49.2442 23.5509C49.5025 23.6475 49.5914 23.6608 49.9875 23.6613C50.3775 23.662 50.478 23.6479 50.7416 23.5557C50.9089 23.4972 51.1642 23.3805 51.3089 23.2963C51.4536 23.2121 51.5837 23.1417 51.598 23.1398C51.6123 23.1379 51.6864 23.2214 51.7627 23.3253ZM46.3723 25.1761C46.4993 25.318 47.0237 25.7026 47.4092 25.9365C48.154 26.3885 49.6376 26.9738 50.0658 26.9847C50.6275 26.9989 52.8 25.9209 53.5537 25.2539L53.7358 25.0928H58.4344H63.133V38.8006V52.5084L59.3869 53.7542C57.3266 54.4394 54.348 55.4289 52.768 55.9532L49.8951 56.9065L48.0145 56.2722C46.9801 55.9233 45.1215 55.2962 43.8843 54.8788C42.647 54.4613 41.1681 53.9631 40.5979 53.7716C40.0277 53.5801 38.9625 53.2208 38.2309 52.9731L36.9007 52.5228L36.8909 38.8078L36.881 25.0928H41.5894H46.2978L46.3723 25.1761ZM39.1112 38.9196C39.1112 48.1807 39.1212 50.5633 39.1601 50.595C39.187 50.617 39.6051 50.7679 40.0893 50.9304C40.5734 51.0929 41.9907 51.5708 43.2387 51.9922C44.4868 52.4138 45.9744 52.9153 46.5446 53.1067C47.1149 53.2982 48.1072 53.6327 48.7498 53.8501L49.9183 54.2454L51.508 53.7165C52.3824 53.4256 54.6119 52.6853 56.4624 52.0712C58.313 51.4572 60.0603 50.8739 60.3454 50.7749L60.8638 50.5951V38.9395V27.2839H49.9875H39.1112V38.9196ZM50.752 29.4961C50.8802 29.5291 51.1348 29.6292 51.3177 29.7185C51.5852 29.8491 51.7154 29.9464 51.9834 30.2159C52.1722 30.4059 52.3808 30.6633 52.4649 30.8102C52.6059 31.0564 52.6217 31.0704 52.7854 31.0929C53.5801 31.2018 54.3525 31.7979 54.7703 32.6248C54.9042 32.8898 54.9849 33.1751 55.0373 33.5689L55.0812 33.8986L55.464 34.279C55.8087 34.6215 55.8665 34.7005 56.0435 35.0703C56.2781 35.5607 56.3467 35.8802 56.3377 36.4397C56.327 37.1091 56.1576 37.6154 55.767 38.1454C55.3261 38.7438 54.687 39.1125 53.8951 39.2252C53.6509 39.26 53.5269 39.2559 53.2108 39.2025L52.8247 39.1372L52.7489 39.246C52.7072 39.3058 52.5398 39.4815 52.3769 39.6364C51.2961 40.6637 49.6415 40.8992 48.3443 40.2104C47.9243 39.9874 47.6671 39.7889 47.33 39.4279C47.0797 39.1599 47.056 39.1442 46.9475 39.1753C46.5362 39.2933 45.8399 39.2373 45.3727 39.0486C44.6597 38.7605 44.0648 38.1119 43.7999 37.3336C43.6946 37.0242 43.6729 36.8958 43.6587 36.4984C43.6404 35.9841 43.6881 35.6944 43.8701 35.2145C43.9953 34.8846 44.3418 34.4107 44.6607 34.1333C44.8875 33.936 44.9015 33.9138 44.9015 33.7516C44.9015 33.3881 45.1194 32.6988 45.3495 32.3343C45.6106 31.9209 46.0606 31.5165 46.4817 31.3169C46.7614 31.1843 46.9642 31.126 47.3634 31.0636L47.654 31.0181L47.8133 30.7515C48.0496 30.3561 48.5271 29.9152 48.9418 29.7097C49.1264 29.6183 49.3712 29.5208 49.4857 29.493C49.7819 29.4213 50.4686 29.423 50.752 29.4961ZM35.8225 34.7475C35.8207 38.0542 35.8099 38.9866 35.7736 38.931C35.3588 38.2935 34.7429 37.629 34.3105 37.3524C33.6322 36.9184 33.0138 36.7415 32.1668 36.7391C31.6154 36.7375 30.8953 36.8365 30.8953 36.9137C30.8953 36.9332 31.0053 37.0823 31.1398 37.245C32.1133 38.4229 32.4197 38.9398 32.6724 39.8311C32.7709 40.1785 32.8769 40.8487 32.8393 40.8864C32.8281 40.8975 32.72 40.826 32.599 40.7274C32.4781 40.6288 32.3137 40.5154 32.2338 40.4752C32.0709 40.3934 31.6846 40.2935 31.653 40.3251C31.6417 40.3364 31.6861 40.6069 31.7517 40.9262C32.0439 42.3484 31.9891 43.1085 31.5472 43.7679C30.8879 44.7516 29.4506 44.8796 27.8917 44.0935C26.1763 43.2285 25.0595 41.2143 25.2604 39.348C25.3593 38.4295 25.6411 37.6741 26.176 36.894C27.4672 35.0107 30.6152 32.8063 34.4946 31.0688C35.6346 30.5583 35.7667 30.5001 35.7955 30.4963C35.8116 30.4941 35.8238 32.4072 35.8225 34.7475ZM64.7006 30.7197C65.9578 31.2634 67.4446 31.9857 68.2647 32.4512C71.0468 34.0302 72.9579 35.5778 73.9004 37.0149C74.5161 37.9538 74.797 38.9595 74.7402 40.0225C74.6903 40.9595 74.4313 41.7095 73.877 42.5234C73.4074 43.2127 72.7983 43.7323 71.9944 44.1291C71.4234 44.4109 71.0911 44.5136 70.5205 44.5848C70.1842 44.6268 70.0772 44.6249 69.7597 44.5708C69.5525 44.5356 69.2954 44.4616 69.1744 44.4024C68.9139 44.2749 68.5426 43.9396 68.3824 43.687C68.0156 43.1087 67.9796 42.2182 68.2646 40.7723C68.3103 40.5404 68.337 40.3401 68.324 40.3271C68.2907 40.2938 67.9715 40.3788 67.7644 40.4762C67.6689 40.5211 67.505 40.6349 67.4003 40.7291C67.2955 40.8232 67.1993 40.9003 67.1863 40.9003C67.1457 40.9003 67.1603 40.6506 67.2219 40.2891C67.3962 39.2676 67.7705 38.5504 68.7409 37.3788C68.9459 37.1313 69.1016 36.9173 69.0869 36.9032C69.0088 36.8281 68.3543 36.7392 67.8669 36.7374C66.7961 36.7333 65.9506 37.0504 65.1893 37.7414C64.9166 37.9889 64.3501 38.6884 64.2572 38.8923C64.2345 38.9422 64.2011 38.983 64.183 38.983C64.165 38.983 64.1502 37.0726 64.1502 34.7377C64.1502 32.4028 64.1558 30.4924 64.1626 30.4924C64.1694 30.4924 64.4115 30.5947 64.7006 30.7197ZM45.7396 40.1097C46.0261 40.2159 46.3882 40.5101 46.3882 40.6368C46.3882 40.6719 46.3263 40.7478 46.2508 40.8054C46.129 40.8983 46.0912 40.9073 45.9182 40.8843C45.8109 40.8701 45.7231 40.8733 45.7231 40.8914C45.7231 40.9095 45.8595 40.9983 46.0263 41.0887C46.277 41.2247 46.8969 41.576 47.1308 41.7148C47.2133 41.7637 46.8093 42.2306 46.6844 42.2306C46.6333 42.2306 46.4967 42.1397 46.355 42.0115C46.16 41.835 46.0855 41.7916 45.9717 41.7884C45.7116 41.781 45.592 42.064 45.777 42.249C45.8723 42.3443 46.2097 42.4654 46.3801 42.4654C46.4686 42.4654 46.4732 42.4754 46.4481 42.6121C46.4037 42.8529 46.3386 42.9547 46.2305 42.9525C46.0763 42.9493 45.2686 42.3702 45.1648 42.1885C45.1168 42.1044 45.0643 42.0354 45.0482 42.0353C45.0321 42.0351 45.0188 42.1031 45.0188 42.1862C45.0188 42.426 45.2489 42.8356 45.5895 43.2023L45.8886 43.5243L46.3228 43.5133L46.757 43.5023L47.277 42.8077L47.7969 42.1132H48.2271C48.5451 42.1132 48.6573 42.126 48.6574 42.1621C48.6575 42.1891 48.5945 42.3739 48.5175 42.5729C48.3771 42.9356 48.2831 43.052 48.1302 43.0526C48.0719 43.0528 48.0108 43.1278 47.8995 43.3362C47.8161 43.4921 47.6527 43.796 47.5363 44.0115L47.3247 44.4034L46.8898 44.3885L46.4548 44.3736L46.4806 44.5024C46.4947 44.5732 46.5146 44.6395 46.5248 44.6497C46.5349 44.6598 46.9351 44.6927 47.4141 44.7227C47.8932 44.7527 48.2959 44.7897 48.3092 44.8049C48.3336 44.8329 48.4618 45.4562 48.4617 45.5467C48.4617 45.5819 48.3694 45.5956 48.131 45.5956C47.7761 45.5956 47.6161 45.5485 47.5795 45.4331C47.5669 45.3934 47.527 45.361 47.4908 45.3613C47.3444 45.3623 45.3391 45.903 45.1753 45.9856C44.6667 46.2421 44.3973 46.5766 44.1972 47.1999C44.0861 47.546 44.0425 47.627 43.8625 47.8214C43.6434 48.0581 43.3765 48.2117 43.0436 48.2928C42.8113 48.3494 42.7495 48.3942 42.7503 48.5056C42.7514 48.6549 42.8054 48.6826 43.2335 48.7536L43.6559 48.8236L43.77 49.117C43.8326 49.2784 43.884 49.4237 43.8841 49.4398C43.8842 49.456 43.5057 49.4692 43.0431 49.4692C42.5805 49.4692 42.2019 49.4609 42.2019 49.4506C42.2019 49.4404 42.1491 49.1055 42.0846 48.7062C42.02 48.3069 41.9672 47.972 41.9672 47.9618C41.9672 47.899 41.8813 47.962 41.829 48.0631C41.7406 48.234 41.6748 48.1877 41.6678 47.9496C41.6622 47.7607 41.6688 47.7455 41.7656 47.7228C41.9559 47.6782 42.3206 47.463 42.4438 47.3226C42.6857 47.0471 42.8912 46.4584 42.8596 46.1317L42.8475 46.0064L42.5149 45.9832C41.9881 45.9464 41.6722 45.7416 41.4563 45.2968C41.2596 44.8916 41.3185 44.5108 41.655 44.0131C41.9182 43.6236 41.9448 43.5168 41.9218 42.9429C41.9088 42.6182 41.8925 42.5411 41.8136 42.4304C41.4849 41.9686 40.7938 42.2256 40.7936 42.8097C40.7935 43.0346 40.7002 43.2027 40.5379 43.2706C40.4647 43.3011 40.3935 43.3262 40.3796 43.3262C40.3658 43.3262 40.3617 43.1369 40.3704 42.9056C40.3878 42.4457 40.4332 42.3123 40.6512 42.0804C40.8536 41.8652 41.0485 41.7831 41.3608 41.7818C41.5884 41.7808 41.6644 41.7982 41.8107 41.8848C42.2468 42.1426 42.3193 42.3138 42.3193 43.0852C42.3193 43.7642 42.2874 43.889 42.0292 44.2183C41.7351 44.5934 41.7016 44.9645 41.9327 45.2891C42.1344 45.5723 42.6678 45.6675 43.0192 45.483C43.2815 45.3452 43.5375 45.0627 43.6696 44.7652C43.7339 44.6205 43.7974 44.5016 43.8108 44.5011C43.8834 44.4979 44.4404 44.9063 44.5507 45.0436C44.7116 45.2439 44.7619 45.2483 44.7264 45.0589C44.663 44.7206 44.4896 44.4979 44.0033 44.1296C43.5486 43.7852 43.3891 43.6015 43.2013 43.2061C43.0877 42.9669 43.0556 42.8421 43.0255 42.5238C42.9621 41.8541 43.0544 41.4332 43.3762 40.9235C43.6586 40.4764 44.146 40.1463 44.711 40.0198C45.0322 39.9478 45.3864 39.9787 45.7396 40.1097ZM55.5534 40.098C56.1 40.285 56.5075 40.6533 56.7553 41.1846C56.9515 41.6049 57.0074 41.9034 56.9794 42.3797C56.9348 43.1382 56.6324 43.6738 55.9929 44.1269C55.5663 44.4291 55.3336 44.7336 55.2841 45.054L55.2579 45.2239L55.508 44.9879C55.7979 44.7145 56.1598 44.4731 56.2039 44.5238C56.2206 44.543 56.2652 44.6426 56.303 44.7452C56.3772 44.9469 56.6842 45.3102 56.8853 45.4344C57.2567 45.6636 57.7044 45.6272 57.9866 45.3449C58.2886 45.0429 58.297 44.6617 58.01 44.2855C57.7067 43.888 57.6786 43.7984 57.6627 43.1809C57.6454 42.5057 57.696 42.3057 57.9481 42.0535C58.4451 41.5564 59.3238 41.7512 59.5476 42.4081C59.6097 42.5903 59.6424 43.3262 59.5884 43.3262C59.5756 43.3262 59.5065 43.2984 59.4349 43.2645C59.2732 43.1877 59.1815 43.0028 59.1813 42.7529C59.1812 42.5176 59.082 42.3448 58.8966 42.2568C58.6292 42.1299 58.2998 42.213 58.1598 42.4427C58.0977 42.5445 58.0863 42.6434 58.0862 43.0791C58.0861 43.3628 58.1028 43.639 58.1233 43.6928C58.1437 43.7466 58.239 43.893 58.335 44.0181C58.7558 44.5666 58.7361 45.1818 58.2832 45.6376C58.0252 45.8972 57.8022 45.9868 57.414 45.9868H57.1471V46.2377C57.1471 46.9159 57.5369 47.4878 58.1391 47.693L58.3208 47.7549V47.9665C58.3208 48.205 58.2719 48.236 58.1722 48.0608C58.0526 47.8506 58.0607 47.8313 57.9103 48.6866C57.8554 48.9987 57.8007 49.3024 57.7887 49.3616L57.7668 49.4692H56.9246C56.139 49.4692 56.0841 49.4646 56.1076 49.4007C56.1215 49.363 56.1783 49.2149 56.234 49.0715L56.3352 48.8107L56.6727 48.7654C57.16 48.7 57.2037 48.6822 57.2175 48.5434C57.2324 48.3948 57.1754 48.3478 56.8906 48.2736C56.2816 48.1149 55.9725 47.7899 55.7409 47.0644C55.6241 46.6982 55.4954 46.4892 55.2599 46.2832C54.944 46.0069 54.7578 45.9313 53.7238 45.6598C52.4936 45.3368 52.4313 45.3262 52.403 45.4345C52.3723 45.5519 52.22 45.5956 51.8407 45.5956C51.5425 45.5956 51.5101 45.5885 51.5277 45.5271C51.5386 45.4894 51.5685 45.3178 51.5943 45.1456C51.6201 44.9734 51.6526 44.8197 51.6664 44.8041C51.6803 44.7884 52.0432 44.7559 52.473 44.7319C53.4583 44.6769 53.4853 44.6709 53.5017 44.5024L53.5143 44.3723L53.0871 44.3899L52.6598 44.4075L52.5677 44.2288C52.153 43.4233 51.9292 43.0523 51.8581 43.0523C51.7031 43.0523 51.6367 42.9679 51.4788 42.5703C51.3902 42.347 51.3177 42.1529 51.3177 42.1388C51.3177 42.1247 51.5158 42.1133 51.7578 42.1135L52.198 42.1137L52.7225 42.8178L53.2469 43.5218H53.6859H54.1249L54.4152 43.1923C54.575 43.0111 54.7523 42.7771 54.8093 42.6724C54.936 42.4395 54.9996 42.1808 54.9482 42.1074C54.9176 42.0637 54.9073 42.0647 54.8892 42.1132C54.8253 42.2839 53.9044 42.974 53.7405 42.974C53.656 42.974 53.5468 42.7713 53.5346 42.5919C53.5288 42.5062 53.5537 42.4905 53.7933 42.4294C54.1278 42.344 54.2675 42.2438 54.284 42.0775C54.2978 41.9375 54.2415 41.8483 54.1068 41.7971C53.977 41.7477 53.8356 41.8148 53.6004 42.0372C53.331 42.292 53.2611 42.2891 53.0234 42.0138C52.9205 41.8947 52.8448 41.7758 52.8552 41.7497C52.8655 41.7237 53.1655 41.5377 53.5218 41.3365C54.3626 40.8616 54.3705 40.8553 54.0939 40.8855C53.8977 40.9069 53.8653 40.8991 53.7516 40.8034C53.6825 40.7453 53.626 40.6654 53.626 40.6259C53.626 40.4989 53.82 40.3184 54.1081 40.1772C54.583 39.9445 55.0325 39.9199 55.5534 40.098ZM45.4394 41.0837C45.3436 41.1088 45.3562 41.1727 45.4871 41.3258C45.6153 41.4758 45.7589 41.4986 45.8808 41.3882C45.9232 41.3499 45.9578 41.3081 45.9578 41.2953C45.9577 41.2649 45.5847 41.0554 45.5412 41.0613C45.5229 41.0638 45.4771 41.0739 45.4394 41.0837ZM54.3106 41.1112C54.2676 41.1389 54.1818 41.1926 54.1201 41.2305C54.0108 41.2977 54.0097 41.3014 54.081 41.3697C54.2347 41.5171 54.3234 41.5075 54.4915 41.3254C54.6348 41.1702 54.6419 41.1526 54.5791 41.1067C54.4943 41.0447 54.412 41.0461 54.3106 41.1112ZM50.5057 45.1352L50.5157 49.0179L50.6539 49.0404C50.8106 49.0658 50.8873 49.1047 50.8873 49.1585C50.8873 49.1804 50.5237 49.1953 49.9875 49.1953C49.4926 49.1953 49.0877 49.184 49.0877 49.1703C49.0877 49.113 49.2333 49.0412 49.3517 49.04L49.4789 49.0388V45.1664V41.294L49.9386 41.2816C50.1915 41.2748 50.4202 41.2654 50.447 41.2608C50.4855 41.2542 50.4978 42.063 50.5057 45.1352ZM46.2635 46.8966C46.2494 47.6705 46.2192 47.7728 45.9252 48.041C45.4805 48.4469 45.4813 48.4461 45.5093 48.5389C45.5241 48.5879 45.5475 48.6399 45.5612 48.6545C45.5749 48.6691 45.8017 48.7124 46.0651 48.7507L46.544 48.8202L46.6617 49.1285C46.7264 49.298 46.7794 49.444 46.7794 49.4529C46.7794 49.4619 46.4051 49.4692 45.9477 49.4692H45.116L45.0469 49.2833C45.0089 49.1811 44.9145 48.917 44.8371 48.6964C44.7597 48.4758 44.6815 48.2954 44.6634 48.2954C44.6452 48.2954 44.6115 48.3306 44.5885 48.3736C44.5159 48.5093 44.4711 48.4592 44.4711 48.242V48.0321L44.6497 47.9639C44.8526 47.8864 44.9212 47.7674 44.8824 47.5605C44.8636 47.4599 44.8046 47.392 44.6157 47.2534C44.4824 47.1555 44.367 47.058 44.3593 47.0367C44.3515 47.0155 44.4307 46.9177 44.5353 46.8194C44.8698 46.5052 45.5754 46.2313 46.0679 46.2245L46.2758 46.2216L46.2635 46.8966ZM54.3356 46.278C54.7755 46.3713 55.171 46.5594 55.4288 46.7981C55.5562 46.9161 55.6598 47.0239 55.6591 47.0377C55.6585 47.0515 55.545 47.139 55.407 47.232C55.2229 47.356 55.1442 47.4366 55.1121 47.5341C55.0408 47.7503 55.1552 47.9147 55.4354 47.9985C55.4899 48.0148 55.5039 48.0632 55.5039 48.2355C55.5039 48.4608 55.4597 48.5103 55.3843 48.3694C55.36 48.3241 55.3268 48.3021 55.3104 48.3205C55.2941 48.3389 55.1869 48.6049 55.0723 48.9116L54.8638 49.4692H54.0493C53.6013 49.4692 53.2347 49.456 53.2347 49.44C53.2347 49.4239 53.2789 49.2781 53.3329 49.116L53.431 48.8213L53.91 48.7526C54.4032 48.6819 54.4867 48.6424 54.4867 48.48C54.4867 48.4391 54.4298 48.3589 54.3603 48.3016C54.011 48.0139 53.8286 47.8022 53.7817 47.6302C53.7303 47.442 53.7051 46.8 53.7349 46.4403L53.7531 46.2216L53.9145 46.2223C54.0032 46.2227 54.1928 46.2477 54.3356 46.278ZM29.1152 60.2313C28.6683 60.2712 28.4629 60.3296 28.0197 60.5432C26.8551 61.1043 26.1948 62.2079 26.1943 63.5942C26.1937 65.1816 27.1541 66.4654 28.6286 66.8483C29.1091 66.973 29.8916 66.9731 30.3268 66.8484C30.7532 66.7262 30.9745 66.5972 31.3278 66.2651L31.6291 65.9818L31.6963 66.3433C31.7332 66.5421 31.7717 66.7356 31.7819 66.7733C31.7977 66.832 31.8502 66.8418 32.1499 66.8418H32.4993V64.9832V63.1247H31.0322H29.5651V63.692V64.2594H30.4887H31.4124L31.3871 64.367C31.3318 64.6025 31.1062 64.9926 30.9141 65.1847C30.5641 65.5348 30.1106 65.7071 29.5392 65.7071C28.9041 65.7071 28.5216 65.5594 28.108 65.1544C27.669 64.7246 27.4618 64.1397 27.5028 63.4461C27.5748 62.2278 28.3591 61.4422 29.5034 61.4422C30.0589 61.4422 30.459 61.5922 30.8711 61.955L31.0554 62.1172L31.5622 61.775C31.8409 61.5869 32.069 61.4157 32.069 61.3946C32.069 61.3421 31.6178 60.9131 31.4134 60.7712C30.8047 60.3485 29.978 60.1543 29.1152 60.2313ZM44.5588 60.2682C44.2754 60.4409 44.1812 60.8602 44.3645 61.1322C44.7134 61.6501 45.4554 61.4887 45.5475 60.8748C45.5776 60.6744 45.446 60.4037 45.2576 60.2785C45.0815 60.1614 44.742 60.1564 44.5588 60.2682ZM38.6808 63.5746V66.8418H39.2873H39.8937V66.607C39.8937 66.4779 39.908 66.3722 39.9255 66.3722C39.943 66.3722 40.009 66.4266 40.0722 66.4931C40.2446 66.6745 40.4725 66.7938 40.8129 66.8809C41.8712 67.1516 42.9223 66.6656 43.3943 65.6875C43.5992 65.2629 43.6654 64.9665 43.6654 64.4746C43.6654 63.7757 43.4574 63.2008 43.0364 62.736C42.5119 62.157 41.8172 61.913 41.0137 62.0256C40.6388 62.0782 40.414 62.1736 40.1186 62.4054L39.8937 62.5821V61.4448V60.3075H39.2873H38.6808V63.5746ZM71.2185 60.3336C71.2041 60.3479 71.1924 60.8497 71.1924 61.4487C71.1924 62.0477 71.181 62.5378 71.1671 62.5378C71.1531 62.5378 71.0657 62.4754 70.9727 62.3992C70.49 62.0037 69.7008 61.8881 68.9872 62.1086C68.6929 62.1995 68.253 62.4986 68.0293 62.7599C67.8425 62.9781 67.663 63.2999 67.5482 63.6226C67.4302 63.9541 67.4035 64.6938 67.4948 65.1052C67.6979 66.0212 68.3696 66.7214 69.2166 66.9C69.8634 67.0365 70.5182 66.9104 70.9505 66.5662C71.0574 66.481 71.1547 66.4114 71.1666 66.4114C71.1785 66.4114 71.1936 66.5038 71.2001 66.6168L71.2119 66.8222L71.8086 66.833L72.4052 66.8438V63.5756V60.3075H71.8249C71.5057 60.3075 71.2328 60.3192 71.2185 60.3336ZM35.1103 62.0325C34.6189 62.1045 34.0964 62.3899 33.7256 62.7889C33.3008 63.2461 33.0791 63.824 33.0791 64.4746C33.0791 65.31 33.4492 66.0298 34.1277 66.514C35.0816 67.1948 36.4989 67.0733 37.3298 66.2394C37.8145 65.7529 38.0537 65.1699 38.0537 64.4746C38.0537 64.0215 37.9762 63.7003 37.7714 63.3052C37.2799 62.3569 36.2521 61.8653 35.1103 62.0325ZM48.048 62.0473C47.7164 62.1076 47.4907 62.2029 47.1784 62.4151C46.5152 62.8655 46.1415 63.6062 46.1394 64.4746C46.1374 65.3141 46.481 66.0212 47.1087 66.4692C47.4359 66.7027 47.654 66.7954 48.0854 66.8845C49.0137 67.0761 49.8799 66.8546 50.4862 66.2706L50.7504 66.0161L50.6571 65.9391C50.6058 65.8967 50.391 65.7651 50.1797 65.6465L49.7956 65.4309L49.619 65.5657C48.9665 66.0638 47.956 65.922 47.5719 65.2784C47.5018 65.161 47.4445 65.0423 47.4445 65.0147C47.4445 64.9747 47.7978 64.9624 49.1757 64.9543L50.9069 64.9441L50.9025 64.4354C50.8987 63.9992 50.8834 63.8822 50.7953 63.6138C50.5685 62.9234 50.1554 62.4549 49.5291 62.1778C49.1441 62.0075 48.5537 61.9555 48.048 62.0473ZM54.0172 62.0162C53.6459 62.0814 53.2651 62.2832 52.9706 62.5709C52.8792 62.6603 52.7955 62.7334 52.7848 62.7334C52.774 62.7334 52.7653 62.5925 52.7653 62.4204V62.1074H52.1589H51.5524V64.4746V66.8418H52.1589H52.7653L52.7656 65.6973C52.7657 65.0678 52.784 64.4384 52.8061 64.2985C52.9153 63.6081 53.3135 63.2812 54.0448 63.2812H54.3322L54.3214 62.6454L54.3106 62.0095L54.2128 62.0043C54.159 62.0014 54.071 62.0068 54.0172 62.0162ZM57.0442 62.0484C56.7403 62.1145 56.6232 62.1757 56.376 62.398C56.2666 62.4964 56.1665 62.5769 56.1535 62.5769C56.1405 62.5769 56.1299 62.4708 56.1299 62.3411V62.1053L55.5332 62.1161L54.9366 62.1269V64.4746V66.8222L55.5332 66.833L56.1299 66.8438V65.4609C56.1299 63.9405 56.1435 63.8274 56.3637 63.5234C56.5412 63.2784 56.7486 63.1869 57.1275 63.1868C57.4695 63.1866 57.6 63.2341 57.7808 63.4244C58.0213 63.6777 58.0252 63.7068 58.0396 65.3451L58.0527 66.8418H58.6366H59.2206V65.2199C59.2206 63.4626 59.2094 63.339 59.012 62.929C58.6599 62.1977 57.9069 61.8607 57.0442 62.0484ZM61.89 62.0348C60.9998 62.1624 60.2213 62.8709 59.9398 63.8094C59.8431 64.1319 59.8431 64.8172 59.9398 65.1397C60.1869 65.9634 60.7753 66.5812 61.5454 66.8255C62.5387 67.1405 63.6394 66.8469 64.2511 66.1038C64.4934 65.8094 64.5945 65.6279 64.7228 65.2571C64.818 64.9819 64.831 64.8874 64.8302 64.4746C64.8294 64.0734 64.8143 63.9595 64.7258 63.692C64.3292 62.4918 63.2206 61.844 61.89 62.0348ZM75.0246 62.0315C73.8451 62.2051 72.973 63.3414 73.0443 64.6115C73.0824 65.2897 73.2909 65.7759 73.7339 66.219C74.1042 66.5893 74.4501 66.7706 75.007 66.886C75.9127 67.0739 76.7864 66.8509 77.3958 66.2764C77.6325 66.0533 77.6588 66.0147 77.608 65.9661C77.5358 65.8972 76.7281 65.4332 76.6802 65.4332C76.6609 65.4332 76.5958 65.4847 76.5355 65.5477C76.3302 65.762 76.0758 65.8437 75.6133 65.8439C75.2394 65.844 75.1832 65.8341 74.9874 65.7336C74.869 65.6729 74.7221 65.576 74.6609 65.5184C74.5537 65.4174 74.3614 65.0872 74.3614 65.0041C74.3614 64.9769 74.9235 64.9637 76.08 64.9637H77.7986L77.8258 64.746C77.8786 64.3232 77.747 63.5877 77.5505 63.2078C77.0944 62.326 76.1166 61.8707 75.0246 62.0315ZM44.3146 64.4756V66.8438L44.9112 66.833L45.5079 66.8222L45.518 64.4648L45.5281 62.1074H44.9213H44.3146V64.4756ZM49.1537 63.2152C49.3692 63.3255 49.5167 63.4878 49.6146 63.7222C49.7314 64.0019 49.7971 63.9855 48.5595 63.9855C47.6931 63.9855 47.4447 63.9746 47.4453 63.9366C47.4473 63.8252 47.6042 63.5518 47.7496 63.4064C47.9799 63.1762 48.2515 63.0819 48.6377 63.0981C48.8819 63.1084 48.9953 63.1341 49.1537 63.2152ZM76.0046 63.1902C76.2261 63.2894 76.4221 63.4861 76.5175 63.705C76.6481 64.0046 76.719 63.9855 75.4764 63.9855C74.2338 63.9855 74.2922 64.0006 74.4377 63.7153C74.5917 63.4135 74.8096 63.2297 75.1438 63.1198C75.314 63.0639 75.8136 63.1048 76.0046 63.1902ZM36.0987 63.2683C36.3428 63.3773 36.5594 63.6072 36.6997 63.9063C36.8025 64.1254 36.8182 64.2021 36.8157 64.4736C36.8123 64.8471 36.7431 65.0564 36.5296 65.3392C36.2973 65.6469 36.0293 65.766 35.5705 65.7652C35.2858 65.7647 35.1792 65.7469 35.0133 65.6724C34.3797 65.3878 34.1297 64.5133 34.4781 63.8C34.5984 63.5539 34.8524 63.3343 35.1331 63.2341C35.3958 63.1402 35.8478 63.1562 36.0987 63.2683ZM41.7136 63.2591C41.9284 63.3485 42.219 63.6451 42.3258 63.884C42.3989 64.0476 42.415 64.1534 42.4158 64.4746C42.4166 64.8159 42.4036 64.8938 42.3144 65.0844C42.1174 65.5055 41.7796 65.7389 41.313 65.7763C40.7471 65.8218 40.2937 65.5661 40.0662 65.0732C39.9672 64.8588 39.9524 64.7808 39.9524 64.4746C39.9524 64.1758 39.968 64.089 40.0554 63.9025C40.2334 63.523 40.4948 63.2918 40.8522 63.1977C41.032 63.1504 41.5392 63.1865 41.7136 63.2591ZM62.9135 63.2791C63.0085 63.3251 63.1661 63.4481 63.2637 63.5525C63.735 64.0564 63.7038 64.9989 63.2003 65.4609C62.9368 65.7028 62.783 65.7586 62.3701 65.7621C61.9398 65.7658 61.6913 65.6702 61.4496 65.408C61.1904 65.1268 61.1212 64.931 61.1196 64.4746C61.1183 64.1208 61.1287 64.0626 61.2284 63.8681C61.4094 63.5149 61.6756 63.289 62.0179 63.198C62.2263 63.1426 62.7248 63.1877 62.9135 63.2791ZM70.3283 63.2251C70.8903 63.392 71.238 64.0537 71.1213 64.7343C71.0613 65.0844 70.9721 65.255 70.7314 65.4801C70.4165 65.7747 69.9886 65.8573 69.4931 65.7192C69.2997 65.6653 69.2154 65.6128 69.0377 65.4355C68.4723 64.8716 68.5411 63.8619 69.1779 63.3761C69.4442 63.1729 69.9355 63.1085 70.3283 63.2251ZM66.0171 67.8995C65.8041 67.9529 65.677 68.0269 65.5044 68.1977C65.0783 68.6195 65.0583 69.3203 65.4594 69.7665C66.1617 70.5478 67.4365 70.0475 67.4365 68.9908C67.4365 68.577 67.1555 68.1337 66.791 67.9724C66.5886 67.8829 66.2211 67.8483 66.0171 67.8995ZM17.1203 68.177C15.5098 68.3196 14.1762 69.182 13.4369 70.5589C13.2166 70.9693 13.0887 71.324 12.9702 71.8533C12.8921 72.2024 12.8792 72.3648 12.8807 72.9848C12.8823 73.6332 12.8937 73.7565 12.99 74.167C13.5086 76.3792 15.2848 77.7679 17.5933 77.7662C18.4479 77.7656 19.1521 77.5634 19.7693 77.1414C20.055 76.9461 20.4578 76.5488 20.6645 76.2583C20.7506 76.1374 20.8369 76.038 20.8564 76.0376C20.8772 76.0371 20.8823 76.3605 20.8688 76.8176L20.8458 77.5985L21.5508 77.6099C21.9385 77.6162 22.263 77.6141 22.2719 77.6051C22.2809 77.5961 22.2881 76.4913 22.2881 75.1498V72.7109H20.2146H18.1411V73.3761V74.0412H18.9431C19.8852 74.0412 19.8528 74.0177 19.5493 74.4802C19.3019 74.857 18.9571 75.1704 18.5974 75.3454C18.259 75.5101 18.0019 75.5672 17.5986 75.5672C17.155 75.5672 16.8722 75.5044 16.4979 75.3228C15.8951 75.0304 15.4486 74.4555 15.2426 73.7064C15.1364 73.3203 15.128 72.706 15.2234 72.3001C15.331 71.8417 15.5971 71.3467 15.9011 71.0391C16.7774 70.1524 18.2918 70.1296 19.2107 70.9892L19.4561 71.2188L20.3821 70.6029C20.8915 70.2641 21.3182 69.9769 21.3303 69.9647C21.3691 69.926 20.8369 69.3747 20.5133 69.1184C20.0828 68.7774 19.3888 68.4407 18.8528 68.3128C18.5204 68.2334 17.6081 68.1147 17.5151 68.1387C17.5043 68.1415 17.3267 68.1587 17.1203 68.177ZM43.2974 69.8742C43.2974 70.7242 43.2873 71.4197 43.2751 71.4197C43.2628 71.4197 43.1704 71.3503 43.0697 71.2656C42.8361 71.0691 42.3894 70.8484 42.0751 70.7743C41.9405 70.7425 41.6454 70.7164 41.4195 70.7163C39.9534 70.7152 38.8069 71.6141 38.3409 73.13C38.2418 73.4525 38.2351 73.5213 38.2336 74.2369C38.2321 74.9162 38.2417 75.0342 38.321 75.3129C38.5352 76.0653 39.0192 76.8041 39.5534 77.194C40.1192 77.6069 40.6349 77.7684 41.3999 77.7719C42.1347 77.7754 42.5762 77.639 43.0233 77.2704C43.1415 77.1729 43.2515 77.0932 43.2678 77.0932C43.2841 77.0932 43.2974 77.2068 43.2974 77.3457V77.5982L44.3635 77.6098C44.9499 77.6162 45.4429 77.6159 45.459 77.6093C45.4751 77.6026 45.4883 75.5118 45.4883 72.9629V68.3286H44.3929H43.2974V69.8742ZM54.252 72.9587C54.252 75.5053 54.2593 77.5961 54.2682 77.6051C54.2771 77.6141 54.7701 77.6165 55.3636 77.6104L56.4429 77.5994V72.964V68.3286H55.3474H54.252V72.9587ZM33.4121 70.771C32.8557 70.8766 32.2339 71.1218 31.8342 71.3931C31.6282 71.533 31.2078 71.8904 31.2093 71.9244C31.2098 71.9373 31.3022 72.0089 31.4147 72.0836C31.5271 72.1582 31.8438 72.3733 32.1184 72.5617L32.6178 72.9041L32.8031 72.7863C33.2763 72.4855 34.0347 72.4011 34.4646 72.6014C34.7143 72.7178 34.9054 72.9616 34.9467 73.2167C34.9592 73.2936 34.9784 73.4049 34.9894 73.4641L35.0095 73.5717L34.3315 73.5719C33.2803 73.5723 32.5646 73.7059 31.9775 74.0114C31.2373 74.3965 30.8552 75.0065 30.8568 75.8004C30.8579 76.3904 31.0355 76.8535 31.3906 77.192C31.8139 77.5955 32.3471 77.7717 33.1449 77.7717C33.6117 77.7717 33.6845 77.7615 34.0317 77.6468C34.3773 77.5327 34.8175 77.2746 34.9034 77.1356C34.9665 77.0335 35.0032 77.1115 35.0032 77.3475V77.6018H36.0811H37.1588L37.1456 75.1466C37.1305 72.3624 37.1415 72.4664 36.7992 71.8671C36.5067 71.355 36.0612 71.0353 35.3554 70.8309C34.9784 70.7218 33.854 70.6871 33.4121 70.771ZM49.0548 70.7763C48.2814 70.9175 47.4853 71.3093 47.0353 71.7702C46.9009 71.9078 46.888 71.9359 46.9375 71.9826C46.982 72.0246 48.0369 72.7433 48.248 72.8755C48.2723 72.8906 48.3601 72.8569 48.4431 72.8004C48.843 72.5287 49.6215 72.4157 50.0541 72.5667C50.3807 72.6806 50.581 72.9557 50.6352 73.3647L50.6614 73.5621L49.8061 73.5832C48.8399 73.607 48.3117 73.6963 47.821 73.9188C47.4835 74.0718 47.0968 74.3467 46.9396 74.5452C46.3256 75.3205 46.3837 76.5647 47.0633 77.194C47.5027 77.6008 47.9914 77.7662 48.7747 77.773C49.1748 77.7766 49.3193 77.7613 49.5692 77.6891C49.9573 77.5769 50.1943 77.4562 50.4238 77.2537C50.524 77.1654 50.6156 77.0932 50.6275 77.0932C50.6393 77.0932 50.6542 77.212 50.6606 77.3573C50.667 77.5026 50.6854 77.617 50.7015 77.6116C50.7176 77.6062 51.2073 77.6018 51.7896 77.6018H52.8484L52.8332 75.2053C52.8162 72.5207 52.8216 72.5782 52.5272 71.9815C52.2028 71.3242 51.5506 70.8978 50.6526 70.7561C50.3044 70.7011 49.404 70.7125 49.0548 70.7763ZM60.0243 70.7762C59.6866 70.8398 59.0991 71.0296 58.8489 71.156C58.504 71.3303 57.8513 71.8362 57.8513 71.9293C57.8513 71.9455 58.1674 72.172 58.5538 72.4326L59.2563 72.9065L59.3979 72.8104C59.8452 72.5068 60.612 72.3996 61.0495 72.5795C61.3535 72.7045 61.5587 72.9964 61.5959 73.3567L61.6171 73.562L60.7612 73.5825C59.8416 73.6044 59.3652 73.6817 58.8381 73.8947C57.8714 74.2852 57.3737 75.1035 57.4996 76.0954C57.6378 77.1847 58.4244 77.7722 59.7488 77.7755C60.4476 77.7773 61.0123 77.5955 61.3901 77.2472C61.482 77.1625 61.5676 77.0932 61.5804 77.0932C61.5931 77.0932 61.6088 77.2093 61.6151 77.3512L61.6267 77.6093L62.7026 77.6059L63.7785 77.6025L63.7769 75.2448C63.7751 72.5893 63.7728 72.5633 63.488 71.9856C63.2062 71.4138 62.6669 71.0108 61.9201 70.8137C61.5602 70.7188 60.4469 70.6967 60.0243 70.7762ZM70.9557 70.7736C70.3778 70.8829 69.6814 71.1749 69.2949 71.4701C69.0954 71.6224 68.8059 71.8969 68.8059 71.9337C68.8059 71.9622 69.4122 72.3871 69.9266 72.7192L70.2062 72.8997L70.3548 72.7987C70.5945 72.6358 71.0504 72.5068 71.4076 72.5009C72.1227 72.489 72.4404 72.7411 72.5421 73.401L72.5671 73.5629L71.733 73.5814C70.8826 73.6004 70.458 73.6593 69.96 73.8277C68.8139 74.2151 68.2496 75.1265 68.4574 76.2545C68.5179 76.5832 68.6627 76.8652 68.9057 77.1277C69.3094 77.5638 69.8704 77.7672 70.6838 77.7724C71.4043 77.777 71.9257 77.613 72.3329 77.2537C72.4331 77.1654 72.5255 77.0932 72.5383 77.0932C72.5512 77.0932 72.5617 77.2076 72.5617 77.3475V77.6018H73.6572H74.7526L74.7523 75.4792C74.7519 73.2303 74.7303 72.8438 74.5766 72.3372C74.3449 71.5739 73.8443 71.1113 72.9646 70.8478C72.6616 70.757 72.5385 70.7431 71.9357 70.7312C71.4554 70.7217 71.1629 70.7344 70.9557 70.7736ZM79.8778 70.7767C79.7594 70.8076 79.5041 70.911 79.3105 71.0065C79.0329 71.1435 78.8942 71.2444 78.6552 71.4837L78.352 71.7873V71.3296V70.8719H77.2565H76.1611V74.2369V77.6018H77.2539H78.3468L78.3608 75.89C78.3741 74.2508 78.3784 74.1673 78.4607 73.9205C78.6866 73.2439 79.0758 73.0151 79.9756 73.0298L80.4451 73.0374L80.4554 71.8764L80.4658 70.7154L80.2794 70.718C80.1768 70.7194 79.9961 70.7458 79.8778 70.7767ZM83.4967 70.7543C82.7008 70.8728 81.8052 71.2954 81.3465 71.7689C81.2123 71.9074 81.1992 71.9359 81.2487 71.9821C81.2936 72.024 82.3846 72.7679 82.5626 72.8779C82.585 72.8917 82.6713 72.8569 82.7544 72.8004C83.1209 72.5514 83.8064 72.4258 84.2215 72.5318C84.649 72.6409 84.8983 72.9267 84.9505 73.3674L84.9747 73.5717H84.307C83.5908 73.5717 83.2211 73.609 82.6947 73.7343C82.3273 73.8218 81.8314 74.0467 81.5601 74.2489C80.991 74.673 80.7174 75.4639 80.8734 76.234C80.9642 76.6823 81.0875 76.9235 81.3568 77.1805C81.7887 77.5925 82.2996 77.7674 83.0859 77.7724C83.4812 77.7749 83.6335 77.7587 83.8805 77.6881C84.2704 77.5767 84.5361 77.4414 84.7468 77.2472C84.8387 77.1625 84.9251 77.0932 84.9389 77.0932C84.9526 77.0932 84.9638 77.2064 84.9638 77.3449C84.9638 77.5904 84.9665 77.5969 85.0714 77.609C85.1306 77.6158 85.6156 77.6164 86.1492 77.6103L87.1194 77.5992L87.1069 75.1061C87.0947 72.6558 87.093 72.6087 87.0083 72.3587C86.7068 71.4694 86.0068 70.9207 84.9638 70.7561C84.6779 70.711 83.7948 70.7099 83.4967 70.7543ZM23.3445 73.1362C23.3445 75.7796 23.3528 75.8718 23.6442 76.4671C23.9827 77.1587 24.5326 77.5881 25.2697 77.7367C26.0076 77.8854 26.7902 77.7277 27.3167 77.3241C27.4543 77.2186 27.5764 77.1323 27.588 77.1323C27.5995 77.1323 27.6089 77.2368 27.6089 77.3645C27.6089 77.5886 27.6126 77.5971 27.7165 77.609C27.7757 77.6158 28.2775 77.6164 28.8315 77.6104L29.839 77.5993V74.2356V70.8719H28.7239H27.6089V72.8212C27.6089 74.9753 27.6019 75.0475 27.3664 75.3157C27.1128 75.6046 26.6555 75.7151 26.2277 75.5907C25.9477 75.5093 25.7644 75.3496 25.625 75.0657L25.5158 74.8433L25.504 72.8576L25.4923 70.8719H24.4184H23.3445V73.1362ZM65.1978 74.2075L65.1869 77.5431L65.1001 77.7055C64.9642 77.9596 64.7923 78.0428 64.3489 78.0689L63.9741 78.0909V79.03V79.969L64.2675 80.0202C64.7325 80.1013 65.4659 80.0608 65.8473 79.933C66.4251 79.7392 66.8106 79.3985 67.0848 78.8394C67.3808 78.2356 67.3698 78.398 67.3864 74.4227L67.4012 70.8719H66.3049H65.2086L65.1978 74.2075ZM42.2708 72.9006C42.5848 72.9983 42.843 73.1842 43.0034 73.4279C43.1814 73.6985 43.2321 73.9264 43.2114 74.3641C43.1908 74.8005 43.092 75.0254 42.8014 75.2973C42.5229 75.5578 42.3137 75.6259 41.7912 75.6259C41.3998 75.6259 41.3408 75.616 41.1393 75.5171C40.8737 75.3867 40.6647 75.1657 40.5249 74.8676C40.434 74.6738 40.4218 74.599 40.4218 74.2369C40.4218 73.8688 40.4329 73.8036 40.5281 73.6108C40.5865 73.4925 40.6859 73.3334 40.7489 73.2574C40.867 73.1148 41.2081 72.919 41.4302 72.8663C41.6604 72.8116 42.0338 72.8268 42.2708 72.9006ZM35.0032 75.1924V75.7176L34.8413 75.8562C34.4874 76.1592 33.7975 76.2638 33.4156 76.0724C33.1537 75.9412 33.0745 75.8189 33.0707 75.5397C33.0629 74.9638 33.5738 74.6884 34.6805 74.672L35.0032 74.6673V75.1924ZM50.6526 75.1878V75.7084L50.5255 75.831C50.1726 76.1712 49.3996 76.2795 48.9939 76.0454C48.6405 75.8415 48.6552 75.171 49.018 74.9486C49.2965 74.7778 49.7582 74.6805 50.3298 74.672L50.6526 74.6673V75.1878ZM61.5984 75.2248L61.5876 75.7824L61.3968 75.9099C60.8534 76.2731 59.9991 76.2497 59.7647 75.8651C59.664 75.7001 59.6643 75.3556 59.7652 75.1902C59.9688 74.8562 60.4741 74.684 61.2854 74.672L61.6093 74.6673L61.5984 75.2248ZM72.5617 75.1878V75.7084L72.4345 75.831C72.1795 76.077 71.6324 76.2279 71.2513 76.1575C70.8152 76.0768 70.645 75.9012 70.6448 75.5315C70.6445 75.1065 70.9181 74.8521 71.4858 74.7497C71.8595 74.6822 71.8987 74.6782 72.2389 74.6726L72.5617 74.6673V75.1878ZM84.9638 75.1878V75.7084L84.8367 75.831C84.3855 76.2661 83.3792 76.2882 83.1235 75.8685C83.0275 75.7111 83.0217 75.3776 83.1116 75.1881C83.26 74.8752 83.8266 74.6841 84.641 74.672L84.9638 74.6673V75.1878ZM34.2299 86.7148C33.5488 86.9519 33.0939 87.49 32.9651 88.2113C32.8591 88.8041 33.0866 89.4047 33.9921 90.9232C35.5938 93.6093 37.9379 95.9016 40.7348 97.5168C42.2746 98.4061 44.3161 99.1995 46.0165 99.5695C47.5148 99.8954 49.3654 100.056 50.7765 99.9824C53.1643 99.8579 55.2771 99.3687 57.4014 98.4486C61.0339 96.8752 64.1242 94.134 66.1262 90.7095C66.4965 90.076 66.8651 89.3283 66.9625 89.013C67.3832 87.6509 66.0772 86.2922 64.6997 86.6589C64.0395 86.8346 63.7024 87.1463 63.2967 87.956C62.6859 89.1756 61.9937 90.1908 61.0632 91.2322C59.3005 93.2048 57.0428 94.6709 54.5258 95.4772C53.7015 95.7413 53.5802 95.7732 52.8821 95.9093C51.6778 96.1441 51.4155 96.1672 49.9679 96.1661C48.4997 96.1649 48.2426 96.1391 46.8615 95.8543C44.7316 95.4151 42.4564 94.3307 40.7153 92.925C38.9444 91.4953 37.5879 89.7979 36.5994 87.775C36.125 86.8043 35.1833 86.3829 34.2299 86.7148Z" fill="#000000"/>
</svg>
