<svg width="56" height="55" viewBox="0 0 56 55" fill="none" xmlns="http://www.w3.org/2000/svg">
<rect x="0.5" width="55" height="55" rx="12" fill="#172B4D"/>
<path d="M41.4681 23.4169C41.4681 23.0943 41.2041 22.8303 40.8814 22.8303H33.2548C32.9321 22.8303 32.6681 22.5663 32.6681 22.2436V14.6169C32.6681 14.2943 32.4041 14.0303 32.0814 14.0303H22.6948C22.3721 14.0303 22.1081 14.2943 22.1081 14.6169V22.2436C22.1081 22.5663 21.8441 22.8303 21.5214 22.8303H13.8948C13.5721 22.8303 13.3081 23.0943 13.3081 23.4169V32.8036C13.3081 33.1263 13.5721 33.3903 13.8948 33.3903H21.5214C21.8441 33.3903 22.1081 33.6543 22.1081 33.9769V41.6036C22.1081 41.9263 22.3721 42.1903 22.6948 42.1903H32.0814C32.4041 42.1903 32.6681 41.9263 32.6681 41.6036V33.9769C32.6681 33.6543 32.9321 33.3903 33.2548 33.3903H40.8814C41.2041 33.3903 41.4681 33.1263 41.4681 32.8036V23.4169Z" fill="white"/>
</svg>
