<svg width="56" height="55" viewBox="0 0 56 55" fill="none" xmlns="http://www.w3.org/2000/svg">
<path d="M40.2192 0H15.7808C7.34146 0 0.5 6.84146 0.5 15.2808V39.7192C0.5 48.1585 7.34146 55 15.7808 55H40.2192C48.6585 55 55.5 48.1585 55.5 39.7192V15.2808C55.5 6.84146 48.6585 0 40.2192 0Z" fill="#172B4D"/>
<path d="M40 23.0417H36.25V18H18.75C17.375 18 16.25 19.1344 16.25 20.5208V34.3854H18.75C18.75 36.4777 20.425 38.1667 22.5 38.1667C24.575 38.1667 26.25 36.4777 26.25 34.3854H33.75C33.75 36.4777 35.425 38.1667 37.5 38.1667C39.575 38.1667 41.25 36.4777 41.25 34.3854H43.75V28.0833L40 23.0417ZM22.5 36.276C21.4625 36.276 20.625 35.4316 20.625 34.3854C20.625 33.3393 21.4625 32.4948 22.5 32.4948C23.5375 32.4948 24.375 33.3393 24.375 34.3854C24.375 35.4316 23.5375 36.276 22.5 36.276ZM39.375 24.9323L41.825 28.0833H36.25V24.9323H39.375ZM37.5 36.276C36.4625 36.276 35.625 35.4316 35.625 34.3854C35.625 33.3393 36.4625 32.4948 37.5 32.4948C38.5375 32.4948 39.375 33.3393 39.375 34.3854C39.375 35.4316 38.5375 36.276 37.5 36.276Z" fill="white"/>
<path d="M16.25 34.3854V20.5208C13.7292 23.0417 12 24.7854 12 34.3854H16.25Z" fill="white"/>
</svg>
