<svg width="56" height="55" viewBox="0 0 56 55" fill="none" xmlns="http://www.w3.org/2000/svg">
<rect x="0.5" width="55" height="55" rx="12" fill="#172B4D"/>
<path d="M30.1323 32.6111H40.0601V27.0941C40.0601 21.4078 35.6772 16.7542 30.1323 16.3789H25.8676C20.3218 16.7533 15.939 21.4077 15.939 27.0941V32.6111H25.8676H30.1323Z" fill="white"/>
<path d="M40.06 32.6113H15.9388L8.60986 36.8546C11.9692 38.2779 15.4448 39.3162 18.973 39.9683C28.4681 41.724 38.3479 40.6858 47.3899 36.8546L40.06 32.6113Z" fill="white"/>
<path d="M34.1301 25.3459L31.789 32.6125H24.2112L21.8701 25.3459L25.8682 22.4177L28.0005 20.8555L30.1328 22.4177L34.1301 25.3459Z" fill="white"/>
<path d="M30.1328 16.3539V22.4174H25.8682V16.3539C25.8682 15.167 26.8233 14.2041 28.0005 14.2041C28.5886 14.2041 29.1217 14.445 29.5082 14.8338C29.8939 15.2234 30.1328 15.7609 30.1328 16.3539Z" fill="white"/>
<path d="M25.6667 21.4538L28.0003 19.7441L30.3339 21.4538L34.7087 24.6586L32.1465 32.6113H23.8532L21.291 24.6586L25.6667 21.4538Z" fill="#172B4D"/>
<path d="M27.4476 22.8271C27.4476 26.3598 24.968 25.762 25.0219 28.1533C25.0523 29.5035 26.1795 30.2764 27.4445 30.4265C27.1414 30.0732 25.8039 28.3142 27.8789 26.9033C27.9455 28.2631 29.0648 28.4794 29.0648 29.4577C29.0648 29.8696 28.9787 30.1462 28.8791 30.329C29.9231 30.0538 30.8078 29.3203 30.9515 28.099C31.3288 24.8924 27.4476 22.8271 27.4476 22.8271Z" fill="white"/>
</svg>
