<svg width="56" height="55" viewBox="0 0 56 55" fill="none" xmlns="http://www.w3.org/2000/svg">
<rect x="0.5" width="55" height="55" rx="12" fill="#172B4D"/>
<g clip-path="url(#clip0_5501_18773)">
<path d="M38.9905 36.6224C38.5434 36.6224 38.1121 36.5534 37.7065 36.4258V41.4324H40.2744V36.4258C39.8688 36.5534 39.4376 36.6224 38.9905 36.6224Z" fill="white"/>
<path d="M17.0708 36.4258C16.6653 36.5533 16.234 36.6224 15.7869 36.6224C15.3397 36.6224 14.9085 36.5534 14.5029 36.4258V41.4324H17.0708V36.4258Z" fill="white"/>
<path d="M28.6734 36.4844C28.2594 36.5744 27.8299 36.6223 27.3894 36.6223C26.9489 36.6223 26.5194 36.5744 26.1055 36.4844V41.4323H28.6734V36.4844Z" fill="white"/>
<path d="M38.9902 21.5957C36.6263 21.5957 34.7031 23.5189 34.7031 25.8828V32.3356C34.7031 34.2524 35.9677 35.8792 37.7063 36.4262C38.1118 36.5537 38.5431 36.6228 38.9902 36.6228V21.5957Z" fill="white"/>
<path d="M15.7871 21.5957C13.4232 21.5957 11.5 23.5189 11.5 25.8828V32.3356C11.5 34.2524 12.7646 35.8792 14.5032 36.4262C14.9087 36.5537 15.34 36.6228 15.7871 36.6228V21.5957Z" fill="white"/>
<path d="M27.3892 12.2227C24.0614 12.2227 21.354 14.9301 21.354 18.2579V30.5873C21.354 33.4746 23.3922 35.8944 26.1053 36.4846C26.5192 36.5746 26.9487 36.6225 27.3892 36.6225V12.2227Z" fill="white"/>
<path d="M38.9902 36.6227C39.4374 36.6227 39.8687 36.5537 40.2742 36.4261C42.0128 35.8792 43.2774 34.2524 43.2774 32.3356V25.8828C43.2774 23.5189 41.3542 21.5957 38.9902 21.5957V36.6227Z" fill="white"/>
<path d="M15.7871 36.6227C16.2342 36.6227 16.6655 36.5537 17.0711 36.4261C18.8097 35.8792 20.0742 34.2524 20.0742 32.3356V25.8828C20.0742 23.5189 18.1511 21.5957 15.7871 21.5957V36.6227Z" fill="white"/>
<path d="M27.3887 36.6225C27.8292 36.6225 28.2587 36.5746 28.6726 36.4846C31.3857 35.8945 33.4239 33.4747 33.4239 30.5874V18.2579C33.4239 14.9301 30.7165 12.2227 27.3887 12.2227V36.6225Z" fill="white"/>
<path d="M28.6728 41.4326H26.1049H17.0711H14.5032H11.5V44.0005H43.2778V41.4326H40.2746H37.7067H28.6728Z" fill="white"/>
</g>
<defs>
<clipPath id="clip0_5501_18773">
<rect width="31.7778" height="31.7778" fill="white" transform="translate(11.5 12.2227)"/>
</clipPath>
</defs>
</svg>
