<svg width="56" height="55" viewBox="0 0 56 55" fill="none" xmlns="http://www.w3.org/2000/svg">
<rect x="0.5" width="55" height="55" rx="12" fill="#172B4D"/>
<g clip-path="url(#clip0_5501_18767)">
<path d="M45.6491 23.228C45.4026 21.9464 44.5583 21.0349 43.4454 20.8494C37.9108 19.9261 35.1734 18.3005 32.9847 14.6374C32.7605 14.262 32.3553 14.0322 31.9179 14.0322H22.8601C22.4227 14.0322 22.0176 14.262 21.7933 14.6374C19.6044 18.3006 16.8671 19.9262 11.3327 20.8494C10.2199 21.0349 9.37554 21.9464 9.12888 23.228C8.87863 24.53 9.23813 26.272 10.7022 27.9331H44.0759C45.5399 26.272 45.8995 24.5301 45.6491 23.228ZM27.389 25.572C25.7788 25.572 24.4688 24.262 24.4688 22.6517C24.4688 21.0415 25.7788 19.7315 27.389 19.7315C28.9992 19.7315 30.3092 21.0415 30.3092 22.6517C30.3092 24.262 28.9992 25.572 27.389 25.572Z" fill="white"/>
<path d="M27.3881 21.4707C26.7371 21.4707 26.2075 22.0003 26.2075 22.6513C26.2075 23.3023 26.7371 23.8319 27.3881 23.8319C28.039 23.8319 28.5686 23.3024 28.5686 22.6513C28.5688 22.0003 28.0391 21.4707 27.3881 21.4707Z" fill="white"/>
<path d="M42.0134 32.034C42.665 32.034 43.1981 31.534 43.1981 30.9229V30.784C43.1981 30.1729 42.6651 29.6729 42.0134 29.6729H12.7643C12.1123 29.6729 11.5796 30.1729 11.5796 30.784V30.9229C11.5796 31.534 12.1123 32.034 12.7643 32.034H42.0134Z" fill="white"/>
<path d="M16.7517 39.7523C19.6578 41.3254 23.4356 42.1918 27.3887 42.1918C31.342 42.1918 35.1198 41.3254 38.0258 39.7523C40.9271 38.1818 42.6532 36.02 42.8224 33.7734H11.9551C12.1241 36.02 13.8503 38.182 16.7517 39.7523Z" fill="white"/>
</g>
<defs>
<clipPath id="clip0_5501_18767">
<rect width="36.6667" height="36.6667" fill="white" transform="translate(9.05566 9.77832)"/>
</clipPath>
</defs>
</svg>
