<svg width="184" height="124" viewBox="0 0 184 124" fill="none" xmlns="http://www.w3.org/2000/svg">
<rect x="1" y="1" width="182" height="122" rx="7" fill="#F7F7F8"/>
<path d="M14.9596 25.8594H12.0612L12.0455 24.4297H14.5768C15.0039 24.4297 15.3658 24.3672 15.6627 24.2422C15.9648 24.112 16.194 23.9271 16.3502 23.6875C16.5065 23.4427 16.5846 23.1484 16.5846 22.8047C16.5846 22.4245 16.5117 22.1146 16.3658 21.875C16.22 21.6354 15.9961 21.4609 15.694 21.3516C15.3971 21.2422 15.0169 21.1875 14.5533 21.1875H12.6549V31H10.694V19.625H14.5533C15.1783 19.625 15.7356 19.6849 16.2252 19.8047C16.72 19.9245 17.1393 20.112 17.483 20.3672C17.832 20.6172 18.095 20.9349 18.2721 21.3203C18.4544 21.7057 18.5455 22.1641 18.5455 22.6953C18.5455 23.1641 18.4336 23.5938 18.2096 23.9844C17.9856 24.3698 17.6549 24.6849 17.2174 24.9297C16.7799 25.1745 16.2356 25.3203 15.5846 25.3672L14.9596 25.8594ZM14.8737 31H11.444L12.3268 29.4453H14.8737C15.3164 29.4453 15.6862 29.3724 15.983 29.2266C16.2799 29.0755 16.5013 28.8698 16.6471 28.6094C16.7981 28.3438 16.8737 28.0339 16.8737 27.6797C16.8737 27.3099 16.8086 26.9896 16.6783 26.7188C16.5481 26.4427 16.3424 26.2318 16.0612 26.0859C15.7799 25.9349 15.4127 25.8594 14.9596 25.8594H12.7565L12.7721 24.4297H15.6393L16.0846 24.9688C16.7096 24.9896 17.2226 25.1276 17.6237 25.3828C18.0299 25.638 18.332 25.9688 18.5299 26.375C18.7278 26.7812 18.8268 27.2188 18.8268 27.6875C18.8268 28.4115 18.6679 29.0182 18.3502 29.5078C18.0377 29.9974 17.5872 30.3698 16.9987 30.625C16.4101 30.875 15.7018 31 14.8737 31ZM22.6315 22.5469V31H20.7408V22.5469H22.6315ZM20.6158 20.3281C20.6158 20.0417 20.7096 19.8047 20.8971 19.6172C21.0898 19.4245 21.3554 19.3281 21.694 19.3281C22.0273 19.3281 22.2903 19.4245 22.483 19.6172C22.6757 19.8047 22.7721 20.0417 22.7721 20.3281C22.7721 20.6094 22.6757 20.8438 22.483 21.0312C22.2903 21.2188 22.0273 21.3125 21.694 21.3125C21.3554 21.3125 21.0898 21.2188 20.8971 21.0312C20.7096 20.8438 20.6158 20.6094 20.6158 20.3281ZM28.4205 31.1562C27.7955 31.1562 27.2304 31.0547 26.7252 30.8516C26.2252 30.6432 25.7981 30.3542 25.444 29.9844C25.095 29.6146 24.8268 29.1797 24.6393 28.6797C24.4518 28.1797 24.358 27.6406 24.358 27.0625V26.75C24.358 26.0885 24.4544 25.4896 24.6471 24.9531C24.8398 24.4167 25.108 23.9583 25.4518 23.5781C25.7955 23.1927 26.2018 22.8984 26.6705 22.6953C27.1393 22.4922 27.6471 22.3906 28.194 22.3906C28.7981 22.3906 29.3268 22.4922 29.7799 22.6953C30.233 22.8984 30.608 23.1849 30.9049 23.5547C31.207 23.9193 31.4309 24.3542 31.5768 24.8594C31.7278 25.3646 31.8033 25.9219 31.8033 26.5312V27.3359H25.2721V25.9844H29.944V25.8359C29.9336 25.4974 29.8658 25.1797 29.7408 24.8828C29.6211 24.5859 29.4362 24.3464 29.1862 24.1641C28.9362 23.9818 28.6028 23.8906 28.1862 23.8906C27.8737 23.8906 27.595 23.9583 27.3502 24.0938C27.1106 24.224 26.9101 24.4141 26.7487 24.6641C26.5872 24.9141 26.4622 25.2161 26.3737 25.5703C26.2903 25.9193 26.2487 26.3125 26.2487 26.75V27.0625C26.2487 27.4323 26.2981 27.776 26.3971 28.0938C26.5013 28.4062 26.6523 28.6797 26.8502 28.9141C27.0481 29.1484 27.2877 29.3333 27.569 29.4688C27.8502 29.599 28.1705 29.6641 28.5299 29.6641C28.983 29.6641 29.3867 29.5729 29.7408 29.3906C30.095 29.2083 30.4023 28.9505 30.6627 28.6172L31.6549 29.5781C31.4726 29.8438 31.2356 30.099 30.944 30.3438C30.6523 30.5833 30.2955 30.7786 29.8737 30.9297C29.457 31.0807 28.9726 31.1562 28.4205 31.1562ZM35.1393 24.3516V31H33.2565V22.5469H35.0299L35.1393 24.3516ZM34.8033 26.4609L34.194 26.4531C34.1992 25.8542 34.2825 25.3047 34.444 24.8047C34.6106 24.3047 34.8398 23.875 35.1315 23.5156C35.4283 23.1562 35.7825 22.8802 36.194 22.6875C36.6054 22.4896 37.0638 22.3906 37.569 22.3906C37.9752 22.3906 38.3424 22.4479 38.6705 22.5625C39.0039 22.6719 39.2877 22.8516 39.5221 23.1016C39.7617 23.3516 39.944 23.6771 40.069 24.0781C40.194 24.474 40.2565 24.9609 40.2565 25.5391V31H38.3658V25.5312C38.3658 25.125 38.3059 24.8047 38.1862 24.5703C38.0716 24.3307 37.9023 24.1615 37.6783 24.0625C37.4596 23.9583 37.1862 23.9062 36.858 23.9062C36.5351 23.9062 36.2461 23.974 35.9908 24.1094C35.7356 24.2448 35.5195 24.4297 35.3424 24.6641C35.1705 24.8984 35.0377 25.1693 34.944 25.4766C34.8502 25.7839 34.8033 26.112 34.8033 26.4609ZM44.9283 29.5078L46.9987 22.5469H48.9518L46.0143 31H44.7955L44.9283 29.5078ZM43.3424 22.5469L45.4518 29.5391L45.5533 31H44.3346L41.3815 22.5469H43.3424ZM53.733 31.1562C53.108 31.1562 52.5429 31.0547 52.0377 30.8516C51.5377 30.6432 51.1106 30.3542 50.7565 29.9844C50.4075 29.6146 50.1393 29.1797 49.9518 28.6797C49.7643 28.1797 49.6705 27.6406 49.6705 27.0625V26.75C49.6705 26.0885 49.7669 25.4896 49.9596 24.9531C50.1523 24.4167 50.4205 23.9583 50.7643 23.5781C51.108 23.1927 51.5143 22.8984 51.983 22.6953C52.4518 22.4922 52.9596 22.3906 53.5065 22.3906C54.1106 22.3906 54.6393 22.4922 55.0924 22.6953C55.5455 22.8984 55.9205 23.1849 56.2174 23.5547C56.5195 23.9193 56.7434 24.3542 56.8893 24.8594C57.0403 25.3646 57.1158 25.9219 57.1158 26.5312V27.3359H50.5846V25.9844H55.2565V25.8359C55.2461 25.4974 55.1783 25.1797 55.0533 24.8828C54.9336 24.5859 54.7487 24.3464 54.4987 24.1641C54.2487 23.9818 53.9153 23.8906 53.4987 23.8906C53.1862 23.8906 52.9075 23.9583 52.6627 24.0938C52.4231 24.224 52.2226 24.4141 52.0612 24.6641C51.8997 24.9141 51.7747 25.2161 51.6862 25.5703C51.6028 25.9193 51.5612 26.3125 51.5612 26.75V27.0625C51.5612 27.4323 51.6106 27.776 51.7096 28.0938C51.8138 28.4062 51.9648 28.6797 52.1627 28.9141C52.3606 29.1484 52.6002 29.3333 52.8815 29.4688C53.1627 29.599 53.483 29.6641 53.8424 29.6641C54.2955 29.6641 54.6992 29.5729 55.0533 29.3906C55.4075 29.2083 55.7148 28.9505 55.9752 28.6172L56.9674 29.5781C56.7851 29.8438 56.5481 30.099 56.2565 30.3438C55.9648 30.5833 55.608 30.7786 55.1862 30.9297C54.7695 31.0807 54.2851 31.1562 53.733 31.1562ZM60.4518 24.3516V31H58.569V22.5469H60.3424L60.4518 24.3516ZM60.1158 26.4609L59.5065 26.4531C59.5117 25.8542 59.595 25.3047 59.7565 24.8047C59.9231 24.3047 60.1523 23.875 60.444 23.5156C60.7408 23.1562 61.095 22.8802 61.5065 22.6875C61.9179 22.4896 62.3763 22.3906 62.8815 22.3906C63.2877 22.3906 63.6549 22.4479 63.983 22.5625C64.3164 22.6719 64.6002 22.8516 64.8346 23.1016C65.0742 23.3516 65.2565 23.6771 65.3815 24.0781C65.5065 24.474 65.569 24.9609 65.569 25.5391V31H63.6783V25.5312C63.6783 25.125 63.6184 24.8047 63.4987 24.5703C63.3841 24.3307 63.2148 24.1615 62.9908 24.0625C62.7721 23.9583 62.4987 23.9062 62.1705 23.9062C61.8476 23.9062 61.5586 23.974 61.3033 24.1094C61.0481 24.2448 60.832 24.4297 60.6549 24.6641C60.483 24.8984 60.3502 25.1693 60.2565 25.4766C60.1627 25.7839 60.1158 26.112 60.1158 26.4609ZM69.5065 22.5469V31H67.6158V22.5469H69.5065ZM67.4908 20.3281C67.4908 20.0417 67.5846 19.8047 67.7721 19.6172C67.9648 19.4245 68.2304 19.3281 68.569 19.3281C68.9023 19.3281 69.1653 19.4245 69.358 19.6172C69.5507 19.8047 69.6471 20.0417 69.6471 20.3281C69.6471 20.6094 69.5507 20.8438 69.358 21.0312C69.1653 21.2188 68.9023 21.3125 68.569 21.3125C68.2304 21.3125 67.9648 21.2188 67.7721 21.0312C67.5846 20.8438 67.4908 20.6094 67.4908 20.3281ZM76.7252 29.25V19H78.6158V31H76.9049L76.7252 29.25ZM71.2252 26.8672V26.7031C71.2252 26.0625 71.3007 25.4792 71.4518 24.9531C71.6028 24.4219 71.8216 23.9661 72.108 23.5859C72.3945 23.2005 72.7434 22.9062 73.1549 22.7031C73.5664 22.4948 74.0299 22.3906 74.5455 22.3906C75.0559 22.3906 75.5039 22.4896 75.8893 22.6875C76.2747 22.8854 76.6028 23.1693 76.8737 23.5391C77.1445 23.9036 77.3606 24.3411 77.5221 24.8516C77.6836 25.3568 77.7981 25.9193 77.8658 26.5391V27.0625C77.7981 27.6667 77.6836 28.2188 77.5221 28.7188C77.3606 29.2188 77.1445 29.651 76.8737 30.0156C76.6028 30.3802 76.2721 30.6615 75.8815 30.8594C75.4961 31.0573 75.0455 31.1562 74.5299 31.1562C74.0195 31.1562 73.5586 31.0495 73.1471 30.8359C72.7408 30.6224 72.3945 30.3229 72.108 29.9375C71.8216 29.5521 71.6028 29.099 71.4518 28.5781C71.3007 28.0521 71.2252 27.4818 71.2252 26.8672ZM73.108 26.7031V26.8672C73.108 27.2526 73.1419 27.612 73.2096 27.9453C73.2825 28.2786 73.3945 28.5729 73.5455 28.8281C73.6966 29.0781 73.8919 29.276 74.1315 29.4219C74.3763 29.5625 74.6679 29.6328 75.0065 29.6328C75.4336 29.6328 75.7851 29.5391 76.0612 29.3516C76.3372 29.1641 76.5533 28.9115 76.7096 28.5938C76.8711 28.2708 76.9804 27.9115 77.0377 27.5156V26.1016C77.0065 25.7943 76.9414 25.5078 76.8424 25.2422C76.7487 24.9766 76.6211 24.7448 76.4596 24.5469C76.2981 24.3438 76.0976 24.1875 75.858 24.0781C75.6237 23.9635 75.345 23.9062 75.0221 23.9062C74.6783 23.9062 74.3867 23.9792 74.1471 24.125C73.9075 24.2708 73.7096 24.4714 73.5533 24.7266C73.4023 24.9818 73.2903 25.2786 73.2174 25.6172C73.1445 25.9557 73.108 26.3177 73.108 26.7031ZM80.2252 26.8672V26.6875C80.2252 26.0781 80.3138 25.513 80.4908 24.9922C80.6679 24.4661 80.9231 24.0104 81.2565 23.625C81.595 23.2344 82.0065 22.9323 82.4908 22.7188C82.9804 22.5 83.5325 22.3906 84.1471 22.3906C84.7669 22.3906 85.319 22.5 85.8033 22.7188C86.2929 22.9323 86.707 23.2344 87.0455 23.625C87.3841 24.0104 87.6419 24.4661 87.819 24.9922C87.9961 25.513 88.0846 26.0781 88.0846 26.6875V26.8672C88.0846 27.4766 87.9961 28.0417 87.819 28.5625C87.6419 29.0833 87.3841 29.5391 87.0455 29.9297C86.707 30.3151 86.2955 30.6172 85.8112 30.8359C85.3268 31.0495 84.7773 31.1562 84.1627 31.1562C83.5429 31.1562 82.9882 31.0495 82.4987 30.8359C82.0143 30.6172 81.6028 30.3151 81.2643 29.9297C80.9257 29.5391 80.6679 29.0833 80.4908 28.5625C80.3138 28.0417 80.2252 27.4766 80.2252 26.8672ZM82.108 26.6875V26.8672C82.108 27.2474 82.1471 27.6068 82.2252 27.9453C82.3033 28.2839 82.4257 28.5807 82.5924 28.8359C82.7591 29.0911 82.9726 29.2917 83.233 29.4375C83.4934 29.5833 83.8033 29.6562 84.1627 29.6562C84.5117 29.6562 84.8138 29.5833 85.069 29.4375C85.3294 29.2917 85.5429 29.0911 85.7096 28.8359C85.8763 28.5807 85.9987 28.2839 86.0768 27.9453C86.1601 27.6068 86.2018 27.2474 86.2018 26.8672V26.6875C86.2018 26.3125 86.1601 25.9583 86.0768 25.625C85.9987 25.2865 85.8737 24.987 85.7018 24.7266C85.5351 24.4661 85.3216 24.263 85.0612 24.1172C84.8059 23.9661 84.5013 23.8906 84.1471 23.8906C83.7929 23.8906 83.4856 23.9661 83.2252 24.1172C82.97 24.263 82.7591 24.4661 82.5924 24.7266C82.4257 24.987 82.3033 25.2865 82.2252 25.625C82.1471 25.9583 82.108 26.3125 82.108 26.6875Z" fill="#4F1F26"/>
<path d="M14.1022 46.4236V43.1599C14.1022 42.9099 14.0514 42.6931 13.9498 42.5095C13.8522 42.322 13.7037 42.1775 13.5045 42.0759C13.3053 41.9744 13.0592 41.9236 12.7662 41.9236C12.4928 41.9236 12.2526 41.9705 12.0455 42.0642C11.8424 42.158 11.6823 42.281 11.5651 42.4333C11.4518 42.5857 11.3951 42.7498 11.3951 42.9255H10.3112C10.3112 42.699 10.3698 42.4744 10.4869 42.2517C10.6041 42.0291 10.7721 41.8279 10.9908 41.6482C11.2135 41.4646 11.4791 41.3201 11.7877 41.2146C12.1002 41.1052 12.4479 41.0505 12.8307 41.0505C13.2916 41.0505 13.6979 41.1287 14.0494 41.2849C14.4049 41.4412 14.6823 41.6775 14.8815 41.9939C15.0846 42.3064 15.1862 42.699 15.1862 43.1716V46.1248C15.1862 46.3357 15.2037 46.5603 15.2389 46.7986C15.278 47.0369 15.3346 47.2419 15.4088 47.4138V47.5076H14.278C14.2233 47.3826 14.1803 47.2166 14.149 47.0095C14.1178 46.7986 14.1022 46.6033 14.1022 46.4236ZM14.2897 43.6638L14.3014 44.4255H13.2057C12.8971 44.4255 12.6217 44.4509 12.3795 44.5017C12.1373 44.5486 11.9342 44.6208 11.7701 44.7185C11.6061 44.8162 11.4811 44.9392 11.3951 45.0876C11.3092 45.2322 11.2662 45.4021 11.2662 45.5974C11.2662 45.7966 11.3112 45.9783 11.401 46.1423C11.4908 46.3064 11.6256 46.4373 11.8053 46.5349C11.9889 46.6287 12.2135 46.6755 12.4791 46.6755C12.8112 46.6755 13.1041 46.6052 13.358 46.4646C13.6119 46.324 13.8131 46.1521 13.9615 45.949C14.1139 45.7458 14.1959 45.5486 14.2076 45.3572L14.6705 45.8787C14.6432 46.0427 14.569 46.2244 14.4479 46.4236C14.3268 46.6228 14.1647 46.8142 13.9615 46.9978C13.7623 47.1775 13.524 47.3279 13.2467 47.449C12.9733 47.5662 12.6647 47.6248 12.3209 47.6248C11.8912 47.6248 11.5143 47.5408 11.1901 47.3728C10.8698 47.2048 10.6198 46.9802 10.4401 46.699C10.2643 46.4138 10.1764 46.0955 10.1764 45.7439C10.1764 45.4041 10.2428 45.1052 10.3756 44.8474C10.5084 44.5857 10.6998 44.3689 10.9498 44.197C11.1998 44.0212 11.5006 43.8884 11.8522 43.7986C12.2037 43.7087 12.5963 43.6638 13.0299 43.6638H14.2897ZM25.2057 46.5876V47.5076H20.9401V46.5876H25.2057ZM21.1627 38.9763V47.5076H20.0319V38.9763H21.1627ZM30.0748 46.4236V43.1599C30.0748 42.9099 30.024 42.6931 29.9225 42.5095C29.8248 42.322 29.6764 42.1775 29.4772 42.0759C29.278 41.9744 29.0319 41.9236 28.7389 41.9236C28.4655 41.9236 28.2252 41.9705 28.0182 42.0642C27.8151 42.158 27.6549 42.281 27.5377 42.4333C27.4244 42.5857 27.3678 42.7498 27.3678 42.9255H26.2838C26.2838 42.699 26.3424 42.4744 26.4596 42.2517C26.5768 42.0291 26.7448 41.8279 26.9635 41.6482C27.1862 41.4646 27.4518 41.3201 27.7604 41.2146C28.0729 41.1052 28.4205 41.0505 28.8033 41.0505C29.2643 41.0505 29.6705 41.1287 30.0221 41.2849C30.3776 41.4412 30.6549 41.6775 30.8541 41.9939C31.0573 42.3064 31.1588 42.699 31.1588 43.1716V46.1248C31.1588 46.3357 31.1764 46.5603 31.2115 46.7986C31.2506 47.0369 31.3073 47.2419 31.3815 47.4138V47.5076H30.2506C30.1959 47.3826 30.153 47.2166 30.1217 47.0095C30.0905 46.7986 30.0748 46.6033 30.0748 46.4236ZM30.2623 43.6638L30.274 44.4255H29.1783C28.8698 44.4255 28.5944 44.4509 28.3522 44.5017C28.11 44.5486 27.9069 44.6208 27.7428 44.7185C27.5787 44.8162 27.4537 44.9392 27.3678 45.0876C27.2819 45.2322 27.2389 45.4021 27.2389 45.5974C27.2389 45.7966 27.2838 45.9783 27.3737 46.1423C27.4635 46.3064 27.5983 46.4373 27.778 46.5349C27.9615 46.6287 28.1862 46.6755 28.4518 46.6755C28.7838 46.6755 29.0768 46.6052 29.3307 46.4646C29.5846 46.324 29.7858 46.1521 29.9342 45.949C30.0865 45.7458 30.1686 45.5486 30.1803 45.3572L30.6432 45.8787C30.6158 46.0427 30.5416 46.2244 30.4205 46.4236C30.2994 46.6228 30.1373 46.8142 29.9342 46.9978C29.735 47.1775 29.4967 47.3279 29.2194 47.449C28.9459 47.5662 28.6373 47.6248 28.2936 47.6248C27.8639 47.6248 27.4869 47.5408 27.1627 47.3728C26.8424 47.2048 26.5924 46.9802 26.4127 46.699C26.2369 46.4138 26.149 46.0955 26.149 45.7439C26.149 45.4041 26.2155 45.1052 26.3483 44.8474C26.4811 44.5857 26.6725 44.3689 26.9225 44.197C27.1725 44.0212 27.4733 43.8884 27.8248 43.7986C28.1764 43.7087 28.569 43.6638 29.0026 43.6638H30.2623ZM36.5553 45.8259C36.5553 45.6697 36.5201 45.5251 36.4498 45.3923C36.3834 45.2556 36.2448 45.1326 36.0338 45.0232C35.8268 44.9099 35.5143 44.8123 35.0963 44.7302C34.7448 44.656 34.4264 44.5681 34.1412 44.4666C33.86 44.365 33.6198 44.2419 33.4205 44.0974C33.2252 43.9529 33.0748 43.783 32.9694 43.5876C32.8639 43.3923 32.8112 43.1638 32.8112 42.9021C32.8112 42.6521 32.8658 42.4158 32.9752 42.1931C33.0885 41.9705 33.2467 41.7732 33.4498 41.6013C33.6569 41.4294 33.9049 41.2947 34.194 41.197C34.483 41.0994 34.8053 41.0505 35.1608 41.0505C35.6686 41.0505 36.1022 41.1404 36.4615 41.3201C36.8209 41.4998 37.0963 41.74 37.2877 42.0408C37.4791 42.3376 37.5748 42.6677 37.5748 43.031H36.4908C36.4908 42.8552 36.4381 42.6853 36.3326 42.5212C36.2311 42.3533 36.0807 42.2146 35.8815 42.1052C35.6862 41.9958 35.4459 41.9412 35.1608 41.9412C34.86 41.9412 34.6158 41.988 34.4283 42.0818C34.2448 42.1716 34.11 42.2869 34.024 42.4275C33.942 42.5681 33.901 42.7166 33.901 42.8728C33.901 42.99 33.9205 43.0955 33.9596 43.1892C34.0026 43.2791 34.0768 43.363 34.1823 43.4412C34.2877 43.5154 34.4362 43.5857 34.6276 43.6521C34.819 43.7185 35.0631 43.7849 35.36 43.8513C35.8795 43.9685 36.3073 44.1091 36.6432 44.2732C36.9791 44.4373 37.2291 44.6384 37.3932 44.8767C37.5573 45.115 37.6393 45.4041 37.6393 45.7439C37.6393 46.0212 37.5807 46.2751 37.4635 46.5056C37.3502 46.7361 37.1842 46.9353 36.9655 47.1033C36.7506 47.2673 36.4928 47.3962 36.192 47.49C35.8951 47.5798 35.5612 47.6248 35.1901 47.6248C34.6315 47.6248 34.1588 47.5251 33.7721 47.3259C33.3854 47.1267 33.0924 46.8689 32.8932 46.5525C32.694 46.2361 32.5944 45.9021 32.5944 45.5505H33.6842C33.6998 45.8474 33.7858 46.0837 33.942 46.2595C34.0983 46.4314 34.2897 46.5544 34.5162 46.6287C34.7428 46.699 34.9674 46.7341 35.1901 46.7341C35.4869 46.7341 35.735 46.6951 35.9342 46.6169C36.1373 46.5388 36.2916 46.4314 36.3971 46.2947C36.5026 46.158 36.5553 46.0017 36.5553 45.8259ZM45.3502 44.1619H43.0709V43.2419H45.3502C45.7916 43.2419 46.149 43.1716 46.4225 43.031C46.6959 42.8904 46.8951 42.6951 47.0201 42.4451C47.149 42.1951 47.2135 41.9099 47.2135 41.5896C47.2135 41.2966 47.149 41.0212 47.0201 40.7634C46.8951 40.5056 46.6959 40.2986 46.4225 40.1423C46.149 39.9822 45.7916 39.9021 45.3502 39.9021H43.3346V47.5076H42.2037V38.9763H45.3502C45.9948 38.9763 46.5397 39.0876 46.985 39.3103C47.4303 39.533 47.7682 39.8416 47.9987 40.2361C48.2291 40.6267 48.3444 41.074 48.3444 41.5779C48.3444 42.1248 48.2291 42.5916 47.9987 42.9783C47.7682 43.365 47.4303 43.6599 46.985 43.863C46.5397 44.0623 45.9948 44.1619 45.3502 44.1619ZM53.278 46.4236V43.1599C53.278 42.9099 53.2272 42.6931 53.1256 42.5095C53.028 42.322 52.8795 42.1775 52.6803 42.0759C52.4811 41.9744 52.235 41.9236 51.942 41.9236C51.6686 41.9236 51.4283 41.9705 51.2213 42.0642C51.0182 42.158 50.858 42.281 50.7408 42.4333C50.6276 42.5857 50.5709 42.7498 50.5709 42.9255H49.4869C49.4869 42.699 49.5455 42.4744 49.6627 42.2517C49.7799 42.0291 49.9479 41.8279 50.1666 41.6482C50.3893 41.4646 50.6549 41.3201 50.9635 41.2146C51.276 41.1052 51.6237 41.0505 52.0065 41.0505C52.4674 41.0505 52.8737 41.1287 53.2252 41.2849C53.5807 41.4412 53.858 41.6775 54.0573 41.9939C54.2604 42.3064 54.3619 42.699 54.3619 43.1716V46.1248C54.3619 46.3357 54.3795 46.5603 54.4147 46.7986C54.4537 47.0369 54.5104 47.2419 54.5846 47.4138V47.5076H53.4537C53.399 47.3826 53.3561 47.2166 53.3248 47.0095C53.2936 46.7986 53.278 46.6033 53.278 46.4236ZM53.4655 43.6638L53.4772 44.4255H52.3815C52.0729 44.4255 51.7975 44.4509 51.5553 44.5017C51.3131 44.5486 51.11 44.6208 50.9459 44.7185C50.7819 44.8162 50.6569 44.9392 50.5709 45.0876C50.485 45.2322 50.442 45.4021 50.442 45.5974C50.442 45.7966 50.4869 45.9783 50.5768 46.1423C50.6666 46.3064 50.8014 46.4373 50.9811 46.5349C51.1647 46.6287 51.3893 46.6755 51.6549 46.6755C51.9869 46.6755 52.2799 46.6052 52.5338 46.4646C52.7877 46.324 52.9889 46.1521 53.1373 45.949C53.2897 45.7458 53.3717 45.5486 53.3834 45.3572L53.8463 45.8787C53.819 46.0427 53.7448 46.2244 53.6237 46.4236C53.5026 46.6228 53.3405 46.8142 53.1373 46.9978C52.9381 47.1775 52.6998 47.3279 52.4225 47.449C52.149 47.5662 51.8405 47.6248 51.4967 47.6248C51.067 47.6248 50.6901 47.5408 50.3658 47.3728C50.0455 47.2048 49.7955 46.9802 49.6158 46.699C49.4401 46.4138 49.3522 46.0955 49.3522 45.7439C49.3522 45.4041 49.4186 45.1052 49.5514 44.8474C49.6842 44.5857 49.8756 44.3689 50.1256 44.197C50.3756 44.0212 50.6764 43.8884 51.028 43.7986C51.3795 43.7087 51.7721 43.6638 52.2057 43.6638H53.4655ZM57.151 42.1638V47.5076H56.067V41.1677H57.1217L57.151 42.1638ZM59.1315 41.1326L59.1256 42.1404C59.0358 42.1208 58.9498 42.1091 58.8678 42.1052C58.7897 42.0974 58.6998 42.0935 58.5983 42.0935C58.3483 42.0935 58.1276 42.1326 57.9362 42.2107C57.7448 42.2888 57.5826 42.3982 57.4498 42.5388C57.317 42.6794 57.2115 42.8474 57.1334 43.0427C57.0592 43.2341 57.0104 43.4451 56.9869 43.6755L56.6823 43.8513C56.6823 43.4685 56.7194 43.1091 56.7936 42.7732C56.8717 42.4373 56.9908 42.1404 57.151 41.8826C57.3112 41.6208 57.5143 41.4177 57.7604 41.2732C58.0104 41.1248 58.3073 41.0505 58.651 41.0505C58.7291 41.0505 58.819 41.0603 58.9205 41.0798C59.0221 41.0955 59.0924 41.113 59.1315 41.1326ZM59.7291 44.408V44.2732C59.7291 43.8162 59.7955 43.3923 59.9283 43.0017C60.0612 42.6072 60.2526 42.2654 60.5026 41.9763C60.7526 41.6833 61.0553 41.4568 61.4108 41.2966C61.7662 41.1326 62.1647 41.0505 62.6061 41.0505C63.0514 41.0505 63.4518 41.1326 63.8073 41.2966C64.1666 41.4568 64.4713 41.6833 64.7213 41.9763C64.9752 42.2654 65.1686 42.6072 65.3014 43.0017C65.4342 43.3923 65.5006 43.8162 65.5006 44.2732V44.408C65.5006 44.865 65.4342 45.2888 65.3014 45.6794C65.1686 46.0701 64.9752 46.4119 64.7213 46.7048C64.4713 46.9939 64.1686 47.2205 63.8131 47.3845C63.4615 47.5447 63.0631 47.6248 62.6178 47.6248C62.1725 47.6248 61.7721 47.5447 61.4166 47.3845C61.0612 47.2205 60.7565 46.9939 60.5026 46.7048C60.2526 46.4119 60.0612 46.0701 59.9283 45.6794C59.7955 45.2888 59.7291 44.865 59.7291 44.408ZM60.8131 44.2732V44.408C60.8131 44.7244 60.8502 45.0232 60.9244 45.3044C60.9987 45.5818 61.11 45.8279 61.2584 46.0427C61.4108 46.2576 61.6002 46.4275 61.8268 46.5525C62.0533 46.6736 62.317 46.7341 62.6178 46.7341C62.9147 46.7341 63.1744 46.6736 63.3971 46.5525C63.6237 46.4275 63.8112 46.2576 63.9596 46.0427C64.108 45.8279 64.2194 45.5818 64.2936 45.3044C64.3717 45.0232 64.4108 44.7244 64.4108 44.408V44.2732C64.4108 43.9607 64.3717 43.6658 64.2936 43.3884C64.2194 43.1072 64.1061 42.8591 63.9537 42.6443C63.8053 42.4255 63.6178 42.2537 63.3912 42.1287C63.1686 42.0037 62.9069 41.9412 62.6061 41.9412C62.3092 41.9412 62.0475 42.0037 61.8209 42.1287C61.5983 42.2537 61.4108 42.4255 61.2584 42.6443C61.11 42.8591 60.9987 43.1072 60.9244 43.3884C60.8502 43.6658 60.8131 43.9607 60.8131 44.2732ZM69.5143 41.1677V41.9998H66.0865V41.1677H69.5143ZM67.2467 39.6267H68.3307V45.9373C68.3307 46.1521 68.3639 46.3142 68.4303 46.4236C68.4967 46.533 68.5826 46.6052 68.6881 46.6404C68.7936 46.6755 68.9069 46.6931 69.028 46.6931C69.1178 46.6931 69.2115 46.6853 69.3092 46.6697C69.4108 46.6501 69.4869 46.6345 69.5377 46.6228L69.5436 47.5076C69.4576 47.5349 69.3444 47.5603 69.2037 47.5837C69.067 47.6111 68.901 47.6248 68.7057 47.6248C68.4401 47.6248 68.1959 47.572 67.9733 47.4666C67.7506 47.3611 67.5729 47.1853 67.4401 46.9392C67.3112 46.6892 67.2467 46.3533 67.2467 45.9314V39.6267ZM74.524 46.4236V43.1599C74.524 42.9099 74.4733 42.6931 74.3717 42.5095C74.274 42.322 74.1256 42.1775 73.9264 42.0759C73.7272 41.9744 73.4811 41.9236 73.1881 41.9236C72.9147 41.9236 72.6744 41.9705 72.4674 42.0642C72.2643 42.158 72.1041 42.281 71.9869 42.4333C71.8737 42.5857 71.817 42.7498 71.817 42.9255H70.733C70.733 42.699 70.7916 42.4744 70.9088 42.2517C71.026 42.0291 71.194 41.8279 71.4127 41.6482C71.6354 41.4646 71.901 41.3201 72.2096 41.2146C72.5221 41.1052 72.8698 41.0505 73.2526 41.0505C73.7135 41.0505 74.1198 41.1287 74.4713 41.2849C74.8268 41.4412 75.1041 41.6775 75.3033 41.9939C75.5065 42.3064 75.608 42.699 75.608 43.1716V46.1248C75.608 46.3357 75.6256 46.5603 75.6608 46.7986C75.6998 47.0369 75.7565 47.2419 75.8307 47.4138V47.5076H74.6998C74.6451 47.3826 74.6022 47.2166 74.5709 47.0095C74.5397 46.7986 74.524 46.6033 74.524 46.4236ZM74.7115 43.6638L74.7233 44.4255H73.6276C73.319 44.4255 73.0436 44.4509 72.8014 44.5017C72.5592 44.5486 72.3561 44.6208 72.192 44.7185C72.028 44.8162 71.903 44.9392 71.817 45.0876C71.7311 45.2322 71.6881 45.4021 71.6881 45.5974C71.6881 45.7966 71.733 45.9783 71.8229 46.1423C71.9127 46.3064 72.0475 46.4373 72.2272 46.5349C72.4108 46.6287 72.6354 46.6755 72.901 46.6755C73.233 46.6755 73.526 46.6052 73.7799 46.4646C74.0338 46.324 74.235 46.1521 74.3834 45.949C74.5358 45.7458 74.6178 45.5486 74.6295 45.3572L75.0924 45.8787C75.0651 46.0427 74.9908 46.2244 74.8698 46.4236C74.7487 46.6228 74.5865 46.8142 74.3834 46.9978C74.1842 47.1775 73.9459 47.3279 73.6686 47.449C73.3951 47.5662 73.0865 47.6248 72.7428 47.6248C72.3131 47.6248 71.9362 47.5408 71.6119 47.3728C71.2916 47.2048 71.0416 46.9802 70.8619 46.699C70.6862 46.4138 70.5983 46.0955 70.5983 45.7439C70.5983 45.4041 70.6647 45.1052 70.7975 44.8474C70.9303 44.5857 71.1217 44.3689 71.3717 44.197C71.6217 44.0212 71.9225 43.8884 72.274 43.7986C72.6256 43.7087 73.0182 43.6638 73.4518 43.6638H74.7115ZM81.0045 45.8259C81.0045 45.6697 80.9694 45.5251 80.899 45.3923C80.8326 45.2556 80.694 45.1326 80.483 45.0232C80.276 44.9099 79.9635 44.8123 79.5455 44.7302C79.194 44.656 78.8756 44.5681 78.5905 44.4666C78.3092 44.365 78.069 44.2419 77.8698 44.0974C77.6744 43.9529 77.524 43.783 77.4186 43.5876C77.3131 43.3923 77.2604 43.1638 77.2604 42.9021C77.2604 42.6521 77.3151 42.4158 77.4244 42.1931C77.5377 41.9705 77.6959 41.7732 77.899 41.6013C78.1061 41.4294 78.3541 41.2947 78.6432 41.197C78.9323 41.0994 79.2545 41.0505 79.61 41.0505C80.1178 41.0505 80.5514 41.1404 80.9108 41.3201C81.2701 41.4998 81.5455 41.74 81.7369 42.0408C81.9283 42.3376 82.024 42.6677 82.024 43.031H80.9401C80.9401 42.8552 80.8873 42.6853 80.7819 42.5212C80.6803 42.3533 80.5299 42.2146 80.3307 42.1052C80.1354 41.9958 79.8951 41.9412 79.61 41.9412C79.3092 41.9412 79.0651 41.988 78.8776 42.0818C78.694 42.1716 78.5592 42.2869 78.4733 42.4275C78.3912 42.5681 78.3502 42.7166 78.3502 42.8728C78.3502 42.99 78.3698 43.0955 78.4088 43.1892C78.4518 43.2791 78.526 43.363 78.6315 43.4412C78.7369 43.5154 78.8854 43.5857 79.0768 43.6521C79.2682 43.7185 79.5123 43.7849 79.8092 43.8513C80.3287 43.9685 80.7565 44.1091 81.0924 44.2732C81.4283 44.4373 81.6783 44.6384 81.8424 44.8767C82.0065 45.115 82.0885 45.4041 82.0885 45.7439C82.0885 46.0212 82.0299 46.2751 81.9127 46.5056C81.7994 46.7361 81.6334 46.9353 81.4147 47.1033C81.1998 47.2673 80.942 47.3962 80.6412 47.49C80.3444 47.5798 80.0104 47.6248 79.6393 47.6248C79.0807 47.6248 78.608 47.5251 78.2213 47.3259C77.8346 47.1267 77.5416 46.8689 77.3424 46.5525C77.1432 46.2361 77.0436 45.9021 77.0436 45.5505H78.1334C78.149 45.8474 78.235 46.0837 78.3912 46.2595C78.5475 46.4314 78.7389 46.5544 78.9655 46.6287C79.192 46.699 79.4166 46.7341 79.6393 46.7341C79.9362 46.7341 80.1842 46.6951 80.3834 46.6169C80.5865 46.5388 80.7408 46.4314 80.8463 46.2947C80.9518 46.158 81.0045 46.0017 81.0045 45.8259ZM87.0104 38.9763H88.1061L90.901 45.9314L93.6901 38.9763H94.7916L91.3229 47.5076H90.4674L87.0104 38.9763ZM86.653 38.9763H87.6198L87.778 44.1794V47.5076H86.653V38.9763ZM94.1764 38.9763H95.1432V47.5076H94.0182V44.1794L94.1764 38.9763ZM100.704 46.4236V43.1599C100.704 42.9099 100.653 42.6931 100.551 42.5095C100.454 42.322 100.305 42.1775 100.106 42.0759C99.9069 41.9744 99.6608 41.9236 99.3678 41.9236C99.0944 41.9236 98.8541 41.9705 98.6471 42.0642C98.444 42.158 98.2838 42.281 98.1666 42.4333C98.0533 42.5857 97.9967 42.7498 97.9967 42.9255H96.9127C96.9127 42.699 96.9713 42.4744 97.0885 42.2517C97.2057 42.0291 97.3737 41.8279 97.5924 41.6482C97.8151 41.4646 98.0807 41.3201 98.3893 41.2146C98.7018 41.1052 99.0494 41.0505 99.4323 41.0505C99.8932 41.0505 100.299 41.1287 100.651 41.2849C101.006 41.4412 101.284 41.6775 101.483 41.9939C101.686 42.3064 101.788 42.699 101.788 43.1716V46.1248C101.788 46.3357 101.805 46.5603 101.84 46.7986C101.88 47.0369 101.936 47.2419 102.01 47.4138V47.5076H100.88C100.825 47.3826 100.782 47.2166 100.751 47.0095C100.719 46.7986 100.704 46.6033 100.704 46.4236ZM100.891 43.6638L100.903 44.4255H99.8073C99.4987 44.4255 99.2233 44.4509 98.9811 44.5017C98.7389 44.5486 98.5358 44.6208 98.3717 44.7185C98.2076 44.8162 98.0826 44.9392 97.9967 45.0876C97.9108 45.2322 97.8678 45.4021 97.8678 45.5974C97.8678 45.7966 97.9127 45.9783 98.0026 46.1423C98.0924 46.3064 98.2272 46.4373 98.4069 46.5349C98.5905 46.6287 98.8151 46.6755 99.0807 46.6755C99.4127 46.6755 99.7057 46.6052 99.9596 46.4646C100.214 46.324 100.415 46.1521 100.563 45.949C100.715 45.7458 100.797 45.5486 100.809 45.3572L101.272 45.8787C101.245 46.0427 101.171 46.2244 101.049 46.4236C100.928 46.6228 100.766 46.8142 100.563 46.9978C100.364 47.1775 100.126 47.3279 99.8483 47.449C99.5748 47.5662 99.2662 47.6248 98.9225 47.6248C98.4928 47.6248 98.1158 47.5408 97.7916 47.3728C97.4713 47.2048 97.2213 46.9802 97.0416 46.699C96.8658 46.4138 96.778 46.0955 96.778 45.7439C96.778 45.4041 96.8444 45.1052 96.9772 44.8474C97.11 44.5857 97.3014 44.3689 97.5514 44.197C97.8014 44.0212 98.1022 43.8884 98.4537 43.7986C98.8053 43.7087 99.1979 43.6638 99.6315 43.6638H100.891ZM104.577 42.5212V47.5076H103.493V41.1677H104.518L104.577 42.5212ZM104.319 44.0974L103.868 44.0798C103.872 43.6462 103.936 43.2458 104.061 42.8787C104.186 42.5076 104.362 42.1853 104.589 41.9119C104.815 41.6384 105.085 41.4275 105.397 41.2791C105.714 41.1267 106.063 41.0505 106.446 41.0505C106.758 41.0505 107.04 41.0935 107.29 41.1794C107.54 41.2615 107.753 41.3943 107.928 41.5779C108.108 41.7615 108.245 41.9998 108.339 42.2927C108.432 42.5818 108.479 42.9353 108.479 43.3533V47.5076H107.389V43.3416C107.389 43.0095 107.34 42.7439 107.243 42.5447C107.145 42.3416 107.003 42.1951 106.815 42.1052C106.628 42.0115 106.397 41.9646 106.124 41.9646C105.854 41.9646 105.608 42.0212 105.385 42.1345C105.167 42.2478 104.977 42.4041 104.817 42.6033C104.661 42.8025 104.538 43.031 104.448 43.2888C104.362 43.5427 104.319 43.8123 104.319 44.0974ZM114.848 46.6169V47.5076H110.237V46.6169H114.848ZM114.678 41.9353L110.483 47.5076H109.821V46.7107L113.987 41.1677H114.678V41.9353ZM114.198 41.1677V42.0642H109.868V41.1677H114.198ZM119.817 46.4236V43.1599C119.817 42.9099 119.766 42.6931 119.665 42.5095C119.567 42.322 119.419 42.1775 119.219 42.0759C119.02 41.9744 118.774 41.9236 118.481 41.9236C118.208 41.9236 117.967 41.9705 117.76 42.0642C117.557 42.158 117.397 42.281 117.28 42.4333C117.167 42.5857 117.11 42.7498 117.11 42.9255H116.026C116.026 42.699 116.085 42.4744 116.202 42.2517C116.319 42.0291 116.487 41.8279 116.706 41.6482C116.928 41.4646 117.194 41.3201 117.503 41.2146C117.815 41.1052 118.163 41.0505 118.546 41.0505C119.006 41.0505 119.413 41.1287 119.764 41.2849C120.12 41.4412 120.397 41.6775 120.596 41.9939C120.799 42.3064 120.901 42.699 120.901 43.1716V46.1248C120.901 46.3357 120.919 46.5603 120.954 46.7986C120.993 47.0369 121.049 47.2419 121.124 47.4138V47.5076H119.993C119.938 47.3826 119.895 47.2166 119.864 47.0095C119.833 46.7986 119.817 46.6033 119.817 46.4236ZM120.005 43.6638L120.016 44.4255H118.921C118.612 44.4255 118.337 44.4509 118.094 44.5017C117.852 44.5486 117.649 44.6208 117.485 44.7185C117.321 44.8162 117.196 44.9392 117.11 45.0876C117.024 45.2322 116.981 45.4021 116.981 45.5974C116.981 45.7966 117.026 45.9783 117.116 46.1423C117.206 46.3064 117.34 46.4373 117.52 46.5349C117.704 46.6287 117.928 46.6755 118.194 46.6755C118.526 46.6755 118.819 46.6052 119.073 46.4646C119.327 46.324 119.528 46.1521 119.676 45.949C119.829 45.7458 119.911 45.5486 119.922 45.3572L120.385 45.8787C120.358 46.0427 120.284 46.2244 120.163 46.4236C120.042 46.6228 119.88 46.8142 119.676 46.9978C119.477 47.1775 119.239 47.3279 118.962 47.449C118.688 47.5662 118.38 47.6248 118.036 47.6248C117.606 47.6248 117.229 47.5408 116.905 47.3728C116.585 47.2048 116.335 46.9802 116.155 46.699C115.979 46.4138 115.891 46.0955 115.891 45.7439C115.891 45.4041 115.958 45.1052 116.09 44.8474C116.223 44.5857 116.415 44.3689 116.665 44.197C116.915 44.0212 117.215 43.8884 117.567 43.7986C117.919 43.7087 118.311 43.6638 118.745 43.6638H120.005ZM123.69 42.5212V47.5076H122.606V41.1677H123.631L123.69 42.5212ZM123.432 44.0974L122.981 44.0798C122.985 43.6462 123.049 43.2458 123.174 42.8787C123.299 42.5076 123.475 42.1853 123.702 41.9119C123.928 41.6384 124.198 41.4275 124.51 41.2791C124.827 41.1267 125.176 41.0505 125.559 41.0505C125.872 41.0505 126.153 41.0935 126.403 41.1794C126.653 41.2615 126.866 41.3943 127.042 41.5779C127.221 41.7615 127.358 41.9998 127.452 42.2927C127.546 42.5818 127.592 42.9353 127.592 43.3533V47.5076H126.503V43.3416C126.503 43.0095 126.454 42.7439 126.356 42.5447C126.258 42.3416 126.116 42.1951 125.928 42.1052C125.741 42.0115 125.51 41.9646 125.237 41.9646C124.967 41.9646 124.721 42.0212 124.499 42.1345C124.28 42.2478 124.09 42.4041 123.93 42.6033C123.774 42.8025 123.651 43.031 123.561 43.2888C123.475 43.5427 123.432 43.8123 123.432 44.0974ZM130.417 41.1677V47.5076H129.327V41.1677H130.417ZM129.245 39.4861C129.245 39.3103 129.297 39.1619 129.403 39.0408C129.512 38.9197 129.672 38.8591 129.883 38.8591C130.09 38.8591 130.249 38.9197 130.358 39.0408C130.471 39.1619 130.528 39.3103 130.528 39.4861C130.528 39.6541 130.471 39.7986 130.358 39.9197C130.249 40.0369 130.09 40.0955 129.883 40.0955C129.672 40.0955 129.512 40.0369 129.403 39.9197C129.297 39.7986 129.245 39.6541 129.245 39.4861ZM133.335 38.5076V47.5076H132.245V38.5076H133.335ZM136.253 38.5076V47.5076H135.163V38.5076H136.253ZM137.706 44.408V44.2732C137.706 43.8162 137.772 43.3923 137.905 43.0017C138.038 42.6072 138.229 42.2654 138.479 41.9763C138.729 41.6833 139.032 41.4568 139.387 41.2966C139.743 41.1326 140.141 41.0505 140.583 41.0505C141.028 41.0505 141.428 41.1326 141.784 41.2966C142.143 41.4568 142.448 41.6833 142.698 41.9763C142.952 42.2654 143.145 42.6072 143.278 43.0017C143.411 43.3923 143.477 43.8162 143.477 44.2732V44.408C143.477 44.865 143.411 45.2888 143.278 45.6794C143.145 46.0701 142.952 46.4119 142.698 46.7048C142.448 46.9939 142.145 47.2205 141.79 47.3845C141.438 47.5447 141.04 47.6248 140.594 47.6248C140.149 47.6248 139.749 47.5447 139.393 47.3845C139.038 47.2205 138.733 46.9939 138.479 46.7048C138.229 46.4119 138.038 46.0701 137.905 45.6794C137.772 45.2888 137.706 44.865 137.706 44.408ZM138.79 44.2732V44.408C138.79 44.7244 138.827 45.0232 138.901 45.3044C138.975 45.5818 139.087 45.8279 139.235 46.0427C139.387 46.2576 139.577 46.4275 139.803 46.5525C140.03 46.6736 140.294 46.7341 140.594 46.7341C140.891 46.7341 141.151 46.6736 141.374 46.5525C141.6 46.4275 141.788 46.2576 141.936 46.0427C142.085 45.8279 142.196 45.5818 142.27 45.3044C142.348 45.0232 142.387 44.7244 142.387 44.408V44.2732C142.387 43.9607 142.348 43.6658 142.27 43.3884C142.196 43.1072 142.083 42.8591 141.93 42.6443C141.782 42.4255 141.594 42.2537 141.368 42.1287C141.145 42.0037 140.883 41.9412 140.583 41.9412C140.286 41.9412 140.024 42.0037 139.797 42.1287C139.575 42.2537 139.387 42.4255 139.235 42.6443C139.087 42.8591 138.975 43.1072 138.901 43.3884C138.827 43.6658 138.79 43.9607 138.79 44.2732Z" fill="#4F1F26"/>
<rect x="9.53772" y="60.5076" width="54" height="19" rx="9.5" fill="#4F1F26"/>
<path d="M21.3658 67.1091V73.5076H20.2628V67.1091H21.3658ZM23.6818 69.7678V73.5076H22.6227V68.7527H23.6202L23.6818 69.7678ZM23.4928 70.9543L23.15 70.95C23.153 70.613 23.1998 70.304 23.2906 70.0227C23.3844 69.7415 23.5133 69.4998 23.6774 69.2976C23.8444 69.0955 24.0436 68.9402 24.275 68.8318C24.5065 68.7205 24.7643 68.6648 25.0485 68.6648C25.277 68.6648 25.4835 68.697 25.6681 68.7615C25.8556 68.823 26.0153 68.9241 26.1471 69.0647C26.2819 69.2053 26.3844 69.3884 26.4547 69.614C26.525 69.8367 26.5602 70.1106 26.5602 70.4358V73.5076H25.4967V70.4314C25.4967 70.2029 25.463 70.0227 25.3956 69.8909C25.3312 69.7561 25.236 69.6609 25.11 69.6052C24.9869 69.5466 24.8331 69.5173 24.6486 69.5173C24.4669 69.5173 24.3043 69.5554 24.1608 69.6316C24.0172 69.7078 23.8956 69.8118 23.796 69.9436C23.6993 70.0754 23.6246 70.2278 23.5719 70.4006C23.5192 70.5735 23.4928 70.7581 23.4928 70.9543ZM30.6866 68.7527H31.649V73.3757C31.649 73.8035 31.5582 74.1667 31.3766 74.4656C31.1949 74.7644 30.9415 74.9915 30.6163 75.1467C30.2911 75.3049 29.9147 75.384 29.4869 75.384C29.3053 75.384 29.1031 75.3577 28.8805 75.3049C28.6608 75.2522 28.4469 75.1672 28.2389 75.05C28.0338 74.9358 27.8624 74.7849 27.7247 74.5974L28.2213 73.9734C28.3912 74.1755 28.5787 74.3235 28.7838 74.4172C28.9889 74.511 29.2042 74.5579 29.4298 74.5579C29.673 74.5579 29.8795 74.5125 30.0494 74.4216C30.2223 74.3337 30.3556 74.2034 30.4493 74.0305C30.5431 73.8577 30.59 73.6467 30.59 73.3977V69.8293L30.6866 68.7527ZM27.4567 71.1829V71.0906C27.4567 70.7302 27.5006 70.4021 27.5885 70.1062C27.6764 69.8074 27.8024 69.551 27.9664 69.3372C28.1305 69.1204 28.3297 68.9548 28.5641 68.8406C28.7985 68.7234 29.0636 68.6648 29.3595 68.6648C29.6671 68.6648 29.9293 68.7205 30.1461 68.8318C30.3658 68.9431 30.549 69.1028 30.6954 69.3108C30.8419 69.5159 30.9562 69.762 31.0382 70.0491C31.1232 70.3333 31.1862 70.6497 31.2272 70.9983V71.2927C31.1891 71.6326 31.1246 71.9431 31.0338 72.2244C30.943 72.5056 30.8229 72.7488 30.6735 72.9539C30.524 73.1589 30.3395 73.3171 30.1198 73.4285C29.903 73.5398 29.6466 73.5955 29.3507 73.5955C29.0607 73.5955 28.7985 73.5354 28.5641 73.4153C28.3326 73.2952 28.1334 73.1267 27.9664 72.9099C27.8024 72.6931 27.6764 72.4382 27.5885 72.1453C27.5006 71.8494 27.4567 71.5286 27.4567 71.1829ZM28.5157 71.0906V71.1829C28.5157 71.3997 28.5363 71.6018 28.5773 71.7893C28.6212 71.9768 28.6871 72.1423 28.775 72.2859C28.8658 72.4265 28.9801 72.5378 29.1178 72.6199C29.2584 72.699 29.424 72.7385 29.6144 72.7385C29.8634 72.7385 30.067 72.6858 30.2252 72.5803C30.3864 72.4749 30.5094 72.3328 30.5944 72.1541C30.6823 71.9724 30.7438 71.7703 30.7789 71.5476V70.7522C30.7614 70.5793 30.7247 70.4182 30.6691 70.2688C30.6163 70.1194 30.5446 69.989 30.4537 69.8777C30.3629 69.7634 30.2487 69.6755 30.111 69.614C29.9733 69.5496 29.8107 69.5173 29.6232 69.5173C29.4327 69.5173 29.2672 69.5583 29.1266 69.6404C28.986 69.7224 28.8702 69.8352 28.7794 69.9788C28.6915 70.1223 28.6256 70.2893 28.5817 70.4797C28.5377 70.6702 28.5157 70.8738 28.5157 71.0906ZM33.8112 69.658V73.5076H32.7521V68.7527H33.7628L33.8112 69.658ZM35.2657 68.7219L35.257 69.7063C35.1925 69.6946 35.1222 69.6858 35.046 69.6799C34.9728 69.6741 34.8995 69.6711 34.8263 69.6711C34.6447 69.6711 34.485 69.6975 34.3473 69.7502C34.2096 69.8 34.0939 69.8733 34.0001 69.97C33.9093 70.0637 33.839 70.178 33.7892 70.3127C33.7394 70.4475 33.7101 70.5984 33.7013 70.7654L33.4596 70.783C33.4596 70.4841 33.4889 70.2073 33.5475 69.9524C33.6061 69.6975 33.694 69.4734 33.8112 69.28C33.9313 69.0867 34.0807 68.9358 34.2594 68.8274C34.441 68.719 34.6505 68.6648 34.8878 68.6648C34.9523 68.6648 35.0211 68.6707 35.0944 68.6824C35.1705 68.6941 35.2277 68.7073 35.2657 68.7219ZM37.9376 73.5955C37.5861 73.5955 37.2682 73.5383 36.984 73.4241C36.7028 73.3069 36.4625 73.1443 36.2633 72.9363C36.067 72.7283 35.9161 72.4836 35.8107 72.2024C35.7052 71.9211 35.6525 71.6179 35.6525 71.2927V71.1169C35.6525 70.7449 35.7067 70.408 35.8151 70.1062C35.9235 69.8044 36.0743 69.5466 36.2677 69.3328C36.4611 69.116 36.6896 68.9504 36.9532 68.8362C37.2169 68.7219 37.5026 68.6648 37.8102 68.6648C38.15 68.6648 38.4474 68.7219 38.7023 68.8362C38.9572 68.9504 39.1681 69.1116 39.3351 69.3196C39.505 69.5247 39.631 69.7693 39.713 70.0535C39.798 70.3376 39.8405 70.6511 39.8405 70.9939V71.4465H36.1666V70.6863H38.7946V70.6028C38.7887 70.4124 38.7506 70.2336 38.6803 70.0667C38.6129 69.8997 38.5089 69.7649 38.3683 69.6624C38.2277 69.5598 38.0402 69.5085 37.8058 69.5085C37.63 69.5085 37.4733 69.5466 37.3356 69.6228C37.2008 69.696 37.088 69.803 36.9972 69.9436C36.9064 70.0842 36.8361 70.2542 36.7863 70.4534C36.7394 70.6497 36.7159 70.8708 36.7159 71.1169V71.2927C36.7159 71.5007 36.7438 71.6941 36.7994 71.8728C36.858 72.0486 36.943 72.2024 37.0543 72.3342C37.1656 72.4661 37.3004 72.5701 37.4586 72.6462C37.6168 72.7195 37.797 72.7561 37.9991 72.7561C38.254 72.7561 38.4811 72.7048 38.6803 72.6023C38.8795 72.4998 39.0524 72.3547 39.1989 72.1672L39.757 72.7078C39.6544 72.8572 39.5211 73.0007 39.3571 73.1384C39.193 73.2732 38.9923 73.3831 38.755 73.468C38.5206 73.553 38.2482 73.5955 37.9376 73.5955ZM43.3341 72.22C43.3341 72.1145 43.3077 72.0193 43.255 71.9343C43.2023 71.8464 43.1012 71.7673 42.9518 71.697C42.8053 71.6267 42.5885 71.5623 42.3014 71.5037C42.0494 71.448 41.818 71.3821 41.6071 71.3059C41.399 71.2268 41.2203 71.1316 41.0709 71.0203C40.9215 70.9089 40.8058 70.7771 40.7238 70.6248C40.6417 70.4724 40.6007 70.2966 40.6007 70.0974C40.6007 69.9041 40.6432 69.7209 40.7281 69.5481C40.8131 69.3752 40.9347 69.2229 41.0929 69.0911C41.2511 68.9592 41.443 68.8552 41.6686 68.7791C41.8971 68.7029 42.152 68.6648 42.4332 68.6648C42.8317 68.6648 43.173 68.7322 43.4572 68.8669C43.7443 68.9988 43.964 69.179 44.1163 69.4075C44.2687 69.6331 44.3448 69.8879 44.3448 70.1721H43.2858C43.2858 70.0461 43.2535 69.929 43.1891 69.8206C43.1276 69.7092 43.0338 69.6199 42.9078 69.5525C42.7819 69.4822 42.6237 69.447 42.4332 69.447C42.2516 69.447 42.1007 69.4763 41.9806 69.5349C41.8634 69.5906 41.7755 69.6638 41.7169 69.7546C41.6613 69.8455 41.6334 69.9451 41.6334 70.0535C41.6334 70.1326 41.6481 70.2043 41.6774 70.2688C41.7096 70.3303 41.7623 70.3875 41.8356 70.4402C41.9088 70.49 42.0084 70.5369 42.1344 70.5808C42.2633 70.6248 42.4244 70.6672 42.6178 70.7083C42.9811 70.7844 43.2931 70.8826 43.5538 71.0027C43.8175 71.1199 44.0197 71.2722 44.1603 71.4597C44.3009 71.6443 44.3712 71.8787 44.3712 72.1628C44.3712 72.3738 44.3258 72.5671 44.235 72.7429C44.1471 72.9158 44.0182 73.0667 43.8483 73.1956C43.6783 73.3215 43.4747 73.4197 43.2374 73.49C43.0031 73.5603 42.7394 73.5955 42.4464 73.5955C42.0157 73.5955 41.651 73.5193 41.3522 73.3669C41.0533 73.2117 40.8263 73.0139 40.671 72.7737C40.5187 72.5305 40.4425 72.2786 40.4425 72.0178H41.4664C41.4781 72.2141 41.5323 72.3708 41.629 72.488C41.7286 72.6023 41.8517 72.6858 41.9982 72.7385C42.1476 72.7883 42.3014 72.8132 42.4596 72.8132C42.65 72.8132 42.8097 72.7883 42.9386 72.7385C43.0675 72.6858 43.1656 72.6155 43.233 72.5276C43.3004 72.4368 43.3341 72.3342 43.3341 72.22ZM47.9791 72.554V70.2864C47.9791 70.1165 47.9484 69.97 47.8868 69.8469C47.8253 69.7239 47.7316 69.6287 47.6056 69.5613C47.4825 69.4939 47.3273 69.4602 47.1398 69.4602C46.9669 69.4602 46.8175 69.4895 46.6915 69.5481C46.5656 69.6067 46.4674 69.6858 46.3971 69.7854C46.3268 69.885 46.2916 69.9978 46.2916 70.1238H45.2369C45.2369 69.9363 45.2823 69.7546 45.3732 69.5789C45.464 69.4031 45.5958 69.2463 45.7687 69.1086C45.9415 68.9709 46.1481 68.8625 46.3883 68.7834C46.6285 68.7043 46.8981 68.6648 47.1969 68.6648C47.5543 68.6648 47.8707 68.7249 48.1461 68.845C48.4244 68.9651 48.6427 69.1467 48.8009 69.3899C48.962 69.6301 49.0426 69.9319 49.0426 70.2952V72.4089C49.0426 72.6257 49.0573 72.8206 49.0865 72.9934C49.1188 73.1633 49.1642 73.3113 49.2228 73.4373V73.5076H48.1373C48.0875 73.3933 48.048 73.2483 48.0187 73.0725C47.9923 72.8938 47.9791 72.7209 47.9791 72.554ZM48.1329 70.616L48.1417 71.2708H47.3815C47.1852 71.2708 47.0123 71.2898 46.8629 71.3279C46.7135 71.363 46.589 71.4158 46.4894 71.4861C46.3898 71.5564 46.3151 71.6414 46.2653 71.741C46.2155 71.8406 46.1906 71.9534 46.1906 72.0793C46.1906 72.2053 46.2198 72.321 46.2784 72.4265C46.337 72.5291 46.422 72.6096 46.5333 72.6682C46.6476 72.7268 46.7853 72.7561 46.9464 72.7561C47.1632 72.7561 47.3522 72.7122 47.5133 72.6243C47.6774 72.5334 47.8063 72.4236 47.9 72.2947C47.9938 72.1628 48.0436 72.0383 48.0494 71.9211L48.3922 72.3914C48.3571 72.5115 48.297 72.6404 48.212 72.7781C48.1271 72.9158 48.0157 73.0476 47.8781 73.1736C47.7433 73.2966 47.5807 73.3977 47.3903 73.4768C47.2028 73.5559 46.986 73.5955 46.7399 73.5955C46.4293 73.5955 46.1525 73.5339 45.9093 73.4109C45.6661 73.2849 45.4757 73.1165 45.338 72.9055C45.2003 72.6917 45.1315 72.45 45.1315 72.1804C45.1315 71.9285 45.1783 71.7058 45.2721 71.5125C45.3688 71.3162 45.5094 71.1521 45.694 71.0203C45.8815 70.8884 46.11 70.7888 46.3795 70.7214C46.649 70.6511 46.9567 70.616 47.3024 70.616H48.1329ZM51.2135 69.658V73.5076H50.1544V68.7527H51.1652L51.2135 69.658ZM52.6681 68.7219L52.6593 69.7063C52.5948 69.6946 52.5245 69.6858 52.4484 69.6799C52.3751 69.6741 52.3019 69.6711 52.2286 69.6711C52.047 69.6711 51.8873 69.6975 51.7496 69.7502C51.6119 69.8 51.4962 69.8733 51.4025 69.97C51.3116 70.0637 51.2413 70.178 51.1915 70.3127C51.1417 70.4475 51.1124 70.5984 51.1036 70.7654L50.8619 70.783C50.8619 70.4841 50.8912 70.2073 50.9498 69.9524C51.0084 69.6975 51.0963 69.4734 51.2135 69.28C51.3336 69.0867 51.483 68.9358 51.6617 68.8274C51.8434 68.719 52.0529 68.6648 52.2902 68.6648C52.3546 68.6648 52.4235 68.6707 52.4967 68.6824C52.5729 68.6941 52.63 68.7073 52.6681 68.7219Z" fill="white"/>
<g clip-path="url(#clip0_6443_32111)">
<path d="M24.1023 105.935L19.1078 103.524C19.0635 103.502 19.012 103.502 18.9677 103.524L13.9733 105.935C13.9176 105.962 13.8822 106.018 13.8822 106.08V111.935C13.8822 111.997 13.9176 112.054 13.9733 112.08L18.9677 114.492C18.9898 114.502 19.0138 114.508 19.0378 114.508C19.0617 114.508 19.0857 114.502 19.1078 114.492L24.1023 112.08C24.1579 112.054 24.1933 111.997 24.1933 111.935V106.08C24.1933 106.018 24.1579 105.962 24.1023 105.935ZM19.0378 103.848L23.6616 106.08L22.3212 106.727C22.3127 106.72 22.3038 106.714 22.2939 106.71L17.7015 104.493L19.0378 103.848ZM17.3376 104.675L21.9547 106.904L21.0091 107.36L16.3939 105.132L17.3376 104.675ZM22.0627 107.209V108.897L21.1795 109.323V107.636L22.0627 107.209ZM23.8711 111.834L19.1989 114.09V108.592L20.3134 108.054C20.3935 108.015 20.4271 107.919 20.3884 107.839C20.3497 107.759 20.2534 107.725 20.1732 107.764L19.0378 108.312L18.591 108.096C18.5108 108.058 18.4145 108.091 18.3758 108.171C18.3371 108.251 18.3707 108.348 18.4509 108.386L18.8766 108.592V114.09L14.2045 111.834V106.337L17.7623 108.054C17.7849 108.065 17.8087 108.07 17.8322 108.07C17.8921 108.07 17.9496 108.037 17.9774 107.979C18.0161 107.899 17.9825 107.803 17.9024 107.764L14.414 106.08L16.0147 105.307L20.855 107.644C20.8557 107.645 20.8565 107.646 20.8572 107.647V109.58C20.8572 109.636 20.8857 109.687 20.9327 109.717C20.9587 109.733 20.9885 109.741 21.0183 109.741C21.0422 109.741 21.0662 109.736 21.0884 109.725L22.2939 109.143C22.3496 109.116 22.385 109.06 22.385 108.998V107.054L23.8711 106.337V111.834Z" fill="#4F1F26"/>
<path d="M15.5341 111.21L14.8012 110.856C14.721 110.817 14.6247 110.851 14.586 110.931C14.5473 111.011 14.5809 111.107 14.6611 111.146L15.394 111.5C15.4166 111.511 15.4404 111.516 15.4639 111.516C15.5238 111.516 15.5814 111.482 15.6091 111.425C15.6479 111.345 15.6143 111.248 15.5341 111.21Z" fill="#4F1F26"/>
<path d="M16.2087 110.77L14.8023 110.091C14.7221 110.053 14.6258 110.086 14.5871 110.166C14.5484 110.246 14.582 110.343 14.6622 110.381L16.0686 111.06C16.0912 111.071 16.1151 111.077 16.1386 111.077C16.1985 111.077 16.256 111.043 16.2838 110.985C16.3225 110.905 16.2889 110.809 16.2087 110.77Z" fill="#4F1F26"/>
</g>
<path d="M31.6183 110.121H29.9528V109.247H31.6183C31.9083 109.247 32.1427 109.2 32.3214 109.106C32.5001 109.012 32.6305 108.884 32.7125 108.719C32.7975 108.552 32.84 108.362 32.84 108.148C32.84 107.946 32.7975 107.757 32.7125 107.581C32.6305 107.403 32.5001 107.259 32.3214 107.151C32.1427 107.042 31.9083 106.988 31.6183 106.988H30.2911V112.508H29.1881V106.109H31.6183C32.1134 106.109 32.5338 106.197 32.8795 106.373C33.2281 106.546 33.4933 106.786 33.6749 107.094C33.8566 107.398 33.9474 107.747 33.9474 108.139C33.9474 108.552 33.8566 108.907 33.6749 109.203C33.4933 109.499 33.2281 109.726 32.8795 109.884C32.5338 110.042 32.1134 110.121 31.6183 110.121ZM37.4586 111.554V109.286C37.4586 109.116 37.4279 108.97 37.3663 108.847C37.3048 108.724 37.2111 108.629 37.0851 108.561C36.962 108.494 36.8068 108.46 36.6193 108.46C36.4464 108.46 36.297 108.49 36.171 108.548C36.045 108.607 35.9469 108.686 35.8766 108.785C35.8063 108.885 35.7711 108.998 35.7711 109.124H34.7164C34.7164 108.936 34.7618 108.755 34.8527 108.579C34.9435 108.403 35.0753 108.246 35.2482 108.109C35.421 107.971 35.6276 107.863 35.8678 107.783C36.108 107.704 36.3776 107.665 36.6764 107.665C37.0338 107.665 37.3502 107.725 37.6256 107.845C37.9039 107.965 38.1222 108.147 38.2804 108.39C38.4415 108.63 38.5221 108.932 38.5221 109.295V111.409C38.5221 111.626 38.5367 111.821 38.566 111.993C38.5983 112.163 38.6437 112.311 38.7023 112.437V112.508H37.6168C37.567 112.393 37.5275 112.248 37.4982 112.073C37.4718 111.894 37.4586 111.721 37.4586 111.554ZM37.6124 109.616L37.6212 110.271H36.861C36.6647 110.271 36.4918 110.29 36.3424 110.328C36.193 110.363 36.0685 110.416 35.9689 110.486C35.8693 110.556 35.7946 110.641 35.7448 110.741C35.6949 110.841 35.67 110.953 35.67 111.079C35.67 111.205 35.6993 111.321 35.7579 111.427C35.8165 111.529 35.9015 111.61 36.0128 111.668C36.1271 111.727 36.2648 111.756 36.4259 111.756C36.6427 111.756 36.8317 111.712 36.9928 111.624C37.1569 111.533 37.2858 111.424 37.3795 111.295C37.4733 111.163 37.5231 111.038 37.5289 110.921L37.8717 111.391C37.8365 111.511 37.7765 111.64 37.6915 111.778C37.6066 111.916 37.4952 112.048 37.3575 112.174C37.2228 112.297 37.0602 112.398 36.8698 112.477C36.6823 112.556 36.4655 112.595 36.2194 112.595C35.9088 112.595 35.632 112.534 35.3888 112.411C35.1456 112.285 34.9552 112.116 34.8175 111.906C34.6798 111.692 34.611 111.45 34.611 111.18C34.611 110.928 34.6578 110.706 34.7516 110.512C34.8483 110.316 34.9889 110.152 35.1735 110.02C35.361 109.888 35.5895 109.789 35.859 109.721C36.1285 109.651 36.4362 109.616 36.7819 109.616H37.6124ZM42.5255 114.336V108.698L42.6486 107.753H43.5934V114.336H42.5255ZM39.4362 110.178V110.086C39.4362 109.726 39.4772 109.398 39.5592 109.102C39.6412 108.803 39.7628 108.547 39.924 108.333C40.0851 108.119 40.2814 107.955 40.5128 107.841C40.7443 107.723 41.0109 107.665 41.3126 107.665C41.6056 107.665 41.8605 107.72 42.0773 107.832C42.297 107.943 42.4816 108.103 42.631 108.311C42.7833 108.516 42.9049 108.76 42.9957 109.045C43.0865 109.329 43.1525 109.645 43.1935 109.994V110.288C43.1554 110.628 43.0909 110.939 43.0001 111.22C42.9093 111.501 42.7877 111.744 42.6354 111.949C42.483 112.155 42.297 112.314 42.0773 112.428C41.8575 112.54 41.5997 112.595 41.3038 112.595C41.0079 112.595 40.7443 112.535 40.5128 112.415C40.2814 112.295 40.0851 112.127 39.924 111.91C39.7657 111.69 39.6442 111.434 39.5592 111.141C39.4772 110.845 39.4362 110.524 39.4362 110.178ZM40.4952 110.086V110.178C40.4952 110.395 40.5143 110.599 40.5524 110.789C40.5934 110.977 40.6578 111.144 40.7457 111.29C40.8336 111.434 40.9449 111.547 41.0797 111.629C41.2145 111.711 41.3771 111.752 41.5675 111.752C41.8165 111.752 42.0201 111.698 42.1783 111.589C42.3395 111.481 42.4625 111.336 42.5475 111.154C42.6354 110.969 42.6969 110.766 42.7321 110.543V109.748C42.7115 109.575 42.6749 109.414 42.6222 109.264C42.5695 109.112 42.4962 108.98 42.4025 108.869C42.3116 108.755 42.1974 108.667 42.0597 108.605C41.9249 108.541 41.7638 108.509 41.5763 108.509C41.3859 108.509 41.2218 108.55 41.0841 108.632C40.9464 108.714 40.8336 108.828 40.7457 108.974C40.6608 109.118 40.5978 109.285 40.5568 109.475C40.5157 109.666 40.4952 109.869 40.4952 110.086ZM47.588 111.387V107.753H48.6515V112.508H47.6495L47.588 111.387ZM47.7374 110.398L48.0934 110.389C48.0934 110.709 48.0582 111.003 47.9879 111.273C47.9176 111.539 47.8092 111.772 47.6627 111.971C47.5162 112.168 47.3287 112.322 47.1002 112.433C46.8717 112.541 46.5978 112.595 46.2784 112.595C46.047 112.595 45.8346 112.562 45.6412 112.494C45.4479 112.427 45.2809 112.323 45.1403 112.182C45.0026 112.042 44.8956 111.859 44.8195 111.633C44.7433 111.407 44.7052 111.138 44.7052 110.824V107.753H45.7643V110.833C45.7643 111.006 45.7848 111.151 45.8258 111.268C45.8668 111.383 45.9225 111.475 45.9928 111.545C46.0631 111.615 46.1451 111.665 46.2389 111.695C46.3326 111.724 46.4323 111.739 46.5377 111.739C46.8395 111.739 47.0768 111.68 47.2496 111.563C47.4254 111.443 47.5499 111.281 47.6232 111.079C47.6993 110.877 47.7374 110.65 47.7374 110.398ZM51.8331 112.595C51.4816 112.595 51.1637 112.538 50.8795 112.424C50.5983 112.307 50.358 112.144 50.1588 111.936C49.9625 111.728 49.8116 111.484 49.7062 111.202C49.6007 110.921 49.548 110.618 49.548 110.293V110.117C49.548 109.745 49.6022 109.408 49.7106 109.106C49.819 108.804 49.9698 108.547 50.1632 108.333C50.3566 108.116 50.5851 107.95 50.8488 107.836C51.1124 107.722 51.3981 107.665 51.7057 107.665C52.0455 107.665 52.3429 107.722 52.5978 107.836C52.8527 107.95 53.0636 108.112 53.2306 108.32C53.4005 108.525 53.5265 108.769 53.6085 109.053C53.6935 109.338 53.736 109.651 53.736 109.994V110.447H50.0621V109.686H52.6901V109.603C52.6842 109.412 52.6461 109.234 52.5758 109.067C52.5084 108.9 52.4044 108.765 52.2638 108.662C52.1232 108.56 51.9357 108.509 51.7013 108.509C51.5255 108.509 51.3688 108.547 51.2311 108.623C51.0963 108.696 50.9835 108.803 50.8927 108.944C50.8019 109.084 50.7316 109.254 50.6818 109.453C50.6349 109.65 50.6115 109.871 50.6115 110.117V110.293C50.6115 110.501 50.6393 110.694 50.6949 110.873C50.7535 111.049 50.8385 111.202 50.9498 111.334C51.0612 111.466 51.1959 111.57 51.3541 111.646C51.5123 111.719 51.6925 111.756 51.8947 111.756C52.1495 111.756 52.3766 111.705 52.5758 111.602C52.775 111.5 52.9479 111.355 53.0944 111.167L53.6525 111.708C53.5499 111.857 53.4166 112.001 53.2526 112.138C53.0885 112.273 52.8878 112.383 52.6505 112.468C52.4161 112.553 52.1437 112.595 51.8331 112.595ZM56.7418 107.753V108.526H54.0612V107.753H56.7418ZM54.8346 106.588H55.8937V111.194C55.8937 111.34 55.9142 111.453 55.9552 111.532C55.9991 111.608 56.0592 111.659 56.1354 111.686C56.2115 111.712 56.3009 111.725 56.4034 111.725C56.4767 111.725 56.547 111.721 56.6144 111.712C56.6818 111.703 56.736 111.695 56.777 111.686L56.7814 112.494C56.6935 112.521 56.5909 112.544 56.4738 112.565C56.3595 112.585 56.2277 112.595 56.0782 112.595C55.8351 112.595 55.6198 112.553 55.4323 112.468C55.2448 112.38 55.0983 112.238 54.9928 112.042C54.8873 111.845 54.8346 111.585 54.8346 111.26V106.588ZM59.6554 112.595C59.3038 112.595 58.986 112.538 58.7018 112.424C58.4205 112.307 58.1803 112.144 57.9811 111.936C57.7848 111.728 57.6339 111.484 57.5284 111.202C57.423 110.921 57.3702 110.618 57.3702 110.293V110.117C57.3702 109.745 57.4244 109.408 57.5328 109.106C57.6412 108.804 57.7921 108.547 57.9855 108.333C58.1788 108.116 58.4073 107.95 58.671 107.836C58.9347 107.722 59.2203 107.665 59.528 107.665C59.8678 107.665 60.1652 107.722 60.42 107.836C60.6749 107.95 60.8859 108.112 61.0529 108.32C61.2228 108.525 61.3488 108.769 61.4308 109.053C61.5157 109.338 61.5582 109.651 61.5582 109.994V110.447H57.8844V109.686H60.5123V109.603C60.5065 109.412 60.4684 109.234 60.3981 109.067C60.3307 108.9 60.2267 108.765 60.0861 108.662C59.9454 108.56 59.7579 108.509 59.5236 108.509C59.3478 108.509 59.191 108.547 59.0533 108.623C58.9186 108.696 58.8058 108.803 58.715 108.944C58.6241 109.084 58.5538 109.254 58.504 109.453C58.4572 109.65 58.4337 109.871 58.4337 110.117V110.293C58.4337 110.501 58.4615 110.694 58.5172 110.873C58.5758 111.049 58.6608 111.202 58.7721 111.334C58.8834 111.466 59.0182 111.57 59.1764 111.646C59.3346 111.719 59.5148 111.756 59.7169 111.756C59.9718 111.756 60.1989 111.705 60.3981 111.602C60.5973 111.5 60.7701 111.355 60.9166 111.167L61.4747 111.708C61.3722 111.857 61.2389 112.001 61.0748 112.138C60.9108 112.273 60.7101 112.383 60.4728 112.468C60.2384 112.553 59.9659 112.595 59.6554 112.595ZM63.4479 108.658V112.508H62.3888V107.753H63.3995L63.4479 108.658ZM64.9025 107.722L64.8937 108.706C64.8292 108.695 64.7589 108.686 64.6827 108.68C64.6095 108.674 64.5363 108.671 64.463 108.671C64.2814 108.671 64.1217 108.698 63.984 108.75C63.8463 108.8 63.7306 108.873 63.6368 108.97C63.546 109.064 63.4757 109.178 63.4259 109.313C63.3761 109.448 63.3468 109.598 63.338 109.765L63.0963 109.783C63.0963 109.484 63.1256 109.207 63.1842 108.952C63.2428 108.698 63.3307 108.473 63.4479 108.28C63.568 108.087 63.7174 107.936 63.8961 107.827C64.0778 107.719 64.2872 107.665 64.5245 107.665C64.589 107.665 64.6578 107.671 64.7311 107.682C64.8073 107.694 64.8644 107.707 64.9025 107.722ZM66.713 107.753V112.508H65.6539V107.753H66.713ZM65.6627 107.12L66.5197 105.797H67.715L66.5197 107.12H65.6627ZM70.6022 111.554V109.286C70.6022 109.116 70.5714 108.97 70.5099 108.847C70.4484 108.724 70.3546 108.629 70.2286 108.561C70.1056 108.494 69.9503 108.46 69.7628 108.46C69.59 108.46 69.4406 108.49 69.3146 108.548C69.1886 108.607 69.0905 108.686 69.0201 108.785C68.9498 108.885 68.9147 108.998 68.9147 109.124H67.86C67.86 108.936 67.9054 108.755 67.9962 108.579C68.087 108.403 68.2189 108.246 68.3917 108.109C68.5646 107.971 68.7711 107.863 69.0114 107.783C69.2516 107.704 69.5211 107.665 69.8199 107.665C70.1774 107.665 70.4938 107.725 70.7692 107.845C71.0475 107.965 71.2657 108.147 71.424 108.39C71.5851 108.63 71.6656 108.932 71.6656 109.295V111.409C71.6656 111.626 71.6803 111.821 71.7096 111.993C71.7418 112.163 71.7872 112.311 71.8458 112.437V112.508H70.7604C70.7106 112.393 70.671 112.248 70.6417 112.073C70.6154 111.894 70.6022 111.721 70.6022 111.554ZM70.756 109.616L70.7648 110.271H70.0045C69.8082 110.271 69.6354 110.29 69.486 110.328C69.3365 110.363 69.212 110.416 69.1124 110.486C69.0128 110.556 68.9381 110.641 68.8883 110.741C68.8385 110.841 68.8136 110.953 68.8136 111.079C68.8136 111.205 68.8429 111.321 68.9015 111.427C68.9601 111.529 69.045 111.61 69.1564 111.668C69.2706 111.727 69.4083 111.756 69.5695 111.756C69.7863 111.756 69.9752 111.712 70.1364 111.624C70.3004 111.533 70.4293 111.424 70.5231 111.295C70.6168 111.163 70.6666 111.038 70.6725 110.921L71.0153 111.391C70.9801 111.511 70.92 111.64 70.8351 111.778C70.7501 111.916 70.6388 112.048 70.5011 112.174C70.3663 112.297 70.2037 112.398 70.0133 112.477C69.8258 112.556 69.609 112.595 69.3629 112.595C69.0524 112.595 68.7755 112.534 68.5323 112.411C68.2892 112.285 68.0988 112.116 67.9611 111.906C67.8234 111.692 67.7545 111.45 67.7545 111.18C67.7545 110.928 67.8014 110.706 67.8951 110.512C67.9918 110.316 68.1324 110.152 68.317 110.02C68.5045 109.888 68.733 109.789 69.0026 109.721C69.2721 109.651 69.5797 109.616 69.9254 109.616H70.756Z" fill="#4F1F26"/>
<path fill-rule="evenodd" clip-rule="evenodd" d="M138.709 112.698C138.509 112.698 138.347 112.536 138.347 112.336L138.347 105.678C138.347 105.479 138.509 105.317 138.709 105.317L142.906 105.317C143.106 105.317 143.268 105.479 143.268 105.678L143.268 106.836C143.268 106.956 143.365 107.053 143.485 107.053C143.605 107.053 143.702 106.956 143.702 106.836L143.702 105.678C143.702 105.239 143.346 104.882 142.906 104.882L138.709 104.882C138.269 104.882 137.913 105.239 137.913 105.678L137.913 112.336C137.913 112.776 138.269 113.132 138.709 113.132L142.906 113.132C143.346 113.132 143.702 112.776 143.702 112.336L143.702 111.178C143.702 111.058 143.605 110.961 143.485 110.961C143.365 110.961 143.268 111.058 143.268 111.178L143.268 112.336C143.268 112.536 143.106 112.698 142.906 112.698L138.709 112.698ZM146.099 108.854L144.717 107.472C144.633 107.387 144.495 107.387 144.41 107.472C144.326 107.557 144.326 107.694 144.41 107.779L145.421 108.79L140.88 108.79C140.76 108.79 140.663 108.888 140.663 109.007C140.663 109.127 140.76 109.225 140.88 109.225L145.421 109.225L144.41 110.236C144.326 110.32 144.326 110.458 144.41 110.543C144.495 110.627 144.633 110.627 144.717 110.543L146.099 109.161C146.184 109.076 146.184 108.939 146.099 108.854Z" fill="#4F1F26"/>
<path d="M155.554 110.86C155.554 110.728 155.534 110.611 155.493 110.508C155.455 110.406 155.386 110.312 155.286 110.227C155.187 110.142 155.046 110.06 154.864 109.981C154.686 109.899 154.457 109.815 154.179 109.73C153.874 109.636 153.593 109.532 153.335 109.418C153.08 109.301 152.858 109.166 152.667 109.014C152.477 108.859 152.329 108.681 152.223 108.482C152.118 108.28 152.065 108.047 152.065 107.783C152.065 107.523 152.119 107.285 152.228 107.072C152.339 106.858 152.496 106.673 152.698 106.518C152.903 106.36 153.145 106.238 153.423 106.153C153.701 106.065 154.009 106.021 154.346 106.021C154.82 106.021 155.229 106.109 155.572 106.285C155.918 106.461 156.183 106.697 156.367 106.992C156.555 107.288 156.649 107.615 156.649 107.972H155.554C155.554 107.761 155.509 107.575 155.418 107.414C155.33 107.25 155.195 107.121 155.014 107.028C154.835 106.934 154.608 106.887 154.333 106.887C154.072 106.887 153.855 106.927 153.682 107.006C153.509 107.085 153.38 107.192 153.296 107.326C153.211 107.461 153.168 107.614 153.168 107.783C153.168 107.904 153.196 108.013 153.252 108.113C153.307 108.21 153.392 108.301 153.506 108.385C153.621 108.468 153.764 108.545 153.937 108.618C154.11 108.692 154.314 108.762 154.548 108.829C154.902 108.935 155.212 109.052 155.475 109.181C155.739 109.307 155.959 109.45 156.134 109.612C156.31 109.773 156.442 109.956 156.53 110.161C156.618 110.363 156.662 110.593 156.662 110.851C156.662 111.12 156.608 111.364 156.499 111.58C156.391 111.794 156.235 111.977 156.033 112.13C155.834 112.279 155.594 112.395 155.313 112.477C155.034 112.556 154.724 112.595 154.381 112.595C154.073 112.595 153.77 112.554 153.471 112.472C153.175 112.39 152.906 112.266 152.663 112.099C152.42 111.929 152.226 111.718 152.083 111.466C151.939 111.211 151.867 110.914 151.867 110.574H152.97C152.97 110.782 153.005 110.959 153.076 111.106C153.149 111.252 153.25 111.372 153.379 111.466C153.508 111.557 153.657 111.624 153.827 111.668C154 111.712 154.185 111.734 154.381 111.734C154.639 111.734 154.854 111.698 155.027 111.624C155.203 111.551 155.335 111.448 155.422 111.317C155.51 111.185 155.554 111.032 155.554 110.86ZM160.213 111.554V109.286C160.213 109.116 160.182 108.97 160.12 108.847C160.059 108.724 159.965 108.629 159.839 108.561C159.716 108.494 159.561 108.46 159.373 108.46C159.2 108.46 159.051 108.49 158.925 108.548C158.799 108.607 158.701 108.686 158.63 108.785C158.56 108.885 158.525 108.998 158.525 109.124H157.47C157.47 108.936 157.516 108.755 157.607 108.579C157.697 108.403 157.829 108.246 158.002 108.109C158.175 107.971 158.381 107.863 158.622 107.783C158.862 107.704 159.131 107.665 159.43 107.665C159.788 107.665 160.104 107.725 160.38 107.845C160.658 107.965 160.876 108.147 161.034 108.39C161.195 108.63 161.276 108.932 161.276 109.295V111.409C161.276 111.626 161.291 111.821 161.32 111.993C161.352 112.163 161.398 112.311 161.456 112.437V112.508H160.371C160.321 112.393 160.281 112.248 160.252 112.073C160.226 111.894 160.213 111.721 160.213 111.554ZM160.366 109.616L160.375 110.271H159.615C159.419 110.271 159.246 110.29 159.096 110.328C158.947 110.363 158.822 110.416 158.723 110.486C158.623 110.556 158.548 110.641 158.499 110.741C158.449 110.841 158.424 110.953 158.424 111.079C158.424 111.205 158.453 111.321 158.512 111.427C158.57 111.529 158.655 111.61 158.767 111.668C158.881 111.727 159.019 111.756 159.18 111.756C159.397 111.756 159.586 111.712 159.747 111.624C159.911 111.533 160.04 111.424 160.133 111.295C160.227 111.163 160.277 111.038 160.283 110.921L160.626 111.391C160.59 111.511 160.53 111.64 160.445 111.778C160.36 111.916 160.249 112.048 160.111 112.174C159.977 112.297 159.814 112.398 159.624 112.477C159.436 112.556 159.219 112.595 158.973 112.595C158.663 112.595 158.386 112.534 158.143 112.411C157.9 112.285 157.709 112.116 157.571 111.906C157.434 111.692 157.365 111.45 157.365 111.18C157.365 110.928 157.412 110.706 157.505 110.512C157.602 110.316 157.743 110.152 157.927 110.02C158.115 109.888 158.343 109.789 158.613 109.721C158.882 109.651 159.19 109.616 159.536 109.616H160.366ZM163.517 105.758V112.508H162.454V105.758H163.517ZM165.811 107.753V112.508H164.748V107.753H165.811ZM164.677 106.505C164.677 106.344 164.73 106.21 164.836 106.105C164.944 105.996 165.093 105.942 165.284 105.942C165.471 105.942 165.619 105.996 165.728 106.105C165.836 106.21 165.89 106.344 165.89 106.505C165.89 106.663 165.836 106.795 165.728 106.9C165.619 107.006 165.471 107.058 165.284 107.058C165.093 107.058 164.944 107.006 164.836 106.9C164.73 106.795 164.677 106.663 164.677 106.505ZM168.035 108.658V112.508H166.976V107.753H167.986L168.035 108.658ZM169.489 107.722L169.481 108.706C169.416 108.695 169.346 108.686 169.27 108.68C169.196 108.674 169.123 108.671 169.05 108.671C168.868 108.671 168.709 108.698 168.571 108.75C168.433 108.8 168.318 108.873 168.224 108.97C168.133 109.064 168.063 109.178 168.013 109.313C167.963 109.448 167.934 109.598 167.925 109.765L167.683 109.783C167.683 109.484 167.713 109.207 167.771 108.952C167.83 108.698 167.918 108.473 168.035 108.28C168.155 108.087 168.304 107.936 168.483 107.827C168.665 107.719 168.874 107.665 169.111 107.665C169.176 107.665 169.245 107.671 169.318 107.682C169.394 107.694 169.451 107.707 169.489 107.722Z" fill="#4F1F26"/>
<rect x="1" y="1" width="182" height="122" rx="7" stroke="#676F7D" stroke-width="2"/>
<defs>
<clipPath id="clip0_6443_32111">
<rect width="11" height="11" fill="white" transform="translate(13.5377 103.508)"/>
</clipPath>
</defs>
</svg>
