<svg width="184" height="124" viewBox="0 0 184 124" fill="none" xmlns="http://www.w3.org/2000/svg">
<rect x="1" y="1" width="182" height="122" rx="7" fill="#FCFBFC"/>
<g clip-path="url(#clip0_6454_32562)">
<path fill-rule="evenodd" clip-rule="evenodd" d="M41.4133 112.161C41.5941 113.225 41.4263 114.319 40.935 115.28C40.4438 116.241 39.6555 117.016 38.688 117.491C37.7205 117.966 36.6257 118.114 35.5672 117.913C34.5087 117.713 33.5434 117.174 32.8155 116.379C32.0876 115.583 31.6363 114.573 31.5289 113.498C31.4215 112.424 31.6639 111.344 32.2198 110.42C32.7757 109.495 33.6152 108.776 34.613 108.369C35.6108 107.962 36.7132 107.89 37.7554 108.162C37.4293 109.413 35.309 110.082 35.309 110.082C34.6804 110.339 34.1515 110.792 33.8013 111.375C33.451 111.957 33.2983 112.637 33.366 113.314C33.4336 113.991 33.718 114.627 34.1766 115.129C34.6351 115.63 35.2433 115.969 35.9101 116.095C36.577 116.222 37.2667 116.128 37.8762 115.829C38.4858 115.53 38.9824 115.042 39.2919 114.437C39.2919 114.437 40.1142 112.383 41.4133 112.161Z" fill="#444E5E"/>
<path d="M40.1884 109.639C39.7913 109.201 39.3202 108.837 38.7975 108.565C38.6678 108.497 38.5104 108.557 38.45 108.69L38.3241 108.967C38.0319 109.611 38.3466 110.359 38.8215 110.883C39.2963 111.407 40.0104 111.792 40.6791 111.562L40.9653 111.464C41.1028 111.416 41.1767 111.266 41.1225 111.131C40.902 110.583 40.5859 110.078 40.1884 109.639Z" fill="#FBCF15"/>
<path d="M35.5699 113C35.5699 113.514 35.9829 113.926 36.494 113.926C37.001 113.926 37.4181 113.514 37.4181 113C37.4181 112.49 37.001 112.074 36.494 112.074C35.9829 112.074 35.5699 112.49 35.5699 113Z" fill="#FBCF15"/>
<rect x="35.4031" y="111.909" width="2.15693" height="2.16182" rx="1.07846" fill="#FBCF15"/>
<path d="M50.7244 115.809V108.042C49.5261 108.042 48.8478 109.008 48.8478 110.211V114.672L45.0928 108.987C44.6951 108.384 44.041 107.843 43.3496 108.042C42.5926 108.259 42.5926 109.061 42.5926 110.191V117.957C42.9542 117.957 43.2684 117.871 43.5309 117.718C44.1385 117.364 44.4692 116.649 44.4692 115.809L44.4408 111.328L48.2239 117.019C48.6219 117.618 49.2735 118.154 49.9631 117.959C50.7244 117.744 50.7244 116.941 50.7244 115.809Z" fill="#444E5E"/>
<path d="M17.8279 115.816V108C16.8075 108 15.9797 108.991 15.9797 110.214V118C17.0001 118 17.8279 117.044 17.8279 115.816Z" fill="#444E5E"/>
<path d="M30.0386 115.816V108C29.011 108 28.1773 108.991 28.1773 110.214V118C29.2049 118 30.0386 117.044 30.0386 115.816Z" fill="#444E5E"/>
<path d="M11.6622 109.551L10.805 111.106L9.96535 109.583C9.25289 108.291 7.97374 107.668 7.10876 108.191L9.76055 113L7.10876 117.809C7.97374 118.332 9.25289 117.709 9.96535 116.417L10.805 114.894L11.6622 116.449C12.3775 117.746 13.6363 118.332 14.5012 117.809L11.8495 113L14.5012 108.191C13.6363 107.668 12.3775 108.254 11.6622 109.551Z" fill="#444E5E"/>
<path d="M19.676 110.184C19.676 108.956 20.5238 108 21.569 108V116.125L26.6988 116.125C26.6988 117.16 25.6585 118 24.3749 118H19.676V110.184Z" fill="#444E5E"/>
</g>
<rect width="100" height="36" transform="translate(42 8)" fill="white"/>
<path d="M46.1568 21.104C45.8881 21.104 45.6801 21.0303 45.5328 20.883C45.3941 20.727 45.3248 20.5147 45.3248 20.246V13.226H42.7898C42.5644 13.226 42.3868 13.1653 42.2568 13.044C42.1354 12.914 42.0748 12.7407 42.0748 12.524C42.0748 12.2987 42.1354 12.1297 42.2568 12.017C42.3868 11.8957 42.5644 11.835 42.7898 11.835H49.5238C49.7491 11.835 49.9224 11.8957 50.0438 12.017C50.1738 12.1297 50.2388 12.2987 50.2388 12.524C50.2388 12.7407 50.1738 12.914 50.0438 13.044C49.9224 13.1653 49.7491 13.226 49.5238 13.226H46.9888V20.246C46.9888 20.5147 46.9194 20.727 46.7808 20.883C46.6421 21.0303 46.4341 21.104 46.1568 21.104ZM52.9164 21.13C52.2577 21.13 51.6857 20.9957 51.2004 20.727C50.715 20.4583 50.338 20.077 50.0694 19.583C49.8007 19.0803 49.6664 18.491 49.6664 17.815C49.6664 17.3037 49.74 16.8487 49.8874 16.45C50.0434 16.0427 50.2644 15.696 50.5504 15.41C50.8364 15.1153 51.1787 14.8943 51.5774 14.747C51.976 14.591 52.4224 14.513 52.9164 14.513C53.575 14.513 54.147 14.6473 54.6324 14.916C55.1177 15.1847 55.4947 15.566 55.7634 16.06C56.032 16.554 56.1664 17.139 56.1664 17.815C56.1664 18.3263 56.0884 18.7857 55.9324 19.193C55.785 19.6003 55.5684 19.9513 55.2824 20.246C54.9964 20.532 54.654 20.753 54.2554 20.909C53.8567 21.0563 53.4104 21.13 52.9164 21.13ZM52.9164 19.895C53.237 19.895 53.5187 19.817 53.7614 19.661C54.004 19.505 54.1904 19.2753 54.3204 18.972C54.459 18.66 54.5284 18.2743 54.5284 17.815C54.5284 17.1217 54.381 16.606 54.0864 16.268C53.7917 15.9213 53.4017 15.748 52.9164 15.748C52.5957 15.748 52.314 15.826 52.0714 15.982C51.8287 16.1293 51.638 16.359 51.4994 16.671C51.3694 16.9743 51.3044 17.3557 51.3044 17.815C51.3044 18.4997 51.4517 19.0197 51.7464 19.375C52.041 19.7217 52.431 19.895 52.9164 19.895ZM58.3396 21.104C58.0796 21.104 57.8803 21.0347 57.7416 20.896C57.6029 20.7487 57.5336 20.5407 57.5336 20.272V15.358C57.5336 15.0893 57.6029 14.8857 57.7416 14.747C57.8803 14.6083 58.0753 14.539 58.3266 14.539C58.5779 14.539 58.7729 14.6083 58.9116 14.747C59.0503 14.8857 59.1196 15.0893 59.1196 15.358V16.307L58.9766 15.917C59.1499 15.4837 59.4186 15.1413 59.7826 14.89C60.1466 14.6387 60.5799 14.513 61.0826 14.513C61.5939 14.513 62.0143 14.6343 62.3436 14.877C62.6729 15.1197 62.9026 15.4923 63.0326 15.995H62.8506C63.0239 15.5357 63.3099 15.176 63.7086 14.916C64.1073 14.6473 64.5666 14.513 65.0866 14.513C65.5719 14.513 65.9706 14.6083 66.2826 14.799C66.6033 14.9897 66.8416 15.28 66.9976 15.67C67.1536 16.0513 67.2316 16.5367 67.2316 17.126V20.272C67.2316 20.5407 67.1579 20.7487 67.0106 20.896C66.8719 21.0347 66.6726 21.104 66.4126 21.104C66.1526 21.104 65.9533 21.0347 65.8146 20.896C65.6759 20.7487 65.6066 20.5407 65.6066 20.272V17.191C65.6066 16.7057 65.5243 16.3503 65.3596 16.125C65.2036 15.8997 64.9349 15.787 64.5536 15.787C64.1289 15.787 63.7953 15.9387 63.5526 16.242C63.3099 16.5367 63.1886 16.9483 63.1886 17.477V20.272C63.1886 20.5407 63.1193 20.7487 62.9806 20.896C62.8419 21.0347 62.6426 21.104 62.3826 21.104C62.1226 21.104 61.9189 21.0347 61.7716 20.896C61.6329 20.7487 61.5636 20.5407 61.5636 20.272V17.191C61.5636 16.7057 61.4813 16.3503 61.3166 16.125C61.1606 15.8997 60.8963 15.787 60.5236 15.787C60.0989 15.787 59.7653 15.9387 59.5226 16.242C59.2799 16.5367 59.1586 16.9483 59.1586 17.477V20.272C59.1586 20.8267 58.8856 21.104 58.3396 21.104ZM71.001 21.13C70.5417 21.13 70.13 21.0433 69.766 20.87C69.4107 20.688 69.129 20.4453 68.921 20.142C68.7217 19.8387 68.622 19.4963 68.622 19.115C68.622 18.647 68.7433 18.2787 68.986 18.01C69.2287 17.7327 69.623 17.5333 70.169 17.412C70.715 17.2907 71.4473 17.23 72.366 17.23H73.016V18.166H72.379C71.8417 18.166 71.4127 18.192 71.092 18.244C70.7713 18.296 70.5417 18.387 70.403 18.517C70.273 18.6383 70.208 18.8117 70.208 19.037C70.208 19.323 70.3077 19.557 70.507 19.739C70.7063 19.921 70.9837 20.012 71.339 20.012C71.625 20.012 71.8763 19.947 72.093 19.817C72.3183 19.6783 72.496 19.492 72.626 19.258C72.756 19.024 72.821 18.7553 72.821 18.452V16.957C72.821 16.5237 72.7257 16.2117 72.535 16.021C72.3443 15.8303 72.0237 15.735 71.573 15.735C71.3217 15.735 71.0487 15.7653 70.754 15.826C70.468 15.8867 70.1647 15.9907 69.844 16.138C69.6793 16.216 69.532 16.2377 69.402 16.203C69.2807 16.1683 69.1853 16.099 69.116 15.995C69.0467 15.8823 69.012 15.761 69.012 15.631C69.012 15.501 69.0467 15.3753 69.116 15.254C69.1853 15.124 69.3023 15.0287 69.467 14.968C69.8657 14.8033 70.247 14.6863 70.611 14.617C70.9837 14.5477 71.3217 14.513 71.625 14.513C72.249 14.513 72.7603 14.6083 73.159 14.799C73.5663 14.9897 73.8697 15.28 74.069 15.67C74.2683 16.0513 74.368 16.5453 74.368 17.152V20.272C74.368 20.5407 74.303 20.7487 74.173 20.896C74.043 21.0347 73.8567 21.104 73.614 21.104C73.3713 21.104 73.1807 21.0347 73.042 20.896C72.912 20.7487 72.847 20.5407 72.847 20.272V19.648H72.951C72.8903 19.9513 72.769 20.2157 72.587 20.441C72.4137 20.6577 72.1927 20.8267 71.924 20.948C71.6553 21.0693 71.3477 21.13 71.001 21.13ZM82.4587 21.13C81.8953 21.13 81.423 21.0347 81.0417 20.844C80.669 20.6533 80.3917 20.376 80.2097 20.012C80.0277 19.6393 79.9367 19.18 79.9367 18.634V15.865H79.2607C79.0527 15.865 78.8923 15.813 78.7797 15.709C78.667 15.5963 78.6107 15.4447 78.6107 15.254C78.6107 15.0547 78.667 14.903 78.7797 14.799C78.8923 14.695 79.0527 14.643 79.2607 14.643H79.9367V13.46C79.9367 13.1913 80.006 12.9877 80.1447 12.849C80.292 12.7103 80.4957 12.641 80.7557 12.641C81.0157 12.641 81.215 12.7103 81.3537 12.849C81.4923 12.9877 81.5617 13.1913 81.5617 13.46V14.643H82.9397C83.1477 14.643 83.308 14.695 83.4207 14.799C83.5333 14.903 83.5897 15.0547 83.5897 15.254C83.5897 15.4447 83.5333 15.5963 83.4207 15.709C83.308 15.813 83.1477 15.865 82.9397 15.865H81.5617V18.543C81.5617 18.959 81.6527 19.271 81.8347 19.479C82.0167 19.687 82.3113 19.791 82.7187 19.791C82.866 19.791 82.996 19.778 83.1087 19.752C83.2213 19.726 83.321 19.7087 83.4077 19.7C83.5117 19.6913 83.5983 19.726 83.6677 19.804C83.737 19.8733 83.7717 20.0207 83.7717 20.246C83.7717 20.4193 83.7413 20.5753 83.6807 20.714C83.6287 20.844 83.529 20.935 83.3817 20.987C83.269 21.0217 83.1217 21.052 82.9397 21.078C82.7577 21.1127 82.5973 21.13 82.4587 21.13ZM86.8369 21.13C86.3083 21.13 85.8706 21.0347 85.5239 20.844C85.1773 20.6447 84.9173 20.35 84.7439 19.96C84.5793 19.57 84.4969 19.0847 84.4969 18.504V15.358C84.4969 15.0807 84.5663 14.877 84.7049 14.747C84.8436 14.6083 85.0429 14.539 85.3029 14.539C85.5629 14.539 85.7623 14.6083 85.9009 14.747C86.0483 14.877 86.1219 15.0807 86.1219 15.358V18.53C86.1219 18.9807 86.2129 19.3143 86.3949 19.531C86.5769 19.7477 86.8673 19.856 87.2659 19.856C87.6993 19.856 88.0546 19.7087 88.3319 19.414C88.6093 19.1107 88.7479 18.712 88.7479 18.218V15.358C88.7479 15.0807 88.8173 14.877 88.9559 14.747C89.0946 14.6083 89.2939 14.539 89.5539 14.539C89.8139 14.539 90.0133 14.6083 90.1519 14.747C90.2993 14.877 90.3729 15.0807 90.3729 15.358V20.272C90.3729 20.8267 90.1086 21.104 89.5799 21.104C89.3286 21.104 89.1336 21.0347 88.9949 20.896C88.8563 20.7487 88.7869 20.5407 88.7869 20.272V19.284L88.9689 19.674C88.7869 20.142 88.5096 20.5017 88.1369 20.753C87.7729 21.0043 87.3396 21.13 86.8369 21.13ZM96.4255 21.104C96.1569 21.104 95.9489 21.0347 95.8015 20.896C95.6629 20.7487 95.5935 20.5407 95.5935 20.272V15.358C95.5935 15.0893 95.6629 14.8857 95.8015 14.747C95.9402 14.6083 96.1352 14.539 96.3865 14.539C96.6379 14.539 96.8329 14.6083 96.9715 14.747C97.1102 14.8857 97.1795 15.0893 97.1795 15.358V16.177H97.0495C97.1709 15.657 97.4092 15.2627 97.7645 14.994C98.1199 14.7253 98.5922 14.565 99.1815 14.513C99.3635 14.4957 99.5065 14.5433 99.6105 14.656C99.7232 14.76 99.7882 14.9247 99.8055 15.15C99.8229 15.3667 99.7709 15.5443 99.6495 15.683C99.5369 15.813 99.3635 15.891 99.1295 15.917L98.8435 15.943C98.3149 15.995 97.9162 16.1597 97.6475 16.437C97.3789 16.7057 97.2445 17.087 97.2445 17.581V20.272C97.2445 20.5407 97.1752 20.7487 97.0365 20.896C96.8979 21.0347 96.6942 21.104 96.4255 21.104ZM103.716 21.13C102.996 21.13 102.377 20.9957 101.857 20.727C101.337 20.4583 100.934 20.077 100.648 19.583C100.37 19.089 100.232 18.504 100.232 17.828C100.232 17.1693 100.366 16.593 100.635 16.099C100.912 15.605 101.289 15.2193 101.766 14.942C102.251 14.656 102.801 14.513 103.417 14.513C103.867 14.513 104.27 14.5867 104.626 14.734C104.99 14.8813 105.297 15.0937 105.549 15.371C105.809 15.6483 106.004 15.9863 106.134 16.385C106.272 16.775 106.342 17.217 106.342 17.711C106.342 17.867 106.285 17.9883 106.173 18.075C106.069 18.153 105.917 18.192 105.718 18.192H101.545V17.256H105.198L104.99 17.451C104.99 17.0523 104.929 16.7187 104.808 16.45C104.695 16.1813 104.526 15.9777 104.301 15.839C104.084 15.6917 103.811 15.618 103.482 15.618C103.118 15.618 102.806 15.7047 102.546 15.878C102.294 16.0427 102.099 16.281 101.961 16.593C101.831 16.8963 101.766 17.2603 101.766 17.685V17.776C101.766 18.4867 101.93 19.0197 102.26 19.375C102.598 19.7217 103.092 19.895 103.742 19.895C103.967 19.895 104.218 19.869 104.496 19.817C104.782 19.7563 105.05 19.6567 105.302 19.518C105.484 19.414 105.644 19.3707 105.783 19.388C105.921 19.3967 106.03 19.4443 106.108 19.531C106.194 19.6177 106.246 19.726 106.264 19.856C106.281 19.9773 106.255 20.103 106.186 20.233C106.125 20.363 106.017 20.4757 105.861 20.571C105.557 20.7617 105.206 20.9047 104.808 21C104.418 21.0867 104.054 21.13 103.716 21.13ZM110.567 21.13C109.899 21.13 109.319 20.9957 108.825 20.727C108.331 20.4497 107.949 20.0597 107.681 19.557C107.412 19.0543 107.278 18.465 107.278 17.789C107.278 17.2777 107.351 16.8227 107.499 16.424C107.655 16.0167 107.876 15.6743 108.162 15.397C108.448 15.111 108.794 14.8943 109.202 14.747C109.609 14.591 110.064 14.513 110.567 14.513C110.853 14.513 111.16 14.552 111.49 14.63C111.828 14.708 112.144 14.838 112.439 15.02C112.577 15.1067 112.668 15.2107 112.712 15.332C112.755 15.4533 112.764 15.579 112.738 15.709C112.712 15.8303 112.655 15.9387 112.569 16.034C112.491 16.1207 112.391 16.177 112.27 16.203C112.148 16.2203 112.014 16.19 111.867 16.112C111.676 15.9993 111.481 15.917 111.282 15.865C111.082 15.8043 110.892 15.774 110.71 15.774C110.424 15.774 110.172 15.8217 109.956 15.917C109.739 16.0037 109.553 16.1337 109.397 16.307C109.249 16.4717 109.137 16.6797 109.059 16.931C108.981 17.1823 108.942 17.4727 108.942 17.802C108.942 18.4433 109.093 18.9503 109.397 19.323C109.709 19.687 110.146 19.869 110.71 19.869C110.892 19.869 111.078 19.843 111.269 19.791C111.468 19.739 111.667 19.6567 111.867 19.544C112.014 19.466 112.144 19.44 112.257 19.466C112.378 19.492 112.478 19.5527 112.556 19.648C112.634 19.7347 112.681 19.843 112.699 19.973C112.716 20.0943 112.699 20.2157 112.647 20.337C112.603 20.4583 112.517 20.558 112.387 20.636C112.101 20.8093 111.797 20.935 111.477 21.013C111.156 21.091 110.853 21.13 110.567 21.13ZM114.567 21.091C114.307 21.091 114.107 21.013 113.969 20.857C113.83 20.701 113.761 20.4843 113.761 20.207V15.436C113.761 15.15 113.83 14.9333 113.969 14.786C114.107 14.63 114.307 14.552 114.567 14.552C114.827 14.552 115.026 14.63 115.165 14.786C115.312 14.9333 115.386 15.15 115.386 15.436V20.207C115.386 20.4843 115.316 20.701 115.178 20.857C115.039 21.013 114.835 21.091 114.567 21.091ZM114.567 13.343C114.263 13.343 114.025 13.2693 113.852 13.122C113.687 12.966 113.605 12.7537 113.605 12.485C113.605 12.2077 113.687 11.9953 113.852 11.848C114.025 11.7007 114.263 11.627 114.567 11.627C114.879 11.627 115.117 11.7007 115.282 11.848C115.446 11.9953 115.529 12.2077 115.529 12.485C115.529 12.7537 115.446 12.966 115.282 13.122C115.117 13.2693 114.879 13.343 114.567 13.343ZM120.74 21.13C120.203 21.13 119.73 20.9957 119.323 20.727C118.924 20.4583 118.66 20.0987 118.53 19.648L118.673 19.323V20.272C118.673 20.5407 118.604 20.7487 118.465 20.896C118.326 21.0347 118.131 21.104 117.88 21.104C117.62 21.104 117.421 21.0347 117.282 20.896C117.143 20.7487 117.074 20.5407 117.074 20.272V12.55C117.074 12.2813 117.143 12.0777 117.282 11.939C117.421 11.8003 117.62 11.731 117.88 11.731C118.14 11.731 118.339 11.8003 118.478 11.939C118.625 12.0777 118.699 12.2813 118.699 12.55V15.93H118.543C118.682 15.5053 118.95 15.163 119.349 14.903C119.748 14.643 120.211 14.513 120.74 14.513C121.303 14.513 121.793 14.6473 122.209 14.916C122.625 15.1847 122.95 15.566 123.184 16.06C123.418 16.5453 123.535 17.1303 123.535 17.815C123.535 18.491 123.418 19.0803 123.184 19.583C122.95 20.077 122.621 20.4583 122.196 20.727C121.78 20.9957 121.295 21.13 120.74 21.13ZM120.285 19.895C120.606 19.895 120.887 19.817 121.13 19.661C121.373 19.505 121.559 19.2753 121.689 18.972C121.828 18.66 121.897 18.2743 121.897 17.815C121.897 17.1217 121.75 16.606 121.455 16.268C121.16 15.9213 120.77 15.748 120.285 15.748C119.964 15.748 119.683 15.826 119.44 15.982C119.197 16.1293 119.007 16.359 118.868 16.671C118.738 16.9743 118.673 17.3557 118.673 17.815C118.673 18.4997 118.82 19.0197 119.115 19.375C119.41 19.7217 119.8 19.895 120.285 19.895ZM127.768 21.13C127.109 21.13 126.537 20.9957 126.052 20.727C125.567 20.4583 125.19 20.077 124.921 19.583C124.652 19.0803 124.518 18.491 124.518 17.815C124.518 17.3037 124.592 16.8487 124.739 16.45C124.895 16.0427 125.116 15.696 125.402 15.41C125.688 15.1153 126.03 14.8943 126.429 14.747C126.828 14.591 127.274 14.513 127.768 14.513C128.427 14.513 128.999 14.6473 129.484 14.916C129.969 15.1847 130.346 15.566 130.615 16.06C130.884 16.554 131.018 17.139 131.018 17.815C131.018 18.3263 130.94 18.7857 130.784 19.193C130.637 19.6003 130.42 19.9513 130.134 20.246C129.848 20.532 129.506 20.753 129.107 20.909C128.708 21.0563 128.262 21.13 127.768 21.13ZM127.768 19.895C128.089 19.895 128.37 19.817 128.613 19.661C128.856 19.505 129.042 19.2753 129.172 18.972C129.311 18.66 129.38 18.2743 129.38 17.815C129.38 17.1217 129.233 16.606 128.938 16.268C128.643 15.9213 128.253 15.748 127.768 15.748C127.447 15.748 127.166 15.826 126.923 15.982C126.68 16.1293 126.49 16.359 126.351 16.671C126.221 16.9743 126.156 17.3557 126.156 17.815C126.156 18.4997 126.303 19.0197 126.598 19.375C126.893 19.7217 127.283 19.895 127.768 19.895ZM137.5 23.444C137.31 23.444 137.154 23.392 137.032 23.288C136.911 23.1927 136.837 23.0627 136.811 22.898C136.794 22.7333 136.824 22.56 136.902 22.378L137.786 20.415V21.091L135.42 15.618C135.342 15.4273 135.316 15.2497 135.342 15.085C135.368 14.9203 135.446 14.7903 135.576 14.695C135.715 14.591 135.901 14.539 136.135 14.539C136.335 14.539 136.495 14.5867 136.616 14.682C136.738 14.7687 136.846 14.9377 136.941 15.189L138.696 19.57H138.306L140.1 15.176C140.196 14.9333 140.308 14.7687 140.438 14.682C140.568 14.5867 140.742 14.539 140.958 14.539C141.149 14.539 141.301 14.591 141.413 14.695C141.526 14.7903 141.595 14.9203 141.621 15.085C141.647 15.241 141.617 15.4143 141.53 15.605L138.371 22.82C138.259 23.0627 138.137 23.2273 138.007 23.314C137.877 23.4007 137.708 23.444 137.5 23.444ZM66.3246 39.13C65.6053 39.13 65.0636 38.9263 64.6996 38.519C64.3356 38.103 64.1536 37.4963 64.1536 36.699V30.55C64.1536 30.2813 64.2229 30.0777 64.3616 29.939C64.5003 29.8003 64.6996 29.731 64.9596 29.731C65.2196 29.731 65.4189 29.8003 65.5576 29.939C65.7049 30.0777 65.7786 30.2813 65.7786 30.55V36.621C65.7786 37.0197 65.8609 37.3143 66.0256 37.505C66.1989 37.6957 66.4416 37.791 66.7536 37.791C66.8229 37.791 66.8879 37.791 66.9486 37.791C67.0093 37.7823 67.0699 37.7737 67.1306 37.765C67.2519 37.7477 67.3343 37.7823 67.3776 37.869C67.4209 37.947 67.4426 38.1117 67.4426 38.363C67.4426 38.5797 67.3993 38.7487 67.3126 38.87C67.2259 38.9913 67.0829 39.065 66.8836 39.091C66.7969 39.0997 66.7059 39.1083 66.6106 39.117C66.5153 39.1257 66.4199 39.13 66.3246 39.13ZM70.398 39.13C69.9386 39.13 69.527 39.0433 69.163 38.87C68.8076 38.688 68.526 38.4453 68.318 38.142C68.1186 37.8387 68.019 37.4963 68.019 37.115C68.019 36.647 68.1403 36.2787 68.383 36.01C68.6256 35.7327 69.02 35.5333 69.566 35.412C70.112 35.2907 70.8443 35.23 71.763 35.23H72.413V36.166H71.776C71.2386 36.166 70.8096 36.192 70.489 36.244C70.1683 36.296 69.9386 36.387 69.8 36.517C69.67 36.6383 69.605 36.8117 69.605 37.037C69.605 37.323 69.7046 37.557 69.904 37.739C70.1033 37.921 70.3806 38.012 70.736 38.012C71.022 38.012 71.2733 37.947 71.49 37.817C71.7153 37.6783 71.893 37.492 72.023 37.258C72.153 37.024 72.218 36.7553 72.218 36.452V34.957C72.218 34.5237 72.1226 34.2117 71.932 34.021C71.7413 33.8303 71.4206 33.735 70.97 33.735C70.7186 33.735 70.4456 33.7653 70.151 33.826C69.865 33.8867 69.5616 33.9907 69.241 34.138C69.0763 34.216 68.929 34.2377 68.799 34.203C68.6776 34.1683 68.5823 34.099 68.513 33.995C68.4436 33.8823 68.409 33.761 68.409 33.631C68.409 33.501 68.4436 33.3753 68.513 33.254C68.5823 33.124 68.6993 33.0287 68.864 32.968C69.2626 32.8033 69.644 32.6863 70.008 32.617C70.3806 32.5477 70.7186 32.513 71.022 32.513C71.646 32.513 72.1573 32.6083 72.556 32.799C72.9633 32.9897 73.2666 33.28 73.466 33.67C73.6653 34.0513 73.765 34.5453 73.765 35.152V38.272C73.765 38.5407 73.7 38.7487 73.57 38.896C73.44 39.0347 73.2536 39.104 73.011 39.104C72.7683 39.104 72.5776 39.0347 72.439 38.896C72.309 38.7487 72.244 38.5407 72.244 38.272V37.648H72.348C72.2873 37.9513 72.166 38.2157 71.984 38.441C71.8106 38.6577 71.5896 38.8267 71.321 38.948C71.0523 39.0693 70.7446 39.13 70.398 39.13ZM80.1916 39.104C79.9316 39.104 79.728 39.0347 79.5806 38.896C79.442 38.7487 79.3726 38.5407 79.3726 38.272V33.865H78.7746C78.5666 33.865 78.4063 33.813 78.2936 33.709C78.181 33.5963 78.1246 33.4447 78.1246 33.254C78.1246 33.0547 78.181 32.903 78.2936 32.799C78.4063 32.695 78.5666 32.643 78.7746 32.643H79.8406L79.3726 33.072V32.63C79.3726 31.7373 79.598 31.07 80.0486 30.628C80.4993 30.1773 81.1493 29.913 81.9986 29.835L82.4406 29.796C82.614 29.7787 82.7526 29.809 82.8566 29.887C82.9606 29.9563 83.03 30.0517 83.0646 30.173C83.0993 30.2857 83.1036 30.4027 83.0776 30.524C83.0516 30.6453 82.9953 30.7537 82.9086 30.849C82.8306 30.9357 82.7266 30.9833 82.5966 30.992L82.4146 31.005C81.9206 31.0397 81.561 31.1653 81.3356 31.382C81.1103 31.5987 80.9976 31.928 80.9976 32.37V32.851L80.7896 32.643H82.1026C82.3106 32.643 82.471 32.695 82.5836 32.799C82.6963 32.903 82.7526 33.0547 82.7526 33.254C82.7526 33.4447 82.6963 33.5963 82.5836 33.709C82.471 33.813 82.3106 33.865 82.1026 33.865H80.9976V38.272C80.9976 38.8267 80.729 39.104 80.1916 39.104ZM85.7085 39.13C85.2492 39.13 84.8375 39.0433 84.4735 38.87C84.1182 38.688 83.8365 38.4453 83.6285 38.142C83.4292 37.8387 83.3295 37.4963 83.3295 37.115C83.3295 36.647 83.4508 36.2787 83.6935 36.01C83.9362 35.7327 84.3305 35.5333 84.8765 35.412C85.4225 35.2907 86.1548 35.23 87.0735 35.23H87.7235V36.166H87.0865C86.5492 36.166 86.1202 36.192 85.7995 36.244C85.4788 36.296 85.2492 36.387 85.1105 36.517C84.9805 36.6383 84.9155 36.8117 84.9155 37.037C84.9155 37.323 85.0152 37.557 85.2145 37.739C85.4138 37.921 85.6912 38.012 86.0465 38.012C86.3325 38.012 86.5838 37.947 86.8005 37.817C87.0258 37.6783 87.2035 37.492 87.3335 37.258C87.4635 37.024 87.5285 36.7553 87.5285 36.452V34.957C87.5285 34.5237 87.4332 34.2117 87.2425 34.021C87.0518 33.8303 86.7312 33.735 86.2805 33.735C86.0292 33.735 85.7562 33.7653 85.4615 33.826C85.1755 33.8867 84.8722 33.9907 84.5515 34.138C84.3868 34.216 84.2395 34.2377 84.1095 34.203C83.9882 34.1683 83.8928 34.099 83.8235 33.995C83.7542 33.8823 83.7195 33.761 83.7195 33.631C83.7195 33.501 83.7542 33.3753 83.8235 33.254C83.8928 33.124 84.0098 33.0287 84.1745 32.968C84.5732 32.8033 84.9545 32.6863 85.3185 32.617C85.6912 32.5477 86.0292 32.513 86.3325 32.513C86.9565 32.513 87.4678 32.6083 87.8665 32.799C88.2738 32.9897 88.5772 33.28 88.7765 33.67C88.9758 34.0513 89.0755 34.5453 89.0755 35.152V38.272C89.0755 38.5407 89.0105 38.7487 88.8805 38.896C88.7505 39.0347 88.5642 39.104 88.3215 39.104C88.0788 39.104 87.8882 39.0347 87.7495 38.896C87.6195 38.7487 87.5545 38.5407 87.5545 38.272V37.648H87.6585C87.5978 37.9513 87.4765 38.2157 87.2945 38.441C87.1212 38.6577 86.9002 38.8267 86.6315 38.948C86.3628 39.0693 86.0552 39.13 85.7085 39.13ZM93.6629 39.13C92.9955 39.13 92.4149 38.9957 91.9209 38.727C91.4269 38.4497 91.0455 38.0597 90.7769 37.557C90.5082 37.0543 90.3739 36.465 90.3739 35.789C90.3739 35.2777 90.4475 34.8227 90.5949 34.424C90.7509 34.0167 90.9719 33.6743 91.2579 33.397C91.5439 33.111 91.8905 32.8943 92.2979 32.747C92.7052 32.591 93.1602 32.513 93.6629 32.513C93.9489 32.513 94.2565 32.552 94.5859 32.63C94.9239 32.708 95.2402 32.838 95.5349 33.02C95.6735 33.1067 95.7645 33.2107 95.8079 33.332C95.8512 33.4533 95.8599 33.579 95.8339 33.709C95.8079 33.8303 95.7515 33.9387 95.6649 34.034C95.5869 34.1207 95.4872 34.177 95.3659 34.203C95.2445 34.2203 95.1102 34.19 94.9629 34.112C94.7722 33.9993 94.5772 33.917 94.3779 33.865C94.1785 33.8043 93.9879 33.774 93.8059 33.774C93.5199 33.774 93.2685 33.8217 93.0519 33.917C92.8352 34.0037 92.6489 34.1337 92.4929 34.307C92.3455 34.4717 92.2329 34.6797 92.1549 34.931C92.0769 35.1823 92.0379 35.4727 92.0379 35.802C92.0379 36.4433 92.1895 36.9503 92.4929 37.323C92.8049 37.687 93.2425 37.869 93.8059 37.869C93.9879 37.869 94.1742 37.843 94.3649 37.791C94.5642 37.739 94.7635 37.6567 94.9629 37.544C95.1102 37.466 95.2402 37.44 95.3529 37.466C95.4742 37.492 95.5739 37.5527 95.6519 37.648C95.7299 37.7347 95.7775 37.843 95.7949 37.973C95.8122 38.0943 95.7949 38.2157 95.7429 38.337C95.6995 38.4583 95.6129 38.558 95.4829 38.636C95.1969 38.8093 94.8935 38.935 94.5729 39.013C94.2522 39.091 93.9489 39.13 93.6629 39.13ZM99.7941 39.13C99.2308 39.13 98.7584 39.0347 98.3771 38.844C98.0044 38.6533 97.7271 38.376 97.5451 38.012C97.3631 37.6393 97.2721 37.18 97.2721 36.634V33.865H96.5961C96.3881 33.865 96.2278 33.813 96.1151 33.709C96.0024 33.5963 95.9461 33.4447 95.9461 33.254C95.9461 33.0547 96.0024 32.903 96.1151 32.799C96.2278 32.695 96.3881 32.643 96.5961 32.643H97.2721V31.46C97.2721 31.1913 97.3414 30.9877 97.4801 30.849C97.6274 30.7103 97.8311 30.641 98.0911 30.641C98.3511 30.641 98.5504 30.7103 98.6891 30.849C98.8278 30.9877 98.8971 31.1913 98.8971 31.46V32.643H100.275C100.483 32.643 100.643 32.695 100.756 32.799C100.869 32.903 100.925 33.0547 100.925 33.254C100.925 33.4447 100.869 33.5963 100.756 33.709C100.643 33.813 100.483 33.865 100.275 33.865H98.8971V36.543C98.8971 36.959 98.9881 37.271 99.1701 37.479C99.3521 37.687 99.6468 37.791 100.054 37.791C100.201 37.791 100.331 37.778 100.444 37.752C100.557 37.726 100.656 37.7087 100.743 37.7C100.847 37.6913 100.934 37.726 101.003 37.804C101.072 37.8733 101.107 38.0207 101.107 38.246C101.107 38.4193 101.077 38.5753 101.016 38.714C100.964 38.844 100.864 38.935 100.717 38.987C100.604 39.0217 100.457 39.052 100.275 39.078C100.093 39.1127 99.9328 39.13 99.7941 39.13ZM104.172 39.13C103.644 39.13 103.206 39.0347 102.859 38.844C102.513 38.6447 102.253 38.35 102.079 37.96C101.915 37.57 101.832 37.0847 101.832 36.504V33.358C101.832 33.0807 101.902 32.877 102.04 32.747C102.179 32.6083 102.378 32.539 102.638 32.539C102.898 32.539 103.098 32.6083 103.236 32.747C103.384 32.877 103.457 33.0807 103.457 33.358V36.53C103.457 36.9807 103.548 37.3143 103.73 37.531C103.912 37.7477 104.203 37.856 104.601 37.856C105.035 37.856 105.39 37.7087 105.667 37.414C105.945 37.1107 106.083 36.712 106.083 36.218V33.358C106.083 33.0807 106.153 32.877 106.291 32.747C106.43 32.6083 106.629 32.539 106.889 32.539C107.149 32.539 107.349 32.6083 107.487 32.747C107.635 32.877 107.708 33.0807 107.708 33.358V38.272C107.708 38.8267 107.444 39.104 106.915 39.104C106.664 39.104 106.469 39.0347 106.33 38.896C106.192 38.7487 106.122 38.5407 106.122 38.272V37.284L106.304 37.674C106.122 38.142 105.845 38.5017 105.472 38.753C105.108 39.0043 104.675 39.13 104.172 39.13ZM110.232 39.104C109.963 39.104 109.755 39.0347 109.608 38.896C109.469 38.7487 109.4 38.5407 109.4 38.272V33.358C109.4 33.0893 109.469 32.8857 109.608 32.747C109.746 32.6083 109.941 32.539 110.193 32.539C110.444 32.539 110.639 32.6083 110.778 32.747C110.916 32.8857 110.986 33.0893 110.986 33.358V34.177H110.856C110.977 33.657 111.215 33.2627 111.571 32.994C111.926 32.7253 112.398 32.565 112.988 32.513C113.17 32.4957 113.313 32.5433 113.417 32.656C113.529 32.76 113.594 32.9247 113.612 33.15C113.629 33.3667 113.577 33.5443 113.456 33.683C113.343 33.813 113.17 33.891 112.936 33.917L112.65 33.943C112.121 33.995 111.722 34.1597 111.454 34.437C111.185 34.7057 111.051 35.087 111.051 35.581V38.272C111.051 38.5407 110.981 38.7487 110.843 38.896C110.704 39.0347 110.5 39.104 110.232 39.104ZM116.52 39.13C116.061 39.13 115.649 39.0433 115.285 38.87C114.93 38.688 114.648 38.4453 114.44 38.142C114.241 37.8387 114.141 37.4963 114.141 37.115C114.141 36.647 114.262 36.2787 114.505 36.01C114.748 35.7327 115.142 35.5333 115.688 35.412C116.234 35.2907 116.966 35.23 117.885 35.23H118.535V36.166H117.898C117.361 36.166 116.932 36.192 116.611 36.244C116.29 36.296 116.061 36.387 115.922 36.517C115.792 36.6383 115.727 36.8117 115.727 37.037C115.727 37.323 115.827 37.557 116.026 37.739C116.225 37.921 116.503 38.012 116.858 38.012C117.144 38.012 117.395 37.947 117.612 37.817C117.837 37.6783 118.015 37.492 118.145 37.258C118.275 37.024 118.34 36.7553 118.34 36.452V34.957C118.34 34.5237 118.245 34.2117 118.054 34.021C117.863 33.8303 117.543 33.735 117.092 33.735C116.841 33.735 116.568 33.7653 116.273 33.826C115.987 33.8867 115.684 33.9907 115.363 34.138C115.198 34.216 115.051 34.2377 114.921 34.203C114.8 34.1683 114.704 34.099 114.635 33.995C114.566 33.8823 114.531 33.761 114.531 33.631C114.531 33.501 114.566 33.3753 114.635 33.254C114.704 33.124 114.821 33.0287 114.986 32.968C115.385 32.8033 115.766 32.6863 116.13 32.617C116.503 32.5477 116.841 32.513 117.144 32.513C117.768 32.513 118.279 32.6083 118.678 32.799C119.085 32.9897 119.389 33.28 119.588 33.67C119.787 34.0513 119.887 34.5453 119.887 35.152V38.272C119.887 38.5407 119.822 38.7487 119.692 38.896C119.562 39.0347 119.376 39.104 119.133 39.104C118.89 39.104 118.7 39.0347 118.561 38.896C118.431 38.7487 118.366 38.5407 118.366 38.272V37.648H118.47C118.409 37.9513 118.288 38.2157 118.106 38.441C117.933 38.6577 117.712 38.8267 117.443 38.948C117.174 39.0693 116.867 39.13 116.52 39.13Z" fill="#3C414A"/>
<path d="M78.5 83V97.5C79 98.3334 81 99.5 85 97.5C86.5 93.1667 90.8 84.1 96 82.5C100.112 81.2348 97.6162 89.4752 94.7435 96.4401L97.9186 99.4235C97.962 99.4643 98.0313 99.4583 98.067 99.4106L99.4308 97.5922C99.4673 97.5436 99.5385 97.5385 99.5815 97.5815L101.418 99.4185C101.462 99.4615 101.533 99.4564 101.569 99.4078L102.931 97.5922C102.967 97.5436 103.038 97.5385 103.082 97.5815L104.929 99.4293C104.968 99.4683 105.032 99.4683 105.071 99.4293L106.918 97.5815C106.962 97.5385 107.033 97.5436 107.069 97.5922L108.41 99.38C108.439 99.4184 108.5 99.3981 108.5 99.35V97.5V66.5V63.5H78.5V66.5V83Z" fill="#FDC04C"/>
<path d="M78.5 83C73.7 87.4 71.5 91.8334 71 93.5V109.5L85 109.5L92.5 101.5C93.1973 100.036 93.9836 98.2825 94.7435 96.4401M78.5 83V97.5C79 98.3334 81 99.5 85 97.5C86.5 93.1667 90.8 84.1 96 82.5C100.112 81.2348 97.6162 89.4752 94.7435 96.4401M78.5 83V63.5M78.5 83V66.5M108.5 66.5H111.5C112.3 66.5 112.5 65.8333 112.5 65.5V60.5C112.5 59.3 111.5 59 111 59H76C75.5 59 74.5 59.3 74.5 60.5V65.5C74.5 65.8333 74.7 66.5 75.5 66.5H78.5M108.5 66.5V97.5M108.5 66.5V63.5M78.5 66.5V63.5M78.5 63.5H108.5M108.5 63.5V97.5M108.5 97.5V99.35C108.5 99.3981 108.439 99.4184 108.41 99.38L107.069 97.5922C107.033 97.5436 106.962 97.5385 106.918 97.5815L105.071 99.4293C105.032 99.4683 104.968 99.4683 104.929 99.4293L103.082 97.5815C103.038 97.5385 102.967 97.5436 102.931 97.5922L101.569 99.4078C101.533 99.4564 101.462 99.4615 101.418 99.4185L99.5815 97.5815C99.5385 97.5385 99.4673 97.5436 99.4308 97.5922L98.067 99.4106C98.0313 99.4583 97.962 99.4643 97.9186 99.4235L94.7435 96.4401" stroke="#17193A" stroke-width="1.5"/>
<rect x="1" y="1" width="182" height="122" rx="7" stroke="#676F7D" stroke-width="2"/>
<defs>
<clipPath id="clip0_6454_32562">
<rect width="45.8333" height="10" fill="white" transform="translate(6 108)"/>
</clipPath>
</defs>
</svg>
