<svg width="184" height="124" viewBox="0 0 184 124" fill="none" xmlns="http://www.w3.org/2000/svg">
<rect x="1" y="1" width="182" height="122" rx="7" fill="#26292E"/>
<path d="M85.7517 84.9148C86.1637 84.9148 86.5665 84.7926 86.9091 84.5637C87.2517 84.3348 87.5187 84.0094 87.6764 83.6287C87.8341 83.248 87.8754 82.8291 87.795 82.425C87.7146 82.0209 87.5162 81.6497 87.2248 81.3583C86.9335 81.067 86.5622 80.8685 86.1581 80.7882C85.754 80.7078 85.3351 80.749 84.9544 80.9067C84.5737 81.0644 84.2484 81.3314 84.0195 81.674C83.7905 82.0166 83.6683 82.4194 83.6683 82.8315C83.6683 83.384 83.8878 83.9139 84.2785 84.3046C84.6692 84.6953 85.1991 84.9148 85.7517 84.9148ZM98.2517 91.1648H85.7517C85.1991 91.1648 84.6692 91.3843 84.2785 91.775C83.8878 92.1657 83.6683 92.6956 83.6683 93.2481C83.6683 93.8007 83.8878 94.3306 84.2785 94.7213C84.6692 95.112 85.1991 95.3315 85.7517 95.3315H98.2517C98.8042 95.3315 99.3341 95.112 99.7248 94.7213C100.116 94.3306 100.335 93.8007 100.335 93.2481C100.335 92.6956 100.116 92.1657 99.7248 91.775C99.3341 91.3843 98.8042 91.1648 98.2517 91.1648ZM98.2517 80.7481C97.8396 80.7481 97.4368 80.8703 97.0942 81.0992C96.7516 81.3282 96.4846 81.6535 96.3269 82.0342C96.1693 82.4149 96.128 82.8338 96.2084 83.2379C96.2888 83.642 96.4872 84.0132 96.7785 84.3046C97.0699 84.596 97.4411 84.7944 97.8452 84.8748C98.2494 84.9551 98.6683 84.9139 99.0489 84.7562C99.4296 84.5985 99.755 84.3315 99.9839 83.9889C100.213 83.6463 100.335 83.2435 100.335 82.8315C100.335 82.2789 100.116 81.749 99.7248 81.3583C99.3341 80.9676 98.8042 80.7481 98.2517 80.7481ZM92.0017 66.1648C87.8812 66.1648 83.8533 67.3866 80.4273 69.6758C77.0013 71.965 74.331 75.2188 72.7542 79.0256C71.1774 82.8323 70.7648 87.0212 71.5687 91.0625C72.3725 95.1038 74.3567 98.8159 77.2703 101.73C80.1839 104.643 83.896 106.627 87.9373 107.431C91.9786 108.235 96.1675 107.822 99.9743 106.246C103.781 104.669 107.035 101.999 109.324 98.5725C111.613 95.1465 112.835 91.1186 112.835 86.9981C112.835 84.2623 112.296 81.5532 111.249 79.0256C110.202 76.4979 108.668 74.2013 106.733 72.2667C104.799 70.3322 102.502 68.7976 99.9743 67.7506C97.4466 66.7037 94.7376 66.1648 92.0017 66.1648ZM92.0017 103.665C88.7053 103.665 85.483 102.687 82.7422 100.856C80.0014 99.0246 77.8651 96.4216 76.6037 93.3762C75.3422 90.3307 75.0122 86.9796 75.6553 83.7466C76.2983 80.5136 77.8857 77.5439 80.2166 75.213C82.5474 72.8821 85.5172 71.2948 88.7502 70.6517C91.9832 70.0086 95.3343 70.3387 98.3797 71.6001C101.425 72.8616 104.028 74.9978 105.86 77.7386C107.691 80.4794 108.668 83.7018 108.668 86.9981C108.668 91.4184 106.912 95.6576 103.787 98.7832C100.661 101.909 96.422 103.665 92.0017 103.665Z" fill="#FFF48C"/>
<path d="M29.4149 93.9356C28.995 94.2883 28.7311 94.7923 28.6804 95.3383C28.6297 95.8843 28.7963 96.4283 29.1441 96.8523C29.319 97.0632 29.5338 97.2376 29.7762 97.3654C30.0186 97.4933 30.2838 97.572 30.5567 97.5972C30.8295 97.6223 31.1047 97.5934 31.3663 97.5121C31.628 97.4307 31.8711 97.2985 32.0816 97.1231C33.4743 96.0003 35.2093 95.3879 36.9983 95.3879C38.7872 95.3879 40.5223 96.0003 41.9149 97.1231C42.1254 97.2985 42.3685 97.4307 42.6302 97.5121C42.8918 97.5934 43.167 97.6223 43.4399 97.5972C43.7127 97.572 43.978 97.4933 44.2204 97.3654C44.4627 97.2376 44.6775 97.0632 44.8524 96.8523C45.2002 96.4283 45.3668 95.8843 45.3161 95.3383C45.2654 94.7923 45.0015 94.2883 44.5816 93.9356C42.4318 92.2076 39.7564 91.2656 36.9983 91.2656C34.2401 91.2656 31.5647 92.2076 29.4149 93.9356ZM30.7483 84.9148C31.1603 84.9148 31.5631 84.7926 31.9057 84.5637C32.2483 84.3348 32.5153 84.0094 32.673 83.6287C32.8307 83.248 32.872 82.8291 32.7916 82.425C32.7112 82.0209 32.5128 81.6497 32.2214 81.3583C31.93 81.067 31.5588 80.8685 31.1547 80.7882C30.7506 80.7078 30.3317 80.749 29.951 80.9067C29.5703 81.0644 29.245 81.3314 29.016 81.674C28.7871 82.0166 28.6649 82.4194 28.6649 82.8315C28.6649 83.384 28.8844 83.9139 29.2751 84.3046C29.6658 84.6953 30.1957 84.9148 30.7483 84.9148ZM36.9983 66.1648C32.8778 66.1648 28.8499 67.3866 25.4239 69.6758C21.9979 71.965 19.3276 75.2188 17.7508 79.0256C16.1739 82.8323 15.7614 87.0212 16.5652 91.0625C17.3691 95.1038 19.3533 98.8159 22.2669 101.73C25.1805 104.643 28.8926 106.627 32.9339 107.431C36.9752 108.235 41.164 107.822 44.9708 106.246C48.7776 104.669 52.0313 101.999 54.3205 98.5725C56.6097 95.1465 57.8316 91.1186 57.8316 86.9981C57.8316 84.2623 57.2927 81.5532 56.2458 79.0256C55.1988 76.4979 53.6642 74.2013 51.7297 72.2667C49.7951 70.3322 47.4985 68.7976 44.9708 67.7506C42.4432 66.7037 39.7341 66.1648 36.9983 66.1648ZM36.9983 103.665C33.7019 103.665 30.4796 102.687 27.7388 100.856C24.9979 99.0246 22.8617 96.4216 21.6003 93.3762C20.3388 90.3307 20.0088 86.9796 20.6518 83.7466C21.2949 80.5136 22.8823 77.5439 25.2131 75.213C27.544 72.8821 30.5137 71.2948 33.7468 70.6517C36.9798 70.0086 40.3309 70.3387 43.3763 71.6001C46.4218 72.8616 49.0247 74.9978 50.8561 77.7386C52.6874 80.4794 53.6649 83.7018 53.6649 86.9981C53.6649 91.4184 51.909 95.6576 48.7834 98.7832C45.6578 101.909 41.4185 103.665 36.9983 103.665ZM43.2483 80.7481C42.8362 80.7481 42.4334 80.8703 42.0908 81.0992C41.7482 81.3282 41.4812 81.6535 41.3235 82.0342C41.1658 82.4149 41.1246 82.8338 41.205 83.2379C41.2853 83.642 41.4838 84.0132 41.7751 84.3046C42.0665 84.596 42.4377 84.7944 42.8418 84.8748C43.246 84.9551 43.6648 84.9139 44.0455 84.7562C44.4262 84.5985 44.7516 84.3315 44.9805 83.9889C45.2094 83.6463 45.3316 83.2435 45.3316 82.8315C45.3316 82.2789 45.1121 81.749 44.7214 81.3583C44.3307 80.9676 43.8008 80.7481 43.2483 80.7481Z" fill="#FF6666"/>
<path d="M151.915 91.644C150.522 92.7668 148.787 93.3791 146.998 93.3791C145.209 93.3791 143.474 92.7668 142.082 91.644C141.656 91.2903 141.108 91.1202 140.557 91.171C140.006 91.2218 139.498 91.4893 139.144 91.9148C138.79 92.3402 138.62 92.8887 138.671 93.4396C138.722 93.9905 138.989 94.4987 139.415 94.8523C141.543 96.6286 144.227 97.6015 146.998 97.6015C149.77 97.6015 152.454 96.6286 154.582 94.8523C155.007 94.4987 155.275 93.9905 155.325 93.4396C155.376 92.8887 155.206 92.3402 154.852 91.9148C154.677 91.7041 154.462 91.53 154.22 91.4024C153.978 91.2748 153.713 91.1961 153.44 91.171C152.889 91.1202 152.34 91.2903 151.915 91.644ZM141.186 83.659C141.576 84.047 142.104 84.2648 142.655 84.2648C143.205 84.2648 143.733 84.047 144.123 83.659C144.511 83.2686 144.729 83.0381 144.729 82.4877C144.729 81.9373 144.511 81.4093 144.123 81.019C142.931 79.8877 141.35 79.257 139.707 79.257C138.063 79.257 136.482 79.8877 135.29 81.019C135.072 81.2057 134.895 81.4356 134.77 81.694C134.645 81.9525 134.574 82.234 134.563 82.5209C134.552 82.8078 134.572 82.7964 134.677 83.0638C134.782 83.3311 134.969 83.5739 135.172 83.777C135.375 83.98 135.618 84.1389 135.885 84.2436C136.152 84.3484 136.439 84.3967 136.725 84.3856C137.012 84.3745 137.294 84.3043 137.552 84.1792C137.811 84.0542 138.041 83.877 138.227 83.659C138.421 83.4637 138.652 83.3087 138.905 83.2029C139.159 83.0972 139.432 83.0427 139.707 83.0427C139.982 83.0427 140.254 83.0972 140.508 83.2029C140.762 83.3087 140.992 83.4637 141.186 83.659ZM158.707 81.019C157.514 79.8877 155.933 79.257 154.29 79.257C152.646 79.257 151.066 79.8877 149.873 81.019C149.532 81.4175 149.354 81.9302 149.374 82.4545C149.455 83.1052 149.526 83.1795 149.897 83.5506C150.268 83.9216 150.851 84.1381 151.375 84.1583C151.9 84.1786 152.412 84.0003 152.811 83.659C153.004 83.4637 153.235 83.3087 153.489 83.2029C153.743 83.0972 154.015 83.0427 154.29 83.0427C154.565 83.0427 154.837 83.0972 155.091 83.2029C155.345 83.3087 155.575 83.4637 155.769 83.659C156.159 84.047 156.687 84.2648 157.238 84.2648C157.788 84.2648 158.316 84.047 158.707 83.659C159.095 83.2686 159.312 83.0381 159.312 82.4877C159.312 81.9373 159.095 81.4093 158.707 81.019ZM146.998 66.1648C142.878 66.1648 138.85 67.3866 135.424 69.6758C131.998 71.965 129.328 75.2188 127.751 79.0256C126.174 82.8323 125.761 87.0212 126.565 91.0625C127.369 95.1038 129.353 98.8159 132.267 101.73C135.18 104.643 138.893 106.627 142.934 107.431C146.975 108.235 151.164 107.822 154.971 106.246C158.778 104.669 162.031 101.999 164.321 98.5725C166.61 95.1465 167.832 91.1186 167.832 86.9981C167.832 84.2623 167.293 81.5532 166.246 79.0256C165.199 76.4979 163.664 74.2013 161.73 72.2667C159.795 70.3322 157.498 68.7976 154.971 67.7506C152.443 66.7037 149.734 66.1648 146.998 66.1648ZM146.998 103.665C143.702 103.665 140.48 102.687 137.739 100.856C134.998 99.0246 132.862 96.4216 131.6 93.3762C130.339 90.3307 130.009 86.9796 130.652 83.7466C131.295 80.5136 132.882 77.5439 135.213 75.213C137.544 72.8821 140.514 71.2948 143.747 70.6517C146.98 70.0086 150.331 70.3387 153.376 71.6001C156.422 72.8616 159.025 74.9978 160.856 77.7386C162.687 80.4794 163.665 83.7018 163.665 86.9981C163.665 91.4184 161.909 95.6576 158.783 98.7832C155.658 101.909 151.419 103.665 146.998 103.665Z" fill="#28CB78"/>
<path d="M16.3018 52.47C15.7558 52.47 15.2791 52.3833 14.8718 52.21C14.4644 52.0453 14.1438 51.807 13.9098 51.495C13.6844 51.1917 13.5718 50.8407 13.5718 50.442C13.5718 50.0693 13.6584 49.7227 13.8318 49.402C14.0051 49.0727 14.3171 48.7217 14.7678 48.349C15.0451 48.1237 15.2618 47.9157 15.4178 47.725C15.5738 47.5343 15.6864 47.3567 15.7558 47.192C15.8338 47.0187 15.8858 46.8583 15.9118 46.711C15.9291 46.5897 15.9811 46.49 16.0678 46.412C16.1544 46.334 16.2758 46.295 16.4318 46.295C16.5964 46.295 16.7221 46.347 16.8088 46.451C16.9041 46.555 16.9518 46.698 16.9518 46.88C16.9518 47.088 16.9214 47.3003 16.8608 47.517C16.8001 47.7337 16.6961 47.9547 16.5488 48.18C16.4101 48.4053 16.2151 48.6393 15.9638 48.882C15.6778 49.1507 15.4828 49.3847 15.3788 49.584C15.2748 49.7747 15.2228 49.974 15.2228 50.182C15.2228 50.4507 15.3268 50.663 15.5348 50.819C15.7428 50.9837 16.0331 51.066 16.4058 51.066C16.7351 51.066 17.0428 51.027 17.3288 50.949C17.6234 50.871 17.9138 50.754 18.1998 50.598C18.3904 50.494 18.5638 50.4507 18.7198 50.468C18.8758 50.4853 19.0014 50.5417 19.0968 50.637C19.2008 50.741 19.2614 50.8623 19.2788 51.001C19.3048 51.1397 19.2831 51.2827 19.2138 51.43C19.1444 51.5773 19.0144 51.703 18.8238 51.807C18.4598 52.015 18.0611 52.1753 17.6278 52.288C17.2031 52.4093 16.7611 52.47 16.3018 52.47ZM16.4578 45.502C16.1631 45.502 15.9291 45.4153 15.7558 45.242C15.5824 45.06 15.4958 44.8303 15.4958 44.553C15.4958 44.267 15.5824 44.033 15.7558 43.851C15.9291 43.669 16.1631 43.578 16.4578 43.578C16.7611 43.578 16.9994 43.669 17.1728 43.851C17.3461 44.033 17.4328 44.267 17.4328 44.553C17.4328 44.8303 17.3461 45.06 17.1728 45.242C16.9994 45.4153 16.7611 45.502 16.4578 45.502ZM24.0116 50.13C23.0582 50.13 22.2392 49.9393 21.5546 49.558C20.8786 49.168 20.3586 48.622 19.9946 47.92C19.6306 47.2093 19.4486 46.373 19.4486 45.411C19.4486 44.6917 19.5526 44.046 19.7606 43.474C19.9686 42.8933 20.2676 42.3993 20.6576 41.992C21.0476 41.576 21.5242 41.2597 22.0876 41.043C22.6596 40.8177 23.3009 40.705 24.0116 40.705C24.4882 40.705 24.9562 40.7657 25.4156 40.887C25.8749 41.0083 26.2779 41.1817 26.6246 41.407C26.8066 41.5197 26.9279 41.6583 26.9886 41.823C27.0492 41.979 27.0622 42.135 27.0276 42.291C26.9929 42.4383 26.9192 42.564 26.8066 42.668C26.7026 42.772 26.5682 42.8327 26.4036 42.85C26.2476 42.8587 26.0742 42.8023 25.8836 42.681C25.6149 42.5077 25.3246 42.382 25.0126 42.304C24.7006 42.226 24.3842 42.187 24.0636 42.187C23.4482 42.187 22.9282 42.3127 22.5036 42.564C22.0789 42.8153 21.7582 43.1793 21.5416 43.656C21.3249 44.1327 21.2166 44.7177 21.2166 45.411C21.2166 46.0957 21.3249 46.6807 21.5416 47.166C21.7582 47.6513 22.0789 48.0197 22.5036 48.271C22.9282 48.5223 23.4482 48.648 24.0636 48.648C24.3929 48.648 24.7179 48.609 25.0386 48.531C25.3592 48.4443 25.6626 48.3143 25.9486 48.141C26.1392 48.0283 26.3082 47.9807 26.4556 47.998C26.6116 48.0067 26.7416 48.0587 26.8456 48.154C26.9496 48.2493 27.0189 48.3707 27.0536 48.518C27.0882 48.6567 27.0796 48.804 27.0276 48.96C26.9756 49.1073 26.8716 49.2373 26.7156 49.35C26.3689 49.6013 25.9529 49.7963 25.4676 49.935C24.9909 50.065 24.5056 50.13 24.0116 50.13ZM30.8695 50.13C30.2108 50.13 29.6388 49.9957 29.1535 49.727C28.6682 49.4583 28.2912 49.077 28.0225 48.583C27.7538 48.0803 27.6195 47.491 27.6195 46.815C27.6195 46.3037 27.6932 45.8487 27.8405 45.45C27.9965 45.0427 28.2175 44.696 28.5035 44.41C28.7895 44.1153 29.1318 43.8943 29.5305 43.747C29.9292 43.591 30.3755 43.513 30.8695 43.513C31.5282 43.513 32.1002 43.6473 32.5855 43.916C33.0708 44.1847 33.4478 44.566 33.7165 45.06C33.9852 45.554 34.1195 46.139 34.1195 46.815C34.1195 47.3263 34.0415 47.7857 33.8855 48.193C33.7382 48.6003 33.5215 48.9513 33.2355 49.246C32.9495 49.532 32.6072 49.753 32.2085 49.909C31.8098 50.0563 31.3635 50.13 30.8695 50.13ZM30.8695 48.895C31.1902 48.895 31.4718 48.817 31.7145 48.661C31.9572 48.505 32.1435 48.2753 32.2735 47.972C32.4122 47.66 32.4815 47.2743 32.4815 46.815C32.4815 46.1217 32.3342 45.606 32.0395 45.268C31.7448 44.9213 31.3548 44.748 30.8695 44.748C30.5488 44.748 30.2672 44.826 30.0245 44.982C29.7818 45.1293 29.5912 45.359 29.4525 45.671C29.3225 45.9743 29.2575 46.3557 29.2575 46.815C29.2575 47.4997 29.4048 48.0197 29.6995 48.375C29.9942 48.7217 30.3842 48.895 30.8695 48.895ZM31.4805 42.72C31.3938 42.8413 31.2898 42.9107 31.1685 42.928C31.0472 42.9453 30.9302 42.9237 30.8175 42.863C30.7048 42.8023 30.6225 42.7157 30.5705 42.603C30.5272 42.4903 30.5402 42.3647 30.6095 42.226L31.5975 40.289C31.6755 40.1243 31.7795 40.0203 31.9095 39.977C32.0395 39.925 32.1738 39.9163 32.3125 39.951C32.4512 39.9857 32.5682 40.0507 32.6635 40.146C32.7675 40.2413 32.8282 40.3583 32.8455 40.497C32.8715 40.627 32.8368 40.7613 32.7415 40.9L31.4805 42.72ZM36.2927 50.104C36.0327 50.104 35.8334 50.0347 35.6947 49.896C35.5561 49.7487 35.4867 49.5407 35.4867 49.272V44.358C35.4867 44.0893 35.5561 43.8857 35.6947 43.747C35.8334 43.6083 36.0284 43.539 36.2797 43.539C36.5311 43.539 36.7261 43.6083 36.8647 43.747C37.0034 43.8857 37.0727 44.0893 37.0727 44.358V45.307L36.9297 44.917C37.1031 44.4837 37.3717 44.1413 37.7357 43.89C38.0997 43.6387 38.5331 43.513 39.0357 43.513C39.5471 43.513 39.9674 43.6343 40.2967 43.877C40.6261 44.1197 40.8557 44.4923 40.9857 44.995H40.8037C40.9771 44.5357 41.2631 44.176 41.6617 43.916C42.0604 43.6473 42.5197 43.513 43.0397 43.513C43.5251 43.513 43.9237 43.6083 44.2357 43.799C44.5564 43.9897 44.7947 44.28 44.9507 44.67C45.1067 45.0513 45.1847 45.5367 45.1847 46.126V49.272C45.1847 49.5407 45.1111 49.7487 44.9637 49.896C44.8251 50.0347 44.6257 50.104 44.3657 50.104C44.1057 50.104 43.9064 50.0347 43.7677 49.896C43.6291 49.7487 43.5597 49.5407 43.5597 49.272V46.191C43.5597 45.7057 43.4774 45.3503 43.3127 45.125C43.1567 44.8997 42.8881 44.787 42.5067 44.787C42.0821 44.787 41.7484 44.9387 41.5057 45.242C41.2631 45.5367 41.1417 45.9483 41.1417 46.477V49.272C41.1417 49.5407 41.0724 49.7487 40.9337 49.896C40.7951 50.0347 40.5957 50.104 40.3357 50.104C40.0757 50.104 39.8721 50.0347 39.7247 49.896C39.5861 49.7487 39.5167 49.5407 39.5167 49.272V46.191C39.5167 45.7057 39.4344 45.3503 39.2697 45.125C39.1137 44.8997 38.8494 44.787 38.4767 44.787C38.0521 44.787 37.7184 44.9387 37.4757 45.242C37.2331 45.5367 37.1117 45.9483 37.1117 46.477V49.272C37.1117 49.8267 36.8387 50.104 36.2927 50.104ZM49.7601 50.13C49.1014 50.13 48.5294 49.9957 48.0441 49.727C47.5588 49.4583 47.1818 49.077 46.9131 48.583C46.6444 48.0803 46.5101 47.491 46.5101 46.815C46.5101 46.3037 46.5838 45.8487 46.7311 45.45C46.8871 45.0427 47.1081 44.696 47.3941 44.41C47.6801 44.1153 48.0224 43.8943 48.4211 43.747C48.8198 43.591 49.2661 43.513 49.7601 43.513C50.4188 43.513 50.9908 43.6473 51.4761 43.916C51.9614 44.1847 52.3384 44.566 52.6071 45.06C52.8758 45.554 53.0101 46.139 53.0101 46.815C53.0101 47.3263 52.9321 47.7857 52.7761 48.193C52.6288 48.6003 52.4121 48.9513 52.1261 49.246C51.8401 49.532 51.4978 49.753 51.0991 49.909C50.7004 50.0563 50.2541 50.13 49.7601 50.13ZM49.7601 48.895C50.0808 48.895 50.3624 48.817 50.6051 48.661C50.8478 48.505 51.0341 48.2753 51.1641 47.972C51.3028 47.66 51.3721 47.2743 51.3721 46.815C51.3721 46.1217 51.2248 45.606 50.9301 45.268C50.6354 44.9213 50.2454 44.748 49.7601 44.748C49.4394 44.748 49.1578 44.826 48.9151 44.982C48.6724 45.1293 48.4818 45.359 48.3431 45.671C48.2131 45.9743 48.1481 46.3557 48.1481 46.815C48.1481 47.4997 48.2954 48.0197 48.5901 48.375C48.8848 48.7217 49.2748 48.895 49.7601 48.895ZM59.1286 50.104C58.8686 50.104 58.665 50.0347 58.5176 49.896C58.379 49.7487 58.3096 49.5407 58.3096 49.272V44.865H57.7116C57.5036 44.865 57.3433 44.813 57.2306 44.709C57.118 44.5963 57.0616 44.4447 57.0616 44.254C57.0616 44.0547 57.118 43.903 57.2306 43.799C57.3433 43.695 57.5036 43.643 57.7116 43.643H58.7776L58.3096 44.072V43.63C58.3096 42.7373 58.535 42.07 58.9856 41.628C59.4363 41.1773 60.0863 40.913 60.9356 40.835L61.3776 40.796C61.551 40.7787 61.6896 40.809 61.7936 40.887C61.8976 40.9563 61.967 41.0517 62.0016 41.173C62.0363 41.2857 62.0406 41.4027 62.0146 41.524C61.9886 41.6453 61.9323 41.7537 61.8456 41.849C61.7676 41.9357 61.6636 41.9833 61.5336 41.992L61.3516 42.005C60.8576 42.0397 60.498 42.1653 60.2726 42.382C60.0473 42.5987 59.9346 42.928 59.9346 43.37V43.851L59.7266 43.643H61.0396C61.2476 43.643 61.408 43.695 61.5206 43.799C61.6333 43.903 61.6896 44.0547 61.6896 44.254C61.6896 44.4447 61.6333 44.5963 61.5206 44.709C61.408 44.813 61.2476 44.865 61.0396 44.865H59.9346V49.272C59.9346 49.8267 59.666 50.104 59.1286 50.104ZM64.917 50.13C64.3883 50.13 63.9507 50.0347 63.604 49.844C63.2573 49.6447 62.9973 49.35 62.824 48.96C62.6593 48.57 62.577 48.0847 62.577 47.504V44.358C62.577 44.0807 62.6463 43.877 62.785 43.747C62.9237 43.6083 63.123 43.539 63.383 43.539C63.643 43.539 63.8423 43.6083 63.981 43.747C64.1283 43.877 64.202 44.0807 64.202 44.358V47.53C64.202 47.9807 64.293 48.3143 64.475 48.531C64.657 48.7477 64.9473 48.856 65.346 48.856C65.7793 48.856 66.1347 48.7087 66.412 48.414C66.6893 48.1107 66.828 47.712 66.828 47.218V44.358C66.828 44.0807 66.8973 43.877 67.036 43.747C67.1747 43.6083 67.374 43.539 67.634 43.539C67.894 43.539 68.0933 43.6083 68.232 43.747C68.3793 43.877 68.453 44.0807 68.453 44.358V49.272C68.453 49.8267 68.1887 50.104 67.66 50.104C67.4087 50.104 67.2137 50.0347 67.075 49.896C66.9363 49.7487 66.867 49.5407 66.867 49.272V48.284L67.049 48.674C66.867 49.142 66.5897 49.5017 66.217 49.753C65.853 50.0043 65.4197 50.13 64.917 50.13ZM73.2773 50.13C72.558 50.13 71.9383 49.9957 71.4183 49.727C70.8983 49.4583 70.4953 49.077 70.2093 48.583C69.932 48.089 69.7933 47.504 69.7933 46.828C69.7933 46.1693 69.9276 45.593 70.1963 45.099C70.4736 44.605 70.8506 44.2193 71.3273 43.942C71.8126 43.656 72.363 43.513 72.9783 43.513C73.429 43.513 73.832 43.5867 74.1873 43.734C74.5513 43.8813 74.859 44.0937 75.1103 44.371C75.3703 44.6483 75.5653 44.9863 75.6953 45.385C75.834 45.775 75.9033 46.217 75.9033 46.711C75.9033 46.867 75.847 46.9883 75.7343 47.075C75.6303 47.153 75.4786 47.192 75.2793 47.192H71.1063V46.256H74.7593L74.5513 46.451C74.5513 46.0523 74.4906 45.7187 74.3693 45.45C74.2566 45.1813 74.0876 44.9777 73.8623 44.839C73.6456 44.6917 73.3726 44.618 73.0433 44.618C72.6793 44.618 72.3673 44.7047 72.1073 44.878C71.856 45.0427 71.661 45.281 71.5223 45.593C71.3923 45.8963 71.3273 46.2603 71.3273 46.685V46.776C71.3273 47.4867 71.492 48.0197 71.8213 48.375C72.1593 48.7217 72.6533 48.895 73.3033 48.895C73.5287 48.895 73.78 48.869 74.0573 48.817C74.3433 48.7563 74.612 48.6567 74.8633 48.518C75.0453 48.414 75.2057 48.3707 75.3443 48.388C75.483 48.3967 75.5913 48.4443 75.6693 48.531C75.756 48.6177 75.808 48.726 75.8253 48.856C75.8426 48.9773 75.8166 49.103 75.7473 49.233C75.6867 49.363 75.5783 49.4757 75.4223 49.571C75.119 49.7617 74.768 49.9047 74.3693 50C73.9793 50.0867 73.6153 50.13 73.2773 50.13ZM83.0465 50.13C82.6738 50.13 82.2795 50.091 81.8635 50.013C81.4475 49.935 81.0748 49.8007 80.7455 49.61C80.6068 49.5233 80.5072 49.4237 80.4465 49.311C80.3945 49.1897 80.3728 49.0727 80.3815 48.96C80.3988 48.8387 80.4422 48.7347 80.5115 48.648C80.5895 48.5613 80.6848 48.505 80.7975 48.479C80.9188 48.453 81.0488 48.4747 81.1875 48.544C81.5342 48.7087 81.8592 48.8257 82.1625 48.895C82.4658 48.9557 82.7648 48.986 83.0595 48.986C83.4755 48.986 83.7832 48.9167 83.9825 48.778C84.1905 48.6307 84.2945 48.44 84.2945 48.206C84.2945 48.0067 84.2252 47.855 84.0865 47.751C83.9565 47.6383 83.7572 47.556 83.4885 47.504L82.1885 47.257C81.6512 47.153 81.2395 46.958 80.9535 46.672C80.6762 46.3773 80.5375 46.0003 80.5375 45.541C80.5375 45.125 80.6502 44.7653 80.8755 44.462C81.1095 44.1587 81.4302 43.9247 81.8375 43.76C82.2448 43.5953 82.7128 43.513 83.2415 43.513C83.6228 43.513 83.9782 43.5563 84.3075 43.643C84.6455 43.721 84.9705 43.8467 85.2825 44.02C85.4125 44.0893 85.4992 44.1803 85.5425 44.293C85.5945 44.4057 85.6075 44.5227 85.5815 44.644C85.5555 44.7567 85.5035 44.8607 85.4255 44.956C85.3475 45.0427 85.2478 45.099 85.1265 45.125C85.0138 45.1423 84.8838 45.1163 84.7365 45.047C84.4678 44.9083 84.2078 44.8087 83.9565 44.748C83.7138 44.6873 83.4798 44.657 83.2545 44.657C82.8298 44.657 82.5135 44.7307 82.3055 44.878C82.1062 45.0253 82.0065 45.2203 82.0065 45.463C82.0065 45.645 82.0672 45.7967 82.1885 45.918C82.3098 46.0393 82.4962 46.1217 82.7475 46.165L84.0475 46.412C84.6108 46.516 85.0355 46.7067 85.3215 46.984C85.6162 47.2613 85.7635 47.634 85.7635 48.102C85.7635 48.7347 85.5165 49.233 85.0225 49.597C84.5285 49.9523 83.8698 50.13 83.0465 50.13ZM89.3682 50.13C88.8395 50.13 88.4018 50.0347 88.0552 49.844C87.7085 49.6447 87.4485 49.35 87.2752 48.96C87.1105 48.57 87.0282 48.0847 87.0282 47.504V44.358C87.0282 44.0807 87.0975 43.877 87.2362 43.747C87.3748 43.6083 87.5742 43.539 87.8342 43.539C88.0942 43.539 88.2935 43.6083 88.4322 43.747C88.5795 43.877 88.6532 44.0807 88.6532 44.358V47.53C88.6532 47.9807 88.7442 48.3143 88.9262 48.531C89.1082 48.7477 89.3985 48.856 89.7972 48.856C90.2305 48.856 90.5858 48.7087 90.8632 48.414C91.1405 48.1107 91.2792 47.712 91.2792 47.218V44.358C91.2792 44.0807 91.3485 43.877 91.4872 43.747C91.6258 43.6083 91.8252 43.539 92.0852 43.539C92.3452 43.539 92.5445 43.6083 92.6832 43.747C92.8305 43.877 92.9042 44.0807 92.9042 44.358V49.272C92.9042 49.8267 92.6398 50.104 92.1112 50.104C91.8598 50.104 91.6648 50.0347 91.5262 49.896C91.3875 49.7487 91.3182 49.5407 91.3182 49.272V48.284L91.5002 48.674C91.3182 49.142 91.0408 49.5017 90.6682 49.753C90.3042 50.0043 89.8708 50.13 89.3682 50.13ZM101.258 50.13C100.538 50.13 99.9188 49.9957 99.3988 49.727C98.8788 49.4583 98.4758 49.077 98.1898 48.583C97.9125 48.089 97.7738 47.504 97.7738 46.828C97.7738 46.1693 97.9081 45.593 98.1768 45.099C98.4541 44.605 98.8311 44.2193 99.3078 43.942C99.7931 43.656 100.343 43.513 100.959 43.513C101.409 43.513 101.812 43.5867 102.168 43.734C102.532 43.8813 102.839 44.0937 103.091 44.371C103.351 44.6483 103.546 44.9863 103.676 45.385C103.814 45.775 103.884 46.217 103.884 46.711C103.884 46.867 103.827 46.9883 103.715 47.075C103.611 47.153 103.459 47.192 103.26 47.192H99.0868V46.256H102.74L102.532 46.451C102.532 46.0523 102.471 45.7187 102.35 45.45C102.237 45.1813 102.068 44.9777 101.843 44.839C101.626 44.6917 101.353 44.618 101.024 44.618C100.66 44.618 100.348 44.7047 100.088 44.878C99.8365 45.0427 99.6415 45.281 99.5028 45.593C99.3728 45.8963 99.3078 46.2603 99.3078 46.685V46.776C99.3078 47.4867 99.4725 48.0197 99.8018 48.375C100.14 48.7217 100.634 48.895 101.284 48.895C101.509 48.895 101.76 48.869 102.038 48.817C102.324 48.7563 102.592 48.6567 102.844 48.518C103.026 48.414 103.186 48.3707 103.325 48.388C103.463 48.3967 103.572 48.4443 103.65 48.531C103.736 48.6177 103.788 48.726 103.806 48.856C103.823 48.9773 103.797 49.103 103.728 49.233C103.667 49.363 103.559 49.4757 103.403 49.571C103.099 49.7617 102.748 49.9047 102.35 50C101.96 50.0867 101.596 50.13 101.258 50.13ZM105.575 50.065C105.384 50.065 105.224 50.013 105.094 49.909C104.972 49.7963 104.907 49.6533 104.899 49.48C104.899 49.3067 104.972 49.1247 105.12 48.934L107.226 46.334V47.101L105.25 44.67C105.094 44.4793 105.02 44.2973 105.029 44.124C105.037 43.9507 105.102 43.812 105.224 43.708C105.354 43.5953 105.514 43.539 105.705 43.539C105.904 43.539 106.069 43.5737 106.199 43.643C106.337 43.7123 106.463 43.8207 106.576 43.968L108.136 45.97H107.564L109.137 43.968C109.258 43.8207 109.384 43.7123 109.514 43.643C109.644 43.5737 109.804 43.539 109.995 43.539C110.194 43.539 110.354 43.5953 110.476 43.708C110.597 43.8207 110.658 43.9637 110.658 44.137C110.666 44.3103 110.593 44.4923 110.437 44.683L108.474 47.088V46.36L110.58 48.934C110.736 49.116 110.809 49.2937 110.801 49.467C110.792 49.6403 110.723 49.7833 110.593 49.896C110.471 50.0087 110.311 50.065 110.112 50.065C109.921 50.065 109.761 50.0303 109.631 49.961C109.501 49.8917 109.375 49.7833 109.254 49.636L107.564 47.504H108.11L106.433 49.636C106.32 49.7747 106.199 49.883 106.069 49.961C105.939 50.0303 105.774 50.065 105.575 50.065ZM113.035 52.444C112.775 52.444 112.576 52.3747 112.437 52.236C112.299 52.0973 112.229 51.8937 112.229 51.625V44.358C112.229 44.0893 112.299 43.8857 112.437 43.747C112.576 43.6083 112.771 43.539 113.022 43.539C113.282 43.539 113.482 43.6083 113.62 43.747C113.759 43.8857 113.828 44.0893 113.828 44.358V45.372L113.685 44.982C113.815 44.54 114.08 44.1847 114.478 43.916C114.886 43.6473 115.358 43.513 115.895 43.513C116.45 43.513 116.935 43.6473 117.351 43.916C117.776 44.1847 118.105 44.566 118.339 45.06C118.573 45.5453 118.69 46.1303 118.69 46.815C118.69 47.491 118.573 48.0803 118.339 48.583C118.105 49.077 117.78 49.4583 117.364 49.727C116.948 49.9957 116.459 50.13 115.895 50.13C115.367 50.13 114.903 50 114.504 49.74C114.106 49.4713 113.837 49.1247 113.698 48.7H113.854V51.625C113.854 51.8937 113.781 52.0973 113.633 52.236C113.495 52.3747 113.295 52.444 113.035 52.444ZM115.44 48.895C115.761 48.895 116.043 48.817 116.285 48.661C116.528 48.505 116.714 48.2753 116.844 47.972C116.983 47.66 117.052 47.2743 117.052 46.815C117.052 46.1217 116.905 45.606 116.61 45.268C116.316 44.9213 115.926 44.748 115.44 44.748C115.12 44.748 114.838 44.826 114.595 44.982C114.353 45.1293 114.162 45.359 114.023 45.671C113.893 45.9743 113.828 46.3557 113.828 46.815C113.828 47.4997 113.976 48.0197 114.27 48.375C114.565 48.7217 114.955 48.895 115.44 48.895ZM123.157 50.13C122.438 50.13 121.818 49.9957 121.298 49.727C120.778 49.4583 120.375 49.077 120.089 48.583C119.812 48.089 119.673 47.504 119.673 46.828C119.673 46.1693 119.808 45.593 120.076 45.099C120.354 44.605 120.731 44.2193 121.207 43.942C121.693 43.656 122.243 43.513 122.858 43.513C123.309 43.513 123.712 43.5867 124.067 43.734C124.431 43.8813 124.739 44.0937 124.99 44.371C125.25 44.6483 125.445 44.9863 125.575 45.385C125.714 45.775 125.783 46.217 125.783 46.711C125.783 46.867 125.727 46.9883 125.614 47.075C125.51 47.153 125.359 47.192 125.159 47.192H120.986V46.256H124.639L124.431 46.451C124.431 46.0523 124.371 45.7187 124.249 45.45C124.137 45.1813 123.968 44.9777 123.742 44.839C123.526 44.6917 123.253 44.618 122.923 44.618C122.559 44.618 122.247 44.7047 121.987 44.878C121.736 45.0427 121.541 45.281 121.402 45.593C121.272 45.8963 121.207 46.2603 121.207 46.685V46.776C121.207 47.4867 121.372 48.0197 121.701 48.375C122.039 48.7217 122.533 48.895 123.183 48.895C123.409 48.895 123.66 48.869 123.937 48.817C124.223 48.7563 124.492 48.6567 124.743 48.518C124.925 48.414 125.086 48.3707 125.224 48.388C125.363 48.3967 125.471 48.4443 125.549 48.531C125.636 48.6177 125.688 48.726 125.705 48.856C125.723 48.9773 125.697 49.103 125.627 49.233C125.567 49.363 125.458 49.4757 125.302 49.571C124.999 49.7617 124.648 49.9047 124.249 50C123.859 50.0867 123.495 50.13 123.157 50.13ZM127.902 50.104C127.633 50.104 127.425 50.0347 127.278 49.896C127.139 49.7487 127.07 49.5407 127.07 49.272V44.358C127.07 44.0893 127.139 43.8857 127.278 43.747C127.417 43.6083 127.612 43.539 127.863 43.539C128.114 43.539 128.309 43.6083 128.448 43.747C128.587 43.8857 128.656 44.0893 128.656 44.358V45.177H128.526C128.647 44.657 128.886 44.2627 129.241 43.994C129.596 43.7253 130.069 43.565 130.658 43.513C130.84 43.4957 130.983 43.5433 131.087 43.656C131.2 43.76 131.265 43.9247 131.282 44.15C131.299 44.3667 131.247 44.5443 131.126 44.683C131.013 44.813 130.84 44.891 130.606 44.917L130.32 44.943C129.791 44.995 129.393 45.1597 129.124 45.437C128.855 45.7057 128.721 46.087 128.721 46.581V49.272C128.721 49.5407 128.652 49.7487 128.513 49.896C128.374 50.0347 128.171 50.104 127.902 50.104ZM132.967 50.091C132.707 50.091 132.508 50.013 132.369 49.857C132.23 49.701 132.161 49.4843 132.161 49.207V44.436C132.161 44.15 132.23 43.9333 132.369 43.786C132.508 43.63 132.707 43.552 132.967 43.552C133.227 43.552 133.426 43.63 133.565 43.786C133.712 43.9333 133.786 44.15 133.786 44.436V49.207C133.786 49.4843 133.717 49.701 133.578 49.857C133.439 50.013 133.236 50.091 132.967 50.091ZM132.967 42.343C132.664 42.343 132.425 42.2693 132.252 42.122C132.087 41.966 132.005 41.7537 132.005 41.485C132.005 41.2077 132.087 40.9953 132.252 40.848C132.425 40.7007 132.664 40.627 132.967 40.627C133.279 40.627 133.517 40.7007 133.682 40.848C133.847 40.9953 133.929 41.2077 133.929 41.485C133.929 41.7537 133.847 41.966 133.682 42.122C133.517 42.2693 133.279 42.343 132.967 42.343ZM138.607 50.13C137.888 50.13 137.268 49.9957 136.748 49.727C136.228 49.4583 135.825 49.077 135.539 48.583C135.262 48.089 135.123 47.504 135.123 46.828C135.123 46.1693 135.258 45.593 135.526 45.099C135.804 44.605 136.181 44.2193 136.657 43.942C137.143 43.656 137.693 43.513 138.308 43.513C138.759 43.513 139.162 43.5867 139.517 43.734C139.881 43.8813 140.189 44.0937 140.44 44.371C140.7 44.6483 140.895 44.9863 141.025 45.385C141.164 45.775 141.233 46.217 141.233 46.711C141.233 46.867 141.177 46.9883 141.064 47.075C140.96 47.153 140.809 47.192 140.609 47.192H136.436V46.256H140.089L139.881 46.451C139.881 46.0523 139.821 45.7187 139.699 45.45C139.587 45.1813 139.418 44.9777 139.192 44.839C138.976 44.6917 138.703 44.618 138.373 44.618C138.009 44.618 137.697 44.7047 137.437 44.878C137.186 45.0427 136.991 45.281 136.852 45.593C136.722 45.8963 136.657 46.2603 136.657 46.685V46.776C136.657 47.4867 136.822 48.0197 137.151 48.375C137.489 48.7217 137.983 48.895 138.633 48.895C138.859 48.895 139.11 48.869 139.387 48.817C139.673 48.7563 139.942 48.6567 140.193 48.518C140.375 48.414 140.536 48.3707 140.674 48.388C140.813 48.3967 140.921 48.4443 140.999 48.531C141.086 48.6177 141.138 48.726 141.155 48.856C141.173 48.9773 141.147 49.103 141.077 49.233C141.017 49.363 140.908 49.4757 140.752 49.571C140.449 49.7617 140.098 49.9047 139.699 50C139.309 50.0867 138.945 50.13 138.607 50.13ZM143.326 50.104C143.066 50.104 142.867 50.0347 142.728 49.896C142.59 49.7487 142.52 49.5407 142.52 49.272V44.358C142.52 44.0893 142.59 43.8857 142.728 43.747C142.867 43.6083 143.062 43.539 143.313 43.539C143.565 43.539 143.76 43.6083 143.898 43.747C144.037 43.8857 144.106 44.0893 144.106 44.358V45.242L143.963 44.917C144.154 44.4577 144.449 44.111 144.847 43.877C145.255 43.6343 145.714 43.513 146.225 43.513C146.737 43.513 147.157 43.6083 147.486 43.799C147.816 43.9897 148.063 44.28 148.227 44.67C148.392 45.0513 148.474 45.5367 148.474 46.126V49.272C148.474 49.5407 148.405 49.7487 148.266 49.896C148.128 50.0347 147.928 50.104 147.668 50.104C147.408 50.104 147.205 50.0347 147.057 49.896C146.919 49.7487 146.849 49.5407 146.849 49.272V46.204C146.849 45.71 146.754 45.3503 146.563 45.125C146.381 44.8997 146.095 44.787 145.705 44.787C145.229 44.787 144.847 44.9387 144.561 45.242C144.284 45.5367 144.145 45.931 144.145 46.425V49.272C144.145 49.8267 143.872 50.104 143.326 50.104ZM153.063 50.13C152.395 50.13 151.815 49.9957 151.321 49.727C150.827 49.4497 150.445 49.0597 150.177 48.557C149.908 48.0543 149.774 47.465 149.774 46.789C149.774 46.2777 149.847 45.8227 149.995 45.424C150.151 45.0167 150.372 44.6743 150.658 44.397C150.944 44.111 151.29 43.8943 151.698 43.747C152.105 43.591 152.56 43.513 153.063 43.513C153.349 43.513 153.656 43.552 153.986 43.63C154.324 43.708 154.64 43.838 154.935 44.02C155.073 44.1067 155.164 44.2107 155.208 44.332C155.251 44.4533 155.26 44.579 155.234 44.709C155.208 44.8303 155.151 44.9387 155.065 45.034C154.987 45.1207 154.887 45.177 154.766 45.203C154.644 45.2203 154.51 45.19 154.363 45.112C154.172 44.9993 153.977 44.917 153.778 44.865C153.578 44.8043 153.388 44.774 153.206 44.774C152.92 44.774 152.668 44.8217 152.452 44.917C152.235 45.0037 152.049 45.1337 151.893 45.307C151.745 45.4717 151.633 45.6797 151.555 45.931C151.477 46.1823 151.438 46.4727 151.438 46.802C151.438 47.4433 151.589 47.9503 151.893 48.323C152.205 48.687 152.642 48.869 153.206 48.869C153.388 48.869 153.574 48.843 153.765 48.791C153.964 48.739 154.163 48.6567 154.363 48.544C154.51 48.466 154.64 48.44 154.753 48.466C154.874 48.492 154.974 48.5527 155.052 48.648C155.13 48.7347 155.177 48.843 155.195 48.973C155.212 49.0943 155.195 49.2157 155.143 49.337C155.099 49.4583 155.013 49.558 154.883 49.636C154.597 49.8093 154.293 49.935 153.973 50.013C153.652 50.091 153.349 50.13 153.063 50.13ZM157.063 50.091C156.803 50.091 156.603 50.013 156.465 49.857C156.326 49.701 156.257 49.4843 156.257 49.207V44.436C156.257 44.15 156.326 43.9333 156.465 43.786C156.603 43.63 156.803 43.552 157.063 43.552C157.323 43.552 157.522 43.63 157.661 43.786C157.808 43.9333 157.882 44.15 157.882 44.436V49.207C157.882 49.4843 157.812 49.701 157.674 49.857C157.535 50.013 157.331 50.091 157.063 50.091ZM157.063 42.343C156.759 42.343 156.521 42.2693 156.348 42.122C156.183 41.966 156.101 41.7537 156.101 41.485C156.101 41.2077 156.183 40.9953 156.348 40.848C156.521 40.7007 156.759 40.627 157.063 40.627C157.375 40.627 157.613 40.7007 157.778 40.848C157.942 40.9953 158.025 41.2077 158.025 41.485C158.025 41.7537 157.942 41.966 157.778 42.122C157.613 42.2693 157.375 42.343 157.063 42.343ZM161.663 50.13C161.204 50.13 160.792 50.0433 160.428 49.87C160.073 49.688 159.791 49.4453 159.583 49.142C159.384 48.8387 159.284 48.4963 159.284 48.115C159.284 47.647 159.405 47.2787 159.648 47.01C159.891 46.7327 160.285 46.5333 160.831 46.412C161.377 46.2907 162.109 46.23 163.028 46.23H163.678V47.166H163.041C162.504 47.166 162.075 47.192 161.754 47.244C161.433 47.296 161.204 47.387 161.065 47.517C160.935 47.6383 160.87 47.8117 160.87 48.037C160.87 48.323 160.97 48.557 161.169 48.739C161.368 48.921 161.646 49.012 162.001 49.012C162.287 49.012 162.538 48.947 162.755 48.817C162.98 48.6783 163.158 48.492 163.288 48.258C163.418 48.024 163.483 47.7553 163.483 47.452V45.957C163.483 45.5237 163.388 45.2117 163.197 45.021C163.006 44.8303 162.686 44.735 162.235 44.735C161.984 44.735 161.711 44.7653 161.416 44.826C161.13 44.8867 160.827 44.9907 160.506 45.138C160.341 45.216 160.194 45.2377 160.064 45.203C159.943 45.1683 159.847 45.099 159.778 44.995C159.709 44.8823 159.674 44.761 159.674 44.631C159.674 44.501 159.709 44.3753 159.778 44.254C159.847 44.124 159.964 44.0287 160.129 43.968C160.528 43.8033 160.909 43.6863 161.273 43.617C161.646 43.5477 161.984 43.513 162.287 43.513C162.911 43.513 163.422 43.6083 163.821 43.799C164.228 43.9897 164.532 44.28 164.731 44.67C164.93 45.0513 165.03 45.5453 165.03 46.152V49.272C165.03 49.5407 164.965 49.7487 164.835 49.896C164.705 50.0347 164.519 50.104 164.276 50.104C164.033 50.104 163.843 50.0347 163.704 49.896C163.574 49.7487 163.509 49.5407 163.509 49.272V48.648H163.613C163.552 48.9513 163.431 49.2157 163.249 49.441C163.076 49.6577 162.855 49.8267 162.586 49.948C162.317 50.0693 162.01 50.13 161.663 50.13ZM168.568 47.348C168.404 47.348 168.274 47.296 168.178 47.192C168.092 47.0793 168.048 46.932 168.048 46.75C168.048 46.4813 168.079 46.23 168.139 45.996C168.209 45.7533 168.317 45.5107 168.464 45.268C168.612 45.0253 168.807 44.7697 169.049 44.501C169.231 44.293 169.374 44.111 169.478 43.955C169.591 43.7903 169.669 43.6343 169.712 43.487C169.764 43.3397 169.79 43.188 169.79 43.032C169.79 42.746 169.686 42.5207 169.478 42.356C169.27 42.1913 168.976 42.109 168.594 42.109C168.248 42.109 167.931 42.1567 167.645 42.252C167.368 42.3387 167.086 42.4643 166.8 42.629C166.61 42.7417 166.436 42.7937 166.28 42.785C166.133 42.7677 166.012 42.7113 165.916 42.616C165.821 42.5207 165.76 42.4037 165.734 42.265C165.708 42.1263 165.73 41.9833 165.799 41.836C165.869 41.6887 165.994 41.5543 166.176 41.433C166.532 41.199 166.939 41.0213 167.398 40.9C167.858 40.77 168.291 40.705 168.698 40.705C169.244 40.705 169.721 40.796 170.128 40.978C170.544 41.16 170.865 41.4113 171.09 41.732C171.324 42.0527 171.441 42.4297 171.441 42.863C171.441 43.1317 171.402 43.3873 171.324 43.63C171.246 43.864 171.121 44.1023 170.947 44.345C170.774 44.579 170.536 44.8347 170.232 45.112C169.964 45.3547 169.747 45.5757 169.582 45.775C169.426 45.9743 169.309 46.165 169.231 46.347C169.162 46.529 169.114 46.724 169.088 46.932C169.08 47.0533 169.028 47.153 168.932 47.231C168.846 47.309 168.724 47.348 168.568 47.348ZM168.542 50.065C168.248 50.065 168.009 49.974 167.827 49.792C167.654 49.61 167.567 49.376 167.567 49.09C167.567 48.8127 167.654 48.5873 167.827 48.414C168.009 48.232 168.248 48.141 168.542 48.141C168.846 48.141 169.08 48.232 169.244 48.414C169.418 48.5873 169.504 48.8127 169.504 49.09C169.504 49.376 169.418 49.61 169.244 49.792C169.08 49.974 168.846 50.065 168.542 50.065Z" fill="white"/>
<path d="M176.672 8.695H176.721L176.696 8.65254C176.253 7.89054 175.546 7.29935 174.696 7.00836L174.628 6.98495L174.662 7.04851C174.936 7.55509 175.146 8.10292 175.292 8.67375L175.298 8.695H175.32H176.672ZM173.523 6.83568L173.5 6.80209L173.477 6.83568C173.095 7.38804 172.795 8.00029 172.597 8.65861L172.587 8.695H172.625H174.375H174.413L174.402 8.65861C174.204 8.00029 173.905 7.38804 173.523 6.83568ZM169.925 11.4236L169.93 11.445H169.952H171.502H171.534L171.53 11.4133C171.493 11.1114 171.466 10.8101 171.466 10.5001C171.466 10.19 171.493 9.88881 171.53 9.58681L171.534 9.55517H171.502H169.952H169.93L169.925 9.57656C169.851 9.87169 169.805 10.1811 169.805 10.5001C169.805 10.8191 169.851 11.1285 169.925 11.4236ZM170.328 12.3052H170.279L170.304 12.3476C170.747 13.1143 171.454 13.7008 172.304 13.9918L172.372 14.0152L172.338 13.9516C172.064 13.4451 171.854 12.8972 171.708 12.3264L171.702 12.3052H171.68H170.328ZM171.68 8.695H171.702L171.708 8.67375C171.854 8.10292 172.064 7.55509 172.338 7.04851L172.372 6.98495L172.304 7.00836C171.454 7.29933 170.747 7.88591 170.304 8.65261L170.279 8.695H170.328H171.68ZM173.477 14.1645L173.5 14.1981L173.523 14.1645C173.905 13.6121 174.204 12.9999 174.402 12.3415L174.413 12.3052H174.375H172.625H172.587L172.597 12.3415C172.795 12.9999 173.095 13.6121 173.477 14.1645ZM174.572 11.445H174.597L174.6 11.4206C174.642 11.1176 174.674 10.8136 174.674 10.5001C174.674 10.1866 174.642 9.87802 174.6 9.57954L174.597 9.55517H174.572H172.427H172.403L172.399 9.57954C172.358 9.87802 172.326 10.1866 172.326 10.5001C172.326 10.8136 172.358 11.1176 172.399 11.4206L172.403 11.445H172.427H174.572ZM174.662 13.9516L174.628 14.0152L174.696 13.9918C175.546 13.7008 176.253 13.1096 176.696 12.3476L176.721 12.3052H176.672H175.32H175.298L175.292 12.3264C175.146 12.8972 174.936 13.4451 174.662 13.9516ZM175.47 11.4133L175.466 11.445H175.498H177.047H177.07L177.075 11.4236C177.149 11.1285 177.195 10.8191 177.195 10.5001C177.195 10.1811 177.149 9.87169 177.075 9.57656L177.07 9.55517H177.047H175.498H175.466L175.47 9.58681C175.507 9.88881 175.534 10.19 175.534 10.5001C175.534 10.8101 175.507 11.1114 175.47 11.4133ZM168.945 10.5001C168.945 7.98565 170.981 5.945 173.495 5.945C176.014 5.945 178.055 7.9857 178.055 10.5001C178.055 13.0145 176.014 15.0552 173.495 15.0552C170.981 15.0552 168.945 13.0145 168.945 10.5001Z" fill="#FFF9F9" stroke="#262733" stroke-width="0.0564972"/>
<g clip-path="url(#clip0_6443_43706)">
<path fill-rule="evenodd" clip-rule="evenodd" d="M107.496 12.9935C107.713 14.2704 107.512 15.5834 106.922 16.7362C106.333 17.889 105.387 18.8197 104.226 19.3892C103.065 19.9587 101.751 20.1364 100.481 19.8958C99.2105 19.6552 98.0521 19.0092 97.1786 18.0543C96.3052 17.0995 95.7635 15.887 95.6347 14.5982C95.5058 13.3093 95.7967 12.0133 96.4638 10.9038C97.1308 9.79432 98.1383 8.93091 99.3356 8.44264C100.533 7.95436 101.856 7.86744 103.107 8.19486C102.715 9.69575 100.171 10.4989 100.171 10.4989C99.4165 10.8065 98.7818 11.3505 98.3615 12.0494C97.9413 12.7484 97.758 13.5649 97.8392 14.3769C97.9204 15.1889 98.2616 15.9527 98.8119 16.5543C99.3622 17.1558 100.092 17.5628 100.892 17.7144C101.692 17.866 102.52 17.754 103.252 17.3952C103.983 17.0364 104.579 16.4501 104.95 15.7238C104.95 15.7238 105.937 13.2593 107.496 12.9935Z" fill="white"/>
<path d="M106.026 9.96663C105.55 9.44081 104.984 9.00457 104.357 8.67749C104.201 8.59637 104.013 8.66775 103.94 8.82755L103.789 9.16044C103.438 9.93321 103.816 10.8302 104.386 11.459C104.956 12.0878 105.812 12.5501 106.615 12.2743L106.958 12.1563C107.123 12.0996 107.212 11.9195 107.147 11.7575C106.882 11.0996 106.503 10.493 106.026 9.96663Z" fill="#FBCF15"/>
<path d="M100.484 14C100.484 14.6173 100.98 15.1111 101.593 15.1111C102.201 15.1111 102.702 14.6173 102.702 14C102.702 13.3877 102.201 12.8889 101.593 12.8889C100.98 12.8889 100.484 13.3877 100.484 14Z" fill="#FBCF15"/>
<rect x="100.284" y="12.6907" width="2.58831" height="2.59418" rx="1.29416" fill="#FBCF15"/>
<path d="M118.669 17.3705V8.05052C117.231 8.05052 116.417 9.20912 116.417 10.6533V16.0066L111.911 9.18383C111.434 8.4613 110.649 7.81218 109.82 8.04999C108.911 8.31039 108.911 9.27345 108.911 10.6293V19.9489C109.345 19.9489 109.722 19.8457 110.037 19.6618C110.766 19.2362 111.163 18.3789 111.163 17.3705L111.129 11.9931L115.669 18.8226C116.146 19.5411 116.928 20.1851 117.756 19.9511C118.669 19.6928 118.669 18.7288 118.669 17.3705Z" fill="white"/>
<path d="M79.1935 17.3792V8C77.969 8 76.9757 9.18941 76.9757 10.6569V20C78.2002 20 79.1935 18.8526 79.1935 17.3792Z" fill="white"/>
<path d="M93.8464 17.3794V8.00022C92.6132 8.00022 91.6128 9.18963 91.6128 10.6572V20.0002C92.846 20.0002 93.8464 18.8529 93.8464 17.3794Z" fill="white"/>
<path d="M71.7947 9.86121L70.7661 11.7268L69.7585 9.89939C68.9035 8.34877 67.3685 7.60109 66.3306 8.22861L69.5127 14L66.3306 19.7714C67.3685 20.3989 68.9035 19.6512 69.7585 18.1006L70.7661 16.2732L71.7947 18.1388C72.6531 19.6957 74.1636 20.3989 75.2015 19.7714L72.0194 14L75.2015 8.22862C74.1636 7.6011 72.6531 8.30434 71.7947 9.86121Z" fill="white"/>
<path d="M81.4112 10.621C81.4112 9.14757 82.4287 8.00022 83.6828 8.00022V17.7502L89.8386 17.7502C89.8386 18.9925 88.5902 20.0002 87.0499 20.0002H81.4112V10.621Z" fill="white"/>
</g>
<rect x="1" y="1" width="182" height="122" rx="7" stroke="#676F7D" stroke-width="2"/>
<defs>
<clipPath id="clip0_6443_43706">
<rect width="55" height="12" fill="white" transform="translate(65 8)"/>
</clipPath>
</defs>
</svg>
