<svg width="184" height="124" viewBox="0 0 184 124" fill="none" xmlns="http://www.w3.org/2000/svg">
<g clip-path="url(#clip0_6453_31279)">
<rect x="2" y="2" width="180" height="120" rx="6" fill="#26292E"/>
<rect x="7" y="-51" width="170" height="170" rx="85" fill="#FEBD46"/>
<path d="M47.1841 58.104C46.9154 58.104 46.7074 58.0303 46.5601 57.883C46.4214 57.727 46.3521 57.5147 46.3521 57.246V49.68C46.3521 49.4027 46.4257 49.1947 46.5731 49.056C46.7204 48.9087 46.9284 48.835 47.1971 48.835H50.3301C51.3354 48.835 52.1111 49.0863 52.6571 49.589C53.2031 50.0917 53.4761 50.7937 53.4761 51.695C53.4761 52.5963 53.2031 53.3027 52.6571 53.814C52.1111 54.3167 51.3354 54.568 50.3301 54.568H48.0161V57.246C48.0161 57.5147 47.9467 57.727 47.8081 57.883C47.6694 58.0303 47.4614 58.104 47.1841 58.104ZM48.0161 53.255H50.0701C50.6594 53.255 51.1057 53.125 51.4091 52.865C51.7124 52.5963 51.8641 52.2063 51.8641 51.695C51.8641 51.1837 51.7124 50.798 51.4091 50.538C51.1057 50.278 50.6594 50.148 50.0701 50.148H48.0161V53.255ZM56.876 58.13C56.3473 58.13 55.9096 58.0347 55.563 57.844C55.2163 57.6447 54.9563 57.35 54.783 56.96C54.6183 56.57 54.536 56.0847 54.536 55.504V52.358C54.536 52.0807 54.6053 51.877 54.744 51.747C54.8826 51.6083 55.082 51.539 55.342 51.539C55.602 51.539 55.8013 51.6083 55.94 51.747C56.0873 51.877 56.161 52.0807 56.161 52.358V55.53C56.161 55.9807 56.252 56.3143 56.434 56.531C56.616 56.7477 56.9063 56.856 57.305 56.856C57.7383 56.856 58.0936 56.7087 58.371 56.414C58.6483 56.1107 58.787 55.712 58.787 55.218V52.358C58.787 52.0807 58.8563 51.877 58.995 51.747C59.1336 51.6083 59.333 51.539 59.593 51.539C59.853 51.539 60.0523 51.6083 60.191 51.747C60.3383 51.877 60.412 52.0807 60.412 52.358V57.272C60.412 57.8267 60.1476 58.104 59.619 58.104C59.3676 58.104 59.1726 58.0347 59.034 57.896C58.8953 57.7487 58.826 57.5407 58.826 57.272V56.284L59.008 56.674C58.826 57.142 58.5486 57.5017 58.176 57.753C57.812 58.0043 57.3786 58.13 56.876 58.13ZM64.2743 58.13C63.555 58.13 63.0133 57.9263 62.6493 57.519C62.2853 57.103 62.1033 56.4963 62.1033 55.699V49.55C62.1033 49.2813 62.1726 49.0777 62.3113 48.939C62.45 48.8003 62.6493 48.731 62.9093 48.731C63.1693 48.731 63.3686 48.8003 63.5073 48.939C63.6546 49.0777 63.7283 49.2813 63.7283 49.55V55.621C63.7283 56.0197 63.8106 56.3143 63.9753 56.505C64.1486 56.6957 64.3913 56.791 64.7033 56.791C64.7726 56.791 64.8376 56.791 64.8983 56.791C64.959 56.7823 65.0196 56.7737 65.0803 56.765C65.2016 56.7477 65.284 56.7823 65.3273 56.869C65.3706 56.947 65.3923 57.1117 65.3923 57.363C65.3923 57.5797 65.349 57.7487 65.2623 57.87C65.1756 57.9913 65.0326 58.065 64.8333 58.091C64.7466 58.0997 64.6556 58.1083 64.5603 58.117C64.465 58.1257 64.3696 58.13 64.2743 58.13ZM68.5182 58.13C68.1455 58.13 67.7512 58.091 67.3352 58.013C66.9192 57.935 66.5465 57.8007 66.2172 57.61C66.0785 57.5233 65.9789 57.4237 65.9182 57.311C65.8662 57.1897 65.8445 57.0727 65.8532 56.96C65.8705 56.8387 65.9139 56.7347 65.9832 56.648C66.0612 56.5613 66.1565 56.505 66.2692 56.479C66.3905 56.453 66.5205 56.4747 66.6592 56.544C67.0059 56.7087 67.3309 56.8257 67.6342 56.895C67.9375 56.9557 68.2365 56.986 68.5312 56.986C68.9472 56.986 69.2549 56.9167 69.4542 56.778C69.6622 56.6307 69.7662 56.44 69.7662 56.206C69.7662 56.0067 69.6969 55.855 69.5582 55.751C69.4282 55.6383 69.2289 55.556 68.9602 55.504L67.6602 55.257C67.1229 55.153 66.7112 54.958 66.4252 54.672C66.1479 54.3773 66.0092 54.0003 66.0092 53.541C66.0092 53.125 66.1219 52.7653 66.3472 52.462C66.5812 52.1587 66.9019 51.9247 67.3092 51.76C67.7165 51.5953 68.1845 51.513 68.7132 51.513C69.0945 51.513 69.4499 51.5563 69.7792 51.643C70.1172 51.721 70.4422 51.8467 70.7542 52.02C70.8842 52.0893 70.9709 52.1803 71.0142 52.293C71.0662 52.4057 71.0792 52.5227 71.0532 52.644C71.0272 52.7567 70.9752 52.8607 70.8972 52.956C70.8192 53.0427 70.7195 53.099 70.5982 53.125C70.4855 53.1423 70.3555 53.1163 70.2082 53.047C69.9395 52.9083 69.6795 52.8087 69.4282 52.748C69.1855 52.6873 68.9515 52.657 68.7262 52.657C68.3015 52.657 67.9852 52.7307 67.7772 52.878C67.5779 53.0253 67.4782 53.2203 67.4782 53.463C67.4782 53.645 67.5389 53.7967 67.6602 53.918C67.7815 54.0393 67.9679 54.1217 68.2192 54.165L69.5192 54.412C70.0825 54.516 70.5072 54.7067 70.7932 54.984C71.0879 55.2613 71.2352 55.634 71.2352 56.102C71.2352 56.7347 70.9882 57.233 70.4942 57.597C70.0002 57.9523 69.3415 58.13 68.5182 58.13ZM74.6318 58.13C74.1725 58.13 73.7608 58.0433 73.3968 57.87C73.0415 57.688 72.7598 57.4453 72.5518 57.142C72.3525 56.8387 72.2528 56.4963 72.2528 56.115C72.2528 55.647 72.3742 55.2787 72.6168 55.01C72.8595 54.7327 73.2538 54.5333 73.7998 54.412C74.3458 54.2907 75.0782 54.23 75.9968 54.23H76.6468V55.166H76.0098C75.4725 55.166 75.0435 55.192 74.7228 55.244C74.4022 55.296 74.1725 55.387 74.0338 55.517C73.9038 55.6383 73.8388 55.8117 73.8388 56.037C73.8388 56.323 73.9385 56.557 74.1378 56.739C74.3372 56.921 74.6145 57.012 74.9698 57.012C75.2558 57.012 75.5072 56.947 75.7238 56.817C75.9492 56.6783 76.1268 56.492 76.2568 56.258C76.3868 56.024 76.4518 55.7553 76.4518 55.452V53.957C76.4518 53.5237 76.3565 53.2117 76.1658 53.021C75.9752 52.8303 75.6545 52.735 75.2038 52.735C74.9525 52.735 74.6795 52.7653 74.3848 52.826C74.0988 52.8867 73.7955 52.9907 73.4748 53.138C73.3102 53.216 73.1628 53.2377 73.0328 53.203C72.9115 53.1683 72.8162 53.099 72.7468 52.995C72.6775 52.8823 72.6428 52.761 72.6428 52.631C72.6428 52.501 72.6775 52.3753 72.7468 52.254C72.8162 52.124 72.9332 52.0287 73.0978 51.968C73.4965 51.8033 73.8778 51.6863 74.2418 51.617C74.6145 51.5477 74.9525 51.513 75.2558 51.513C75.8798 51.513 76.3912 51.6083 76.7898 51.799C77.1972 51.9897 77.5005 52.28 77.6998 52.67C77.8992 53.0513 77.9988 53.5453 77.9988 54.152V57.272C77.9988 57.5407 77.9338 57.7487 77.8038 57.896C77.6738 58.0347 77.4875 58.104 77.2448 58.104C77.0022 58.104 76.8115 58.0347 76.6728 57.896C76.5428 57.7487 76.4778 57.5407 76.4778 57.272V56.648H76.5818C76.5212 56.9513 76.3998 57.2157 76.2178 57.441C76.0445 57.6577 75.8235 57.8267 75.5548 57.948C75.2862 58.0693 74.9785 58.13 74.6318 58.13ZM85.2705 58.13C84.8112 58.13 84.3995 58.0433 84.0355 57.87C83.6802 57.688 83.3985 57.4453 83.1905 57.142C82.9912 56.8387 82.8915 56.4963 82.8915 56.115C82.8915 55.647 83.0129 55.2787 83.2555 55.01C83.4982 54.7327 83.8925 54.5333 84.4385 54.412C84.9845 54.2907 85.7169 54.23 86.6355 54.23H87.2855V55.166H86.6485C86.1112 55.166 85.6822 55.192 85.3615 55.244C85.0409 55.296 84.8112 55.387 84.6725 55.517C84.5425 55.6383 84.4775 55.8117 84.4775 56.037C84.4775 56.323 84.5772 56.557 84.7765 56.739C84.9759 56.921 85.2532 57.012 85.6085 57.012C85.8945 57.012 86.1459 56.947 86.3625 56.817C86.5879 56.6783 86.7655 56.492 86.8955 56.258C87.0255 56.024 87.0905 55.7553 87.0905 55.452V53.957C87.0905 53.5237 86.9952 53.2117 86.8045 53.021C86.6139 52.8303 86.2932 52.735 85.8425 52.735C85.5912 52.735 85.3182 52.7653 85.0235 52.826C84.7375 52.8867 84.4342 52.9907 84.1135 53.138C83.9489 53.216 83.8015 53.2377 83.6715 53.203C83.5502 53.1683 83.4549 53.099 83.3855 52.995C83.3162 52.8823 83.2815 52.761 83.2815 52.631C83.2815 52.501 83.3162 52.3753 83.3855 52.254C83.4549 52.124 83.5719 52.0287 83.7365 51.968C84.1352 51.8033 84.5165 51.6863 84.8805 51.617C85.2532 51.5477 85.5912 51.513 85.8945 51.513C86.5185 51.513 87.0299 51.6083 87.4285 51.799C87.8359 51.9897 88.1392 52.28 88.3385 52.67C88.5379 53.0513 88.6375 53.5453 88.6375 54.152V57.272C88.6375 57.5407 88.5725 57.7487 88.4425 57.896C88.3125 58.0347 88.1262 58.104 87.8835 58.104C87.6409 58.104 87.4502 58.0347 87.3115 57.896C87.1815 57.7487 87.1165 57.5407 87.1165 57.272V56.648H87.2205C87.1599 56.9513 87.0385 57.2157 86.8565 57.441C86.6832 57.6577 86.4622 57.8267 86.1935 57.948C85.9249 58.0693 85.6172 58.13 85.2705 58.13ZM95.5779 60.444C95.3179 60.444 95.1186 60.3747 94.9799 60.236C94.8412 60.0973 94.7719 59.8937 94.7719 59.625V56.7H94.9149C94.7762 57.1247 94.5076 57.4713 94.1089 57.74C93.7189 58 93.2596 58.13 92.7309 58.13C92.1762 58.13 91.6866 57.9957 91.2619 57.727C90.8459 57.4583 90.5209 57.077 90.2869 56.583C90.0529 56.0803 89.9359 55.491 89.9359 54.815C89.9359 54.1303 90.0529 53.5453 90.2869 53.06C90.5209 52.566 90.8459 52.1847 91.2619 51.916C91.6866 51.6473 92.1762 51.513 92.7309 51.513C93.2682 51.513 93.7362 51.6473 94.1349 51.916C94.5336 52.1847 94.7979 52.54 94.9279 52.982L94.7849 53.372V52.358C94.7849 52.0893 94.8542 51.8857 94.9929 51.747C95.1316 51.6083 95.3309 51.539 95.5909 51.539C95.8509 51.539 96.0502 51.6083 96.1889 51.747C96.3276 51.8857 96.3969 52.0893 96.3969 52.358V59.625C96.3969 59.8937 96.3232 60.0973 96.1759 60.236C96.0372 60.3747 95.8379 60.444 95.5779 60.444ZM93.1859 56.895C93.5066 56.895 93.7882 56.817 94.0309 56.661C94.2736 56.505 94.4599 56.2753 94.5899 55.972C94.7286 55.66 94.7979 55.2743 94.7979 54.815C94.7979 54.1217 94.6506 53.606 94.3559 53.268C94.0612 52.9213 93.6712 52.748 93.1859 52.748C92.8652 52.748 92.5836 52.826 92.3409 52.982C92.0982 53.1293 91.9076 53.359 91.7689 53.671C91.6389 53.9743 91.5739 54.3557 91.5739 54.815C91.5739 55.4997 91.7212 56.0197 92.0159 56.375C92.3106 56.7217 92.7006 56.895 93.1859 56.895ZM100.383 58.13C99.8541 58.13 99.4165 58.0347 99.0698 57.844C98.7231 57.6447 98.4631 57.35 98.2898 56.96C98.1251 56.57 98.0428 56.0847 98.0428 55.504V52.358C98.0428 52.0807 98.1121 51.877 98.2508 51.747C98.3895 51.6083 98.5888 51.539 98.8488 51.539C99.1088 51.539 99.3081 51.6083 99.4468 51.747C99.5941 51.877 99.6678 52.0807 99.6678 52.358V55.53C99.6678 55.9807 99.7588 56.3143 99.9408 56.531C100.123 56.7477 100.413 56.856 100.812 56.856C101.245 56.856 101.6 56.7087 101.878 56.414C102.155 56.1107 102.294 55.712 102.294 55.218V52.358C102.294 52.0807 102.363 51.877 102.502 51.747C102.64 51.6083 102.84 51.539 103.1 51.539C103.36 51.539 103.559 51.6083 103.698 51.747C103.845 51.877 103.919 52.0807 103.919 52.358V57.272C103.919 57.8267 103.654 58.104 103.126 58.104C102.874 58.104 102.679 58.0347 102.541 57.896C102.402 57.7487 102.333 57.5407 102.333 57.272V56.284L102.515 56.674C102.333 57.142 102.055 57.5017 101.683 57.753C101.319 58.0043 100.885 58.13 100.383 58.13ZM106.416 58.091C106.156 58.091 105.957 58.013 105.818 57.857C105.679 57.701 105.61 57.4843 105.61 57.207V52.436C105.61 52.15 105.679 51.9333 105.818 51.786C105.957 51.63 106.156 51.552 106.416 51.552C106.676 51.552 106.875 51.63 107.014 51.786C107.161 51.9333 107.235 52.15 107.235 52.436V57.207C107.235 57.4843 107.166 57.701 107.027 57.857C106.888 58.013 106.685 58.091 106.416 58.091ZM107.027 50.72C106.94 50.8413 106.836 50.9107 106.715 50.928C106.594 50.9453 106.477 50.9237 106.364 50.863C106.251 50.8023 106.169 50.7157 106.117 50.603C106.074 50.4903 106.087 50.3647 106.156 50.226L107.144 48.289C107.222 48.1243 107.326 48.0203 107.456 47.977C107.586 47.925 107.72 47.9163 107.859 47.951C107.998 47.9857 108.115 48.0507 108.21 48.146C108.314 48.2413 108.375 48.3583 108.392 48.497C108.418 48.627 108.383 48.7613 108.288 48.9L107.027 50.72ZM113.259 60.444C112.999 60.444 112.8 60.3747 112.661 60.236C112.522 60.0973 112.453 59.8937 112.453 59.625V52.358C112.453 52.0893 112.522 51.8857 112.661 51.747C112.8 51.6083 112.995 51.539 113.246 51.539C113.506 51.539 113.705 51.6083 113.844 51.747C113.983 51.8857 114.052 52.0893 114.052 52.358V53.372L113.909 52.982C114.039 52.54 114.303 52.1847 114.702 51.916C115.109 51.6473 115.582 51.513 116.119 51.513C116.674 51.513 117.159 51.6473 117.575 51.916C118 52.1847 118.329 52.566 118.563 53.06C118.797 53.5453 118.914 54.1303 118.914 54.815C118.914 55.491 118.797 56.0803 118.563 56.583C118.329 57.077 118.004 57.4583 117.588 57.727C117.172 57.9957 116.682 58.13 116.119 58.13C115.59 58.13 115.127 58 114.728 57.74C114.329 57.4713 114.061 57.1247 113.922 56.7H114.078V59.625C114.078 59.8937 114.004 60.0973 113.857 60.236C113.718 60.3747 113.519 60.444 113.259 60.444ZM115.664 56.895C115.985 56.895 116.266 56.817 116.509 56.661C116.752 56.505 116.938 56.2753 117.068 55.972C117.207 55.66 117.276 55.2743 117.276 54.815C117.276 54.1217 117.129 53.606 116.834 53.268C116.539 52.9213 116.149 52.748 115.664 52.748C115.343 52.748 115.062 52.826 114.819 52.982C114.576 53.1293 114.386 53.359 114.247 53.671C114.117 53.9743 114.052 54.3557 114.052 54.815C114.052 55.4997 114.199 56.0197 114.494 56.375C114.789 56.7217 115.179 56.895 115.664 56.895ZM122.341 58.13C121.881 58.13 121.47 58.0433 121.106 57.87C120.75 57.688 120.469 57.4453 120.261 57.142C120.061 56.8387 119.962 56.4963 119.962 56.115C119.962 55.647 120.083 55.2787 120.326 55.01C120.568 54.7327 120.963 54.5333 121.509 54.412C122.055 54.2907 122.787 54.23 123.706 54.23H124.356V55.166H123.719C123.181 55.166 122.752 55.192 122.432 55.244C122.111 55.296 121.881 55.387 121.743 55.517C121.613 55.6383 121.548 55.8117 121.548 56.037C121.548 56.323 121.647 56.557 121.847 56.739C122.046 56.921 122.323 57.012 122.679 57.012C122.965 57.012 123.216 56.947 123.433 56.817C123.658 56.6783 123.836 56.492 123.966 56.258C124.096 56.024 124.161 55.7553 124.161 55.452V53.957C124.161 53.5237 124.065 53.2117 123.875 53.021C123.684 52.8303 123.363 52.735 122.913 52.735C122.661 52.735 122.388 52.7653 122.094 52.826C121.808 52.8867 121.504 52.9907 121.184 53.138C121.019 53.216 120.872 53.2377 120.742 53.203C120.62 53.1683 120.525 53.099 120.456 52.995C120.386 52.8823 120.352 52.761 120.352 52.631C120.352 52.501 120.386 52.3753 120.456 52.254C120.525 52.124 120.642 52.0287 120.807 51.968C121.205 51.8033 121.587 51.6863 121.951 51.617C122.323 51.5477 122.661 51.513 122.965 51.513C123.589 51.513 124.1 51.6083 124.499 51.799C124.906 51.9897 125.209 52.28 125.409 52.67C125.608 53.0513 125.708 53.5453 125.708 54.152V57.272C125.708 57.5407 125.643 57.7487 125.513 57.896C125.383 58.0347 125.196 58.104 124.954 58.104C124.711 58.104 124.52 58.0347 124.382 57.896C124.252 57.7487 124.187 57.5407 124.187 57.272V56.648H124.291C124.23 56.9513 124.109 57.2157 123.927 57.441C123.753 57.6577 123.532 57.8267 123.264 57.948C122.995 58.0693 122.687 58.13 122.341 58.13ZM128.189 58.104C127.921 58.104 127.713 58.0347 127.565 57.896C127.427 57.7487 127.357 57.5407 127.357 57.272V52.358C127.357 52.0893 127.427 51.8857 127.565 51.747C127.704 51.6083 127.899 51.539 128.15 51.539C128.402 51.539 128.597 51.6083 128.735 51.747C128.874 51.8857 128.943 52.0893 128.943 52.358V53.177H128.813C128.935 52.657 129.173 52.2627 129.528 51.994C129.884 51.7253 130.356 51.565 130.945 51.513C131.127 51.4957 131.27 51.5433 131.374 51.656C131.487 51.76 131.552 51.9247 131.569 52.15C131.587 52.3667 131.535 52.5443 131.413 52.683C131.301 52.813 131.127 52.891 130.893 52.917L130.607 52.943C130.079 52.995 129.68 53.1597 129.411 53.437C129.143 53.7057 129.008 54.087 129.008 54.581V57.272C129.008 57.5407 128.939 57.7487 128.8 57.896C128.662 58.0347 128.458 58.104 128.189 58.104ZM134.478 58.13C134.018 58.13 133.607 58.0433 133.243 57.87C132.887 57.688 132.606 57.4453 132.398 57.142C132.198 56.8387 132.099 56.4963 132.099 56.115C132.099 55.647 132.22 55.2787 132.463 55.01C132.705 54.7327 133.1 54.5333 133.646 54.412C134.192 54.2907 134.924 54.23 135.843 54.23H136.493V55.166H135.856C135.318 55.166 134.889 55.192 134.569 55.244C134.248 55.296 134.018 55.387 133.88 55.517C133.75 55.6383 133.685 55.8117 133.685 56.037C133.685 56.323 133.784 56.557 133.984 56.739C134.183 56.921 134.46 57.012 134.816 57.012C135.102 57.012 135.353 56.947 135.57 56.817C135.795 56.6783 135.973 56.492 136.103 56.258C136.233 56.024 136.298 55.7553 136.298 55.452V53.957C136.298 53.5237 136.202 53.2117 136.012 53.021C135.821 52.8303 135.5 52.735 135.05 52.735C134.798 52.735 134.525 52.7653 134.231 52.826C133.945 52.8867 133.641 52.9907 133.321 53.138C133.156 53.216 133.009 53.2377 132.879 53.203C132.757 53.1683 132.662 53.099 132.593 52.995C132.523 52.8823 132.489 52.761 132.489 52.631C132.489 52.501 132.523 52.3753 132.593 52.254C132.662 52.124 132.779 52.0287 132.944 51.968C133.342 51.8033 133.724 51.6863 134.088 51.617C134.46 51.5477 134.798 51.513 135.102 51.513C135.726 51.513 136.237 51.6083 136.636 51.799C137.043 51.9897 137.346 52.28 137.546 52.67C137.745 53.0513 137.845 53.5453 137.845 54.152V57.272C137.845 57.5407 137.78 57.7487 137.65 57.896C137.52 58.0347 137.333 58.104 137.091 58.104C136.848 58.104 136.657 58.0347 136.519 57.896C136.389 57.7487 136.324 57.5407 136.324 57.272V56.648H136.428C136.367 56.9513 136.246 57.2157 136.064 57.441C135.89 57.6577 135.669 57.8267 135.401 57.948C135.132 58.0693 134.824 58.13 134.478 58.13ZM43.5735 76.13C42.9062 76.13 42.3255 75.9957 41.8315 75.727C41.3375 75.4497 40.9562 75.0597 40.6875 74.557C40.4189 74.0543 40.2845 73.465 40.2845 72.789C40.2845 72.2777 40.3582 71.8227 40.5055 71.424C40.6615 71.0167 40.8825 70.6743 41.1685 70.397C41.4545 70.111 41.8012 69.8943 42.2085 69.747C42.6159 69.591 43.0709 69.513 43.5735 69.513C43.8595 69.513 44.1672 69.552 44.4965 69.63C44.8345 69.708 45.1509 69.838 45.4455 70.02C45.5842 70.1067 45.6752 70.2107 45.7185 70.332C45.7619 70.4533 45.7705 70.579 45.7445 70.709C45.7185 70.8303 45.6622 70.9387 45.5755 71.034C45.4975 71.1207 45.3979 71.177 45.2765 71.203C45.1552 71.2203 45.0209 71.19 44.8735 71.112C44.6829 70.9993 44.4879 70.917 44.2885 70.865C44.0892 70.8043 43.8985 70.774 43.7165 70.774C43.4305 70.774 43.1792 70.8217 42.9625 70.917C42.7459 71.0037 42.5595 71.1337 42.4035 71.307C42.2562 71.4717 42.1435 71.6797 42.0655 71.931C41.9875 72.1823 41.9485 72.4727 41.9485 72.802C41.9485 73.4433 42.1002 73.9503 42.4035 74.323C42.7155 74.687 43.1532 74.869 43.7165 74.869C43.8985 74.869 44.0849 74.843 44.2755 74.791C44.4749 74.739 44.6742 74.6567 44.8735 74.544C45.0209 74.466 45.1509 74.44 45.2635 74.466C45.3849 74.492 45.4845 74.5527 45.5625 74.648C45.6405 74.7347 45.6882 74.843 45.7055 74.973C45.7229 75.0943 45.7055 75.2157 45.6535 75.337C45.6102 75.4583 45.5235 75.558 45.3935 75.636C45.1075 75.8093 44.8042 75.935 44.4835 76.013C44.1629 76.091 43.8595 76.13 43.5735 76.13ZM49.5394 76.13C48.8807 76.13 48.3087 75.9957 47.8234 75.727C47.3381 75.4583 46.9611 75.077 46.6924 74.583C46.4237 74.0803 46.2894 73.491 46.2894 72.815C46.2894 72.3037 46.3631 71.8487 46.5104 71.45C46.6664 71.0427 46.8874 70.696 47.1734 70.41C47.4594 70.1153 47.8017 69.8943 48.2004 69.747C48.5991 69.591 49.0454 69.513 49.5394 69.513C50.1981 69.513 50.7701 69.6473 51.2554 69.916C51.7407 70.1847 52.1177 70.566 52.3864 71.06C52.6551 71.554 52.7894 72.139 52.7894 72.815C52.7894 73.3263 52.7114 73.7857 52.5554 74.193C52.4081 74.6003 52.1914 74.9513 51.9054 75.246C51.6194 75.532 51.2771 75.753 50.8784 75.909C50.4797 76.0563 50.0334 76.13 49.5394 76.13ZM49.5394 74.895C49.8601 74.895 50.1417 74.817 50.3844 74.661C50.6271 74.505 50.8134 74.2753 50.9434 73.972C51.0821 73.66 51.1514 73.2743 51.1514 72.815C51.1514 72.1217 51.0041 71.606 50.7094 71.268C50.4147 70.9213 50.0247 70.748 49.5394 70.748C49.2187 70.748 48.9371 70.826 48.6944 70.982C48.4517 71.1293 48.2611 71.359 48.1224 71.671C47.9924 71.9743 47.9274 72.3557 47.9274 72.815C47.9274 73.4997 48.0747 74.0197 48.3694 74.375C48.6641 74.7217 49.0541 74.895 49.5394 74.895ZM54.9626 76.104C54.7026 76.104 54.5033 76.0347 54.3646 75.896C54.226 75.7487 54.1566 75.5407 54.1566 75.272V70.358C54.1566 70.0893 54.226 69.8857 54.3646 69.747C54.5033 69.6083 54.6983 69.539 54.9496 69.539C55.201 69.539 55.396 69.6083 55.5346 69.747C55.6733 69.8857 55.7426 70.0893 55.7426 70.358V71.307L55.5996 70.917C55.773 70.4837 56.0416 70.1413 56.4056 69.89C56.7696 69.6387 57.203 69.513 57.7056 69.513C58.217 69.513 58.6373 69.6343 58.9666 69.877C59.296 70.1197 59.5256 70.4923 59.6556 70.995H59.4736C59.647 70.5357 59.933 70.176 60.3316 69.916C60.7303 69.6473 61.1896 69.513 61.7096 69.513C62.195 69.513 62.5936 69.6083 62.9056 69.799C63.2263 69.9897 63.4646 70.28 63.6206 70.67C63.7766 71.0513 63.8546 71.5367 63.8546 72.126V75.272C63.8546 75.5407 63.781 75.7487 63.6336 75.896C63.495 76.0347 63.2956 76.104 63.0356 76.104C62.7756 76.104 62.5763 76.0347 62.4376 75.896C62.299 75.7487 62.2296 75.5407 62.2296 75.272V72.191C62.2296 71.7057 62.1473 71.3503 61.9826 71.125C61.8266 70.8997 61.558 70.787 61.1766 70.787C60.752 70.787 60.4183 70.9387 60.1756 71.242C59.933 71.5367 59.8116 71.9483 59.8116 72.477V75.272C59.8116 75.5407 59.7423 75.7487 59.6036 75.896C59.465 76.0347 59.2656 76.104 59.0056 76.104C58.7456 76.104 58.542 76.0347 58.3946 75.896C58.256 75.7487 58.1866 75.5407 58.1866 75.272V72.191C58.1866 71.7057 58.1043 71.3503 57.9396 71.125C57.7836 70.8997 57.5193 70.787 57.1466 70.787C56.722 70.787 56.3883 70.9387 56.1456 71.242C55.903 71.5367 55.7816 71.9483 55.7816 72.477V75.272C55.7816 75.8267 55.5086 76.104 54.9626 76.104ZM66.337 78.444C66.077 78.444 65.8777 78.3747 65.739 78.236C65.6004 78.0973 65.531 77.8937 65.531 77.625V70.358C65.531 70.0893 65.6004 69.8857 65.739 69.747C65.8777 69.6083 66.0727 69.539 66.324 69.539C66.584 69.539 66.7834 69.6083 66.922 69.747C67.0607 69.8857 67.13 70.0893 67.13 70.358V71.372L66.987 70.982C67.117 70.54 67.3814 70.1847 67.78 69.916C68.1874 69.6473 68.6597 69.513 69.197 69.513C69.7517 69.513 70.237 69.6473 70.653 69.916C71.0777 70.1847 71.407 70.566 71.641 71.06C71.875 71.5453 71.992 72.1303 71.992 72.815C71.992 73.491 71.875 74.0803 71.641 74.583C71.407 75.077 71.082 75.4583 70.666 75.727C70.25 75.9957 69.7604 76.13 69.197 76.13C68.6684 76.13 68.2047 76 67.806 75.74C67.4074 75.4713 67.1387 75.1247 67 74.7H67.156V77.625C67.156 77.8937 67.0824 78.0973 66.935 78.236C66.7964 78.3747 66.597 78.444 66.337 78.444ZM68.742 74.895C69.0627 74.895 69.3444 74.817 69.587 74.661C69.8297 74.505 70.016 74.2753 70.146 73.972C70.2847 73.66 70.354 73.2743 70.354 72.815C70.354 72.1217 70.2067 71.606 69.912 71.268C69.6174 70.9213 69.2274 70.748 68.742 70.748C68.4214 70.748 68.1397 70.826 67.897 70.982C67.6544 71.1293 67.4637 71.359 67.325 71.671C67.195 71.9743 67.13 72.3557 67.13 72.815C67.13 73.4997 67.2774 74.0197 67.572 74.375C67.8667 74.7217 68.2567 74.895 68.742 74.895ZM74.158 76.104C73.8893 76.104 73.6813 76.0347 73.534 75.896C73.3953 75.7487 73.326 75.5407 73.326 75.272V70.358C73.326 70.0893 73.3953 69.8857 73.534 69.747C73.6726 69.6083 73.8676 69.539 74.119 69.539C74.3703 69.539 74.5653 69.6083 74.704 69.747C74.8426 69.8857 74.912 70.0893 74.912 70.358V71.177H74.782C74.9033 70.657 75.1416 70.2627 75.497 69.994C75.8523 69.7253 76.3246 69.565 76.914 69.513C77.096 69.4957 77.239 69.5433 77.343 69.656C77.4556 69.76 77.5206 69.9247 77.538 70.15C77.5553 70.3667 77.5033 70.5443 77.382 70.683C77.2693 70.813 77.096 70.891 76.862 70.917L76.576 70.943C76.0473 70.995 75.6486 71.1597 75.38 71.437C75.1113 71.7057 74.977 72.087 74.977 72.581V75.272C74.977 75.5407 74.9076 75.7487 74.769 75.896C74.6303 76.0347 74.4266 76.104 74.158 76.104ZM80.4463 76.13C79.987 76.13 79.5753 76.0433 79.2113 75.87C78.856 75.688 78.5743 75.4453 78.3663 75.142C78.167 74.8387 78.0673 74.4963 78.0673 74.115C78.0673 73.647 78.1886 73.2787 78.4313 73.01C78.674 72.7327 79.0683 72.5333 79.6143 72.412C80.1603 72.2907 80.8926 72.23 81.8113 72.23H82.4613V73.166H81.8243C81.287 73.166 80.858 73.192 80.5373 73.244C80.2166 73.296 79.987 73.387 79.8483 73.517C79.7183 73.6383 79.6533 73.8117 79.6533 74.037C79.6533 74.323 79.753 74.557 79.9523 74.739C80.1516 74.921 80.429 75.012 80.7843 75.012C81.0703 75.012 81.3216 74.947 81.5383 74.817C81.7636 74.6783 81.9413 74.492 82.0713 74.258C82.2013 74.024 82.2663 73.7553 82.2663 73.452V71.957C82.2663 71.5237 82.171 71.2117 81.9803 71.021C81.7896 70.8303 81.469 70.735 81.0183 70.735C80.767 70.735 80.494 70.7653 80.1993 70.826C79.9133 70.8867 79.61 70.9907 79.2893 71.138C79.1246 71.216 78.9773 71.2377 78.8473 71.203C78.726 71.1683 78.6306 71.099 78.5613 70.995C78.492 70.8823 78.4573 70.761 78.4573 70.631C78.4573 70.501 78.492 70.3753 78.5613 70.254C78.6306 70.124 78.7476 70.0287 78.9123 69.968C79.311 69.8033 79.6923 69.6863 80.0563 69.617C80.429 69.5477 80.767 69.513 81.0703 69.513C81.6943 69.513 82.2056 69.6083 82.6043 69.799C83.0116 69.9897 83.315 70.28 83.5143 70.67C83.7136 71.0513 83.8133 71.5453 83.8133 72.152V75.272C83.8133 75.5407 83.7483 75.7487 83.6183 75.896C83.4883 76.0347 83.302 76.104 83.0593 76.104C82.8166 76.104 82.626 76.0347 82.4873 75.896C82.3573 75.7487 82.2923 75.5407 82.2923 75.272V74.648H82.3963C82.3356 74.9513 82.2143 75.2157 82.0323 75.441C81.859 75.6577 81.638 75.8267 81.3693 75.948C81.1006 76.0693 80.793 76.13 80.4463 76.13ZM86.2947 76.104C86.026 76.104 85.818 76.0347 85.6707 75.896C85.532 75.7487 85.4627 75.5407 85.4627 75.272V70.358C85.4627 70.0893 85.532 69.8857 85.6707 69.747C85.8093 69.6083 86.0043 69.539 86.2557 69.539C86.507 69.539 86.702 69.6083 86.8407 69.747C86.9793 69.8857 87.0487 70.0893 87.0487 70.358V71.177H86.9187C87.04 70.657 87.2783 70.2627 87.6337 69.994C87.989 69.7253 88.4613 69.565 89.0507 69.513C89.2327 69.4957 89.3757 69.5433 89.4797 69.656C89.5923 69.76 89.6573 69.9247 89.6747 70.15C89.692 70.3667 89.64 70.5443 89.5187 70.683C89.406 70.813 89.2327 70.891 88.9987 70.917L88.7127 70.943C88.184 70.995 87.7853 71.1597 87.5167 71.437C87.248 71.7057 87.1137 72.087 87.1137 72.581V75.272C87.1137 75.5407 87.0443 75.7487 86.9057 75.896C86.767 76.0347 86.5633 76.104 86.2947 76.104ZM97.0468 78.47C96.5788 78.47 96.1238 78.4267 95.6818 78.34C95.2485 78.2533 94.8541 78.119 94.4988 77.937C94.3341 77.8503 94.2215 77.7463 94.1608 77.625C94.1088 77.5037 94.0915 77.378 94.1088 77.248C94.1348 77.1267 94.1868 77.0183 94.2648 76.923C94.3515 76.8277 94.4555 76.7627 94.5768 76.728C94.6981 76.6933 94.8238 76.7107 94.9538 76.78C95.3351 76.9707 95.6948 77.092 96.0328 77.144C96.3795 77.2047 96.6741 77.235 96.9168 77.235C97.4975 77.235 97.9308 77.092 98.2168 76.806C98.5115 76.5287 98.6588 76.1127 98.6588 75.558V74.388H98.7758C98.6458 74.83 98.3728 75.1853 97.9568 75.454C97.5495 75.714 97.0858 75.844 96.5658 75.844C95.9938 75.844 95.4955 75.714 95.0708 75.454C94.6461 75.1853 94.3168 74.8127 94.0828 74.336C93.8488 73.8593 93.7318 73.3047 93.7318 72.672C93.7318 72.1953 93.7968 71.7663 93.9268 71.385C94.0655 70.995 94.2561 70.6613 94.4988 70.384C94.7501 70.1067 95.0491 69.8943 95.3958 69.747C95.7511 69.591 96.1411 69.513 96.5658 69.513C97.1031 69.513 97.5711 69.6473 97.9698 69.916C98.3771 70.176 98.6415 70.5227 98.7628 70.956L98.6328 71.281V70.358C98.6328 70.0893 98.7021 69.8857 98.8408 69.747C98.9881 69.6083 99.1875 69.539 99.4388 69.539C99.6988 69.539 99.8981 69.6083 100.037 69.747C100.175 69.8857 100.245 70.0893 100.245 70.358V75.363C100.245 76.3943 99.9718 77.17 99.4258 77.69C98.8798 78.21 98.0868 78.47 97.0468 78.47ZM97.0078 74.609C97.3458 74.609 97.6361 74.531 97.8788 74.375C98.1215 74.219 98.3078 73.998 98.4378 73.712C98.5765 73.4173 98.6458 73.0707 98.6458 72.672C98.6458 72.074 98.4985 71.606 98.2038 71.268C97.9091 70.9213 97.5105 70.748 97.0078 70.748C96.6698 70.748 96.3795 70.826 96.1368 70.982C95.8941 71.138 95.7035 71.359 95.5648 71.645C95.4348 71.931 95.3698 72.2733 95.3698 72.672C95.3698 73.27 95.5171 73.7423 95.8118 74.089C96.1065 74.4357 96.5051 74.609 97.0078 74.609ZM104.021 76.13C103.562 76.13 103.15 76.0433 102.786 75.87C102.431 75.688 102.149 75.4453 101.941 75.142C101.742 74.8387 101.642 74.4963 101.642 74.115C101.642 73.647 101.764 73.2787 102.006 73.01C102.249 72.7327 102.643 72.5333 103.189 72.412C103.735 72.2907 104.468 72.23 105.386 72.23H106.036V73.166H105.399C104.862 73.166 104.433 73.192 104.112 73.244C103.792 73.296 103.562 73.387 103.423 73.517C103.293 73.6383 103.228 73.8117 103.228 74.037C103.228 74.323 103.328 74.557 103.527 74.739C103.727 74.921 104.004 75.012 104.359 75.012C104.645 75.012 104.897 74.947 105.113 74.817C105.339 74.6783 105.516 74.492 105.646 74.258C105.776 74.024 105.841 73.7553 105.841 73.452V71.957C105.841 71.5237 105.746 71.2117 105.555 71.021C105.365 70.8303 105.044 70.735 104.593 70.735C104.342 70.735 104.069 70.7653 103.774 70.826C103.488 70.8867 103.185 70.9907 102.864 71.138C102.7 71.216 102.552 71.2377 102.422 71.203C102.301 71.1683 102.206 71.099 102.136 70.995C102.067 70.8823 102.032 70.761 102.032 70.631C102.032 70.501 102.067 70.3753 102.136 70.254C102.206 70.124 102.323 70.0287 102.487 69.968C102.886 69.8033 103.267 69.6863 103.631 69.617C104.004 69.5477 104.342 69.513 104.645 69.513C105.269 69.513 105.781 69.6083 106.179 69.799C106.587 69.9897 106.89 70.28 107.089 70.67C107.289 71.0513 107.388 71.5453 107.388 72.152V75.272C107.388 75.5407 107.323 75.7487 107.193 75.896C107.063 76.0347 106.877 76.104 106.634 76.104C106.392 76.104 106.201 76.0347 106.062 75.896C105.932 75.7487 105.867 75.5407 105.867 75.272V74.648H105.971C105.911 74.9513 105.789 75.2157 105.607 75.441C105.434 75.6577 105.213 75.8267 104.944 75.948C104.676 76.0693 104.368 76.13 104.021 76.13ZM111.365 76.13C110.992 76.13 110.598 76.091 110.182 76.013C109.766 75.935 109.393 75.8007 109.064 75.61C108.925 75.5233 108.826 75.4237 108.765 75.311C108.713 75.1897 108.691 75.0727 108.7 74.96C108.717 74.8387 108.761 74.7347 108.83 74.648C108.908 74.5613 109.003 74.505 109.116 74.479C109.237 74.453 109.367 74.4747 109.506 74.544C109.853 74.7087 110.178 74.8257 110.481 74.895C110.784 74.9557 111.083 74.986 111.378 74.986C111.794 74.986 112.102 74.9167 112.301 74.778C112.509 74.6307 112.613 74.44 112.613 74.206C112.613 74.0067 112.544 73.855 112.405 73.751C112.275 73.6383 112.076 73.556 111.807 73.504L110.507 73.257C109.97 73.153 109.558 72.958 109.272 72.672C108.995 72.3773 108.856 72.0003 108.856 71.541C108.856 71.125 108.969 70.7653 109.194 70.462C109.428 70.1587 109.749 69.9247 110.156 69.76C110.563 69.5953 111.031 69.513 111.56 69.513C111.941 69.513 112.297 69.5563 112.626 69.643C112.964 69.721 113.289 69.8467 113.601 70.02C113.731 70.0893 113.818 70.1803 113.861 70.293C113.913 70.4057 113.926 70.5227 113.9 70.644C113.874 70.7567 113.822 70.8607 113.744 70.956C113.666 71.0427 113.566 71.099 113.445 71.125C113.332 71.1423 113.202 71.1163 113.055 71.047C112.786 70.9083 112.526 70.8087 112.275 70.748C112.032 70.6873 111.798 70.657 111.573 70.657C111.148 70.657 110.832 70.7307 110.624 70.878C110.425 71.0253 110.325 71.2203 110.325 71.463C110.325 71.645 110.386 71.7967 110.507 71.918C110.628 72.0393 110.815 72.1217 111.066 72.165L112.366 72.412C112.929 72.516 113.354 72.7067 113.64 72.984C113.935 73.2613 114.082 73.634 114.082 74.102C114.082 74.7347 113.835 75.233 113.341 75.597C112.847 75.9523 112.188 76.13 111.365 76.13ZM118.285 76.13C117.626 76.13 117.054 75.9957 116.569 75.727C116.083 75.4583 115.706 75.077 115.438 74.583C115.169 74.0803 115.035 73.491 115.035 72.815C115.035 72.3037 115.108 71.8487 115.256 71.45C115.412 71.0427 115.633 70.696 115.919 70.41C116.205 70.1153 116.547 69.8943 116.946 69.747C117.344 69.591 117.791 69.513 118.285 69.513C118.943 69.513 119.515 69.6473 120.001 69.916C120.486 70.1847 120.863 70.566 121.132 71.06C121.4 71.554 121.535 72.139 121.535 72.815C121.535 73.3263 121.457 73.7857 121.301 74.193C121.153 74.6003 120.937 74.9513 120.651 75.246C120.365 75.532 120.022 75.753 119.624 75.909C119.225 76.0563 118.779 76.13 118.285 76.13ZM118.285 74.895C118.605 74.895 118.887 74.817 119.13 74.661C119.372 74.505 119.559 74.2753 119.689 73.972C119.827 73.66 119.897 73.2743 119.897 72.815C119.897 72.1217 119.749 71.606 119.455 71.268C119.16 70.9213 118.77 70.748 118.285 70.748C117.964 70.748 117.682 70.826 117.44 70.982C117.197 71.1293 117.006 71.359 116.868 71.671C116.738 71.9743 116.673 72.3557 116.673 72.815C116.673 73.4997 116.82 74.0197 117.115 74.375C117.409 74.7217 117.799 74.895 118.285 74.895ZM125.047 76.13C124.327 76.13 123.786 75.9263 123.422 75.519C123.058 75.103 122.876 74.4963 122.876 73.699V67.55C122.876 67.2813 122.945 67.0777 123.084 66.939C123.222 66.8003 123.422 66.731 123.682 66.731C123.942 66.731 124.141 66.8003 124.28 66.939C124.427 67.0777 124.501 67.2813 124.501 67.55V73.621C124.501 74.0197 124.583 74.3143 124.748 74.505C124.921 74.6957 125.164 74.791 125.476 74.791C125.545 74.791 125.61 74.791 125.671 74.791C125.731 74.7823 125.792 74.7737 125.853 74.765C125.974 74.7477 126.056 74.7823 126.1 74.869C126.143 74.947 126.165 75.1117 126.165 75.363C126.165 75.5797 126.121 75.7487 126.035 75.87C125.948 75.9913 125.805 76.065 125.606 76.091C125.519 76.0997 125.428 76.1083 125.333 76.117C125.237 76.1257 125.142 76.13 125.047 76.13ZM127.833 76.091C127.573 76.091 127.374 76.013 127.235 75.857C127.096 75.701 127.027 75.4843 127.027 75.207V70.436C127.027 70.15 127.096 69.9333 127.235 69.786C127.374 69.63 127.573 69.552 127.833 69.552C128.093 69.552 128.292 69.63 128.431 69.786C128.578 69.9333 128.652 70.15 128.652 70.436V75.207C128.652 75.4843 128.583 75.701 128.444 75.857C128.305 76.013 128.102 76.091 127.833 76.091ZM127.833 68.343C127.53 68.343 127.291 68.2693 127.118 68.122C126.953 67.966 126.871 67.7537 126.871 67.485C126.871 67.2077 126.953 66.9953 127.118 66.848C127.291 66.7007 127.53 66.627 127.833 66.627C128.145 66.627 128.383 66.7007 128.548 66.848C128.713 66.9953 128.795 67.2077 128.795 67.485C128.795 67.7537 128.713 67.966 128.548 68.122C128.383 68.2693 128.145 68.343 127.833 68.343ZM131.147 76.104C130.887 76.104 130.687 76.0347 130.549 75.896C130.41 75.7487 130.341 75.5407 130.341 75.272V70.358C130.341 70.0893 130.41 69.8857 130.549 69.747C130.687 69.6083 130.882 69.539 131.134 69.539C131.385 69.539 131.58 69.6083 131.719 69.747C131.857 69.8857 131.927 70.0893 131.927 70.358V71.242L131.784 70.917C131.974 70.4577 132.269 70.111 132.668 69.877C133.075 69.6343 133.534 69.513 134.046 69.513C134.557 69.513 134.977 69.6083 135.307 69.799C135.636 69.9897 135.883 70.28 136.048 70.67C136.212 71.0513 136.295 71.5367 136.295 72.126V75.272C136.295 75.5407 136.225 75.7487 136.087 75.896C135.948 76.0347 135.749 76.104 135.489 76.104C135.229 76.104 135.025 76.0347 134.878 75.896C134.739 75.7487 134.67 75.5407 134.67 75.272V72.204C134.67 71.71 134.574 71.3503 134.384 71.125C134.202 70.8997 133.916 70.787 133.526 70.787C133.049 70.787 132.668 70.9387 132.382 71.242C132.104 71.5367 131.966 71.931 131.966 72.425V75.272C131.966 75.8267 131.693 76.104 131.147 76.104ZM140.038 76.13C139.579 76.13 139.167 76.0433 138.803 75.87C138.448 75.688 138.166 75.4453 137.958 75.142C137.759 74.8387 137.659 74.4963 137.659 74.115C137.659 73.647 137.78 73.2787 138.023 73.01C138.266 72.7327 138.66 72.5333 139.206 72.412C139.752 72.2907 140.484 72.23 141.403 72.23H142.053V73.166H141.416C140.879 73.166 140.45 73.192 140.129 73.244C139.808 73.296 139.579 73.387 139.44 73.517C139.31 73.6383 139.245 73.8117 139.245 74.037C139.245 74.323 139.345 74.557 139.544 74.739C139.743 74.921 140.021 75.012 140.376 75.012C140.662 75.012 140.913 74.947 141.13 74.817C141.355 74.6783 141.533 74.492 141.663 74.258C141.793 74.024 141.858 73.7553 141.858 73.452V71.957C141.858 71.5237 141.763 71.2117 141.572 71.021C141.381 70.8303 141.061 70.735 140.61 70.735C140.359 70.735 140.086 70.7653 139.791 70.826C139.505 70.8867 139.202 70.9907 138.881 71.138C138.716 71.216 138.569 71.2377 138.439 71.203C138.318 71.1683 138.222 71.099 138.153 70.995C138.084 70.8823 138.049 70.761 138.049 70.631C138.049 70.501 138.084 70.3753 138.153 70.254C138.222 70.124 138.339 70.0287 138.504 69.968C138.903 69.8033 139.284 69.6863 139.648 69.617C140.021 69.5477 140.359 69.513 140.662 69.513C141.286 69.513 141.797 69.6083 142.196 69.799C142.603 69.9897 142.907 70.28 143.106 70.67C143.305 71.0513 143.405 71.5453 143.405 72.152V75.272C143.405 75.5407 143.34 75.7487 143.21 75.896C143.08 76.0347 142.894 76.104 142.651 76.104C142.408 76.104 142.218 76.0347 142.079 75.896C141.949 75.7487 141.884 75.5407 141.884 75.272V74.648H141.988C141.927 74.9513 141.806 75.2157 141.624 75.441C141.451 75.6577 141.23 75.8267 140.961 75.948C140.692 76.0693 140.385 76.13 140.038 76.13Z" fill="#1A203E"/>
<path d="M59.9086 93.063C59.7586 93.063 59.6416 93.021 59.5576 92.937C59.4796 92.853 59.4406 92.736 59.4406 92.586V87.132C59.4406 86.976 59.4826 86.859 59.5666 86.781C59.6506 86.697 59.7676 86.655 59.9176 86.655H62.0686C62.7526 86.655 63.2806 86.826 63.6526 87.168C64.0246 87.504 64.2106 87.978 64.2106 88.59C64.2106 89.208 64.0246 89.688 63.6526 90.03C63.2806 90.366 62.7526 90.534 62.0686 90.534H60.3766V92.586C60.3766 92.736 60.3376 92.853 60.2596 92.937C60.1816 93.021 60.0646 93.063 59.9086 93.063ZM60.3766 89.787H61.9336C62.3836 89.787 62.7226 89.688 62.9506 89.49C63.1846 89.286 63.3016 88.986 63.3016 88.59C63.3016 88.2 63.1846 87.906 62.9506 87.708C62.7226 87.504 62.3836 87.402 61.9336 87.402H60.3766V89.787ZM66.3003 93.081C65.9943 93.081 65.7183 93.021 65.4723 92.901C65.2323 92.781 65.0433 92.619 64.9053 92.415C64.7673 92.211 64.6983 91.98 64.6983 91.722C64.6983 91.398 64.7793 91.143 64.9413 90.957C65.1093 90.765 65.3823 90.63 65.7603 90.552C66.1443 90.468 66.6603 90.426 67.3083 90.426H67.7313V90.984H67.3173C66.8853 90.984 66.5433 91.005 66.2913 91.047C66.0393 91.089 65.8593 91.161 65.7513 91.263C65.6493 91.359 65.5983 91.494 65.5983 91.668C65.5983 91.896 65.6763 92.082 65.8323 92.226C65.9883 92.364 66.2043 92.433 66.4803 92.433C66.7023 92.433 66.8973 92.382 67.0653 92.28C67.2333 92.172 67.3653 92.028 67.4613 91.848C67.5633 91.668 67.6143 91.461 67.6143 91.227V90.192C67.6143 89.85 67.5423 89.604 67.3983 89.454C67.2543 89.304 67.0173 89.229 66.6873 89.229C66.4953 89.229 66.2943 89.253 66.0843 89.301C65.8803 89.349 65.6673 89.43 65.4453 89.544C65.3433 89.592 65.2563 89.607 65.1843 89.589C65.1123 89.571 65.0553 89.532 65.0133 89.472C64.9713 89.406 64.9473 89.337 64.9413 89.265C64.9413 89.187 64.9593 89.112 64.9953 89.04C65.0373 88.968 65.1063 88.914 65.2023 88.878C65.4663 88.752 65.7273 88.662 65.9853 88.608C66.2433 88.554 66.4863 88.527 66.7143 88.527C67.1163 88.527 67.4463 88.59 67.7043 88.716C67.9683 88.842 68.1633 89.034 68.2893 89.292C68.4153 89.55 68.4783 89.883 68.4783 90.291V92.604C68.4783 92.748 68.4423 92.862 68.3703 92.946C68.2983 93.024 68.1933 93.063 68.0553 93.063C67.9233 93.063 67.8183 93.024 67.7403 92.946C67.6623 92.862 67.6233 92.748 67.6233 92.604V92.019H67.7043C67.6563 92.241 67.5663 92.433 67.4343 92.595C67.3083 92.751 67.1493 92.871 66.9573 92.955C66.7653 93.039 66.5463 93.081 66.3003 93.081ZM71.7193 94.701C71.3953 94.701 71.0803 94.668 70.7743 94.602C70.4743 94.536 70.2013 94.428 69.9553 94.278C69.8653 94.23 69.8053 94.17 69.7753 94.098C69.7453 94.032 69.7363 93.963 69.7483 93.891C69.7663 93.819 69.7993 93.756 69.8473 93.702C69.8953 93.648 69.9523 93.612 70.0183 93.594C70.0903 93.576 70.1653 93.588 70.2433 93.63C70.5073 93.774 70.7563 93.87 70.9903 93.918C71.2303 93.972 71.4523 93.999 71.6563 93.999C72.0763 93.999 72.3913 93.891 72.6013 93.675C72.8113 93.465 72.9163 93.153 72.9163 92.739V91.821H72.9973C72.9073 92.151 72.7183 92.412 72.4303 92.604C72.1423 92.796 71.8093 92.892 71.4313 92.892C71.0353 92.892 70.6903 92.802 70.3963 92.622C70.1023 92.436 69.8743 92.181 69.7123 91.857C69.5503 91.527 69.4693 91.143 69.4693 90.705C69.4693 90.375 69.5143 90.078 69.6043 89.814C69.7003 89.55 69.8323 89.322 70.0003 89.13C70.1743 88.938 70.3813 88.791 70.6213 88.689C70.8673 88.581 71.1373 88.527 71.4313 88.527C71.8153 88.527 72.1483 88.623 72.4303 88.815C72.7183 89.007 72.9043 89.268 72.9883 89.598L72.8983 89.751V89.004C72.8983 88.854 72.9373 88.74 73.0153 88.662C73.0993 88.584 73.2103 88.545 73.3483 88.545C73.4923 88.545 73.6033 88.584 73.6813 88.662C73.7593 88.74 73.7983 88.854 73.7983 89.004V92.631C73.7983 93.315 73.6213 93.831 73.2673 94.179C72.9133 94.527 72.3973 94.701 71.7193 94.701ZM71.6473 92.181C71.9113 92.181 72.1363 92.121 72.3223 92.001C72.5083 91.881 72.6523 91.71 72.7543 91.488C72.8563 91.266 72.9073 91.005 72.9073 90.705C72.9073 90.255 72.7933 89.898 72.5653 89.634C72.3433 89.37 72.0373 89.238 71.6473 89.238C71.3893 89.238 71.1673 89.298 70.9813 89.418C70.7953 89.538 70.6483 89.709 70.5403 89.931C70.4383 90.147 70.3873 90.405 70.3873 90.705C70.3873 91.161 70.5013 91.521 70.7293 91.785C70.9573 92.049 71.2633 92.181 71.6473 92.181ZM76.9821 93.081C76.5381 93.081 76.1541 92.988 75.8301 92.802C75.5121 92.616 75.2631 92.352 75.0831 92.01C74.9031 91.668 74.8131 91.266 74.8131 90.804C74.8131 90.45 74.8641 90.135 74.9661 89.859C75.0681 89.583 75.2121 89.346 75.3981 89.148C75.5901 88.944 75.8181 88.791 76.0821 88.689C76.3521 88.581 76.6521 88.527 76.9821 88.527C77.4201 88.527 77.7981 88.62 78.1161 88.806C78.4401 88.992 78.6921 89.256 78.8721 89.598C79.0521 89.934 79.1421 90.336 79.1421 90.804C79.1421 91.152 79.0911 91.467 78.9891 91.749C78.8871 92.031 78.7401 92.271 78.5481 92.469C78.3621 92.667 78.1341 92.82 77.8641 92.928C77.6001 93.03 77.3061 93.081 76.9821 93.081ZM76.9821 92.379C77.2281 92.379 77.4441 92.319 77.6301 92.199C77.8161 92.079 77.9601 91.902 78.0621 91.668C78.1701 91.434 78.2241 91.146 78.2241 90.804C78.2241 90.288 78.1101 89.898 77.8821 89.634C77.6541 89.37 77.3541 89.238 76.9821 89.238C76.7301 89.238 76.5111 89.298 76.3251 89.418C76.1391 89.532 75.9921 89.706 75.8841 89.94C75.7821 90.174 75.7311 90.462 75.7311 90.804C75.7311 91.314 75.8451 91.704 76.0731 91.974C76.3011 92.244 76.6041 92.379 76.9821 92.379ZM84.471 93.081C84.021 93.081 83.631 92.988 83.301 92.802C82.977 92.61 82.725 92.343 82.545 92.001C82.365 91.653 82.275 91.245 82.275 90.777C82.275 90.429 82.326 90.117 82.428 89.841C82.53 89.559 82.674 89.322 82.86 89.13C83.052 88.938 83.283 88.791 83.553 88.689C83.829 88.581 84.135 88.527 84.471 88.527C84.681 88.527 84.9 88.56 85.128 88.626C85.362 88.686 85.578 88.788 85.776 88.932C85.854 88.98 85.902 89.04 85.92 89.112C85.944 89.178 85.947 89.247 85.929 89.319C85.917 89.391 85.884 89.454 85.83 89.508C85.782 89.556 85.722 89.586 85.65 89.598C85.578 89.604 85.5 89.583 85.416 89.535C85.272 89.433 85.125 89.361 84.975 89.319C84.825 89.271 84.681 89.247 84.543 89.247C84.327 89.247 84.135 89.283 83.967 89.355C83.805 89.421 83.667 89.52 83.553 89.652C83.439 89.778 83.352 89.937 83.292 90.129C83.238 90.321 83.211 90.54 83.211 90.786C83.211 91.278 83.325 91.665 83.553 91.947C83.787 92.223 84.117 92.361 84.543 92.361C84.681 92.361 84.825 92.34 84.975 92.298C85.125 92.256 85.272 92.184 85.416 92.082C85.5 92.034 85.578 92.016 85.65 92.028C85.722 92.04 85.779 92.073 85.821 92.127C85.869 92.175 85.899 92.235 85.911 92.307C85.929 92.373 85.926 92.442 85.902 92.514C85.878 92.586 85.827 92.646 85.749 92.694C85.557 92.832 85.347 92.931 85.119 92.991C84.897 93.051 84.681 93.081 84.471 93.081ZM88.5573 93.081C88.1133 93.081 87.7293 92.988 87.4053 92.802C87.0873 92.616 86.8383 92.352 86.6583 92.01C86.4783 91.668 86.3883 91.266 86.3883 90.804C86.3883 90.45 86.4393 90.135 86.5413 89.859C86.6433 89.583 86.7873 89.346 86.9733 89.148C87.1653 88.944 87.3933 88.791 87.6573 88.689C87.9273 88.581 88.2273 88.527 88.5573 88.527C88.9953 88.527 89.3733 88.62 89.6913 88.806C90.0153 88.992 90.2673 89.256 90.4473 89.598C90.6273 89.934 90.7173 90.336 90.7173 90.804C90.7173 91.152 90.6663 91.467 90.5643 91.749C90.4623 92.031 90.3153 92.271 90.1233 92.469C89.9373 92.667 89.7093 92.82 89.4393 92.928C89.1753 93.03 88.8813 93.081 88.5573 93.081ZM88.5573 92.379C88.8033 92.379 89.0193 92.319 89.2053 92.199C89.3913 92.079 89.5353 91.902 89.6373 91.668C89.7453 91.434 89.7993 91.146 89.7993 90.804C89.7993 90.288 89.6853 89.898 89.4573 89.634C89.2293 89.37 88.9293 89.238 88.5573 89.238C88.3053 89.238 88.0863 89.298 87.9003 89.418C87.7143 89.532 87.5673 89.706 87.4593 89.94C87.3573 90.174 87.3063 90.462 87.3063 90.804C87.3063 91.314 87.4203 91.704 87.6483 91.974C87.8763 92.244 88.1793 92.379 88.5573 92.379ZM92.1881 93.063C92.0441 93.063 91.9331 93.024 91.8551 92.946C91.7771 92.862 91.7381 92.748 91.7381 92.604V89.004C91.7381 88.854 91.7771 88.74 91.8551 88.662C91.9331 88.584 92.0411 88.545 92.1791 88.545C92.3231 88.545 92.4311 88.584 92.5031 88.662C92.5811 88.74 92.6201 88.854 92.6201 89.004V89.706L92.5211 89.544C92.6531 89.208 92.8601 88.956 93.1421 88.788C93.4241 88.614 93.7481 88.527 94.1141 88.527C94.4621 88.527 94.7501 88.593 94.9781 88.725C95.2121 88.851 95.3861 89.046 95.5001 89.31C95.6141 89.568 95.6711 89.895 95.6711 90.291V92.604C95.6711 92.748 95.6321 92.862 95.5541 92.946C95.4761 93.024 95.3651 93.063 95.2211 93.063C95.0711 93.063 94.9571 93.024 94.8791 92.946C94.8011 92.862 94.7621 92.748 94.7621 92.604V90.345C94.7621 89.967 94.6871 89.691 94.5371 89.517C94.3931 89.343 94.1651 89.256 93.8531 89.256C93.4871 89.256 93.1931 89.37 92.9711 89.598C92.7551 89.826 92.6471 90.132 92.6471 90.516V92.604C92.6471 92.91 92.4941 93.063 92.1881 93.063ZM101.169 93.081C100.809 93.081 100.506 93.018 100.26 92.892C100.014 92.766 99.8307 92.58 99.7107 92.334C99.5907 92.088 99.5307 91.788 99.5307 91.434V89.31H98.9907C98.8707 89.31 98.7777 89.28 98.7117 89.22C98.6457 89.154 98.6127 89.067 98.6127 88.959C98.6127 88.845 98.6457 88.758 98.7117 88.698C98.7777 88.638 98.8707 88.608 98.9907 88.608H99.5307V87.681C99.5307 87.531 99.5697 87.417 99.6477 87.339C99.7317 87.261 99.8457 87.222 99.9897 87.222C100.134 87.222 100.245 87.261 100.323 87.339C100.401 87.417 100.44 87.531 100.44 87.681V88.608H101.493C101.613 88.608 101.706 88.638 101.772 88.698C101.838 88.758 101.871 88.845 101.871 88.959C101.871 89.067 101.838 89.154 101.772 89.22C101.706 89.28 101.613 89.31 101.493 89.31H100.44V91.362C100.44 91.68 100.506 91.92 100.638 92.082C100.776 92.244 100.998 92.325 101.304 92.325C101.412 92.325 101.505 92.316 101.583 92.298C101.667 92.274 101.736 92.259 101.79 92.253C101.856 92.253 101.91 92.277 101.952 92.325C101.994 92.367 102.015 92.451 102.015 92.577C102.015 92.667 101.997 92.751 101.961 92.829C101.931 92.907 101.874 92.958 101.79 92.982C101.718 93.006 101.619 93.027 101.493 93.045C101.373 93.069 101.265 93.081 101.169 93.081ZM103.988 93.081C103.682 93.081 103.406 93.021 103.16 92.901C102.92 92.781 102.731 92.619 102.593 92.415C102.455 92.211 102.386 91.98 102.386 91.722C102.386 91.398 102.467 91.143 102.629 90.957C102.797 90.765 103.07 90.63 103.448 90.552C103.832 90.468 104.348 90.426 104.996 90.426H105.419V90.984H105.005C104.573 90.984 104.231 91.005 103.979 91.047C103.727 91.089 103.547 91.161 103.439 91.263C103.337 91.359 103.286 91.494 103.286 91.668C103.286 91.896 103.364 92.082 103.52 92.226C103.676 92.364 103.892 92.433 104.168 92.433C104.39 92.433 104.585 92.382 104.753 92.28C104.921 92.172 105.053 92.028 105.149 91.848C105.251 91.668 105.302 91.461 105.302 91.227V90.192C105.302 89.85 105.23 89.604 105.086 89.454C104.942 89.304 104.705 89.229 104.375 89.229C104.183 89.229 103.982 89.253 103.772 89.301C103.568 89.349 103.355 89.43 103.133 89.544C103.031 89.592 102.944 89.607 102.872 89.589C102.8 89.571 102.743 89.532 102.701 89.472C102.659 89.406 102.635 89.337 102.629 89.265C102.629 89.187 102.647 89.112 102.683 89.04C102.725 88.968 102.794 88.914 102.89 88.878C103.154 88.752 103.415 88.662 103.673 88.608C103.931 88.554 104.174 88.527 104.402 88.527C104.804 88.527 105.134 88.59 105.392 88.716C105.656 88.842 105.851 89.034 105.977 89.292C106.103 89.55 106.166 89.883 106.166 90.291V92.604C106.166 92.748 106.13 92.862 106.058 92.946C105.986 93.024 105.881 93.063 105.743 93.063C105.611 93.063 105.506 93.024 105.428 92.946C105.35 92.862 105.311 92.748 105.311 92.604V92.019H105.392C105.344 92.241 105.254 92.433 105.122 92.595C104.996 92.751 104.837 92.871 104.645 92.955C104.453 93.039 104.234 93.081 103.988 93.081ZM107.877 93.063C107.727 93.063 107.613 93.024 107.535 92.946C107.457 92.862 107.418 92.748 107.418 92.604V89.004C107.418 88.854 107.457 88.74 107.535 88.662C107.613 88.584 107.721 88.545 107.859 88.545C108.003 88.545 108.111 88.584 108.183 88.662C108.261 88.74 108.3 88.854 108.3 89.004V89.661H108.21C108.306 89.301 108.483 89.028 108.741 88.842C108.999 88.656 109.329 88.548 109.731 88.518C109.839 88.512 109.923 88.539 109.983 88.599C110.049 88.659 110.085 88.752 110.091 88.878C110.103 89.004 110.076 89.106 110.01 89.184C109.944 89.256 109.842 89.298 109.704 89.31L109.533 89.328C109.143 89.364 108.846 89.487 108.642 89.697C108.438 89.907 108.336 90.195 108.336 90.561V92.604C108.336 92.748 108.297 92.862 108.219 92.946C108.147 93.024 108.033 93.063 107.877 93.063ZM110.073 94.71C109.965 94.716 109.878 94.698 109.812 94.656C109.74 94.614 109.692 94.56 109.668 94.494C109.638 94.428 109.629 94.359 109.641 94.287C109.647 94.221 109.677 94.161 109.731 94.107C109.779 94.059 109.845 94.032 109.929 94.026C110.229 94.008 110.448 93.927 110.586 93.783C110.73 93.639 110.802 93.411 110.802 93.099V89.004C110.802 88.854 110.841 88.74 110.919 88.662C111.003 88.584 111.117 88.545 111.261 88.545C111.411 88.545 111.522 88.584 111.594 88.662C111.672 88.74 111.711 88.854 111.711 89.004V93.027C111.711 93.399 111.648 93.705 111.522 93.945C111.402 94.191 111.222 94.374 110.982 94.494C110.742 94.614 110.439 94.686 110.073 94.71ZM111.261 87.627C111.081 87.627 110.94 87.582 110.838 87.492C110.742 87.402 110.694 87.276 110.694 87.114C110.694 86.946 110.742 86.82 110.838 86.736C110.94 86.646 111.081 86.601 111.261 86.601C111.441 86.601 111.579 86.646 111.675 86.736C111.771 86.82 111.819 86.946 111.819 87.114C111.819 87.276 111.771 87.402 111.675 87.492C111.579 87.582 111.441 87.627 111.261 87.627ZM115.051 93.081C114.571 93.081 114.157 92.991 113.809 92.811C113.467 92.625 113.2 92.364 113.008 92.028C112.822 91.686 112.729 91.281 112.729 90.813C112.729 90.357 112.822 89.958 113.008 89.616C113.194 89.274 113.449 89.007 113.773 88.815C114.097 88.623 114.466 88.527 114.88 88.527C115.186 88.527 115.459 88.578 115.699 88.68C115.939 88.776 116.143 88.92 116.311 89.112C116.485 89.298 116.614 89.526 116.698 89.796C116.788 90.066 116.833 90.369 116.833 90.705C116.833 90.807 116.803 90.885 116.743 90.939C116.683 90.987 116.593 91.011 116.473 91.011H113.449V90.453H116.221L116.068 90.579C116.068 90.279 116.023 90.024 115.933 89.814C115.849 89.604 115.72 89.445 115.546 89.337C115.378 89.223 115.168 89.166 114.916 89.166C114.634 89.166 114.394 89.232 114.196 89.364C114.004 89.496 113.857 89.679 113.755 89.913C113.653 90.147 113.602 90.42 113.602 90.732V90.786C113.602 91.314 113.725 91.713 113.971 91.983C114.223 92.247 114.586 92.379 115.06 92.379C115.24 92.379 115.429 92.355 115.627 92.307C115.831 92.259 116.023 92.178 116.203 92.064C116.305 92.004 116.395 91.977 116.473 91.983C116.557 91.989 116.623 92.016 116.671 92.064C116.725 92.112 116.758 92.172 116.77 92.244C116.782 92.316 116.77 92.391 116.734 92.469C116.698 92.541 116.635 92.607 116.545 92.667C116.341 92.805 116.104 92.91 115.834 92.982C115.564 93.048 115.303 93.081 115.051 93.081ZM119.687 93.081C119.327 93.081 119.024 93.018 118.778 92.892C118.532 92.766 118.349 92.58 118.229 92.334C118.109 92.088 118.049 91.788 118.049 91.434V89.31H117.509C117.389 89.31 117.296 89.28 117.23 89.22C117.164 89.154 117.131 89.067 117.131 88.959C117.131 88.845 117.164 88.758 117.23 88.698C117.296 88.638 117.389 88.608 117.509 88.608H118.049V87.681C118.049 87.531 118.088 87.417 118.166 87.339C118.25 87.261 118.364 87.222 118.508 87.222C118.652 87.222 118.763 87.261 118.841 87.339C118.919 87.417 118.958 87.531 118.958 87.681V88.608H120.011C120.131 88.608 120.224 88.638 120.29 88.698C120.356 88.758 120.389 88.845 120.389 88.959C120.389 89.067 120.356 89.154 120.29 89.22C120.224 89.28 120.131 89.31 120.011 89.31H118.958V91.362C118.958 91.68 119.024 91.92 119.156 92.082C119.294 92.244 119.516 92.325 119.822 92.325C119.93 92.325 120.023 92.316 120.101 92.298C120.185 92.274 120.254 92.259 120.308 92.253C120.374 92.253 120.428 92.277 120.47 92.325C120.512 92.367 120.533 92.451 120.533 92.577C120.533 92.667 120.515 92.751 120.479 92.829C120.449 92.907 120.392 92.958 120.308 92.982C120.236 93.006 120.137 93.027 120.011 93.045C119.891 93.069 119.783 93.081 119.687 93.081ZM122.506 93.081C122.2 93.081 121.924 93.021 121.678 92.901C121.438 92.781 121.249 92.619 121.111 92.415C120.973 92.211 120.904 91.98 120.904 91.722C120.904 91.398 120.985 91.143 121.147 90.957C121.315 90.765 121.588 90.63 121.966 90.552C122.35 90.468 122.866 90.426 123.514 90.426H123.937V90.984H123.523C123.091 90.984 122.749 91.005 122.497 91.047C122.245 91.089 122.065 91.161 121.957 91.263C121.855 91.359 121.804 91.494 121.804 91.668C121.804 91.896 121.882 92.082 122.038 92.226C122.194 92.364 122.41 92.433 122.686 92.433C122.908 92.433 123.103 92.382 123.271 92.28C123.439 92.172 123.571 92.028 123.667 91.848C123.769 91.668 123.82 91.461 123.82 91.227V90.192C123.82 89.85 123.748 89.604 123.604 89.454C123.46 89.304 123.223 89.229 122.893 89.229C122.701 89.229 122.5 89.253 122.29 89.301C122.086 89.349 121.873 89.43 121.651 89.544C121.549 89.592 121.462 89.607 121.39 89.589C121.318 89.571 121.261 89.532 121.219 89.472C121.177 89.406 121.153 89.337 121.147 89.265C121.147 89.187 121.165 89.112 121.201 89.04C121.243 88.968 121.312 88.914 121.408 88.878C121.672 88.752 121.933 88.662 122.191 88.608C122.449 88.554 122.692 88.527 122.92 88.527C123.322 88.527 123.652 88.59 123.91 88.716C124.174 88.842 124.369 89.034 124.495 89.292C124.621 89.55 124.684 89.883 124.684 90.291V92.604C124.684 92.748 124.648 92.862 124.576 92.946C124.504 93.024 124.399 93.063 124.261 93.063C124.129 93.063 124.024 93.024 123.946 92.946C123.868 92.862 123.829 92.748 123.829 92.604V92.019H123.91C123.862 92.241 123.772 92.433 123.64 92.595C123.514 92.751 123.355 92.871 123.163 92.955C122.971 93.039 122.752 93.081 122.506 93.081Z" fill="#1A203E"/>
<rect x="7" y="108" width="18" height="11" rx="5.5" fill="#3C414A"/>
<path d="M15.2256 115.417V116H12.9609V115.417H15.2256ZM13.1689 111.734V116H12.4336V111.734H13.1689ZM14.9297 113.516V114.09H12.9609V113.516H14.9297ZM15.2109 111.734V112.32H12.9609V111.734H15.2109ZM18.0703 114.901C18.0703 114.813 18.0566 114.735 18.0293 114.667C18.0039 114.599 17.958 114.536 17.8916 114.479C17.8252 114.423 17.7314 114.368 17.6104 114.315C17.4912 114.261 17.3389 114.205 17.1533 114.148C16.9502 114.086 16.7627 114.017 16.5908 113.94C16.4209 113.862 16.2725 113.772 16.1455 113.671C16.0186 113.567 15.9199 113.449 15.8496 113.316C15.7793 113.182 15.7441 113.026 15.7441 112.851C15.7441 112.677 15.7803 112.519 15.8525 112.376C15.9268 112.233 16.0312 112.11 16.166 112.007C16.3027 111.901 16.4639 111.82 16.6494 111.764C16.835 111.705 17.04 111.676 17.2646 111.676C17.5811 111.676 17.8535 111.734 18.082 111.852C18.3125 111.969 18.4893 112.126 18.6123 112.323C18.7373 112.521 18.7998 112.738 18.7998 112.977H18.0703C18.0703 112.836 18.04 112.712 17.9795 112.604C17.9209 112.495 17.8311 112.409 17.71 112.347C17.5908 112.284 17.4395 112.253 17.2559 112.253C17.082 112.253 16.9375 112.279 16.8223 112.332C16.707 112.385 16.6211 112.456 16.5645 112.546C16.5078 112.636 16.4795 112.737 16.4795 112.851C16.4795 112.931 16.498 113.004 16.5352 113.07C16.5723 113.135 16.6289 113.195 16.7051 113.252C16.7812 113.307 16.877 113.358 16.9922 113.407C17.1074 113.456 17.2432 113.503 17.3994 113.548C17.6357 113.618 17.8418 113.696 18.0176 113.782C18.1934 113.866 18.3398 113.962 18.457 114.069C18.5742 114.177 18.6621 114.299 18.7207 114.436C18.7793 114.57 18.8086 114.724 18.8086 114.896C18.8086 115.075 18.7725 115.237 18.7002 115.382C18.6279 115.524 18.5244 115.646 18.3896 115.748C18.2568 115.848 18.0967 115.925 17.9092 115.979C17.7236 116.032 17.5166 116.059 17.2881 116.059C17.083 116.059 16.8809 116.031 16.6816 115.977C16.4844 115.922 16.3047 115.839 16.1426 115.728C15.9805 115.614 15.8516 115.474 15.7559 115.306C15.6602 115.136 15.6123 114.938 15.6123 114.711H16.3477C16.3477 114.85 16.3711 114.968 16.418 115.065C16.4668 115.163 16.5342 115.243 16.6201 115.306C16.7061 115.366 16.8057 115.411 16.9189 115.44C17.0342 115.47 17.1572 115.484 17.2881 115.484C17.46 115.484 17.6035 115.46 17.7188 115.411C17.8359 115.362 17.9238 115.294 17.9824 115.206C18.041 115.118 18.0703 115.017 18.0703 114.901Z" fill="white"/>
<rect x="27" y="108" width="18" height="11" rx="5.5" fill="#3C414A"/>
<path d="M35.2256 115.417V116H32.9609V115.417H35.2256ZM33.1689 111.734V116H32.4336V111.734H33.1689ZM34.9297 113.516V114.09H32.9609V113.516H34.9297ZM35.2109 111.734V112.32H32.9609V111.734H35.2109ZM39.21 111.734V116H38.4746L36.5615 112.944V116H35.8262V111.734H36.5615L38.4805 114.796V111.734H39.21Z" fill="white"/>
<path d="M79 36.4999V30.9999C79 30.4999 79.5 29.4999 80 28.9999L81.5 27.4999M81.5 27.4999L80.2121 26.212C80.095 26.0949 80.095 25.9049 80.2121 25.7877L84.7879 21.212C84.905 21.0949 84.905 20.9049 84.7879 20.7877L83.7121 19.712C83.595 19.5949 83.595 19.4049 83.7121 19.2877L86.7879 16.212C86.905 16.0949 87.095 16.0949 87.2121 16.212L88.2879 17.2877C88.405 17.4049 88.595 17.4049 88.7121 17.2877L90.3471 15.6528C90.4384 15.5615 90.5779 15.5388 90.6934 15.5966L91.5 15.9999M81.5 27.4999C81.8622 27.8621 82.4197 28.4196 83 28.9999M83 28.9999C83.7546 29.7545 84.5478 30.5476 85 30.9999C85.7882 31.7881 87.6119 31.3467 88.4625 31.0147C88.4877 31.0049 88.5099 30.99 88.529 30.9709L92.8945 26.6054M83 28.9999L88 23.9999M88 23.9999L92.8945 26.6054M88 23.9999V26.9999M92.8945 26.6054L95.4224 24.0775C95.4707 24.0292 95.491 23.9595 95.4762 23.8927L94.5 19.4999L93.5889 18.5888M91.5 15.9999L93.5889 18.5888M91.5 15.9999C92.1667 15.1666 93.9 13.2 95.5 12C97.1 10.8 99.1667 10.2887 100 10.1831H102.3C102.41 10.1831 102.5 10.2726 102.5 10.3831V13.2999C102.5 13.4103 102.41 13.4999 102.3 13.4999H100.5C99.8333 13.4999 98.2 13.7999 97 14.9999L93.5889 18.5888" stroke="#1A203E" stroke-width="1.5" stroke-linecap="round"/>
<path d="M101.743 23.4107C100.483 21.7454 102.124 19.0459 103.427 17.5808C103.467 17.5367 103.533 17.5367 103.573 17.5808C104.876 19.0459 106.517 21.7454 105.257 23.4107C104.43 24.5029 102.57 24.5029 101.743 23.4107Z" stroke="#1A203E" stroke-width="1.5"/>
<path d="M101.743 34.9107C100.483 33.2454 102.124 30.5459 103.427 29.0808C103.467 29.0367 103.533 29.0367 103.573 29.0808C104.876 30.5459 106.517 33.2454 105.257 34.9107C104.43 36.0029 102.57 36.0029 101.743 34.9107Z" stroke="#1A203E" stroke-width="1.5"/>
</g>
<rect x="1" y="1" width="182" height="122" rx="7" stroke="#676F7D" stroke-width="2"/>
<defs>
<clipPath id="clip0_6453_31279">
<rect x="2" y="2" width="180" height="120" rx="6" fill="white"/>
</clipPath>
</defs>
</svg>
