<svg width="184" height="124" viewBox="0 0 184 124" fill="none" xmlns="http://www.w3.org/2000/svg">
<rect x="1" y="1" width="182" height="122" rx="7" fill="#26292E"/>
<rect x="5" y="63" width="174" height="56" rx="4" fill="#1C53E0"/>
<rect x="5" y="5" width="174" height="56" rx="4" fill="#26292E"/>
<path d="M116.117 92.1328C116.117 94.207 115.953 96.0645 115.625 97.7051C115.309 99.334 114.805 100.717 114.113 101.854C113.422 102.99 112.52 103.857 111.406 104.455C110.293 105.053 108.945 105.352 107.363 105.352C105.383 105.352 103.748 104.83 102.459 103.787C101.17 102.732 100.215 101.221 99.5938 99.252C98.9727 97.2715 98.6621 94.8984 98.6621 92.1328C98.6621 89.3672 98.9434 87 99.5059 85.0312C100.08 83.0508 101.006 81.5332 102.283 80.4785C103.561 79.4238 105.254 78.8965 107.363 78.8965C109.355 78.8965 110.996 79.4238 112.285 80.4785C113.586 81.5215 114.547 83.0332 115.168 85.0137C115.801 86.9824 116.117 89.3555 116.117 92.1328ZM102.828 92.1328C102.828 94.3008 102.969 96.1113 103.25 97.5645C103.543 99.0176 104.023 100.107 104.691 100.834C105.359 101.549 106.25 101.906 107.363 101.906C108.477 101.906 109.367 101.549 110.035 100.834C110.703 100.119 111.184 99.0352 111.477 97.582C111.781 96.1289 111.934 94.3125 111.934 92.1328C111.934 89.9766 111.787 88.1719 111.494 86.7188C111.201 85.2656 110.721 84.1758 110.053 83.4492C109.385 82.7109 108.488 82.3418 107.363 82.3418C106.238 82.3418 105.342 82.7109 104.674 83.4492C104.018 84.1758 103.543 85.2656 103.25 86.7188C102.969 88.1719 102.828 89.9766 102.828 92.1328ZM136.719 92.1328C136.719 94.207 136.555 96.0645 136.227 97.7051C135.91 99.334 135.406 100.717 134.715 101.854C134.023 102.99 133.121 103.857 132.008 104.455C130.895 105.053 129.547 105.352 127.965 105.352C125.984 105.352 124.35 104.83 123.061 103.787C121.771 102.732 120.816 101.221 120.195 99.252C119.574 97.2715 119.264 94.8984 119.264 92.1328C119.264 89.3672 119.545 87 120.107 85.0312C120.682 83.0508 121.607 81.5332 122.885 80.4785C124.162 79.4238 125.855 78.8965 127.965 78.8965C129.957 78.8965 131.598 79.4238 132.887 80.4785C134.188 81.5215 135.148 83.0332 135.77 85.0137C136.402 86.9824 136.719 89.3555 136.719 92.1328ZM123.43 92.1328C123.43 94.3008 123.57 96.1113 123.852 97.5645C124.145 99.0176 124.625 100.107 125.293 100.834C125.961 101.549 126.852 101.906 127.965 101.906C129.078 101.906 129.969 101.549 130.637 100.834C131.305 100.119 131.785 99.0352 132.078 97.582C132.383 96.1289 132.535 94.3125 132.535 92.1328C132.535 89.9766 132.389 88.1719 132.096 86.7188C131.803 85.2656 131.322 84.1758 130.654 83.4492C129.986 82.7109 129.09 82.3418 127.965 82.3418C126.84 82.3418 125.943 82.7109 125.275 83.4492C124.619 84.1758 124.145 85.2656 123.852 86.7188C123.57 88.1719 123.43 89.9766 123.43 92.1328ZM158.252 99.3574H154.771V105H150.693V99.3574H139.004V96.2285L150.746 79.2305H154.771V95.9297H158.252V99.3574ZM150.693 95.9297V89.5488C150.693 89.0215 150.699 88.4883 150.711 87.9492C150.734 87.3984 150.758 86.8711 150.781 86.3672C150.805 85.8633 150.828 85.4004 150.852 84.9785C150.875 84.5449 150.893 84.1875 150.904 83.9062H150.764C150.541 84.375 150.295 84.8555 150.025 85.3477C149.756 85.8281 149.469 86.2969 149.164 86.7539L142.836 95.9297H150.693Z" fill="white"/>
<path d="M135.434 27.1719C135.434 28.332 135.199 29.3398 134.73 30.1953C134.262 31.0508 133.617 31.7539 132.797 32.3047C131.988 32.8438 131.051 33.2305 129.984 33.4648V33.5879C132.035 33.8457 133.582 34.4902 134.625 35.5215C135.68 36.5527 136.207 37.918 136.207 39.6172C136.207 41.1055 135.85 42.4355 135.135 43.6074C134.42 44.7676 133.324 45.6816 131.848 46.3496C130.371 47.0176 128.473 47.3516 126.152 47.3516C124.758 47.3516 123.463 47.2402 122.268 47.0176C121.084 46.7949 119.959 46.4375 118.893 45.9453V42.2715C119.982 42.8105 121.143 43.2266 122.373 43.5195C123.604 43.8125 124.77 43.959 125.871 43.959C128.016 43.959 129.545 43.5605 130.459 42.7637C131.373 41.9551 131.83 40.8418 131.83 39.4238C131.83 38.5098 131.59 37.7598 131.109 37.1738C130.641 36.5879 129.908 36.1484 128.912 35.8555C127.928 35.5625 126.656 35.416 125.098 35.416H122.83V32.0938H125.115C126.604 32.0938 127.799 31.918 128.701 31.5664C129.604 31.2031 130.254 30.7051 130.652 30.0723C131.062 29.4395 131.268 28.7012 131.268 27.8574C131.268 26.7559 130.91 25.9004 130.195 25.291C129.48 24.6699 128.42 24.3594 127.014 24.3594C126.146 24.3594 125.355 24.459 124.641 24.6582C123.938 24.8574 123.287 25.1094 122.689 25.4141C122.092 25.7188 121.523 26.0469 120.984 26.3984L118.998 23.5332C119.971 22.8066 121.131 22.1914 122.479 21.6875C123.826 21.1836 125.396 20.9316 127.189 20.9316C129.826 20.9316 131.859 21.5 133.289 22.6367C134.719 23.7617 135.434 25.2734 135.434 27.1719ZM157.02 47H139.617V43.8887L146.279 37.1387C147.568 35.8262 148.629 34.6953 149.461 33.7461C150.293 32.7852 150.908 31.877 151.307 31.0215C151.717 30.166 151.922 29.2344 151.922 28.2266C151.922 26.9844 151.564 26.0469 150.85 25.4141C150.135 24.7695 149.191 24.4473 148.02 24.4473C146.906 24.4473 145.875 24.6699 144.926 25.1152C143.988 25.5488 143.016 26.1699 142.008 26.9785L139.74 24.2539C140.455 23.6445 141.217 23.0879 142.025 22.584C142.846 22.0801 143.76 21.6816 144.768 21.3887C145.775 21.084 146.924 20.9316 148.213 20.9316C149.842 20.9316 151.248 21.2246 152.432 21.8105C153.615 22.3848 154.523 23.1875 155.156 24.2188C155.801 25.25 156.123 26.4512 156.123 27.8223C156.123 29.2051 155.848 30.4824 155.297 31.6543C154.746 32.8262 153.961 33.9863 152.941 35.1348C151.922 36.2715 150.709 37.5078 149.303 38.8438L144.855 43.1855V43.3789H157.02V47Z" fill="white"/>
<path d="M21.976 96.128C21.6453 96.128 21.3893 96.0373 21.208 95.856C21.0373 95.664 20.952 95.4027 20.952 95.072V86.432H17.832C17.5547 86.432 17.336 86.3573 17.176 86.208C17.0267 86.048 16.952 85.8347 16.952 85.568C16.952 85.2907 17.0267 85.0827 17.176 84.944C17.336 84.7947 17.5547 84.72 17.832 84.72H26.12C26.3973 84.72 26.6107 84.7947 26.76 84.944C26.92 85.0827 27 85.2907 27 85.568C27 85.8347 26.92 86.048 26.76 86.208C26.6107 86.3573 26.3973 86.432 26.12 86.432H23V95.072C23 95.4027 22.9147 95.664 22.744 95.856C22.5733 96.0373 22.3173 96.128 21.976 96.128ZM29.8445 96.112C29.5245 96.112 29.2792 96.016 29.1085 95.824C28.9378 95.632 28.8525 95.3653 28.8525 95.024V89.152C28.8525 88.8 28.9378 88.5333 29.1085 88.352C29.2792 88.16 29.5245 88.064 29.8445 88.064C30.1645 88.064 30.4098 88.16 30.5805 88.352C30.7618 88.5333 30.8525 88.8 30.8525 89.152V95.024C30.8525 95.3653 30.7672 95.632 30.5965 95.824C30.4258 96.016 30.1752 96.112 29.8445 96.112ZM29.8445 86.576C29.4712 86.576 29.1778 86.4853 28.9645 86.304C28.7618 86.112 28.6605 85.8507 28.6605 85.52C28.6605 85.1787 28.7618 84.9173 28.9645 84.736C29.1778 84.5547 29.4712 84.464 29.8445 84.464C30.2285 84.464 30.5218 84.5547 30.7245 84.736C30.9272 84.9173 31.0285 85.1787 31.0285 85.52C31.0285 85.8507 30.9272 86.112 30.7245 86.304C30.5218 86.4853 30.2285 86.576 29.8445 86.576ZM36.5466 96.16C35.7253 96.16 35.0106 95.9947 34.4026 95.664C33.7946 95.3227 33.3253 94.8427 32.9946 94.224C32.664 93.6053 32.4986 92.88 32.4986 92.048C32.4986 91.4187 32.5893 90.8587 32.7706 90.368C32.9626 89.8667 33.2346 89.4453 33.5866 89.104C33.9386 88.752 34.3653 88.4853 34.8666 88.304C35.368 88.112 35.928 88.016 36.5466 88.016C36.8986 88.016 37.2773 88.064 37.6826 88.16C38.0986 88.256 38.488 88.416 38.8506 88.64C39.0213 88.7467 39.1333 88.8747 39.1866 89.024C39.24 89.1733 39.2506 89.328 39.2186 89.488C39.1866 89.6373 39.1173 89.7707 39.0106 89.888C38.9146 89.9947 38.792 90.064 38.6426 90.096C38.4933 90.1173 38.328 90.08 38.1466 89.984C37.912 89.8453 37.672 89.744 37.4266 89.68C37.1813 89.6053 36.9466 89.568 36.7226 89.568C36.3706 89.568 36.0613 89.6267 35.7946 89.744C35.528 89.8507 35.2986 90.0107 35.1066 90.224C34.9253 90.4267 34.7866 90.6827 34.6906 90.992C34.5946 91.3013 34.5466 91.6587 34.5466 92.064C34.5466 92.8533 34.7333 93.4773 35.1066 93.936C35.4906 94.384 36.0293 94.608 36.7226 94.608C36.9466 94.608 37.176 94.576 37.4106 94.512C37.656 94.448 37.9013 94.3467 38.1466 94.208C38.328 94.112 38.488 94.08 38.6266 94.112C38.776 94.144 38.8986 94.2187 38.9946 94.336C39.0906 94.4427 39.1493 94.576 39.1706 94.736C39.192 94.8853 39.1706 95.0347 39.1066 95.184C39.0533 95.3333 38.9466 95.456 38.7866 95.552C38.4346 95.7653 38.0613 95.92 37.6666 96.016C37.272 96.112 36.8986 96.16 36.5466 96.16ZM41.4695 96.128C41.1495 96.128 40.9042 96.0427 40.7335 95.872C40.5628 95.6907 40.4775 95.4347 40.4775 95.104V85.6C40.4775 85.2693 40.5628 85.0187 40.7335 84.848C40.9042 84.6773 41.1495 84.592 41.4695 84.592C41.7895 84.592 42.0348 84.6773 42.2055 84.848C42.3868 85.0187 42.4775 85.2693 42.4775 85.6V91.504H42.5095L45.1495 88.72C45.3628 88.5067 45.5495 88.3413 45.7095 88.224C45.8695 88.1067 46.0882 88.048 46.3655 88.048C46.6428 88.048 46.8508 88.1227 46.9895 88.272C47.1388 88.4107 47.2135 88.5813 47.2135 88.784C47.2135 88.9867 47.1175 89.1893 46.9255 89.392L44.1415 92.336V91.504L47.1975 94.8C47.3895 95.0027 47.4748 95.2107 47.4535 95.424C47.4428 95.6267 47.3575 95.7973 47.1975 95.936C47.0375 96.064 46.8348 96.128 46.5895 96.128C46.2908 96.128 46.0508 96.0693 45.8695 95.952C45.6988 95.8347 45.5068 95.6587 45.2935 95.424L42.5095 92.512H42.4775V95.104C42.4775 95.7867 42.1415 96.128 41.4695 96.128ZM52.7554 96.16C51.87 96.16 51.1074 95.9947 50.4674 95.664C49.8274 95.3333 49.3314 94.864 48.9794 94.256C48.638 93.648 48.4674 92.928 48.4674 92.096C48.4674 91.2853 48.6327 90.576 48.9634 89.968C49.3047 89.36 49.7687 88.8853 50.3554 88.544C50.9527 88.192 51.63 88.016 52.3874 88.016C52.942 88.016 53.438 88.1067 53.8754 88.288C54.3234 88.4693 54.702 88.7307 55.0114 89.072C55.3314 89.4133 55.5714 89.8293 55.7314 90.32C55.902 90.8 55.9874 91.344 55.9874 91.952C55.9874 92.144 55.918 92.2933 55.7794 92.4C55.6514 92.496 55.4647 92.544 55.2194 92.544H50.0834V91.392H54.5794L54.3234 91.632C54.3234 91.1413 54.2487 90.7307 54.0994 90.4C53.9607 90.0693 53.7527 89.8187 53.4754 89.648C53.2087 89.4667 52.8727 89.376 52.4674 89.376C52.0194 89.376 51.6354 89.4827 51.3154 89.696C51.006 89.8987 50.766 90.192 50.5954 90.576C50.4354 90.9493 50.3554 91.3973 50.3554 91.92V92.032C50.3554 92.9067 50.558 93.5627 50.9634 94C51.3794 94.4267 51.9874 94.64 52.7874 94.64C53.0647 94.64 53.374 94.608 53.7154 94.544C54.0674 94.4693 54.398 94.3467 54.7074 94.176C54.9314 94.048 55.1287 93.9947 55.2994 94.016C55.47 94.0267 55.6034 94.0853 55.6994 94.192C55.806 94.2987 55.87 94.432 55.8914 94.592C55.9127 94.7413 55.8807 94.896 55.7954 95.056C55.7207 95.216 55.5874 95.3547 55.3954 95.472C55.022 95.7067 54.59 95.8827 54.0994 96C53.6194 96.1067 53.1714 96.16 52.7554 96.16ZM61.124 96.16C60.4307 96.16 59.8493 96.0427 59.38 95.808C58.9213 95.5733 58.58 95.232 58.356 94.784C58.132 94.3253 58.02 93.76 58.02 93.088V89.68H57.188C56.932 89.68 56.7347 89.616 56.596 89.488C56.4573 89.3493 56.388 89.1627 56.388 88.928C56.388 88.6827 56.4573 88.496 56.596 88.368C56.7347 88.24 56.932 88.176 57.188 88.176H58.02V86.72C58.02 86.3893 58.1053 86.1387 58.276 85.968C58.4573 85.7973 58.708 85.712 59.028 85.712C59.348 85.712 59.5933 85.7973 59.764 85.968C59.9347 86.1387 60.02 86.3893 60.02 86.72V88.176H61.716C61.972 88.176 62.1693 88.24 62.308 88.368C62.4467 88.496 62.516 88.6827 62.516 88.928C62.516 89.1627 62.4467 89.3493 62.308 89.488C62.1693 89.616 61.972 89.68 61.716 89.68H60.02V92.976C60.02 93.488 60.132 93.872 60.356 94.128C60.58 94.384 60.9427 94.512 61.444 94.512C61.6253 94.512 61.7853 94.496 61.924 94.464C62.0627 94.432 62.1853 94.4107 62.292 94.4C62.42 94.3893 62.5267 94.432 62.612 94.528C62.6973 94.6133 62.74 94.7947 62.74 95.072C62.74 95.2853 62.7027 95.4773 62.628 95.648C62.564 95.808 62.4413 95.92 62.26 95.984C62.1213 96.0267 61.94 96.064 61.716 96.096C61.492 96.1387 61.2947 96.16 61.124 96.16Z" fill="white"/>
<path d="M23.48 38.16C22.3067 38.16 21.2987 37.9253 20.456 37.456C19.624 36.976 18.984 36.304 18.536 35.44C18.088 34.5653 17.864 33.536 17.864 32.352C17.864 31.4667 17.992 30.672 18.248 29.968C18.504 29.2533 18.872 28.6453 19.352 28.144C19.832 27.632 20.4187 27.2427 21.112 26.976C21.816 26.6987 22.6053 26.56 23.48 26.56C24.0667 26.56 24.6427 26.6347 25.208 26.784C25.7733 26.9333 26.2693 27.1467 26.696 27.424C26.92 27.5627 27.0693 27.7333 27.144 27.936C27.2187 28.128 27.2347 28.32 27.192 28.512C27.1493 28.6933 27.0587 28.848 26.92 28.976C26.792 29.104 26.6267 29.1787 26.424 29.2C26.232 29.2107 26.0187 29.1413 25.784 28.992C25.4533 28.7787 25.096 28.624 24.712 28.528C24.328 28.432 23.9387 28.384 23.544 28.384C22.7867 28.384 22.1467 28.5387 21.624 28.848C21.1013 29.1573 20.7067 29.6053 20.44 30.192C20.1733 30.7787 20.04 31.4987 20.04 32.352C20.04 33.1947 20.1733 33.9147 20.44 34.512C20.7067 35.1093 21.1013 35.5627 21.624 35.872C22.1467 36.1813 22.7867 36.336 23.544 36.336C23.9493 36.336 24.3493 36.288 24.744 36.192C25.1387 36.0853 25.512 35.9253 25.864 35.712C26.0987 35.5733 26.3067 35.5147 26.488 35.536C26.68 35.5467 26.84 35.6107 26.968 35.728C27.096 35.8453 27.1813 35.9947 27.224 36.176C27.2667 36.3467 27.256 36.528 27.192 36.72C27.128 36.9013 27 37.0613 26.808 37.2C26.3813 37.5093 25.8693 37.7493 25.272 37.92C24.6853 38.08 24.088 38.16 23.48 38.16ZM31.2098 38.16C30.6444 38.16 30.1378 38.0533 29.6898 37.84C29.2524 37.616 28.9058 37.3173 28.6497 36.944C28.4044 36.5707 28.2818 36.1493 28.2818 35.68C28.2818 35.104 28.4311 34.6507 28.7298 34.32C29.0284 33.9787 29.5138 33.7333 30.1858 33.584C30.8578 33.4347 31.7591 33.36 32.8898 33.36H33.6898V34.512H32.9058C32.2444 34.512 31.7164 34.544 31.3218 34.608C30.9271 34.672 30.6444 34.784 30.4738 34.944C30.3138 35.0933 30.2338 35.3067 30.2338 35.584C30.2338 35.936 30.3564 36.224 30.6018 36.448C30.8471 36.672 31.1884 36.784 31.6258 36.784C31.9778 36.784 32.2871 36.704 32.5538 36.544C32.8311 36.3733 33.0498 36.144 33.2098 35.856C33.3698 35.568 33.4498 35.2373 33.4498 34.864V33.024C33.4498 32.4907 33.3324 32.1067 33.0978 31.872C32.8631 31.6373 32.4684 31.52 31.9138 31.52C31.6044 31.52 31.2684 31.5573 30.9058 31.632C30.5538 31.7067 30.1804 31.8347 29.7858 32.016C29.5831 32.112 29.4018 32.1387 29.2418 32.096C29.0924 32.0533 28.9751 31.968 28.8898 31.84C28.8044 31.7013 28.7618 31.552 28.7618 31.392C28.7618 31.232 28.8044 31.0773 28.8898 30.928C28.9751 30.768 29.1191 30.6507 29.3218 30.576C29.8124 30.3733 30.2818 30.2293 30.7298 30.144C31.1884 30.0587 31.6044 30.016 31.9778 30.016C32.7458 30.016 33.3751 30.1333 33.8658 30.368C34.3671 30.6027 34.7404 30.96 34.9858 31.44C35.2311 31.9093 35.3538 32.5173 35.3538 33.264V37.104C35.3538 37.4347 35.2738 37.6907 35.1138 37.872C34.9538 38.0427 34.7244 38.128 34.4258 38.128C34.1271 38.128 33.8924 38.0427 33.7218 37.872C33.5618 37.6907 33.4818 37.4347 33.4818 37.104V36.336H33.6098C33.5351 36.7093 33.3858 37.0347 33.1618 37.312C32.9484 37.5787 32.6764 37.7867 32.3458 37.936C32.0151 38.0853 31.6364 38.16 31.2098 38.16ZM36.4238 41.024C36.1891 41.0453 35.9971 41.008 35.8477 40.912C35.6984 40.8267 35.5971 40.7147 35.5437 40.576C35.4797 40.4373 35.4584 40.2933 35.4797 40.144C35.5011 39.9947 35.5651 39.8613 35.6717 39.744C35.7677 39.6373 35.9011 39.5787 36.0717 39.568C36.5518 39.5253 36.8984 39.3867 37.1118 39.152C37.3358 38.928 37.4478 38.5813 37.4478 38.112V31.056C37.4478 30.7253 37.5331 30.4747 37.7038 30.304C37.8851 30.1333 38.1358 30.048 38.4557 30.048C38.7758 30.048 39.0211 30.1333 39.1918 30.304C39.3624 30.4747 39.4478 30.7253 39.4478 31.056V37.936C39.4478 38.6187 39.3358 39.1787 39.1118 39.616C38.8984 40.0533 38.5678 40.384 38.1198 40.608C37.6824 40.832 37.1171 40.9707 36.4238 41.024ZM38.4398 28.576C38.0664 28.576 37.7731 28.4853 37.5598 28.304C37.3571 28.112 37.2558 27.8507 37.2558 27.52C37.2558 27.1787 37.3571 26.9173 37.5598 26.736C37.7731 26.5547 38.0664 26.464 38.4398 26.464C38.8238 26.464 39.1171 26.5547 39.3198 26.736C39.5224 26.9173 39.6238 27.1787 39.6238 27.52C39.6238 27.8507 39.5224 28.112 39.3198 28.304C39.1171 28.4853 38.8238 28.576 38.4398 28.576ZM44.1004 38.16C43.535 38.16 43.0284 38.0533 42.5804 37.84C42.143 37.616 41.7964 37.3173 41.5404 36.944C41.295 36.5707 41.1724 36.1493 41.1724 35.68C41.1724 35.104 41.3217 34.6507 41.6204 34.32C41.919 33.9787 42.4044 33.7333 43.0764 33.584C43.7484 33.4347 44.6497 33.36 45.7804 33.36H46.5804V34.512H45.7964C45.135 34.512 44.607 34.544 44.2124 34.608C43.8177 34.672 43.535 34.784 43.3644 34.944C43.2044 35.0933 43.1244 35.3067 43.1244 35.584C43.1244 35.936 43.247 36.224 43.4924 36.448C43.7377 36.672 44.079 36.784 44.5164 36.784C44.8684 36.784 45.1777 36.704 45.4444 36.544C45.7217 36.3733 45.9404 36.144 46.1004 35.856C46.2604 35.568 46.3404 35.2373 46.3404 34.864V33.024C46.3404 32.4907 46.223 32.1067 45.9884 31.872C45.7537 31.6373 45.359 31.52 44.8044 31.52C44.495 31.52 44.159 31.5573 43.7964 31.632C43.4444 31.7067 43.071 31.8347 42.6764 32.016C42.4737 32.112 42.2924 32.1387 42.1324 32.096C41.983 32.0533 41.8657 31.968 41.7804 31.84C41.695 31.7013 41.6524 31.552 41.6524 31.392C41.6524 31.232 41.695 31.0773 41.7804 30.928C41.8657 30.768 42.0097 30.6507 42.2124 30.576C42.703 30.3733 43.1724 30.2293 43.6204 30.144C44.079 30.0587 44.495 30.016 44.8684 30.016C45.6364 30.016 46.2657 30.1333 46.7564 30.368C47.2577 30.6027 47.631 30.96 47.8764 31.44C48.1217 31.9093 48.2444 32.5173 48.2444 33.264V37.104C48.2444 37.4347 48.1644 37.6907 48.0044 37.872C47.8444 38.0427 47.615 38.128 47.3164 38.128C47.0177 38.128 46.783 38.0427 46.6124 37.872C46.4524 37.6907 46.3724 37.4347 46.3724 37.104V36.336H46.5004C46.4257 36.7093 46.2764 37.0347 46.0524 37.312C45.839 37.5787 45.567 37.7867 45.2364 37.936C44.9057 38.0853 44.527 38.16 44.1004 38.16Z" fill="white"/>
<rect x="1" y="1" width="182" height="122" rx="7" stroke="#676F7D" stroke-width="2"/>
</svg>
