<svg width="184" height="124" viewBox="0 0 184 124" fill="none" xmlns="http://www.w3.org/2000/svg">
<rect x="1" y="1" width="182" height="122" rx="7" fill="#26292E"/>
<path d="M55.0824 44.091C54.8917 44.091 54.7444 44.039 54.6404 43.935C54.5364 43.8223 54.4844 43.6663 54.4844 43.467V35.446C54.4844 35.2467 54.5364 35.095 54.6404 34.991C54.7531 34.887 54.9047 34.835 55.0954 34.835H58.1894C59.1774 34.835 59.9357 35.069 60.4644 35.537C61.0017 35.9963 61.2704 36.6507 61.2704 37.5C61.2704 38.0547 61.1491 38.5313 60.9064 38.93C60.6637 39.32 60.3127 39.619 59.8534 39.827C59.3941 40.035 58.8394 40.139 58.1894 40.139L58.3194 39.957H58.6054C58.9521 39.957 59.2511 40.0437 59.5024 40.217C59.7624 40.3903 59.9921 40.6677 60.1914 41.049L61.3874 43.246C61.4654 43.3847 61.5001 43.519 61.4914 43.649C61.4827 43.779 61.4351 43.8873 61.3484 43.974C61.2617 44.052 61.1361 44.091 60.9714 44.091C60.7981 44.091 60.6594 44.0563 60.5554 43.987C60.4514 43.909 60.3604 43.7963 60.2824 43.649L58.8784 41.075C58.6877 40.711 58.4711 40.4727 58.2284 40.36C57.9857 40.2387 57.6607 40.178 57.2534 40.178H55.6934V43.467C55.6934 43.6663 55.6414 43.8223 55.5374 43.935C55.4421 44.039 55.2904 44.091 55.0824 44.091ZM55.6934 39.242H57.9944C58.6877 39.242 59.2077 39.099 59.5544 38.813C59.9011 38.5183 60.0744 38.0893 60.0744 37.526C60.0744 36.9627 59.9011 36.538 59.5544 36.252C59.2077 35.966 58.6877 35.823 57.9944 35.823H55.6934V39.242ZM65.8481 44.117C65.1635 44.117 64.5741 43.987 64.0801 43.727C63.5948 43.4583 63.2178 43.0813 62.9491 42.596C62.6805 42.102 62.5461 41.5213 62.5461 40.854C62.5461 40.1953 62.6761 39.619 62.9361 39.125C63.2048 38.631 63.5688 38.2453 64.0281 37.968C64.4961 37.6907 65.0291 37.552 65.6271 37.552C66.0518 37.552 66.4331 37.6257 66.7711 37.773C67.1178 37.9117 67.4125 38.1153 67.6551 38.384C67.8978 38.6527 68.0798 38.982 68.2011 39.372C68.3311 39.7533 68.3961 40.1867 68.3961 40.672C68.3961 40.8107 68.3528 40.919 68.2661 40.997C68.1881 41.0663 68.0711 41.101 67.9151 41.101H63.4691V40.347H67.6161L67.3951 40.529C67.3951 40.0783 67.3258 39.697 67.1871 39.385C67.0571 39.0643 66.8621 38.8217 66.6021 38.657C66.3508 38.4923 66.0345 38.41 65.6531 38.41C65.2371 38.41 64.8818 38.5097 64.5871 38.709C64.2925 38.8997 64.0671 39.1727 63.9111 39.528C63.7551 39.8747 63.6771 40.2777 63.6771 40.737V40.815C63.6771 41.595 63.8635 42.1843 64.2361 42.583C64.6088 42.9817 65.1461 43.181 65.8481 43.181C66.1255 43.181 66.4071 43.1463 66.6931 43.077C66.9878 43.0077 67.2695 42.882 67.5381 42.7C67.6681 42.622 67.7851 42.5873 67.8891 42.596C68.0018 42.596 68.0928 42.6307 68.1621 42.7C68.2315 42.7607 68.2748 42.8387 68.2921 42.934C68.3095 43.0207 68.2965 43.116 68.2531 43.22C68.2098 43.324 68.1275 43.415 68.0061 43.493C67.7201 43.6923 67.3778 43.8483 66.9791 43.961C66.5891 44.065 66.2121 44.117 65.8481 44.117ZM72.6105 44.117C71.9691 44.117 71.4145 43.9827 70.9465 43.714C70.4785 43.4367 70.1188 43.051 69.8675 42.557C69.6161 42.0543 69.4905 41.465 69.4905 40.789C69.4905 40.2863 69.5598 39.8357 69.6985 39.437C69.8458 39.0383 70.0538 38.7003 70.3225 38.423C70.5911 38.137 70.9161 37.9203 71.2975 37.773C71.6875 37.6257 72.1251 37.552 72.6105 37.552C72.9138 37.552 73.2345 37.5997 73.5725 37.695C73.9105 37.7903 74.2225 37.9463 74.5085 38.163C74.6038 38.2323 74.6645 38.3147 74.6905 38.41C74.7165 38.4967 74.7165 38.5877 74.6905 38.683C74.6731 38.7783 74.6298 38.8607 74.5605 38.93C74.4998 38.9907 74.4175 39.0253 74.3135 39.034C74.2181 39.0427 74.1141 39.0123 74.0015 38.943C73.7935 38.787 73.5725 38.6743 73.3385 38.605C73.1131 38.5357 72.8965 38.501 72.6885 38.501C72.3678 38.501 72.0818 38.553 71.8305 38.657C71.5878 38.761 71.3798 38.9127 71.2065 39.112C71.0418 39.3027 70.9161 39.541 70.8295 39.827C70.7428 40.1043 70.6995 40.4293 70.6995 40.802C70.6995 41.5387 70.8728 42.1193 71.2195 42.544C71.5661 42.96 72.0558 43.168 72.6885 43.168C72.8965 43.168 73.1131 43.1377 73.3385 43.077C73.5638 43.0077 73.7848 42.895 74.0015 42.739C74.1141 42.6697 74.2181 42.6437 74.3135 42.661C74.4088 42.6697 74.4868 42.7087 74.5475 42.778C74.6168 42.8387 74.6601 42.9167 74.6775 43.012C74.6948 43.0987 74.6861 43.1897 74.6515 43.285C74.6255 43.3803 74.5648 43.4583 74.4695 43.519C74.1921 43.727 73.8888 43.8787 73.5595 43.974C73.2301 44.0693 72.9138 44.117 72.6105 44.117ZM76.4954 44.065C76.3134 44.065 76.1704 44.0087 76.0664 43.896C75.9624 43.7833 75.9104 43.6273 75.9104 43.428V38.241C75.9104 38.033 75.9624 37.877 76.0664 37.773C76.1704 37.6603 76.3134 37.604 76.4954 37.604C76.6861 37.604 76.8334 37.6603 76.9374 37.773C77.0414 37.877 77.0934 38.033 77.0934 38.241V43.428C77.0934 43.6273 77.0414 43.7833 76.9374 43.896C76.8421 44.0087 76.6948 44.065 76.4954 44.065ZM76.4954 36.2C76.2614 36.2 76.0751 36.1393 75.9364 36.018C75.8064 35.888 75.7414 35.719 75.7414 35.511C75.7414 35.2857 75.8064 35.1167 75.9364 35.004C76.0751 34.8827 76.2614 34.822 76.4954 34.822C76.7468 34.822 76.9331 34.8827 77.0544 35.004C77.1844 35.1167 77.2494 35.2857 77.2494 35.511C77.2494 35.719 77.1844 35.888 77.0544 36.018C76.9331 36.1393 76.7468 36.2 76.4954 36.2ZM82.3104 44.117C81.7384 44.117 81.2487 43.974 80.8414 43.688C80.4341 43.402 80.1611 43.0163 80.0224 42.531L80.1654 42.336V43.48C80.1654 43.6793 80.1134 43.831 80.0094 43.935C79.9141 44.039 79.7711 44.091 79.5804 44.091C79.3984 44.091 79.2554 44.039 79.1514 43.935C79.0474 43.831 78.9954 43.6793 78.9954 43.48V35.342C78.9954 35.1427 79.0474 34.9953 79.1514 34.9C79.2554 34.796 79.3984 34.744 79.5804 34.744C79.7711 34.744 79.9184 34.796 80.0224 34.9C80.1264 34.9953 80.1784 35.1427 80.1784 35.342V39.099H80.0354C80.1741 38.631 80.4471 38.2583 80.8544 37.981C81.2617 37.695 81.7471 37.552 82.3104 37.552C82.8737 37.552 83.3634 37.6863 83.7794 37.955C84.2041 38.215 84.5291 38.592 84.7544 39.086C84.9884 39.5713 85.1054 40.152 85.1054 40.828C85.1054 41.4953 84.9884 42.0803 84.7544 42.583C84.5204 43.077 84.1954 43.4583 83.7794 43.727C83.3634 43.987 82.8737 44.117 82.3104 44.117ZM82.0374 43.181C82.4101 43.181 82.7351 43.09 83.0124 42.908C83.2984 42.726 83.5194 42.4617 83.6754 42.115C83.8314 41.7683 83.9094 41.3393 83.9094 40.828C83.9094 40.0653 83.7404 39.4847 83.4024 39.086C83.0644 38.6873 82.6094 38.488 82.0374 38.488C81.6561 38.488 81.3224 38.579 81.0364 38.761C80.7591 38.9343 80.5424 39.1943 80.3864 39.541C80.2391 39.8877 80.1654 40.3167 80.1654 40.828C80.1654 41.5907 80.3344 42.1757 80.6724 42.583C81.0104 42.9817 81.4654 43.181 82.0374 43.181ZM89.3163 44.117C88.6923 44.117 88.1506 43.9827 87.6913 43.714C87.2319 43.4453 86.8766 43.064 86.6253 42.57C86.3739 42.076 86.2483 41.4953 86.2483 40.828C86.2483 40.3253 86.3176 39.8747 86.4563 39.476C86.6036 39.0687 86.8116 38.722 87.0803 38.436C87.3489 38.15 87.6696 37.9333 88.0423 37.786C88.4236 37.63 88.8483 37.552 89.3163 37.552C89.9403 37.552 90.4819 37.6863 90.9413 37.955C91.4006 38.2237 91.7559 38.605 92.0073 39.099C92.2586 39.5843 92.3843 40.1607 92.3843 40.828C92.3843 41.3307 92.3106 41.7857 92.1633 42.193C92.0246 42.6003 91.8209 42.947 91.5523 43.233C91.2836 43.519 90.9586 43.74 90.5773 43.896C90.2046 44.0433 89.7843 44.117 89.3163 44.117ZM89.3163 43.181C89.6976 43.181 90.0269 43.09 90.3043 42.908C90.5903 42.726 90.8069 42.4617 90.9543 42.115C91.1103 41.7683 91.1883 41.3393 91.1883 40.828C91.1883 40.0653 91.0193 39.4847 90.6813 39.086C90.3433 38.6873 89.8883 38.488 89.3163 38.488C88.9436 38.488 88.6143 38.579 88.3283 38.761C88.0509 38.9343 87.8343 39.1943 87.6783 39.541C87.5223 39.8877 87.4443 40.3167 87.4443 40.828C87.4443 41.5907 87.6133 42.1757 87.9513 42.583C88.2979 42.9817 88.7529 43.181 89.3163 43.181ZM99.7073 44.117C99.1527 44.117 98.663 43.987 98.2383 43.727C97.8223 43.4583 97.4973 43.077 97.2633 42.583C97.0293 42.0803 96.9123 41.4953 96.9123 40.828C96.9123 40.152 97.025 39.5713 97.2503 39.086C97.4843 38.592 97.8093 38.215 98.2253 37.955C98.65 37.6863 99.144 37.552 99.7073 37.552C100.271 37.552 100.756 37.695 101.163 37.981C101.571 38.2583 101.844 38.631 101.982 39.099H101.839V35.342C101.839 35.1427 101.887 34.9953 101.982 34.9C102.086 34.796 102.234 34.744 102.424 34.744C102.615 34.744 102.762 34.796 102.866 34.9C102.97 34.9953 103.022 35.1427 103.022 35.342V43.48C103.022 43.6793 102.97 43.831 102.866 43.935C102.762 44.039 102.615 44.091 102.424 44.091C102.242 44.091 102.099 44.039 101.995 43.935C101.891 43.831 101.839 43.6793 101.839 43.48V42.297L101.982 42.531C101.852 43.0163 101.579 43.402 101.163 43.688C100.756 43.974 100.271 44.117 99.7073 44.117ZM99.9803 43.181C100.362 43.181 100.691 43.09 100.968 42.908C101.254 42.726 101.471 42.4617 101.618 42.115C101.774 41.7683 101.852 41.3393 101.852 40.828C101.852 40.0653 101.683 39.4847 101.345 39.086C101.007 38.6873 100.552 38.488 99.9803 38.488C99.6077 38.488 99.2783 38.579 98.9923 38.761C98.715 38.9343 98.4983 39.1943 98.3423 39.541C98.1863 39.8877 98.1083 40.3167 98.1083 40.828C98.1083 41.5907 98.2773 42.1757 98.6153 42.583C98.962 42.9817 99.417 43.181 99.9803 43.181ZM107.844 44.117C107.16 44.117 106.57 43.987 106.076 43.727C105.591 43.4583 105.214 43.0813 104.945 42.596C104.677 42.102 104.542 41.5213 104.542 40.854C104.542 40.1953 104.672 39.619 104.932 39.125C105.201 38.631 105.565 38.2453 106.024 37.968C106.492 37.6907 107.025 37.552 107.623 37.552C108.048 37.552 108.429 37.6257 108.767 37.773C109.114 37.9117 109.409 38.1153 109.651 38.384C109.894 38.6527 110.076 38.982 110.197 39.372C110.327 39.7533 110.392 40.1867 110.392 40.672C110.392 40.8107 110.349 40.919 110.262 40.997C110.184 41.0663 110.067 41.101 109.911 41.101H105.465V40.347H109.612L109.391 40.529C109.391 40.0783 109.322 39.697 109.183 39.385C109.053 39.0643 108.858 38.8217 108.598 38.657C108.347 38.4923 108.031 38.41 107.649 38.41C107.233 38.41 106.878 38.5097 106.583 38.709C106.289 38.8997 106.063 39.1727 105.907 39.528C105.751 39.8747 105.673 40.2777 105.673 40.737V40.815C105.673 41.595 105.86 42.1843 106.232 42.583C106.605 42.9817 107.142 43.181 107.844 43.181C108.122 43.181 108.403 43.1463 108.689 43.077C108.984 43.0077 109.266 42.882 109.534 42.7C109.664 42.622 109.781 42.5873 109.885 42.596C109.998 42.596 110.089 42.6307 110.158 42.7C110.228 42.7607 110.271 42.8387 110.288 42.934C110.306 43.0207 110.293 43.116 110.249 43.22C110.206 43.324 110.124 43.415 110.002 43.493C109.716 43.6923 109.374 43.8483 108.975 43.961C108.585 44.065 108.208 44.117 107.844 44.117ZM117.242 44.117C116.592 44.117 116.098 43.9263 115.76 43.545C115.422 43.155 115.253 42.596 115.253 41.868V35.342C115.253 35.1427 115.305 34.9953 115.409 34.9C115.513 34.796 115.656 34.744 115.838 34.744C116.029 34.744 116.176 34.796 116.28 34.9C116.384 34.9953 116.436 35.1427 116.436 35.342V41.777C116.436 42.2277 116.527 42.5657 116.709 42.791C116.9 43.0077 117.169 43.116 117.515 43.116C117.593 43.116 117.663 43.116 117.723 43.116C117.784 43.1073 117.845 43.0987 117.905 43.09C118.001 43.0813 118.07 43.1073 118.113 43.168C118.157 43.2287 118.178 43.35 118.178 43.532C118.178 43.6967 118.139 43.8267 118.061 43.922C117.992 44.0087 117.875 44.065 117.71 44.091C117.632 44.0997 117.554 44.104 117.476 44.104C117.398 44.1127 117.32 44.117 117.242 44.117ZM121.425 44.117C120.914 44.117 120.485 44.0217 120.138 43.831C119.8 43.6403 119.549 43.3587 119.384 42.986C119.22 42.6133 119.137 42.1453 119.137 41.582V38.176C119.137 37.9767 119.185 37.8293 119.28 37.734C119.384 37.63 119.532 37.578 119.722 37.578C119.913 37.578 120.06 37.63 120.164 37.734C120.268 37.8293 120.32 37.9767 120.32 38.176V41.582C120.32 42.1193 120.429 42.518 120.645 42.778C120.862 43.0293 121.204 43.155 121.672 43.155C122.192 43.155 122.613 42.9817 122.933 42.635C123.263 42.2883 123.427 41.829 123.427 41.257V38.176C123.427 37.9767 123.475 37.8293 123.57 37.734C123.674 37.63 123.822 37.578 124.012 37.578C124.203 37.578 124.35 37.63 124.454 37.734C124.558 37.8293 124.61 37.9767 124.61 38.176V43.48C124.61 43.8873 124.42 44.091 124.038 44.091C123.848 44.091 123.7 44.039 123.596 43.935C123.501 43.831 123.453 43.6793 123.453 43.48V42.349L123.622 42.57C123.449 43.0727 123.167 43.4583 122.777 43.727C122.396 43.987 121.945 44.117 121.425 44.117ZM126.709 44C126.579 44 126.475 43.9697 126.397 43.909C126.319 43.8483 126.263 43.7703 126.228 43.675C126.202 43.5797 126.202 43.4757 126.228 43.363C126.263 43.2503 126.328 43.1377 126.423 43.025L130.024 38.28V38.579H126.631C126.484 38.579 126.367 38.54 126.28 38.462C126.202 38.3753 126.163 38.2627 126.163 38.124C126.163 37.9767 126.202 37.864 126.28 37.786C126.367 37.708 126.484 37.669 126.631 37.669H130.596C130.743 37.669 130.86 37.6993 130.947 37.76C131.042 37.8207 131.103 37.8987 131.129 37.994C131.164 38.0893 131.168 38.1933 131.142 38.306C131.116 38.41 131.055 38.514 130.96 38.618L127.307 43.415V43.09H130.869C131.181 43.09 131.337 43.2417 131.337 43.545C131.337 43.6837 131.294 43.7963 131.207 43.883C131.129 43.961 131.016 44 130.869 44H126.709Z" fill="white"/>
<path d="M12.9783 115.081C12.3483 115.081 11.8083 114.949 11.3583 114.685C10.9083 114.421 10.5603 114.046 10.3143 113.56C10.0743 113.068 9.95434 112.489 9.95434 111.823C9.95434 111.325 10.0233 110.878 10.1613 110.482C10.2993 110.08 10.4973 109.738 10.7553 109.456C11.0133 109.168 11.3283 108.949 11.7003 108.799C12.0783 108.649 12.5043 108.574 12.9783 108.574C13.3383 108.574 13.6833 108.625 14.0133 108.727C14.3493 108.829 14.6373 108.973 14.8773 109.159C14.9733 109.225 15.0363 109.3 15.0663 109.384C15.0963 109.468 15.0993 109.549 15.0753 109.627C15.0573 109.699 15.0183 109.762 14.9583 109.816C14.9043 109.864 14.8353 109.891 14.7513 109.897C14.6673 109.897 14.5773 109.864 14.4813 109.798C14.2713 109.636 14.0403 109.519 13.7883 109.447C13.5423 109.369 13.2783 109.33 12.9963 109.33C12.5343 109.33 12.1413 109.429 11.8173 109.627C11.4993 109.819 11.2563 110.101 11.0883 110.473C10.9263 110.839 10.8453 111.289 10.8453 111.823C10.8453 112.351 10.9263 112.804 11.0883 113.182C11.2563 113.554 11.4993 113.839 11.8173 114.037C12.1413 114.229 12.5343 114.325 12.9963 114.325C13.2783 114.325 13.5453 114.286 13.7973 114.208C14.0553 114.13 14.2923 114.01 14.5083 113.848C14.6043 113.782 14.6913 113.752 14.7693 113.758C14.8533 113.764 14.9223 113.791 14.9763 113.839C15.0303 113.881 15.0663 113.941 15.0843 114.019C15.1083 114.091 15.1083 114.166 15.0843 114.244C15.0603 114.322 15.0063 114.391 14.9223 114.451C14.6763 114.661 14.3823 114.82 14.0403 114.928C13.7043 115.03 13.3503 115.081 12.9783 115.081ZM17.5306 115.081C17.0806 115.081 16.7386 114.949 16.5046 114.685C16.2706 114.415 16.1536 114.028 16.1536 113.524V109.006C16.1536 108.868 16.1896 108.766 16.2616 108.7C16.3336 108.628 16.4326 108.592 16.5586 108.592C16.6906 108.592 16.7926 108.628 16.8646 108.7C16.9366 108.766 16.9726 108.868 16.9726 109.006V113.461C16.9726 113.773 17.0356 114.007 17.1616 114.163C17.2936 114.313 17.4796 114.388 17.7196 114.388C17.7736 114.388 17.8216 114.388 17.8636 114.388C17.9056 114.382 17.9476 114.376 17.9896 114.37C18.0556 114.364 18.1036 114.382 18.1336 114.424C18.1636 114.466 18.1786 114.55 18.1786 114.676C18.1786 114.79 18.1516 114.88 18.0976 114.946C18.0496 115.006 17.9686 115.045 17.8546 115.063C17.8006 115.069 17.7466 115.072 17.6926 115.072C17.6386 115.078 17.5846 115.081 17.5306 115.081ZM19.2656 115.045C19.1396 115.045 19.0406 115.006 18.9686 114.928C18.8966 114.85 18.8606 114.742 18.8606 114.604V111.013C18.8606 110.869 18.8966 110.761 18.9686 110.689C19.0406 110.611 19.1396 110.572 19.2656 110.572C19.3976 110.572 19.4996 110.611 19.5716 110.689C19.6436 110.761 19.6796 110.869 19.6796 111.013V114.604C19.6796 114.742 19.6436 114.85 19.5716 114.928C19.5056 115.006 19.4036 115.045 19.2656 115.045ZM19.2656 109.6C19.1036 109.6 18.9746 109.558 18.8786 109.474C18.7886 109.384 18.7436 109.267 18.7436 109.123C18.7436 108.967 18.7886 108.85 18.8786 108.772C18.9746 108.688 19.1036 108.646 19.2656 108.646C19.4396 108.646 19.5686 108.688 19.6526 108.772C19.7426 108.85 19.7876 108.967 19.7876 109.123C19.7876 109.267 19.7426 109.384 19.6526 109.474C19.5686 109.558 19.4396 109.6 19.2656 109.6ZM23.0214 115.081C22.5474 115.081 22.1394 114.991 21.7974 114.811C21.4614 114.625 21.2004 114.364 21.0144 114.028C20.8284 113.686 20.7354 113.284 20.7354 112.822C20.7354 112.366 20.8254 111.967 21.0054 111.625C21.1914 111.283 21.4434 111.016 21.7614 110.824C22.0854 110.632 22.4544 110.536 22.8684 110.536C23.1624 110.536 23.4264 110.587 23.6604 110.689C23.9004 110.785 24.1044 110.926 24.2724 111.112C24.4404 111.298 24.5664 111.526 24.6504 111.796C24.7404 112.06 24.7854 112.36 24.7854 112.696C24.7854 112.792 24.7554 112.867 24.6954 112.921C24.6414 112.969 24.5604 112.993 24.4524 112.993H21.3744V112.471H24.2454L24.0924 112.597C24.0924 112.285 24.0444 112.021 23.9484 111.805C23.8584 111.583 23.7234 111.415 23.5434 111.301C23.3694 111.187 23.1504 111.13 22.8864 111.13C22.5984 111.13 22.3524 111.199 22.1484 111.337C21.9444 111.469 21.7884 111.658 21.6804 111.904C21.5724 112.144 21.5184 112.423 21.5184 112.741V112.795C21.5184 113.335 21.6474 113.743 21.9054 114.019C22.1634 114.295 22.5354 114.433 23.0214 114.433C23.2134 114.433 23.4084 114.409 23.6064 114.361C23.8104 114.313 24.0054 114.226 24.1914 114.1C24.2814 114.046 24.3624 114.022 24.4344 114.028C24.5124 114.028 24.5754 114.052 24.6234 114.1C24.6714 114.142 24.7014 114.196 24.7134 114.262C24.7254 114.322 24.7164 114.388 24.6864 114.46C24.6564 114.532 24.5994 114.595 24.5154 114.649C24.3174 114.787 24.0804 114.895 23.8044 114.973C23.5344 115.045 23.2734 115.081 23.0214 115.081ZM26.209 115.063C26.083 115.063 25.984 115.027 25.912 114.955C25.84 114.883 25.804 114.778 25.804 114.64V110.968C25.804 110.83 25.84 110.728 25.912 110.662C25.984 110.59 26.083 110.554 26.209 110.554C26.335 110.554 26.431 110.59 26.497 110.662C26.569 110.728 26.605 110.83 26.605 110.968V111.706L26.506 111.571C26.632 111.229 26.836 110.971 27.118 110.797C27.406 110.623 27.733 110.536 28.099 110.536C28.453 110.536 28.744 110.599 28.972 110.725C29.2 110.851 29.371 111.043 29.485 111.301C29.599 111.559 29.656 111.886 29.656 112.282V114.64C29.656 114.778 29.62 114.883 29.548 114.955C29.482 115.027 29.383 115.063 29.251 115.063C29.119 115.063 29.017 115.027 28.945 114.955C28.873 114.883 28.837 114.778 28.837 114.64V112.327C28.837 111.937 28.762 111.652 28.612 111.472C28.462 111.292 28.222 111.202 27.892 111.202C27.508 111.202 27.199 111.322 26.965 111.562C26.737 111.796 26.623 112.114 26.623 112.516V114.64C26.623 114.922 26.485 115.063 26.209 115.063ZM32.7724 115.081C32.4184 115.081 32.1214 115.018 31.8814 114.892C31.6474 114.766 31.4704 114.583 31.3504 114.343C31.2364 114.103 31.1794 113.809 31.1794 113.461V111.247H30.6034C30.4954 111.247 30.4114 111.22 30.3514 111.166C30.2914 111.106 30.2614 111.028 30.2614 110.932C30.2614 110.83 30.2914 110.752 30.3514 110.698C30.4114 110.644 30.4954 110.617 30.6034 110.617H31.1794V109.636C31.1794 109.498 31.2154 109.396 31.2874 109.33C31.3594 109.258 31.4614 109.222 31.5934 109.222C31.7254 109.222 31.8244 109.258 31.8904 109.33C31.9624 109.396 31.9984 109.498 31.9984 109.636V110.617H33.0874C33.2014 110.617 33.2884 110.644 33.3484 110.698C33.4084 110.752 33.4384 110.83 33.4384 110.932C33.4384 111.028 33.4084 111.106 33.3484 111.166C33.2884 111.22 33.2014 111.247 33.0874 111.247H31.9984V113.389C31.9984 113.719 32.0674 113.968 32.2054 114.136C32.3434 114.304 32.5714 114.388 32.8894 114.388C33.0034 114.388 33.0994 114.379 33.1774 114.361C33.2554 114.337 33.3244 114.325 33.3844 114.325C33.4384 114.319 33.4834 114.337 33.5194 114.379C33.5614 114.421 33.5824 114.499 33.5824 114.613C33.5824 114.697 33.5674 114.775 33.5374 114.847C33.5134 114.913 33.4624 114.958 33.3844 114.982C33.3124 115.006 33.2164 115.027 33.0964 115.045C32.9764 115.069 32.8684 115.081 32.7724 115.081ZM36.161 115.081C35.687 115.081 35.279 114.991 34.937 114.811C34.601 114.625 34.34 114.364 34.154 114.028C33.968 113.686 33.875 113.284 33.875 112.822C33.875 112.366 33.965 111.967 34.145 111.625C34.331 111.283 34.583 111.016 34.901 110.824C35.225 110.632 35.594 110.536 36.008 110.536C36.302 110.536 36.566 110.587 36.8 110.689C37.04 110.785 37.244 110.926 37.412 111.112C37.58 111.298 37.706 111.526 37.79 111.796C37.88 112.06 37.925 112.36 37.925 112.696C37.925 112.792 37.895 112.867 37.835 112.921C37.781 112.969 37.7 112.993 37.592 112.993H34.514V112.471H37.385L37.232 112.597C37.232 112.285 37.184 112.021 37.088 111.805C36.998 111.583 36.863 111.415 36.683 111.301C36.509 111.187 36.29 111.13 36.026 111.13C35.738 111.13 35.492 111.199 35.288 111.337C35.084 111.469 34.928 111.658 34.82 111.904C34.712 112.144 34.658 112.423 34.658 112.741V112.795C34.658 113.335 34.787 113.743 35.045 114.019C35.303 114.295 35.675 114.433 36.161 114.433C36.353 114.433 36.548 114.409 36.746 114.361C36.95 114.313 37.145 114.226 37.331 114.1C37.421 114.046 37.502 114.022 37.574 114.028C37.652 114.028 37.715 114.052 37.763 114.1C37.811 114.142 37.841 114.196 37.853 114.262C37.865 114.322 37.856 114.388 37.826 114.46C37.796 114.532 37.739 114.595 37.655 114.649C37.457 114.787 37.22 114.895 36.944 114.973C36.674 115.045 36.413 115.081 36.161 115.081ZM39.3396 115.036C39.1836 115.036 39.0546 114.985 38.9526 114.883C38.8506 114.781 38.7996 114.652 38.7996 114.496C38.7996 114.34 38.8506 114.214 38.9526 114.118C39.0546 114.022 39.1836 113.974 39.3396 113.974C39.5076 113.974 39.6366 114.022 39.7266 114.118C39.8226 114.214 39.8706 114.34 39.8706 114.496C39.8706 114.652 39.8226 114.781 39.7266 114.883C39.6366 114.985 39.5076 115.036 39.3396 115.036ZM39.3396 111.643C39.1836 111.643 39.0546 111.595 38.9526 111.499C38.8506 111.397 38.7996 111.268 38.7996 111.112C38.7996 110.956 38.8506 110.83 38.9526 110.734C39.0546 110.632 39.1836 110.581 39.3396 110.581C39.5076 110.581 39.6366 110.632 39.7266 110.734C39.8226 110.83 39.8706 110.956 39.8706 111.112C39.8706 111.268 39.8226 111.397 39.7266 111.499C39.6366 111.595 39.5076 111.643 39.3396 111.643ZM41.5572 115C41.4132 115 41.3052 114.967 41.2332 114.901C41.1672 114.829 41.1342 114.733 41.1342 114.613C41.1342 114.541 41.1522 114.469 41.1882 114.397C41.2242 114.325 41.2782 114.253 41.3502 114.181L43.3212 112.066C43.6212 111.748 43.8372 111.454 43.9692 111.184C44.1012 110.914 44.1672 110.641 44.1672 110.365C44.1672 110.017 44.0592 109.753 43.8432 109.573C43.6332 109.387 43.3242 109.294 42.9162 109.294C42.6642 109.294 42.4212 109.336 42.1872 109.42C41.9592 109.498 41.7342 109.621 41.5122 109.789C41.4282 109.849 41.3502 109.876 41.2782 109.87C41.2062 109.864 41.1432 109.837 41.0892 109.789C41.0412 109.735 41.0052 109.675 40.9812 109.609C40.9632 109.537 40.9662 109.462 40.9902 109.384C41.0142 109.306 41.0652 109.24 41.1432 109.186C41.3892 108.994 41.6742 108.844 41.9982 108.736C42.3222 108.628 42.6552 108.574 42.9972 108.574C43.4292 108.574 43.7922 108.643 44.0862 108.781C44.3862 108.913 44.6142 109.108 44.7702 109.366C44.9262 109.618 45.0042 109.927 45.0042 110.293C45.0042 110.545 44.9622 110.794 44.8782 111.04C44.7942 111.28 44.6682 111.526 44.5002 111.778C44.3382 112.03 44.1282 112.291 43.8702 112.561L41.9982 114.532V114.289H44.9502C45.0702 114.289 45.1602 114.319 45.2202 114.379C45.2862 114.439 45.3192 114.526 45.3192 114.64C45.3192 114.754 45.2862 114.844 45.2202 114.91C45.1602 114.97 45.0702 115 44.9502 115H41.5572ZM48.4837 115.081C47.7517 115.081 47.1937 114.802 46.8097 114.244C46.4317 113.68 46.2427 112.873 46.2427 111.823C46.2427 111.109 46.3267 110.512 46.4947 110.032C46.6687 109.552 46.9207 109.189 47.2507 108.943C47.5867 108.697 47.9977 108.574 48.4837 108.574C49.2217 108.574 49.7797 108.85 50.1577 109.402C50.5357 109.948 50.7247 110.752 50.7247 111.814C50.7247 112.516 50.6377 113.11 50.4637 113.596C50.2957 114.082 50.0467 114.451 49.7167 114.703C49.3867 114.955 48.9757 115.081 48.4837 115.081ZM48.4837 114.37C48.9637 114.37 49.3207 114.163 49.5547 113.749C49.7887 113.335 49.9057 112.69 49.9057 111.814C49.9057 110.938 49.7887 110.299 49.5547 109.897C49.3267 109.489 48.9697 109.285 48.4837 109.285C48.0037 109.285 47.6467 109.489 47.4127 109.897C47.1787 110.299 47.0617 110.938 47.0617 111.814C47.0617 112.69 47.1787 113.335 47.4127 113.749C47.6467 114.163 48.0037 114.37 48.4837 114.37ZM52.5752 115C52.4612 115 52.3712 114.967 52.3052 114.901C52.2392 114.835 52.2062 114.748 52.2062 114.64C52.2062 114.526 52.2392 114.439 52.3052 114.379C52.3712 114.319 52.4612 114.289 52.5752 114.289H53.7092V109.348H54.1412L52.8272 110.194C52.7432 110.248 52.6622 110.272 52.5842 110.266C52.5122 110.254 52.4492 110.224 52.3952 110.176C52.3412 110.122 52.3052 110.059 52.2872 109.987C52.2692 109.915 52.2722 109.843 52.2962 109.771C52.3262 109.693 52.3862 109.63 52.4762 109.582L53.7182 108.772C53.8082 108.718 53.8922 108.676 53.9702 108.646C54.0542 108.61 54.1352 108.592 54.2132 108.592C54.3032 108.592 54.3812 108.619 54.4472 108.673C54.5132 108.727 54.5462 108.814 54.5462 108.934V114.289H55.5902C55.7102 114.289 55.8002 114.319 55.8602 114.379C55.9262 114.439 55.9592 114.526 55.9592 114.64C55.9592 114.754 55.9262 114.844 55.8602 114.91C55.8002 114.97 55.7102 115 55.5902 115H52.5752Z" fill="white"/>
<path d="M71.0329 63.599C70.8423 63.599 70.6863 63.534 70.5649 63.404C70.4436 63.2827 70.3829 63.131 70.3829 62.949V61.792L70.6819 62.078C70.0839 62.0607 69.5509 61.9827 69.0829 61.844C68.6236 61.7053 68.2336 61.545 67.9129 61.363C67.7569 61.2677 67.6486 61.1507 67.5879 61.012C67.5273 60.8647 67.5056 60.7173 67.5229 60.57C67.5403 60.4227 67.5923 60.297 67.6789 60.193C67.7743 60.0803 67.8913 60.011 68.0299 59.985C68.1686 59.9503 68.3289 59.985 68.5109 60.089C68.7536 60.2277 69.0699 60.362 69.4599 60.492C69.8586 60.6133 70.3353 60.674 70.8899 60.674C71.3233 60.674 71.6743 60.622 71.9429 60.518C72.2116 60.414 72.4066 60.271 72.5279 60.089C72.6579 59.907 72.7229 59.699 72.7229 59.465C72.7229 59.2743 72.6796 59.1097 72.5929 58.971C72.5063 58.8237 72.3633 58.698 72.1639 58.594C71.9646 58.4813 71.6959 58.3903 71.3579 58.321L69.9799 58.022C69.1913 57.8487 68.6019 57.5583 68.2119 57.151C67.8219 56.7437 67.6269 56.2107 67.6269 55.552C67.6269 55.0407 67.7526 54.5857 68.0039 54.187C68.2553 53.7797 68.6063 53.4547 69.0569 53.212C69.5076 52.9693 70.0363 52.8263 70.6429 52.783L70.3829 52.978V51.886C70.3829 51.704 70.4436 51.5523 70.5649 51.431C70.6863 51.301 70.8423 51.236 71.0329 51.236C71.2149 51.236 71.3666 51.301 71.4879 51.431C71.6179 51.5523 71.6829 51.704 71.6829 51.886V52.978L71.4099 52.77C71.7826 52.7787 72.1899 52.8523 72.6319 52.991C73.0826 53.1297 73.4683 53.3247 73.7889 53.576C73.9189 53.68 74.0056 53.8013 74.0489 53.94C74.0923 54.07 74.0966 54.2 74.0619 54.33C74.0273 54.4513 73.9623 54.5553 73.8669 54.642C73.7716 54.7287 73.6503 54.7807 73.5029 54.798C73.3643 54.8067 73.2039 54.759 73.0219 54.655C72.7706 54.5077 72.4889 54.3907 72.1769 54.304C71.8649 54.2087 71.4923 54.161 71.0589 54.161C70.5043 54.161 70.0666 54.2867 69.7459 54.538C69.4339 54.7807 69.2779 55.1013 69.2779 55.5C69.2779 55.7947 69.3733 56.033 69.5639 56.215C69.7546 56.3883 70.0796 56.527 70.5389 56.631L71.9559 56.943C72.7879 57.125 73.3989 57.4153 73.7889 57.814C74.1789 58.204 74.3739 58.7197 74.3739 59.361C74.3739 59.8637 74.2483 60.31 73.9969 60.7C73.7456 61.0813 73.3989 61.389 72.9569 61.623C72.5236 61.8483 72.0166 61.9913 71.4359 62.052L71.6829 61.779V62.949C71.6829 63.131 71.6223 63.2827 71.5009 63.404C71.3796 63.534 71.2236 63.599 71.0329 63.599ZM78.5159 62.13C78.0479 62.13 77.5625 62.0693 77.0599 61.948C76.5572 61.8267 76.1195 61.6447 75.7469 61.402C75.5735 61.2893 75.4565 61.1593 75.3959 61.012C75.3352 60.8647 75.3179 60.726 75.3439 60.596C75.3785 60.4573 75.4435 60.3403 75.5389 60.245C75.6429 60.1497 75.7685 60.0933 75.9159 60.076C76.0719 60.0587 76.2409 60.0977 76.4229 60.193C76.7782 60.3837 77.1205 60.5223 77.4499 60.609C77.7792 60.687 78.1172 60.726 78.4639 60.726C78.8452 60.726 79.1659 60.674 79.4259 60.57C79.6859 60.466 79.8809 60.31 80.0109 60.102C80.1495 59.894 80.2189 59.6427 80.2189 59.348C80.2189 58.9147 80.0715 58.594 79.7769 58.386C79.4909 58.1693 79.0705 58.061 78.5159 58.061H77.6839C77.4412 58.061 77.2549 58.0003 77.1249 57.879C77.0035 57.7577 76.9429 57.5887 76.9429 57.372C76.9429 57.1553 77.0035 56.9863 77.1249 56.865C77.2549 56.7437 77.4412 56.683 77.6839 56.683H78.3599C78.6892 56.683 78.9709 56.631 79.2049 56.527C79.4389 56.4143 79.6209 56.2583 79.7509 56.059C79.8809 55.8597 79.9459 55.617 79.9459 55.331C79.9459 54.9323 79.8115 54.629 79.5429 54.421C79.2829 54.213 78.9015 54.109 78.3989 54.109C78.0782 54.109 77.7749 54.148 77.4889 54.226C77.2115 54.2953 76.9039 54.4297 76.5659 54.629C76.4099 54.7243 76.2582 54.7633 76.1109 54.746C75.9722 54.7287 75.8552 54.6723 75.7599 54.577C75.6645 54.4817 75.5995 54.369 75.5649 54.239C75.5302 54.1003 75.5389 53.9617 75.5909 53.823C75.6429 53.6757 75.7512 53.55 75.9159 53.446C76.2885 53.2033 76.7002 53.0213 77.1509 52.9C77.6015 52.77 78.0652 52.705 78.5419 52.705C79.1745 52.705 79.7162 52.8047 80.1669 53.004C80.6175 53.1947 80.9599 53.472 81.1939 53.836C81.4365 54.1913 81.5579 54.6247 81.5579 55.136C81.5579 55.5 81.4885 55.8337 81.3499 56.137C81.2112 56.4317 81.0162 56.683 80.7649 56.891C80.5135 57.099 80.2102 57.2463 79.8549 57.333V57.177C80.4789 57.281 80.9642 57.541 81.3109 57.957C81.6575 58.3643 81.8309 58.8757 81.8309 59.491C81.8309 60.0283 81.6965 60.4963 81.4279 60.895C81.1592 61.2937 80.7779 61.6013 80.2839 61.818C79.7899 62.026 79.2005 62.13 78.5159 62.13ZM86.3108 62.13C85.8428 62.13 85.3574 62.0693 84.8548 61.948C84.3521 61.8267 83.9144 61.6447 83.5418 61.402C83.3684 61.2893 83.2514 61.1593 83.1908 61.012C83.1301 60.8647 83.1128 60.726 83.1388 60.596C83.1734 60.4573 83.2384 60.3403 83.3338 60.245C83.4378 60.1497 83.5634 60.0933 83.7108 60.076C83.8668 60.0587 84.0358 60.0977 84.2178 60.193C84.5731 60.3837 84.9154 60.5223 85.2448 60.609C85.5741 60.687 85.9121 60.726 86.2588 60.726C86.6401 60.726 86.9608 60.674 87.2208 60.57C87.4808 60.466 87.6758 60.31 87.8058 60.102C87.9444 59.894 88.0138 59.6427 88.0138 59.348C88.0138 58.9147 87.8664 58.594 87.5718 58.386C87.2858 58.1693 86.8654 58.061 86.3108 58.061H85.4788C85.2361 58.061 85.0498 58.0003 84.9198 57.879C84.7984 57.7577 84.7378 57.5887 84.7378 57.372C84.7378 57.1553 84.7984 56.9863 84.9198 56.865C85.0498 56.7437 85.2361 56.683 85.4788 56.683H86.1548C86.4841 56.683 86.7658 56.631 86.9998 56.527C87.2338 56.4143 87.4158 56.2583 87.5458 56.059C87.6758 55.8597 87.7408 55.617 87.7408 55.331C87.7408 54.9323 87.6064 54.629 87.3378 54.421C87.0778 54.213 86.6964 54.109 86.1938 54.109C85.8731 54.109 85.5698 54.148 85.2838 54.226C85.0064 54.2953 84.6988 54.4297 84.3608 54.629C84.2048 54.7243 84.0531 54.7633 83.9058 54.746C83.7671 54.7287 83.6501 54.6723 83.5548 54.577C83.4594 54.4817 83.3944 54.369 83.3598 54.239C83.3251 54.1003 83.3338 53.9617 83.3858 53.823C83.4378 53.6757 83.5461 53.55 83.7108 53.446C84.0834 53.2033 84.4951 53.0213 84.9458 52.9C85.3964 52.77 85.8601 52.705 86.3368 52.705C86.9694 52.705 87.5111 52.8047 87.9618 53.004C88.4124 53.1947 88.7548 53.472 88.9888 53.836C89.2314 54.1913 89.3528 54.6247 89.3528 55.136C89.3528 55.5 89.2834 55.8337 89.1448 56.137C89.0061 56.4317 88.8111 56.683 88.5598 56.891C88.3084 57.099 88.0051 57.2463 87.6498 57.333V57.177C88.2738 57.281 88.7591 57.541 89.1058 57.957C89.4524 58.3643 89.6258 58.8757 89.6258 59.491C89.6258 60.0283 89.4914 60.4963 89.2228 60.895C88.9541 61.2937 88.5728 61.6013 88.0788 61.818C87.5848 62.026 86.9954 62.13 86.3108 62.13ZM94.2877 62.13C93.2044 62.13 92.3767 61.7227 91.8047 60.908C91.2327 60.0847 90.9467 58.9147 90.9467 57.398C90.9467 56.3753 91.0724 55.5173 91.3237 54.824C91.5837 54.122 91.9607 53.5933 92.4547 53.238C92.9574 52.8827 93.5684 52.705 94.2877 52.705C95.3797 52.705 96.2074 53.1037 96.7707 53.901C97.3427 54.6983 97.6287 55.8597 97.6287 57.385C97.6287 58.399 97.4987 59.2613 97.2387 59.972C96.9874 60.674 96.6147 61.2113 96.1207 61.584C95.6267 61.948 95.0157 62.13 94.2877 62.13ZM94.2877 60.765C94.877 60.765 95.3104 60.492 95.5877 59.946C95.8737 59.4 96.0167 58.5463 96.0167 57.385C96.0167 56.2237 95.8737 55.383 95.5877 54.863C95.3104 54.3343 94.877 54.07 94.2877 54.07C93.707 54.07 93.2737 54.3343 92.9877 54.863C92.7017 55.383 92.5587 56.2237 92.5587 57.385C92.5587 58.5463 92.7017 59.4 92.9877 59.946C93.2737 60.492 93.707 60.765 94.2877 60.765ZM99.8076 62.065C99.513 62.065 99.2746 61.974 99.0926 61.792C98.9193 61.61 98.8326 61.376 98.8326 61.09C98.8326 60.8127 98.9193 60.5873 99.0926 60.414C99.2746 60.232 99.513 60.141 99.8076 60.141C100.111 60.141 100.345 60.232 100.51 60.414C100.683 60.5873 100.77 60.8127 100.77 61.09C100.77 61.376 100.683 61.61 100.51 61.792C100.345 61.974 100.111 62.065 99.8076 62.065ZM105.307 62.13C104.224 62.13 103.396 61.7227 102.824 60.908C102.252 60.0847 101.966 58.9147 101.966 57.398C101.966 56.3753 102.092 55.5173 102.343 54.824C102.603 54.122 102.98 53.5933 103.474 53.238C103.977 52.8827 104.588 52.705 105.307 52.705C106.399 52.705 107.227 53.1037 107.79 53.901C108.362 54.6983 108.648 55.8597 108.648 57.385C108.648 58.399 108.518 59.2613 108.258 59.972C108.007 60.674 107.634 61.2113 107.14 61.584C106.646 61.948 106.035 62.13 105.307 62.13ZM105.307 60.765C105.897 60.765 106.33 60.492 106.607 59.946C106.893 59.4 107.036 58.5463 107.036 57.385C107.036 56.2237 106.893 55.383 106.607 54.863C106.33 54.3343 105.897 54.07 105.307 54.07C104.727 54.07 104.293 54.3343 104.007 54.863C103.721 55.383 103.578 56.2237 103.578 57.385C103.578 58.5463 103.721 59.4 104.007 59.946C104.293 60.492 104.727 60.765 105.307 60.765ZM113.102 62.13C112.019 62.13 111.191 61.7227 110.619 60.908C110.047 60.0847 109.761 58.9147 109.761 57.398C109.761 56.3753 109.887 55.5173 110.138 54.824C110.398 54.122 110.775 53.5933 111.269 53.238C111.772 52.8827 112.383 52.705 113.102 52.705C114.194 52.705 115.022 53.1037 115.585 53.901C116.157 54.6983 116.443 55.8597 116.443 57.385C116.443 58.399 116.313 59.2613 116.053 59.972C115.802 60.674 115.429 61.2113 114.935 61.584C114.441 61.948 113.83 62.13 113.102 62.13ZM113.102 60.765C113.691 60.765 114.125 60.492 114.402 59.946C114.688 59.4 114.831 58.5463 114.831 57.385C114.831 56.2237 114.688 55.383 114.402 54.863C114.125 54.3343 113.691 54.07 113.102 54.07C112.521 54.07 112.088 54.3343 111.802 54.863C111.516 55.383 111.373 56.2237 111.373 57.385C111.373 58.5463 111.516 59.4 111.802 59.946C112.088 60.492 112.521 60.765 113.102 60.765Z" fill="white"/>
<path d="M176.672 8.695H176.721L176.696 8.65254C176.253 7.89054 175.546 7.29935 174.696 7.00836L174.628 6.98495L174.662 7.04851C174.936 7.55509 175.146 8.10292 175.292 8.67375L175.298 8.695H175.32H176.672ZM173.523 6.83568L173.5 6.80209L173.477 6.83568C173.095 7.38804 172.795 8.00029 172.597 8.65861L172.587 8.695H172.625H174.375H174.413L174.402 8.65861C174.204 8.00029 173.905 7.38804 173.523 6.83568ZM169.925 11.4236L169.93 11.445H169.952H171.502H171.534L171.53 11.4133C171.493 11.1114 171.466 10.8101 171.466 10.5001C171.466 10.19 171.493 9.88881 171.53 9.58681L171.534 9.55517H171.502H169.952H169.93L169.925 9.57656C169.851 9.87169 169.805 10.1811 169.805 10.5001C169.805 10.8191 169.851 11.1285 169.925 11.4236ZM170.328 12.3052H170.279L170.304 12.3476C170.747 13.1143 171.454 13.7008 172.304 13.9918L172.372 14.0152L172.338 13.9516C172.064 13.4451 171.854 12.8972 171.708 12.3264L171.702 12.3052H171.68H170.328ZM171.68 8.695H171.702L171.708 8.67375C171.854 8.10292 172.064 7.55509 172.338 7.04851L172.372 6.98495L172.304 7.00836C171.454 7.29933 170.747 7.88591 170.304 8.65261L170.279 8.695H170.328H171.68ZM173.477 14.1645L173.5 14.1981L173.523 14.1645C173.905 13.6121 174.204 12.9999 174.402 12.3415L174.413 12.3052H174.375H172.625H172.587L172.597 12.3415C172.795 12.9999 173.095 13.6121 173.477 14.1645ZM174.572 11.445H174.597L174.6 11.4206C174.642 11.1176 174.674 10.8136 174.674 10.5001C174.674 10.1866 174.642 9.87802 174.6 9.57954L174.597 9.55517H174.572H172.427H172.403L172.399 9.57954C172.358 9.87802 172.326 10.1866 172.326 10.5001C172.326 10.8136 172.358 11.1176 172.399 11.4206L172.403 11.445H172.427H174.572ZM174.662 13.9516L174.628 14.0152L174.696 13.9918C175.546 13.7008 176.253 13.1096 176.696 12.3476L176.721 12.3052H176.672H175.32H175.298L175.292 12.3264C175.146 12.8972 174.936 13.4451 174.662 13.9516ZM175.47 11.4133L175.466 11.445H175.498H177.047H177.07L177.075 11.4236C177.149 11.1285 177.195 10.8191 177.195 10.5001C177.195 10.1811 177.149 9.87169 177.075 9.57656L177.07 9.55517H177.047H175.498H175.466L175.47 9.58681C175.507 9.88881 175.534 10.19 175.534 10.5001C175.534 10.8101 175.507 11.1114 175.47 11.4133ZM168.945 10.5001C168.945 7.98565 170.981 5.945 173.495 5.945C176.014 5.945 178.055 7.9857 178.055 10.5001C178.055 13.0145 176.014 15.0552 173.495 15.0552C170.981 15.0552 168.945 13.0145 168.945 10.5001Z" fill="#FFF9F9" stroke="#262733" stroke-width="0.0564972"/>
<g clip-path="url(#clip0_6454_31451)">
<path fill-rule="evenodd" clip-rule="evenodd" d="M43.4133 12.1612C43.5941 13.2254 43.4263 14.3195 42.935 15.2801C42.4438 16.2408 41.6555 17.0164 40.688 17.491C39.7205 17.9656 38.6257 18.1137 37.5672 17.9132C36.5087 17.7127 35.5434 17.1743 34.8155 16.3786C34.0876 15.5829 33.6363 14.5725 33.5289 13.4985C33.4215 12.4245 33.6639 11.3444 34.2198 10.4199C34.7757 9.49527 35.6152 8.77576 36.613 8.36886C37.6108 7.96197 38.7132 7.88953 39.7554 8.16238C39.4293 9.41313 37.309 10.0824 37.309 10.0824C36.6804 10.3388 36.1515 10.7921 35.8013 11.3745C35.451 11.957 35.2983 12.6374 35.366 13.3141C35.4336 13.9907 35.718 14.6273 36.1766 15.1286C36.6351 15.6299 37.2433 15.969 37.9101 16.0953C38.577 16.2216 39.2667 16.1283 39.8762 15.8293C40.4858 15.5303 40.9824 15.0417 41.2919 14.4365C41.2919 14.4365 42.1142 12.3828 43.4133 12.1612Z" fill="white"/>
<path d="M42.1884 9.63894C41.7913 9.20076 41.3202 8.83722 40.7975 8.56466C40.6678 8.49705 40.5104 8.55654 40.45 8.6897L40.3241 8.96712C40.0319 9.61109 40.3466 10.3586 40.8215 10.8826C41.2963 11.4066 42.0104 11.7918 42.6791 11.562L42.9653 11.4636C43.1028 11.4164 43.1767 11.2663 43.1225 11.1314C42.902 10.5831 42.5859 10.0776 42.1884 9.63894Z" fill="#FBCF15"/>
<path d="M37.5699 13.0001C37.5699 13.5145 37.9829 13.926 38.494 13.926C39.001 13.926 39.4181 13.5145 39.4181 13.0001C39.4181 12.4898 39.001 12.0742 38.494 12.0742C37.9829 12.0742 37.5699 12.4898 37.5699 13.0001Z" fill="#FBCF15"/>
<rect x="37.4031" y="11.9087" width="2.15693" height="2.16182" rx="1.07846" fill="#FBCF15"/>
<path d="M52.7244 15.8087V8.0421C51.5261 8.0421 50.8478 9.0076 50.8478 10.2111V14.6722L47.0928 8.98653C46.6951 8.38442 46.041 7.84349 45.3496 8.04166C44.5926 8.25866 44.5926 9.06121 44.5926 10.1911V17.9575C44.9542 17.9575 45.2684 17.8714 45.5309 17.7182C46.1385 17.3635 46.4692 16.6491 46.4692 15.8087L46.4408 11.3275L50.2239 17.0189C50.6219 17.6176 51.2735 18.1542 51.9631 17.9593C52.7244 17.744 52.7244 16.9406 52.7244 15.8087Z" fill="white"/>
<path d="M19.8279 15.816V8C18.8075 8 17.9797 8.99118 17.9797 10.2141V18C19.0001 18 19.8279 17.0439 19.8279 15.816Z" fill="white"/>
<path d="M32.0386 15.8162V8.00018C31.011 8.00018 30.1773 8.99136 30.1773 10.2143V18.0002C31.2049 18.0002 32.0386 17.0441 32.0386 15.8162Z" fill="white"/>
<path d="M13.6622 9.55101L12.805 11.1057L11.9653 9.58282C11.2529 8.29064 9.97374 7.66757 9.10876 8.1905L11.7605 13L9.10876 17.8095C9.97374 18.3324 11.2529 17.7094 11.9653 16.4172L12.805 14.8943L13.6622 16.449C14.3775 17.7464 15.6363 18.3324 16.5012 17.8095L13.8495 13L16.5012 8.19051C15.6363 7.66758 14.3775 8.25362 13.6622 9.55101Z" fill="white"/>
<path d="M21.676 10.1842C21.676 8.95631 22.5238 8.00018 23.569 8.00018V16.1252L28.6988 16.1252C28.6988 17.1604 27.6585 18.0002 26.3749 18.0002H21.676V10.1842Z" fill="white"/>
</g>
<path d="M117 72H67V122H117V72Z" fill="white"/>
<path d="M88.553 76.8304C88.8387 76.8304 89.0702 76.5988 89.0702 76.3131C89.0702 76.0275 88.8387 75.7959 88.553 75.7959C88.2673 75.7959 88.0358 76.0275 88.0358 76.3131C88.0358 76.5988 88.2673 76.8304 88.553 76.8304Z" fill="#26292E"/>
<path d="M90.2802 76.8304C90.5659 76.8304 90.7975 76.5988 90.7975 76.3131C90.7975 76.0275 90.5659 75.7959 90.2802 75.7959C89.9945 75.7959 89.7629 76.0275 89.7629 76.3131C89.7629 76.5988 89.9945 76.8304 90.2802 76.8304Z" fill="#26292E"/>
<path d="M92.0057 76.8304C92.2914 76.8304 92.5229 76.5988 92.5229 76.3131C92.5229 76.0275 92.2914 75.7959 92.0057 75.7959C91.7201 75.7959 91.4885 76.0275 91.4885 76.3131C91.4885 76.5988 91.7201 76.8304 92.0057 76.8304Z" fill="#26292E"/>
<path d="M93.7272 76.8304C94.0128 76.8304 94.2444 76.5988 94.2444 76.3131C94.2444 76.0275 94.0128 75.7959 93.7272 75.7959C93.4415 75.7959 93.21 76.0275 93.21 76.3131C93.21 76.5988 93.4415 76.8304 93.7272 76.8304Z" fill="#26292E"/>
<path d="M98.9011 76.8304C99.1867 76.8304 99.4183 76.5988 99.4183 76.3131C99.4183 76.0275 99.1867 75.7959 98.9011 75.7959C98.6155 75.7959 98.3839 76.0275 98.3839 76.3131C98.3839 76.5988 98.6155 76.8304 98.9011 76.8304Z" fill="#26292E"/>
<path d="M88.553 78.5533C88.8387 78.5533 89.0702 78.3217 89.0702 78.036C89.0702 77.7504 88.8387 77.5188 88.553 77.5188C88.2673 77.5188 88.0358 77.7504 88.0358 78.036C88.0358 78.3217 88.2673 78.5533 88.553 78.5533Z" fill="#26292E"/>
<path d="M93.7272 78.5533C94.0128 78.5533 94.2444 78.3217 94.2444 78.036C94.2444 77.7504 94.0128 77.5188 93.7272 77.5188C93.4415 77.5188 93.21 77.7504 93.21 78.036C93.21 78.3217 93.4415 78.5533 93.7272 78.5533Z" fill="#26292E"/>
<path d="M95.4527 78.5533C95.7384 78.5533 95.97 78.3217 95.97 78.036C95.97 77.7504 95.7384 77.5188 95.4527 77.5188C95.167 77.5188 94.9354 77.7504 94.9354 78.036C94.9354 78.3217 95.167 78.5533 95.4527 78.5533Z" fill="#26292E"/>
<path d="M97.1757 78.5533C97.4614 78.5533 97.693 78.3217 97.693 78.036C97.693 77.7504 97.4614 77.5188 97.1757 77.5188C96.89 77.5188 96.6584 77.7504 96.6584 78.036C96.6584 78.3217 96.89 78.5533 97.1757 78.5533Z" fill="#26292E"/>
<path d="M98.9011 78.5533C99.1867 78.5533 99.4183 78.3217 99.4183 78.036C99.4183 77.7504 99.1867 77.5188 98.9011 77.5188C98.6155 77.5188 98.3839 77.7504 98.3839 78.036C98.3839 78.3217 98.6155 78.5533 98.9011 78.5533Z" fill="#26292E"/>
<path d="M85.1061 80.2791C85.3918 80.2791 85.6233 80.0475 85.6233 79.7619C85.6233 79.4762 85.3918 79.2446 85.1061 79.2446C84.8204 79.2446 84.5889 79.4762 84.5889 79.7619C84.5889 80.0475 84.8204 80.2791 85.1061 80.2791Z" fill="#26292E"/>
<path d="M86.8314 80.2791C87.1171 80.2791 87.3487 80.0475 87.3487 79.7619C87.3487 79.4762 87.1171 79.2446 86.8314 79.2446C86.5458 79.2446 86.3142 79.4762 86.3142 79.7619C86.3142 80.0475 86.5458 80.2791 86.8314 80.2791Z" fill="#26292E"/>
<path d="M88.553 80.2791C88.8387 80.2791 89.0702 80.0475 89.0702 79.7619C89.0702 79.4762 88.8387 79.2446 88.553 79.2446C88.2673 79.2446 88.0358 79.4762 88.0358 79.7619C88.0358 80.0475 88.2673 80.2791 88.553 80.2791Z" fill="#26292E"/>
<path d="M90.2802 80.2791C90.5659 80.2791 90.7975 80.0475 90.7975 79.7619C90.7975 79.4762 90.5659 79.2446 90.2802 79.2446C89.9945 79.2446 89.7629 79.4762 89.7629 79.7619C89.7629 80.0475 89.9945 80.2791 90.2802 80.2791Z" fill="#26292E"/>
<path d="M98.9011 80.2791C99.1867 80.2791 99.4183 80.0475 99.4183 79.7619C99.4183 79.4762 99.1867 79.2446 98.9011 79.2446C98.6155 79.2446 98.3839 79.4762 98.3839 79.7619C98.3839 80.0475 98.6155 80.2791 98.9011 80.2791Z" fill="#26292E"/>
<path d="M85.1061 82.0044C85.3918 82.0044 85.6233 81.7729 85.6233 81.4872C85.6233 81.2015 85.3918 80.97 85.1061 80.97C84.8204 80.97 84.5889 81.2015 84.5889 81.4872C84.5889 81.7729 84.8204 82.0044 85.1061 82.0044Z" fill="#26292E"/>
<path d="M88.553 82.0044C88.8387 82.0044 89.0702 81.7729 89.0702 81.4872C89.0702 81.2015 88.8387 80.97 88.553 80.97C88.2673 80.97 88.0358 81.2015 88.0358 81.4872C88.0358 81.7729 88.2673 82.0044 88.553 82.0044Z" fill="#26292E"/>
<path d="M90.2802 82.0044C90.5659 82.0044 90.7975 81.7729 90.7975 81.4872C90.7975 81.2015 90.5659 80.97 90.2802 80.97C89.9945 80.97 89.7629 81.2015 89.7629 81.4872C89.7629 81.7729 89.9945 82.0044 90.2802 82.0044Z" fill="#26292E"/>
<path d="M92.0057 82.0044C92.2914 82.0044 92.5229 81.7729 92.5229 81.4872C92.5229 81.2015 92.2914 80.97 92.0057 80.97C91.7201 80.97 91.4885 81.2015 91.4885 81.4872C91.4885 81.7729 91.7201 82.0044 92.0057 82.0044Z" fill="#26292E"/>
<path d="M93.7272 82.0044C94.0128 82.0044 94.2444 81.7729 94.2444 81.4872C94.2444 81.2015 94.0128 80.97 93.7272 80.97C93.4415 80.97 93.21 81.2015 93.21 81.4872C93.21 81.7729 93.4415 82.0044 93.7272 82.0044Z" fill="#26292E"/>
<path d="M85.1061 83.7279C85.3918 83.7279 85.6233 83.4963 85.6233 83.2106C85.6233 82.9249 85.3918 82.6934 85.1061 82.6934C84.8204 82.6934 84.5889 82.9249 84.5889 83.2106C84.5889 83.4963 84.8204 83.7279 85.1061 83.7279Z" fill="#26292E"/>
<path d="M86.8314 83.7279C87.1171 83.7279 87.3487 83.4963 87.3487 83.2106C87.3487 82.9249 87.1171 82.6934 86.8314 82.6934C86.5458 82.6934 86.3142 82.9249 86.3142 83.2106C86.3142 83.4963 86.5458 83.7279 86.8314 83.7279Z" fill="#26292E"/>
<path d="M88.553 83.7279C88.8387 83.7279 89.0702 83.4963 89.0702 83.2106C89.0702 82.9249 88.8387 82.6934 88.553 82.6934C88.2673 82.6934 88.0358 82.9249 88.0358 83.2106C88.0358 83.4963 88.2673 83.7279 88.553 83.7279Z" fill="#26292E"/>
<path d="M92.0057 83.7279C92.2914 83.7279 92.5229 83.4963 92.5229 83.2106C92.5229 82.9249 92.2914 82.6934 92.0057 82.6934C91.7201 82.6934 91.4885 82.9249 91.4885 83.2106C91.4885 83.4963 91.7201 83.7279 92.0057 83.7279Z" fill="#26292E"/>
<path d="M93.7272 83.7279C94.0128 83.7279 94.2444 83.4963 94.2444 83.2106C94.2444 82.9249 94.0128 82.6934 93.7272 82.6934C93.4415 82.6934 93.21 82.9249 93.21 83.2106C93.21 83.4963 93.4415 83.7279 93.7272 83.7279Z" fill="#26292E"/>
<path d="M98.9011 83.7279C99.1867 83.7279 99.4183 83.4963 99.4183 83.2106C99.4183 82.9249 99.1867 82.6934 98.9011 82.6934C98.6155 82.6934 98.3839 82.9249 98.3839 83.2106C98.3839 83.4963 98.6155 83.7279 98.9011 83.7279Z" fill="#26292E"/>
<path d="M85.1061 85.4529C85.3918 85.4529 85.6233 85.2214 85.6233 84.9357C85.6233 84.65 85.3918 84.4185 85.1061 84.4185C84.8204 84.4185 84.5889 84.65 84.5889 84.9357C84.5889 85.2214 84.8204 85.4529 85.1061 85.4529Z" fill="#26292E"/>
<path d="M86.8314 85.4529C87.1171 85.4529 87.3487 85.2214 87.3487 84.9357C87.3487 84.65 87.1171 84.4185 86.8314 84.4185C86.5458 84.4185 86.3142 84.65 86.3142 84.9357C86.3142 85.2214 86.5458 85.4529 86.8314 85.4529Z" fill="#26292E"/>
<path d="M90.2802 85.4529C90.5659 85.4529 90.7975 85.2214 90.7975 84.9357C90.7975 84.65 90.5659 84.4185 90.2802 84.4185C89.9945 84.4185 89.7629 84.65 89.7629 84.9357C89.7629 85.2214 89.9945 85.4529 90.2802 85.4529Z" fill="#26292E"/>
<path d="M93.7272 85.4529C94.0128 85.4529 94.2444 85.2214 94.2444 84.9357C94.2444 84.65 94.0128 84.4185 93.7272 84.4185C93.4415 84.4185 93.21 84.65 93.21 84.9357C93.21 85.2214 93.4415 85.4529 93.7272 85.4529Z" fill="#26292E"/>
<path d="M95.4527 85.4529C95.7384 85.4529 95.97 85.2214 95.97 84.9357C95.97 84.65 95.7384 84.4185 95.4527 84.4185C95.167 84.4185 94.9354 84.65 94.9354 84.9357C94.9354 85.2214 95.167 85.4529 95.4527 85.4529Z" fill="#26292E"/>
<path d="M97.1757 85.4529C97.4614 85.4529 97.693 85.2214 97.693 84.9357C97.693 84.65 97.4614 84.4185 97.1757 84.4185C96.89 84.4185 96.6584 84.65 96.6584 84.9357C96.6584 85.2214 96.89 85.4529 97.1757 85.4529Z" fill="#26292E"/>
<path d="M98.9011 85.4529C99.1867 85.4529 99.4183 85.2214 99.4183 84.9357C99.4183 84.65 99.1867 84.4185 98.9011 84.4185C98.6155 84.4185 98.3839 84.65 98.3839 84.9357C98.3839 85.2214 98.6155 85.4529 98.9011 85.4529Z" fill="#26292E"/>
<path d="M85.1061 87.1747C85.3918 87.1747 85.6233 86.9431 85.6233 86.6574C85.6233 86.3717 85.3918 86.1401 85.1061 86.1401C84.8204 86.1401 84.5889 86.3717 84.5889 86.6574C84.5889 86.9431 84.8204 87.1747 85.1061 87.1747Z" fill="#26292E"/>
<path d="M88.553 87.1747C88.8387 87.1747 89.0702 86.9431 89.0702 86.6574C89.0702 86.3717 88.8387 86.1401 88.553 86.1401C88.2673 86.1401 88.0358 86.3717 88.0358 86.6574C88.0358 86.9431 88.2673 87.1747 88.553 87.1747Z" fill="#26292E"/>
<path d="M92.0057 87.1747C92.2914 87.1747 92.5229 86.9431 92.5229 86.6574C92.5229 86.3717 92.2914 86.1401 92.0057 86.1401C91.7201 86.1401 91.4885 86.3717 91.4885 86.6574C91.4885 86.9431 91.7201 87.1747 92.0057 87.1747Z" fill="#26292E"/>
<path d="M95.4527 87.1747C95.7384 87.1747 95.97 86.9431 95.97 86.6574C95.97 86.3717 95.7384 86.1401 95.4527 86.1401C95.167 86.1401 94.9354 86.3717 94.9354 86.6574C94.9354 86.9431 95.167 87.1747 95.4527 87.1747Z" fill="#26292E"/>
<path d="M98.9011 87.1747C99.1867 87.1747 99.4183 86.9431 99.4183 86.6574C99.4183 86.3717 99.1867 86.1401 98.9011 86.1401C98.6155 86.1401 98.3839 86.3717 98.3839 86.6574C98.3839 86.9431 98.6155 87.1747 98.9011 87.1747Z" fill="#26292E"/>
<path d="M71.3134 90.6231C71.599 90.6231 71.8306 90.3915 71.8306 90.1059C71.8306 89.8202 71.599 89.5886 71.3134 89.5886C71.0277 89.5886 70.7961 89.8202 70.7961 90.1059C70.7961 90.3915 71.0277 90.6231 71.3134 90.6231Z" fill="#26292E"/>
<path d="M74.7619 90.6231C75.0475 90.6231 75.2791 90.3915 75.2791 90.1059C75.2791 89.8202 75.0475 89.5886 74.7619 89.5886C74.4762 89.5886 74.2446 89.8202 74.2446 90.1059C74.2446 90.3915 74.4762 90.6231 74.7619 90.6231Z" fill="#26292E"/>
<path d="M76.4873 90.6231C76.773 90.6231 77.0046 90.3915 77.0046 90.1059C77.0046 89.8202 76.773 89.5886 76.4873 89.5886C76.2017 89.5886 75.9701 89.8202 75.9701 90.1059C75.9701 90.3915 76.2017 90.6231 76.4873 90.6231Z" fill="#26292E"/>
<path d="M78.2106 90.6231C78.4963 90.6231 78.7279 90.3915 78.7279 90.1059C78.7279 89.8202 78.4963 89.5886 78.2106 89.5886C77.9249 89.5886 77.6934 89.8202 77.6934 90.1059C77.6934 90.3915 77.9249 90.6231 78.2106 90.6231Z" fill="#26292E"/>
<path d="M79.9359 90.6231C80.2216 90.6231 80.4532 90.3915 80.4532 90.1059C80.4532 89.8202 80.2216 89.5886 79.9359 89.5886C79.6503 89.5886 79.4187 89.8202 79.4187 90.1059C79.4187 90.3915 79.6503 90.6231 79.9359 90.6231Z" fill="#26292E"/>
<path d="M81.6575 90.6231C81.9432 90.6231 82.1748 90.3915 82.1748 90.1059C82.1748 89.8202 81.9432 89.5886 81.6575 89.5886C81.3718 89.5886 81.1403 89.8202 81.1403 90.1059C81.1403 90.3915 81.3718 90.6231 81.6575 90.6231Z" fill="#26292E"/>
<path d="M86.8314 90.6231C87.1171 90.6231 87.3487 90.3915 87.3487 90.1059C87.3487 89.8202 87.1171 89.5886 86.8314 89.5886C86.5458 89.5886 86.3142 89.8202 86.3142 90.1059C86.3142 90.3915 86.5458 90.6231 86.8314 90.6231Z" fill="#26292E"/>
<path d="M90.2802 90.6231C90.5659 90.6231 90.7975 90.3915 90.7975 90.1059C90.7975 89.8202 90.5659 89.5886 90.2802 89.5886C89.9945 89.5886 89.7629 89.8202 89.7629 90.1059C89.7629 90.3915 89.9945 90.6231 90.2802 90.6231Z" fill="#26292E"/>
<path d="M92.0057 90.6231C92.2914 90.6231 92.5229 90.3915 92.5229 90.1059C92.5229 89.8202 92.2914 89.5886 92.0057 89.5886C91.7201 89.5886 91.4885 89.8202 91.4885 90.1059C91.4885 90.3915 91.7201 90.6231 92.0057 90.6231Z" fill="#26292E"/>
<path d="M93.7272 90.6231C94.0128 90.6231 94.2444 90.3915 94.2444 90.1059C94.2444 89.8202 94.0128 89.5886 93.7272 89.5886C93.4415 89.5886 93.21 89.8202 93.21 90.1059C93.21 90.3915 93.4415 90.6231 93.7272 90.6231Z" fill="#26292E"/>
<path d="M95.4527 90.6231C95.7384 90.6231 95.97 90.3915 95.97 90.1059C95.97 89.8202 95.7384 89.5886 95.4527 89.5886C95.167 89.5886 94.9354 89.8202 94.9354 90.1059C94.9354 90.3915 95.167 90.6231 95.4527 90.6231Z" fill="#26292E"/>
<path d="M102.348 90.6231C102.634 90.6231 102.865 90.3915 102.865 90.1059C102.865 89.8202 102.634 89.5886 102.348 89.5886C102.062 89.5886 101.831 89.8202 101.831 90.1059C101.831 90.3915 102.062 90.6231 102.348 90.6231Z" fill="#26292E"/>
<path d="M104.071 90.6231C104.357 90.6231 104.588 90.3915 104.588 90.1059C104.588 89.8202 104.357 89.5886 104.071 89.5886C103.786 89.5886 103.554 89.8202 103.554 90.1059C103.554 90.3915 103.786 90.6231 104.071 90.6231Z" fill="#26292E"/>
<path d="M105.797 90.6231C106.082 90.6231 106.314 90.3915 106.314 90.1059C106.314 89.8202 106.082 89.5886 105.797 89.5886C105.511 89.5886 105.28 89.8202 105.28 90.1059C105.28 90.3915 105.511 90.6231 105.797 90.6231Z" fill="#26292E"/>
<path d="M107.522 90.6231C107.808 90.6231 108.04 90.3915 108.04 90.1059C108.04 89.8202 107.808 89.5886 107.522 89.5886C107.237 89.5886 107.005 89.8202 107.005 90.1059C107.005 90.3915 107.237 90.6231 107.522 90.6231Z" fill="#26292E"/>
<path d="M109.245 90.6231C109.531 90.6231 109.762 90.3915 109.762 90.1059C109.762 89.8202 109.531 89.5886 109.245 89.5886C108.96 89.5886 108.728 89.8202 108.728 90.1059C108.728 90.3915 108.96 90.6231 109.245 90.6231Z" fill="#26292E"/>
<path d="M71.3134 92.3487C71.599 92.3487 71.8306 92.1171 71.8306 91.8314C71.8306 91.5458 71.599 91.3142 71.3134 91.3142C71.0277 91.3142 70.7961 91.5458 70.7961 91.8314C70.7961 92.1171 71.0277 92.3487 71.3134 92.3487Z" fill="#26292E"/>
<path d="M74.7619 92.3487C75.0475 92.3487 75.2791 92.1171 75.2791 91.8314C75.2791 91.5458 75.0475 91.3142 74.7619 91.3142C74.4762 91.3142 74.2446 91.5458 74.2446 91.8314C74.2446 92.1171 74.4762 92.3487 74.7619 92.3487Z" fill="#26292E"/>
<path d="M76.4873 92.3487C76.773 92.3487 77.0046 92.1171 77.0046 91.8314C77.0046 91.5458 76.773 91.3142 76.4873 91.3142C76.2017 91.3142 75.9701 91.5458 75.9701 91.8314C75.9701 92.1171 76.2017 92.3487 76.4873 92.3487Z" fill="#26292E"/>
<path d="M78.2106 92.3487C78.4963 92.3487 78.7279 92.1171 78.7279 91.8314C78.7279 91.5458 78.4963 91.3142 78.2106 91.3142C77.9249 91.3142 77.6934 91.5458 77.6934 91.8314C77.6934 92.1171 77.9249 92.3487 78.2106 92.3487Z" fill="#26292E"/>
<path d="M85.1061 92.3487C85.3918 92.3487 85.6233 92.1171 85.6233 91.8314C85.6233 91.5458 85.3918 91.3142 85.1061 91.3142C84.8204 91.3142 84.5889 91.5458 84.5889 91.8314C84.5889 92.1171 84.8204 92.3487 85.1061 92.3487Z" fill="#26292E"/>
<path d="M88.553 92.3487C88.8387 92.3487 89.0702 92.1171 89.0702 91.8314C89.0702 91.5458 88.8387 91.3142 88.553 91.3142C88.2673 91.3142 88.0358 91.5458 88.0358 91.8314C88.0358 92.1171 88.2673 92.3487 88.553 92.3487Z" fill="#26292E"/>
<path d="M90.2802 92.3487C90.5659 92.3487 90.7975 92.1171 90.7975 91.8314C90.7975 91.5458 90.5659 91.3142 90.2802 91.3142C89.9945 91.3142 89.7629 91.5458 89.7629 91.8314C89.7629 92.1171 89.9945 92.3487 90.2802 92.3487Z" fill="#26292E"/>
<path d="M93.7272 92.3487C94.0128 92.3487 94.2444 92.1171 94.2444 91.8314C94.2444 91.5458 94.0128 91.3142 93.7272 91.3142C93.4415 91.3142 93.21 91.5458 93.21 91.8314C93.21 92.1171 93.4415 92.3487 93.7272 92.3487Z" fill="#26292E"/>
<path d="M98.9011 92.3487C99.1867 92.3487 99.4183 92.1171 99.4183 91.8314C99.4183 91.5458 99.1867 91.3142 98.9011 91.3142C98.6155 91.3142 98.3839 91.5458 98.3839 91.8314C98.3839 92.1171 98.6155 92.3487 98.9011 92.3487Z" fill="#26292E"/>
<path d="M104.071 92.3487C104.357 92.3487 104.588 92.1171 104.588 91.8314C104.588 91.5458 104.357 91.3142 104.071 91.3142C103.786 91.3142 103.554 91.5458 103.554 91.8314C103.554 92.1171 103.786 92.3487 104.071 92.3487Z" fill="#26292E"/>
<path d="M110.971 92.3487C111.257 92.3487 111.488 92.1171 111.488 91.8314C111.488 91.5458 111.257 91.3142 110.971 91.3142C110.685 91.3142 110.454 91.5458 110.454 91.8314C110.454 92.1171 110.685 92.3487 110.971 92.3487Z" fill="#26292E"/>
<path d="M71.3134 94.0701C71.599 94.0701 71.8306 93.8385 71.8306 93.5529C71.8306 93.2672 71.599 93.0356 71.3134 93.0356C71.0277 93.0356 70.7961 93.2672 70.7961 93.5529C70.7961 93.8385 71.0277 94.0701 71.3134 94.0701Z" fill="#26292E"/>
<path d="M73.0362 94.0701C73.3218 94.0701 73.5534 93.8385 73.5534 93.5529C73.5534 93.2672 73.3218 93.0356 73.0362 93.0356C72.7505 93.0356 72.5189 93.2672 72.5189 93.5529C72.5189 93.8385 72.7505 94.0701 73.0362 94.0701Z" fill="#26292E"/>
<path d="M74.7619 94.0701C75.0475 94.0701 75.2791 93.8385 75.2791 93.5529C75.2791 93.2672 75.0475 93.0356 74.7619 93.0356C74.4762 93.0356 74.2446 93.2672 74.2446 93.5529C74.2446 93.8385 74.4762 94.0701 74.7619 94.0701Z" fill="#26292E"/>
<path d="M81.6575 94.0701C81.9432 94.0701 82.1748 93.8385 82.1748 93.5529C82.1748 93.2672 81.9432 93.0356 81.6575 93.0356C81.3718 93.0356 81.1403 93.2672 81.1403 93.5529C81.1403 93.8385 81.3718 94.0701 81.6575 94.0701Z" fill="#26292E"/>
<path d="M85.1061 94.0701C85.3918 94.0701 85.6233 93.8385 85.6233 93.5529C85.6233 93.2672 85.3918 93.0356 85.1061 93.0356C84.8204 93.0356 84.5889 93.2672 84.5889 93.5529C84.5889 93.8385 84.8204 94.0701 85.1061 94.0701Z" fill="#26292E"/>
<path d="M88.553 94.0701C88.8387 94.0701 89.0702 93.8385 89.0702 93.5529C89.0702 93.2672 88.8387 93.0356 88.553 93.0356C88.2673 93.0356 88.0358 93.2672 88.0358 93.5529C88.0358 93.8385 88.2673 94.0701 88.553 94.0701Z" fill="#26292E"/>
<path d="M97.1757 94.0701C97.4614 94.0701 97.693 93.8385 97.693 93.5529C97.693 93.2672 97.4614 93.0356 97.1757 93.0356C96.89 93.0356 96.6584 93.2672 96.6584 93.5529C96.6584 93.8385 96.89 94.0701 97.1757 94.0701Z" fill="#26292E"/>
<path d="M102.348 94.0701C102.634 94.0701 102.865 93.8385 102.865 93.5529C102.865 93.2672 102.634 93.0356 102.348 93.0356C102.062 93.0356 101.831 93.2672 101.831 93.5529C101.831 93.8385 102.062 94.0701 102.348 94.0701Z" fill="#26292E"/>
<path d="M104.071 94.0701C104.357 94.0701 104.588 93.8385 104.588 93.5529C104.588 93.2672 104.357 93.0356 104.071 93.0356C103.786 93.0356 103.554 93.2672 103.554 93.5529C103.554 93.8385 103.786 94.0701 104.071 94.0701Z" fill="#26292E"/>
<path d="M105.797 94.0701C106.082 94.0701 106.314 93.8385 106.314 93.5529C106.314 93.2672 106.082 93.0356 105.797 93.0356C105.511 93.0356 105.28 93.2672 105.28 93.5529C105.28 93.8385 105.511 94.0701 105.797 94.0701Z" fill="#26292E"/>
<path d="M107.522 94.0701C107.808 94.0701 108.04 93.8385 108.04 93.5529C108.04 93.2672 107.808 93.0356 107.522 93.0356C107.237 93.0356 107.005 93.2672 107.005 93.5529C107.005 93.8385 107.237 94.0701 107.522 94.0701Z" fill="#26292E"/>
<path d="M110.971 94.0701C111.257 94.0701 111.488 93.8385 111.488 93.5529C111.488 93.2672 111.257 93.0356 110.971 93.0356C110.685 93.0356 110.454 93.2672 110.454 93.5529C110.454 93.8385 110.685 94.0701 110.971 94.0701Z" fill="#26292E"/>
<path d="M112.692 94.0701C112.978 94.0701 113.21 93.8385 113.21 93.5529C113.21 93.2672 112.978 93.0356 112.692 93.0356C112.407 93.0356 112.175 93.2672 112.175 93.5529C112.175 93.8385 112.407 94.0701 112.692 94.0701Z" fill="#26292E"/>
<path d="M71.3134 95.7975C71.599 95.7975 71.8306 95.5659 71.8306 95.2802C71.8306 94.9945 71.599 94.7629 71.3134 94.7629C71.0277 94.7629 70.7961 94.9945 70.7961 95.2802C70.7961 95.5659 71.0277 95.7975 71.3134 95.7975Z" fill="#26292E"/>
<path d="M74.7619 95.7975C75.0475 95.7975 75.2791 95.5659 75.2791 95.2802C75.2791 94.9945 75.0475 94.7629 74.7619 94.7629C74.4762 94.7629 74.2446 94.9945 74.2446 95.2802C74.2446 95.5659 74.4762 95.7975 74.7619 95.7975Z" fill="#26292E"/>
<path d="M78.2106 95.7975C78.4963 95.7975 78.7279 95.5659 78.7279 95.2802C78.7279 94.9945 78.4963 94.7629 78.2106 94.7629C77.9249 94.7629 77.6934 94.9945 77.6934 95.2802C77.6934 95.5659 77.9249 95.7975 78.2106 95.7975Z" fill="#26292E"/>
<path d="M79.9359 95.7975C80.2216 95.7975 80.4532 95.5659 80.4532 95.2802C80.4532 94.9945 80.2216 94.7629 79.9359 94.7629C79.6503 94.7629 79.4187 94.9945 79.4187 95.2802C79.4187 95.5659 79.6503 95.7975 79.9359 95.7975Z" fill="#26292E"/>
<path d="M85.1061 95.7975C85.3918 95.7975 85.6233 95.5659 85.6233 95.2802C85.6233 94.9945 85.3918 94.7629 85.1061 94.7629C84.8204 94.7629 84.5889 94.9945 84.5889 95.2802C84.5889 95.5659 84.8204 95.7975 85.1061 95.7975Z" fill="#26292E"/>
<path d="M88.553 95.7975C88.8387 95.7975 89.0702 95.5659 89.0702 95.2802C89.0702 94.9945 88.8387 94.7629 88.553 94.7629C88.2673 94.7629 88.0358 94.9945 88.0358 95.2802C88.0358 95.5659 88.2673 95.7975 88.553 95.7975Z" fill="#26292E"/>
<path d="M90.2802 95.7975C90.5659 95.7975 90.7975 95.5659 90.7975 95.2802C90.7975 94.9945 90.5659 94.7629 90.2802 94.7629C89.9945 94.7629 89.7629 94.9945 89.7629 95.2802C89.7629 95.5659 89.9945 95.7975 90.2802 95.7975Z" fill="#26292E"/>
<path d="M95.4527 95.7975C95.7384 95.7975 95.97 95.5659 95.97 95.2802C95.97 94.9945 95.7384 94.7629 95.4527 94.7629C95.167 94.7629 94.9354 94.9945 94.9354 95.2802C94.9354 95.5659 95.167 95.7975 95.4527 95.7975Z" fill="#26292E"/>
<path d="M97.1757 95.7975C97.4614 95.7975 97.693 95.5659 97.693 95.2802C97.693 94.9945 97.4614 94.7629 97.1757 94.7629C96.89 94.7629 96.6584 94.9945 96.6584 95.2802C96.6584 95.5659 96.89 95.7975 97.1757 95.7975Z" fill="#26292E"/>
<path d="M98.9011 95.7975C99.1867 95.7975 99.4183 95.5659 99.4183 95.2802C99.4183 94.9945 99.1867 94.7629 98.9011 94.7629C98.6155 94.7629 98.3839 94.9945 98.3839 95.2802C98.3839 95.5659 98.6155 95.7975 98.9011 95.7975Z" fill="#26292E"/>
<path d="M104.071 95.7975C104.357 95.7975 104.588 95.5659 104.588 95.2802C104.588 94.9945 104.357 94.7629 104.071 94.7629C103.786 94.7629 103.554 94.9945 103.554 95.2802C103.554 95.5659 103.786 95.7975 104.071 95.7975Z" fill="#26292E"/>
<path d="M112.692 95.7975C112.978 95.7975 113.21 95.5659 113.21 95.2802C113.21 94.9945 112.978 94.7629 112.692 94.7629C112.407 94.7629 112.175 94.9945 112.175 95.2802C112.175 95.5659 112.407 95.7975 112.692 95.7975Z" fill="#26292E"/>
<path d="M71.3134 97.5229C71.599 97.5229 71.8306 97.2914 71.8306 97.0057C71.8306 96.7201 71.599 96.4885 71.3134 96.4885C71.0277 96.4885 70.7961 96.7201 70.7961 97.0057C70.7961 97.2914 71.0277 97.5229 71.3134 97.5229Z" fill="#26292E"/>
<path d="M76.4873 97.5229C76.773 97.5229 77.0046 97.2914 77.0046 97.0057C77.0046 96.7201 76.773 96.4885 76.4873 96.4885C76.2017 96.4885 75.9701 96.7201 75.9701 97.0057C75.9701 97.2914 76.2017 97.5229 76.4873 97.5229Z" fill="#26292E"/>
<path d="M81.6575 97.5229C81.9432 97.5229 82.1748 97.2914 82.1748 97.0057C82.1748 96.7201 81.9432 96.4885 81.6575 96.4885C81.3718 96.4885 81.1403 96.7201 81.1403 97.0057C81.1403 97.2914 81.3718 97.5229 81.6575 97.5229Z" fill="#26292E"/>
<path d="M85.1061 97.5229C85.3918 97.5229 85.6233 97.2914 85.6233 97.0057C85.6233 96.7201 85.3918 96.4885 85.1061 96.4885C84.8204 96.4885 84.5889 96.7201 84.5889 97.0057C84.5889 97.2914 84.8204 97.5229 85.1061 97.5229Z" fill="#26292E"/>
<path d="M86.8314 97.5229C87.1171 97.5229 87.3487 97.2914 87.3487 97.0057C87.3487 96.7201 87.1171 96.4885 86.8314 96.4885C86.5458 96.4885 86.3142 96.7201 86.3142 97.0057C86.3142 97.2914 86.5458 97.5229 86.8314 97.5229Z" fill="#26292E"/>
<path d="M92.0057 97.5229C92.2914 97.5229 92.5229 97.2914 92.5229 97.0057C92.5229 96.7201 92.2914 96.4885 92.0057 96.4885C91.7201 96.4885 91.4885 96.7201 91.4885 97.0057C91.4885 97.2914 91.7201 97.5229 92.0057 97.5229Z" fill="#26292E"/>
<path d="M93.7272 97.5229C94.0128 97.5229 94.2444 97.2914 94.2444 97.0057C94.2444 96.7201 94.0128 96.4885 93.7272 96.4885C93.4415 96.4885 93.21 96.7201 93.21 97.0057C93.21 97.2914 93.4415 97.5229 93.7272 97.5229Z" fill="#26292E"/>
<path d="M95.4527 97.5229C95.7384 97.5229 95.97 97.2914 95.97 97.0057C95.97 96.7201 95.7384 96.4885 95.4527 96.4885C95.167 96.4885 94.9354 96.7201 94.9354 97.0057C94.9354 97.2914 95.167 97.5229 95.4527 97.5229Z" fill="#26292E"/>
<path d="M102.348 97.5229C102.634 97.5229 102.865 97.2914 102.865 97.0057C102.865 96.7201 102.634 96.4885 102.348 96.4885C102.062 96.4885 101.831 96.7201 101.831 97.0057C101.831 97.2914 102.062 97.5229 102.348 97.5229Z" fill="#26292E"/>
<path d="M104.071 97.5229C104.357 97.5229 104.588 97.2914 104.588 97.0057C104.588 96.7201 104.357 96.4885 104.071 96.4885C103.786 96.4885 103.554 96.7201 103.554 97.0057C103.554 97.2914 103.786 97.5229 104.071 97.5229Z" fill="#26292E"/>
<path d="M105.797 97.5229C106.082 97.5229 106.314 97.2914 106.314 97.0057C106.314 96.7201 106.082 96.4885 105.797 96.4885C105.511 96.4885 105.28 96.7201 105.28 97.0057C105.28 97.2914 105.511 97.5229 105.797 97.5229Z" fill="#26292E"/>
<path d="M109.245 97.5229C109.531 97.5229 109.762 97.2914 109.762 97.0057C109.762 96.7201 109.531 96.4885 109.245 96.4885C108.96 96.4885 108.728 96.7201 108.728 97.0057C108.728 97.2914 108.96 97.5229 109.245 97.5229Z" fill="#26292E"/>
<path d="M110.971 97.5229C111.257 97.5229 111.488 97.2914 111.488 97.0057C111.488 96.7201 111.257 96.4885 110.971 96.4885C110.685 96.4885 110.454 96.7201 110.454 97.0057C110.454 97.2914 110.685 97.5229 110.971 97.5229Z" fill="#26292E"/>
<path d="M112.692 97.5229C112.978 97.5229 113.21 97.2914 113.21 97.0057C113.21 96.7201 112.978 96.4885 112.692 96.4885C112.407 96.4885 112.175 96.7201 112.175 97.0057C112.175 97.2914 112.407 97.5229 112.692 97.5229Z" fill="#26292E"/>
<path d="M71.3134 99.2441C71.599 99.2441 71.8306 99.0126 71.8306 98.7269C71.8306 98.4413 71.599 98.2097 71.3134 98.2097C71.0277 98.2097 70.7961 98.4413 70.7961 98.7269C70.7961 99.0126 71.0277 99.2441 71.3134 99.2441Z" fill="#26292E"/>
<path d="M74.7619 99.2441C75.0475 99.2441 75.2791 99.0126 75.2791 98.7269C75.2791 98.4413 75.0475 98.2097 74.7619 98.2097C74.4762 98.2097 74.2446 98.4413 74.2446 98.7269C74.2446 99.0126 74.4762 99.2441 74.7619 99.2441Z" fill="#26292E"/>
<path d="M76.4873 99.2441C76.773 99.2441 77.0046 99.0126 77.0046 98.7269C77.0046 98.4413 76.773 98.2097 76.4873 98.2097C76.2017 98.2097 75.9701 98.4413 75.9701 98.7269C75.9701 99.0126 76.2017 99.2441 76.4873 99.2441Z" fill="#26292E"/>
<path d="M78.2106 99.2441C78.4963 99.2441 78.7279 99.0126 78.7279 98.7269C78.7279 98.4413 78.4963 98.2097 78.2106 98.2097C77.9249 98.2097 77.6934 98.4413 77.6934 98.7269C77.6934 99.0126 77.9249 99.2441 78.2106 99.2441Z" fill="#26292E"/>
<path d="M86.8314 99.2441C87.1171 99.2441 87.3487 99.0126 87.3487 98.7269C87.3487 98.4413 87.1171 98.2097 86.8314 98.2097C86.5458 98.2097 86.3142 98.4413 86.3142 98.7269C86.3142 99.0126 86.5458 99.2441 86.8314 99.2441Z" fill="#26292E"/>
<path d="M93.7272 99.2441C94.0128 99.2441 94.2444 99.0126 94.2444 98.7269C94.2444 98.4413 94.0128 98.2097 93.7272 98.2097C93.4415 98.2097 93.21 98.4413 93.21 98.7269C93.21 99.0126 93.4415 99.2441 93.7272 99.2441Z" fill="#26292E"/>
<path d="M98.9011 99.2441C99.1867 99.2441 99.4183 99.0126 99.4183 98.7269C99.4183 98.4413 99.1867 98.2097 98.9011 98.2097C98.6155 98.2097 98.3839 98.4413 98.3839 98.7269C98.3839 99.0126 98.6155 99.2441 98.9011 99.2441Z" fill="#26292E"/>
<path d="M104.071 99.2441C104.357 99.2441 104.588 99.0126 104.588 98.7269C104.588 98.4413 104.357 98.2097 104.071 98.2097C103.786 98.2097 103.554 98.4413 103.554 98.7269C103.554 99.0126 103.786 99.2441 104.071 99.2441Z" fill="#26292E"/>
<path d="M107.522 99.2441C107.808 99.2441 108.04 99.0126 108.04 98.7269C108.04 98.4413 107.808 98.2097 107.522 98.2097C107.237 98.2097 107.005 98.4413 107.005 98.7269C107.005 99.0126 107.237 99.2441 107.522 99.2441Z" fill="#26292E"/>
<path d="M110.971 99.2441C111.257 99.2441 111.488 99.0126 111.488 98.7269C111.488 98.4413 111.257 98.2097 110.971 98.2097C110.685 98.2097 110.454 98.4413 110.454 98.7269C110.454 99.0126 110.685 99.2441 110.971 99.2441Z" fill="#26292E"/>
<path d="M71.3134 100.97C71.599 100.97 71.8306 100.738 71.8306 100.453C71.8306 100.167 71.599 99.9353 71.3134 99.9353C71.0277 99.9353 70.7961 100.167 70.7961 100.453C70.7961 100.738 71.0277 100.97 71.3134 100.97Z" fill="#26292E"/>
<path d="M79.9359 100.97C80.2216 100.97 80.4532 100.738 80.4532 100.453C80.4532 100.167 80.2216 99.9353 79.9359 99.9353C79.6503 99.9353 79.4187 100.167 79.4187 100.453C79.4187 100.738 79.6503 100.97 79.9359 100.97Z" fill="#26292E"/>
<path d="M81.6575 100.97C81.9432 100.97 82.1748 100.738 82.1748 100.453C82.1748 100.167 81.9432 99.9353 81.6575 99.9353C81.3718 99.9353 81.1403 100.167 81.1403 100.453C81.1403 100.738 81.3718 100.97 81.6575 100.97Z" fill="#26292E"/>
<path d="M88.553 100.97C88.8387 100.97 89.0702 100.738 89.0702 100.453C89.0702 100.167 88.8387 99.9353 88.553 99.9353C88.2673 99.9353 88.0358 100.167 88.0358 100.453C88.0358 100.738 88.2673 100.97 88.553 100.97Z" fill="#26292E"/>
<path d="M90.2802 100.97C90.5659 100.97 90.7975 100.738 90.7975 100.453C90.7975 100.167 90.5659 99.9353 90.2802 99.9353C89.9945 99.9353 89.7629 100.167 89.7629 100.453C89.7629 100.738 89.9945 100.97 90.2802 100.97Z" fill="#26292E"/>
<path d="M92.0057 100.97C92.2914 100.97 92.5229 100.738 92.5229 100.453C92.5229 100.167 92.2914 99.9353 92.0057 99.9353C91.7201 99.9353 91.4885 100.167 91.4885 100.453C91.4885 100.738 91.7201 100.97 92.0057 100.97Z" fill="#26292E"/>
<path d="M93.7272 100.97C94.0128 100.97 94.2444 100.738 94.2444 100.453C94.2444 100.167 94.0128 99.9353 93.7272 99.9353C93.4415 99.9353 93.21 100.167 93.21 100.453C93.21 100.738 93.4415 100.97 93.7272 100.97Z" fill="#26292E"/>
<path d="M95.4527 100.97C95.7384 100.97 95.97 100.738 95.97 100.453C95.97 100.167 95.7384 99.9353 95.4527 99.9353C95.167 99.9353 94.9354 100.167 94.9354 100.453C94.9354 100.738 95.167 100.97 95.4527 100.97Z" fill="#26292E"/>
<path d="M97.1757 100.97C97.4614 100.97 97.693 100.738 97.693 100.453C97.693 100.167 97.4614 99.9353 97.1757 99.9353C96.89 99.9353 96.6584 100.167 96.6584 100.453C96.6584 100.738 96.89 100.97 97.1757 100.97Z" fill="#26292E"/>
<path d="M98.9011 100.97C99.1867 100.97 99.4183 100.738 99.4183 100.453C99.4183 100.167 99.1867 99.9353 98.9011 99.9353C98.6155 99.9353 98.3839 100.167 98.3839 100.453C98.3839 100.738 98.6155 100.97 98.9011 100.97Z" fill="#26292E"/>
<path d="M102.348 100.97C102.634 100.97 102.865 100.738 102.865 100.453C102.865 100.167 102.634 99.9353 102.348 99.9353C102.062 99.9353 101.831 100.167 101.831 100.453C101.831 100.738 102.062 100.97 102.348 100.97Z" fill="#26292E"/>
<path d="M104.071 100.97C104.357 100.97 104.588 100.738 104.588 100.453C104.588 100.167 104.357 99.9353 104.071 99.9353C103.786 99.9353 103.554 100.167 103.554 100.453C103.554 100.738 103.786 100.97 104.071 100.97Z" fill="#26292E"/>
<path d="M105.797 100.97C106.082 100.97 106.314 100.738 106.314 100.453C106.314 100.167 106.082 99.9353 105.797 99.9353C105.511 99.9353 105.28 100.167 105.28 100.453C105.28 100.738 105.511 100.97 105.797 100.97Z" fill="#26292E"/>
<path d="M107.522 100.97C107.808 100.97 108.04 100.738 108.04 100.453C108.04 100.167 107.808 99.9353 107.522 99.9353C107.237 99.9353 107.005 100.167 107.005 100.453C107.005 100.738 107.237 100.97 107.522 100.97Z" fill="#26292E"/>
<path d="M110.971 100.97C111.257 100.97 111.488 100.738 111.488 100.453C111.488 100.167 111.257 99.9353 110.971 99.9353C110.685 99.9353 110.454 100.167 110.454 100.453C110.454 100.738 110.685 100.97 110.971 100.97Z" fill="#26292E"/>
<path d="M112.692 100.97C112.978 100.97 113.21 100.738 113.21 100.453C113.21 100.167 112.978 99.9353 112.692 99.9353C112.407 99.9353 112.175 100.167 112.175 100.453C112.175 100.738 112.407 100.97 112.692 100.97Z" fill="#26292E"/>
<path d="M71.3134 102.693C71.599 102.693 71.8306 102.461 71.8306 102.176C71.8306 101.89 71.599 101.658 71.3134 101.658C71.0277 101.658 70.7961 101.89 70.7961 102.176C70.7961 102.461 71.0277 102.693 71.3134 102.693Z" fill="#26292E"/>
<path d="M74.7619 102.693C75.0475 102.693 75.2791 102.461 75.2791 102.176C75.2791 101.89 75.0475 101.658 74.7619 101.658C74.4762 101.658 74.2446 101.89 74.2446 102.176C74.2446 102.461 74.4762 102.693 74.7619 102.693Z" fill="#26292E"/>
<path d="M78.2106 102.693C78.4963 102.693 78.7279 102.461 78.7279 102.176C78.7279 101.89 78.4963 101.658 78.2106 101.658C77.9249 101.658 77.6934 101.89 77.6934 102.176C77.6934 102.461 77.9249 102.693 78.2106 102.693Z" fill="#26292E"/>
<path d="M79.9359 102.693C80.2216 102.693 80.4532 102.461 80.4532 102.176C80.4532 101.89 80.2216 101.658 79.9359 101.658C79.6503 101.658 79.4187 101.89 79.4187 102.176C79.4187 102.461 79.6503 102.693 79.9359 102.693Z" fill="#26292E"/>
<path d="M86.8314 102.693C87.1171 102.693 87.3487 102.461 87.3487 102.176C87.3487 101.89 87.1171 101.658 86.8314 101.658C86.5458 101.658 86.3142 101.89 86.3142 102.176C86.3142 102.461 86.5458 102.693 86.8314 102.693Z" fill="#26292E"/>
<path d="M90.2802 102.693C90.5659 102.693 90.7975 102.461 90.7975 102.176C90.7975 101.89 90.5659 101.658 90.2802 101.658C89.9945 101.658 89.7629 101.89 89.7629 102.176C89.7629 102.461 89.9945 102.693 90.2802 102.693Z" fill="#26292E"/>
<path d="M95.4527 102.693C95.7384 102.693 95.97 102.461 95.97 102.176C95.97 101.89 95.7384 101.658 95.4527 101.658C95.167 101.658 94.9354 101.89 94.9354 102.176C94.9354 102.461 95.167 102.693 95.4527 102.693Z" fill="#26292E"/>
<path d="M97.1757 102.693C97.4614 102.693 97.693 102.461 97.693 102.176C97.693 101.89 97.4614 101.658 97.1757 101.658C96.89 101.658 96.6584 101.89 96.6584 102.176C96.6584 102.461 96.89 102.693 97.1757 102.693Z" fill="#26292E"/>
<path d="M104.071 102.693C104.357 102.693 104.588 102.461 104.588 102.176C104.588 101.89 104.357 101.658 104.071 101.658C103.786 101.658 103.554 101.89 103.554 102.176C103.554 102.461 103.786 102.693 104.071 102.693Z" fill="#26292E"/>
<path d="M105.797 102.693C106.082 102.693 106.314 102.461 106.314 102.176C106.314 101.89 106.082 101.658 105.797 101.658C105.511 101.658 105.28 101.89 105.28 102.176C105.28 102.461 105.511 102.693 105.797 102.693Z" fill="#26292E"/>
<path d="M112.692 102.693C112.978 102.693 113.21 102.461 113.21 102.176C113.21 101.89 112.978 101.658 112.692 101.658C112.407 101.658 112.175 101.89 112.175 102.176C112.175 102.461 112.407 102.693 112.692 102.693Z" fill="#26292E"/>
<path d="M71.3134 104.418C71.599 104.418 71.8306 104.187 71.8306 103.901C71.8306 103.615 71.599 103.384 71.3134 103.384C71.0277 103.384 70.7961 103.615 70.7961 103.901C70.7961 104.187 71.0277 104.418 71.3134 104.418Z" fill="#26292E"/>
<path d="M76.4873 104.418C76.773 104.418 77.0046 104.187 77.0046 103.901C77.0046 103.615 76.773 103.384 76.4873 103.384C76.2017 103.384 75.9701 103.615 75.9701 103.901C75.9701 104.187 76.2017 104.418 76.4873 104.418Z" fill="#26292E"/>
<path d="M81.6575 104.418C81.9432 104.418 82.1748 104.187 82.1748 103.901C82.1748 103.615 81.9432 103.384 81.6575 103.384C81.3718 103.384 81.1403 103.615 81.1403 103.901C81.1403 104.187 81.3718 104.418 81.6575 104.418Z" fill="#26292E"/>
<path d="M85.1061 104.418C85.3918 104.418 85.6233 104.187 85.6233 103.901C85.6233 103.615 85.3918 103.384 85.1061 103.384C84.8204 103.384 84.5889 103.615 84.5889 103.901C84.5889 104.187 84.8204 104.418 85.1061 104.418Z" fill="#26292E"/>
<path d="M86.8314 104.418C87.1171 104.418 87.3487 104.187 87.3487 103.901C87.3487 103.615 87.1171 103.384 86.8314 103.384C86.5458 103.384 86.3142 103.615 86.3142 103.901C86.3142 104.187 86.5458 104.418 86.8314 104.418Z" fill="#26292E"/>
<path d="M88.553 104.418C88.8387 104.418 89.0702 104.187 89.0702 103.901C89.0702 103.615 88.8387 103.384 88.553 103.384C88.2673 103.384 88.0358 103.615 88.0358 103.901C88.0358 104.187 88.2673 104.418 88.553 104.418Z" fill="#26292E"/>
<path d="M90.2802 104.418C90.5659 104.418 90.7975 104.187 90.7975 103.901C90.7975 103.615 90.5659 103.384 90.2802 103.384C89.9945 103.384 89.7629 103.615 89.7629 103.901C89.7629 104.187 89.9945 104.418 90.2802 104.418Z" fill="#26292E"/>
<path d="M98.9011 104.418C99.1867 104.418 99.4183 104.187 99.4183 103.901C99.4183 103.615 99.1867 103.384 98.9011 103.384C98.6155 103.384 98.3839 103.615 98.3839 103.901C98.3839 104.187 98.6155 104.418 98.9011 104.418Z" fill="#26292E"/>
<path d="M102.348 104.418C102.634 104.418 102.865 104.187 102.865 103.901C102.865 103.615 102.634 103.384 102.348 103.384C102.062 103.384 101.831 103.615 101.831 103.901C101.831 104.187 102.062 104.418 102.348 104.418Z" fill="#26292E"/>
<path d="M104.071 104.418C104.357 104.418 104.588 104.187 104.588 103.901C104.588 103.615 104.357 103.384 104.071 103.384C103.786 103.384 103.554 103.615 103.554 103.901C103.554 104.187 103.786 104.418 104.071 104.418Z" fill="#26292E"/>
<path d="M105.797 104.418C106.082 104.418 106.314 104.187 106.314 103.901C106.314 103.615 106.082 103.384 105.797 103.384C105.511 103.384 105.28 103.615 105.28 103.901C105.28 104.187 105.511 104.418 105.797 104.418Z" fill="#26292E"/>
<path d="M109.245 104.418C109.531 104.418 109.762 104.187 109.762 103.901C109.762 103.615 109.531 103.384 109.245 103.384C108.96 103.384 108.728 103.615 108.728 103.901C108.728 104.187 108.96 104.418 109.245 104.418Z" fill="#26292E"/>
<path d="M105.797 106.14C106.082 106.14 106.314 105.908 106.314 105.623C106.314 105.337 106.082 105.105 105.797 105.105C105.511 105.105 105.28 105.337 105.28 105.623C105.28 105.908 105.511 106.14 105.797 106.14Z" fill="#26292E"/>
<path d="M107.522 106.14C107.808 106.14 108.04 105.908 108.04 105.623C108.04 105.337 107.808 105.105 107.522 105.105C107.237 105.105 107.005 105.337 107.005 105.623C107.005 105.908 107.237 106.14 107.522 106.14Z" fill="#26292E"/>
<path d="M86.8314 107.865C87.1171 107.865 87.3487 107.634 87.3487 107.348C87.3487 107.062 87.1171 106.831 86.8314 106.831C86.5458 106.831 86.3142 107.062 86.3142 107.348C86.3142 107.634 86.5458 107.865 86.8314 107.865Z" fill="#26292E"/>
<path d="M88.553 107.865C88.8387 107.865 89.0702 107.634 89.0702 107.348C89.0702 107.062 88.8387 106.831 88.553 106.831C88.2673 106.831 88.0358 107.062 88.0358 107.348C88.0358 107.634 88.2673 107.865 88.553 107.865Z" fill="#26292E"/>
<path d="M93.7272 107.865C94.0128 107.865 94.2444 107.634 94.2444 107.348C94.2444 107.062 94.0128 106.831 93.7272 106.831C93.4415 106.831 93.21 107.062 93.21 107.348C93.21 107.634 93.4415 107.865 93.7272 107.865Z" fill="#26292E"/>
<path d="M95.4527 107.865C95.7384 107.865 95.97 107.634 95.97 107.348C95.97 107.062 95.7384 106.831 95.4527 106.831C95.167 106.831 94.9354 107.062 94.9354 107.348C94.9354 107.634 95.167 107.865 95.4527 107.865Z" fill="#26292E"/>
<path d="M98.9011 107.865C99.1867 107.865 99.4183 107.634 99.4183 107.348C99.4183 107.062 99.1867 106.831 98.9011 106.831C98.6155 106.831 98.3839 107.062 98.3839 107.348C98.3839 107.634 98.6155 107.865 98.9011 107.865Z" fill="#26292E"/>
<path d="M102.348 107.865C102.634 107.865 102.865 107.634 102.865 107.348C102.865 107.062 102.634 106.831 102.348 106.831C102.062 106.831 101.831 107.062 101.831 107.348C101.831 107.634 102.062 107.865 102.348 107.865Z" fill="#26292E"/>
<path d="M105.797 107.865C106.082 107.865 106.314 107.634 106.314 107.348C106.314 107.062 106.082 106.831 105.797 106.831C105.511 106.831 105.28 107.062 105.28 107.348C105.28 107.634 105.511 107.865 105.797 107.865Z" fill="#26292E"/>
<path d="M109.245 107.865C109.531 107.865 109.762 107.634 109.762 107.348C109.762 107.062 109.531 106.831 109.245 106.831C108.96 106.831 108.728 107.062 108.728 107.348C108.728 107.634 108.96 107.865 109.245 107.865Z" fill="#26292E"/>
<path d="M110.971 107.865C111.257 107.865 111.488 107.634 111.488 107.348C111.488 107.062 111.257 106.831 110.971 106.831C110.685 106.831 110.454 107.062 110.454 107.348C110.454 107.634 110.685 107.865 110.971 107.865Z" fill="#26292E"/>
<path d="M112.692 107.865C112.978 107.865 113.21 107.634 113.21 107.348C113.21 107.062 112.978 106.831 112.692 106.831C112.407 106.831 112.175 107.062 112.175 107.348C112.175 107.634 112.407 107.865 112.692 107.865Z" fill="#26292E"/>
<path d="M85.1061 109.588C85.3918 109.588 85.6233 109.357 85.6233 109.071C85.6233 108.785 85.3918 108.554 85.1061 108.554C84.8204 108.554 84.5889 108.785 84.5889 109.071C84.5889 109.357 84.8204 109.588 85.1061 109.588Z" fill="#26292E"/>
<path d="M92.0057 109.588C92.2914 109.588 92.5229 109.357 92.5229 109.071C92.5229 108.785 92.2914 108.554 92.0057 108.554C91.7201 108.554 91.4885 108.785 91.4885 109.071C91.4885 109.357 91.7201 109.588 92.0057 109.588Z" fill="#26292E"/>
<path d="M93.7272 109.588C94.0128 109.588 94.2444 109.357 94.2444 109.071C94.2444 108.785 94.0128 108.554 93.7272 108.554C93.4415 108.554 93.21 108.785 93.21 109.071C93.21 109.357 93.4415 109.588 93.7272 109.588Z" fill="#26292E"/>
<path d="M98.9011 109.588C99.1867 109.588 99.4183 109.357 99.4183 109.071C99.4183 108.785 99.1867 108.554 98.9011 108.554C98.6155 108.554 98.3839 108.785 98.3839 109.071C98.3839 109.357 98.6155 109.588 98.9011 109.588Z" fill="#26292E"/>
<path d="M105.797 109.588C106.082 109.588 106.314 109.357 106.314 109.071C106.314 108.785 106.082 108.554 105.797 108.554C105.511 108.554 105.28 108.785 105.28 109.071C105.28 109.357 105.511 109.588 105.797 109.588Z" fill="#26292E"/>
<path d="M107.522 109.588C107.808 109.588 108.04 109.357 108.04 109.071C108.04 108.785 107.808 108.554 107.522 108.554C107.237 108.554 107.005 108.785 107.005 109.071C107.005 109.357 107.237 109.588 107.522 109.588Z" fill="#26292E"/>
<path d="M110.971 109.588C111.257 109.588 111.488 109.357 111.488 109.071C111.488 108.785 111.257 108.554 110.971 108.554C110.685 108.554 110.454 108.785 110.454 109.071C110.454 109.357 110.685 109.588 110.971 109.588Z" fill="#26292E"/>
<path d="M112.692 109.588C112.978 109.588 113.21 109.357 113.21 109.071C113.21 108.785 112.978 108.554 112.692 108.554C112.407 108.554 112.175 108.785 112.175 109.071C112.175 109.357 112.407 109.588 112.692 109.588Z" fill="#26292E"/>
<path d="M85.1061 111.314C85.3918 111.314 85.6233 111.082 85.6233 110.797C85.6233 110.511 85.3918 110.279 85.1061 110.279C84.8204 110.279 84.5889 110.511 84.5889 110.797C84.5889 111.082 84.8204 111.314 85.1061 111.314Z" fill="#26292E"/>
<path d="M86.8314 111.314C87.1171 111.314 87.3487 111.082 87.3487 110.797C87.3487 110.511 87.1171 110.279 86.8314 110.279C86.5458 110.279 86.3142 110.511 86.3142 110.797C86.3142 111.082 86.5458 111.314 86.8314 111.314Z" fill="#26292E"/>
<path d="M88.553 111.314C88.8387 111.314 89.0702 111.082 89.0702 110.797C89.0702 110.511 88.8387 110.279 88.553 110.279C88.2673 110.279 88.0358 110.511 88.0358 110.797C88.0358 111.082 88.2673 111.314 88.553 111.314Z" fill="#26292E"/>
<path d="M92.0057 111.314C92.2914 111.314 92.5229 111.082 92.5229 110.797C92.5229 110.511 92.2914 110.279 92.0057 110.279C91.7201 110.279 91.4885 110.511 91.4885 110.797C91.4885 111.082 91.7201 111.314 92.0057 111.314Z" fill="#26292E"/>
<path d="M95.4527 111.314C95.7384 111.314 95.97 111.082 95.97 110.797C95.97 110.511 95.7384 110.279 95.4527 110.279C95.167 110.279 94.9354 110.511 94.9354 110.797C94.9354 111.082 95.167 111.314 95.4527 111.314Z" fill="#26292E"/>
<path d="M97.1757 111.314C97.4614 111.314 97.693 111.082 97.693 110.797C97.693 110.511 97.4614 110.279 97.1757 110.279C96.89 110.279 96.6584 110.511 96.6584 110.797C96.6584 111.082 96.89 111.314 97.1757 111.314Z" fill="#26292E"/>
<path d="M98.9011 111.314C99.1867 111.314 99.4183 111.082 99.4183 110.797C99.4183 110.511 99.1867 110.279 98.9011 110.279C98.6155 110.279 98.3839 110.511 98.3839 110.797C98.3839 111.082 98.6155 111.314 98.9011 111.314Z" fill="#26292E"/>
<path d="M100.623 111.314C100.908 111.314 101.14 111.082 101.14 110.797C101.14 110.511 100.908 110.279 100.623 110.279C100.337 110.279 100.105 110.511 100.105 110.797C100.105 111.082 100.337 111.314 100.623 111.314Z" fill="#26292E"/>
<path d="M102.348 111.314C102.634 111.314 102.865 111.082 102.865 110.797C102.865 110.511 102.634 110.279 102.348 110.279C102.062 110.279 101.831 110.511 101.831 110.797C101.831 111.082 102.062 111.314 102.348 111.314Z" fill="#26292E"/>
<path d="M104.071 111.314C104.357 111.314 104.588 111.082 104.588 110.797C104.588 110.511 104.357 110.279 104.071 110.279C103.786 110.279 103.554 110.511 103.554 110.797C103.554 111.082 103.786 111.314 104.071 111.314Z" fill="#26292E"/>
<path d="M105.797 111.314C106.082 111.314 106.314 111.082 106.314 110.797C106.314 110.511 106.082 110.279 105.797 110.279C105.511 110.279 105.28 110.511 105.28 110.797C105.28 111.082 105.511 111.314 105.797 111.314Z" fill="#26292E"/>
<path d="M109.245 111.314C109.531 111.314 109.762 111.082 109.762 110.797C109.762 110.511 109.531 110.279 109.245 110.279C108.96 110.279 108.728 110.511 108.728 110.797C108.728 111.082 108.96 111.314 109.245 111.314Z" fill="#26292E"/>
<path d="M110.971 111.314C111.257 111.314 111.488 111.082 111.488 110.797C111.488 110.511 111.257 110.279 110.971 110.279C110.685 110.279 110.454 110.511 110.454 110.797C110.454 111.082 110.685 111.314 110.971 111.314Z" fill="#26292E"/>
<path d="M112.692 111.314C112.978 111.314 113.21 111.082 113.21 110.797C113.21 110.511 112.978 110.279 112.692 110.279C112.407 110.279 112.175 110.511 112.175 110.797C112.175 111.082 112.407 111.314 112.692 111.314Z" fill="#26292E"/>
<path d="M85.1061 113.039C85.3918 113.039 85.6233 112.808 85.6233 112.522C85.6233 112.236 85.3918 112.005 85.1061 112.005C84.8204 112.005 84.5889 112.236 84.5889 112.522C84.5889 112.808 84.8204 113.039 85.1061 113.039Z" fill="#26292E"/>
<path d="M86.8314 113.039C87.1171 113.039 87.3487 112.808 87.3487 112.522C87.3487 112.236 87.1171 112.005 86.8314 112.005C86.5458 112.005 86.3142 112.236 86.3142 112.522C86.3142 112.808 86.5458 113.039 86.8314 113.039Z" fill="#26292E"/>
<path d="M88.553 113.039C88.8387 113.039 89.0702 112.808 89.0702 112.522C89.0702 112.236 88.8387 112.005 88.553 112.005C88.2673 112.005 88.0358 112.236 88.0358 112.522C88.0358 112.808 88.2673 113.039 88.553 113.039Z" fill="#26292E"/>
<path d="M97.1757 113.039C97.4614 113.039 97.693 112.808 97.693 112.522C97.693 112.236 97.4614 112.005 97.1757 112.005C96.89 112.005 96.6584 112.236 96.6584 112.522C96.6584 112.808 96.89 113.039 97.1757 113.039Z" fill="#26292E"/>
<path d="M102.348 113.039C102.634 113.039 102.865 112.808 102.865 112.522C102.865 112.236 102.634 112.005 102.348 112.005C102.062 112.005 101.831 112.236 101.831 112.522C101.831 112.808 102.062 113.039 102.348 113.039Z" fill="#26292E"/>
<path d="M105.797 113.039C106.082 113.039 106.314 112.808 106.314 112.522C106.314 112.236 106.082 112.005 105.797 112.005C105.511 112.005 105.28 112.236 105.28 112.522C105.28 112.808 105.511 113.039 105.797 113.039Z" fill="#26292E"/>
<path d="M107.522 113.039C107.808 113.039 108.04 112.808 108.04 112.522C108.04 112.236 107.808 112.005 107.522 112.005C107.237 112.005 107.005 112.236 107.005 112.522C107.005 112.808 107.237 113.039 107.522 113.039Z" fill="#26292E"/>
<path d="M109.245 113.039C109.531 113.039 109.762 112.808 109.762 112.522C109.762 112.236 109.531 112.005 109.245 112.005C108.96 112.005 108.728 112.236 108.728 112.522C108.728 112.808 108.96 113.039 109.245 113.039Z" fill="#26292E"/>
<path d="M110.971 113.039C111.257 113.039 111.488 112.808 111.488 112.522C111.488 112.236 111.257 112.005 110.971 112.005C110.685 112.005 110.454 112.236 110.454 112.522C110.454 112.808 110.685 113.039 110.971 113.039Z" fill="#26292E"/>
<path d="M112.692 113.039C112.978 113.039 113.21 112.808 113.21 112.522C113.21 112.236 112.978 112.005 112.692 112.005C112.407 112.005 112.175 112.236 112.175 112.522C112.175 112.808 112.407 113.039 112.692 113.039Z" fill="#26292E"/>
<path d="M85.1061 114.762C85.3918 114.762 85.6233 114.531 85.6233 114.245C85.6233 113.96 85.3918 113.728 85.1061 113.728C84.8204 113.728 84.5889 113.96 84.5889 114.245C84.5889 114.531 84.8204 114.762 85.1061 114.762Z" fill="#26292E"/>
<path d="M86.8314 114.762C87.1171 114.762 87.3487 114.531 87.3487 114.245C87.3487 113.96 87.1171 113.728 86.8314 113.728C86.5458 113.728 86.3142 113.96 86.3142 114.245C86.3142 114.531 86.5458 114.762 86.8314 114.762Z" fill="#26292E"/>
<path d="M90.2802 114.762C90.5659 114.762 90.7975 114.531 90.7975 114.245C90.7975 113.96 90.5659 113.728 90.2802 113.728C89.9945 113.728 89.7629 113.96 89.7629 114.245C89.7629 114.531 89.9945 114.762 90.2802 114.762Z" fill="#26292E"/>
<path d="M92.0057 114.762C92.2914 114.762 92.5229 114.531 92.5229 114.245C92.5229 113.96 92.2914 113.728 92.0057 113.728C91.7201 113.728 91.4885 113.96 91.4885 114.245C91.4885 114.531 91.7201 114.762 92.0057 114.762Z" fill="#26292E"/>
<path d="M97.1757 114.762C97.4614 114.762 97.693 114.531 97.693 114.245C97.693 113.96 97.4614 113.728 97.1757 113.728C96.89 113.728 96.6584 113.96 96.6584 114.245C96.6584 114.531 96.89 114.762 97.1757 114.762Z" fill="#26292E"/>
<path d="M98.9011 114.762C99.1867 114.762 99.4183 114.531 99.4183 114.245C99.4183 113.96 99.1867 113.728 98.9011 113.728C98.6155 113.728 98.3839 113.96 98.3839 114.245C98.3839 114.531 98.6155 114.762 98.9011 114.762Z" fill="#26292E"/>
<path d="M107.522 114.762C107.808 114.762 108.04 114.531 108.04 114.245C108.04 113.96 107.808 113.728 107.522 113.728C107.237 113.728 107.005 113.96 107.005 114.245C107.005 114.531 107.237 114.762 107.522 114.762Z" fill="#26292E"/>
<path d="M109.245 114.762C109.531 114.762 109.762 114.531 109.762 114.245C109.762 113.96 109.531 113.728 109.245 113.728C108.96 113.728 108.728 113.96 108.728 114.245C108.728 114.531 108.96 114.762 109.245 114.762Z" fill="#26292E"/>
<path d="M112.692 114.762C112.978 114.762 113.21 114.531 113.21 114.245C113.21 113.96 112.978 113.728 112.692 113.728C112.407 113.728 112.175 113.96 112.175 114.245C112.175 114.531 112.407 114.762 112.692 114.762Z" fill="#26292E"/>
<path d="M86.8314 116.488C87.1171 116.488 87.3487 116.257 87.3487 115.971C87.3487 115.685 87.1171 115.454 86.8314 115.454C86.5458 115.454 86.3142 115.685 86.3142 115.971C86.3142 116.257 86.5458 116.488 86.8314 116.488Z" fill="#26292E"/>
<path d="M88.553 116.488C88.8387 116.488 89.0702 116.257 89.0702 115.971C89.0702 115.685 88.8387 115.454 88.553 115.454C88.2673 115.454 88.0358 115.685 88.0358 115.971C88.0358 116.257 88.2673 116.488 88.553 116.488Z" fill="#26292E"/>
<path d="M90.2802 116.488C90.5659 116.488 90.7975 116.257 90.7975 115.971C90.7975 115.685 90.5659 115.454 90.2802 115.454C89.9945 115.454 89.7629 115.685 89.7629 115.971C89.7629 116.257 89.9945 116.488 90.2802 116.488Z" fill="#26292E"/>
<path d="M95.4527 116.488C95.7384 116.488 95.97 116.257 95.97 115.971C95.97 115.685 95.7384 115.454 95.4527 115.454C95.167 115.454 94.9354 115.685 94.9354 115.971C94.9354 116.257 95.167 116.488 95.4527 116.488Z" fill="#26292E"/>
<path d="M98.9011 116.488C99.1867 116.488 99.4183 116.257 99.4183 115.971C99.4183 115.685 99.1867 115.454 98.9011 115.454C98.6155 115.454 98.3839 115.685 98.3839 115.971C98.3839 116.257 98.6155 116.488 98.9011 116.488Z" fill="#26292E"/>
<path d="M100.623 116.488C100.908 116.488 101.14 116.257 101.14 115.971C101.14 115.685 100.908 115.454 100.623 115.454C100.337 115.454 100.105 115.685 100.105 115.971C100.105 116.257 100.337 116.488 100.623 116.488Z" fill="#26292E"/>
<path d="M104.071 116.488C104.357 116.488 104.588 116.257 104.588 115.971C104.588 115.685 104.357 115.454 104.071 115.454C103.786 115.454 103.554 115.685 103.554 115.971C103.554 116.257 103.786 116.488 104.071 116.488Z" fill="#26292E"/>
<path d="M105.797 116.488C106.082 116.488 106.314 116.257 106.314 115.971C106.314 115.685 106.082 115.454 105.797 115.454C105.511 115.454 105.28 115.685 105.28 115.971C105.28 116.257 105.511 116.488 105.797 116.488Z" fill="#26292E"/>
<path d="M107.522 116.488C107.808 116.488 108.04 116.257 108.04 115.971C108.04 115.685 107.808 115.454 107.522 115.454C107.237 115.454 107.005 115.685 107.005 115.971C107.005 116.257 107.237 116.488 107.522 116.488Z" fill="#26292E"/>
<path d="M112.692 116.488C112.978 116.488 113.21 116.257 113.21 115.971C113.21 115.685 112.978 115.454 112.692 115.454C112.407 115.454 112.175 115.685 112.175 115.971C112.175 116.257 112.407 116.488 112.692 116.488Z" fill="#26292E"/>
<path d="M85.1061 118.21C85.3918 118.21 85.6233 117.978 85.6233 117.692C85.6233 117.407 85.3918 117.175 85.1061 117.175C84.8204 117.175 84.5889 117.407 84.5889 117.692C84.5889 117.978 84.8204 118.21 85.1061 118.21Z" fill="#26292E"/>
<path d="M90.2802 118.21C90.5659 118.21 90.7975 117.978 90.7975 117.692C90.7975 117.407 90.5659 117.175 90.2802 117.175C89.9945 117.175 89.7629 117.407 89.7629 117.692C89.7629 117.978 89.9945 118.21 90.2802 118.21Z" fill="#26292E"/>
<path d="M104.071 118.21C104.357 118.21 104.588 117.978 104.588 117.692C104.588 117.407 104.357 117.175 104.071 117.175C103.786 117.175 103.554 117.407 103.554 117.692C103.554 117.978 103.786 118.21 104.071 118.21Z" fill="#26292E"/>
<path d="M105.797 118.21C106.082 118.21 106.314 117.978 106.314 117.692C106.314 117.407 106.082 117.175 105.797 117.175C105.511 117.175 105.28 117.407 105.28 117.692C105.28 117.978 105.511 118.21 105.797 118.21Z" fill="#26292E"/>
<path d="M107.522 118.21C107.808 118.21 108.04 117.978 108.04 117.692C108.04 117.407 107.808 117.175 107.522 117.175C107.237 117.175 107.005 117.407 107.005 117.692C107.005 117.978 107.237 118.21 107.522 118.21Z" fill="#26292E"/>
<path d="M109.245 118.21C109.531 118.21 109.762 117.978 109.762 117.692C109.762 117.407 109.531 117.175 109.245 117.175C108.96 117.175 108.728 117.407 108.728 117.692C108.728 117.978 108.96 118.21 109.245 118.21Z" fill="#26292E"/>
<path d="M110.971 118.21C111.257 118.21 111.488 117.978 111.488 117.692C111.488 117.407 111.257 117.175 110.971 117.175C110.685 117.175 110.454 117.407 110.454 117.692C110.454 117.978 110.685 118.21 110.971 118.21Z" fill="#26292E"/>
<path d="M112.692 118.21C112.978 118.21 113.21 117.978 113.21 117.692C113.21 117.407 112.978 117.175 112.692 117.175C112.407 117.175 112.175 117.407 112.175 117.692C112.175 117.978 112.407 118.21 112.692 118.21Z" fill="#26292E"/>
<path d="M76.4888 75.5725C73.2215 75.5725 70.5726 78.2214 70.5726 81.4886C70.5726 84.7559 73.2215 87.4048 76.4888 87.4048C79.756 87.4048 82.4049 84.7559 82.4049 81.4886C82.4049 78.2214 79.756 75.5725 76.4888 75.5725ZM76.4888 85.6299C74.2053 85.6299 72.3475 83.7722 72.3475 81.4886C72.3475 79.2051 74.2053 77.3474 76.4888 77.3474C78.7723 77.3474 80.6301 79.2051 80.6301 81.4886C80.6301 83.7722 78.7723 85.6299 76.4888 85.6299Z" fill="#26292E"/>
<path d="M107.524 75.5725C104.256 75.5725 101.608 78.2214 101.608 81.4886C101.608 84.7559 104.256 87.4048 107.524 87.4048C110.791 87.4048 113.44 84.7559 113.44 81.4886C113.44 78.2214 110.791 75.5725 107.524 75.5725ZM107.524 85.6299C105.24 85.6299 103.382 83.7722 103.382 81.4886C103.382 79.2051 105.24 77.3474 107.524 77.3474C109.807 77.3474 111.665 79.2051 111.665 81.4886C111.665 83.7722 109.807 85.6299 107.524 85.6299Z" fill="#26292E"/>
<path d="M76.4888 106.607C73.2215 106.607 70.5726 109.256 70.5726 112.524C70.5726 115.791 73.2215 118.44 76.4888 118.44C79.756 118.44 82.4049 115.791 82.4049 112.524C82.4049 109.256 79.756 106.607 76.4888 106.607ZM76.4888 116.665C74.2053 116.665 72.3475 114.807 72.3475 112.524C72.3475 110.24 74.2053 108.382 76.4888 108.382C78.7723 108.382 80.6301 110.24 80.6301 112.524C80.6301 114.807 78.7723 116.665 76.4888 116.665Z" fill="#26292E"/>
<path d="M76.4353 83.9706C77.8356 83.9706 78.9708 82.8355 78.9708 81.4352C78.9708 80.0348 77.8356 78.8997 76.4353 78.8997C75.035 78.8997 73.8998 80.0348 73.8998 81.4352C73.8998 82.8355 75.035 83.9706 76.4353 83.9706Z" fill="#26292E"/>
<path d="M107.466 83.9706C108.866 83.9706 110.001 82.8355 110.001 81.4352C110.001 80.0348 108.866 78.8997 107.466 78.8997C106.065 78.8997 104.93 80.0348 104.93 81.4352C104.93 82.8355 106.065 83.9706 107.466 83.9706Z" fill="#26292E"/>
<path d="M76.4353 115.001C77.8356 115.001 78.9708 113.866 78.9708 112.466C78.9708 111.065 77.8356 109.93 76.4353 109.93C75.035 109.93 73.8998 111.065 73.8998 112.466C73.8998 113.866 75.035 115.001 76.4353 115.001Z" fill="#26292E"/>
<rect x="83" y="88" width="18" height="18" rx="2" fill="white"/>
<path fill-rule="evenodd" clip-rule="evenodd" d="M93.3184 90.431C93.9313 89.7284 95.0691 90.3586 94.7987 91.2509L93.7383 94.75H96.2521C96.9973 94.75 97.394 95.6292 96.901 96.1879L90.6003 103.329C89.9947 104.015 88.8772 103.414 89.116 102.53L90.2833 98.2115H88.4344C87.6916 98.2115 87.294 97.3371 87.7823 96.7773L93.3184 90.431ZM93.5711 91.721L88.8151 97.1731H90.9615C91.1231 97.1731 91.2755 97.2483 91.3738 97.3766C91.472 97.505 91.5049 97.6717 91.4627 97.8278L90.3118 102.086L95.8686 95.7884H93.0384C92.874 95.7884 92.7193 95.7106 92.6214 95.5786C92.5234 95.4466 92.4938 95.2759 92.5415 95.1186L93.5711 91.721Z" fill="#FEBF4A"/>
<path d="M88.8151 97.1731L93.5711 91.721L92.5415 95.1186C92.4938 95.2759 92.5234 95.4466 92.6214 95.5786C92.7193 95.7106 92.874 95.7884 93.0384 95.7884H95.8686L90.3118 102.086L91.4627 97.8278C91.5049 97.6717 91.472 97.505 91.3738 97.3766C91.2755 97.2483 91.1231 97.1731 90.9615 97.1731H88.8151Z" fill="#FEBF4A"/>
<rect x="1" y="1" width="182" height="122" rx="7" stroke="#676F7D" stroke-width="2"/>
<defs>
<clipPath id="clip0_6454_31451">
<rect width="45.8333" height="10" fill="white" transform="translate(8 8)"/>
</clipPath>
</defs>
</svg>
