<svg width="46" height="53" viewBox="0 0 46 53" fill="none" xmlns="http://www.w3.org/2000/svg">
<path d="M32.9174 0.26709C30.1061 0.46154 26.8202 2.26102 24.9054 4.60431C23.1586 6.73007 21.7217 9.88741 22.2819 12.9558C25.3536 13.0513 28.5274 11.209 30.3664 8.82617C32.0868 6.60813 33.3886 3.47057 32.9174 0.26709Z" fill="#A4A4A4"/>
<path d="M44.0274 17.9585C41.3282 14.5738 37.5348 12.6095 33.9523 12.6095C29.2229 12.6095 27.2224 14.8737 23.9365 14.8737C20.5484 14.8737 17.9745 12.6161 13.8844 12.6161C9.86689 12.6161 5.589 15.0714 2.87659 19.2702C-0.936599 25.1828 -0.284039 36.2994 5.89551 45.7681C8.10696 49.1562 11.06 52.9661 14.9226 52.999C18.3601 53.032 19.329 50.7941 23.9859 50.7711C28.6428 50.7447 29.5261 53.0287 32.957 52.9924C36.8229 52.9628 39.9374 48.7409 42.1488 45.3529C43.7341 42.9239 44.324 41.7012 45.5534 38.9591C36.612 35.5546 35.1783 22.8395 44.0274 17.9585Z" fill="#A4A4A4"/>
</svg>
