<svg width="70" height="48" viewBox="0 0 70 48" fill="none" xmlns="http://www.w3.org/2000/svg">
<g clip-path="url(#clip0)">
<path d="M69.7459 22.4191C69.2465 21.9193 62.8374 13.8395 61.7554 12.5068C60.5901 11.174 60.0907 11.4239 59.3416 11.5072C58.5925 11.5905 50.5187 13.0065 49.6031 13.0898C48.6876 13.2564 48.1049 13.5896 48.6876 14.4226C49.187 15.1723 54.514 22.669 55.6793 24.4182L34.4544 29.4993L17.6411 1.26171C16.9752 0.262145 16.8087 -0.0710415 15.3105 0.0122552C13.8123 0.095552 2.07619 1.09511 1.24384 1.09511C0.411496 1.17841 -0.504085 1.5116 0.328261 3.51072C1.16061 5.50984 14.4781 34.1639 14.8111 34.9969C15.144 35.8298 16.1428 37.1626 18.3902 36.6628C20.7207 36.0797 28.7113 33.9973 33.1227 32.8312C35.4533 36.996 40.1144 45.4923 41.03 46.7417C42.1953 48.4076 43.0276 48.0745 44.7755 47.5747C46.1905 47.1582 66.583 39.8281 67.4986 39.4116C68.4142 38.9951 68.9968 38.7452 68.3309 37.829C67.8315 37.1626 62.5045 29.9158 59.6745 26.1674C61.5889 25.6676 68.4974 23.8351 69.2465 23.5852C70.0788 23.3353 70.2453 22.9189 69.7459 22.4191ZM31.2083 30.3323C30.9586 30.4156 19.056 33.2476 18.4734 33.4142C17.8075 33.5808 17.8075 33.4975 17.8075 33.2477C17.6411 32.9978 3.65764 4.0105 3.40794 3.67731C3.24147 3.34412 3.24147 3.01094 3.40794 3.01094C3.57441 3.01094 14.6446 2.01138 14.9775 2.01138C15.3937 2.01138 15.3105 2.09467 15.477 2.34456C15.477 2.34456 31.0418 29.2494 31.2915 29.6659C31.6245 30.0824 31.458 30.249 31.2083 30.3323ZM64.6686 36.5795C64.8351 36.9127 65.0848 37.0793 64.4189 37.2459C63.8363 37.4958 44.3594 44.0762 43.9432 44.2428C43.527 44.4094 43.2773 44.4927 42.7779 43.743C42.2785 42.9934 35.9527 32.0815 35.9527 32.0815L56.6781 26.6672C57.1775 26.5006 57.344 26.4173 57.6769 26.9171C58.0098 27.5002 64.5021 36.3296 64.6686 36.5795ZM66.0004 21.9193C65.5009 22.0026 57.9266 23.9184 57.9266 23.9184L51.684 15.4221C51.5175 15.1723 51.3511 14.9224 51.7672 14.8391C52.1834 14.7558 59.2583 13.5063 59.5913 13.423C59.9242 13.3397 60.1739 13.2564 60.5901 13.8395C61.0063 14.3393 66.3333 21.1696 66.583 21.4195C66.8327 21.6694 66.4998 21.836 66.0004 21.9193Z" fill="#FB503B"/>
</g>
<defs>
<clipPath id="clip0">
<rect width="70" height="48" fill="white"/>
</clipPath>
</defs>
</svg>
