<svg width="69" height="42" viewBox="0 0 69 42" fill="none" xmlns="http://www.w3.org/2000/svg">
<g clip-path="url(#clip0)">
<path d="M34.1105 41.8789C33.877 41.8789 33.659 41.8171 33.4565 41.7088L31.3853 40.4876C31.0737 40.3175 31.2295 40.2557 31.323 40.2248C31.7434 40.0857 31.8213 40.0547 32.2573 39.8075C32.3041 39.7764 32.3665 39.792 32.4131 39.8229L34.0017 40.7659C34.0639 40.7968 34.1418 40.7968 34.1884 40.7659L40.4023 37.1948C40.4646 37.1639 40.4959 37.102 40.4959 37.0248V29.8982C40.4959 29.8207 40.4646 29.759 40.4023 29.728L34.1884 26.1725C34.1262 26.1414 34.0483 26.1414 34.0017 26.1725L27.7877 29.728C27.7255 29.7589 27.6942 29.8362 27.6942 29.898V37.0246C27.6942 37.0866 27.7255 37.1638 27.7877 37.1948L29.4853 38.1687C30.4042 38.6324 30.9803 38.0914 30.9803 37.5503V30.5164C30.9803 30.4237 31.0582 30.3309 31.1672 30.3309H31.9614C32.055 30.3309 32.1483 30.4082 32.1483 30.5164V37.5503C32.1483 38.7715 31.4786 39.4827 30.3106 39.4827C29.9525 39.4827 29.6722 39.4827 28.8779 39.0962L27.2427 38.1687C26.8378 37.9369 26.5886 37.5039 26.5886 37.0402V29.9135C26.5886 29.4498 26.8378 29.0168 27.2427 28.785L33.4565 25.214C33.8459 24.9975 34.3755 24.9975 34.7647 25.214L40.9785 28.785C41.3834 29.0168 41.6327 29.4498 41.6327 29.9135V37.0402C41.6327 37.5039 41.3834 37.9369 40.9785 38.1687L34.7647 41.7397C34.5622 41.8326 34.3287 41.8789 34.1107 41.8789H34.1105ZM36.0261 36.9784C33.3008 36.9784 32.7402 35.7416 32.7402 34.6904C32.7402 34.5976 32.818 34.5049 32.927 34.5049H33.7369C33.8303 34.5049 33.9082 34.5667 33.9082 34.6595C34.0328 35.4788 34.391 35.8807 36.0418 35.8807C37.3499 35.8807 37.9107 35.587 37.9107 34.8913C37.9107 34.4894 37.7548 34.1958 35.7147 33.9948C34.0172 33.8246 32.9582 33.4537 32.9582 32.1088C32.9582 30.8565 34.0173 30.1144 35.7926 30.1144C37.7859 30.1144 38.7672 30.7947 38.8918 32.2786C38.8918 32.3252 38.8762 32.3715 38.8451 32.4179C38.8138 32.4488 38.7672 32.4797 38.7204 32.4797H37.9106C37.8327 32.4797 37.7548 32.4179 37.7393 32.3406C37.5524 31.4904 37.0696 31.2121 35.7926 31.2121C34.3598 31.2121 34.1884 31.7068 34.1884 32.0777C34.1884 32.5261 34.391 32.6652 36.322 32.9125C38.2376 33.16 39.141 33.5155 39.141 34.8449C39.1253 36.2054 38.0041 36.9784 36.0261 36.9784Z" fill="#539E43"/>
<path d="M14.8301 14.0061C14.8301 13.7279 14.6743 13.4649 14.4251 13.3258L7.82196 9.55383C7.71281 9.4919 7.58831 9.461 7.4638 9.44548H7.40141C7.27691 9.44548 7.15226 9.4919 7.04325 9.55383L0.440073 13.3258C0.19079 13.4649 0.0351562 13.7277 0.0351562 14.0061L0.050787 24.1472C0.050787 24.2863 0.128671 24.4254 0.253178 24.4874C0.37782 24.5647 0.533453 24.5647 0.642599 24.4874L4.56713 22.2612C4.81628 22.1221 4.97204 21.8593 4.97204 21.5811V16.8351C4.97204 16.5569 5.12768 16.294 5.37696 16.1549L7.04325 15.1964C7.16789 15.1191 7.30803 15.0881 7.44817 15.0881C7.58831 15.0881 7.72844 15.1191 7.83759 15.1964L9.50388 16.1549C9.75316 16.294 9.9088 16.5567 9.9088 16.8351V21.5811C9.9088 21.8593 10.0646 22.1221 10.3137 22.2612L14.2382 24.4874C14.3629 24.5647 14.5185 24.5647 14.6432 24.4874C14.7678 24.4254 14.8457 24.2863 14.8457 24.1472L14.8301 14.0061ZM46.569 0.0464474C46.4444 -0.0154825 46.2887 -0.0154825 46.1795 0.0464474C46.055 0.12376 45.9771 0.247352 45.9771 0.38646V10.435C45.9771 10.5277 45.9305 10.6204 45.837 10.6823C45.7436 10.7286 45.6501 10.7286 45.5567 10.6823L43.9059 9.73935C43.7849 9.67095 43.648 9.63498 43.5088 9.63498C43.3695 9.63498 43.2326 9.67095 43.1116 9.73935L36.5084 13.5268C36.2593 13.6659 36.1035 13.9288 36.1035 14.207V21.7665C36.1035 22.0447 36.2593 22.3076 36.5084 22.4468L43.1116 26.2342C43.2326 26.3026 43.3695 26.3386 43.5088 26.3386C43.648 26.3386 43.7849 26.3026 43.9059 26.2342L50.5091 22.4468C50.7583 22.3076 50.914 22.0448 50.914 21.7665V2.92184C50.914 2.62811 50.7583 2.36541 50.5091 2.22617L46.5691 0.0464474H46.569ZM45.9616 19.2776C45.9616 19.3549 45.9305 19.4167 45.8681 19.4476L43.61 20.7462C43.5785 20.7614 43.5439 20.7694 43.5088 20.7694C43.4737 20.7694 43.439 20.7614 43.4075 20.7462L41.1494 19.4476C41.087 19.4167 41.0559 19.3394 41.0559 19.2776V16.6805C41.0559 16.6031 41.087 16.5413 41.1494 16.5104L43.4075 15.2118C43.439 15.1965 43.4737 15.1886 43.5088 15.1886C43.5439 15.1886 43.5785 15.1965 43.61 15.2118L45.8681 16.5104C45.9305 16.5412 45.9616 16.6187 45.9616 16.6805V19.2776ZM68.5432 16.6187C68.7925 16.4795 68.9326 16.2167 68.9326 15.9384V14.0988C68.9326 13.8206 68.7769 13.5577 68.5432 13.4186L61.9868 9.64666C61.8658 9.57828 61.7289 9.54232 61.5897 9.54232C61.4504 9.54232 61.3136 9.57828 61.1926 9.64666L54.5894 13.434C54.3401 13.5731 54.1845 13.836 54.1845 14.1143V21.6738C54.1845 21.952 54.3401 22.2148 54.5894 22.3539L61.1458 26.0641C61.3951 26.2032 61.6909 26.2032 61.9245 26.0641L65.8957 23.8691C66.0203 23.8072 66.0982 23.6681 66.0982 23.529C66.0982 23.3899 66.0203 23.2508 65.8957 23.1888L59.2614 19.4014C59.1369 19.3242 59.059 19.2004 59.059 19.0613V16.6961C59.059 16.557 59.1369 16.4179 59.2614 16.356L61.3327 15.181C61.3934 15.1431 61.4635 15.1231 61.5352 15.1231C61.6068 15.1231 61.677 15.1431 61.7376 15.181L63.8088 16.356C63.9335 16.4333 64.0114 16.5569 64.0114 16.6961V18.5512C64.0114 18.6903 64.0893 18.8294 64.2138 18.8912C64.3384 18.9685 64.494 18.9685 64.6187 18.8912L68.5432 16.6187Z" fill="#333333"/>
<path d="M61.4891 16.263C61.5122 16.2479 61.5392 16.2399 61.5669 16.2399C61.5946 16.2399 61.6216 16.2479 61.6447 16.263L62.9063 16.9896C62.953 17.0204 62.9842 17.0668 62.9842 17.1287V18.5819C62.9842 18.6436 62.953 18.6901 62.9063 18.721L61.6447 19.4475C61.6216 19.4626 61.5946 19.4707 61.5669 19.4707C61.5392 19.4707 61.5122 19.4626 61.4891 19.4475L60.2275 18.721C60.1808 18.6901 60.1497 18.6436 60.1497 18.5819V17.1287C60.1497 17.0668 60.1808 17.0204 60.2275 16.9896L61.4891 16.263Z" fill="#539E43"/>
<mask id="mask0" mask-type="alpha" maskUnits="userSpaceOnUse" x="18" y="9" width="15" height="18">
<path d="M25.8724 9.67758C25.7514 9.6092 25.6145 9.57324 25.4753 9.57324C25.336 9.57324 25.1992 9.6092 25.0782 9.67758L18.5217 13.4339C18.2725 13.573 18.1323 13.8359 18.1323 14.1141V21.6428C18.1323 21.921 18.2881 22.1839 18.5217 22.323L25.0782 26.0796C25.1992 26.1479 25.336 26.1839 25.4753 26.1839C25.6145 26.1839 25.7514 26.1479 25.8724 26.0796L32.4289 22.323C32.6781 22.1839 32.8184 21.921 32.8184 21.6428V14.1142C32.8184 13.836 32.6624 13.5732 32.4289 13.434L25.8724 9.67758Z" fill="white"/>
</mask>
<g mask="url(#mask0)">
<path d="M25.8724 9.67758C25.7514 9.6092 25.6145 9.57324 25.4753 9.57324C25.336 9.57324 25.1992 9.6092 25.0782 9.67758L18.5217 13.4339C18.2725 13.573 18.1323 13.8359 18.1323 14.1141V21.6428C18.1323 21.921 18.2881 22.1839 18.5217 22.323L25.0782 26.0796C25.1992 26.1479 25.336 26.1839 25.4753 26.1839C25.6145 26.1839 25.7514 26.1479 25.8724 26.0796L32.4289 22.323C32.6781 22.1839 32.8184 21.921 32.8184 21.6428V14.1142C32.8184 13.836 32.6624 13.5732 32.4289 13.434L25.8724 9.67758Z" fill="url(#paint0_linear)"/>
<path d="M32.444 13.434L25.8564 9.67753C25.7917 9.64509 25.7238 9.61918 25.6539 9.60022L18.272 22.1532C18.3331 22.2273 18.407 22.2901 18.4901 22.3387L25.0777 26.0953C25.2646 26.2035 25.4826 26.2344 25.685 26.1725L32.6154 13.5888C32.5686 13.527 32.5063 13.4804 32.444 13.4341V13.434Z" fill="url(#paint1_linear)"/>
<path fill-rule="evenodd" clip-rule="evenodd" d="M32.4593 22.3231C32.6461 22.2148 32.7863 22.0293 32.8487 21.8284L25.6223 9.58475C25.4354 9.55385 25.2328 9.56923 25.0617 9.67744L18.5208 13.4187L25.5755 26.1879C25.6781 26.1712 25.7778 26.14 25.8714 26.0952L32.4591 22.3232L32.4593 22.3231Z" fill="url(#paint2_linear)"/>
<path fill-rule="evenodd" clip-rule="evenodd" d="M32.4595 22.323L25.8875 26.0796C25.7947 26.1266 25.6947 26.1579 25.5916 26.1723L25.7162 26.4042L33.0046 22.2149V22.1221L32.8177 21.8129C32.7866 22.0293 32.6464 22.2148 32.4595 22.323Z" fill="url(#paint3_linear)"/>
<path fill-rule="evenodd" clip-rule="evenodd" d="M32.4595 22.323L25.8875 26.0796C25.7947 26.1266 25.6947 26.1579 25.5916 26.1723L25.7162 26.4042L33.0046 22.2149V22.1221L32.8177 21.8129C32.7866 22.0293 32.6464 22.2148 32.4595 22.323Z" fill="url(#paint4_linear)"/>
</g>
</g>
<defs>
<linearGradient id="paint0_linear" x1="28.1464" y1="12.4779" x2="21.0351" y2="23.7346" gradientUnits="userSpaceOnUse">
<stop stop-color="#41873F"/>
<stop offset="0.3288" stop-color="#418B3D"/>
<stop offset="0.6352" stop-color="#419637"/>
<stop offset="0.9319" stop-color="#3FA92D"/>
<stop offset="1" stop-color="#3FAE2A"/>
</linearGradient>
<linearGradient id="paint1_linear" x1="24.4794" y1="18.7604" x2="42.4169" y2="8.94274" gradientUnits="userSpaceOnUse">
<stop offset="0.1376" stop-color="#41873F"/>
<stop offset="0.4032" stop-color="#54A044"/>
<stop offset="0.7136" stop-color="#66B848"/>
<stop offset="0.9081" stop-color="#6CC04A"/>
</linearGradient>
<linearGradient id="paint2_linear" x1="17.8919" y1="17.8788" x2="33.0635" y2="17.8788" gradientUnits="userSpaceOnUse">
<stop offset="0.09192" stop-color="#6CC04A"/>
<stop offset="0.2864" stop-color="#66B848"/>
<stop offset="0.5968" stop-color="#54A044"/>
<stop offset="0.8624" stop-color="#41873F"/>
</linearGradient>
<linearGradient id="paint3_linear" x1="17.8923" y1="24.1212" x2="33.0637" y2="24.1212" gradientUnits="userSpaceOnUse">
<stop offset="0.09192" stop-color="#6CC04A"/>
<stop offset="0.2864" stop-color="#66B848"/>
<stop offset="0.5968" stop-color="#54A044"/>
<stop offset="0.8624" stop-color="#41873F"/>
</linearGradient>
<linearGradient id="paint4_linear" x1="35.274" y1="12.1219" x2="31.4848" y2="32.124" gradientUnits="userSpaceOnUse">
<stop stop-color="#41873F"/>
<stop offset="0.3288" stop-color="#418B3D"/>
<stop offset="0.6352" stop-color="#419637"/>
<stop offset="0.9319" stop-color="#3FA92D"/>
<stop offset="1" stop-color="#3FAE2A"/>
</linearGradient>
<clipPath id="clip0">
<rect width="69" height="42" fill="white"/>
</clipPath>
</defs>
</svg>
