<svg width="57" height="51" viewBox="0 0 57 51" fill="none" xmlns="http://www.w3.org/2000/svg">
<path d="M45.8526 12.9502C45.7167 13.8612 45.5371 14.7994 45.315 15.7588C45.1188 16.6012 44.8909 17.4603 44.6321 18.3323C43.9515 20.6222 43.0548 23.0018 41.9677 25.4075C41.4916 26.4591 40.9787 27.5154 40.4317 28.5706C39.9496 29.5004 39.4415 30.4315 38.9062 31.3567C38.3721 32.2831 37.8215 33.1882 37.2556 34.0708C36.6163 35.0715 35.9582 36.0428 35.2847 36.981C33.7463 39.1256 32.1335 41.0928 30.4899 42.8275C29.8649 43.488 29.235 44.1142 28.6029 44.7038C27.8834 45.3773 27.1602 46.0023 26.4382 46.5754C21.7249 50.3175 17.5056 51.4411 14.5552 49.7385C11.6048 48.0347 10.4681 43.8189 11.352 37.8648C11.4867 36.9539 11.6675 36.0156 11.8908 35.0563C12.0846 34.2138 12.3126 33.3548 12.5726 32.4828C13.2532 30.1929 14.1499 27.812 15.2382 25.4076C15.7133 24.3559 16.226 23.3009 16.773 22.2458C17.2551 21.3147 17.7644 20.3848 18.2985 19.4584C18.8326 18.5321 19.3832 17.627 19.9491 16.7444C20.5895 15.7424 21.2476 14.7712 21.92 13.833C23.4584 11.6885 25.0712 9.72236 26.7148 7.98782C27.3399 7.32732 27.9708 6.69995 28.6029 6.11036C29.3224 5.43685 30.0456 4.81299 30.7664 4.2399C32.4998 2.86337 34.1658 1.84135 35.7266 1.18549C41.3189 -0.42905 44.0998 0.47559 45.8231 5.97794C46.2389 7.89431 46.2543 10.2421 45.8526 12.9502ZM43.1987 6.40787C42.8549 4.92143 42.2227 3.90292 41.3189 3.38184C40.4162 2.85964 39.2181 2.82176 37.7588 3.26605C36.1778 3.74936 34.3322 4.80564 32.4205 6.32396C31.7778 6.83441 31.1338 7.38974 30.4898 7.98647C29.8588 8.57256 29.2278 9.1988 28.6017 9.86168C27.5264 10.9995 26.463 12.245 25.4256 13.5812C24.7332 14.4733 24.0514 15.4055 23.3862 16.3733C22.4208 17.7758 21.4886 19.2528 20.6024 20.7888C19.715 22.3249 18.9021 23.8704 18.1707 25.4076C17.665 26.4675 17.1982 27.5238 16.7729 28.5694C16.1337 30.1362 15.5866 31.6805 15.1388 33.1799C14.8788 34.0543 14.6509 34.9121 14.4606 35.7522C14.2644 36.6076 14.1049 37.4442 13.9844 38.2559C13.6252 40.6698 13.6335 42.7966 14.0056 44.4071C14.3495 45.8935 14.9828 46.912 15.8855 47.4331C16.3734 47.7143 16.9465 47.8562 17.5999 47.8562C18.1576 47.8562 18.7743 47.7534 19.4455 47.5478C21.0264 47.0657 22.872 46.0082 24.7837 44.491C25.4265 43.9806 26.0716 43.4252 26.7145 42.8261C27.3466 42.2413 27.9765 41.615 28.6014 40.9533C29.6779 39.8155 30.7413 38.57 31.7799 37.2325C32.4723 36.3404 33.1541 35.4082 33.8193 34.4404C34.7834 33.0379 35.7158 31.561 36.6019 30.0261C37.4892 28.49 38.3021 26.9446 39.0335 25.4074C39.5392 24.3463 40.006 23.2899 40.4313 22.2443C41.0706 20.6776 41.6176 19.1344 42.0654 17.635C42.3254 16.7607 42.5534 15.9029 42.7448 15.0628C42.9398 14.2073 43.0993 13.3708 43.2199 12.5591C43.5792 10.1452 43.571 8.01836 43.1987 6.40787Z" fill="#5AD7FF"/>
<path d="M48.0155 34.1168C47.1588 34.4547 46.2561 34.7678 45.3133 35.0562C44.4862 35.3079 43.6284 35.5406 42.7433 35.7521C40.4203 36.3074 37.9107 36.7209 35.2841 36.9809C34.1367 37.0956 32.9658 37.1794 31.7795 37.2326C30.7326 37.281 29.6716 37.3059 28.6023 37.3059C27.533 37.3059 26.4718 37.2811 25.4238 37.2326C24.2364 37.1795 23.0654 37.0943 21.9181 36.9809C19.2915 36.7209 16.783 36.3074 14.46 35.7521C13.5751 35.5406 12.7172 35.3078 11.89 35.0562C10.9472 34.7691 10.0445 34.4547 9.18777 34.1168C3.59076 31.9074 0.506836 28.8139 0.506836 25.4075C0.506836 22.0011 3.59076 18.9077 9.18788 16.6969C10.0446 16.3591 10.9461 16.0459 11.8889 15.7576C12.716 15.5059 13.5738 15.2732 14.4589 15.0628C16.7819 14.5064 19.2915 14.094 21.9193 13.8328C23.0667 13.7194 24.2376 13.6355 25.4251 13.5811C26.472 13.5327 27.533 13.5091 28.6023 13.5091C29.6716 13.5091 30.7315 13.5327 31.7784 13.5811C32.9658 13.6355 34.1356 13.7194 35.2841 13.8328C37.9107 14.0928 40.4215 14.5064 42.7445 15.0628C43.6295 15.2743 44.4873 15.5059 45.3145 15.7587C46.2562 16.0458 47.1589 16.3589 48.0155 16.6969C53.6138 18.9077 56.6966 22.001 56.6966 25.4075C56.6965 28.8139 53.6138 31.9074 48.0155 34.1168ZM52.3542 22.2669C51.1466 21.1385 49.3081 20.0692 47.0383 19.1724C46.2739 18.8711 45.4703 18.5899 44.6314 18.3323C43.8078 18.0782 42.9512 17.8455 42.065 17.6352C40.5419 17.2724 38.9315 16.9747 37.2548 16.7442C36.137 16.5894 34.9897 16.4654 33.8188 16.3743C32.1209 16.2384 30.3757 16.1699 28.6022 16.1699C26.8286 16.1699 25.0834 16.2384 23.3855 16.3731C22.2146 16.4652 21.0662 16.5893 19.9484 16.7441C18.2717 16.9746 16.6612 17.2723 15.1382 17.6351C14.252 17.8454 13.3954 18.0781 12.5718 18.3322C11.7329 18.5898 10.9294 18.871 10.1649 19.1723C7.89515 20.0691 6.05658 21.1384 4.849 22.2668C3.73358 23.3078 3.16761 24.3641 3.16761 25.4074C3.16761 26.4507 3.73358 27.5071 4.849 28.548C6.05658 29.6764 7.89504 30.7457 10.1649 31.6425C10.9293 31.9438 11.7329 32.225 12.5718 32.4826C13.3954 32.7367 14.252 32.9694 15.1382 33.1797C16.6612 33.5425 18.2717 33.8402 19.9484 34.0707C21.0662 34.2255 22.2146 34.3495 23.3855 34.4417C25.0834 34.5764 26.8286 34.6449 28.6022 34.6449C30.3757 34.6449 32.1209 34.5764 33.8188 34.4405C34.9897 34.3494 36.137 34.2254 37.2548 34.0706C38.9315 33.8401 40.5419 33.5424 42.065 33.1796C42.9512 32.9693 43.8078 32.7366 44.6314 32.4825C45.4703 32.2249 46.2738 31.9436 47.0383 31.6424C49.308 30.7456 51.1466 29.6763 52.3542 28.5479C53.4696 27.5068 54.0356 26.4506 54.0356 25.4073C54.0356 24.3641 53.4696 23.3078 52.3542 22.2669Z" fill="#5AD7FF"/>
<path d="M42.6492 49.7385C39.6988 51.4411 35.4795 50.3175 30.7662 46.5754C30.0454 46.0023 29.3223 45.3773 28.6027 44.7038C27.9706 44.1142 27.3396 43.4868 26.7146 42.8263C25.071 41.0918 23.4583 39.1257 21.9187 36.9811C21.2464 36.043 20.5882 35.0717 19.9491 34.0709C19.3831 33.1883 18.8325 32.2832 18.2984 31.3569C17.7644 30.4305 17.2552 29.5006 16.773 28.5695C16.2259 27.5144 15.7131 26.4581 15.2381 25.4077C14.1499 23.002 13.2531 20.6224 12.5725 18.3325C12.3125 17.4593 12.0846 16.6003 11.8895 15.7579C11.6674 14.7984 11.4866 13.8614 11.3519 12.9505C10.9501 10.2434 10.9655 7.89567 11.3814 5.97919C11.8895 1.6064 15.8856 -0.598667 21.478 1.18549C23.0389 1.84124 24.7049 2.86338 26.4383 4.2399C27.1602 4.81299 27.8833 5.43798 28.603 6.11036C29.2351 6.69995 29.8649 7.32619 30.4899 7.9867C32.1323 9.72123 33.7463 11.6886 35.2848 13.8332C35.957 14.7714 36.6153 15.7426 37.2556 16.7445C37.8216 17.6271 38.3722 18.5322 38.9063 19.4586C39.4415 20.3838 39.9495 21.3136 40.4317 22.2447C40.9788 23.2999 41.4916 24.3562 41.9678 25.4078C43.0548 27.8124 43.9517 30.1931 44.6322 32.483C44.8909 33.355 45.119 34.2141 45.314 35.0565C45.5373 36.016 45.7169 36.9541 45.8528 37.8651C46.7363 43.8189 45.5997 48.0347 42.6492 49.7385ZM42.0656 33.1799C41.6178 31.6805 41.0707 30.1374 40.4315 28.5707C40.0061 27.525 39.5394 26.4686 39.0337 25.4076C38.3023 23.8704 37.4894 22.3249 36.602 20.7888C35.7158 19.254 34.7836 17.7771 33.8195 16.3745C33.1531 15.4057 32.4713 14.4734 31.7789 13.5813C30.7415 12.245 29.6781 10.9996 28.6017 9.86179C27.9767 9.20016 27.3469 8.57392 26.7148 7.98783C26.072 7.38997 25.4269 6.83464 24.784 6.32419C22.8723 4.80587 21.0266 3.74958 19.4457 3.26628C17.9866 2.82199 16.7884 2.85987 15.8856 3.38207C14.9829 3.90315 14.3496 4.92166 14.0058 6.4081C13.6337 8.01859 13.6253 10.1454 13.9845 12.5593C14.1051 13.371 14.2645 14.2076 14.4595 15.063C14.6509 15.9031 14.8789 16.7609 15.1389 17.6353C15.5867 19.1347 16.1337 20.679 16.773 22.2458C17.1984 23.2914 17.6651 24.3478 18.1708 25.4076C18.9022 26.9448 19.7151 28.4903 20.6024 30.0264C21.4886 31.5624 22.4209 33.0394 23.3862 34.4419C24.0515 35.4096 24.732 36.3419 25.4244 37.2327C26.463 38.5702 27.5264 39.8156 28.6016 40.9535C29.2279 41.6164 29.8588 42.2426 30.4897 42.8275C31.1337 43.4253 31.7776 43.9807 32.4204 44.4911C34.3322 46.0082 36.1779 47.0657 37.7587 47.5479C38.4299 47.7535 39.0466 47.8563 39.6043 47.8563C40.2577 47.8563 40.8319 47.7145 41.3187 47.4332C42.2226 46.9122 42.8548 45.8936 43.1986 44.4072C43.5707 42.7967 43.5791 40.6699 43.2198 38.256C43.0993 37.4443 42.9398 36.6077 42.7436 35.7523C42.5536 34.9122 42.3255 34.0544 42.0656 33.1799Z" fill="#5AD7FF"/>
<path d="M28.6022 20.1275C31.5184 20.1275 33.8826 22.4916 33.8826 25.4078C33.8826 28.3241 31.5184 30.6882 28.6022 30.6882C25.6859 30.6882 23.3218 28.3241 23.3218 25.4078C23.3218 22.4916 25.6859 20.1275 28.6022 20.1275Z" fill="#5AD7FF"/>
</svg>
