<svg width="71" height="27" viewBox="0 0 71 27" fill="none" xmlns="http://www.w3.org/2000/svg">
<path d="M23.2849 9.85535C21.9053 9.85535 20.3652 10.3873 20.0424 12.1385C20.008 12.3245 20.1311 12.4133 20.2499 12.4404L21.664 12.6101C21.7949 12.6035 21.8836 12.461 21.9089 12.3269C22.0296 11.7243 22.5248 11.4399 23.078 11.4399C23.3766 11.4399 23.7121 11.5425 23.8888 11.8173C24.0915 12.1234 24.077 12.5395 24.077 12.8927V13.1005C23.2367 13.1971 22.1303 13.2557 21.3437 13.6101C20.4357 14.0141 19.7981 14.8359 19.7981 16.0443C19.7981 17.5925 20.7458 18.3655 21.9662 18.3655C22.9966 18.3655 23.5661 18.1233 24.3606 17.29C24.6242 17.6825 24.7086 17.8606 25.19 18.2713C25.2433 18.3017 25.3047 18.3144 25.3656 18.3077C25.4265 18.301 25.4838 18.2751 25.5291 18.2338V18.2525C25.8186 17.9881 26.3453 17.5074 26.6415 17.2526C26.7597 17.1535 26.7338 16.9905 26.6415 16.8564C26.3767 16.4808 26.0949 16.1777 26.0949 15.479V13.1578C26.0949 12.1748 26.1782 11.2684 25.473 10.5914C24.9162 10.0437 23.9896 9.85535 23.2849 9.85535ZM42.2877 9.85535C40.9074 9.85535 39.3685 10.3873 39.0452 12.1385C39.0108 12.3245 39.1332 12.4133 39.2527 12.4404L40.6667 12.6101C40.7976 12.6035 40.8869 12.461 40.9116 12.3269C41.0329 11.7243 41.5276 11.4399 42.0808 11.4399C42.38 11.4399 42.7148 11.5425 42.8916 11.8173C43.0936 12.1234 43.0611 12.5395 43.0611 12.8927V13.1005C42.2207 13.1971 41.1336 13.2557 40.3464 13.6101C39.4379 14.0141 38.8008 14.8359 38.8008 16.0443C38.8008 17.5925 39.7492 18.3655 40.969 18.3655C41.9981 18.3655 42.5676 18.1233 43.3633 17.29C43.6263 17.6825 43.7114 17.8606 44.1928 18.2713C44.3014 18.3292 44.4359 18.3232 44.5318 18.2338V18.2525C44.8214 17.9881 45.348 17.5074 45.6442 17.2526C45.7619 17.1535 45.7347 16.9905 45.6442 16.8564C45.3794 16.4808 45.0977 16.1777 45.0977 15.479V13.1578C45.0977 12.1748 45.161 11.2684 44.457 10.5914C43.8996 10.0437 42.9923 9.85535 42.2877 9.85535ZM31.5985 9.93083C30.7069 9.93083 30.0457 10.3813 29.6946 11.3463H29.6759V10.3463C29.6711 10.2777 29.6417 10.2132 29.5932 10.1646C29.5446 10.116 29.4802 10.0866 29.4117 10.0818H28.0543C27.9796 10.0829 27.9083 10.1131 27.8555 10.1659C27.8027 10.2188 27.7725 10.2902 27.7714 10.365V18.0074C27.7778 18.0754 27.8077 18.1389 27.856 18.1872C27.9042 18.2355 27.9677 18.2654 28.0356 18.2719H29.4871C29.5619 18.2711 29.6334 18.241 29.6863 18.1881C29.7392 18.1351 29.7692 18.0635 29.77 17.9887V13.9314C29.77 13.0467 29.7272 11.8366 30.769 11.8366C31.7976 11.8366 31.6552 13.0799 31.6552 13.9314V17.9887C31.6552 18.133 31.7728 18.2622 31.9194 18.2719H33.3709C33.4457 18.2711 33.5172 18.241 33.5701 18.1881C33.623 18.1351 33.653 18.0635 33.6538 17.9887V13.9314C33.6538 13.4972 33.6363 12.865 33.7859 12.4785C33.9349 12.092 34.3011 11.8372 34.6534 11.8372C35.0733 11.8372 35.3936 11.9839 35.5016 12.4978C35.5692 12.8034 35.539 13.6107 35.539 13.932V17.9893C35.539 18.1336 35.6566 18.2628 35.8032 18.2725H37.2547C37.3295 18.2717 37.401 18.2416 37.4539 18.1887C37.5068 18.1357 37.5368 18.0641 37.5376 17.9893V13.1584C37.5376 12.3378 37.6203 11.406 37.1606 10.7617C36.7546 10.1832 36.091 9.93143 35.4829 9.93143C34.6299 9.93143 33.8366 10.3819 33.4849 11.3469C33.0783 10.3819 32.5052 9.93083 31.5985 9.93083ZM56.2761 9.93083C54.1786 9.93083 53.0149 11.7768 53.0149 14.1578C53.0149 16.5225 54.1659 18.4222 56.2761 18.4222C58.3061 18.4222 59.5941 16.566 59.5941 14.2327C59.5941 11.8215 58.4273 9.93083 56.2761 9.93083ZM64.5517 9.93083C63.5496 9.93083 62.9771 10.4326 62.5724 11.4779H62.5537V10.3076C62.5277 10.1893 62.4161 10.1072 62.2894 10.0999H60.9508C60.8816 10.0984 60.8144 10.1226 60.7621 10.1679C60.7098 10.2132 60.6762 10.2764 60.6679 10.3451V17.9875C60.6692 18.059 60.697 18.1275 60.7457 18.1798C60.7945 18.232 60.8609 18.2644 60.9321 18.2707H62.3648C62.4395 18.2696 62.5109 18.2394 62.5637 18.1865C62.6165 18.1336 62.6467 18.0622 62.6478 17.9875V13.874C62.6478 13.3583 62.6912 12.8879 62.8927 12.4211C63.0556 12.051 63.3699 11.8173 63.7222 11.8173C64.7224 11.8173 64.6271 13.0377 64.6271 13.874V18.0255C64.6363 18.0905 64.6677 18.1503 64.7158 18.195C64.7639 18.2396 64.8258 18.2663 64.8913 18.2707H66.3427C66.4851 18.2707 66.6088 18.162 66.6257 18.0255V13.2134C66.6257 12.4737 66.6275 11.4459 66.2486 10.8354C65.8426 10.1766 65.2002 9.93083 64.5517 9.93083ZM47.1325 10.0631C46.9853 10.0631 46.8689 10.1802 46.8683 10.3463V11.4405C46.8689 11.6041 46.9817 11.7225 47.1325 11.7237H49.6209L46.7741 15.9319C46.6004 16.2031 46.5859 16.5104 46.5859 16.6868V17.8003C46.5859 17.9609 46.7603 18.1354 46.925 18.0454C48.5471 17.159 50.4914 17.2375 51.9586 18.0267C52.1365 18.1239 52.3169 17.9416 52.3169 17.7815V16.6113C52.3128 16.525 52.2862 16.4413 52.2399 16.3684C52.1936 16.2956 52.129 16.2361 52.0527 16.1958C51.2202 15.7164 50.2538 15.5696 49.338 15.592L51.8078 11.9688C52.0364 11.6434 52.1643 11.4471 52.1661 11.2895V10.3463C52.1661 10.1838 52.0551 10.0631 51.9019 10.0631H47.1325ZM56.2761 11.4972C56.7358 11.4972 57.0748 11.7025 57.2377 12.2333C57.4259 12.845 57.4452 13.6089 57.4452 14.2526C57.4452 15.2333 57.3994 16.8564 56.2761 16.8564C55.1402 16.8564 55.145 14.8468 55.145 13.9126C55.145 12.9809 55.2071 11.4972 56.2761 11.4972ZM24.0577 14.2901V14.6107C24.0577 15.191 24.0788 15.6795 23.7935 16.1958C23.5631 16.6155 23.2011 16.8752 22.7945 16.8752C22.2395 16.8752 21.9083 16.4247 21.9083 15.781C21.9089 14.5117 23.0105 14.2901 24.0577 14.2901ZM43.0605 14.2901V14.6107C43.0605 15.191 43.0816 15.6795 42.7962 16.1958C42.5658 16.6155 42.2056 16.8752 41.7972 16.8752C41.2416 16.8752 40.911 16.4247 40.911 15.781C40.9116 14.5117 42.012 14.2901 43.0605 14.2901Z" fill="#201C1D"/>
<path d="M52.4677 18.5171V19.6113H53.2031V18.5171H52.4677ZM31.146 18.7055V26.4988H31.8247V25.8008C31.9695 26.0773 32.1342 26.2845 32.3338 26.4233C32.5329 26.5622 32.7616 26.6311 33.0125 26.6311C33.5108 26.6311 33.9409 26.3762 34.3131 25.8575C34.6854 25.3388 34.879 24.587 34.879 23.6305C34.879 23.0043 34.7988 22.4856 34.6341 22.0454C34.4694 21.6064 34.2492 21.2797 33.9741 21.0641C33.699 20.8486 33.3865 20.7248 33.0505 20.7248C32.8169 20.7223 32.5877 20.7878 32.3905 20.9132C32.1945 21.0388 32.0358 21.2435 31.8814 21.4983V18.7055H31.146ZM38.1215 20.5364C37.61 20.5364 37.204 20.6879 36.915 20.9893C36.626 21.29 36.4813 21.6783 36.4813 22.1595C36.4813 22.4391 36.544 22.6752 36.6508 22.8956C36.7576 23.116 36.9114 23.293 37.1032 23.424C37.2963 23.555 37.6812 23.7271 38.253 23.9143C38.6488 24.0417 38.8853 24.1504 38.9884 24.235C39.138 24.3588 39.2146 24.5212 39.2146 24.7446C39.2146 25.0031 39.1254 25.2187 38.9504 25.3859C38.7761 25.5544 38.5336 25.6311 38.215 25.6311C37.8965 25.6311 37.6341 25.5417 37.4423 25.3479C37.2504 25.154 37.1467 24.8594 37.1032 24.4608L36.3679 24.6118C36.5337 25.8225 37.137 26.424 38.1776 26.4233C38.7326 26.4233 39.1573 26.2657 39.4783 25.933C39.7992 25.6003 39.9681 25.151 39.9681 24.6118C39.9681 24.3207 39.9168 24.0683 39.8173 23.857C39.7178 23.6456 39.5808 23.4892 39.4023 23.3666C39.2231 23.2447 38.8237 23.0816 38.2144 22.8763C37.7716 22.7211 37.5122 22.6076 37.423 22.5369C37.2727 22.4174 37.1967 22.2543 37.1967 22.0466C37.1967 21.8341 37.2667 21.6541 37.423 21.5182C37.5792 21.3824 37.8199 21.3105 38.1396 21.3105C38.7019 21.3105 39.0162 21.6197 39.0819 22.235L39.7986 22.1215C39.7491 21.732 39.6641 21.4246 39.5344 21.2157C39.4047 21.0068 39.2128 20.8305 38.9685 20.7061C38.7248 20.5823 38.4443 20.5364 38.1215 20.5364ZM42.6273 20.5364C42.0379 20.5364 41.5408 20.7791 41.1565 21.2912C40.7723 21.8033 40.5907 22.5448 40.5907 23.5182C40.5907 24.456 40.7759 25.1909 41.1565 25.6885C41.5372 26.1854 42.0307 26.4246 42.646 26.4246C43.1352 26.4246 43.5406 26.2778 43.8712 25.9717C44.2024 25.6655 44.4425 25.215 44.5686 24.613L43.8145 24.4808C43.5979 25.2519 43.1986 25.6305 42.6454 25.6317C42.2931 25.6317 42.0053 25.4819 41.7592 25.1601C41.5131 24.8376 41.3737 24.3594 41.3442 23.7259H44.5867V23.4614C44.5867 22.5092 44.3973 21.7942 44.0208 21.2912C43.6456 20.7882 43.1889 20.5364 42.6273 20.5364ZM47.0951 20.5364C46.9189 20.5364 46.7651 20.5962 46.6239 20.7248C46.4827 20.8534 46.3223 21.1203 46.1528 21.517V20.6487H45.4928V26.2911H46.2282V23.3479C46.2282 22.9373 46.2668 22.5424 46.3603 22.1777C46.4134 21.9687 46.5135 21.8039 46.6432 21.6873C46.7729 21.5708 46.9207 21.5176 47.077 21.5176C47.2501 21.5176 47.422 21.5871 47.6048 21.7254L47.8497 20.8383C47.5927 20.633 47.3412 20.5364 47.0951 20.5364ZM56.106 20.5364C55.5238 20.5364 55.0442 20.7815 54.6732 21.2725C54.3034 21.7628 54.1074 22.4995 54.1074 23.4802C54.1074 24.453 54.3052 25.1903 54.6732 25.6879C55.0406 26.1848 55.5003 26.424 56.068 26.424C56.5367 26.424 56.9397 26.2494 57.2745 25.8956C57.6093 25.5417 57.8132 25.0212 57.8965 24.3485L57.1798 24.235C57.1267 24.7163 57.0012 25.0623 56.8027 25.2917C56.6043 25.52 56.3654 25.6311 56.0861 25.6311C55.7301 25.6311 55.4273 25.465 55.1999 25.1214C54.9724 24.7778 54.8608 24.2283 54.8608 23.4608C54.8608 22.7169 54.9809 22.1801 55.2192 21.8377C55.4575 21.4953 55.7609 21.3093 56.1241 21.3093C56.3666 21.3093 56.5735 21.4035 56.746 21.5925C56.9198 21.7809 57.035 22.0804 57.1044 22.4609L57.821 22.3099C57.7348 21.7157 57.5442 21.267 57.2365 20.9699C56.9288 20.6722 56.5554 20.5364 56.106 20.5364ZM60.3101 20.5364C59.7207 20.5364 59.2236 20.7791 58.8394 21.2912C58.4551 21.8033 58.2735 22.5448 58.2735 23.5182C58.2735 24.456 58.4587 25.1909 58.8394 25.6885C59.2206 26.1854 59.7135 26.4246 60.3288 26.4246C60.8168 26.4246 61.2228 26.2778 61.554 25.9717C61.8846 25.6655 62.1247 25.215 62.2514 24.613L61.4973 24.4808C61.2808 25.2519 60.8989 25.6305 60.3475 25.6317C59.9952 25.6317 59.6887 25.4819 59.4426 25.1601C59.1965 24.8376 59.0577 24.3594 59.0276 23.7259H62.2701V23.4614C62.2701 22.5092 62.0807 21.7942 61.7042 21.2912C61.3302 20.7882 60.8723 20.5364 60.3101 20.5364ZM64.6651 20.5364C64.1523 20.5364 63.7475 20.6879 63.4585 20.9893C63.169 21.29 63.0248 21.6783 63.0248 22.1595C63.0248 22.4391 63.0688 22.6752 63.1756 22.8956C63.2818 23.1154 63.435 23.293 63.628 23.424C63.8199 23.555 64.2066 23.7271 64.7779 23.9143C65.1724 24.0417 65.4288 24.1504 65.5319 24.235C65.6815 24.3588 65.7582 24.5212 65.7582 24.7446C65.7582 25.0031 65.6689 25.2187 65.4939 25.3859C65.3202 25.5544 65.0771 25.6311 64.7586 25.6311C64.4394 25.6311 64.1776 25.5417 63.9858 25.3479C63.7939 25.154 63.6703 24.8594 63.6274 24.4608L62.8921 24.6118C63.058 25.8225 63.66 26.424 64.7019 26.4233C65.2575 26.4233 65.7002 26.2657 66.0218 25.933C66.3433 25.6003 66.5116 25.151 66.5116 24.6118C66.5116 24.3207 66.4604 24.0683 66.3608 23.857C66.2613 23.6456 66.1062 23.4892 65.9271 23.3666C65.7485 23.2447 65.3672 23.0816 64.7579 22.8763C64.3152 22.7211 64.0371 22.6076 63.9472 22.5369C63.797 22.4174 63.7209 22.2543 63.7209 22.0466C63.7209 21.8341 63.8096 21.6541 63.9659 21.5182C64.1221 21.3824 64.364 21.3105 64.6825 21.3105C65.2448 21.3105 65.5591 21.6197 65.6248 22.235L66.3415 22.1215C66.2914 21.732 66.2076 21.4246 66.0773 21.2157C65.9389 20.9971 65.7431 20.8208 65.5114 20.7061C65.2695 20.5823 64.9872 20.5364 64.6651 20.5364ZM47.8491 20.6493L49.4894 26.2917H50.1868L51.827 20.6493H51.073L50.1114 24.1027C49.9949 24.52 49.8924 24.8805 49.8284 25.1782C49.7482 24.8032 49.6716 24.4095 49.5642 24.0273L48.6219 20.6493H47.8491ZM52.4677 20.6493V26.2917H53.2031V20.6493H52.4677ZM28.2998 20.7248C27.7165 20.7248 27.2471 20.9869 26.8671 21.4983C26.4864 22.0104 26.2825 22.7519 26.2825 23.7253C26.2825 24.6631 26.4707 25.3793 26.8484 25.8763C27.226 26.3732 27.7285 26.6311 28.3378 26.6311C28.8216 26.6311 29.2168 26.4656 29.5444 26.1595C29.8713 25.8533 30.0975 25.4028 30.223 24.8008L29.4877 24.6873C29.2735 25.4584 28.8844 25.837 28.3378 25.8382C27.9885 25.8382 27.6954 25.6885 27.4516 25.3666C27.2079 25.0441 27.0662 24.5659 27.0366 23.9325H30.2411L30.2598 23.668C30.2598 22.7157 30.0668 21.982 29.694 21.479C29.3212 20.976 28.8554 20.7248 28.2998 20.7248ZM20.0237 20.857L21.3436 26.4994H22.1164L22.9839 22.1589L23.1347 23.1215L23.8321 26.4994H24.5862L25.9248 20.857H25.2274L24.492 24.1215L24.2471 25.2156L24.0209 24.1215L23.3802 20.857H22.6262L21.9475 24.1595L21.7213 25.3298L21.457 24.1221L20.7784 20.8576H20.0237V20.857ZM66.946 20.9138V21.1783H67.6627V23.0653H67.9456V21.1783H68.6623V20.9138H66.946ZM68.9446 20.9138V23.0647H69.2088V21.2344L69.8308 23.0647H70.095L70.717 21.2719V23.0647H70.9999V20.9138H70.6042L70.095 22.4234C70.0437 22.5744 70.0069 22.6837 69.9816 22.7628L69.8682 22.4421L69.359 20.9138H68.9446ZM42.608 21.3099C42.9742 21.3099 43.2758 21.4874 43.5129 21.8383C43.6758 22.0786 43.7813 22.4446 43.8145 22.9325H41.3828C41.4057 22.4373 41.5456 22.0551 41.7785 21.7622C42.0114 21.4693 42.2792 21.3099 42.608 21.3099ZM60.2914 21.3099C60.6564 21.3099 60.9592 21.4874 61.1963 21.8383C61.3592 22.0786 61.4647 22.4446 61.4979 22.9325H59.0662C59.0891 22.4373 59.2291 22.0551 59.4619 21.7622C59.6942 21.4705 59.962 21.3099 60.2914 21.3099ZM28.2998 21.5176C28.6618 21.5176 28.9526 21.6952 29.186 22.046C29.3471 22.2863 29.4545 22.6523 29.4877 23.1402H27.0933C27.1162 22.645 27.2387 22.2441 27.4703 21.9512C27.7002 21.6589 27.9735 21.5176 28.2998 21.5176ZM32.9751 21.5176C33.3021 21.5176 33.5802 21.6994 33.8046 22.046C34.029 22.3932 34.1249 22.9282 34.1249 23.6692C34.1249 24.3908 34.0188 24.9288 33.7859 25.2923C33.553 25.6559 33.2755 25.8394 32.9751 25.8394C32.7543 25.8394 32.5534 25.7651 32.3718 25.613C32.1897 25.4608 32.0563 25.2428 31.9568 24.9524C31.8573 24.6619 31.806 24.2151 31.806 23.6311C31.806 22.9433 31.9284 22.4283 32.1643 22.0647C32.4002 21.7012 32.6747 21.5176 32.9751 21.5176Z" fill="black"/>
<path d="M9.45713 15.5352L6.64834 16.743L9.24961 17.8565L12.2659 16.743L9.45713 15.5352ZM5.2343 17.0449L5.14019 22.4796L9.24961 24.2911V18.6487L5.2343 17.0449ZM13.68 17.0449L9.96628 18.4603V23.7815L13.68 22.2718V17.0449ZM18.1103 0.136963L15.2822 1.34467L17.9028 2.45818L20.9191 1.34467L18.1103 0.136963ZM14.1891 1.7414V7.17609L17.6953 8.1954L17.8087 3.25104L14.1891 1.7414ZM22.0315 2.04333L18.7136 3.45877V8.79925L22.0315 7.28962V2.04333ZM4.8289 7.78599L2.02012 8.99369L4.62138 10.1072L7.63769 8.99369L4.8289 7.78599ZM0.606072 9.29562L0.511963 14.7303L4.62138 16.5419V10.8995L0.606072 9.29562ZM9.05174 9.29562L5.33806 10.7111V16.0322L9.05174 14.5226V9.29562ZM13.8778 7.58551L11.069 8.79321L13.6703 9.90672L16.6866 8.79321L13.8778 7.58551ZM9.655 9.09514L9.56089 14.5298L13.6703 16.3414V10.6996L9.655 9.09514ZM18.1007 9.09514L14.387 10.5106V15.8317L18.1007 14.3221V9.09514ZM26.9487 0.136963L24.1399 1.34467L26.7412 2.45818L29.7575 1.34467L26.9487 0.136963ZM22.7259 1.6466L22.6318 7.08129L26.7412 8.89285V3.25104L22.7259 1.6466ZM31.1715 1.6466L27.4579 3.06203V8.3832L31.1715 6.87356V1.6466Z" fill="#F7A80D"/>
</svg>
