<svg width="42" height="50" viewBox="0 0 42 50" fill="none" xmlns="http://www.w3.org/2000/svg">
<path d="M41.9238 2.49243L38.1111 45.11L20.9729 49.8507L3.88197 45.1165L0.0732422 2.49243H41.9238Z" fill="#2689E4"/>
<path d="M20.9978 46.227L34.8463 42.3962L38.1043 5.97754H20.9978V46.227Z" fill="#2196F3"/>
<path fill-rule="evenodd" clip-rule="evenodd" d="M20.573 11.3636H7L7.35219 16.3422L20.573 16.3064V11.3636ZM20.5638 41.1962L20.5699 41.1942V35.7135L20.5669 35.7165L14.5307 34.1296L14.1264 29.7416H8.68744L9.46225 38.2013L20.5638 41.1962ZM20.573 26.8337L8.42712 26.8661L7.88812 21.8666L20.573 21.721V26.8337Z" fill="#EBEBEB"/>
<path fill-rule="evenodd" clip-rule="evenodd" d="M33.1691 22.0247L33.6621 16.6286L34.146 11.3636H20.573V16.3064L28.2997 16.2855L27.8954 21.6369L20.573 21.721V26.8337L27.4391 26.8153L26.6153 34.1266L20.5699 35.7135V41.1942L20.573 41.1932L31.6807 38.2013L33.1691 22.0247Z" fill="white"/>
</svg>
