<svg width="40" height="50" viewBox="0 0 40 50" fill="none" xmlns="http://www.w3.org/2000/svg">
<path d="M39.9275 2.49243L36.2964 45.11L19.9743 49.8507L3.69718 45.1165L0.0698242 2.49243H39.9275Z" fill="#E44D26"/>
<path d="M19.9978 46.227L33.1869 42.3962L36.2897 5.97754H19.9978V46.227Z" fill="#F16529"/>
<path d="M12.94 16.4331H19.9988V11.2054H7.48682L7.60618 12.6079L8.83264 27.014H19.9988V21.7863H13.396L12.94 16.4331ZM14.0646 29.6279H9.05559L9.7546 37.8361L19.9758 40.8087L19.9988 40.8021V35.3631L19.9769 35.3692L14.4198 33.7972L14.0646 29.6279Z" fill="#EBEBEB"/>
<path d="M19.9806 27.014H26.125L25.5456 33.7939L19.9805 35.3676V40.8062L30.2098 37.8361L30.2848 36.9529L31.4575 23.1901L31.5792 21.7863H19.9806V27.014ZM19.9806 16.4203V16.4331H32.0332L32.1332 15.2582L32.3607 12.6079L32.4799 11.2054H19.9806V16.4205V16.4203Z" fill="white"/>
</svg>
