<svg width="50" height="58" viewBox="0 0 50 58" fill="none" xmlns="http://www.w3.org/2000/svg">
<path d="M4.33446 18.8075C3.34279 18.8075 2.50141 19.1533 1.80977 19.8449C1.11814 20.5366 0.772217 21.3665 0.772217 22.3352V37.2079C0.772217 38.2008 1.11803 39.0415 1.80977 39.7332C2.50141 40.4249 3.34279 40.7708 4.33446 40.7708C5.32539 40.7708 6.16168 40.425 6.84259 39.7332C7.52215 39.0416 7.86287 38.2008 7.86287 37.2079V22.3352C7.86287 21.3664 7.51705 20.5366 6.82532 19.8449C6.13358 19.1533 5.30312 18.8075 4.33446 18.8075Z" fill="#A2CA35"/>
<path d="M32.9736 5.4563L35.4293 0.926027C35.5905 0.626104 35.5332 0.396114 35.2568 0.234393C34.9568 0.0949424 34.7263 0.165604 34.5652 0.441384L32.075 5.00788C29.8839 4.03911 27.5664 3.55384 25.1226 3.55384C22.6782 3.55384 20.3605 4.03921 18.1702 5.00788L15.68 0.441384C15.5182 0.165604 15.2877 0.0955668 14.9884 0.234393C14.7113 0.396843 14.654 0.626104 14.8158 0.926027L17.2717 5.4563C14.7815 6.72624 12.7982 8.49487 11.3225 10.766C9.84679 13.0385 9.10864 15.5217 9.10864 18.2202H41.1018C41.1018 15.5224 40.3635 13.039 38.8879 10.766C37.4121 8.49487 35.4403 6.72624 32.9736 5.4563ZM18.7753 12.0457C18.5097 12.3119 18.1925 12.4443 17.8238 12.4443C17.4544 12.4443 17.1436 12.3119 16.8901 12.0457C16.6366 11.7807 16.5098 11.4648 16.5098 11.0948C16.5098 10.7261 16.6366 10.4095 16.8901 10.1439C17.1436 9.87897 17.4551 9.7465 17.8238 9.7465C18.1925 9.7465 18.5097 9.87897 18.7753 10.1439C19.0402 10.4101 19.1733 10.7261 19.1733 11.0948C19.1726 11.4641 19.0396 11.7807 18.7753 12.0457ZM33.3537 12.0457C33.0997 12.3119 32.7882 12.4443 32.4201 12.4443C32.0506 12.4443 31.7335 12.3119 31.4684 12.0457C31.2029 11.7807 31.0705 11.4648 31.0705 11.0948C31.0705 10.7261 31.2029 10.4095 31.4684 10.1439C31.7335 9.87897 32.0506 9.7465 32.4201 9.7465C32.7888 9.7465 33.0996 9.87897 33.3537 10.1439C33.6074 10.4101 33.734 10.7261 33.734 11.0948C33.734 11.4641 33.6073 11.7807 33.3537 12.0457Z" fill="#A2CA35"/>
<path d="M9.24658 42.5002C9.24658 43.5619 9.61529 44.4606 10.3528 45.1981C11.091 45.9356 11.9897 46.3044 13.0507 46.3044H15.6103L15.6454 54.1567C15.6454 55.1482 15.9912 55.9902 16.6828 56.682C17.3745 57.3737 18.205 57.7195 19.1731 57.7195C20.1641 57.7195 21.006 57.3737 21.6978 56.682C22.3895 55.9902 22.7353 55.1483 22.7353 54.1567V46.3051H27.5083V54.1567C27.5083 55.1482 27.854 55.9902 28.5457 56.682C29.2375 57.3737 30.0786 57.7195 31.0704 57.7195C32.0615 57.7195 32.9034 57.3737 33.5951 56.682C34.2868 55.9902 34.6325 55.1483 34.6325 54.1567V46.3051H37.2267C38.2642 46.3051 39.1514 45.9363 39.8903 45.1987C40.6277 44.4612 40.9966 43.5625 40.9966 42.5009V19.4644H9.24658V42.5002Z" fill="#A2CA35"/>
<path d="M45.9094 18.8075C44.9406 18.8075 44.1108 19.1482 43.419 19.8278C42.7274 20.5086 42.3816 21.3449 42.3816 22.3352V37.2079C42.3816 38.2008 42.7273 39.0415 43.419 39.7332C44.1108 40.425 44.9412 40.7708 45.9094 40.7708C46.9004 40.7708 47.7423 40.425 48.4341 39.7332C49.1258 39.0415 49.4715 38.2008 49.4715 37.2079V22.3352C49.4715 21.3448 49.1258 20.5086 48.4341 19.8278C47.7423 19.1482 46.9004 18.8075 45.9094 18.8075Z" fill="#A2CA35"/>
</svg>
