<svg width="71" height="71" viewBox="0 0 71 71" fill="none" xmlns="http://www.w3.org/2000/svg">
<path d="M46.2641 11.9508H47.8761L52.4712 7.35571L52.6965 5.40408C44.1442 -2.14541 31.0921 -1.32985 23.5426 7.22243C21.445 9.59612 19.9249 12.4236 19.0935 15.4828C19.6044 15.2733 20.1725 15.2384 20.7056 15.3876L29.8957 13.8707C29.8957 13.8707 30.3622 13.0964 30.6066 13.144C34.6939 8.65363 41.5738 8.13002 46.2958 11.9508H46.2641Z" fill="#EA4335"/>
<path d="M59.0168 15.4827C57.9601 11.5922 55.7927 8.09509 52.778 5.4231L46.3296 11.8714C49.0524 14.096 50.6042 17.4502 50.5376 20.9664V22.1119C53.7078 22.1119 56.2782 24.6824 56.2782 27.8526C56.2782 31.0228 53.7078 33.5933 50.5376 33.5933H39.0562L37.9106 34.7547V41.641L39.0562 42.7866H50.5376C58.782 42.85 65.5191 36.2177 65.5826 27.9732C65.6207 22.9656 63.1549 18.2817 59.0168 15.4827Z" fill="#4285F4"/>
<path d="M27.5605 42.7128H39.0418V33.5226H27.5605C26.7418 33.5226 25.9357 33.3449 25.19 33.0054L23.5779 33.5068L18.9511 38.1018L18.5481 39.7139C21.1408 41.6751 24.3078 42.7286 27.5605 42.7128Z" fill="#34A853"/>
<path d="M27.559 12.9025C19.3114 12.9501 12.6695 19.6745 12.7171 27.9221C12.7456 32.5267 14.894 36.8615 18.5466 39.6668L25.2043 33.0091C22.3165 31.7048 21.0313 28.3029 22.3356 25.4151C23.6399 22.5274 27.0417 21.2421 29.9295 22.5464C31.202 23.1208 32.2207 24.1426 32.7982 25.4151L39.456 18.7574C36.6254 15.0509 32.2207 12.8834 27.559 12.9025Z" fill="#FBBC05"/>
<path d="M5.29152 67.7672C3.9929 67.7837 2.74482 67.271 1.833 66.3468C0.89127 65.4618 0.365221 64.222 0.381725 62.9296C0.366253 61.6372 0.892302 60.3984 1.833 59.5123C2.7407 58.5788 3.98981 58.0559 5.29152 58.0662C6.53135 58.0497 7.72682 58.5314 8.60873 59.403L7.67628 60.3519C7.0378 59.7341 6.17962 59.3958 5.29152 59.4081C4.3601 59.3968 3.46582 59.7774 2.82837 60.4561C2.16617 61.1132 1.80103 62.0126 1.8165 62.9451C1.80825 63.8672 2.17339 64.7532 2.82837 65.4031C4.17753 66.7481 6.3529 66.7739 7.73404 65.4608C8.1456 65.0111 8.39728 64.4376 8.45194 63.8311H5.30699V62.4902H9.75675C9.80007 62.7604 9.81761 63.0338 9.80936 63.3081C9.86506 64.452 9.45041 65.5691 8.66133 66.4005C7.78355 67.3133 6.55817 67.8105 5.29152 67.7672ZM15.6372 66.876C14.3963 68.0653 12.4386 68.0653 11.1977 66.876C10.5964 66.2932 10.2684 65.4856 10.2911 64.649C10.2684 63.8125 10.5974 63.0049 11.1977 62.4221C12.4396 61.2359 14.3953 61.2359 15.6372 62.4221C16.2375 63.0049 16.5665 63.8125 16.5438 64.649C16.5655 65.4866 16.2344 66.2942 15.632 66.876H15.6372ZM12.1776 66.0013C12.8182 66.6862 13.8929 66.7213 14.5778 66.0797C14.6047 66.0539 14.6315 66.0281 14.6562 66.0013C15.0059 65.6393 15.1947 65.1524 15.1802 64.649C15.1957 64.1447 15.0069 63.6547 14.6562 63.2916C13.9971 62.6047 12.9058 62.5809 12.2178 63.2401C12.2003 63.2566 12.1828 63.2741 12.1663 63.2916C11.8156 63.6547 11.6268 64.1447 11.6423 64.649C11.6289 65.1524 11.8197 65.6403 12.1714 66.0013H12.1776ZM22.4603 66.876C21.2195 68.0653 19.2617 68.0653 18.0209 66.876C17.4195 66.2932 17.0915 65.4856 17.1142 64.649C17.0915 63.8125 17.4206 63.0049 18.0209 62.4221C19.2617 61.2328 21.2195 61.2328 22.4603 62.4221C23.0607 63.0049 23.3897 63.8125 23.367 64.649C23.3907 65.4856 23.0617 66.2932 22.4603 66.876ZM19.0018 66.0013C19.6424 66.6862 20.7172 66.7213 21.402 66.0797C21.4289 66.0539 21.4557 66.0281 21.4804 66.0013C21.8301 65.6393 22.0189 65.1524 22.0044 64.649C22.0199 64.1447 21.8311 63.6547 21.4804 63.2916C20.8213 62.6047 19.73 62.5809 19.0431 63.2401C19.0255 63.2566 19.008 63.2741 18.9915 63.2916C18.6408 63.6547 18.452 64.1447 18.4675 64.649C18.4541 65.1524 18.6449 65.6403 18.9967 66.0013H19.0018ZM26.9462 70.5656C26.318 70.5852 25.7022 70.3892 25.2009 70.0096C24.7561 69.675 24.4057 69.2308 24.1839 68.7203L25.3784 68.2221C25.5083 68.5274 25.7115 68.7956 25.9704 69.0029C26.2469 69.2257 26.5945 69.3433 26.9503 69.333C27.4062 69.3608 27.8518 69.1885 28.1716 68.8616C28.4872 68.481 28.643 67.992 28.6069 67.499V67.0482H28.5594C28.154 67.5289 27.5465 67.7909 26.9194 67.7558C26.1241 67.7579 25.3639 67.4278 24.8234 66.844C24.2376 66.2654 23.9137 65.4722 23.9271 64.648C23.9126 63.8197 24.2365 63.0214 24.8234 62.4365C25.3629 61.8507 26.1231 61.5175 26.9194 61.5196C27.2525 61.5185 27.5826 61.5928 27.8838 61.7341C28.1448 61.8476 28.3768 62.0178 28.5656 62.2323H28.6131V61.7341H29.9127V67.3154C29.9818 68.2076 29.6806 69.0895 29.0793 69.7528C28.5068 70.3005 27.7384 70.5934 26.9462 70.5656ZM27.0411 66.5408C27.4939 66.5511 27.9282 66.3582 28.2252 66.0168C28.5481 65.6465 28.7193 65.1668 28.7018 64.6748C28.7214 64.1746 28.5512 63.6867 28.2252 63.3071C27.9282 62.9647 27.4939 62.7728 27.0411 62.7831C26.5759 62.7738 26.1293 62.9647 25.8147 63.3071C25.4681 63.6733 25.2793 64.1612 25.2907 64.6645C25.2804 65.1638 25.4681 65.6465 25.8147 66.0065C26.1272 66.352 26.5738 66.547 27.0411 66.5408ZM32.2242 58.4179V67.5784H30.8565V58.4179H32.2242ZM35.9767 67.7672C35.1484 67.7888 34.3491 67.4639 33.7704 66.8708C33.1835 66.2829 32.8627 65.4794 32.8844 64.649C32.8534 63.8167 33.1618 63.0069 33.7384 62.4056C34.283 61.8321 35.0443 61.5144 35.8344 61.5299C36.1944 61.5258 36.5502 61.5959 36.8823 61.7341C37.1815 61.8548 37.4538 62.0332 37.6838 62.2581C37.8818 62.4489 38.0572 62.6614 38.2078 62.8925C38.3295 63.0874 38.4326 63.2927 38.5172 63.5051L38.6585 63.862L34.4666 65.5867C34.7266 66.1828 35.3259 66.5583 35.9757 66.5304C36.6039 66.5325 37.1866 66.2035 37.5115 65.6661L38.5595 66.3737C38.2922 66.7567 37.9496 67.0813 37.5528 67.3278C37.0825 67.6248 36.5337 67.7775 35.9767 67.7672ZM34.2263 64.5542L37.0144 63.3958C36.9288 63.1916 36.7751 63.0235 36.5791 62.9193C36.3604 62.7955 36.1129 62.7326 35.8612 62.7357C35.4352 62.747 35.0298 62.9255 34.7348 63.2339C34.3769 63.5763 34.1902 64.0601 34.2263 64.5542Z" fill="black"/>
<path d="M45.8243 67.7675C43.4396 67.8087 41.4736 65.9087 41.4323 63.524C41.4313 63.4662 41.4313 63.4074 41.4334 63.3497C41.3777 60.9649 43.2663 58.9876 45.65 58.9319C45.7078 58.9309 45.7666 58.9309 45.8243 58.9309C47.0167 58.8937 48.1616 59.4033 48.9321 60.3141L48.1771 61.0474C47.6108 60.3347 46.7382 59.9355 45.8295 59.9726C44.9579 59.953 44.1152 60.2903 43.4973 60.9051C42.8547 61.5518 42.5112 62.4368 42.5484 63.3476C42.5102 64.2584 42.8547 65.1434 43.4973 65.7901C44.1152 66.4059 44.9579 66.7422 45.8295 66.7226C46.8444 66.7339 47.8089 66.2821 48.4494 65.4962L49.2044 66.2512C48.8094 66.7236 48.3133 67.1011 47.7532 67.3569C47.1487 67.6375 46.4896 67.7778 45.8243 67.7675Z" fill="black"/>
<path d="M51.2321 67.5789H50.147V59.1146H51.2321V67.5789Z" fill="black"/>
<path d="M53.0048 62.4844C54.1879 61.3096 56.0982 61.3096 57.2813 62.4844C57.8424 63.0775 58.1446 63.8697 58.1199 64.6856C58.1446 65.5015 57.8424 66.2936 57.2813 66.8867C56.0982 68.0616 54.1879 68.0616 53.0048 66.8867C52.4437 66.2936 52.1415 65.5015 52.1662 64.6856C52.1415 63.8697 52.4426 63.0775 53.0048 62.4844ZM53.8114 66.2059C54.5056 66.9393 55.6629 66.9713 56.3973 66.2771C56.4221 66.2544 56.4458 66.2297 56.4685 66.2059C56.8511 65.7954 57.0533 65.2477 57.0296 64.6866C57.0543 64.1255 56.8522 63.5778 56.4685 63.1672C55.7743 62.4339 54.617 62.4019 53.8826 63.0961C53.8578 63.1188 53.8341 63.1435 53.8114 63.1672C53.4287 63.5778 53.2266 64.1255 53.2503 64.6866C53.2286 65.2467 53.4329 65.7923 53.8166 66.2008L53.8114 66.2059Z" fill="black"/>
<path d="M64.1293 67.5787H63.0814V66.7773H63.0504C62.8637 67.0816 62.5997 67.3312 62.2851 67.5003C61.9591 67.6891 61.5878 67.7891 61.2103 67.7881C60.5893 67.8304 59.9839 67.587 59.5651 67.128C59.168 66.6256 58.9689 65.9954 59.004 65.3569V61.7932H60.0891V65.1579C60.0891 66.2378 60.5656 66.7773 61.5197 66.7773C61.9498 66.7907 62.3593 66.5957 62.6203 66.2533C62.9019 65.8974 63.0514 65.4549 63.0453 65.0011V61.7932H64.1304V67.5787H64.1293Z" fill="black"/>
<path d="M67.8144 67.7676C67.0696 67.7697 66.361 67.4468 65.8752 66.8816C65.3316 66.2813 65.0407 65.4953 65.0624 64.6856C65.0407 63.8759 65.3316 63.0899 65.8752 62.4896C66.361 61.9254 67.0696 61.6015 67.8144 61.6036C68.227 61.5974 68.6344 61.6943 68.9985 61.8862C69.3193 62.0471 69.5906 62.2916 69.7845 62.5938H69.8319L69.7845 61.7923V59.1146H70.8696V67.5789H69.8216V66.7774H69.7742C69.5802 67.0796 69.309 67.3241 68.9882 67.485C68.6272 67.6748 68.2239 67.7728 67.8144 67.7676ZM67.9928 66.7774C68.489 66.7846 68.9645 66.5783 69.2976 66.2111C69.6659 65.7913 69.8546 65.2436 69.8216 64.6856C69.8546 64.1286 69.6659 63.5799 69.2976 63.16C68.6396 62.436 67.5194 62.3834 66.7953 63.0425C66.754 63.0796 66.7148 63.1198 66.6777 63.16C66.3084 63.5768 66.1197 64.1234 66.1537 64.6794C66.1197 65.2354 66.3084 65.782 66.6777 66.1988C67.0119 66.5742 67.4915 66.7846 67.9928 66.7774Z" fill="black"/>
</svg>
