<svg width="69" height="72" viewBox="0 0 69 72" fill="none" xmlns="http://www.w3.org/2000/svg">
<path fill-rule="evenodd" clip-rule="evenodd" d="M35.5709 48.1075L34.3382 47.6698C34.3382 47.6698 34.4888 41.141 32.2333 40.6725C30.7301 38.8604 32.4744 -36.1767 37.8867 40.4223C37.8867 40.4223 36.0222 41.3905 35.6915 43.0466C35.3304 44.6711 35.5709 48.1075 35.5709 48.1075Z" fill="white"/>
<path fill-rule="evenodd" clip-rule="evenodd" d="M35.5709 48.1075L34.3382 47.6698C34.3382 47.6698 34.4888 41.141 32.2333 40.6725C30.7301 38.8604 32.4744 -36.1767 37.8867 40.4223C37.8867 40.4223 36.0222 41.3905 35.6915 43.0466C35.3304 44.6711 35.5709 48.1075 35.5709 48.1075Z" fill="#A6A385"/>
<path fill-rule="evenodd" clip-rule="evenodd" d="M36.2326 41.7976C36.2326 41.7976 47.0279 34.4249 44.5016 19.0861C42.0662 7.93412 36.3229 4.27909 35.6914 2.8732C34.9999 1.87354 34.3381 0.12439 34.3381 0.12439L34.7894 31.1446C34.7894 31.1761 33.8572 40.6416 36.2329 41.798" fill="white"/>
<path fill-rule="evenodd" clip-rule="evenodd" d="M36.2326 41.7976C36.2326 41.7976 47.0279 34.4249 44.5016 19.0861C42.0662 7.93412 36.3229 4.27909 35.6914 2.8732C34.9999 1.87354 34.3381 0.12439 34.3381 0.12439L34.7894 31.1446C34.7894 31.1761 33.8569 40.6412 36.2326 41.7976Z" fill="#499D4A"/>
<path fill-rule="evenodd" clip-rule="evenodd" d="M33.7079 42.2044C33.7079 42.2044 23.5741 35.0192 24.1757 22.3676C24.7469 9.71562 31.9034 3.49898 33.2866 2.3744C34.1889 1.37474 34.2189 0.999659 34.2792 0C34.9106 1.40589 34.7904 21.0243 34.8803 23.3358C35.1508 32.2389 34.3994 40.5179 33.7079 42.2044Z" fill="white"/>
<path fill-rule="evenodd" clip-rule="evenodd" d="M33.7079 42.2044C33.7079 42.2044 23.5741 35.0192 24.1757 22.3676C24.7469 9.71562 31.9034 3.49898 33.2866 2.3744C34.1889 1.37474 34.2189 0.999659 34.2792 0C34.9106 1.40589 34.7904 21.0243 34.8803 23.3358C35.1508 32.2389 34.3994 40.5179 33.7079 42.2044Z" fill="#58AA50"/>
<path fill-rule="evenodd" clip-rule="evenodd" d="M63.4158 56.6487C63.3418 56.6641 63.2674 56.8338 63.2674 56.9263C63.2526 57.5436 63.2378 59.1791 63.2378 60.2899C63.2378 60.3208 63.2822 60.3825 63.3268 60.3825C63.5495 60.3979 64.0842 60.4133 64.5446 60.4133C65.1832 60.4133 65.5545 60.3208 65.7625 60.2284C66.297 59.9505 66.5495 59.3488 66.5495 58.6852C66.5495 57.1888 65.5396 56.6178 64.0396 56.6178C63.9356 56.6024 63.6389 56.6024 63.4158 56.6487ZM67.2476 63.5455C67.2476 62.018 66.1634 61.1693 64.2031 61.1693C64.1139 61.1693 63.4902 61.154 63.3416 61.1847C63.297 61.2003 63.2378 61.2312 63.2378 61.2775C63.2378 62.3728 63.2228 64.1165 63.2674 64.7953C63.297 65.0884 63.5051 65.505 63.7576 65.6284C64.0248 65.7827 64.6338 65.8135 65.0496 65.8135C66.2228 65.8135 67.2476 65.1347 67.2476 63.5455ZM60.3864 55.8002C60.5348 55.8002 60.9802 55.8464 62.1238 55.8464C63.208 55.8464 64.0694 55.8156 65.1238 55.8156C66.4158 55.8156 68.1979 56.2938 68.1979 58.2996C68.1979 59.2871 67.5296 60.074 66.6535 60.4598C66.609 60.4751 66.609 60.5059 66.6535 60.5213C67.9009 60.8455 69 61.6477 69 63.1596C69 64.641 68.1089 65.5821 66.8168 66.1685C66.0297 66.5232 65.0496 66.6466 64.0546 66.6466C63.297 66.6466 61.2625 66.5542 60.1339 66.5851C60.0151 66.5386 60.2379 65.9832 60.3417 65.8907C60.6091 65.8752 60.8169 65.8598 61.0992 65.7672C61.5002 65.6593 61.5446 65.5358 61.604 64.9033C61.6338 64.3633 61.6338 62.4499 61.6338 61.0923C61.6338 59.2254 61.6488 57.9602 61.6338 57.3431C61.619 56.8649 61.4556 56.7104 61.1289 56.6178C60.8763 56.5717 60.4606 56.5098 60.1189 56.4636C60.0446 56.3864 60.2971 55.8617 60.3864 55.8002ZM51.817 65.397C52.1737 65.6899 52.8716 65.8133 53.4954 65.8133C54.2973 65.8133 55.0993 65.6593 55.8716 64.9339C56.6587 64.1936 57.2081 63.0518 57.2081 61.2312C57.2081 59.4875 56.5696 58.068 55.2626 57.2351C54.5201 56.7566 53.5696 56.5563 52.4706 56.5563C52.1439 56.5563 51.832 56.5717 51.639 56.6641C51.5943 56.695 51.4905 56.8338 51.4905 56.9109C51.4607 57.2195 51.4607 59.5955 51.4607 60.9843C51.4607 62.4191 51.4607 64.4249 51.4905 64.6563C51.4905 64.8879 51.5943 65.2427 51.8172 65.397H51.817ZM48.4458 55.8C48.7281 55.8 49.8121 55.8464 50.3319 55.8464C51.2678 55.8464 51.936 55.8002 53.7032 55.8002C55.1883 55.8002 56.4358 56.2167 57.3269 57.0035C58.4109 57.9756 58.9755 59.318 58.9755 60.9533C58.9755 63.2832 57.9507 64.6256 56.9259 65.397C55.9014 66.1838 54.5646 66.6466 52.6637 66.6466C51.6538 66.6466 49.9163 66.6159 48.4756 66.6003H48.4608C48.3866 66.4615 48.5795 65.9215 48.6983 65.9061C49.0845 65.8598 49.1885 65.8443 49.3816 65.7674C49.6934 65.6438 49.7529 65.4741 49.7975 64.9033C49.8419 63.8386 49.8271 62.5581 49.8271 61.1076C49.8271 60.074 49.8419 58.0527 49.8121 57.4046C49.7677 56.8647 49.545 56.7258 49.0994 56.6332C48.8766 56.587 48.5795 56.5252 48.1639 56.479C48.1043 56.3709 48.3716 55.8927 48.4458 55.8002V55.8Z" fill="#8E714E"/>
<path fill-rule="evenodd" clip-rule="evenodd" d="M30.4762 65.9985C30.105 65.9522 29.8377 65.8907 29.511 65.7364C29.4664 65.7055 29.392 65.5513 29.392 65.4894C29.3624 64.9494 29.3624 63.4065 29.3624 62.3729C29.3624 61.5396 29.2289 60.8145 28.8872 60.3054C28.4861 59.7189 27.9071 59.3796 27.1644 59.3796C26.511 59.3796 25.6347 59.8424 24.907 60.4905C24.8922 60.5059 24.7734 60.614 24.7882 60.4442C24.7882 60.2745 24.818 59.9351 24.8328 59.7035C24.8478 59.4875 24.7288 59.3796 24.7288 59.3796C24.2536 59.6264 22.9171 59.9504 22.4269 59.9966C22.0705 60.074 21.9814 60.4288 22.3528 60.5522H22.3676C22.7683 60.6756 23.0358 60.8145 23.2436 60.9534C23.3921 61.0768 23.3773 61.2465 23.3773 61.3855C23.3921 62.5425 23.3921 64.3169 23.3477 65.289C23.3329 65.6747 23.2289 65.8135 22.9615 65.8752L22.9912 65.8598C22.7833 65.9061 22.62 65.9522 22.3675 65.9832C22.2783 66.0758 22.2783 66.5695 22.3675 66.6775C22.5308 66.6775 23.3921 66.6312 24.1052 66.6312C25.0853 66.6312 25.5903 66.6775 25.8427 66.6775C25.9466 66.5541 25.9764 66.0912 25.917 65.9832C25.6347 65.9678 25.4268 65.937 25.2338 65.8752C24.9665 65.8133 24.8922 65.6747 24.8772 65.3507C24.8478 64.5327 24.8478 62.8048 24.8478 61.6323C24.8478 61.3082 24.9368 61.1539 25.0258 61.0613C25.3674 60.7528 25.917 60.5368 26.4071 60.5368C26.8823 60.5368 27.194 60.6911 27.4317 60.8917C27.7584 61.1693 27.8624 61.5706 27.9069 61.8637C27.9811 62.5271 27.9515 63.8386 27.9515 64.9803C27.9515 65.5974 27.9069 65.7518 27.6844 65.8288C27.5803 65.8752 27.3129 65.937 27.0011 65.9676C26.8971 66.0758 26.9269 66.5541 27.0011 66.6621C27.4317 66.6621 27.9367 66.6158 28.6793 66.6158C29.6 66.6158 30.1941 66.6621 30.4318 66.6621C30.5059 66.5695 30.5356 66.1221 30.4762 65.9985ZM34.59 60.1049C33.8031 60.1049 33.3129 60.7374 33.3129 61.7247C33.3129 62.7277 33.7435 63.8849 34.9613 63.8849C35.1692 63.8849 35.5555 63.7922 35.7335 63.5762C36.0157 63.2987 36.2089 62.7431 36.2089 62.1567C36.2089 60.8762 35.5999 60.1048 34.59 60.1048V60.1049ZM34.4861 66.9243C34.1891 66.9243 33.9811 67.0169 33.8475 67.0942C33.2237 67.5105 32.9416 67.9118 32.9416 68.3903C32.9416 68.8375 33.1049 69.1923 33.4614 69.5009C33.8921 69.8867 34.4861 70.0719 35.2434 70.0719C36.7583 70.0719 37.4266 69.2232 37.4266 68.3903C37.4266 67.8037 37.1444 67.418 36.5653 67.2022C36.1495 67.0169 35.3921 66.9243 34.4861 66.9243ZM34.59 70.936C33.6841 70.936 33.0306 70.7353 32.4663 70.2879C31.9168 69.8559 31.6792 69.2078 31.6792 68.7604C31.6792 68.637 31.709 68.2975 31.9763 67.989C32.1395 67.8037 32.4961 67.449 33.3426 66.8472C33.3722 66.8318 33.387 66.8165 33.387 66.7854C33.387 66.7546 33.3573 66.7237 33.3277 66.7085C32.6297 66.4307 32.4218 65.9832 32.3622 65.7364V65.7055C32.3476 65.6128 32.3178 65.5204 32.4515 65.4277C32.5555 65.3507 32.704 65.258 32.8672 65.1502C33.1197 64.9957 33.3871 64.826 33.5504 64.6871C33.5802 64.6563 33.5802 64.6255 33.5802 64.5946C33.5802 64.5637 33.5504 64.5327 33.5206 64.5175C32.4813 64.1626 31.9615 63.3602 31.9615 62.1567C31.9615 61.3699 32.303 60.6602 32.9118 60.2128C33.3277 59.8734 34.3673 59.4567 35.0505 59.4567H35.095C35.793 59.4721 36.1791 59.6264 36.7285 59.8271C37.0256 59.9351 37.3079 59.9812 37.6941 59.9812C38.2731 59.9812 38.5256 59.7961 38.7334 59.5803C38.7484 59.611 38.7782 59.6883 38.793 59.8887C38.8078 60.0894 38.7484 60.3825 38.5998 60.5985C38.4811 60.7682 38.2138 60.8917 37.9464 60.8917H37.8721C37.6048 60.8608 37.4859 60.8299 37.4859 60.8299L37.4266 60.8608C37.4118 60.8917 37.4266 60.9225 37.4414 60.9688L37.4564 60.9998C37.486 61.1385 37.5454 61.555 37.5454 61.6632C37.5454 62.9283 37.0554 63.4836 36.5355 63.9002C36.0305 64.286 35.4515 64.5327 34.798 64.5946C34.7831 64.5946 34.7239 64.5946 34.59 64.61C34.5158 64.61 34.4119 64.6255 34.3969 64.6255H34.3821C34.2633 64.6563 33.9664 64.8106 33.9664 65.0728C33.9664 65.3042 34.1 65.5821 34.7386 65.6284C34.8721 65.6438 35.0057 65.6438 35.1544 65.6593C36.0009 65.7208 37.0554 65.7981 37.5454 65.9678C38.2286 66.2299 38.6592 66.8626 38.6592 67.6187C38.6592 68.7606 37.8723 69.8251 36.5653 70.4884C35.9267 70.7816 35.288 70.936 34.59 70.936ZM43.0551 60.182C42.7434 60.182 42.4611 60.2589 42.2532 60.4132C41.6741 60.7836 41.3771 61.5242 41.3771 62.6042C41.3771 64.6255 42.3571 66.045 43.7532 66.045C44.1691 66.045 44.4958 65.9215 44.7779 65.6747C45.2086 65.3042 45.4314 64.5637 45.4314 63.5299C45.4314 61.5242 44.466 60.1818 43.0553 60.1818L43.0551 60.182ZM43.3226 66.7855C40.7979 66.7855 39.892 64.8569 39.892 63.0517C39.892 61.7866 40.382 60.8145 41.3621 60.1201C42.0602 59.6727 42.8919 59.426 43.6345 59.426C45.565 59.426 46.9165 60.8608 46.9165 62.9283C46.9165 64.3323 46.3819 65.4431 45.3571 66.1221C44.8671 66.4615 44.0205 66.7855 43.3224 66.7855H43.3226ZM16.8578 60.1818C16.5459 60.1818 16.2637 60.2589 16.0557 60.4132C15.4766 60.7836 15.1795 61.5242 15.1795 62.6042C15.1795 64.6255 16.1596 66.045 17.5557 66.045C17.9716 66.045 18.2983 65.9215 18.5805 65.6747C19.011 65.3042 19.2339 64.5637 19.2339 63.5299C19.2339 61.5242 18.2835 60.1818 16.8578 60.1818ZM17.1251 66.7855C14.6003 66.7855 13.6944 64.8569 13.6944 63.0517C13.6944 61.7866 14.1845 60.8145 15.1646 60.1201C15.8627 59.6727 16.6944 59.426 17.437 59.426C19.3677 59.426 20.719 60.8608 20.719 62.9283C20.719 64.3323 20.1844 65.4431 19.1596 66.1221C18.6843 66.4615 17.8378 66.7855 17.1251 66.7855ZM0.150146 66.6312C0.120373 66.5851 0.0906003 66.4461 0.105567 66.2764C0.105567 66.1529 0.13534 66.0758 0.150146 66.045C0.462034 65.9985 0.625381 65.9522 0.803534 65.9061C1.10062 65.8288 1.21939 65.6593 1.23419 65.2736C1.27893 64.3478 1.27893 62.5888 1.26396 61.3699V61.339C1.26396 61.2002 1.26396 61.0304 1.10062 60.907C0.862919 60.7528 0.580802 60.614 0.209529 60.5057C0.0759548 60.4597 -0.0132022 60.3825 0.00160362 60.29C0.00160362 60.1974 0.0907615 60.0894 0.283881 60.0585C0.773923 60.0121 2.05093 59.6883 2.55594 59.4567C2.58571 59.4875 2.63029 59.5803 2.63029 59.7037L2.61548 59.8732C2.60052 60.0431 2.58571 60.2437 2.58571 60.4442C2.58571 60.5059 2.64526 60.5522 2.70448 60.5522C2.73425 60.5522 2.76402 60.5368 2.79363 60.5212C3.74411 59.7498 4.60542 59.4721 5.05088 59.4721C5.77879 59.4721 6.34318 59.8271 6.77384 60.5676C6.80345 60.614 6.83322 60.6294 6.8778 60.6294C6.90741 60.6294 6.95183 60.614 6.96679 60.5831C7.84308 59.8887 8.71936 59.4721 9.2984 59.4721C10.6795 59.4721 11.4964 60.5368 11.4964 62.342C11.4964 62.8511 11.4964 63.5145 11.4816 64.1164C11.4816 64.6563 11.4668 65.15 11.4668 65.505C11.4668 65.5819 11.5706 65.8288 11.734 65.8752C11.9419 65.9832 12.2242 66.0295 12.5954 66.0912H12.6102C12.64 66.1992 12.5806 66.6003 12.5212 66.6775C12.4321 66.6775 12.2984 66.6775 12.15 66.6621C11.774 66.6418 11.3976 66.6314 11.0212 66.6312C10.1005 66.6312 9.62525 66.6466 9.16466 66.6775C9.13521 66.5541 9.12024 66.1838 9.16466 66.0912C9.43213 66.045 9.56571 65.9985 9.72921 65.9524C10.0263 65.8598 10.1005 65.7208 10.1155 65.3197C10.1155 65.0266 10.1747 62.5271 10.0855 61.9253C9.99652 61.3082 9.5509 60.5831 8.57066 60.5831C8.19938 60.5831 7.62034 60.7374 7.05595 61.1847C7.02634 61.2156 6.99641 61.2927 6.99641 61.339V61.3545C7.05595 61.6784 7.05595 62.0489 7.05595 62.6197V63.6225C7.05595 64.3169 7.04099 64.9649 7.05595 65.4585C7.05595 65.7981 7.24907 65.8752 7.41242 65.937C7.50158 65.9522 7.5608 65.9678 7.63515 65.9832C7.76873 66.0141 7.90246 66.045 8.11039 66.0912C8.14016 66.153 8.14016 66.3535 8.09558 66.5232C8.08061 66.6158 8.05084 66.662 8.03604 66.6775C7.53119 66.6621 7.01137 66.6466 6.25402 66.6466C6.03129 66.6466 5.64505 66.6621 5.31836 66.6621C5.05088 66.6621 4.79854 66.6775 4.65016 66.6775C4.63519 66.6466 4.60542 66.5387 4.60542 66.3689C4.60542 66.2301 4.63519 66.1221 4.66497 66.0912C4.73916 66.0758 4.79854 66.0604 4.87289 66.0604C5.05089 66.0295 5.19959 65.9985 5.34797 65.9678C5.60063 65.8907 5.68963 65.7518 5.70444 65.4124C5.74901 64.6409 5.79359 62.4346 5.68963 61.879C5.51148 60.9842 5.02143 60.5368 4.23415 60.5368C3.77388 60.5368 3.19452 60.7682 2.71944 61.1387C2.64509 61.2002 2.58571 61.3544 2.58571 61.4933V62.4037C2.58571 63.5145 2.58571 64.9033 2.60052 65.505C2.61548 65.6899 2.67471 65.9061 3.01637 65.9832C3.09072 65.9985 3.20949 66.0295 3.35803 66.045L3.62518 66.0912C3.65511 66.1838 3.64014 66.5541 3.58076 66.6775C3.43222 66.6775 3.25406 66.6621 3.04598 66.6621C2.73425 66.6466 2.3332 66.6312 1.88774 66.6312C1.36793 66.6312 0.996655 66.6466 0.699572 66.6621C0.491646 66.6312 0.328299 66.6312 0.150146 66.6312Z" fill="#442D22"/>
</svg>
