<svg width="69" height="39" viewBox="0 0 69 39" fill="none" xmlns="http://www.w3.org/2000/svg">
<path d="M34.5 38.7726C53.5538 38.7726 69 30.093 69 19.3863C69 8.67954 53.5538 0 34.5 0C15.4462 0 0 8.67954 0 19.3863C0 30.093 15.4462 38.7726 34.5 38.7726Z" fill="#8A94BF"/>
<path fill-rule="evenodd" clip-rule="evenodd" d="M9.68848 30.865L13.4695 10.2031H22.2122C25.993 10.4583 27.8835 12.4988 27.8835 16.0702C27.8835 22.1922 23.3939 25.7634 19.3765 25.5082H15.1236L14.1783 30.865H9.68848ZM16.0686 21.6822L17.2502 14.0295H20.322C21.9761 14.0295 23.1575 14.7947 23.1575 16.3251C22.9214 20.6618 21.0309 21.427 18.9043 21.6822H16.0686ZM27.0051 25.5082L30.7858 4.84668H35.2756L34.3304 10.2031H38.5836C42.3646 10.4583 43.7823 12.4988 43.3098 15.0499L41.6557 25.5082H36.9297L38.5838 16.0702C38.82 14.7947 38.82 14.0295 37.1661 14.0295H33.6215L31.4949 25.5082H27.0051ZM41.353 30.865L45.1337 10.2031H53.8768C57.6578 10.4583 59.5483 12.4988 59.5483 16.0702C59.5483 22.1922 55.0584 25.7634 51.0413 25.5082H46.7878L45.8426 30.865H41.353ZM47.7328 21.6822L48.9144 14.0295H51.9866C53.6407 14.0295 54.822 14.7947 54.822 16.3251C54.5859 20.6618 52.6954 21.427 50.5688 21.6822H47.7328Z" fill="#1E202D"/>
</svg>
