<svg width="53" height="54" viewBox="0 0 53 54" fill="none" xmlns="http://www.w3.org/2000/svg">
<path d="M52.7943 32.3326C52.4765 31.3817 51.6441 30.7195 50.5675 30.5606C50.0599 30.4857 49.4785 30.5176 48.7906 30.6577C47.5914 30.9021 46.7018 30.9952 46.0526 31.0132C48.5032 26.9257 50.4959 22.2646 51.643 17.877C53.498 10.7822 52.5068 7.55008 51.3484 6.08814C48.2829 2.21852 43.8104 0.139732 38.4148 0.076125C35.5364 0.0413557 33.0096 0.602777 31.6914 1.00651C30.4642 0.792576 29.1446 0.673133 27.7599 0.651045C25.1644 0.61014 22.8711 1.16911 20.9115 2.31792C19.8267 1.9555 18.0856 1.4446 16.0749 1.11859C11.3459 0.35162 7.53443 0.949242 4.74655 2.89489C1.3707 5.25061 -0.194249 9.34356 0.0951804 15.06C0.187102 16.875 1.21481 22.3972 2.83296 27.6342C3.76294 30.6444 4.75462 33.1441 5.78046 35.0646C7.23527 37.7879 8.79194 39.3915 10.5395 39.9675C11.519 40.2898 13.2986 40.5156 15.1704 38.9755C15.4076 39.2594 15.7242 39.5415 16.1442 39.8035C16.6778 40.1358 17.3301 40.4074 17.9816 40.5684C20.3296 41.1482 22.5289 41.0032 24.4052 40.1904C24.4168 40.5201 24.4257 40.8351 24.4331 41.1071C24.4456 41.5483 24.458 41.9808 24.4743 42.3854C24.5855 45.1207 24.7739 47.2476 25.3321 48.7357C25.3627 48.8175 25.4039 48.9422 25.4474 49.0746C25.7258 49.9168 26.1915 51.3268 27.3761 52.431C28.6027 53.5749 30.0865 53.9257 31.4455 53.9257C32.127 53.9257 32.7773 53.8373 33.3477 53.7167C35.3807 53.2861 37.6898 52.6304 39.3601 50.2809C40.9393 48.0597 41.707 44.7143 41.8459 39.4431C41.8639 39.294 41.8805 39.1516 41.8964 39.016L41.9296 38.7375L42.3016 38.7698L42.3974 38.7761C44.4682 38.8694 47.0002 38.4356 48.5552 37.722C49.7839 37.1587 53.7214 35.1051 52.7943 32.3326Z" fill="black"/>
<path d="M49.2538 32.8717C43.0967 34.1265 42.6733 32.0671 42.6733 32.0671C49.1741 22.5377 51.8918 10.4415 49.5467 7.48096C43.1486 -0.594705 32.0735 3.2246 31.8886 3.32359L31.8292 3.33422C30.6127 3.0847 29.2515 2.93621 27.7213 2.91147C24.9355 2.86647 22.8221 3.63303 21.2184 4.83441C21.2184 4.83441 1.46145 -3.20628 2.38046 14.9469C2.5759 18.8088 7.98355 44.168 14.4334 36.5084C16.7909 33.7074 19.0688 31.3392 19.0688 31.3392C20.2001 32.0816 21.5545 32.4604 22.9743 32.3244L23.0846 32.232C23.0503 32.5797 23.066 32.9198 23.1287 33.3225C21.4671 35.1565 21.9555 35.4784 18.6339 36.1539C15.2727 36.8383 17.2472 38.0564 18.5364 38.3751C20.0992 38.761 23.7148 39.3079 26.1578 35.9294L26.0605 36.3149C26.7114 36.8301 27.1685 39.6656 27.0919 42.2363C27.0153 44.8068 26.9642 46.5716 27.477 47.9501C27.9902 49.3286 28.5014 52.4302 32.8681 51.506C36.5166 50.7335 38.4074 48.7318 38.6706 45.3927C38.8571 43.019 39.2796 43.37 39.3061 41.2476L39.645 40.243C40.0357 37.0252 39.7072 35.987 41.9549 36.4699L42.5015 36.5174C44.1556 36.5916 46.3212 36.2544 47.5921 35.6709C50.3287 34.4163 51.9518 32.3213 49.2534 32.8717H49.2538Z" fill="#336791"/>
<path d="M22.3752 16.674C21.8203 16.5977 21.3179 16.6683 21.0636 16.8585C20.9208 16.9655 20.8765 17.0894 20.8645 17.1747C20.8326 17.4007 20.9928 17.6506 21.0914 17.7795C21.37 18.1443 21.7771 18.3951 22.18 18.4503C22.2383 18.4585 22.2965 18.4622 22.3543 18.4622C23.0261 18.4622 23.637 17.9453 23.6909 17.5639C23.7582 17.0861 23.0561 16.7677 22.3752 16.6742V16.674ZM40.7563 16.6891C40.7033 16.3147 40.0287 16.2079 39.3886 16.2958C38.7493 16.3838 38.1294 16.6689 38.1812 17.0442C38.2226 17.3361 38.7561 17.8343 39.3876 17.8343C39.441 17.8343 39.4948 17.8308 39.5491 17.8232C39.9706 17.7656 40.2799 17.5011 40.4269 17.3487C40.6505 17.1164 40.7801 16.8575 40.7563 16.6891Z" fill="white"/>
<path d="M51.303 32.7292C51.0682 32.0279 50.3125 31.8023 49.0571 32.0584C45.3295 32.8184 43.9945 32.2919 43.5563 31.9731C46.4537 27.6126 48.8372 22.3416 50.1231 17.4238C50.7322 15.0942 51.0686 12.9308 51.0961 11.1674C51.1266 9.23193 50.7928 7.80966 50.1047 6.94084C47.33 3.43835 43.2577 1.55958 38.3283 1.50804C34.9394 1.47041 32.0762 2.32716 31.5211 2.56809C30.3522 2.28094 29.0779 2.10464 27.6906 2.08214C25.1466 2.04144 22.9475 2.64315 21.1269 3.86969C20.336 3.57886 18.2922 2.88572 15.7927 2.48792C11.4716 1.80071 8.03775 2.32143 5.58733 4.03638C2.66342 6.08286 1.31358 9.74099 1.57506 14.9089C1.66305 16.6476 2.66591 21.9963 4.24845 27.1187C6.3316 33.8606 8.59611 37.6773 10.9786 38.4625C11.2575 38.5543 11.579 38.6185 11.9337 38.6185C12.8028 38.6185 13.8684 38.2315 14.977 36.9148C16.3293 35.3123 17.7281 33.7486 19.1717 32.2259C20.1083 32.7225 21.1372 32.9998 22.1896 33.0276C22.1917 33.0548 22.1943 33.082 22.1968 33.109C22.0157 33.3224 21.8383 33.5389 21.6648 33.7584C20.9356 34.6728 20.7838 34.8632 18.4367 35.3406C17.7691 35.4768 15.9958 35.8378 15.9697 37.0658C15.9416 38.4074 18.0659 38.9709 18.308 39.0306C19.1514 39.2392 19.964 39.3421 20.7389 39.3421C22.6235 39.3421 24.2821 38.7302 25.6075 37.5462C25.5667 42.3292 25.7685 47.0423 26.3499 48.4783C26.8261 49.6539 27.9892 52.5268 31.6631 52.5266C32.2022 52.5266 32.7956 52.4647 33.4484 52.3264C37.2828 51.5144 38.9479 49.8402 39.592 46.1491C39.9367 44.1765 40.5282 39.4661 40.8065 36.9394C41.3936 37.1204 42.1495 37.2032 42.9666 37.203C44.6709 37.203 46.6375 36.8453 47.8708 36.2798C49.2562 35.6441 51.7564 34.0844 51.303 32.7292ZM42.1716 15.6554C42.159 16.4014 42.0551 17.0785 41.9449 17.7854C41.8263 18.5456 41.7037 19.3316 41.6729 20.2857C41.6425 21.2142 41.7598 22.1796 41.8733 23.1133C42.1027 24.999 42.3381 26.9403 41.4269 28.8559C41.2756 28.591 41.1408 28.3172 41.0232 28.036C40.91 27.7648 40.664 27.3291 40.3235 26.7262C38.9987 24.3791 35.8963 18.8827 37.4844 16.6398C37.9575 15.9723 39.1581 15.2859 42.1716 15.6554ZM38.5188 3.01846C42.9356 3.11479 46.4294 4.7471 48.9031 7.86979C50.8003 10.265 48.7111 21.1635 42.6631 30.5657C42.6023 30.4893 42.5412 30.4132 42.4797 30.3373L42.4031 30.2428C43.966 27.693 43.6604 25.1702 43.3884 22.9335C43.2766 22.0156 43.171 21.1486 43.1979 20.3342C43.2256 19.4711 43.3412 18.7307 43.4529 18.0149C43.5902 17.1327 43.73 16.2199 43.6915 15.1439C43.7202 15.031 43.7318 14.8977 43.7167 14.7394C43.6184 13.7076 42.4259 10.6194 39.9953 7.82439C38.6658 6.29556 36.7269 4.58471 34.0796 3.43078C35.2183 3.19762 36.7754 2.98021 38.5188 3.01846ZM13.8038 35.9511C12.5823 37.402 11.7388 37.1238 11.4614 37.0326C9.65404 36.437 7.55682 32.6631 5.70782 26.6787C4.10788 21.5006 3.17293 16.2936 3.09881 14.8335C2.86528 10.2157 3.99836 6.99749 6.46679 5.26803C10.484 2.45376 17.0887 4.13823 19.7427 4.99253C19.7046 5.02976 19.6648 5.06453 19.6272 5.10236C15.272 9.44729 15.3754 16.8707 15.3861 17.3246C15.3857 17.4997 15.4006 17.7475 15.4209 18.0885C15.4958 19.3371 15.6354 21.6609 15.2627 24.2925C14.9166 26.7381 15.6797 29.1316 17.356 30.8596C17.5281 31.0366 17.7089 31.2051 17.8978 31.3644C17.1517 32.1539 15.53 33.8997 13.8038 35.9511ZM18.4576 29.8168C17.1066 28.424 16.4929 26.4867 16.7739 24.5012C17.1672 21.7213 17.0221 19.3001 16.944 17.9993C16.9331 17.8173 16.9233 17.6578 16.9177 17.532C17.5539 16.9746 20.5023 15.4141 22.6049 15.89C23.5643 16.107 24.1489 16.7525 24.392 17.8627C25.6499 23.6105 24.5584 26.0061 23.6815 27.9313C23.5007 28.3278 23.3299 28.7027 23.1842 29.0905L23.0711 29.3903C22.785 30.1483 22.5188 30.8531 22.3538 31.5223C20.9174 31.5182 19.5201 30.912 18.4576 29.8166V29.8168ZM18.6781 37.5683C18.2587 37.4648 17.8815 37.285 17.6602 37.1359C17.845 37.05 18.174 36.933 18.7446 36.8168C21.5058 36.2554 21.9322 35.8591 22.8635 34.691C23.0769 34.4231 23.3189 34.1196 23.6541 33.7498L23.6545 33.7494C24.1537 33.1972 24.382 33.2908 24.7961 33.4606C25.1317 33.5976 25.4586 34.0132 25.5911 34.4705C25.6538 34.6865 25.7242 35.0964 25.4938 35.4154C23.5485 38.1062 20.7139 38.0716 18.6781 37.5683ZM33.1287 50.8526C29.7508 51.5676 28.5548 49.8649 27.7666 47.9185C27.2579 46.6619 27.0078 40.9953 27.1853 34.7374C27.1875 34.6542 27.1755 34.5738 27.1523 34.4981C27.1316 34.3487 27.1 34.2009 27.0579 34.056C26.7942 33.1454 26.1513 32.3838 25.3801 32.068C25.0737 31.9426 24.5114 31.7125 23.8357 31.8833C23.9798 31.2967 24.2297 30.6343 24.5007 29.917L24.6143 29.6153C24.7423 29.2752 24.9029 28.9228 25.0727 28.5497C25.9905 26.5356 27.2474 23.7767 25.8832 17.5442C25.3723 15.2098 23.6659 14.0698 21.0793 14.3346C19.5286 14.4931 18.1098 15.1112 17.4022 15.4656C17.25 15.5417 17.1109 15.6154 16.9809 15.6869C17.1784 13.3349 17.9245 8.93925 20.7157 6.15812C22.4732 4.40739 24.8137 3.54265 27.6654 3.58929C33.2842 3.68009 36.8874 6.52872 38.9208 8.90264C40.6731 10.9481 41.622 13.0087 42.0006 14.1201C39.1529 13.834 37.2161 14.3892 36.2344 15.7759C34.0984 18.7923 37.4029 24.6466 38.991 27.4602C39.2823 27.9758 39.5336 28.4215 39.6127 28.6109C40.1299 29.8491 40.7994 30.6758 41.2882 31.2791C41.4381 31.464 41.5835 31.6434 41.694 31.8C40.8315 32.0457 39.2823 32.6132 39.4235 35.4502C39.3096 36.8737 38.4999 43.5384 38.0886 45.8931C37.5455 49.0039 36.3868 50.1625 33.1287 50.8528V50.8526ZM47.2284 34.9127C46.3464 35.3171 44.8705 35.6204 43.4685 35.6856C41.9199 35.7572 41.1315 35.5142 40.946 35.3647C40.8591 33.5968 41.5251 33.4121 42.23 33.2166C42.3408 33.1859 42.4488 33.1558 42.5532 33.1199C42.618 33.172 42.689 33.2237 42.7668 33.2745C44.0115 34.086 46.2315 34.1736 49.3658 33.5344L49.4001 33.5277C48.9774 33.9181 48.254 34.4421 47.2284 34.9127Z" fill="white"/>
</svg>
