<svg width="71" height="42" viewBox="0 0 71 42" fill="none" xmlns="http://www.w3.org/2000/svg">
<path fill-rule="evenodd" clip-rule="evenodd" d="M3.13208 32.566H5.28504V24.2051L8.6049 31.4965C8.99902 32.371 9.52538 32.679 10.577 32.679C11.629 32.679 12.155 32.371 12.5491 31.4965L15.869 24.2051V32.566H18.0053V24.2211C18.0053 23.4113 17.6764 23.0216 17.0027 22.811C15.3757 22.3088 14.2744 22.7464 13.7816 23.8322L10.5276 31.0103L7.37243 23.8322C6.89579 22.7464 5.77824 22.3088 4.15128 22.811C3.46101 23.0216 3.13245 23.4109 3.13245 24.2211L3.13208 32.566ZM19.7966 25.7602H21.933V30.362C21.9168 30.621 22.0151 31.2046 23.1986 31.2209C23.7901 31.2365 27.8165 31.2209 27.8493 31.2209V25.7438H30.0022C30.0184 25.7438 30.0022 33.2132 30.0022 33.2458C30.0184 35.0928 27.685 35.4814 26.6168 35.5141H19.8459V34.0884C19.8459 34.0884 26.6006 34.1047 26.6168 34.0884C27.9973 33.9587 27.8331 33.2785 27.8331 33.0516V32.5003H23.2807C21.1605 32.4683 19.8128 31.5605 19.7966 30.5073C19.7966 30.4103 19.8459 25.8092 19.7966 25.7602ZM65.9608 20.4618C64.6466 20.4294 63.6436 20.5427 62.7724 20.9153C62.5264 21.0127 62.1481 21.0127 62.0991 21.3206C62.2306 21.4495 62.263 21.6605 62.3617 21.8392C62.5754 22.1635 62.9209 22.6004 63.2329 22.8273C63.5618 23.087 63.9069 23.3459 64.2683 23.5729C64.9258 23.9615 65.6488 24.1721 66.2566 24.5618C66.6349 24.788 66.9962 25.0803 67.3579 25.3393C67.5218 25.4689 67.6537 25.6636 67.8673 25.7442V25.7122C67.7524 25.5662 67.7193 25.3556 67.6205 25.1929L67.1277 24.707C66.6514 24.0915 66.0429 23.5402 65.4017 23.087C64.8922 22.7304 63.7419 22.2281 63.5283 21.6449C63.5117 21.6286 63.4951 21.6286 63.4951 21.6122C63.8568 21.5632 64.2845 21.4343 64.613 21.3526C65.1722 21.2073 65.6812 21.2393 66.2562 21.0936C66.5196 21.0123 66.7822 20.9477 67.0456 20.8667V20.7207C66.7498 20.4291 66.5527 20.0242 66.2242 19.7649C65.3862 19.052 64.4653 18.3551 63.5286 17.7719C63.0027 17.4316 62.3617 17.221 61.8033 16.9457C61.6221 16.8647 61.2932 16.8161 61.1624 16.6541C60.8659 16.2975 60.7186 15.8276 60.4884 15.4063C60.0062 14.4821 59.5568 13.5417 59.141 12.5868C58.8618 11.9549 58.664 11.323 58.3196 10.7394C56.6101 7.98489 54.7857 6.3162 51.9428 4.67947C51.3351 4.33919 50.612 4.19357 49.8392 4.01526C49.4285 3.98257 49.0178 3.96659 48.6068 3.93391C48.36 3.83659 48.0974 3.52899 47.8506 3.38301C46.9139 2.79978 44.4979 1.51967 43.8073 3.2047C43.3634 4.25784 44.4648 5.29501 44.8589 5.82994C45.1388 6.20253 45.4832 6.62415 45.681 7.04505C45.8118 7.32032 45.8284 7.59595 45.9437 7.88756C46.2229 8.61678 46.4531 9.41063 46.7982 10.0748C46.9787 10.4151 47.1758 10.7717 47.406 11.0797C47.5375 11.258 47.7843 11.339 47.8167 11.6306C47.5865 11.9545 47.5706 12.4408 47.4391 12.8457C46.8638 14.6767 47.0774 16.929 47.932 18.2897C48.1953 18.6947 48.8031 19.5858 49.658 19.2459C50.3976 18.938 50.233 18.0304 50.4466 17.2043C50.4964 17.026 50.4632 16.8963 50.5616 16.7667V16.799C50.7752 17.2526 51.0054 17.6902 51.2356 18.1274C51.7285 18.9216 52.6162 19.7641 53.3724 20.3147C53.7499 20.6063 54.0623 21.1089 54.5717 21.2705V21.2378H54.5227C54.424 21.0926 54.2759 21.0275 54.161 20.9139C53.8652 20.6223 53.5366 20.2657 53.2899 19.9417C52.6165 19.0342 52.0084 18.0297 51.4496 16.9926C51.1863 16.4903 50.956 15.9394 50.7431 15.4372C50.6603 15.2429 50.6603 14.9513 50.4798 14.8376C50.233 15.2102 49.8886 15.5181 49.6904 15.9557C49.3946 16.6526 49.3457 17.5111 49.2473 18.3863C49.181 18.4187 49.1976 18.4023 49.1644 18.435C48.6392 18.3054 48.458 17.7704 48.2609 17.3168C47.7846 16.1664 47.6855 14.3194 48.1128 12.9906C48.2277 12.6503 48.7379 11.5808 48.5243 11.2569C48.4248 10.9489 48.1128 10.7547 47.9323 10.5117C47.7021 10.2201 47.4885 9.83116 47.3246 9.49089C46.9304 8.58336 46.7492 7.57888 46.3216 6.67173C46.1079 6.23413 45.7797 5.79653 45.5002 5.42393C45.1878 4.98633 44.8427 4.67874 44.5966 4.16016C44.5145 3.98185 44.3996 3.69023 44.5145 3.49558C44.5635 3.36594 44.6132 3.31728 44.744 3.26861C44.9576 3.10665 45.5661 3.33362 45.7956 3.41424C46.3875 3.67353 46.8969 3.9005 47.4063 4.24078C47.6531 4.40274 47.8999 4.71033 48.1957 4.79168H48.5246C49.0506 4.90498 49.6418 4.824 50.1346 4.96999C51.0058 5.22892 51.7944 5.6342 52.5016 6.08814C54.6708 7.4329 56.4296 9.3449 57.6455 11.6295C57.8426 12.0021 57.9247 12.3424 58.0893 12.7313C58.4348 13.5255 58.878 14.3354 59.2231 15.0969C59.552 15.8748 59.8972 16.6526 60.3734 17.2842C60.6368 17.6244 61.6225 17.8027 62.0663 17.9807C62.3787 18.1103 62.8877 18.256 63.1842 18.4346C63.7592 18.7586 64.3014 19.1638 64.844 19.5364C65.1063 19.7166 65.9277 20.1215 65.9608 20.4618Z" fill="#00678C"/>
<path fill-rule="evenodd" clip-rule="evenodd" d="M49.1975 6.38171C48.9705 6.38178 48.7444 6.4091 48.5242 6.46306V6.49538H48.5732C48.7047 6.75468 48.9349 6.93299 49.0992 7.15961C49.2141 7.41891 49.346 7.67821 49.4609 7.9375L49.5099 7.88884C49.7401 7.74321 49.8388 7.48391 49.8388 7.07899C49.7567 6.98166 49.7401 6.86835 49.6583 6.75468C49.543 6.59235 49.346 6.51136 49.1975 6.38171Z" fill="#ABABAB"/>
<path fill-rule="evenodd" clip-rule="evenodd" d="M31.6624 32.5661H37.8251C38.5482 32.5661 39.2546 32.4201 39.8134 32.1605C40.7335 31.7399 41.194 31.1723 41.194 30.4271V28.8717C41.194 28.2725 40.668 27.6893 39.6661 27.3163C39.1235 27.1057 38.466 27.0084 37.8251 27.0084H35.2286C34.3575 27.0084 33.9468 26.7487 33.8481 26.1822C33.8315 26.1176 33.8315 26.0526 33.8315 25.9879V25.0317C33.8315 24.9671 33.8315 24.9184 33.8481 24.8538C33.9468 24.4162 34.1767 24.2865 34.9329 24.2219C34.9984 24.2219 35.0806 24.2055 35.1465 24.2055H41.2765V22.7961H35.2452C34.3741 22.7961 33.9302 22.8608 33.5195 22.9741C32.2377 23.379 31.6789 23.9949 31.6789 25.0807V26.3122C31.6789 27.2684 32.7799 28.0782 34.6043 28.2725C34.8179 28.2725 35.015 28.2889 35.2286 28.2889H37.4475C37.5297 28.2889 37.6115 28.2889 37.677 28.3052C38.3677 28.3699 38.6469 28.4832 38.8605 28.7257C38.9754 28.8554 39.0252 28.9691 39.0252 29.115V30.3465C39.0252 30.4925 38.9264 30.6871 38.7128 30.8488C38.5316 31.0111 38.2192 31.1084 37.8085 31.1404C37.7264 31.1404 37.6612 31.1567 37.5783 31.1567H31.6624V32.5661ZM54.5718 30.1025C54.5718 31.5609 55.6566 32.3707 57.8755 32.5331C58.0725 32.5494 58.2862 32.5658 58.4832 32.5658H64.071V31.1556H58.4501C57.1845 31.1556 56.7082 30.8477 56.7082 30.1025V22.7954H54.5714V30.1025H54.5718ZM42.5583 30.1835V25.161C42.5583 23.8809 43.4618 23.1034 45.2697 22.8601C45.4509 22.8274 45.6645 22.8274 45.845 22.8274H49.9204C50.1174 22.8274 50.2987 22.8274 50.5123 22.8601C52.3035 23.1034 53.2237 23.8809 53.2237 25.161V30.1835C53.2237 31.221 52.8295 31.7715 51.9418 32.1281L54.062 34.0078H51.5643L49.8548 32.5007L48.1287 32.5981H45.8447C45.4505 32.5981 45.0395 32.5498 44.579 32.4201C43.2158 32.0631 42.5583 31.3503 42.5583 30.1835ZM44.8755 30.0545C44.8755 30.1355 44.8921 30.1998 44.9087 30.2815C45.0402 30.8644 45.5986 31.1887 46.4366 31.1887H48.3928L46.6016 29.6006H49.0993L50.6604 30.978C50.9403 30.832 51.1374 30.6051 51.2029 30.3135C51.2195 30.2325 51.2195 30.1682 51.2195 30.1028V25.2747C51.2195 25.2256 51.2195 25.1614 51.2029 25.096C51.0714 24.5455 50.513 24.2379 49.6909 24.2379H46.4369C45.4837 24.2379 44.8759 24.6428 44.8759 25.2747V30.0545H44.8755ZM65.0574 32.5661H65.3698V31.3993H65.797V31.156H64.6301V31.3993H65.0574V32.5661ZM67.4568 32.5661H67.736V31.156H67.3087L66.9312 32.1285L66.5536 31.156H66.1098V32.5661H66.4055V31.4966L66.8162 32.5661H67.0299L67.4406 31.4966H67.4572V32.5661H67.4568Z" fill="#CE8B2C"/>
</svg>
