<svg width="71" height="57" viewBox="0 0 71 57" fill="none" xmlns="http://www.w3.org/2000/svg">
<path d="M47.7895 18.1508L40.0051 20.676L33.2327 23.6454L31.3381 24.1423C30.8555 24.5983 30.3496 25.0601 29.8024 25.5277C29.2022 26.0421 28.6433 26.5098 28.2137 26.8488C27.7371 27.2229 27.031 27.9243 26.6722 28.3685C26.1367 29.0348 25.7131 29.7421 25.5307 30.2858C25.207 31.2679 25.366 32.2615 25.9896 33.1793C26.7898 34.3484 28.3844 35.5408 30.2436 36.3533C31.191 36.7684 32.7855 37.3003 33.9858 37.5983C35.9804 38.1011 39.8403 38.6447 41.9643 38.7266C42.3938 38.7441 42.9705 38.7441 42.9939 38.7266C43.0411 38.6973 43.3706 38.0719 43.7531 37.2945C45.0593 34.6465 46.0007 32.1622 46.5126 30.0404C46.8185 28.7544 47.0597 27.0417 47.2185 25.0134C47.2598 24.4464 47.2774 22.5467 47.2421 21.9036C47.1891 20.8515 47.0949 19.9981 46.948 19.1622C46.9244 19.0394 46.9184 18.9283 46.9303 18.9225C46.9537 18.905 47.0243 18.8816 47.9834 18.6068L47.7894 18.1509V18.1508H47.7895V18.1508ZM46.0125 19.1855C46.0831 19.1855 46.2714 20.9799 46.3184 22.114C46.3302 22.3537 46.3243 22.5115 46.3125 22.5115C46.2655 22.5115 45.3181 21.9562 44.6416 21.5354C44.0532 21.1671 42.9353 20.4305 42.7588 20.2903C42.6998 20.2494 42.7057 20.2436 43.1883 20.0798C44.006 19.805 45.9478 19.1855 46.0125 19.1855ZM42.0468 20.4832C42.0998 20.4832 42.235 20.5591 42.5586 20.7579C43.7707 21.5119 45.4182 22.4238 46.1243 22.7278C46.342 22.8213 46.3654 22.7862 45.8654 23.1253C44.7945 23.8501 43.4588 24.5632 41.8231 25.2822C41.5348 25.4108 41.2936 25.5101 41.2877 25.5101C41.276 25.5101 41.3112 25.3641 41.3582 25.1887C41.7525 23.7331 41.9761 22.2601 41.9879 21.0793C41.9938 20.4948 41.9938 20.4948 42.0468 20.4773C42.0349 20.4832 42.0408 20.4832 42.0468 20.4832ZM41.2289 20.7929C41.2641 20.8279 41.2407 22.1374 41.1936 22.4939C41.0877 23.3474 40.9229 24.1423 40.6523 25.0367C40.5876 25.2528 40.5287 25.4342 40.517 25.4458C40.4934 25.475 39.6873 24.6918 39.4225 24.3878C38.9635 23.8617 38.6047 23.3356 38.3399 22.8212C38.2046 22.5582 37.9928 22.0439 38.0104 22.0263C38.1045 21.962 41.2054 20.7696 41.2289 20.7929ZM37.3808 22.2952C37.3867 22.2952 37.3925 22.2952 37.3985 22.301C37.4102 22.3127 37.4515 22.4062 37.4868 22.5114C37.675 23.02 38.0986 23.7682 38.4635 24.2475C38.8636 24.7736 39.3873 25.3347 39.8226 25.703C39.9639 25.8199 40.0932 25.9309 40.1108 25.9485C40.1462 25.9836 40.158 25.9777 39.1989 26.3402C38.0869 26.761 36.8748 27.1819 35.4861 27.6261C35.1544 27.7323 34.823 27.8395 34.4919 27.9476C34.4389 27.9652 34.4566 27.9359 34.6095 27.6963C35.2979 26.6266 36.3452 24.5281 36.9336 23.0434C37.0337 22.7862 37.1337 22.529 37.1514 22.4705C37.1749 22.3886 37.2043 22.3595 37.2808 22.3185C37.3219 22.3069 37.3632 22.2952 37.3808 22.2952ZM36.2041 22.7803C36.2217 22.7921 35.9216 23.4175 35.6274 23.9903C35.0567 25.0951 34.433 26.1824 33.5975 27.5034C33.4563 27.7313 33.321 27.9418 33.3033 27.9652C33.2739 28.0062 33.2621 27.9944 33.168 27.8132C32.9679 27.4216 32.8031 26.9188 32.7149 26.457C32.6266 26.0011 32.6443 25.2062 32.7444 24.7152C32.8208 24.3528 32.815 24.3586 32.9915 24.2709C33.7446 23.891 36.1806 22.757 36.2041 22.7803ZM46.3538 23.1896V23.435C46.3538 24.7386 46.2126 26.5272 46.0066 27.8308C45.9713 28.0587 45.9417 28.2457 45.936 28.2517C45.936 28.2517 45.7654 28.2049 45.5653 28.1464C44.6828 27.8716 43.7237 27.4683 42.8587 26.9949C42.2879 26.6851 41.4583 26.1765 41.4819 26.1531C41.4877 26.1473 41.7349 26.0187 42.0231 25.8667C43.1765 25.2705 44.2826 24.6275 45.2417 23.9904C45.6006 23.7507 46.1418 23.365 46.2596 23.2597L46.3538 23.1896ZM31.7617 24.9197C31.7852 24.9197 31.7793 24.9664 31.744 25.1769C31.7205 25.3289 31.6911 25.6095 31.6794 25.8023C31.6322 26.6558 31.7735 27.2871 32.1972 28.1522C32.3148 28.3919 32.409 28.5906 32.4031 28.5964C32.3619 28.6315 28.4668 29.7656 27.2429 30.0987C26.8781 30.198 26.5604 30.2858 26.5368 30.2915C26.4957 30.3033 26.4897 30.2975 26.5074 30.198C26.6427 29.3388 27.3017 28.2165 28.2196 27.2695C28.8315 26.6382 29.3199 26.27 30.1554 25.7964C30.7556 25.4575 31.6793 24.949 31.7499 24.9255C31.75 24.9197 31.7558 24.9197 31.7617 24.9197ZM40.9406 26.5506C40.9465 26.5447 41.0877 26.6208 41.2583 26.7201C42.5174 27.4449 44.2708 28.1172 45.7652 28.462L45.9007 28.4913L45.7123 28.5964C44.9298 29.029 42.3586 30.0928 39.7285 31.069C39.346 31.2093 38.9695 31.3496 38.8988 31.3788C38.8282 31.408 38.7634 31.4256 38.7634 31.4198C38.7634 31.4138 38.8694 31.2093 39.0046 30.958C39.7401 29.5901 40.4816 27.9242 40.8581 26.7668C40.9053 26.6558 40.9346 26.5565 40.9406 26.5506ZM40.0051 26.8545C40.011 26.8605 39.9639 26.9832 39.905 27.1234C39.3932 28.3568 38.7223 29.7013 37.8633 31.2094C37.6456 31.5952 37.4632 31.905 37.4572 31.905C37.4515 31.905 37.2749 31.7997 37.0631 31.6712C35.8156 30.9112 34.7095 29.976 33.9858 29.07L33.8799 28.9414L34.4153 28.7952C36.3334 28.275 37.9632 27.7139 39.5813 27.0242C39.8109 26.9306 39.9992 26.8545 40.0051 26.8545ZM45.8183 28.8712C45.8183 28.8712 45.8242 28.8771 45.8183 28.8712C45.8242 29.0057 45.5241 30.2098 45.277 31.0807C45.0711 31.8114 44.8944 32.3843 44.5709 33.3954C44.4297 33.8398 44.3062 34.2079 44.3003 34.2079C44.2944 34.2079 44.2591 34.2021 44.2238 34.1905C42.4763 33.8748 40.9112 33.4364 39.4402 32.8519C39.0283 32.6882 38.4399 32.4251 38.4046 32.3959C38.3929 32.3841 38.746 32.2205 39.1931 32.0276C41.8703 30.8644 44.6475 29.5433 45.6006 28.9764C45.7124 28.9062 45.8007 28.8712 45.8183 28.8712ZM32.3972 29.3272C32.409 29.3388 31.6617 30.4086 30.6143 31.864C30.2496 32.3726 29.8259 32.9688 29.6671 33.1909C29.5082 33.413 29.267 33.7638 29.1317 33.9742L28.8844 34.3542L28.6196 34.1321C28.3078 33.8748 27.7665 33.3254 27.5253 33.0214C27.0192 32.396 26.678 31.7355 26.5427 31.1335C26.478 30.8528 26.478 30.7125 26.5367 30.695C26.625 30.6717 28.196 30.3034 29.667 29.9643C30.4849 29.7773 31.4321 29.5552 31.7734 29.4734C32.1147 29.3914 32.3913 29.3272 32.3972 29.3272ZM33.1503 29.6136L33.3385 29.824C34.1859 30.7651 35.0508 31.4608 36.0981 32.0686C36.2865 32.1739 36.4276 32.2674 36.4158 32.2733C36.3747 32.3025 32.7796 33.5708 31.1145 34.1437C30.179 34.471 29.4081 34.7341 29.4023 34.7341C29.3965 34.7341 29.3435 34.699 29.2846 34.6581L29.1787 34.5821L29.3493 34.3366C29.9024 33.5416 30.5968 32.6707 32.1089 30.8587L33.1503 29.6136ZM37.8457 32.9512C37.8515 32.9454 38.1104 33.0389 38.4281 33.1559C39.1931 33.4423 39.799 33.6235 40.6111 33.8281C41.6114 34.0795 43.0588 34.325 43.912 34.3951C44.0414 34.4067 44.112 34.4185 44.0885 34.436C44.0472 34.4594 43.1824 34.7459 42.5469 34.9446C41.5348 35.2602 38.4458 36.1662 35.9275 36.8852C35.4627 37.0197 35.0626 37.1307 35.039 37.1365C34.9803 37.1483 34.786 37.0956 34.786 37.0722C34.786 37.0606 34.9272 36.8794 35.0979 36.6806C35.9451 35.6752 36.7866 34.5529 37.4868 33.4891C37.6809 33.1967 37.8457 32.9571 37.8457 32.9512ZM36.8101 32.9805C36.8159 32.9864 36.3982 33.6527 35.6687 34.7984C35.3568 35.2835 35.0096 35.833 34.886 36.0259C34.7683 36.2129 34.5918 36.5053 34.4919 36.6689L34.3212 36.967L34.233 36.9436C34.0211 36.8852 32.5325 36.3649 32.1382 36.2071C31.6499 36.0142 31.1439 35.7804 30.7673 35.5817C30.2966 35.3303 29.7083 34.9562 29.7553 34.9445C29.767 34.9387 30.5731 34.7224 31.5439 34.4594C34.1211 33.7637 35.5509 33.3604 36.4865 33.0682C36.6571 33.0156 36.8042 32.9746 36.8101 32.9805ZM44.1355 34.6873H44.1414C44.1649 34.7458 43.2118 37.3762 42.8645 38.2062C42.7881 38.3932 42.7588 38.4401 42.7175 38.4341C42.6175 38.4284 41.2348 38.2355 40.3933 38.1127C38.9283 37.8906 36.4688 37.4638 35.851 37.3236L35.7099 37.2944L36.5864 37.0955C38.4693 36.6747 39.3754 36.4467 40.2933 36.1662C41.4525 35.8154 42.5999 35.377 43.7589 34.8393C43.9413 34.7574 44.0943 34.6931 44.1355 34.6873Z" fill="url(#paint0_linear)"/>
<path d="M39.7634 0.123346C39.634 0.105906 37.5451 0.854101 36.1978 1.39765C34.3796 2.13426 32.9676 2.83574 32.0967 3.44352C31.7731 3.67159 31.3671 4.07487 31.3024 4.23266C31.2789 4.29113 31.2671 4.36127 31.2671 4.4314L32.0556 5.17378L33.9325 5.77L38.3984 6.56499L43.5055 7.43596L43.5585 6.99756C43.5409 6.99756 43.5291 6.99174 43.5116 6.99174L42.8406 6.88648L42.7054 6.64685C42.0111 5.43098 41.2462 3.92287 40.799 2.90577C40.4519 2.11663 40.1224 1.20484 39.9399 0.550127C39.8399 0.152646 39.8282 0.129276 39.7636 0.123454V0.123319H39.7634V0.123346ZM39.6692 0.421551H39.6752C39.681 0.42732 39.7045 0.5911 39.7281 0.783883C39.8281 1.60235 40.0106 2.39135 40.2989 3.24481C40.5165 3.88782 40.5165 3.85278 40.2636 3.77674C39.6634 3.61312 36.9745 3.15133 35.0269 2.88245C34.7151 2.84151 34.4503 2.80061 34.4503 2.79479C34.4268 2.77142 35.8565 2.029 36.4861 1.7368C37.2922 1.36846 39.5045 0.450744 39.6692 0.421551ZM33.9971 3.04025L34.2267 3.11615C35.474 3.53708 38.61 4.13333 40.34 4.27361C40.5341 4.29115 40.6989 4.30873 40.7047 4.30873C40.7106 4.31455 40.5459 4.40224 40.3341 4.50157C39.4986 4.9166 38.5807 5.42516 37.9452 5.81682C37.757 5.93367 37.5863 6.02726 37.5628 6.02726C37.5393 6.02726 37.4158 6.00386 37.2863 5.98631L37.051 5.95119L36.4626 5.37831C35.4271 4.37881 34.6151 3.60725 34.3032 3.31492L33.9971 3.04025ZM33.7619 3.22141L34.5915 4.25024C35.0445 4.81724 35.5034 5.37252 35.6036 5.49522C35.7035 5.61805 35.7859 5.71746 35.7801 5.72328C35.7565 5.7408 34.5798 5.51279 33.956 5.37257C33.3147 5.22639 33.0499 5.15625 32.6557 5.03355L32.3321 4.92829V4.8464C32.3379 4.45475 32.8381 3.87025 33.6854 3.27408L33.7619 3.22141ZM40.8107 4.62432C40.8343 4.62432 40.8636 4.67691 40.9342 4.83473C41.1343 5.27311 41.7581 6.45393 41.9109 6.68186C41.9581 6.75793 42.0404 6.76375 41.2108 6.6293C39.2163 6.30773 38.5748 6.20263 38.5748 6.19093C38.5748 6.18511 38.6337 6.14416 38.7102 6.10322C39.328 5.76426 39.9517 5.33165 40.5048 4.86986C40.6401 4.75877 40.7637 4.65357 40.7872 4.63599C40.793 4.62432 40.8049 4.6185 40.8107 4.62432Z" fill="url(#paint1_linear)"/>
<path d="M31.344 4.15088C31.344 4.15088 31.2146 4.35555 31.3381 4.65952C31.4147 4.84651 31.6383 5.07444 31.8912 5.30831C31.8912 5.30831 34.5095 7.84517 34.8273 8.20763C36.2747 9.86767 36.9043 11.5044 36.9631 13.7607C36.9984 15.2104 36.7218 16.4847 36.0334 17.9635C34.8096 20.6174 32.2265 23.5459 28.2432 26.7959L28.8258 26.603C29.2023 26.3224 29.7142 26.0244 30.9145 25.3697C33.6858 23.8615 36.8042 22.4761 40.6288 21.0499C46.136 18.9923 55.1913 16.5839 60.3455 15.8007L60.881 15.7189L60.7986 15.5903C60.328 14.8654 60.0043 14.4154 59.6159 13.936C58.4863 12.5448 57.1154 11.4167 55.4384 10.4814C53.1319 9.20136 50.1487 8.20181 46.3714 7.45944C45.6594 7.31908 44.0943 7.05023 42.8234 6.85734C40.1286 6.44242 38.3869 6.15594 36.4688 5.8286C35.7805 5.71164 34.7507 5.53632 34.0682 5.39022C33.7152 5.31416 33.0386 5.15636 32.509 4.97517C32.0854 4.81142 31.4734 4.64774 31.344 4.15088ZM32.8621 5.61228C32.8679 5.60651 32.962 5.64147 33.0857 5.68242C33.3093 5.75832 33.5975 5.84604 33.9389 5.93962C34.1971 6.01019 34.456 6.07838 34.7156 6.14419C35.0686 6.23182 35.3627 6.31368 35.3686 6.31368C35.4099 6.35463 36.0041 8.24254 36.2042 8.96739C36.2806 9.2422 36.3395 9.47596 36.3336 9.47596C36.3276 9.48189 36.263 9.38245 36.1865 9.24802C35.4981 8.04385 34.4095 6.82219 33.1504 5.84013C32.9857 5.72334 32.8621 5.6181 32.8621 5.61228ZM35.757 6.40724C35.7864 6.40724 35.9159 6.42479 36.0746 6.45983C37.0749 6.68194 38.8695 7.02099 40.0168 7.2139C40.211 7.2431 40.3641 7.27825 40.3641 7.28986C40.3641 7.30162 40.2934 7.34245 40.2051 7.38927C40.011 7.4886 39.2284 7.95035 38.9696 8.12574C38.3164 8.55829 37.7281 9.02591 37.3044 9.44676C37.1338 9.61631 36.9866 9.75658 36.9866 9.75658C36.9866 9.75658 36.9514 9.65725 36.9219 9.53442C36.7102 8.72191 36.2688 7.51774 35.8687 6.67022C35.804 6.53582 35.751 6.41304 35.751 6.40139C35.751 6.41306 35.751 6.40724 35.757 6.40724ZM40.8524 7.37173C40.8877 7.38337 40.9465 7.58214 41.0642 8.02051C41.2819 8.86814 41.3819 9.81508 41.3466 10.6977C41.3348 10.9432 41.3231 11.1712 41.3113 11.2005L41.2936 11.2589L40.9877 11.1595C40.3581 10.9608 39.3344 10.6626 38.4577 10.4171C37.9575 10.2827 37.5516 10.1599 37.5516 10.1483C37.5516 10.1131 38.2812 9.38835 38.593 9.11365C39.1872 8.59333 40.7994 7.35415 40.8524 7.37173ZM41.2583 7.43011C41.276 7.41267 43.6943 7.82759 44.7946 8.03806C45.6125 8.19585 46.801 8.44139 46.8716 8.47066C46.9069 8.48231 46.7833 8.55244 46.389 8.72779C44.8357 9.42345 43.6824 10.0488 42.5352 10.8088C42.2351 11.0075 41.9821 11.1712 41.9762 11.1712C41.9704 11.1712 41.9645 11.0017 41.9645 10.7971C41.9645 9.6865 41.7409 8.56417 41.3289 7.61723C41.2878 7.5237 41.2525 7.43604 41.2583 7.43011ZM47.5129 8.6577C47.5306 8.67522 47.454 9.14875 47.3834 9.42927C47.1716 10.3002 46.6009 11.5922 45.9008 12.8079C45.7771 13.0242 45.6654 13.1996 45.6535 13.2054C45.6419 13.2112 45.483 13.1235 45.3006 13.0183C44.6181 12.6208 43.8414 12.2467 42.9941 11.896C42.7588 11.7966 42.5528 11.7147 42.5469 11.7032C42.5057 11.668 44.4003 10.423 45.4006 9.82675C46.1949 9.34746 47.4893 8.63428 47.5129 8.6577ZM47.96 8.72781C48.013 8.72781 49.0839 9.02012 49.6428 9.18379C51.0255 9.59299 52.6141 10.1716 53.6497 10.6393L54.0792 10.8322L53.7792 10.9023C51.2492 11.481 49.0839 12.1474 46.9951 12.9891C46.8244 13.0593 46.6714 13.1177 46.6598 13.1177C46.648 13.1177 46.7068 12.9833 46.7833 12.8196C47.4129 11.4927 47.8189 10.1074 47.9188 8.92653C47.9248 8.81544 47.9423 8.72781 47.96 8.72781ZM37.2985 11.1595C37.3161 11.1419 38.134 11.3349 38.5753 11.4575C39.2461 11.6447 40.6699 12.1181 40.6699 12.1532C40.6699 12.159 40.5111 12.2935 40.3229 12.4572C39.5521 13.0943 38.8107 13.7665 37.9222 14.6199C37.6574 14.8714 37.4338 15.0759 37.4221 15.0759C37.4103 15.0759 37.4045 15.0408 37.4103 14.994C37.5456 14.012 37.5163 12.7494 37.328 11.4693C37.3103 11.3056 37.2926 11.1653 37.2985 11.1595ZM54.4853 11.1771C54.497 11.1887 54.1087 11.7966 53.8616 12.1415C53.5086 12.6442 52.9907 13.3107 51.8198 14.772C51.2021 15.5435 50.5077 16.4145 50.2783 16.7068C50.0429 16.999 49.8488 17.2445 49.8428 17.2445C49.837 17.2445 49.7606 17.1393 49.6782 17.0107C49.0191 16.0287 48.2307 15.1694 47.2951 14.3978C47.1186 14.2517 46.9245 14.0938 46.8598 14.0471C46.7951 14.0003 46.7421 13.9536 46.7421 13.9477C46.7421 13.9302 47.7422 13.5034 48.5014 13.1995C49.8312 12.6617 51.6432 12.0188 53.0025 11.6037C53.7145 11.3816 54.4735 11.1653 54.4853 11.1771ZM54.9383 11.2939C54.9618 11.2881 55.1031 11.3583 55.2737 11.4575C56.7035 12.27 58.1038 13.3164 59.2101 14.392C59.5219 14.696 60.2927 15.4909 60.2808 15.4968C60.2808 15.4968 60.0102 15.5201 59.6925 15.5435C57.2154 15.7306 54.0441 16.2508 50.9962 16.9814C50.7903 17.0281 50.6079 17.0691 50.5961 17.0691C50.5844 17.0691 50.8138 16.8411 51.1022 16.5664C52.8908 14.8538 53.7087 13.7724 54.6736 11.8433C54.8089 11.557 54.9266 11.3115 54.9383 11.2939C54.9325 11.2939 54.9325 11.2939 54.9383 11.2939ZM41.8349 12.6267C41.9174 12.6442 42.6823 13.0009 43.2589 13.2872C43.7884 13.5502 44.5828 13.9711 44.6239 14.0061C44.6298 14.012 44.3473 14.1581 44.0003 14.3277C42.8941 14.8771 41.9468 15.3973 40.9583 15.9936C40.6759 16.1631 40.4405 16.3035 40.4346 16.3035C40.4111 16.3035 40.417 16.28 40.5758 15.9936C41.1054 15.035 41.529 13.8893 41.7703 12.7728C41.7938 12.6851 41.8173 12.6267 41.8349 12.6267ZM41.07 12.767C41.0877 12.7845 40.8877 13.5035 40.7642 13.8951C40.5228 14.6375 40.1169 15.5669 39.7227 16.2683C39.6285 16.4319 39.4873 16.6716 39.4108 16.806L39.2637 17.0398L38.9342 16.7243C38.5518 16.356 38.2399 16.128 37.8399 15.9234C37.6809 15.8416 37.5574 15.7714 37.5574 15.7598C37.5574 15.713 38.5635 14.807 39.3343 14.1523C39.8874 13.6788 41.0524 12.7494 41.07 12.767ZM45.7478 14.6784L46.0362 14.8654C46.695 15.2922 47.4716 15.8592 48.066 16.356C48.4013 16.6307 49.0485 17.2094 49.1781 17.3497L49.2486 17.4258L48.7721 17.5602C46.0772 18.3025 43.9944 18.963 41.5643 19.8516C41.2936 19.9509 41.0642 20.0327 41.0465 20.0327C41.0113 20.0327 40.9818 20.0619 41.5879 19.5066C43.1413 18.0863 44.518 16.5196 45.5418 14.994L45.7478 14.6784ZM44.5181 14.9824C44.5298 14.994 43.7237 16.1222 43.2412 16.7593C42.6646 17.5192 41.6408 18.7935 40.9347 19.6235C40.6406 19.9684 40.3876 20.2548 40.3758 20.2607C40.3581 20.2665 40.3522 20.1789 40.3522 20.0444C40.3522 19.337 40.1699 18.583 39.8521 17.9401C39.7168 17.6712 39.6932 17.6069 39.7227 17.5777C39.8345 17.4783 41.5467 16.5079 42.6293 15.9293C43.3589 15.5435 44.5003 14.9707 44.5181 14.9824ZM37.0808 16.7944C37.0985 16.7944 37.2338 16.8645 37.3868 16.9464C37.7633 17.151 38.0987 17.3789 38.3988 17.6245C38.4105 17.6362 38.2576 17.759 38.0575 17.905C37.4986 18.3025 36.6513 18.9397 36.1571 19.3313C35.6392 19.7405 35.6217 19.7522 35.6805 19.6645C36.0689 19.0741 36.2629 18.7409 36.469 18.3143C36.6513 17.9344 36.8337 17.4842 36.9631 17.0926C37.0102 16.9231 37.069 16.7944 37.0808 16.7944ZM39.0637 18.3376C39.093 18.3318 39.1285 18.3843 39.2872 18.6182C39.6226 19.115 39.8815 19.7814 39.9463 20.3192L39.958 20.4361L39.152 20.746C37.7104 21.3012 36.3807 21.8507 35.4803 22.2598C35.2274 22.3768 34.7861 22.5872 34.4978 22.7276C34.2095 22.8736 33.9741 22.9847 33.9741 22.9789C33.9741 22.973 34.1565 22.8386 34.3801 22.6749C36.1395 21.4065 37.6633 20.0152 38.8048 18.6241C38.9284 18.4779 39.0402 18.3434 39.0519 18.3376L39.0637 18.3376ZM38.1517 18.5597C38.1753 18.5831 37.5045 19.3371 37.0456 19.7989C35.91 20.9505 34.7861 21.8507 33.3916 22.7276C33.2151 22.8386 33.0563 22.9379 33.0386 22.9497C32.9974 22.973 33.0503 22.9145 33.6623 22.254C34.0507 21.839 34.3448 21.4883 34.6802 21.0558C34.9038 20.7694 34.945 20.7284 35.2687 20.5004C36.1336 19.8808 38.1282 18.5363 38.1517 18.5597Z" fill="url(#paint2_radial)"/>
<path d="M12.6721 42.7635C12.5636 42.7635 12.455 42.7738 12.3475 42.7738C10.1551 42.8898 8.67652 43.8483 7.81199 45.7201C7.07258 47.413 7.15332 49.6258 7.82029 51.3291C8.59588 52.9933 9.84914 53.8717 11.941 54.2034C12.3836 54.2754 12.6804 54.5168 13.5377 55.5112L14.5925 56.7389H16.5055L15.2334 55.4649C14.5303 54.7664 13.9615 54.1582 13.9615 54.1048C13.9615 54.0514 14.2305 53.9343 14.5561 53.8357C15.6295 53.513 16.5209 52.6892 17.1444 51.4266C17.6491 50.4127 17.7215 50.0993 17.7938 48.8378C17.9831 45.0831 15.9904 42.7356 12.672 42.7624L12.6721 42.7635ZM14.3494 52.5825C13.4187 53.0303 12.0673 53.1197 11.1852 52.7982C10.2731 52.4654 9.39003 51.5244 8.99286 50.459C8.55134 49.2941 8.61438 47.145 9.11904 46.1772C9.93078 44.6362 11.0042 43.9274 12.5729 43.9274C14.8995 43.9274 16.2231 45.3431 16.3958 48.0038C16.5323 50.2249 15.7836 51.8911 14.3504 52.5815L14.3494 52.5825ZM47.3963 45.9707C46.5938 45.9707 45.9796 46.2934 45.5659 46.9291L45.2412 47.4326V46.1237H43.8525V53.9724H45.2403V51.4637C45.2403 49.1697 45.2691 48.9016 45.5918 48.2739C46.0365 47.413 46.8016 46.9837 47.5411 47.1892L48.0374 47.333V45.9728H47.3963V45.9707ZM39.2375 45.8988C38.9654 45.8988 38.6769 45.9348 38.3896 45.9975C36.5312 46.4802 35.4837 48.2472 35.5478 50.0655C35.5478 51.5881 35.8456 52.3492 36.5851 53.1475C38.1 54.3823 39.4701 54.4808 41.319 53.8183C41.6344 53.6848 41.9777 53.5307 41.9777 53.5307V52.2959L41.319 52.6349C39.8227 53.2821 38.6956 53.2821 37.7928 52.5198C37.2169 51.9373 36.9635 51.2387 36.8467 50.4416H42.4461V49.3834C42.4461 47.2261 41.1391 45.8639 39.2363 45.8988H39.2375ZM36.9728 49.3403C36.9728 49.3403 37.1797 47.9945 37.9469 47.4665C38.3162 47.2075 38.7401 47.0823 39.1547 47.0823C39.5705 47.0823 39.9851 47.2158 40.3274 47.4758C41.0306 48.013 41.1484 49.3301 41.1484 49.3301H36.9729V49.3403H36.9728ZM3.49263 47.9247C1.98707 47.0186 1.31905 46.3652 1.40074 45.5947C1.63439 43.463 4.28582 43.7579 5.75414 44.5644L5.76459 43.1303C5.76459 43.1303 4.9528 42.781 3.78942 42.7625C2.00462 42.7358 0.850596 43.3172 0.309848 44.5007C-0.484394 46.2471 0.218865 47.564 2.76067 49.0332C4.18764 49.858 4.81837 50.5741 4.81837 51.3548C4.81837 52.9677 2.8609 53.5307 0.841393 52.5188C0.42577 52.3133 0.0741409 52.1417 0.0555437 52.1417C-0.0168898 52.5989 0.0204476 53.6929 0.0204476 53.6929C0.0204476 53.6929 0.640925 53.9519 1.5715 54.1305C3.87945 54.5876 5.97974 53.5121 6.17825 51.7657C6.35097 50.1261 5.75419 49.2662 3.49273 47.9235L3.49263 47.9247ZM59.6872 45.8803C59.4163 45.8803 59.1288 45.9173 58.8289 45.98C56.9728 46.4628 55.9273 48.2298 55.9986 50.0482C55.9986 51.5686 56.2954 52.3226 57.0348 53.1197C58.5498 54.3556 59.9199 54.4552 61.7781 53.7917C62.0925 53.6582 62.4347 53.5062 62.4347 53.5062V52.2693L61.7771 52.6103C60.2778 53.2555 59.1505 53.2555 58.251 52.4932C57.6718 51.9118 57.4206 51.2214 57.3037 50.4149H62.8939V49.3568C62.8939 47.2098 61.5868 45.8465 59.6841 45.8825L59.6872 45.8803ZM57.4226 49.3218C57.4226 49.3218 57.6315 47.9781 58.3977 47.4397C58.7659 47.1799 59.1898 47.0545 59.6045 47.0545C60.0181 47.0545 60.4348 47.188 60.7772 47.449C61.4804 47.9863 61.5983 49.3125 61.5983 49.3125H57.4237L57.4226 49.3218ZM31.9679 47.9422C30.4623 47.0381 29.7963 46.3826 29.877 45.6121C30.1106 43.4794 32.7621 43.7753 34.2304 44.5818L34.2408 43.1477C34.2408 43.1477 33.4291 42.7984 32.2657 42.7819C30.4809 42.7552 29.3269 43.3367 28.7851 44.5201C27.992 46.2665 28.7044 47.5835 31.2379 49.0526C32.6629 49.8766 33.2936 50.5833 33.2936 51.364C33.2936 52.9769 31.3372 53.5492 29.3176 52.5279C28.904 52.3225 28.5524 52.1529 28.5318 52.1529C28.4593 52.61 28.4967 53.7042 28.4967 53.7042C28.4967 53.7042 29.1098 53.9539 30.0374 54.1418C32.3475 54.6 34.4487 53.5254 34.6463 51.779C34.8179 50.1476 34.2223 49.2878 31.9679 47.944V47.9422H31.9679ZM67.8471 45.9523C67.0446 45.9523 66.4233 46.2758 66.0168 46.9117L65.692 47.413V46.1064H64.3033V53.9529H65.691V51.4443C65.691 49.1513 65.7189 48.8821 66.0427 48.2555C66.4873 47.3957 67.2524 46.9653 67.9918 47.1717L68.4881 47.3155V45.9523H67.8471V45.9523ZM20.924 47.8969V42.898H19.524V53.9704H25.412V52.6627H20.9241V47.8969H20.924ZM53.3029 49.4553L52.1488 52.4386L51.0392 49.4389L49.9121 46.1146H48.4789C49.4076 48.7301 50.4177 51.3908 51.4363 53.9704C51.8779 53.9806 52.3205 53.9704 52.7619 53.9704L54.3204 50.083L55.9077 46.1155H54.5376C54.5376 46.1155 53.9326 47.6915 53.3019 49.4563L53.3029 49.4553ZM24.1503 39.8808C24.3758 39.8808 24.5639 39.809 24.719 39.6549C24.872 39.5028 24.9527 39.324 24.9527 39.1001C24.9527 38.8761 24.872 38.6891 24.719 38.5453C24.5639 38.4015 24.385 38.3295 24.1606 38.3295C23.9332 38.3295 23.7449 38.4015 23.5919 38.5535C23.4368 38.7056 23.3665 38.8926 23.3665 39.1083C23.3665 39.3344 23.4389 39.5212 23.5919 39.6631C23.7367 39.8068 23.9249 39.8788 24.1503 39.8788V39.8808ZM23.654 38.607C23.7884 38.4735 23.9518 38.4118 24.1607 38.4118C24.3572 38.4118 24.5206 38.4735 24.6571 38.607C24.7915 38.7405 24.8639 38.9028 24.8639 39.1001C24.8639 39.2973 24.7915 39.4679 24.6571 39.6014C24.5206 39.7348 24.3572 39.7986 24.1607 39.7986C23.9611 39.7986 23.7987 39.737 23.6644 39.6014C23.5299 39.4679 23.4575 39.2973 23.4575 39.1001C23.4575 38.9028 23.5196 38.7406 23.654 38.607ZM23.9879 39.172H24.0789C24.1431 39.172 24.2061 39.2336 24.2599 39.3508L24.3686 39.5931H24.5391L24.4048 39.3239C24.35 39.2162 24.2962 39.1535 24.2331 39.1359C24.3127 39.1174 24.3758 39.0908 24.4213 39.0373C24.4667 38.9911 24.4833 38.9284 24.4833 38.8575C24.4833 38.7754 24.4574 38.7138 24.4027 38.6685C24.3406 38.6172 24.2413 38.5895 24.1131 38.5895H23.8257V39.5931H23.9704V39.172L23.9879 39.172ZM23.9879 38.7056H24.1142C24.2051 38.7056 24.2693 38.7241 24.3044 38.7508C24.3386 38.7775 24.3479 38.8125 24.3479 38.8761C24.3479 38.9922 24.2754 39.0467 24.1411 39.0467H23.986V38.7056H23.9879ZM0.859847 39.0826C0.859847 38.7333 0.849547 38.4735 0.84125 38.3204H0.849547C0.885692 38.5011 0.930182 38.6357 0.966375 38.7251L2.31062 41.7084H2.53607L3.88031 38.6984C3.9166 38.6163 3.95279 38.493 3.99723 38.3214H4.00753C3.98069 38.6194 3.97139 38.8782 3.97139 39.0846V41.7177H4.43145V37.8036H3.85447L2.6188 40.526C2.57327 40.6338 2.51018 40.7952 2.42954 41.0088H2.41085C2.384 40.903 2.32092 40.7417 2.23098 40.5444L1.02312 37.7943H0.409986V41.7083H0.852551V39.0846L0.859847 39.0826ZM5.43975 39.0899H5.83692V41.5276H5.43975V39.0899ZM5.63831 38.1961C5.7211 38.1961 5.79138 38.1683 5.84513 38.1139C5.89996 38.0604 5.9362 37.9906 5.9362 37.9085C5.9362 37.8283 5.90926 37.7564 5.84622 37.703C5.79038 37.6485 5.719 37.6207 5.63731 37.6207C5.55673 37.6207 5.48434 37.6485 5.43046 37.703C5.37581 37.7564 5.33952 37.8283 5.33952 37.9085C5.33952 37.9979 5.36746 38.0604 5.43046 38.1139C5.49264 38.1683 5.55668 38.1961 5.63731 38.1961H5.63831ZM8.66822 41.5811V41.1516C8.45102 41.3129 8.21731 41.3931 7.97536 41.3931C7.68591 41.3931 7.45106 41.2945 7.2794 41.1056C7.10883 40.9186 7.01784 40.6586 7.01784 40.335C7.01784 39.996 7.10883 39.7267 7.29699 39.5213C7.47795 39.3241 7.71276 39.2254 8.00025 39.2254C8.23495 39.2254 8.46027 39.2974 8.66827 39.4413V38.9842C8.47905 38.8855 8.26295 38.8403 8.01885 38.8403C7.56794 38.8403 7.21645 38.9842 6.9538 39.2616C6.69316 39.539 6.55873 39.916 6.55873 40.3711C6.55873 40.7758 6.67556 41.1159 6.91866 41.3758C7.17196 41.6429 7.49574 41.7785 7.89277 41.7785C8.19976 41.7701 8.45102 41.7064 8.66822 41.5811ZM9.8046 40.2815C9.8046 39.96 9.87699 39.7001 10.0114 39.5212C10.1376 39.36 10.2906 39.2789 10.4716 39.2789C10.6246 39.2789 10.7332 39.3066 10.8128 39.3693V38.9028C10.7508 38.8762 10.6608 38.8669 10.544 38.8669C10.3816 38.8669 10.2369 38.9212 10.1097 39.021C9.97527 39.1267 9.86774 39.2881 9.80465 39.4936H9.79435V38.9213H9.34454V41.7156H9.79535V40.2815H9.8046ZM12.3929 41.7711C12.8169 41.7711 13.1581 41.6354 13.4115 41.3664C13.6637 41.0991 13.7899 40.7397 13.7899 40.2917C13.7899 39.8347 13.6741 39.4853 13.4383 39.2253C13.2047 38.9656 12.8799 38.8401 12.4559 38.8401C12.0319 38.8401 11.6906 38.9655 11.4373 39.2079C11.1664 39.4751 11.0237 39.8521 11.0237 40.336C11.0237 40.7571 11.1395 41.1065 11.3836 41.3664C11.6359 41.6354 11.9699 41.77 12.3929 41.77V41.7711ZM11.7518 39.4946C11.9234 39.3148 12.1489 39.2253 12.428 39.2253C12.7177 39.2253 12.9348 39.3148 13.0961 39.4946C13.2584 39.6826 13.3392 39.9508 13.3392 40.3092C13.3392 40.6502 13.2667 40.9184 13.1137 41.0982C12.9607 41.2862 12.7352 41.3858 12.4373 41.3858C12.1478 41.3858 11.9234 41.2861 11.7518 41.0982C11.5812 40.9092 11.4995 40.6502 11.4995 40.3092C11.4819 39.9702 11.5719 39.6929 11.7518 39.4946ZM15.764 41.5276C15.9357 41.3756 16.0267 41.1887 16.0267 40.9543C16.0267 40.7489 15.9543 40.5784 15.8199 40.4438C15.7102 40.336 15.5407 40.2383 15.2956 40.1397C15.0784 40.0494 14.944 39.9691 14.8716 39.9065C14.7992 39.8346 14.7547 39.7453 14.7547 39.6189C14.7547 39.5028 14.8003 39.4134 14.8893 39.3415C14.9802 39.2697 15.0961 39.2348 15.2512 39.2348C15.4942 39.2348 15.702 39.2984 15.8922 39.433V38.9851C15.7102 38.8948 15.5127 38.8516 15.2873 38.8516C14.9978 38.8516 14.7537 38.9308 14.5737 39.0837C14.3845 39.2359 14.2946 39.4331 14.2946 39.6652C14.2946 39.8706 14.3566 40.0412 14.4744 40.1665C14.5737 40.2733 14.7434 40.3823 14.979 40.4798C15.2046 40.5785 15.3576 40.6678 15.4392 40.7396C15.5198 40.8116 15.556 40.9009 15.556 41.0069C15.556 41.2677 15.3762 41.4024 15.0245 41.4024C14.7536 41.4024 14.5107 41.314 14.2934 41.1353V41.618C14.4899 41.7352 14.7257 41.7886 14.9862 41.7886C15.3203 41.7711 15.5818 41.69 15.7618 41.5287L15.764 41.5276ZM17.9108 38.8402C17.4867 38.8402 17.1455 38.9656 16.8922 39.208C16.6233 39.4752 16.4786 39.8522 16.4786 40.3361C16.4786 40.7572 16.5955 41.1066 16.8384 41.3665C17.0918 41.6355 17.4247 41.7701 17.8487 41.7701C18.283 41.7701 18.614 41.6346 18.8673 41.3653C19.1206 41.0983 19.2468 40.7387 19.2468 40.2908C19.2468 39.8336 19.1289 39.4844 18.8951 39.2244C18.6512 38.9645 18.3264 38.8392 17.9128 38.8392L17.9108 38.8402ZM18.7856 40.3093C18.7856 40.6503 18.7132 40.9185 18.5601 41.0982C18.4071 41.2863 18.1816 41.3858 17.8838 41.3858C17.5941 41.3858 17.3698 41.2862 17.1981 41.0982C17.0275 40.9092 16.9459 40.6503 16.9459 40.3093C16.9459 39.9497 17.0359 39.6724 17.2169 39.4853C17.3874 39.3066 17.6129 39.2162 17.8931 39.2162C18.1723 39.2162 18.3967 39.3065 18.559 39.4853C18.7038 39.6825 18.7845 39.9507 18.7845 40.3093H18.7856ZM20.0038 41.7074H20.4536V39.2882H21.1122V38.9121H20.4535V38.4806C20.4535 38.0883 20.6065 37.891 20.923 37.891C21.0295 37.891 21.1381 37.9177 21.2188 37.963V37.5593C21.1381 37.5233 21.0295 37.5151 20.8939 37.5151C20.651 37.5151 20.4525 37.5871 20.2901 37.7391C20.1008 37.9178 20.0006 38.15 20.0006 38.4644V38.9226H19.5248V39.2986H20.0006V41.7087L20.0038 41.7074ZM21.8516 40.9451C21.8516 41.4917 22.0947 41.7701 22.591 41.7701C22.7709 41.7701 22.9063 41.7414 23.0149 41.6777V41.2935C22.9322 41.3551 22.834 41.3839 22.7254 41.3839C22.5725 41.3839 22.4649 41.3478 22.4017 41.2667C22.3376 41.1867 22.3015 41.051 22.3015 40.864V39.2871H23.0149V38.9111H22.3015V38.0873C22.1463 38.1406 21.9944 38.1859 21.8506 38.231V38.911H21.3645V39.2871H21.8506V40.9441L21.8516 40.9451ZM70.2461 46.096C70.0931 45.9523 69.9121 45.8803 69.6878 45.8803C69.4603 45.8803 69.272 45.9523 69.119 46.1063C68.966 46.2573 68.8935 46.4453 68.8935 46.6611C68.8935 46.8851 68.966 47.0721 69.1179 47.2158C69.271 47.3596 69.4591 47.4316 69.6866 47.4316C69.911 47.4316 70.1003 47.3596 70.2554 47.2076C70.4074 47.0535 70.4881 46.8758 70.4881 46.6529C70.4798 46.4269 70.3981 46.2399 70.2451 46.0961L70.2461 46.096ZM70.1738 47.1542C70.0393 47.2877 69.8759 47.3493 69.6774 47.3493C69.481 47.3493 69.3176 47.2877 69.1811 47.1542C69.0467 47.0186 68.9742 46.8491 68.9742 46.6508C68.9742 46.4555 69.0363 46.2933 69.1728 46.1577C69.3072 46.0243 69.4696 45.9625 69.6774 45.9625C69.8739 45.9625 70.0374 46.0243 70.1738 46.1577C70.3082 46.2933 70.3806 46.4555 70.3806 46.6508C70.3806 46.8584 70.3185 47.0186 70.1738 47.1542ZM69.7684 46.697C69.849 46.6785 69.9132 46.6426 69.9576 46.5984C70.0032 46.5521 70.0198 46.4894 70.0198 46.4177C70.0198 46.3375 69.9939 46.2738 69.9391 46.2297C69.8771 46.1783 69.7768 46.1505 69.6497 46.1505H69.3622V47.1531H69.507V46.7319H69.5969C69.659 46.7319 69.7211 46.7935 69.7768 46.9107L69.8843 47.1521H70.0561L69.9217 46.8828C69.8751 46.7657 69.8213 46.7123 69.7666 46.6948L69.7684 46.697ZM69.6691 46.6067H69.514V46.2677H69.6412C69.7312 46.2677 69.7943 46.2841 69.8305 46.3119C69.8666 46.3385 69.8749 46.3735 69.8749 46.4372C69.8749 46.5533 69.8026 46.6068 69.6682 46.6068L69.6691 46.6067ZM44.5112 38.7961H44.6374V37.7924H44.9713V37.667H44.1773V37.7924H44.5113V38.7961H44.5112ZM45.2764 38.042C45.2764 37.9443 45.2764 37.8642 45.2692 37.8191C45.2775 37.8725 45.2961 37.9085 45.3044 37.9352L45.6922 38.7961H45.7542L46.143 37.9269C46.1534 37.9002 46.1617 37.8653 46.1792 37.8191C46.1709 37.9085 46.1709 37.9802 46.1709 38.0348V38.7951H46.3054V37.667H46.143L45.7915 38.4457C45.7832 38.4735 45.7551 38.5279 45.7376 38.5896H45.7273C45.7201 38.5535 45.7015 38.5176 45.6756 38.4561L45.324 37.6671H45.1421V38.7971H45.2692V38.0431L45.2764 38.042Z" fill="#231F1F"/>
<defs>
<linearGradient id="paint0_linear" x1="31.2237" y1="34.9198" x2="34.0289" y2="33.2513" gradientUnits="userSpaceOnUse">
<stop stop-color="#909CA9"/>
<stop offset="1" stop-color="#EDEDEE"/>
</linearGradient>
<linearGradient id="paint1_linear" x1="31.2877" y1="3.76822" x2="33.5526" y2="3.76822" gradientUnits="userSpaceOnUse">
<stop stop-color="#939FAB"/>
<stop offset="1" stop-color="#DCDEE1"/>
</linearGradient>
<radialGradient id="paint2_radial" cx="0" cy="0" r="1" gradientUnits="userSpaceOnUse" gradientTransform="translate(42.7168 14.0877) rotate(-171.513) scale(2.91964 5.80417)">
<stop stop-color="#EE352C"/>
<stop offset="1" stop-color="#A91D22"/>
</radialGradient>
</defs>
</svg>
