<svg width="54" height="55" viewBox="0 0 54 55" fill="none" xmlns="http://www.w3.org/2000/svg">
<path d="M0 0H54V55H0V0Z" fill="#F7DF1E"/>
<path d="M14.1989 45.9619L18.3312 43.4147C19.1286 44.8544 19.8538 46.0726 21.5934 46.0726C23.2608 46.0726 24.3123 45.4083 24.3123 42.8241V25.2503H29.3869V42.8972C29.3869 48.2504 26.3059 50.6872 21.8108 50.6872C17.7513 50.6872 15.395 48.5459 14.1987 45.9615L14.1989 45.9619ZM32.1432 45.4081L36.275 42.9715C37.3628 44.7807 38.7765 46.1097 41.2774 46.1097C43.3802 46.1097 44.721 45.039 44.721 43.5621C44.721 41.7901 43.3435 41.1623 41.0237 40.1289L39.7553 39.5746C36.094 37.9876 33.6655 35.9938 33.6655 31.785C33.6655 27.9084 36.5653 24.9547 41.0964 24.9547C44.3225 24.9547 46.6424 26.0994 48.3096 29.0898L44.3584 31.6744C43.4882 30.0869 42.5462 29.4593 41.0962 29.4593C39.6099 29.4593 38.6675 30.4193 38.6675 31.6744C38.6675 33.2249 39.61 33.8529 41.7847 34.8128L43.0533 35.3665C47.367 37.2496 49.7955 39.1692 49.7955 43.4884C49.7955 48.1407 46.207 50.6878 41.386 50.6878C36.6739 50.6878 33.629 48.3989 32.143 45.4083" fill="black"/>
</svg>
