<svg width="160" height="160" viewBox="0 0 160 160" fill="none" xmlns="http://www.w3.org/2000/svg">
<rect width="160" height="160" rx="20" fill="#EEEDF5" fill-opacity="0.4"/>
<g clip-path="url(#clip0)">
<path d="M118.186 68.0573C117.8 66.8213 116.485 66.1334 115.25 66.5192C115.093 66.568 114.945 66.6321 114.807 66.709C113.857 67.2382 113.375 68.3765 113.712 69.455C114.774 72.8546 115.312 76.4026 115.312 80C115.312 99.4714 99.4714 115.312 80 115.312C60.5286 115.312 44.6875 99.4714 44.6875 80C44.6875 60.5286 60.5286 44.6875 80 44.6875C89.0704 44.6875 97.7332 48.1726 104.263 54.3469L99.2383 53.0945C97.9822 52.782 96.7102 53.5461 96.3971 54.8022C96.084 56.0583 96.8481 57.3297 98.1042 57.6428L111.607 61.0083C111.614 61.0101 111.621 61.0114 111.628 61.0132C111.809 61.0565 111.992 61.0779 112.174 61.0779C112.795 61.0779 113.4 60.8313 113.845 60.3778C114.427 59.7858 114.653 58.9307 114.438 58.1293L110.851 44.7095C110.517 43.4589 109.232 42.7167 107.982 43.0505C106.732 43.385 105.989 44.6692 106.323 45.9198L107.728 51.1743C100.304 44.035 90.3882 40 80 40C69.3158 40 59.2706 44.1608 51.7157 51.7157C44.1608 59.2706 40 69.3152 40 80C40 90.6842 44.1608 100.729 51.7157 108.284C59.2706 115.839 69.3158 120 80 120C90.6842 120 100.729 115.839 108.284 108.284C115.839 100.729 120 90.6848 120 80C120 75.9277 119.39 71.9098 118.186 68.0573Z" fill="#1A75CF"/>
<path d="M85.3387 81.9078L85.1421 81.9072V69.9706C85.1421 68.958 84.4921 68.0596 83.5302 67.7434C82.5677 67.4279 81.5118 67.7654 80.9112 68.5814L70.4193 82.8368C69.8956 83.5478 69.8162 84.4933 70.2142 85.2812C70.6115 86.0698 71.419 86.5679 72.3022 86.5697L80.4546 86.5856V90.1708C80.4546 91.4653 81.5045 92.5145 82.7984 92.5145C84.0929 92.5145 85.1421 91.4653 85.1421 90.1708V86.5947H85.3295H85.3344C86.6265 86.5947 87.6751 85.5486 87.6782 84.2559C87.6806 82.9613 86.6332 81.9103 85.3387 81.9078ZM76.9354 81.8914L80.4546 77.1086V81.8981L76.9354 81.8914Z" fill="#1A75CF"/>
<path d="M68.1548 87.8035H61.2145C62.3156 86.5248 63.6083 85.2711 64.8144 84.1011C67.8643 81.1427 70.4986 78.5884 70.4986 75.619C70.4986 71.1592 66.8688 67.5312 62.4072 67.5312C59.1485 67.5312 56.2243 69.4703 54.9578 72.472C54.4549 73.6647 55.014 75.0392 56.2066 75.5421C57.3986 76.0463 58.7737 75.4866 59.2767 74.2939C59.8083 73.033 61.0375 72.2188 62.4072 72.2188C64.284 72.2188 65.8105 73.744 65.8105 75.619C65.8105 75.6697 65.783 76.15 64.8272 77.3353C64.002 78.3589 62.8112 79.5137 61.5508 80.7362C59.0081 83.2026 56.1267 85.9974 54.7027 89.1938C54.3792 89.9189 54.4451 90.7582 54.8779 91.4235C55.31 92.0894 56.0498 92.491 56.8432 92.491H68.1542C69.4488 92.491 70.498 91.4418 70.498 90.1472C70.498 88.8533 69.4494 87.8035 68.1548 87.8035Z" fill="#1A75CF"/>
<path d="M98.6162 75.6302C97.8319 75.6302 97.0781 75.7767 96.375 76.0435V69.7959C96.375 68.5013 95.3258 67.4521 94.0312 67.4521C92.7367 67.4521 91.6875 68.5013 91.6875 69.7959V90.2036C91.6875 91.4982 92.7367 92.5474 94.0312 92.5474C95.3258 92.5474 96.375 91.4982 96.375 90.2036V83.6405C96.4043 83.4922 96.4208 83.339 96.4208 83.1821C96.4208 81.6294 97.426 80.3177 98.6162 80.3177C99.807 80.3177 100.812 81.6294 100.812 83.1821V90.2036C100.812 91.4982 101.861 92.5474 103.156 92.5474C104.451 92.5474 105.5 91.4982 105.5 90.2036V83.1821C105.5 79.0183 102.412 75.6302 98.6162 75.6302Z" fill="#1A75CF"/>
</g>
<defs>
<clipPath id="clip0">
<rect width="80" height="80" fill="white" transform="translate(40 40)"/>
</clipPath>
</defs>
</svg>
