<svg width="160" height="160" viewBox="0 0 160 160" fill="none" xmlns="http://www.w3.org/2000/svg">
<path d="M0 20C0 8.95431 8.95431 0 20 0H140C151.046 0 160 8.95431 160 20V140C160 151.046 151.046 160 140 160H20C8.95431 160 0 151.046 0 140V20Z" fill="#EEEDF5" fill-opacity="0.4"/>
<path d="M107.826 81.7391C105.869 81.7391 104.062 82.3896 102.608 83.4817V83.4783C102.608 78.6835 98.7076 74.7826 93.9128 74.7826C91.0711 74.7826 88.5441 76.153 86.9563 78.2661C85.3685 76.153 82.8415 74.7826 79.9998 74.7826C78.0432 74.7826 76.2363 75.433 74.7824 76.5252V76.153C81.1545 72.9026 85.2172 66.3461 85.2172 59.1304C85.2172 48.5826 76.6346 40 66.0867 40C55.5389 40 46.9563 48.5826 46.9563 59.1304C46.9563 66.3461 51.0189 72.9026 57.3911 76.153V90.4783C55.9337 89.3756 54.1389 88.6957 52.1737 88.6957C47.3789 88.6957 43.478 92.5965 43.478 97.3913V118.261C43.478 119.221 44.2572 120 45.2172 120C46.1772 120 46.9563 119.221 46.9563 118.261V97.3913C46.9563 94.5148 49.2972 92.1739 52.1737 92.1739C55.0502 92.1739 57.3911 94.5148 57.3911 97.3913V111.304C57.3911 112.264 58.1702 113.043 59.1302 113.043C60.0902 113.043 60.8693 112.264 60.8693 111.304V75.0609V59.1304C60.8693 56.2539 63.2102 53.913 66.0867 53.913C68.9632 53.913 71.3041 56.2539 71.3041 59.1304V75.0609V83.4783V97.3913C71.3041 98.3513 72.0832 99.1304 73.0432 99.1304C74.0032 99.1304 74.7824 98.3513 74.7824 97.3913V83.4783C74.7824 80.6017 77.1232 78.2609 79.9998 78.2609C82.8763 78.2609 85.2172 80.6017 85.2172 83.4783V97.3913C85.2172 98.3513 85.9945 99.1304 86.9563 99.1304C87.918 99.1304 88.6954 98.3513 88.6954 97.3913V83.4783C88.6954 80.6017 91.0363 78.2609 93.9128 78.2609C96.7893 78.2609 99.1302 80.6017 99.1302 83.4783V90.4348V97.3913C99.1302 98.3513 99.9076 99.1304 100.869 99.1304C101.831 99.1304 102.608 98.3513 102.608 97.3913V90.4348C102.608 87.5583 104.949 85.2174 107.826 85.2174C110.702 85.2174 113.043 87.5583 113.043 90.4348V118.261C113.043 119.221 113.821 120 114.782 120C115.744 120 116.522 119.221 116.522 118.261V90.4348C116.522 85.64 112.621 81.7391 107.826 81.7391ZM66.0867 50.4348C61.2919 50.4348 57.3911 54.3357 57.3911 59.1304V72.1374C53.0937 69.2696 50.4345 64.4139 50.4345 59.1304C50.4345 50.5009 57.4572 43.4783 66.0867 43.4783C74.7163 43.4783 81.7389 50.5009 81.7389 59.1304C81.7389 64.4139 79.0798 69.2696 74.7824 72.1374V59.1304C74.7824 54.3357 70.8815 50.4348 66.0867 50.4348Z" fill="#1A75CF"/>
</svg>
