<svg width="61" height="60" viewBox="0 0 61 60" fill="none" xmlns="http://www.w3.org/2000/svg">
<rect x="0.666504" width="60" height="60" rx="30" fill="#FF5630"/>
<g clip-path="url(#clip0)">
<path d="M40.2172 43.2258L38.748 38.89C38.6674 38.6521 38.4442 38.4921 38.1931 38.4921H38.1078V29.9954C38.1078 25.8923 34.7697 22.5542 30.6666 22.5542C26.5634 22.5542 23.2254 25.8923 23.2254 29.9954V38.4921H23.1401C22.889 38.4921 22.6657 38.6521 22.5852 38.89L21.116 43.2258C21.0553 43.4047 21.0847 43.6018 21.1947 43.7553C21.3048 43.9088 21.482 43.9998 21.6709 43.9998H39.6623C39.8512 43.9998 40.0285 43.9088 40.1385 43.7553C40.2485 43.6018 40.2779 43.4047 40.2172 43.2258ZM24.3972 29.9955C24.3972 26.5386 27.2097 23.7261 30.6666 23.7261C34.1235 23.7261 36.9359 26.5386 36.9359 29.9955V38.4922H24.3972V29.9955ZM22.4881 42.828L23.5602 39.664H37.7729L38.845 42.828H22.4881Z" fill="white"/>
<path d="M30.6665 14C30.3429 14 30.0806 14.2624 30.0806 14.5859V18.1015C30.0806 18.4251 30.3429 18.6874 30.6665 18.6874C30.9901 18.6874 31.2524 18.4251 31.2524 18.1015V14.5859C31.2524 14.2624 30.9901 14 30.6665 14Z" fill="white"/>
<path d="M31.0807 19.9699C30.9718 19.8609 30.8206 19.7988 30.6665 19.7988C30.5124 19.7988 30.3612 19.8609 30.2522 19.9699C30.1433 20.0795 30.0806 20.23 30.0806 20.3848C30.0806 20.5389 30.1432 20.6895 30.2522 20.799C30.3612 20.9079 30.5124 20.9701 30.6665 20.9701C30.8206 20.9701 30.9718 20.9079 31.0807 20.799C31.1897 20.6895 31.2524 20.5389 31.2524 20.3848C31.2524 20.23 31.1897 20.0795 31.0807 19.9699Z" fill="white"/>
<path d="M21.2622 29.6831H18.5718C18.2482 29.6831 17.9858 29.9455 17.9858 30.269C17.9858 30.5926 18.2482 30.855 18.5718 30.855H21.2623C21.5858 30.855 21.8482 30.5926 21.8482 30.269C21.8482 29.9455 21.5858 29.6831 21.2622 29.6831Z" fill="white"/>
<path d="M16.6671 29.8548C16.5582 29.7457 16.407 29.6831 16.2529 29.6831C16.0988 29.6831 15.9477 29.7457 15.8387 29.8548C15.7297 29.9638 15.667 30.1149 15.667 30.269C15.667 30.4231 15.7296 30.5743 15.8387 30.6832C15.9477 30.7922 16.0988 30.855 16.2529 30.855C16.407 30.855 16.5582 30.7923 16.6671 30.6832C16.7761 30.5743 16.8389 30.4231 16.8389 30.269C16.8389 30.1149 16.7761 29.9638 16.6671 29.8548Z" fill="white"/>
<path d="M26.7214 19.2141L25.9272 17.2968C25.8034 16.9979 25.4607 16.8561 25.1617 16.9797C24.8627 17.1036 24.7207 17.4463 24.8446 17.7453L25.6387 19.6625C25.7322 19.8882 25.9504 20.0244 26.1803 20.0244C26.255 20.0244 26.331 20.01 26.4043 19.9796C26.7033 19.8557 26.8452 19.5129 26.7214 19.2141Z" fill="white"/>
<path d="M20.0596 25.2416L18.1424 24.4474C17.8433 24.3239 17.5006 24.4657 17.3768 24.7646C17.253 25.0636 17.3949 25.4063 17.6939 25.5301L19.6111 26.3243C19.6845 26.3546 19.7604 26.3691 19.8351 26.3691C20.0651 26.3691 20.2832 26.2329 20.3767 26.0072C20.5005 25.7082 20.3585 25.3655 20.0596 25.2416Z" fill="white"/>
<path d="M43.005 29.6831H40.3145C39.9909 29.6831 39.7285 29.9455 39.7285 30.269C39.7285 30.5926 39.9909 30.855 40.3145 30.855H43.005C43.3285 30.855 43.5909 30.5926 43.5909 30.269C43.5909 29.9455 43.3285 29.6831 43.005 29.6831Z" fill="white"/>
<path d="M45.4943 29.8548C45.3854 29.7458 45.2342 29.6831 45.0801 29.6831C44.926 29.6831 44.7748 29.7457 44.6658 29.8548C44.5568 29.9638 44.4941 30.1149 44.4941 30.269C44.4941 30.4231 44.5568 30.5743 44.6658 30.6832C44.7748 30.7922 44.926 30.855 45.0801 30.855C45.2342 30.855 45.3854 30.7923 45.4943 30.6832C45.6033 30.5743 45.666 30.4231 45.666 30.269C45.666 30.1149 45.6033 29.9638 45.4943 29.8548Z" fill="white"/>
<path d="M42.2534 18.6823C42.0245 18.4536 41.6536 18.4536 41.4247 18.6823L38.5417 21.5654C38.3129 21.7942 38.3129 22.1652 38.5417 22.394C38.6562 22.5085 38.8062 22.5657 38.9561 22.5657C39.1061 22.5657 39.256 22.5084 39.3704 22.394L42.2534 19.511C42.4822 19.2822 42.4822 18.9112 42.2534 18.6823Z" fill="white"/>
<path d="M22.7915 21.5652L19.9085 18.6823C19.6796 18.4536 19.3087 18.4536 19.0798 18.6823C18.851 18.9111 18.851 19.2821 19.0798 19.511L21.9629 22.394C22.0773 22.5084 22.2272 22.5656 22.3772 22.5656C22.5271 22.5656 22.6771 22.5084 22.7915 22.394C23.0203 22.1651 23.0203 21.7941 22.7915 21.5652Z" fill="white"/>
<path d="M36.1709 16.9797C35.8719 16.8562 35.5292 16.9979 35.4053 17.2968L34.6111 19.214C34.4873 19.513 34.6293 19.8557 34.9283 19.9796C35.0016 20.01 35.0775 20.0244 35.1523 20.0244C35.3822 20.0244 35.6003 19.8881 35.6938 19.6625L36.488 17.7453C36.6118 17.4462 36.4699 17.1035 36.1709 16.9797Z" fill="white"/>
<path d="M43.9558 24.7646C43.832 24.4656 43.4892 24.3239 43.1902 24.4475L41.273 25.2417C40.974 25.3656 40.8321 25.7083 40.9559 26.0073C41.0494 26.2329 41.2675 26.3691 41.4975 26.3691C41.5722 26.3691 41.6481 26.3547 41.7215 26.3244L43.6387 25.5302C43.9377 25.4063 44.0796 25.0636 43.9558 24.7646Z" fill="white"/>
<path d="M30.6664 26.2466C29.6972 26.2466 28.9087 27.0351 28.9087 28.0043V30.8168C28.9087 31.786 29.6972 32.5745 30.6664 32.5745C31.6356 32.5745 32.4242 31.786 32.4242 30.8168V28.0043C32.4242 27.0351 31.6357 26.2466 30.6664 26.2466ZM31.2524 30.8168C31.2524 31.1399 30.9895 31.4027 30.6664 31.4027C30.3434 31.4027 30.0805 31.1399 30.0805 30.8168V28.0043C30.0805 27.6813 30.3434 27.4184 30.6664 27.4184C30.9895 27.4184 31.2524 27.6813 31.2524 28.0043V30.8168Z" fill="white"/>
<path d="M30.6664 33.7466C29.6972 33.7466 28.9087 34.5351 28.9087 35.5043C28.9087 36.4736 29.6972 37.2621 30.6664 37.2621C31.6356 37.2621 32.4242 36.4735 32.4242 35.5043C32.4242 34.5351 31.6357 33.7466 30.6664 33.7466ZM30.6664 36.0903C30.3434 36.0903 30.0805 35.8274 30.0805 35.5043C30.0805 35.1812 30.3434 34.9184 30.6664 34.9184C30.9895 34.9184 31.2524 35.1812 31.2524 35.5043C31.2524 35.8274 30.9895 36.0903 30.6664 36.0903Z" fill="white"/>
</g>
<defs>
<clipPath id="clip0">
<rect width="30" height="30" fill="white" transform="translate(15.6665 14)"/>
</clipPath>
</defs>
</svg>
