<svg width="254" height="32" viewBox="0 0 254 32" fill="none" xmlns="http://www.w3.org/2000/svg">
<path d="M7.96002 0.00401048C1.41382 0.00401048 1.23541 0.41235 1.55297 2.36655H3.73406C5.77904 2.36655 6.23429 2.64194 6.23429 4.41141V25.8651C6.23429 28.9106 5.3707 29.2302 0.507814 29.5024C0.361979 30.0931 0.361979 30.821 0.507814 31.2743H17.5868C30.5823 31.2743 35.9459 24.9998 35.9459 15.6371C35.9459 5.91121 30.2583 0 17.1655 0L7.96002 0.00401048ZM11.9137 25.5496V2.68556H16.5968C25.3242 2.68556 29.8678 7.77353 29.8678 16.5042C29.8678 26.2914 24.9143 28.7868 17.1428 28.7868C12.9136 28.7868 11.9154 28.3331 11.9154 25.5622L11.9137 25.5496ZM56.0971 0.321689C53.9582 0.321689 53.37 1.05087 51.8679 4.55092L42.8698 25.8687C41.6414 28.772 41.233 29.0443 37.733 29.5012C37.5969 30.0919 37.5969 30.8198 37.733 31.2731H50.7335C51.8679 31.2731 52.187 30.544 51.8679 29.2278H47.9626C45.4608 29.2278 45.4608 28.5472 46.5043 25.8638L48.3678 20.9054H60.0961L62.9594 27.7706C63.4617 28.9531 62.9594 29.3615 58.0058 29.4976C57.8681 30.0967 57.8681 30.8259 58.0058 31.2792H72.732C73.9148 31.2792 74.1903 30.55 73.9148 29.2375H72.8778C70.5607 29.2375 70.0583 28.8316 69.556 27.6491L59.0559 3.69924C58.3267 2.11085 58.0188 1.34886 57.873 0.345023L56.0971 0.321689ZM54.0959 6.59262L59.0518 18.415H49.3694L54.0959 6.59262ZM78.8684 0.914754C76.9596 0.914754 76.6874 1.7764 76.9596 2.95645H79.1423C81.2326 2.95645 81.6409 3.23172 81.6409 4.86812V26.594C81.6409 28.4575 80.7659 28.9113 77.1362 29.5027C76.9417 30.0945 76.9417 30.8225 77.1362 31.2758H90.942C92.3031 31.2758 92.4327 30.5466 92.1248 29.2317H89.6781C87.766 29.2317 87.3122 28.9133 87.3122 27.3237V5.73013C87.3122 3.82126 87.8956 2.95925 91.8493 2.68374C91.979 2.23007 91.979 1.32261 91.8493 0.912688L78.8684 0.914754ZM133.46 0.914754L122.959 22.7767L111.548 0.912688H102.369C100.473 0.912688 100.198 1.90109 100.473 2.95439C104.978 3.08394 105.253 3.58634 105.107 5.0447L103.244 26.4015C103.114 28.3135 102.693 29.221 97.7021 29.4964C97.5725 30.0797 97.5725 30.6789 97.7021 31.2622H112.61C113.89 31.2622 114.068 30.533 113.744 29.2205H111.297C106.485 29.2205 106.485 28.766 106.614 26.9843L108.073 6.56735L120.631 31.3766C121.668 31.3766 122.041 31.1009 122.867 29.4643L133.784 6.55203L135.825 26.3694C136.052 28.5885 135.417 29.0917 131.601 29.3177L129.144 29.4465C128.966 30.0299 128.966 30.6157 129.144 31.2124H145.186C146.461 31.2124 146.596 30.4832 146.461 29.1707C142.961 28.7161 142.232 28.5873 142.096 27.129L139.909 4.94614C139.776 3.63362 140.05 2.90444 144.267 2.62857C144.459 2.04522 144.459 1.44487 144.267 0.861524L133.46 0.914754ZM155.186 0.914754C153.277 0.914754 153.005 1.7764 153.277 2.95645H155.456C157.368 2.95645 157.957 3.23172 157.957 4.86812V25.685C157.957 28.6391 156.957 29.2305 152.548 29.5027C152.402 30.0945 152.451 30.6827 152.548 31.2758H174.715C175.298 28.4563 176.125 25.8215 177.08 23.0932C177.549 21.7381 176.95 21.1815 175.719 21.1815L175.573 21.1864L174.292 24.0035C172.379 28.0954 171.926 28.3238 168.556 28.3238H165.639C164.358 28.3238 163.581 27.9143 163.581 26.4122V6.32198C163.581 3.36795 164.488 2.95803 169.258 2.68411C169.388 2.23044 169.388 1.32297 169.258 0.913053L155.186 0.914754ZM184.64 0.914754C182.64 0.914754 182.458 1.7764 182.64 2.95645H184.811C186.853 2.95645 187.258 3.23172 187.258 4.86812V25.8685C187.258 28.9116 186.383 29.2306 181.57 29.5028C181.392 30.0943 181.392 30.6825 181.57 31.2756H206.654C207.238 28.4561 208.113 25.6852 209.02 23.0917C209.457 21.7792 208.874 21.1789 207.659 21.1789L207.513 21.1837L206.233 23.9996C204.321 28.0903 203.868 28.3187 200.497 28.3187H196.592C193.498 28.3187 193.092 27.6382 193.092 26.0012V17.9997H197.861C199.044 17.9997 199.635 18.4092 200.227 21.953C200.463 22.06 200.74 22.1074 201.009 22.1074C201.311 22.1074 201.603 22.0587 201.82 21.9615C201.686 19.012 201.686 15.868 201.82 13.0169C201.912 11.6072 201.415 11.2985 200.508 11.2985H199.962L199.654 13.6155C199.512 14.7987 199.24 15.2525 197.878 15.2525H193.105V3.57297H200.381C202.88 3.57297 203.833 4.30215 204.604 7.07303L205.205 9.11473C205.318 9.13114 205.415 9.13114 205.517 9.13114C206.732 9.13114 207.186 8.36951 206.975 7.07315C206.661 5.12868 206.392 2.98975 206.255 0.948054L184.64 0.914754ZM217.184 0.776575C215.32 0.912688 215.001 1.77628 215.32 2.95755H217.501C219.365 2.95755 220.003 3.23281 220.003 5.01529V26.0156C220.003 28.7865 219.093 29.2401 215.137 29.5157C215.001 30.1151 215.047 30.7956 215.137 31.298H229.456C230.776 31.298 230.912 30.5689 230.776 29.2563H228.459C226.094 29.2563 225.686 28.8024 225.686 27.49V20.8144H228.733C231.504 20.8144 231.596 20.9602 232.732 23.0019C233.915 25.0922 235.552 26.9233 237.053 28.2359C240.415 31.1526 243.187 32.0598 247.415 32.0598C252.243 32.0598 253.378 30.8769 252.973 29.2889C249.019 29.2889 247.026 28.8839 241.031 24.0551C239.312 22.6454 235.894 19.5179 235.894 19.5179C239.669 17.9299 242.035 14.8349 242.035 11.027C242.035 4.80468 237.222 0.672667 228.489 0.672667C222.136 0.672667 219.398 0.672667 217.227 0.85083L217.184 0.776575ZM225.734 3.30452H227.287C232.424 3.30452 236.053 5.21739 236.053 11.3486C236.053 17.4797 232.421 18.2138 227.919 18.2138H225.737L225.734 3.30452Z" fill="#656868"/>
</svg>
