<svg width="160" height="160" viewBox="0 0 160 160" fill="none" xmlns="http://www.w3.org/2000/svg">
<rect width="160" height="160" rx="20" fill="#EEEDF5" fill-opacity="0.4"/>
<path d="M100 67.5C97.0333 67.5 94.1332 68.3797 91.6665 70.028C89.1997 71.6762 87.2771 74.0189 86.1418 76.7597C85.0065 79.5006 84.7094 82.5166 85.2882 85.4263C85.867 88.3361 87.2956 91.0088 89.3934 93.1066C91.4912 95.2044 94.1639 96.633 97.0736 97.2118C99.9834 97.7905 102.999 97.4935 105.74 96.3582C108.481 95.2229 110.824 93.3003 112.472 90.8335C114.12 88.3668 115 85.4667 115 82.5C114.996 78.5231 113.414 74.7104 110.602 71.8983C107.79 69.0863 103.977 67.5045 100 67.5ZM100 95C97.5277 95 95.111 94.2669 93.0554 92.8934C90.9998 91.5198 89.3976 89.5676 88.4515 87.2835C87.5054 84.9995 87.2579 82.4861 87.7402 80.0614C88.2225 77.6366 89.413 75.4093 91.1612 73.6612C92.9093 71.913 95.1366 70.7225 97.5614 70.2402C99.9861 69.7579 102.499 70.0054 104.784 70.9515C107.068 71.8976 109.02 73.4998 110.393 75.5554C111.767 77.611 112.5 80.0277 112.5 82.5C112.496 85.814 111.178 88.9913 108.835 91.3347C106.491 93.6781 103.314 94.9962 100 95Z" fill="#1A75CF"/>
<path d="M100 78.75H102.5C102.832 78.75 103.149 78.6183 103.384 78.3839C103.618 78.1495 103.75 77.8315 103.75 77.5C103.75 77.1685 103.618 76.8505 103.384 76.6161C103.149 76.3817 102.832 76.25 102.5 76.25H101.25V75C101.25 74.6685 101.118 74.3505 100.884 74.1161C100.649 73.8817 100.332 73.75 100 73.75C99.6685 73.75 99.3505 73.8817 99.1161 74.1161C98.8817 74.3505 98.75 74.6685 98.75 75V76.465C97.9164 76.7601 97.2138 77.3404 96.7666 78.1033C96.3193 78.8662 96.156 79.7626 96.3055 80.6342C96.4551 81.5058 96.9079 82.2965 97.5839 82.8666C98.2599 83.4368 99.1157 83.7496 100 83.75C100.332 83.75 100.649 83.8817 100.884 84.1161C101.118 84.3505 101.25 84.6685 101.25 85C101.25 85.3315 101.118 85.6495 100.884 85.8839C100.649 86.1183 100.332 86.25 100 86.25H97.5C97.1685 86.25 96.8505 86.3817 96.6161 86.6161C96.3817 86.8505 96.25 87.1685 96.25 87.5C96.25 87.8315 96.3817 88.1495 96.6161 88.3839C96.8505 88.6183 97.1685 88.75 97.5 88.75H98.75V90C98.75 90.3315 98.8817 90.6495 99.1161 90.8839C99.3505 91.1183 99.6685 91.25 100 91.25C100.332 91.25 100.649 91.1183 100.884 90.8839C101.118 90.6495 101.25 90.3315 101.25 90V88.535C102.084 88.2399 102.786 87.6596 103.233 86.8967C103.681 86.1338 103.844 85.2374 103.694 84.3658C103.545 83.4942 103.092 82.7035 102.416 82.1334C101.74 81.5632 100.884 81.2504 100 81.25C99.6685 81.25 99.3505 81.1183 99.1161 80.8839C98.8817 80.6495 98.75 80.3315 98.75 80C98.75 79.6685 98.8817 79.3505 99.1161 79.1161C99.3505 78.8817 99.6685 78.75 100 78.75Z" fill="#1A75CF"/>
<path d="M111.711 98.3311L86.3894 104.938L80.7395 102.677L83.8655 101.9C84.8488 101.654 85.7055 101.051 86.2686 100.208C86.8318 99.3658 87.061 98.3436 86.9116 97.3411C86.7622 96.3386 86.245 95.4276 85.4607 94.7857C84.6764 94.1437 83.6811 93.8167 82.6689 93.8684L61.2744 95L56.25 94.9963V93.75C56.25 93.4185 56.1183 93.1005 55.8839 92.8661C55.6495 92.6317 55.3315 92.5 55 92.5H46.7678L55.5178 83.75H65C65.1642 83.75 65.3267 83.7177 65.4784 83.6549C65.63 83.5921 65.7678 83.5 65.8839 83.3839L84.2677 65H95C95.1642 65 95.3267 64.9677 95.4784 64.9049C95.63 64.842 95.7678 64.75 95.8839 64.6339L113.75 46.7678V51.25C113.75 51.5815 113.882 51.8995 114.116 52.1339C114.351 52.3683 114.668 52.5 115 52.5C115.332 52.5 115.649 52.3683 115.884 52.1339C116.118 51.8995 116.25 51.5815 116.25 51.25V43.75C116.25 43.4185 116.118 43.1005 115.884 42.8661C115.649 42.6317 115.332 42.5 115 42.5H107.5C107.168 42.5 106.851 42.6317 106.616 42.8661C106.382 43.1005 106.25 43.4185 106.25 43.75C106.25 44.0815 106.382 44.3995 106.616 44.6339C106.851 44.8683 107.168 45 107.5 45H111.982L94.4822 62.5H83.75C83.5858 62.5 83.4233 62.5323 83.2716 62.5951C83.12 62.658 82.9822 62.75 82.8661 62.8661L64.4823 81.25H55C54.8358 81.25 54.6733 81.2823 54.5216 81.3451C54.37 81.4079 54.2322 81.5 54.1161 81.6161L42.8661 92.8661C42.7498 92.982 42.6577 93.1198 42.5948 93.2715C42.532 93.4232 42.4998 93.5858 42.5 93.75V116.25C42.5 116.582 42.6317 116.899 42.8661 117.134C43.1005 117.368 43.4185 117.5 43.75 117.5H55C55.3315 117.5 55.6495 117.368 55.8839 117.134C56.1183 116.899 56.25 116.582 56.25 116.25V114.835L63.75 113.771L84.7709 118.717C85.0152 118.774 85.2711 118.757 85.5053 118.667L114.646 107.459C115.791 107.018 116.724 106.156 117.254 105.049C117.783 103.943 117.869 102.675 117.493 101.507C117.118 100.339 116.309 99.3593 115.234 98.7686C114.158 98.178 112.898 98.0214 111.71 98.3311H111.711ZM53.75 115H45V95H53.75V115ZM61.373 97.4983L82.7969 96.3645C83.0826 96.3502 83.3669 96.4138 83.6193 96.5486C83.8717 96.6833 84.0828 96.8841 84.23 97.1295C84.3771 97.3748 84.4548 97.6556 84.4548 97.9417C84.4547 98.2278 84.3769 98.5086 84.2297 98.7539C84.1236 98.9319 83.9833 99.087 83.8168 99.2104C83.6504 99.3338 83.4611 99.4229 83.26 99.4727L70.9475 102.537C70.7872 102.575 70.6362 102.645 70.503 102.743C70.3699 102.84 70.2574 102.963 70.1719 103.104C70.0864 103.245 70.0297 103.401 70.0049 103.564C69.9802 103.727 69.988 103.894 70.0278 104.054C70.0676 104.214 70.1387 104.364 70.237 104.497C70.3352 104.629 70.4587 104.741 70.6003 104.825C70.7419 104.91 70.8989 104.965 71.0621 104.989C71.2253 105.012 71.3915 105.003 71.5512 104.963L76.5891 103.709L85.8422 107.41C86.0902 107.509 86.3634 107.526 86.6219 107.459L112.341 100.75C112.909 100.603 113.513 100.678 114.027 100.962C114.542 101.245 114.929 101.714 115.108 102.274C115.288 102.833 115.247 103.44 114.994 103.97C114.741 104.5 114.295 104.913 113.747 105.125L84.9688 116.195L64.0938 111.283C63.9424 111.248 63.7858 111.24 63.6319 111.262L56.25 112.31V97.4963L61.373 97.4983Z" fill="#1A75CF"/>
</svg>
