<svg width="161" height="160" viewBox="0 0 161 160" fill="none" xmlns="http://www.w3.org/2000/svg">
<rect x="0.5" width="160" height="160" rx="20" fill="#EEEDF5" fill-opacity="0.4"/>
<g clip-path="url(#clip0)">
<path d="M87.1667 70.3003L116.533 76.1336C118.9 76.6336 120.5 78.6336 120.5 81.0003V115C120.5 117.767 118.267 120 115.5 120H85.5C86.4333 120 87.1667 119.267 87.1667 118.334V116.667H115.5C116.4 116.667 117.167 115.934 117.167 115V81.0003C117.167 80.2336 116.633 79.5336 115.867 79.367L87.1667 73.7003V70.3003Z" fill="#1A75CF"/>
<path d="M105.5 86.6665C106.434 86.6665 107.167 87.3998 107.167 88.3332C107.167 89.2665 106.434 89.9998 105.5 89.9998H98.8337C97.9003 89.9998 97.167 89.2665 97.167 88.3332C97.167 87.3998 97.9003 86.6665 98.8337 86.6665H105.5Z" fill="#1A75CF"/>
<path d="M105.5 96.6665C106.434 96.6665 107.167 97.3998 107.167 98.3332C107.167 99.2665 106.434 99.9998 105.5 99.9998H98.8337C97.9003 99.9998 97.167 99.2665 97.167 98.3332C97.167 97.3998 97.9003 96.6665 98.8337 96.6665H105.5Z" fill="#1A75CF"/>
<path d="M105.5 106.667C106.434 106.667 107.167 107.4 107.167 108.333C107.167 109.267 106.434 110 105.5 110H98.8337C97.9003 110 97.167 109.267 97.167 108.333C97.167 107.4 97.9003 106.667 98.8337 106.667H105.5Z" fill="#1A75CF"/>
<path d="M87.1663 118.334C87.1663 119.267 86.433 120 85.4997 120C84.5663 120 83.833 119.267 83.833 118.334V116.667V71.6671C83.833 71.1671 84.0663 70.7005 84.433 70.3671C84.833 70.0671 85.333 69.9338 85.833 70.0338L87.1663 70.3005V73.7005V116.667V118.334Z" fill="#1A75CF"/>
<path d="M83.8337 116.667V118.333C83.8337 119.267 84.567 120 85.5003 120H72.167C73.1003 120 73.8337 119.267 73.8337 118.333V116.667H83.8337Z" fill="#1A75CF"/>
<path d="M75.5003 56.6665C76.4337 56.6665 77.167 57.3998 77.167 58.3332C77.167 59.2665 76.4337 59.9998 75.5003 59.9998H68.8337C67.9003 59.9998 67.167 59.2665 67.167 58.3332C67.167 57.3998 67.9003 56.6665 68.8337 56.6665H75.5003Z" fill="#1A75CF"/>
<path d="M77.167 68.3332C77.167 69.2665 76.4337 69.9998 75.5003 69.9998H68.8337C67.9003 69.9998 67.167 69.2665 67.167 68.3332C67.167 67.3998 67.9003 66.6665 68.8337 66.6665H75.5003C76.4337 66.6665 77.167 67.3998 77.167 68.3332Z" fill="#1A75CF"/>
<path d="M75.5003 76.6665C76.4337 76.6665 77.167 77.3998 77.167 78.3332C77.167 79.2665 76.4337 79.9998 75.5003 79.9998H68.8337C67.9003 79.9998 67.167 79.2665 67.167 78.3332C67.167 77.3998 67.9003 76.6665 68.8337 76.6665H75.5003Z" fill="#1A75CF"/>
<path d="M75.5003 86.6665C76.4337 86.6665 77.167 87.3998 77.167 88.3332C77.167 89.2665 76.4337 89.9998 75.5003 89.9998H68.8337C67.9003 89.9998 67.167 89.2665 67.167 88.3332C67.167 87.3998 67.9003 86.6665 68.8337 86.6665H75.5003Z" fill="#1A75CF"/>
<path d="M60.5 88.3332C60.5 89.2665 59.7667 89.9998 58.8333 89.9998H52.1667C51.2333 89.9998 50.5 89.2665 50.5 88.3332C50.5 87.3998 51.2333 86.6665 52.1667 86.6665H58.8333C59.7667 86.6665 60.5 87.3998 60.5 88.3332Z" fill="#1A75CF"/>
<path d="M58.8333 56.6665C59.7667 56.6665 60.5 57.3998 60.5 58.3332C60.5 59.2665 59.7667 59.9998 58.8333 59.9998H52.1667C51.2333 59.9998 50.5 59.2665 50.5 58.3332C50.5 57.3998 51.2333 56.6665 52.1667 56.6665H58.8333Z" fill="#1A75CF"/>
<path d="M58.8333 66.6665C59.7667 66.6665 60.5 67.3998 60.5 68.3332C60.5 69.2665 59.7667 69.9998 58.8333 69.9998H52.1667C51.2333 69.9998 50.5 69.2665 50.5 68.3332C50.5 67.3998 51.2333 66.6665 52.1667 66.6665H58.8333Z" fill="#1A75CF"/>
<path d="M58.8333 76.6665C59.7667 76.6665 60.5 77.3998 60.5 78.3332C60.5 79.2665 59.7667 79.9998 58.8333 79.9998H52.1667C51.2333 79.9998 50.5 79.2665 50.5 78.3332C50.5 77.3998 51.2333 76.6665 52.1667 76.6665H58.8333Z" fill="#1A75CF"/>
<path d="M70.4997 101.667C70.4997 100.733 69.733 99.9998 68.833 99.9998H58.833C57.8997 99.9998 57.1663 100.733 57.1663 101.667V116.667H53.833V101.667C53.833 98.8998 56.0663 96.6665 58.833 96.6665H68.833C71.5997 96.6665 73.833 98.8998 73.833 101.667V116.667H70.4997V101.667Z" fill="#1A75CF"/>
<path d="M57.1663 116.667H70.4997H73.833V118.333C73.833 119.267 73.0997 120 72.1663 120H55.4997C54.5663 120 53.833 119.267 53.833 118.333V116.667H57.1663Z" fill="#1A75CF"/>
<path d="M46.3333 40.6665L82.9667 46.2331C85.4 46.6331 87.1667 48.6998 87.1667 51.1665V70.2998L85.8333 70.0331C85.3333 69.9331 84.8333 70.0665 84.4333 70.3665C84.0667 70.6998 83.8333 71.1665 83.8333 71.6665V51.1665C83.8333 50.3331 83.2333 49.6331 82.4333 49.4998L45.8 43.9665C45.7 43.9331 45.6 43.9331 45.5 43.9331C45.1 43.9331 44.7333 44.0665 44.4333 44.3331C44.0333 44.6665 43.8333 45.0998 43.8333 45.5998V115C43.8333 115.933 44.6 116.666 45.5 116.666H53.8333V118.333C53.8333 119.266 54.5667 120 55.5 120H45.5C42.7333 120 40.5 117.766 40.5 115V45.5998C40.5 44.1331 41.1333 42.7331 42.2667 41.7998C43.4 40.8331 44.8667 40.4331 46.3333 40.6665Z" fill="#1A75CF"/>
</g>
<defs>
<clipPath id="clip0">
<rect width="80" height="80" fill="white" transform="translate(40.5 40)"/>
</clipPath>
</defs>
</svg>
