<svg width="161" height="160" viewBox="0 0 161 160" fill="none" xmlns="http://www.w3.org/2000/svg">
<rect x="0.5" width="160" height="160" rx="20" fill="#EEEDF5" fill-opacity="0.4"/>
<path d="M123.903 89.3322C123.604 87.6422 122.077 86.0397 120.42 85.6896L115.37 84.7335L114.287 82.4812C114.254 82.4172 114.218 82.36 114.171 82.3028C115.001 81.1648 115.718 79.798 116.104 78.4749C117.266 78.0541 118.189 77.0609 118.464 75.95C118.856 74.3475 118.441 72.8998 117.558 72.5127V70.3951C117.558 65.1364 113.61 61.322 108.162 61.322C102.717 61.322 98.7656 65.1364 98.7656 70.3951L98.9117 72.2433C97.8758 72.8998 97.4575 74.3542 97.8559 75.9466C98.1315 77.0643 99.0578 78.0575 100.041 78.2931C100.588 79.7845 101.312 81.1682 102.146 82.3095C102.096 82.3667 102.066 82.4206 102.033 82.4812L101.166 84.5584L95.8937 85.6896C94.6918 85.9454 93.5662 86.878 92.9188 88.0058L91.4479 87.6927L89.7381 84.1443C89.6484 83.949 89.4924 83.8177 89.3197 83.7235C90.8105 81.7708 92.0091 79.4546 92.869 77.135C94.3564 76.5896 95.8538 75.243 96.2888 73.4856C96.8698 71.1593 96.2589 69.0787 94.8345 68.1731V64.8401C94.8345 56.8175 88.7984 51 80.4847 51C72.171 51 66.1415 56.8242 66.1415 64.8401V68.1731C64.7172 69.0753 64.1063 71.1525 64.684 73.4856C65.1189 75.2396 66.6263 76.5964 68.1237 77.1417C68.9736 79.4613 70.159 81.7776 71.6497 83.7302C71.4804 83.8278 71.331 83.9558 71.2413 84.1443L69.5348 87.6927L68.0706 88.0092C67.4264 86.878 66.3009 85.9555 65.0957 85.6929L60.0424 84.7368L58.96 82.4846C58.9301 82.424 58.8903 82.3634 58.8438 82.3061C59.6738 81.1682 60.391 79.8014 60.7728 78.4783C61.9349 78.0575 62.8612 77.0643 63.1334 75.9533C63.5285 74.3508 63.1135 72.9032 62.2204 72.516V70.3984C62.2204 65.1398 58.2694 61.3254 52.8243 61.3254C47.3825 61.3254 43.4315 65.1398 43.4315 70.3984L43.5776 72.2467C42.5384 72.9032 42.1233 74.3576 42.5184 75.95C42.794 77.0677 43.7237 78.0608 44.7031 78.2965C45.251 79.7879 45.9748 81.1716 46.8048 82.3129C46.7583 82.3667 46.7218 82.424 46.6919 82.4846L45.8253 84.5584L40.5562 85.6896C38.8995 86.0397 37.3722 87.6422 37.0767 89.3322L36.0507 95.1599C35.8914 96.0722 36.1105 96.9543 36.665 97.6208C37.2194 98.2908 38.0329 98.6645 38.9493 98.6645H55.4273L54.4844 104.034C54.2619 105.337 54.5607 106.579 55.3443 107.525C56.1245 108.465 57.2733 109 58.5782 109H102.418C103.726 109 104.868 108.475 105.655 107.525C106.435 106.583 106.744 105.34 106.515 104.038L105.572 98.6679H122.053C122.966 98.6679 123.783 98.3043 124.338 97.6175C124.892 96.9509 125.105 96.0722 124.952 95.1632L123.903 89.3322ZM101.598 76.9195L101.455 76.6502L101.183 76.7142C100.774 76.7142 99.8912 76.2126 99.7185 75.4786C99.506 74.6033 99.7351 73.9536 100.236 73.9266L100.691 74.169V70.4018C100.691 66.207 103.759 63.2814 108.158 63.2814C112.558 63.2814 115.625 66.207 115.625 70.4018V73.6506L115.858 74.1286L116.316 73.8862C116.582 73.9569 116.811 74.6033 116.595 75.4854C116.416 76.2025 115.529 76.7209 115.078 76.7209L114.805 76.6671L114.722 76.9296C113.916 79.4108 112.232 82.461 109.931 83.5349C109.35 83.811 108.756 83.949 108.158 83.949C107.551 83.949 106.953 83.811 106.366 83.545C104.061 82.4677 102.395 79.4176 101.598 76.9195ZM113.547 85.3462L109.882 87.5008L109.357 86.4269L113.026 84.2655L113.547 85.3462ZM106.947 86.4168L106.429 87.4907L103.115 85.5515L102.727 85.4068L103.274 84.2554L106.947 86.4168ZM89.4924 88.3256L89.6418 88.6354L88.6822 89.201L82.9981 92.5339L81.7431 89.9382L84.5154 88.3155L85.8302 87.5446L87.1417 86.7736L88.3967 86.0363L88.9346 87.1541L89.4924 88.3256ZM69.6709 75.2901C68.8774 75.4618 67.0479 74.4485 66.686 72.9806C66.3142 71.4825 66.6694 70.082 67.4729 69.8463C67.712 69.7756 67.9577 69.8328 68.2067 69.9641V64.8401C68.2067 57.5885 73.7049 53.0907 80.4847 53.0907C87.2678 53.0907 92.7661 57.5885 92.7661 64.8401V69.9641C93.0084 69.8328 93.2541 69.7756 93.4998 69.8463C94.3033 70.0719 94.6619 71.4724 94.2867 72.9806C93.9281 74.435 92.1087 75.4349 91.3118 75.2901C90.0668 79.1247 87.3774 84.2049 83.4828 86.0262C82.5532 86.4673 81.5472 86.7097 80.4814 86.7097C79.399 86.7097 78.3897 86.4673 77.4501 86.033C73.5588 84.2285 70.9226 79.2156 69.6709 75.2901ZM71.4804 88.3256L72.0415 87.1541L72.5794 86.0363L73.8344 86.7736L75.1459 87.5446L76.4573 88.3155L79.2297 89.9382L77.978 92.5339L72.2938 89.201L71.331 88.6354L71.4804 88.3256ZM46.2669 76.9195L46.1242 76.6502L45.8486 76.7142C45.4402 76.7142 44.5604 76.2126 44.3811 75.4786C44.1619 74.6033 44.3977 73.9536 44.899 73.9266L45.3506 74.169V70.4018C45.3506 66.207 48.4217 63.2814 52.8176 63.2814C57.2169 63.2814 60.2881 66.207 60.2881 70.4018V73.6506L60.5238 74.1286L60.9786 73.8862C61.2409 73.9569 61.4767 74.6033 61.2575 75.4854C61.0816 76.2025 60.1918 76.7209 59.7402 76.7209L59.468 76.6671L59.3816 76.9296C58.5748 79.4108 56.8915 82.461 54.5873 83.5349C54.0096 83.811 53.4153 83.949 52.8143 83.949C52.2101 83.949 51.6091 83.811 51.0214 83.545C48.7272 82.4677 47.0638 79.4176 46.2669 76.9195ZM58.2129 85.3462L54.5441 87.5008L54.0229 86.4235L57.695 84.2621L58.2129 85.3462ZM51.6157 86.4168L51.0945 87.4907L47.7843 85.5515L47.3925 85.4068L47.9436 84.2554L51.6157 86.4168ZM55.756 96.7455H45.8818V93.9243C45.8818 93.3991 45.4568 92.9648 44.9322 92.9648C44.4076 92.9648 43.9826 93.3991 43.9826 93.9243V96.7455H38.9426C38.5973 96.7455 38.3018 96.621 38.1126 96.392C37.9233 96.1732 37.8536 95.8534 37.9167 95.5033L38.9393 89.6723C39.102 88.7532 40.0383 87.7735 40.9414 87.5749L45.7091 86.5548L51.0281 89.679C51.1343 89.7497 51.2505 89.7834 51.4896 89.7834C51.5693 89.7834 51.6689 89.7766 51.7851 89.7699C52.0341 89.6925 52.2433 89.5073 52.3595 89.2716L52.8243 88.3054L53.2891 89.2716C53.402 89.5073 53.6145 89.6925 54.1424 89.8103C54.3117 89.8103 54.4711 89.7632 54.6205 89.679L59.8 86.5211L64.7072 87.5715C65.192 87.6691 65.6734 88.0125 66.0519 88.4334L61.2144 89.4736C58.7807 89.9921 56.5329 92.3487 56.098 94.8266L55.756 96.7455ZM104.088 106.209C103.699 106.684 103.102 106.946 102.405 106.946H93.9613V102.001C93.9613 101.435 93.5065 100.971 92.9453 100.971C92.3876 100.971 91.9327 101.435 91.9327 102.001V106.946H69.0301V102.001C69.0301 101.435 68.5752 100.971 68.0174 100.971C67.4596 100.971 67.0048 101.435 67.0048 102.001V106.946H58.5616C57.8676 106.946 57.27 106.684 56.8782 106.209C56.4864 105.731 56.337 105.098 56.4599 104.401L57.4659 98.6746L57.8046 96.7523L58.0801 95.1902C58.3723 93.5304 59.9926 91.8303 61.6228 91.4801L66.8188 90.3692L68.6781 89.9753L69.3687 89.8238C69.4119 89.8574 69.4418 89.8978 69.4949 89.9349L77.895 94.8602C78.051 94.9478 78.2237 94.9983 78.3996 94.9983C78.4992 94.9983 78.5988 94.9848 78.6951 94.9545C78.9641 94.8737 79.1865 94.6784 79.3094 94.4259L80.4847 91.9818L81.6601 94.4259C81.7829 94.6784 82.0053 94.8737 82.2743 94.9545C82.3672 94.9848 82.4702 94.9983 82.5698 94.9983C82.7458 94.9983 82.9151 94.9478 83.0745 94.8602L91.4745 89.9349C91.5276 89.8978 91.5542 89.8574 91.5974 89.8238L92.2879 89.9685L94.1539 90.3692L99.34 91.4801C100.97 91.8303 102.59 93.5203 102.883 95.1902L103.158 96.7523L103.5 98.6746L104.506 104.401C104.629 105.098 104.483 105.734 104.088 106.209ZM122.857 96.392C122.671 96.6176 122.375 96.7422 122.027 96.7422H116.99V93.9176C116.99 93.3957 116.565 92.9615 116.041 92.9615C115.516 92.9615 115.091 93.3957 115.091 93.9176V96.7422H105.213L104.868 94.8333C104.433 92.3487 102.185 89.9887 99.7517 89.4703L94.9209 88.4266C95.296 88.0058 95.7808 87.6658 96.2622 87.5648L101.03 86.5413L106.352 89.6689C106.458 89.7396 106.571 89.7699 106.81 89.7699C106.893 89.7699 106.993 89.7632 107.109 89.7564C107.355 89.6824 107.571 89.4972 107.684 89.2616L108.155 88.2953L108.623 89.2616C108.736 89.4972 108.949 89.6824 109.477 89.8002C109.646 89.8002 109.809 89.7497 109.958 89.6689L115.141 86.511L120.048 87.5614C120.951 87.7533 121.887 88.733 122.053 89.6588L123.076 95.4864C123.116 95.8534 123.046 96.1698 122.857 96.392Z" fill="#1A75CF" stroke="#1A75CF" stroke-width="0.5"/>
</svg>
