<svg width="60" height="60" viewBox="0 0 60 60" fill="none" xmlns="http://www.w3.org/2000/svg">
<rect width="60" height="60" rx="30" fill="#6554C0"/>
<path d="M24.1873 40.3332C23.8321 40.3332 23.5415 40.0438 23.5415 39.6873C23.5415 39.3308 23.8321 39.0415 24.1873 39.0415H26.7707C27.1272 39.0415 27.4165 39.3308 27.4165 39.6873C27.4165 40.0438 27.1272 40.3332 26.7707 40.3332H24.1873Z" fill="white"/>
<path d="M44.8555 45.5C44.6527 45.5 44.4589 45.4031 44.3388 45.2417L40.4638 40.075C40.3811 39.9639 40.3346 39.827 40.3346 39.6875V33.7988C40.3346 32.2113 38.432 30.4921 36.4596 28.813V34.2535L37.5627 35.3565C37.8146 35.6084 37.8146 36.0179 37.5627 36.2697C37.4387 36.3912 37.2772 36.4583 37.1042 36.4583C36.9311 36.4583 36.7696 36.3912 36.6469 36.2697L33.7407 33.3635C33.6038 33.2279 33.4229 33.1517 33.2292 33.1517C33.0509 33.1517 32.8817 33.2162 32.7487 33.3325C32.52 33.6709 32.5304 34.1282 32.7758 34.4562L36.3046 38.6245C36.4041 38.7407 36.4583 38.8892 36.4583 39.0417V40.3333C36.4583 41.067 37.8856 43.1827 38.9009 44.4512C39.123 44.7289 39.0778 45.137 38.8001 45.3592C38.6852 45.4496 38.5431 45.5 38.3971 45.5C38.1995 45.5 38.0161 45.4122 37.8921 45.2585C37.4361 44.6888 35.1667 41.7761 35.1667 40.3333V39.278L33.8737 37.75H18.375C17.6633 37.75 17.0833 37.1713 17.0833 36.4583V18.375C17.0833 17.6633 17.6633 17.0833 18.375 17.0833H32.5833C33.2963 17.0833 33.875 17.6633 33.875 18.375V31.9659C34.1669 32.0641 34.433 32.2281 34.6552 32.449L35.1667 32.9618V17.0833C35.1667 16.3716 34.588 15.7917 33.875 15.7917H17.0833C16.3742 15.7943 15.7943 16.3742 15.7917 17.0859V40.3333C15.7955 41.0425 16.3768 41.625 17.0885 41.6315H32.5833C32.9398 41.6315 33.2292 41.9208 33.2292 42.2773C33.2292 42.6338 32.9398 42.9231 32.5833 42.9231H17.0833C15.6638 42.9128 14.5065 41.7516 14.5 40.3372V17.0833C14.5052 15.6638 15.6625 14.5052 17.0807 14.5H33.875C35.2997 14.5 36.4583 15.6586 36.4583 17.0833V27.1183L36.8652 27.4645C39.3129 29.5389 41.625 31.4983 41.625 33.7988V39.4731L45.3708 44.468C45.4742 44.6049 45.5181 44.7754 45.4935 44.9459C45.469 45.1164 45.3799 45.2688 45.2417 45.3721C45.1293 45.4548 44.995 45.5 44.8555 45.5ZM18.375 36.4583H32.781L31.7683 35.261C31.1496 34.4395 31.1444 33.3183 31.745 32.5187C31.7631 32.4955 31.7838 32.4722 31.8045 32.4503C32.0253 32.2294 32.2914 32.0654 32.5846 31.9659V18.375H18.3763L18.375 36.4583Z" fill="white"/>
<path d="M21.6043 31.2917C21.2491 31.2917 20.9585 31.0023 20.9585 30.6458C20.9585 30.2893 21.2491 30 21.6043 30H29.3543C29.7108 30 30.0002 30.2893 30.0002 30.6458C30.0002 31.0023 29.7108 31.2917 29.3543 31.2917H21.6043Z" fill="white"/>
<path d="M21.6043 27.4167C21.2491 27.4167 20.9585 27.1273 20.9585 26.7708C20.9585 26.4143 21.2491 26.125 21.6043 26.125H29.3543C29.7108 26.125 30.0002 26.4143 30.0002 26.7708C30.0002 27.1273 29.7108 27.4167 29.3543 27.4167H21.6043Z" fill="white"/>
<path d="M21.6043 23.5417C21.2491 23.5417 20.9585 23.2523 20.9585 22.8958C20.9585 22.5393 21.2491 22.25 21.6043 22.25H26.771C27.1275 22.25 27.4168 22.5393 27.4168 22.8958C27.4168 23.2523 27.1275 23.5417 26.771 23.5417H21.6043Z" fill="white"/>
</svg>
