<svg width="160" height="160" viewBox="0 0 160 160" fill="none" xmlns="http://www.w3.org/2000/svg">
<rect width="160" height="160" rx="20" fill="#EEEDF5" fill-opacity="0.4"/>
<g clip-path="url(#clip0)">
<path d="M104.996 102.339L94.7267 99.3192L92.9053 95.6764C92.6111 95.0879 92.0819 94.6389 91.4534 94.4445C90.958 94.2912 90.4247 94.3058 89.939 94.4745V91.8425C93.8539 89.1248 96.6098 84.8484 97.2982 79.9195H97.9948C100.279 79.9195 102.238 78.2225 102.455 76.0558C102.576 74.8416 102.179 73.6292 101.365 72.7297C100.971 72.2944 100.495 71.9497 99.9718 71.7089V66.7078L107.144 59.536C107.524 59.1557 107.597 58.5655 107.32 58.1044L99.8048 45.5793C99.6483 45.3182 99.3961 45.1283 99.1018 45.0499L80.3139 40.0396C80.1159 39.9868 79.9078 39.9868 79.71 40.0396L60.9222 45.0498C60.628 45.1282 60.376 45.318 60.2193 45.5791L52.7041 58.1043C52.4274 58.5654 52.5001 59.1557 52.8804 59.5358L60.0522 66.7077V71.761C58.7038 72.4039 57.7196 73.6775 57.5694 75.1763C57.4477 76.3905 57.8447 77.603 58.6588 78.5027C59.4735 79.403 60.6368 79.9194 61.8503 79.9194H62.725C63.4116 84.8394 66.1572 89.1087 70.0599 91.827V94.4743C69.5742 94.3058 69.0411 94.2911 68.5455 94.4443C67.9171 94.6387 67.3877 95.0878 67.0936 95.6762L65.2722 99.319L55.0029 102.339C51.3313 103.419 48.7671 106.846 48.7671 110.673V118.828C48.7671 119.475 49.2918 120 49.939 120C50.5861 120 51.1108 119.475 51.1108 118.828V110.674C51.1108 109.519 51.4308 108.416 51.9947 107.461L58.6996 113.208C59.5514 113.938 60.0399 115 60.0399 116.122V118.828C60.0399 119.475 60.5646 120 61.2118 120C61.8589 120 62.3836 119.475 62.3836 118.828V116.122C62.3836 114.315 61.5968 112.605 60.2249 111.429L53.535 105.694C54.1569 105.202 54.8752 104.82 55.6644 104.588L65.7722 101.615L69.4627 108.073C69.8227 108.703 70.4391 109.135 71.1541 109.259C71.293 109.283 71.4322 109.295 71.5706 109.295C72.1444 109.295 72.7017 109.092 73.1456 108.711L75.5524 106.648L75.8247 107.465C76.0311 108.085 76.392 108.618 76.8538 109.034L75.102 118.617C74.9856 119.254 75.4075 119.864 76.0441 119.981C76.1153 119.994 76.1863 120 76.2561 120C76.8111 120 77.3042 119.604 77.4075 119.039L79.0653 109.97C79.1473 109.975 79.2297 109.98 79.3128 109.98H80.7119C80.7978 109.98 80.883 109.975 80.9678 109.969L82.617 119.038C82.72 119.604 83.2131 120 83.7686 120C83.8381 120 83.9087 119.994 83.9797 119.981C84.6166 119.865 85.0387 119.255 84.923 118.618L83.1787 109.027C83.6369 108.612 83.995 108.081 84.2003 107.465L84.4672 106.665L86.8544 108.711C87.2981 109.092 87.8556 109.295 88.4294 109.295C88.5676 109.295 88.707 109.283 88.8459 109.259C89.5609 109.136 90.1773 108.703 90.5373 108.073L94.2278 101.615L104.336 104.588C105.125 104.82 105.843 105.202 106.465 105.694L99.7751 111.429C98.4031 112.605 97.6164 114.315 97.6164 116.122V118.828C97.6164 119.475 98.1411 120 98.7882 120C99.4354 120 99.9601 119.475 99.9601 118.828V116.122C99.9601 115 100.449 113.938 101.3 113.208L108.005 107.461C108.569 108.416 108.889 109.519 108.889 110.674V118.828C108.889 119.475 109.414 120 110.061 120C110.708 120 111.233 119.475 111.233 118.828V110.674C111.232 106.846 108.668 103.419 104.996 102.339ZM55.1847 58.5255L61.9849 47.1919L80.012 42.3848L98.0392 47.1919L104.839 58.5255L99.9717 63.3932V57.4546C99.9717 56.1177 98.8842 55.0302 97.5473 55.0302H96.2953C95.6481 55.0302 95.1234 55.5549 95.1234 56.2021C95.1234 56.8493 95.6481 57.374 96.2953 57.374H97.5473C97.5918 57.374 97.6279 57.41 97.6279 57.4546V62.5453H62.3961V57.4546C62.3961 57.41 62.4322 57.374 62.4768 57.374H76.7334C77.6053 58.1522 78.7541 58.6264 80.012 58.6264C81.27 58.6264 82.4187 58.1522 83.2906 57.374H91.2847C91.9319 57.374 92.4565 56.8493 92.4565 56.2021C92.4565 55.5549 91.9319 55.0302 91.2847 55.0302H84.7567C84.8761 54.6058 84.9414 54.1591 84.9414 53.6971V48.6871C84.9414 48.0399 84.4167 47.5152 83.7695 47.5152H76.2544C75.6072 47.5152 75.0825 48.0399 75.0825 48.6871V53.6971C75.0825 54.1591 75.1478 54.6058 75.2672 55.0302H62.4768C61.1399 55.0302 60.0524 56.1177 60.0524 57.4546V63.3932L55.1847 58.5255ZM63.0249 64.8894H96.9992C96.1117 65.7517 94.4314 66.5325 92.9265 67.0341C89.4944 68.1782 84.908 68.8081 80.0122 68.8081C75.1164 68.8081 70.5299 68.1782 67.0977 67.0341C65.5927 66.5325 63.9125 65.7517 63.0249 64.8894ZM65.0624 68.7827V69.98C65.0624 70.7152 64.4642 71.3131 63.7292 71.3131H62.3961V67.3894C63.0825 67.866 63.9561 68.3363 65.0624 68.7827ZM94.9615 68.7827C96.0679 68.3363 96.9415 67.8663 97.6279 67.3894V71.3131H96.2947C95.5595 71.3131 94.9615 70.715 94.9615 69.98V68.7827ZM77.4264 53.6972V49.859H82.5978V53.6971H82.5977C82.5977 55.1229 81.4378 56.2827 80.012 56.2827C78.5863 56.2827 77.4264 55.123 77.4264 53.6972ZM64.9011 77.4952C64.9011 76.848 64.3764 76.3233 63.7292 76.3233C63.0821 76.3233 62.5574 76.848 62.5574 77.4952V77.5758H61.8505C61.2978 77.5758 60.7682 77.3405 60.3969 76.9303C60.0208 76.5147 59.845 75.9749 59.9016 75.4102C60 74.427 60.9347 73.657 62.0296 73.657H63.7292C65.7567 73.657 67.4061 72.0075 67.4061 69.9802V69.5806C70.9239 70.5963 75.3464 71.1519 80.012 71.1519C84.6775 71.1519 89.1 70.5961 92.6178 69.5806V69.98C92.6178 72.0075 94.2673 73.657 96.2947 73.657H98.1734C98.7261 73.657 99.2558 73.8922 99.627 74.3024C100.003 74.7178 100.179 75.2577 100.122 75.8225C100.024 76.8056 99.0892 77.5759 97.9945 77.5759H97.4659V77.5074C97.4659 76.8603 96.9415 76.3356 96.2945 76.3355C96.2943 76.3355 96.2942 76.3355 96.294 76.3355C95.6472 76.3355 95.1226 76.8595 95.1222 77.5066C95.1159 85.8325 88.3376 92.6062 80.0119 92.6062C71.6799 92.6058 64.9011 85.827 64.9011 77.4952ZM71.6199 106.932C71.6113 106.939 71.5916 106.957 71.5536 106.95C71.5161 106.944 71.5025 106.92 71.4974 106.911L67.5505 100.004L69.19 96.7245C69.1938 96.7168 69.2055 96.6937 69.2385 96.6836C69.2714 96.6732 69.2939 96.6859 69.3013 96.6901L77.9581 101.499L71.6199 106.932ZM81.9762 106.724C81.7945 107.27 81.2862 107.636 80.7116 107.636H79.3125C78.7378 107.636 78.2294 107.27 78.0477 106.724L77.4733 105.002L79.9994 102.836L82.5448 105.018L81.9762 106.724ZM88.5016 106.911C88.4964 106.92 88.4826 106.944 88.4453 106.95C88.4076 106.957 88.3878 106.939 88.3791 106.932L82.0409 101.499L83.0741 100.925C83.6398 100.611 83.8436 99.8975 83.5294 99.3317C83.2151 98.7661 82.5017 98.5621 81.9358 98.8764L79.9994 99.9521L72.4036 95.7323V93.2019C74.7044 94.3209 77.2859 94.9495 80.0119 94.9495C82.7275 94.9495 85.3003 94.3248 87.5951 93.2128V95.7323L86.2006 96.5072C85.6348 96.8215 85.4311 97.535 85.7453 98.1007C86.0597 98.6667 86.7731 98.8704 87.3389 98.5561L90.6978 96.69C90.7051 96.6859 90.7278 96.6732 90.7606 96.6834C90.7936 96.6936 90.8051 96.7167 90.809 96.7243L92.4486 100.003L88.5016 106.911Z" fill="#1A75CF"/>
<path d="M72.4971 72.5654C71.8499 72.5654 71.3252 73.0901 71.3252 73.7373V74.9898C71.3252 75.637 71.8499 76.1617 72.4971 76.1617C73.1443 76.1617 73.6689 75.637 73.6689 74.9898V73.7373C73.6689 73.09 73.1443 72.5654 72.4971 72.5654Z" fill="#1A75CF"/>
<path d="M87.5273 72.5654C86.8802 72.5654 86.3555 73.0901 86.3555 73.7373V74.9898C86.3555 75.637 86.8802 76.1617 87.5273 76.1617C88.1745 76.1617 88.6992 75.637 88.6992 74.9898V73.7373C88.6992 73.0903 88.1745 72.5654 87.5273 72.5654Z" fill="#1A75CF"/>
<path d="M82.5173 82.5854H77.5073C76.8601 82.5854 76.3354 83.1101 76.3354 83.7573C76.3354 84.4045 76.8601 84.9292 77.5073 84.9292H82.5173C83.1645 84.9292 83.6892 84.4045 83.6892 83.7573C83.6892 83.1101 83.1645 82.5854 82.5173 82.5854Z" fill="#1A75CF"/>
</g>
<defs>
<clipPath id="clip0">
<rect width="80" height="80" fill="white" transform="translate(40 40)"/>
</clipPath>
</defs>
</svg>
