<svg width="61" height="60" viewBox="0 0 61 60" fill="none" xmlns="http://www.w3.org/2000/svg">
<rect x="0.333496" width="60" height="60" rx="30" fill="#15AE00"/>
<path d="M45.5118 18.9033C46.7948 20.4943 47.6702 22.3482 48.1107 24.4093C48.5499 26.4643 48.5306 28.6217 48.0534 30.8214C47.1674 34.9043 44.7733 38.7192 41.3117 41.5635C37.83 44.4245 33.6388 46 29.5103 46C27.34 46 25.3005 45.5698 23.4482 44.7213C21.6016 43.8752 20.029 42.6571 18.7743 41.101C17.4881 39.5057 16.6125 37.6518 16.172 35.5908C16.1579 35.5248 16.1456 35.4584 16.1324 35.3921H13.0155C12.5876 35.3921 12.2407 35.0453 12.2407 34.6174C12.2407 34.1895 12.5876 33.8426 13.0155 33.8426H15.9123C15.7808 32.3247 15.8857 30.7627 16.2294 29.1786C17.009 25.5855 18.9574 22.2 21.773 19.5008H13.9492C13.5213 19.5008 13.1744 19.154 13.1744 18.7261C13.1744 18.2982 13.5213 17.9513 13.9492 17.9513H23.5853C26.9398 15.3982 30.8837 14 34.7724 14C36.4755 14 38.1102 14.2681 39.6314 14.7968C40.0356 14.9373 40.2493 15.3788 40.1088 15.783C39.9683 16.1872 39.5268 16.4012 39.1226 16.2605C37.7655 15.7888 36.3018 15.5496 34.7724 15.5496C31.0017 15.5496 27.16 17 23.9548 19.6338C20.7617 22.2576 18.5559 25.764 17.7437 29.5072C17.423 30.9851 17.5795 33.9871 17.7158 35.3921C18.1133 37.163 18.8742 38.7562 19.9805 40.1283C21.0833 41.496 22.4671 42.5673 24.0935 43.3125C25.7419 44.0676 27.5643 44.4505 29.5102 44.4505C33.2809 44.4505 37.1227 43.0001 40.3279 40.3663C43.5209 37.7426 45.7268 34.2362 46.539 30.4929C46.9694 28.5095 46.9883 26.5716 46.5954 24.7331C46.2061 22.9117 45.4346 21.2761 44.3023 19.8718L44.2913 19.8584C44.025 19.5235 44.0806 19.0361 44.4156 18.7698C44.7496 18.5041 45.2351 18.5588 45.5019 18.8912L45.5118 18.9033Z" fill="white"/>
<path d="M28.537 35.4936C28.7786 35.4936 29.0216 35.4131 29.2229 35.2477L33.532 31.7072C33.7201 31.5526 33.8505 31.339 33.9022 31.101L36.0717 21.1023C36.1983 20.5187 35.8279 19.943 35.2443 19.8163C34.6609 19.6896 34.0848 20.0602 33.9582 20.6437L31.8684 30.275L27.8499 33.5768C27.3885 33.9559 27.3218 34.6374 27.701 35.0987C27.9147 35.3589 28.2246 35.4936 28.537 35.4936Z" fill="white"/>
<path d="M17.0816 26.167H13.0487C12.6208 26.167 12.2739 26.5139 12.2739 26.9418C12.2739 27.3697 12.6208 27.7165 13.0487 27.7165H17.0816C17.5095 27.7165 17.8563 27.3697 17.8563 26.9418C17.8563 26.5139 17.5095 26.167 17.0816 26.167Z" fill="white"/>
</svg>
