<svg width="66" height="66" viewBox="0 0 66 66" fill="none" xmlns="http://www.w3.org/2000/svg">
<g clip-path="url(#clip0)">
<path d="M55.2762 14.2777C54.6369 12.8855 53.8608 11.5448 52.9688 10.2932C52.0845 9.05309 51.079 7.88777 49.9795 6.83087C48.8786 5.77255 47.6733 4.81349 46.3972 3.97946C45.1081 3.13642 43.7353 2.41325 42.3147 1.82918C39.3615 0.616172 36.2315 0 33.0103 0C29.7038 0 26.4966 0.647109 23.4763 1.92457C22.0262 2.53816 20.6262 3.29871 19.3165 4.18314C18.0197 5.0597 16.8003 6.06517 15.6917 7.17363C14.5831 8.28236 13.5776 9.50181 12.7011 10.7985C11.8168 12.1082 11.0575 13.5069 10.4426 14.9584C9.16646 17.9787 8.51807 21.1859 8.51807 24.4923C8.52322 26.3318 8.87771 28.4098 9.57123 30.6695C10.1926 32.6959 11.0769 34.873 12.2757 37.3262C13.7929 40.4174 15.7755 43.8231 18.1693 47.4505C20.0719 50.3329 22.2504 53.3802 24.6455 56.5089C26.8684 59.4107 28.8449 61.816 30.1996 63.4221H22.4399C21.728 63.4221 21.1509 63.9992 21.1509 64.7112C21.1509 65.4231 21.728 66.0003 22.4399 66.0003H43.5806C44.2925 66.0003 44.8696 65.4231 44.8696 64.7112C44.8696 63.9992 44.2925 63.4221 43.5806 63.4221H35.8214C37.3009 61.6682 39.5321 58.9487 42.0234 55.6568C44.5951 52.2563 46.8947 48.9743 48.858 45.9012C51.333 42.0274 53.3091 38.4311 54.7322 35.2109C55.0184 34.5612 54.7232 33.7981 54.0735 33.5107C53.9072 33.4384 53.7332 33.401 53.554 33.401C53.0423 33.401 52.5795 33.7028 52.3733 34.1707C49.2769 41.1934 43.9183 48.8852 39.9686 54.1008C37.7244 57.0643 35.6876 59.5625 34.3741 61.1352C33.901 61.7011 33.4421 62.2438 33.0103 62.7465C31.0805 60.4984 26.0957 54.5352 21.3881 47.6207C18.333 43.1347 15.9147 39.0162 14.199 35.3784C12.161 31.0717 11.0872 27.3076 11.0962 24.4923C11.0975 18.64 13.3765 13.137 17.5144 8.9965C21.6548 4.85835 27.1579 2.57812 33.0103 2.57812H33.0128C44.7923 2.57812 54.4087 11.7898 54.905 23.5498C54.9333 24.242 55.527 24.784 56.2192 24.784C56.9295 24.7545 57.5102 24.1517 57.4805 23.4415C57.3452 20.2486 56.604 17.1652 55.2762 14.2777V14.2777Z" fill="#1A75CF"/>
<path d="M55.519 30.5225C56.231 30.5225 56.8081 29.9453 56.8081 29.2334C56.8081 28.5215 56.231 27.9443 55.519 27.9443C54.8071 27.9443 54.23 28.5215 54.23 29.2334C54.23 29.9453 54.8071 30.5225 55.519 30.5225Z" fill="#1A75CF"/>
<path d="M33.0103 6.44531C23.0432 6.44531 14.9634 14.5252 14.9634 24.4922C14.9634 34.4592 23.0432 42.5391 33.0103 42.5391C42.9773 42.5391 51.0571 34.4592 51.0571 24.4922C51.0571 14.5252 42.9773 6.44531 33.0103 6.44531ZM33.0103 39.9609C24.4671 39.9609 17.5415 33.0353 17.5415 24.4922C17.5415 15.9491 24.4671 9.02344 33.0103 9.02344C41.5534 9.02344 48.479 15.9491 48.479 24.4922C48.479 33.0353 41.5534 39.9609 33.0103 39.9609Z" fill="#00A330"/>
<path d="M34.0517 14.1797H29.6587C28.9777 14.1797 28.4168 14.7081 28.3696 15.377V32.8711C28.3696 33.5829 28.9467 34.1602 29.6587 34.1602C30.3706 34.1602 30.9478 33.5829 30.9478 32.8711V27.0703H34.0517C37.6 27.0703 40.4868 24.2068 40.4868 20.687C40.4868 17.1597 37.5399 14.1797 34.0517 14.1797ZM34.0517 24.4922H30.9478V16.7578H34.0517C36.1424 16.7578 37.9087 18.5572 37.9087 20.687C37.9087 22.7852 36.1784 24.4922 34.0517 24.4922Z" fill="#1A75CF"/>
</g>
<defs>
<clipPath id="clip0">
<rect width="66" height="66" fill="white"/>
</clipPath>
</defs>
</svg>
