<svg width="80" height="80" viewBox="0 0 80 80" fill="none" xmlns="http://www.w3.org/2000/svg">
<path d="M65.1351 68.1081H14.8649C13.5034 68.1067 12.1981 67.5652 11.2354 66.6025C10.2726 65.6398 9.73117 64.3345 9.72974 62.973V8.37839C9.73117 7.01691 10.2726 5.7116 11.2354 4.74888C12.1981 3.78617 13.5034 3.24469 14.8649 3.24326H65.1351C66.4966 3.24469 67.8019 3.78617 68.7647 4.74888C69.7274 5.7116 70.2688 7.01691 70.2703 8.37839V62.973C70.2688 64.3345 69.7274 65.6398 68.7647 66.6025C67.8019 67.5652 66.4966 68.1067 65.1351 68.1081ZM14.8649 5.40542C14.0767 5.40628 13.321 5.71978 12.7636 6.27713C12.2063 6.83448 11.8928 7.59017 11.8919 8.37839V62.973C11.8928 63.7612 12.2063 64.5169 12.7636 65.0743C13.321 65.6316 14.0767 65.9451 14.8649 65.946H65.1351C65.9234 65.9451 66.6791 65.6316 67.2364 65.0743C67.7938 64.5169 68.1073 63.7612 68.1081 62.973V8.37839C68.1073 7.59017 67.7938 6.83448 67.2364 6.27713C66.6791 5.71978 65.9234 5.40628 65.1351 5.40542H14.8649Z" fill="#2F80ED"/>
<path d="M70.2703 44.3243H9.72974V14.0541H70.2703V44.3243ZM11.8919 42.1622H68.1081V16.2162H11.8919V42.1622Z" fill="#2F80ED"/>
<path d="M56.2162 60.5405C55.1471 60.5405 54.102 60.2235 53.2131 59.6295C52.3242 59.0356 51.6314 58.1914 51.2223 57.2037C50.8131 56.216 50.7061 55.1291 50.9147 54.0806C51.1232 53.032 51.638 52.0689 52.394 51.3129C53.15 50.557 54.1131 50.0421 55.1617 49.8336C56.2102 49.625 57.297 49.732 58.2848 50.1412C59.2725 50.5503 60.1167 51.2431 60.7106 52.132C61.3046 53.0209 61.6216 54.066 61.6216 55.1351C61.6199 56.5682 61.0498 57.9421 60.0365 58.9554C59.0232 59.9687 57.6493 60.5388 56.2162 60.5405ZM56.2162 51.8919C55.5747 51.8919 54.9477 52.0821 54.4143 52.4385C53.881 52.7948 53.4653 53.3014 53.2198 53.894C52.9744 54.4866 52.9101 55.1387 53.0353 55.7678C53.1604 56.397 53.4693 56.9749 53.9229 57.4284C54.3765 57.882 54.9543 58.1909 55.5835 58.316C56.2126 58.4412 56.8647 58.3769 57.4573 58.1315C58.05 57.886 58.5565 57.4703 58.9129 56.937C59.2692 56.4036 59.4594 55.7766 59.4594 55.1351C59.4594 54.2749 59.1177 53.45 58.5095 52.8418C57.9013 52.2336 57.0764 51.8919 56.2162 51.8919Z" fill="#2F80ED"/>
<path d="M23.7838 60.5405C22.7147 60.5405 21.6697 60.2235 20.7807 59.6295C19.8918 59.0356 19.199 58.1914 18.7899 57.2037C18.3808 56.216 18.2737 55.1291 18.4823 54.0806C18.6909 53.032 19.2057 52.0689 19.9616 51.3129C20.7176 50.557 21.6807 50.0421 22.7293 49.8336C23.7778 49.625 24.8647 49.732 25.8524 50.1412C26.8401 50.5503 27.6843 51.2431 28.2783 52.132C28.8722 53.0209 29.1892 54.066 29.1892 55.1351C29.1875 56.5682 28.6175 57.9421 27.6041 58.9554C26.5908 59.9687 25.2169 60.5388 23.7838 60.5405V60.5405ZM23.7838 51.8919C23.1424 51.8919 22.5153 52.0821 21.982 52.4385C21.4486 52.7948 21.0329 53.3014 20.7875 53.894C20.542 54.4866 20.4778 55.1387 20.6029 55.7678C20.728 56.397 21.0369 56.9749 21.4905 57.4284C21.9441 57.882 22.522 58.1909 23.1511 58.316C23.7802 58.4412 24.4323 58.3769 25.025 58.1315C25.6176 57.886 26.1241 57.4703 26.4805 56.937C26.8369 56.4036 27.0271 55.7766 27.0271 55.1351C27.0271 54.2749 26.6854 53.45 26.0771 52.8418C25.4689 52.2336 24.644 51.8919 23.7838 51.8919Z" fill="#2F80ED"/>
<path d="M60.3384 76.7567H53.1762C52.2626 76.7559 51.3866 76.3926 50.7405 75.7467C50.0944 75.1008 49.7309 74.2249 49.7297 73.3113V65.9459H63.7838V73.3113C63.7826 74.2247 63.4193 75.1004 62.7734 75.7463C62.1275 76.3922 61.2518 76.7556 60.3384 76.7567V76.7567ZM51.8919 68.1081V73.3113C51.8925 73.6517 52.028 73.9779 52.2688 74.2185C52.5095 74.459 52.8359 74.5943 53.1762 74.5946H60.3384C60.6785 74.594 61.0046 74.4586 61.2451 74.2181C61.4857 73.9775 61.6211 73.6515 61.6216 73.3113V68.1081H51.8919Z" fill="#2F80ED"/>
<path d="M26.825 76.7567H19.6628C18.7492 76.7559 17.8732 76.3926 17.2271 75.7467C16.581 75.1008 16.2175 74.2249 16.2163 73.3113V65.9459H30.2704V73.3113C30.2692 74.2247 29.9058 75.1004 29.26 75.7463C28.6141 76.3922 27.7384 76.7556 26.825 76.7567ZM18.3785 68.1081V73.3113C18.379 73.6517 18.5146 73.9779 18.7553 74.2185C18.9961 74.459 19.3224 74.5943 19.6628 74.5946H26.825C27.1651 74.594 27.4912 74.4586 27.7317 74.2181C27.9722 73.9775 28.1076 73.6515 28.1082 73.3113V68.1081H18.3785Z" fill="#2F80ED"/>
<path d="M76.7568 32.613H69.1892V30.4508H74.5946V19.4595H70.2703V17.2973H76.7568V32.613Z" fill="#2F80ED"/>
<path d="M10.8107 32.613H3.24316V17.2973H9.72965V19.4595H5.40533V30.4508H10.8107V32.613Z" fill="#2F80ED"/>
<path d="M38.9189 15.1351H41.0811V43.2432H38.9189V15.1351Z" fill="#2F80ED"/>
<path d="M33.5134 54.0541H46.4864V56.2162H33.5134V54.0541Z" fill="#00A330"/>
</svg>
