<svg width="46" height="82" viewBox="0 0 46 82" fill="none" xmlns="http://www.w3.org/2000/svg">
<path d="M17 1L17.5145 0.142507C17.2623 -0.00881446 16.9563 -0.0414372 16.6778 0.0533184C16.3994 0.148074 16.1768 0.360599 16.0692 0.634348L17 1ZM7.97436 23.9744L7.04361 23.6087C6.99785 23.7252 6.97436 23.8492 6.97436 23.9744H7.97436ZM7.97436 62.5385H6.97436C6.97436 62.8897 7.15866 63.2152 7.45986 63.396L7.97436 62.5385ZM24.3846 72.3846L23.8701 73.2421C24.1725 73.4236 24.5482 73.4323 24.8587 73.2651L24.3846 72.3846ZM29.7179 69.5128L30.192 70.3933C30.516 70.2189 30.7179 69.8807 30.7179 69.5128H29.7179ZM29.7179 34.2308L28.775 33.8979C28.7372 34.0049 28.7179 34.1174 28.7179 34.2308H29.7179ZM37.1026 13.3077L38.0456 13.6405C38.1978 13.2091 38.0379 12.7294 37.6573 12.4756L37.1026 13.3077ZM33.4103 10.8462L33.965 10.0141C33.9518 10.0053 33.9384 9.99682 33.9248 9.98866L33.4103 10.8462ZM24.3846 34.2308L23.4517 33.8707C23.4074 33.9856 23.3846 34.1076 23.3846 34.2308H24.3846ZM12.5731 30.4907C12.0935 30.2167 11.4827 30.3833 11.2087 30.8628C10.9347 31.3424 11.1013 31.9532 11.5808 32.2272L12.5731 30.4907ZM20.1962 37.1503C20.6757 37.4243 21.2865 37.2577 21.5605 36.7782C21.8346 36.2987 21.668 35.6878 21.1884 35.4138L20.1962 37.1503ZM1 62.5385L0.532112 61.6547C0.204749 61.828 0 62.1681 0 62.5385H1ZM44.8974 65.4103H45.8974C45.8974 65.0534 45.7073 64.7236 45.3985 64.5448L44.8974 65.4103ZM1 67.4615H0C0 67.8184 0.190147 68.1482 0.498964 68.327L1 67.4615ZM24.3846 81L23.8836 81.8654C24.1795 82.0368 24.5425 82.045 24.846 81.8872L24.3846 81ZM44.8974 70.3333L45.3588 71.2206C45.6898 71.0484 45.8974 70.7064 45.8974 70.3333H44.8974ZM16.0692 0.634348L7.04361 23.6087L8.90511 24.34L17.9308 1.36565L16.0692 0.634348ZM6.97436 23.9744V62.5385H8.97436V23.9744H6.97436ZM7.45986 63.396L23.8701 73.2421L24.8991 71.5271L8.48885 61.681L7.45986 63.396ZM24.8587 73.2651L30.192 70.3933L29.2438 68.6324L23.9105 71.5041L24.8587 73.2651ZM30.6609 34.5636L38.0456 13.6405L36.1596 12.9749L28.775 33.8979L30.6609 34.5636ZM37.6573 12.4756L33.965 10.0141L32.8556 11.6782L36.5479 14.1397L37.6573 12.4756ZM32.4773 10.4861L23.4517 33.8707L25.3175 34.5908L34.3432 11.2062L32.4773 10.4861ZM33.9248 9.98866L17.5145 0.142507L16.4855 1.85749L32.8958 11.7036L33.9248 9.98866ZM25.3846 72.3846V34.2308H23.3846V72.3846H25.3846ZM11.5808 32.2272L20.1962 37.1503L21.1884 35.4138L12.5731 30.4907L11.5808 32.2272ZM0.498964 63.4039L23.8836 76.9424L24.8857 75.2115L1.50104 61.673L0.498964 63.4039ZM24.846 76.9641L45.3588 66.2975L44.4361 64.523L23.9233 75.1897L24.846 76.9641ZM7.50647 57.9624L0.532112 61.6547L1.46789 63.4223L8.44225 59.7299L7.50647 57.9624ZM45.3985 64.5448L30.219 55.7567L29.2169 57.4876L44.3964 66.2757L45.3985 64.5448ZM30.7179 69.5128V56.6221H28.7179V69.5128H30.7179ZM30.7179 56.6221V34.2308H28.7179V56.6221H30.7179ZM0.498964 68.327L23.8836 81.8654L24.8857 80.1346L1.50104 66.5961L0.498964 68.327ZM24.846 81.8872L45.3588 71.2206L44.4361 69.4461L23.9233 80.1128L24.846 81.8872ZM0 62.5385V67.4615H2V62.5385H0ZM23.3846 76.0769V81H25.3846V76.0769H23.3846ZM43.8974 65.4103V70.3333H45.8974V65.4103H43.8974Z" fill="#1A75CF"/>
<path d="M11.2563 24.7949L18.641 5.51282L29.7179 12.0769L22.3333 30.9487L11.2563 24.7949Z" stroke="#00A330" stroke-width="2" stroke-linejoin="round"/>
</svg>
