<svg width="80" height="80" viewBox="0 0 80 80" fill="none" xmlns="http://www.w3.org/2000/svg">
<path d="M31.5639 56.0628C31.2617 56.0628 30.9573 55.9589 30.7089 55.7473L22.1623 48.4699C21.8675 48.2186 21.698 47.8516 21.698 47.4639C21.698 47.0769 21.8683 46.7099 22.1623 46.4586L30.7089 39.1811C31.2639 38.708 32.0975 38.775 32.5707 39.33C33.0431 39.8857 32.9768 40.7193 32.421 41.1918L25.0559 47.4639L32.421 53.736C32.9768 54.2092 33.0431 55.0427 32.5707 55.5977C32.309 55.9051 31.9375 56.0628 31.5639 56.0628Z" fill="#2F80ED"/>
<path d="M48.4359 56.0628C48.0622 56.0628 47.6908 55.9051 47.4299 55.5977C46.9567 55.0427 47.0238 54.2092 47.5787 53.736L54.9439 47.4639L47.5787 41.1918C47.0238 40.7193 46.9567 39.8857 47.4299 39.33C47.9023 38.775 48.7366 38.708 49.2909 39.1811L57.8374 46.4586C58.1323 46.7099 58.3018 47.0769 58.3018 47.4639C58.3018 47.8516 58.1323 48.2186 57.8374 48.4699L49.2909 55.7473C49.0425 55.9589 48.7381 56.0628 48.4359 56.0628V56.0628Z" fill="#2F80ED"/>
<path d="M36.9745 61.5212C36.8838 61.5212 36.7924 61.5116 36.7003 61.4924C35.9868 61.3421 35.5299 60.6412 35.6802 59.9277L41.0067 34.6381C41.1571 33.9246 41.8573 33.4677 42.5714 33.618C43.2849 33.7684 43.7418 34.4686 43.5915 35.1827L38.265 60.4724C38.1338 61.0944 37.5855 61.5212 36.9745 61.5212V61.5212Z" fill="#2F80ED"/>
<path d="M71.1321 75.2992H8.86792C3.97848 75.2992 0 71.3215 0 66.4313V13.5849C0 8.69546 3.97848 4.71698 8.86792 4.71698H71.1321C76.0215 4.71698 80 8.69546 80 13.5849V66.4313C80 71.3215 76.0215 75.2992 71.1321 75.2992ZM8.86792 7.35849C5.43485 7.35849 2.64151 10.1518 2.64151 13.5849V66.4313C2.64151 69.8644 5.43485 72.6577 8.86792 72.6577H71.1321C74.5652 72.6577 77.3585 69.8644 77.3585 66.4313V13.5849C77.3585 10.1518 74.5652 7.35849 71.1321 7.35849H8.86792Z" fill="#2F80ED"/>
<path d="M78.6792 25.866H1.32075C0.591097 25.866 0 25.2749 0 24.5452C0 23.8163 0.591097 23.2245 1.32075 23.2245H78.6792C79.4089 23.2245 80 23.8163 80 24.5452C80 25.2749 79.4089 25.866 78.6792 25.866Z" fill="#2F80ED"/>
<path d="M22.5664 19.546C20.2625 19.546 18.3867 17.6702 18.3867 15.3663C18.3867 13.0616 20.2625 11.1866 22.5664 11.1866C24.8711 11.1866 26.7461 13.0616 26.7461 15.3663C26.7461 17.6702 24.8711 19.546 22.5664 19.546ZM22.5664 13.8281C21.7188 13.8281 21.0282 14.518 21.0282 15.3663C21.0282 16.2146 21.7188 16.9045 22.5664 16.9045C23.4147 16.9045 24.1046 16.2146 24.1046 15.3663C24.1046 14.518 23.4147 13.8281 22.5664 13.8281Z" fill="#00A330"/>
<path d="M9.72436 19.5054C7.41968 19.5054 5.54468 17.6304 5.54468 15.3257C5.54468 13.0211 7.41968 11.1461 9.72436 11.1461C12.0291 11.1461 13.904 13.0211 13.904 15.3257C13.904 17.6304 12.0291 19.5054 9.72436 19.5054ZM9.72436 13.7876C8.87678 13.7876 8.18619 14.4782 8.18619 15.3257C8.18619 16.1741 8.87678 16.8639 9.72436 16.8639C10.5727 16.8639 11.2625 16.1741 11.2625 15.3257C11.2625 14.4782 10.5727 13.7876 9.72436 13.7876Z" fill="#00A330"/>
<path d="M35.4082 19.5858C33.1042 19.5858 31.2292 17.7108 31.2292 15.4061C31.2292 13.1022 33.1042 11.2272 35.4082 11.2272C37.7129 11.2272 39.5879 13.1022 39.5879 15.4061C39.5879 17.7108 37.7129 19.5858 35.4082 19.5858ZM35.4082 13.8679C34.5606 13.8679 33.8708 14.5578 33.8708 15.4061C33.8708 16.2544 34.5606 16.9443 35.4082 16.9443C36.2565 16.9443 36.9464 16.2544 36.9464 15.4061C36.9464 14.5578 36.2565 13.8679 35.4082 13.8679Z" fill="#00A330"/>
</svg>
