<svg width="80" height="80" viewBox="0 0 80 80" fill="none" xmlns="http://www.w3.org/2000/svg">
<g clip-path="url(#clip0)">
<path d="M79.4531 34.9375L30.7031 6.79311C29.3034 5.9877 27.6414 5.7701 26.0815 6.18799C24.5215 6.60589 23.1909 7.62519 22.3813 9.02248L16.7687 18.7431L13.0325 25.2137C12.2266 26.614 12.009 28.2767 12.4272 29.8372C12.8455 31.3977 13.8656 32.7286 15.2638 33.5381L31.9781 43.1875L29.3788 47.62C29.033 48.2067 28.5404 48.6932 27.9495 49.0317C27.3586 49.3703 26.6897 49.5491 26.0087 49.5506H16.25V42.1131C16.25 41.823 16.1348 41.5448 15.9296 41.3397C15.7245 41.1346 15.4463 41.0194 15.1562 41.0194H9.21875V39.6081C9.21726 38.3239 8.70646 37.0928 7.7984 36.1847C6.89035 35.2766 5.65919 34.7658 4.375 34.7644H1.09375C0.950094 34.7643 0.80783 34.7925 0.675093 34.8474C0.542356 34.9024 0.421749 34.9829 0.320169 35.0845C0.218588 35.1861 0.138027 35.3067 0.0830896 35.4395C0.0281526 35.5722 -8.1981e-05 35.7145 1.78792e-07 35.8581V72.9312C-8.1981e-05 73.0749 0.0281526 73.2172 0.0830896 73.3499C0.138027 73.4826 0.218588 73.6032 0.320169 73.7048C0.421749 73.8064 0.542356 73.887 0.675093 73.9419C0.80783 73.9968 0.950094 74.0251 1.09375 74.025H4.375C5.65919 74.0235 6.89035 73.5127 7.7984 72.6046C8.70646 71.6966 9.21726 70.4654 9.21875 69.1812V65.7069H15.1562C15.4463 65.7069 15.7245 65.5916 15.9296 65.3865C16.1348 65.1814 16.25 64.9032 16.25 64.6131V59.2381H26.0087C28.3781 59.2331 30.7054 58.6112 32.7615 57.4337C34.8176 56.2561 36.5316 54.5636 37.735 52.5225L40.3681 48.0325L49.53 53.3219C50.4525 53.8571 51.4998 54.1395 52.5663 54.1406C53.1023 54.1404 53.6361 54.0698 54.1538 53.9306C55.1486 53.666 56.0596 53.1521 56.8006 52.4375C57.999 52.9935 59.3039 53.2822 60.625 53.2837C61.4346 53.2832 62.2407 53.1764 63.0225 52.9662C65.0167 52.4363 66.7726 51.2467 68.0044 49.5912L70.2444 50.8844C70.3688 50.9563 70.5061 51.003 70.6486 51.0218C70.7911 51.0406 70.9358 51.0311 71.0746 50.9939C71.2134 50.9567 71.3435 50.8925 71.4575 50.8049C71.5714 50.7174 71.667 50.6083 71.7387 50.4837L79.8513 36.4331C79.9233 36.3088 79.9702 36.1714 79.9892 36.029C80.0082 35.8865 79.9989 35.7417 79.9619 35.6028C79.925 35.464 79.861 35.3337 79.7737 35.2196C79.6864 35.1054 79.5775 35.0095 79.4531 34.9375V34.9375ZM7.03125 69.1812C7.03059 69.8855 6.75052 70.5608 6.25252 71.0588C5.75452 71.5568 5.07928 71.8368 4.375 71.8375H2.1875V36.9519H4.375C5.07928 36.9525 5.75452 37.2326 6.25252 37.7306C6.75052 38.2286 7.03059 38.9038 7.03125 39.6081V69.1812ZM14.0625 63.5194H9.21875V43.2069H14.0625V63.5194ZM35.8475 51.4156C34.838 53.1284 33.3999 54.5488 31.6748 55.5369C29.9496 56.5251 27.9969 57.047 26.0087 57.0512H16.25V51.7387H26.0087C27.071 51.7364 28.1144 51.4575 29.0361 50.9295C29.9579 50.4015 30.7262 49.6426 31.2656 48.7275L33.875 44.2825L38.4763 46.9387L35.8475 51.4156ZM50.625 51.4275L16.3575 31.6437C15.4611 31.1249 14.8071 30.2717 14.539 29.2713C14.2709 28.2709 14.4106 27.205 14.9275 26.3075L18.115 20.7844L49.5194 38.9156L59.1475 44.4744L55.9594 50L55.955 50.0069C55.8718 50.148 55.7798 50.2837 55.6794 50.4131V50.4175C55.1026 51.1701 54.272 51.6874 53.3422 51.8732C52.4124 52.059 51.4467 51.9006 50.625 51.4275V51.4275ZM62.4606 50.8531C61.028 51.2405 59.5091 51.1605 58.125 50.625L61.0456 45.5669L66.1037 48.4869C65.172 49.6437 63.8952 50.4727 62.4594 50.8531H62.4606ZM70.395 48.4406L63.3219 44.3569L61.1875 43.125L37.0394 29.1837L19.21 18.89L24.2756 10.1162C24.7946 9.22004 25.6479 8.5663 26.6483 8.29845C27.6487 8.0306 28.7145 8.17051 29.6119 8.68748L77.4119 36.2856L70.395 48.4406Z" fill="#2F80ED"/>
<path d="M65.7213 42.4956C66.3582 42.8656 67.0815 43.0607 67.8181 43.0613C68.1879 43.061 68.556 43.0122 68.9131 42.9163C69.8531 42.6645 70.6767 42.0946 71.2437 41.3037C71.8106 40.5127 72.0857 39.5497 72.0222 38.5786C71.9586 37.6076 71.5604 36.6886 70.8952 35.9782C70.2301 35.2679 69.3392 34.8102 68.3744 34.683C67.4097 34.5559 66.4306 34.7672 65.6042 35.281C64.7777 35.7948 64.155 36.5792 63.8421 37.5006C63.5291 38.4221 63.5454 39.4235 63.888 40.3343C64.2307 41.2451 64.8786 42.009 65.7213 42.4956V42.4956ZM66.0769 37.8438C66.2092 37.6144 66.3856 37.4134 66.596 37.2525C66.8063 37.0916 67.0465 36.9739 67.3025 36.9063C67.4737 36.8604 67.6502 36.8371 67.8275 36.8369C68.2723 36.837 68.7047 36.9838 69.0575 37.2546C69.4104 37.5255 69.664 37.9052 69.7791 38.3348C69.8941 38.7645 69.8642 39.2201 69.6939 39.6311C69.5236 40.042 69.2225 40.3852 68.8373 40.6076C68.452 40.8299 68.0042 40.9189 67.5632 40.8608C67.1222 40.8027 66.7127 40.6007 66.3982 40.2861C66.0837 39.9715 65.8818 39.5619 65.8239 39.1209C65.7659 38.6799 65.855 38.2321 66.0775 37.8469L66.0769 37.8438Z" fill="#00A330"/>
<path d="M28.4375 31.4187L19.475 26.2431C19.3506 26.1701 19.213 26.1225 19.07 26.103C18.9271 26.0834 18.7818 26.0924 18.6423 26.1292C18.5029 26.1661 18.3721 26.2302 18.2575 26.3178C18.1429 26.4054 18.0468 26.5148 17.9747 26.6398C17.9025 26.7647 17.8558 26.9026 17.8372 27.0457C17.8187 27.1887 17.8285 27.334 17.8663 27.4732C17.9041 27.6124 17.9691 27.7428 18.0575 27.8568C18.1458 27.9708 18.2559 28.0662 18.3813 28.1375L27.3463 33.3125C27.5965 33.4433 27.8875 33.4723 28.1586 33.3934C28.4297 33.3145 28.6598 33.1339 28.8007 32.8893C28.9417 32.6447 28.9826 32.355 28.9149 32.0809C28.8472 31.8069 28.6762 31.5696 28.4375 31.4187V31.4187Z" fill="#00A330"/>
</g>
<defs>
<clipPath id="clip0">
<rect width="80" height="80" fill="white"/>
</clipPath>
</defs>
</svg>
