<svg width="80" height="80" viewBox="0 0 80 80" fill="none" xmlns="http://www.w3.org/2000/svg">
<g clip-path="url(#clip0)">
<path d="M55.1989 16.1986C54.5517 16.1986 54.027 16.7233 54.027 17.3705V61.9669C54.027 65.1302 51.4536 67.7036 48.2904 67.7036C46.5332 67.7036 33.409 67.7036 31.71 67.7036C28.5468 67.7036 25.9734 65.1302 25.9734 61.9669V58.1536C25.9734 57.5064 25.4487 56.9817 24.8015 56.9817C24.1543 56.9817 23.6296 57.5064 23.6296 58.1536V61.9669C23.6296 66.4225 27.2545 70.0474 31.71 70.0474H34.6832V78.8281C34.6832 79.4753 35.2079 80 35.8551 80H44.1454C44.7926 80 45.3173 79.4753 45.3173 78.8281V70.0474H48.2906C52.7462 70.0474 56.3709 66.4225 56.3709 61.9669V17.3705C56.3707 16.7233 55.8461 16.1986 55.1989 16.1986V16.1986ZM42.9734 77.6563H37.0268V70.0474H42.9734V77.6563Z" fill="#2F80ED"/>
<path d="M48.2904 0H31.7179C31.7153 0 31.7128 0 31.71 0C27.2543 0 23.6296 3.62484 23.6296 8.08047V52.685C23.6296 53.3322 24.1543 53.8569 24.8015 53.8569C25.4487 53.8569 25.9734 53.3322 25.9734 52.685V8.08047C25.9734 4.91719 28.5468 2.34375 31.7181 2.34375H48.2906C51.4537 2.34375 54.0271 4.91719 54.0271 8.08047V11.9017C54.0271 12.5489 54.5518 13.0736 55.199 13.0736C55.8462 13.0736 56.3709 12.5489 56.3709 11.9017V8.08047C56.3707 3.62484 52.7459 0 48.2904 0V0Z" fill="#2F80ED"/>
<path d="M40.0003 23.5738C45.0271 23.5738 49.117 19.4841 49.117 14.457C49.117 9.43002 45.0271 5.34048 40.0003 5.34048C34.9734 5.34048 30.8835 9.43017 30.8835 14.4572C30.8835 19.4842 34.9734 23.5738 40.0003 23.5738V23.5738ZM40.0003 7.68423C43.7348 7.68423 46.7732 10.7225 46.7732 14.4572C46.7732 18.1919 43.7348 21.23 40.0003 21.23C36.2657 21.23 33.2273 18.1917 33.2273 14.457C33.2273 10.7224 36.2657 7.68423 40.0003 7.68423V7.68423Z" fill="#2F80ED"/>
<path d="M40.0003 44.2642C45.0271 44.2642 49.117 40.1745 49.117 35.1475C49.117 30.1204 45.0273 26.0308 40.0003 26.0308C34.9732 26.0308 30.8835 30.1204 30.8835 35.1475C30.8835 40.1744 34.9734 44.2642 40.0003 44.2642V44.2642ZM40.0003 28.3745C43.7348 28.3745 46.7732 31.4128 46.7732 35.1475C46.7732 38.882 43.735 41.9204 40.0003 41.9204C36.2656 41.9204 33.2273 38.8822 33.2273 35.1475C33.2273 31.4128 36.2657 28.3745 40.0003 28.3745V28.3745Z" fill="#2F80ED"/>
<path d="M40.0003 64.707C45.0271 64.707 49.117 60.6173 49.117 55.5903C49.117 50.5633 45.0273 46.4736 40.0003 46.4736C34.9732 46.4736 30.8835 50.5633 30.8835 55.5903C30.8835 60.6172 34.9734 64.707 40.0003 64.707V64.707ZM40.0003 48.8173C43.7348 48.8173 46.7732 51.8556 46.7732 55.5903C46.7732 59.3248 43.735 62.3633 40.0003 62.3633C36.2656 62.3633 33.2273 59.325 33.2273 55.5903C33.2273 51.8556 36.2657 48.8173 40.0003 48.8173V48.8173Z" fill="#00A330"/>
</g>
<defs>
<clipPath id="clip0">
<rect width="80" height="80" fill="white"/>
</clipPath>
</defs>
</svg>
