<svg width="241" height="242" viewBox="0 0 241 242" fill="none" xmlns="http://www.w3.org/2000/svg">
<rect width="240" height="240" rx="68.5714" fill="white"/>
<path fill-rule="evenodd" clip-rule="evenodd" d="M206.782 106.304C209.961 125.165 207.01 144.558 198.371 161.585C189.732 178.612 175.869 192.359 158.853 200.771C141.838 209.183 122.583 211.808 103.968 208.254C85.3528 204.701 68.3761 195.159 55.5751 181.055C42.7741 166.951 34.8363 149.042 32.9479 130.006C31.0595 110.969 35.322 91.826 45.0983 75.438C54.8747 59.0501 69.6399 46.2972 87.1873 39.0851C104.735 31.873 124.122 30.5891 142.452 35.4253C136.716 57.5943 99.4273 69.4572 99.4273 69.4572C88.3725 74.0008 79.0704 82.0352 72.9113 92.3595C66.7522 102.684 64.0668 114.744 65.2565 126.737C66.4462 138.73 71.447 150.013 79.5117 158.898C87.5763 167.784 98.2717 173.795 109.999 176.034C121.727 178.273 133.857 176.619 144.577 171.319C155.297 166.02 164.031 157.359 169.473 146.632C169.473 146.632 183.934 110.23 206.782 106.304Z" fill="#3F474F"/>
<path d="M185.24 61.5942C178.273 53.8452 170.01 47.4134 160.842 42.586C158.532 41.3699 155.72 42.4327 154.648 44.8127L152.42 49.7631C147.291 61.1544 152.848 74.3478 161.201 83.6375C169.552 92.9256 182.173 99.7308 193.975 95.643L198.939 93.924C201.341 93.0919 202.632 90.4706 201.692 88.1084C197.813 78.3662 192.246 69.3859 185.24 61.5942Z" fill="#0080FF"/>
<path d="M104.017 121.169C104.017 130.287 111.28 137.581 120.268 137.581C129.185 137.581 136.519 130.287 136.519 121.169C136.519 112.125 129.185 104.757 120.268 104.757C111.28 104.757 104.017 112.125 104.017 121.169Z" fill="#0080FF"/>
<rect x="101.083" y="101.83" width="37.9331" height="38.3174" rx="18.9666" fill="#0080FF"/>
</svg>
