<svg width="29" height="29" viewBox="0 0 29 29" fill="none" xmlns="http://www.w3.org/2000/svg">
<path d="M14.4832 4.22187e-10C13.9634 4.22187e-10 13.4439 0.0279447 12.9271 0.0836526C12.4534 0.132042 11.9854 0.2114 11.5238 0.307694C11.4345 0.326384 11.3451 0.346103 11.2557 0.366728C8.53585 0.985987 6.05228 2.37663 4.10287 4.37189C3.92159 4.5577 3.74412 4.74902 3.57059 4.94578C-1.69535 10.9913 -1.06339 20.161 4.98216 25.4269C10.77 30.4684 19.4821 30.1329 24.8652 24.6614C25.0468 24.4756 25.2242 24.2843 25.3974 24.0875C27.7214 21.441 29.0021 18.0387 29 14.5167C29 6.49925 22.5006 -6.04859e-05 14.4832 4.22187e-10ZM4.74789 5.09773C4.82435 5.01837 4.90371 4.9424 4.98161 4.86546C5.07162 4.77691 5.16114 4.68787 5.25308 4.60222C5.33388 4.52673 5.41711 4.45415 5.49986 4.3806C5.59325 4.29785 5.68616 4.21511 5.78197 4.13527C5.86616 4.06414 5.95278 3.99591 6.03891 3.92719C6.13569 3.84977 6.23247 3.77235 6.33215 3.69783C6.42022 3.63154 6.50974 3.56718 6.59974 3.50427C6.69991 3.43266 6.80056 3.35911 6.90266 3.29233C6.99411 3.23039 7.08654 3.17039 7.17944 3.11087C7.283 3.04458 7.38703 2.97925 7.49204 2.91731C7.58658 2.86088 7.68172 2.80535 7.77753 2.75086C7.88465 2.68989 7.9922 2.63037 8.10029 2.5723C8.19706 2.52071 8.29384 2.4702 8.39062 2.42084C8.50095 2.3652 8.61224 2.31148 8.72402 2.25874C8.8208 2.21277 8.92145 2.1668 9.02113 2.12325C9.13484 2.07486 9.25001 2.02647 9.36518 1.97808C9.46534 1.93695 9.56502 1.89679 9.66616 1.85808C9.78326 1.81356 9.90181 1.77195 10.0204 1.73033C10.1215 1.69501 10.2226 1.65968 10.3252 1.6263C10.4457 1.58758 10.5672 1.55178 10.6891 1.51645C10.7912 1.48693 10.8923 1.45645 10.9949 1.42887C11.0341 1.41871 11.0733 1.41048 11.1125 1.40032C9.68019 2.79108 8.61726 4.51712 8.01996 6.42213C6.87145 6.11922 5.75959 5.69134 4.70434 5.14611C4.72031 5.12918 4.73386 5.11224 4.74789 5.09773ZM4.05206 5.87679C5.21442 6.50657 6.44701 6.99712 7.7243 7.33814C7.09815 9.5154 6.76947 11.7674 6.74733 14.0328H0.945483C1.05091 11.0454 2.14335 8.17726 4.05206 5.87679ZM4.05206 23.1565C2.14347 20.856 1.05103 17.9878 0.945483 15.0005H6.74733C6.76947 17.2659 7.09809 19.5179 7.7243 21.6952C6.44707 22.0363 5.21448 22.5268 4.05206 23.1565ZM10.992 27.6064C10.8943 27.5817 10.7931 27.5498 10.6925 27.5202C10.5701 27.4844 10.4472 27.4486 10.3262 27.4094C10.2241 27.3765 10.1234 27.3412 10.0228 27.3059C9.90375 27.2647 9.78471 27.2226 9.66712 27.1776C9.56647 27.1394 9.46728 27.0993 9.3676 27.0586C9.25195 27.0102 9.1363 26.9618 9.02161 26.9134C8.9229 26.8699 8.82467 26.8251 8.72692 26.7789C8.61418 26.7257 8.50192 26.6715 8.3882 26.6154C8.29142 26.567 8.19464 26.5186 8.09787 26.4658C7.98851 26.4073 7.88012 26.3473 7.77172 26.2854C7.67495 26.2316 7.58301 26.1765 7.48962 26.1203C7.38316 26.0565 7.27864 25.9907 7.17412 25.9234C7.08218 25.8649 6.99024 25.8053 6.89975 25.7444C6.79669 25.6747 6.69458 25.6021 6.59345 25.5295C6.5049 25.4661 6.41635 25.4027 6.32925 25.336C6.22908 25.2605 6.13085 25.1826 6.03311 25.1042C5.94746 25.0359 5.86229 24.9682 5.77858 24.898C5.6818 24.8177 5.58841 24.734 5.49454 24.6508C5.41227 24.5777 5.32953 24.5056 5.2492 24.4311C5.15678 24.345 5.06726 24.2554 4.97726 24.1669C4.89935 24.0899 4.81999 24.014 4.74354 23.9351C4.72951 23.9201 4.71596 23.9046 4.70192 23.8901C5.75711 23.3446 6.86897 22.9166 8.01754 22.6136C8.61496 24.5185 9.67783 26.2445 11.1101 27.6354C11.0709 27.6252 11.0312 27.617 10.992 27.6064ZM13.9994 28.0274C11.9288 27.7332 10.1138 25.5721 8.97177 22.3808C10.6228 22.0111 12.3077 21.8128 13.9994 21.789V28.0274ZM13.9994 20.8213C12.2048 20.8449 10.4177 21.058 8.66789 21.4571C8.0603 19.3578 7.73979 17.1859 7.71511 15.0005H13.9994V20.8213ZM13.9994 14.0328H7.71511C7.73973 11.8475 8.06024 9.67551 8.66789 7.57621C10.4177 7.97524 12.2048 8.18839 13.9994 8.21204V14.0328ZM13.9994 7.24426C12.3076 7.22067 10.6228 7.02234 8.97177 6.65246C10.1138 3.46121 11.9288 1.30015 13.9994 1.00595V7.24426ZM24.9145 5.87679C26.8231 8.17732 27.9155 11.0455 28.0211 14.0328H22.2192C22.1971 11.7674 21.8685 9.5154 21.2423 7.33814C22.5195 6.99693 23.7521 6.50645 24.9145 5.87679ZM17.9707 1.42645C18.0723 1.45161 18.1734 1.48355 18.2741 1.51307C18.3965 1.54887 18.5194 1.58468 18.6404 1.62388C18.7425 1.65678 18.8431 1.6921 18.9438 1.72743C19.0628 1.76856 19.1819 1.81066 19.2994 1.85566C19.4001 1.89389 19.4993 1.93405 19.599 1.9747C19.7146 2.02309 19.8303 2.07147 19.945 2.11986C20.0437 2.16341 20.1419 2.20823 20.2396 2.25439C20.3524 2.30761 20.4647 2.36181 20.5784 2.41794C20.6751 2.46633 20.7719 2.51472 20.8687 2.56746C20.9781 2.62601 21.0865 2.68602 21.1948 2.74795C21.2916 2.80167 21.3836 2.85683 21.477 2.91296C21.5834 2.97683 21.6879 3.04264 21.7924 3.1099C21.8844 3.16845 21.9763 3.22797 22.0668 3.28894C22.1699 3.35862 22.2715 3.43072 22.3726 3.50331C22.4617 3.5667 22.5502 3.63057 22.6378 3.69686C22.7375 3.77187 22.8352 3.84977 22.9335 3.92816C23.0186 3.99591 23.1043 4.06365 23.188 4.1343C23.2848 4.21463 23.3782 4.29834 23.472 4.38157C23.5543 4.45463 23.637 4.52673 23.7174 4.60125C23.8098 4.68739 23.8993 4.77691 23.9893 4.86546C24.0672 4.9424 24.1466 5.01837 24.223 5.09724C24.2371 5.11224 24.2506 5.12773 24.2646 5.14224C23.2095 5.68771 22.0976 6.11577 20.949 6.41875C20.3505 4.51355 19.2862 2.78769 17.8526 1.39742C17.8918 1.40758 17.9315 1.4158 17.9707 1.42645ZM14.9672 1.00595C17.0377 1.30015 18.8528 3.46121 19.9948 6.65246C18.3438 7.02216 16.6589 7.22049 14.9672 7.24426V1.00595ZM14.9672 8.21204C16.7618 8.18845 18.5489 7.9753 20.2987 7.57621C20.9063 9.67551 21.2268 11.8475 21.2515 14.0328H14.9672V8.21204ZM14.9672 15.0005H21.2515C21.2268 17.1859 20.9063 19.3578 20.2987 21.4571C18.5489 21.0581 16.7618 20.8449 14.9672 20.8213V15.0005ZM14.9672 28.0274V21.789C16.659 21.8126 18.3438 22.011 19.9948 22.3808C18.8528 25.5721 17.0377 27.7332 14.9672 28.0274ZM24.2187 23.9356C24.1422 24.0145 24.0633 24.0904 23.9854 24.1674C23.8954 24.2559 23.8054 24.3454 23.713 24.4316C23.6327 24.5066 23.5499 24.5767 23.4677 24.6517C23.3738 24.735 23.2804 24.8182 23.1846 24.8985C23.0999 24.9692 23.0138 25.0374 22.9277 25.1061C22.8309 25.1835 22.7341 25.261 22.6344 25.3355C22.5464 25.4018 22.4568 25.4661 22.3668 25.529C22.2667 25.6006 22.166 25.6742 22.0639 25.741C21.9725 25.8029 21.88 25.8629 21.7871 25.922C21.6836 25.9887 21.5792 26.0533 21.4741 26.1155C21.3773 26.1721 21.2848 26.2273 21.1895 26.282C21.0824 26.3429 20.9747 26.4025 20.8663 26.4605C20.7695 26.5121 20.6727 26.5626 20.5759 26.612C20.4656 26.6676 20.3543 26.7213 20.2425 26.7741C20.1458 26.8201 20.0451 26.866 19.9454 26.9096C19.8317 26.958 19.7166 27.0063 19.6014 27.0547C19.5012 27.0954 19.4015 27.136 19.3009 27.1743C19.1828 27.2193 19.0643 27.2614 18.9452 27.3025C18.8446 27.3378 18.7439 27.3731 18.6418 27.406C18.5209 27.4452 18.3999 27.481 18.2765 27.5164C18.1754 27.5464 18.0738 27.5764 17.9717 27.604C17.9325 27.6141 17.8933 27.6223 17.8541 27.6325C19.2864 26.2417 20.3493 24.5157 20.9466 22.6107C22.0951 22.9136 23.207 23.3415 24.2622 23.8867C24.2463 23.9041 24.2327 23.9211 24.2187 23.9356ZM24.9145 23.1565C23.7521 22.5267 22.5196 22.0362 21.2423 21.6952C21.8684 19.5179 22.1971 17.2659 22.2192 15.0005H28.0211C27.9157 17.9878 26.8232 20.856 24.9145 23.1565Z" fill="#1A75CF"/>
</svg>
