<svg width="21" height="16" viewBox="0 0 21 16" fill="none" xmlns="http://www.w3.org/2000/svg">
<path d="M21 2.63891V2.30181C21 1.03257 19.9849 0 18.7373 0H2.26269C1.01502 0 0 1.03257 0 2.30181V2.63891V2.64137V13.6983C0 14.9675 1.01502 16 2.26269 16H18.7374C19.985 16 21 14.9675 21 13.6983V2.64137V2.63891ZM2.26269 1.25175H18.7373C19.3065 1.25175 19.7695 1.72279 19.7695 2.30181L11.5296 7.89035C10.9811 8.26233 10.019 8.26228 9.47058 7.89039L1.23048 2.30206C1.23048 1.72308 1.69351 1.25175 2.26269 1.25175ZM18.7374 14.7482H2.26269C1.69351 14.7482 1.23048 14.2773 1.23048 13.6983V3.80646L8.78804 8.93189C9.26809 9.25747 9.88394 9.4202 10.5 9.4202C11.116 9.4202 11.7321 9.25743 12.2121 8.93189L19.7696 3.80646V13.6983C19.7695 14.2773 19.3065 14.7482 18.7374 14.7482Z" fill="#00A330"/>
</svg>
