<svg width="23" height="23" viewBox="0 0 23 23" fill="none" xmlns="http://www.w3.org/2000/svg">
<path d="M19.7332 3.26684C17.6264 1.16007 14.826 0 11.8464 0C11.8462 0 11.8455 0 11.8453 0C10.3717 0.000175476 8.9356 0.2855 7.57724 0.848251C6.2187 1.411 5.0016 2.22469 3.95945 3.26684C1.85285 5.37343 0.692782 8.17438 0.692782 11.1536C0.692782 12.9303 1.12147 14.6959 1.93375 16.2691L0.0589626 21.625C-0.0731709 22.0028 0.0203579 22.4134 0.303576 22.6964C0.501689 22.8947 0.762446 23 1.03057 23C1.14551 23 1.26168 22.9807 1.37503 22.941L6.73091 21.0664C8.30406 21.8787 10.0697 22.3074 11.8464 22.3074C14.8256 22.3074 17.6264 21.1471 19.7332 19.0406C21.8398 16.934 23 14.133 23 11.1538C23 8.17438 21.8399 5.37343 19.7332 3.26684ZM18.7793 18.0867C16.9275 19.9386 14.4652 20.9583 11.8464 20.9583C10.2443 20.9583 8.65273 20.5621 7.24366 19.8121C6.98816 19.6763 6.68617 19.653 6.41506 19.7479L1.54911 21.4509L3.25228 16.5849C3.34721 16.3135 3.3237 16.0115 3.18788 15.7562C2.43807 14.3475 2.04167 12.7559 2.04167 11.1536C2.04167 8.53481 3.06153 6.07253 4.91333 4.22073C6.76496 2.3691 9.22689 1.34924 11.8455 1.34888H11.8464C14.4654 1.34888 16.9275 2.36875 18.7793 4.22073C20.6313 6.07253 21.6511 8.53463 21.6511 11.1536C21.6511 13.7726 20.6313 16.2349 18.7793 18.0867Z" fill="#00A330"/>
<path d="M15.9915 12.15C15.4784 11.6369 14.6435 11.6369 14.1304 12.15L13.5692 12.7111C12.1758 11.9519 11.0482 10.8242 10.2887 9.43079L10.8499 8.86962C11.3631 8.35653 11.3631 7.52161 10.8499 7.00852L9.33762 5.49627C8.82453 4.98318 7.98961 4.98318 7.47652 5.49627L6.26679 6.706C5.57384 7.39896 5.53927 8.59026 6.1694 10.0606C6.71654 11.3372 7.7178 12.7403 8.98878 14.0112C10.2597 15.2822 11.6629 16.2835 12.9394 16.8306C13.638 17.13 14.2734 17.2793 14.8225 17.2793C15.4291 17.2793 15.9303 17.097 16.294 16.7332L17.5038 15.5233V15.5235C17.7524 15.2748 17.8893 14.9444 17.8893 14.5929C17.8893 14.2413 17.7524 13.9109 17.5038 13.6624L15.9915 12.15ZM15.3401 15.7793C15.1424 15.9771 14.5342 16.0464 13.471 15.5909C12.3483 15.1097 11.0952 14.2099 9.94266 13.0574C8.79014 11.9048 7.89047 10.6519 7.40931 9.52924C6.9536 8.46603 7.02292 7.85765 7.22068 7.65989L8.40725 6.47332L9.87282 7.93907L9.17039 8.64168C8.85278 8.95929 8.7761 9.44097 8.97983 9.84035C9.90336 11.6513 11.3488 13.0967 13.1597 14.0202C13.5592 14.2239 14.0409 14.1474 14.3585 13.8296L15.0609 13.1272L16.5267 14.5929L15.3401 15.7793Z" fill="#00A330"/>
</svg>
