<svg width="47" height="46" viewBox="0 0 47 46" fill="none" xmlns="http://www.w3.org/2000/svg">
<path d="M32.8795 2.03703C35.6922 3.31642 38.2143 5.15665 40.2914 7.44506C42.3685 9.73347 43.9568 12.4219 44.9592 15.3458L37.0125 18.0723C36.381 16.2302 35.3803 14.5365 34.0718 13.0948C32.7632 11.6531 31.1743 10.4938 29.4023 9.68775L32.8795 2.03703Z" fill="#00A330"/>
<path d="M23.4817 26.2092C21.5496 26.2092 19.9885 24.6561 19.9885 22.7147C19.9885 20.7888 21.5496 19.2201 23.4817 19.2201C25.3983 19.2201 26.9749 20.7888 26.9749 22.7147C26.9749 24.6561 25.3983 26.2092 23.4817 26.2092Z" fill="#00A330"/>
<path d="M45.8654 18.9039C46.6877 23.738 45.9242 28.7085 43.6891 33.0726C41.4539 37.4367 37.8671 40.96 33.4647 43.116C29.0622 45.272 24.0806 45.9448 19.2642 45.034C14.4479 44.1232 10.0555 41.6776 6.74353 38.0628C3.43154 34.4479 1.37778 29.8579 0.8892 24.9788C0.400621 20.0996 1.50346 15.1933 4.03289 10.993C6.56232 6.79276 10.3825 3.52415 14.9225 1.67568C19.4626 -0.172783 24.4786 -0.501849 29.2211 0.737667L27.0975 8.86915C24.1097 8.08825 20.9496 8.29557 18.0894 9.4601C15.2292 10.6246 12.8225 12.6839 11.2289 15.33C9.63539 17.9762 8.9406 21.0672 9.24841 24.141C9.55621 27.2149 10.8501 30.1066 12.9366 32.384C15.0232 34.6613 17.7904 36.202 20.8247 36.7759C23.859 37.3497 26.9974 36.9258 29.7709 35.5675C32.5445 34.2092 34.8042 31.9895 36.2123 29.2402C37.6205 26.4908 38.1015 23.3594 37.5834 20.3139L45.8654 18.9039Z" fill="#1A75CF"/>
</svg>
