<svg width="222" height="46" viewBox="0 0 222 46" fill="none" xmlns="http://www.w3.org/2000/svg">
<g clip-path="url(#clip0)">
<path d="M116.109 35.5076V0.000610352C111.433 0.000610352 107.639 4.50339 107.639 10.059V45.4292C112.315 45.4292 116.109 41.0856 116.109 35.5076Z" fill="#1A75CF"/>
<path d="M60.6069 35.5076V0.000610352C55.9309 0.000610352 52.1375 4.50339 52.1375 10.059V45.4292C56.8135 45.4292 60.6069 41.0856 60.6069 35.5076Z" fill="#1A75CF"/>
<path d="M32.6103 7.32587L11.2926 44.4606C15.3421 46.812 21.3307 44.0103 24.6662 38.2L45.9018 1.20834C41.8523 -1.14304 35.9593 1.49209 32.6103 7.32587Z" fill="#1A75CF"/>
<path d="M32.6103 38.3431L11.2926 1.20837C15.3421 -1.14301 21.3307 1.65864 24.6662 7.46899L45.9018 44.4606C41.8523 46.812 35.9593 44.1769 32.6103 38.3431Z" fill="#1A75CF"/>
<path d="M68.9563 9.92225V45.4292C73.6323 45.4292 77.4257 45.096 77.4257 39.5403V0.000621796C72.7497 0.000621796 68.9563 4.34418 68.9563 9.92225Z" fill="#1A75CF"/>
<path d="M74.8429 36.9114L100.377 36.9114C100.377 41.6142 95.7227 45.4292 89.9797 45.4292L68.9563 45.4292C68.9563 40.7265 69.0768 36.9114 74.8429 36.9114Z" fill="#1A75CF"/>
<path d="M154.88 2.03703C157.692 3.31642 160.214 5.15665 162.291 7.44506C164.368 9.73347 165.957 12.4219 166.959 15.3458L159.012 18.0723C158.381 16.2302 157.38 14.5365 156.072 13.0948C154.763 11.6531 153.174 10.4938 151.402 9.68775L154.88 2.03703Z" fill="#00A330"/>
<path d="M145.482 26.2092C143.55 26.2092 141.989 24.6561 141.989 22.7147C141.989 20.7888 143.55 19.2201 145.482 19.2201C147.398 19.2201 148.975 20.7888 148.975 22.7147C148.975 24.6561 147.398 26.2092 145.482 26.2092Z" fill="#00A330"/>
<path d="M167.865 18.9039C168.688 23.738 167.924 28.7085 165.689 33.0726C163.454 37.4367 159.867 40.96 155.465 43.116C151.062 45.272 146.081 45.9448 141.264 45.034C136.448 44.1232 132.056 41.6776 128.744 38.0628C125.432 34.4479 123.378 29.8579 122.889 24.9788C122.401 20.0996 123.503 15.1933 126.033 10.993C128.562 6.79276 132.383 3.52415 136.923 1.67568C141.463 -0.172783 146.479 -0.501849 151.221 0.737667L149.097 8.86915C146.11 8.08825 142.95 8.29557 140.089 9.4601C137.229 10.6246 134.822 12.6839 133.229 15.33C131.635 17.9762 130.941 21.0672 131.248 24.141C131.556 27.2149 132.85 30.1066 134.937 32.384C137.023 34.6613 139.79 36.202 142.825 36.7759C145.859 37.3497 148.997 36.9258 151.771 35.5675C154.544 34.2092 156.804 31.9895 158.212 29.2402C159.62 26.4908 160.101 23.3594 159.583 20.3139L167.865 18.9039Z" fill="#1A75CF"/>
<path d="M210.233 0.268054V15.2024V35.4312C210.233 41.1248 210.233 44.9825 205.483 45.3924C203.071 45.6004 200.945 43.9999 199.633 41.9668L181.771 14.2999V35.4312C181.771 39.2359 180.266 42.4706 177.501 44.0762C176.307 44.77 174.877 45.1596 173.232 45.1596V35.4312V9.99766C173.232 4.30342 173.232 0.445495 177.982 0.0361167C180.393 -0.17165 182.519 1.42899 183.832 3.46212L201.694 31.1342V10.0881C201.694 4.63933 204.781 0.268054 210.233 0.268054Z" fill="#1A75CF"/>
</g>
<defs>
<clipPath id="clip0">
<rect width="222" height="45.4286" fill="white"/>
</clipPath>
</defs>
</svg>
