<svg width="60" height="60" viewBox="0 0 60 60" fill="none" xmlns="http://www.w3.org/2000/svg">
<path d="M29.9927 35.3047L35.2958 30.0016L49.8775 44.5834L44.5745 49.8865L29.9927 35.3047Z" fill="#57A4FF"/>
<path d="M12.3642 8.21134L8.21108 12.3645L6.13452 6.13478L12.3642 8.21134Z" fill="#57A4FF"/>
<path d="M29.9997 24.6961L24.6958 30L9.09814 14.4024L14.4009 9.09847L14.7524 9.45004L29.9997 24.6961Z" fill="#57A4FF"/>
<path d="M45.2472 21.382L58.7402 7.88906C58.9159 7.71327 59.0146 7.4749 59.0146 7.22637C59.0146 6.97784 58.9159 6.73947 58.7402 6.56367L53.4363 1.26094C53.3494 1.17374 53.2461 1.10455 53.1324 1.05735C53.0186 1.01014 52.8967 0.98584 52.7736 0.98584C52.6505 0.98584 52.5285 1.01014 52.4148 1.05735C52.3011 1.10455 52.1978 1.17374 52.1109 1.26094L30 23.3707L14.7539 8.12344C14.6509 8.02043 14.5253 7.94297 14.3871 7.89727L6.43121 5.24532C6.26602 5.19023 6.08876 5.18223 5.91929 5.22223C5.74982 5.26222 5.59483 5.34862 5.4717 5.47175C5.34858 5.59488 5.26218 5.74986 5.22218 5.91933C5.18219 6.08881 5.19018 6.26607 5.24527 6.43125L7.89722 14.3871C7.94338 14.5252 8.02078 14.6507 8.12339 14.7539L23.3707 30L1.25972 52.1109C1.08404 52.2867 0.985352 52.5251 0.985352 52.7736C0.985352 53.0222 1.08404 53.2605 1.25972 53.4363L6.56363 58.7391C6.65051 58.8264 6.75378 58.8956 6.8675 58.9429C6.98123 58.9901 7.10317 59.0145 7.22632 59.0145C7.34948 59.0145 7.47142 58.9901 7.58514 58.9429C7.69887 58.8956 7.80214 58.8264 7.88902 58.7391L17.4046 49.2246L17.4058 49.2234L30 36.6293L47.8992 54.5285C48.7784 55.4076 49.9709 55.9014 51.2142 55.9013C52.4576 55.9012 53.65 55.4072 54.5291 54.5279C55.4082 53.6487 55.902 52.4562 55.9019 51.2129C55.9017 49.9695 55.4077 48.7772 54.5285 47.8981L36.6293 30L45.246 21.3832C45.246 21.3829 45.2462 21.3826 45.2464 21.3824C45.2466 21.3822 45.2469 21.382 45.2472 21.382ZM7.61714 7.61719L10.3664 8.5336L8.53355 10.3664L7.61714 7.61719ZM9.19683 12.3551L12.355 9.19688L13.3488 9.52735L9.5273 13.3488L9.19683 12.3551ZM10.7753 14.7539L14.7539 10.7754L28.6746 24.6961L24.6961 28.6746L10.7753 14.7539ZM53.2019 49.2234C53.4631 49.4846 53.6704 49.7947 53.8118 50.1359C53.9532 50.4771 54.026 50.8429 54.0261 51.2123C54.0261 51.5817 53.9534 51.9474 53.8121 52.2887C53.6708 52.63 53.4636 52.9401 53.2025 53.2014C52.9413 53.4626 52.6313 53.6698 52.29 53.8113C51.9488 53.9527 51.583 54.0255 51.2136 54.0255C50.8443 54.0256 50.4785 53.9529 50.1372 53.8116C49.7959 53.6703 49.4858 53.4631 49.2246 53.202L47.898 51.8766L51.8765 47.8981L53.2019 49.2234ZM50.55 46.5727L46.5726 50.55L45.9093 49.8879L49.8878 45.9094L50.55 46.5727ZM48.5613 44.584L44.5839 48.5613L31.3253 35.3039L35.3039 31.3254L48.5613 44.584ZM41.2699 18.7301L43.2585 20.7188L40.6066 23.3707L39.9433 22.7074C39.7674 22.5317 39.5289 22.433 39.2802 22.4331C39.0315 22.4332 38.7931 22.5321 38.6173 22.708C38.4416 22.8839 38.3429 23.1225 38.343 23.3711C38.3431 23.6198 38.442 23.8582 38.6179 24.034L39.2812 24.6973L36.6293 27.3481L34.6406 25.3594C34.4647 25.1835 34.2261 25.0846 33.9773 25.0846C33.7285 25.0846 33.4899 25.1835 33.314 25.3594C33.1381 25.5353 33.0393 25.7739 33.0393 26.0227C33.0393 26.2714 33.1381 26.51 33.314 26.6859L35.3027 28.6746L32.6519 31.3254L31.9886 30.6633C31.8114 30.4949 31.5754 30.4024 31.3309 30.4055C31.0864 30.4087 30.8529 30.5072 30.68 30.68C30.5071 30.8529 30.4086 31.0865 30.4055 31.331C30.4024 31.5754 30.4948 31.8114 30.6632 31.9887L31.3253 32.652L28.6746 35.3027L26.6859 33.3141C26.51 33.1382 26.2714 33.0393 26.0226 33.0393C25.7738 33.0393 25.5352 33.1382 25.3593 33.3141C25.1834 33.49 25.0846 33.7286 25.0846 33.9773C25.0846 34.2261 25.1834 34.4647 25.3593 34.6406L27.348 36.6293L24.6972 39.2813L24.0339 38.618C23.8582 38.4421 23.6197 38.3432 23.3711 38.3431C23.1224 38.343 22.8839 38.4416 22.708 38.6174C22.5321 38.7931 22.4332 39.0316 22.4331 39.2803C22.4329 39.5289 22.5316 39.7675 22.7074 39.9434L23.3707 40.6066L20.7187 43.2586L18.73 41.2699C18.5528 41.1015 18.3168 41.009 18.0723 41.0122C17.8278 41.0153 17.5943 41.1138 17.4214 41.2867C17.2485 41.4596 17.15 41.6931 17.1469 41.9376C17.1438 42.1821 17.2362 42.4181 17.4046 42.5953L19.3933 44.584L16.7414 47.2359L16.0793 46.5727C15.9035 46.3968 15.6651 46.2979 15.4164 46.2978C15.1677 46.2976 14.9292 46.3963 14.7533 46.5721C14.5774 46.7478 14.4785 46.9863 14.4784 47.2349C14.4783 47.4836 14.5769 47.7221 14.7527 47.8981L15.416 48.5613L12.764 51.2133L10.7753 49.2246C10.5981 49.0562 10.3621 48.9637 10.1176 48.9669C9.87316 48.97 9.63959 49.0685 9.46671 49.2414C9.29383 49.4142 9.19533 49.6478 9.1922 49.8923C9.18907 50.1367 9.28156 50.3728 9.44996 50.55L11.4386 52.5387L7.22691 56.7504L3.24957 52.7731L52.773 3.24961L56.7503 7.22696L52.5386 11.4387L50.55 9.45C50.3727 9.28161 50.1367 9.18912 49.8922 9.19225C49.6478 9.19538 49.4142 9.29388 49.2413 9.46676C49.0684 9.63963 48.9699 9.8732 48.9668 10.1177C48.9637 10.3621 49.0562 10.5981 49.2246 10.7754L51.2132 12.7641L48.5613 15.416L47.8992 14.7527C47.7233 14.5768 47.4847 14.478 47.2359 14.478C46.9871 14.478 46.7485 14.5768 46.5726 14.7527C46.3967 14.9286 46.2979 15.1672 46.2979 15.416C46.2979 15.6648 46.3967 15.9034 46.5726 16.0793L47.2359 16.7414L44.5839 19.3934L42.5953 17.4047C42.418 17.2363 42.182 17.1438 41.9375 17.1469C41.6931 17.1501 41.4595 17.2486 41.2866 17.4214C41.1138 17.5943 41.0153 17.8279 41.0121 18.0724C41.009 18.3168 41.1015 18.5528 41.2699 18.7301Z" fill="#1A75CF"/>
<path d="M26.4442 25.1183L14.7255 13.3996C14.5496 13.2238 14.3112 13.125 14.0625 13.125C13.8139 13.125 13.5754 13.2238 13.3996 13.3996C13.2238 13.5754 13.125 13.8139 13.125 14.0625C13.125 14.3112 13.2238 14.5496 13.3996 14.7255L25.1183 26.4442C25.2942 26.62 25.5326 26.7188 25.7813 26.7188C26.0299 26.7188 26.2684 26.62 26.4442 26.4442C26.62 26.2684 26.7188 26.0299 26.7188 25.7813C26.7188 25.5326 26.62 25.2942 26.4442 25.1183Z" fill="#1A75CF"/>
<path d="M34.0246 35.3505L44.3371 45.663C44.5129 45.8388 44.7514 45.9376 45 45.9376C45.2487 45.9376 45.4871 45.8388 45.663 45.663C45.8388 45.4871 45.9376 45.2487 45.9376 45C45.9376 44.7514 45.8388 44.5129 45.663 44.3371L35.3505 34.0246C35.1746 33.8488 34.9362 33.75 34.6875 33.75C34.4389 33.75 34.2004 33.8488 34.0246 34.0246C33.8488 34.2004 33.75 34.4389 33.75 34.6875C33.75 34.9362 33.8488 35.1746 34.0246 35.3505Z" fill="#1A75CF"/>
</svg>
