<svg width="60" height="60" viewBox="0 0 60 60" fill="none" xmlns="http://www.w3.org/2000/svg">
<path d="M35.5 24L24.5 50" stroke="#00A330" stroke-width="2.5" stroke-linecap="round" stroke-linejoin="round"/>
<path d="M41 29.5L50 37.5L41 45.5" stroke="#00A330" stroke-width="2.5" stroke-linecap="round" stroke-linejoin="round"/>
<path d="M19 29.5L10 37.5L19 45.5" stroke="#00A330" stroke-width="2.5" stroke-linecap="round" stroke-linejoin="round"/>
<path d="M9.5 10C10.3284 10 11 9.32843 11 8.5C11 7.67157 10.3284 7 9.5 7C8.67157 7 8 7.67157 8 8.5C8 9.32843 8.67157 10 9.5 10Z" fill="#00A330"/>
<path d="M15.5 10C16.3284 10 17 9.32843 17 8.5C17 7.67157 16.3284 7 15.5 7C14.6716 7 14 7.67157 14 8.5C14 9.32843 14.6716 10 15.5 10Z" fill="#00A330"/>
<path d="M21.5 10C22.3284 10 23 9.32843 23 8.5C23 7.67157 22.3284 7 21.5 7C20.6716 7 20 7.67157 20 8.5C20 9.32843 20.6716 10 21.5 10Z" fill="#00A330"/>
<path d="M39.75 10H50.25C51.2165 10 52 9.3284 52 8.5C52 7.6716 51.2165 7 50.25 7H39.75C38.7835 7 38 7.6716 38 8.5C38 9.3284 38.7835 10 39.75 10Z" fill="#00A330"/>
<path d="M54.7266 0.117188H5.27344C2.36566 0.117188 0 2.48285 0 5.39062V54.6094C0 57.5171 2.36566 59.8828 5.27344 59.8828H54.7266C57.6343 59.8828 60 57.5171 60 54.6094V5.39062C60 2.48285 57.6343 0.117188 54.7266 0.117188ZM5.27344 2.5H54.7266C56.5 2.5 57.5 3.5 57.5 5.39062V14.5H2.5V5.39062C2.5 3.5 3.5 2.5 5.27344 2.5ZM54.7266 57.5H5.27344C3.5 57.5 2.5 56.5 2.5 54.6094V17H57.5V54.6094C57.5 56.5 56.5 57.5 54.7266 57.5Z" fill="#00A330"/>
</svg>
