<svg width="60" height="60" viewBox="0 0 60 60" fill="none" xmlns="http://www.w3.org/2000/svg">
<path d="M20 42H25.3499L24.0999 44.5C23.8999 44.8 23.8999 45.1999 24.0999 45.4999C24.2999 45.7999 24.6999 46 24.9999 46H34.9999C35.2999 46 35.7999 45.7999 35.8999 45.4999C35.9998 45.1999 36.0999 44.8 35.8999 44.5L34.6499 42H39.9999C40.2999 42 40.7999 41.9 40.8999 41.6C40.9999 41.3 41.0999 40.9001 40.8999 40.6001L38.9999 36.8V35C38.9999 31.5 36.8999 28.2 34.7999 25.4L33.9999 24.3V20.9514C35.153 20.7252 35.9999 19.7283 35.9999 18.4999V9.99996V9V8.00004H35.9696C35.5243 0.643945 30.1958 0 30.0999 0H29.9999H29.9C29.8041 0 24.4756 0.643945 24.0304 8.00004H23.9999V9V9.99996V18.4999C23.9999 19.7282 24.8469 20.7251 26 20.9514V24.3L25.1999 25.4C23.0999 28.2 20.9999 31.5 20.9999 35V36.7001L19.1 40.5C18.8999 40.8 18.8999 41.2 19.1 41.5C19.3 41.8 19.7 42 20 42ZM22.5999 38H25.9999V40.0001H21.5999L22.5999 38ZM27.9999 36.9V27.1V21H31.9999V27.1V37V37.9999V39.8999H27.9999V37.9999V36.9ZM26.6 44L27.5999 42H32.3999L33.3999 44H26.6ZM33.9999 40V37.9999H37.3999L38.3998 40H33.9999ZM36.9999 35V36H33.9999V27.7C35.6 30 36.9999 32.5 36.9999 35ZM29.9999 2.00004C30.6999 2.1 33.5999 3 33.9999 8.00004H25.9999C26.3999 3 29.3999 2.1 29.9999 2.00004ZM33.9999 9.99996V18.4999C33.9999 18.7999 33.7999 19 33.4999 19H26.4999C26.1999 19 25.9999 18.7999 25.9999 18.4999V9.99996H33.9999ZM26 27.7V35.8999H23V34.9999C23 32.5 24.3999 29.9 26 27.7Z" fill="#FFAB00"/>
<path d="M30 17C30.6 17 30.9999 16.6001 30.9999 16.0001V13.0001C30.9999 12.4001 30.6 12.0001 30 12.0001C29.4 12.0001 29 12.4001 29 13.0001V16.0001C29 16.6 29.4 17 30 17Z" fill="#FFAB00"/>
<path d="M54.7255 44.2103C53.9595 41.7774 51.6773 40.0001 49.0001 40.0001C46.0405 40.0001 43.5649 42.1723 43.0855 45.001C43.0569 45.0006 43.0282 45.0001 43.0001 45.0001C40.2001 45.0001 38 47.2001 38 50.0002C38 51.7002 36.4001 53.0002 34.5 53.0002C32.5999 53.0002 31 51.7002 31 50.0002C31 49.4002 30.6 49.0002 30 49.0002C29.4 49.0002 29 49.4002 29 50.0002C29 51.7002 27.4001 53.0002 25.5 53.0002C23.6 53.0002 22 51.7002 22 50.0002C22 47.2002 19.8 45.0001 16.9999 45.0001C16.971 45.0001 16.9436 45.0025 16.9148 45.003C16.4361 42.1735 13.9602 40.0001 10.9999 40.0001C8.32266 40.0001 6.04043 41.7774 5.27449 44.2103C2.22422 44.9682 0 47.6967 0 51V59.0001C0 59.6001 0.399961 60 0.999961 60H58.9999C59.5999 60 59.9999 59.6001 59.9999 59.0001V51C60 47.6967 57.7758 44.9682 54.7255 44.2103ZM49 42C50.4809 42 51.7795 42.8162 52.4709 44.0205C50.2044 44.1896 48.3072 45.4357 47.1 47.2001C46.5744 46.2542 45.8279 45.6952 45.0491 45.3774C45.3505 43.4704 47.0118 42 49 42ZM11 42C13.0148 42 14.6932 43.5101 14.9616 45.4541C14.1071 45.8683 13.4327 46.5305 12.9 47.2999C11.7854 45.4424 9.80801 44.1894 7.52906 44.0202C8.22047 42.8162 9.51914 42 11 42ZM58 58H2.00004V51C2.00004 48.2001 4.2 46 7.00008 46C9.80016 46 12 48.2001 12 51C12 51.6 12.4 52 13 52C13.6 52 13.9999 51.6 13.9999 51C13.9999 49.5 14.5999 47.0001 16.9999 47.0001C18.7 47.0001 19.9999 48.3 19.9999 50.0001C19.9999 52.8 22.4999 55.0001 25.4999 55.0001C27.3998 55.0001 28.9999 54.2001 29.9999 52.9001C30.9998 54.2001 32.5999 55.0001 34.4999 55.0001C37.4999 55.0001 39.9998 52.8001 39.9998 50.0001C39.9998 48.3 41.2998 47.0001 42.9998 47.0001C44.3999 47.0001 45.9998 47.5001 45.9998 51C45.9998 51.6 46.3998 52 46.9998 52C47.5998 52 47.9998 51.6 47.9998 51C47.9998 48.2001 50.1997 46 52.9998 46C55.7998 46 57.9998 48.2 57.9998 51V58H58Z" fill="#FFAB00"/>
<path d="M46 26C46.6 26 46.9999 25.6001 46.9999 25.0001C46.9999 24.4001 46.6 24.0001 46 24.0001C45.4 24.0001 45 24.4001 45 25.0001C45 25.5999 45.4 26 46 26Z" fill="#FFAB00"/>
<path d="M57 11C57.6 11 57.9999 10.6001 57.9999 10.0001C57.9999 9.40006 57.6 9.0001 57 9.0001C56.4 9.0001 56 9.40006 56 10.0001C56 10.5999 56.4 11 57 11Z" fill="#FFAB00"/>
<path d="M6 32C6 32.6 6.39996 33 6.99996 33C7.59996 33 7.99993 32.6 7.99993 32C7.99993 31.4 7.59996 31.0001 6.99996 31.0001C6.39996 31.0001 6 31.4 6 32Z" fill="#FFAB00"/>
<path d="M13 17C13.6 17 13.9999 16.6001 13.9999 16.0001C13.9999 15.4001 13.6 15 13 15C12.4 15 12 15.4 12 16C12 16.6 12.4 17 13 17Z" fill="#FFAB00"/>
<path d="M0.999961 6C2.7 6 3.99996 7.29996 3.99996 9C3.99996 9.6 4.39992 9.99996 4.99992 9.99996C5.59992 9.99996 6 9.6 6 9C6 7.29996 7.29996 6 9 6C9.6 6 9.99996 5.60004 9.99996 5.00004C9.99996 4.40004 9.6 4.00008 9 4.00008C7.29996 4.00008 6 2.70012 6 1.00008C6 0.399961 5.60004 0 5.00004 0C4.40004 0 4.00008 0.399961 4.00008 0.999961C4.00008 2.7 2.70012 3.99996 1.00008 3.99996C0.399961 3.99996 0 4.40004 0 5.00004C0 5.60004 0.399961 6 0.999961 6ZM5.00004 3.99996C5.30004 4.39992 5.60004 4.69992 6 4.99992C5.60004 5.29992 5.30004 5.59992 5.00004 5.99988C4.70004 5.59992 4.40004 5.29992 4.00008 4.99992C4.40004 4.70004 4.70004 4.40004 5.00004 3.99996Z" fill="#FFAB00"/>
</svg>
