<svg width="60" height="60" viewBox="0 0 60 60" fill="none" xmlns="http://www.w3.org/2000/svg">
<path d="M37.4126 43.4473C40.1698 43.4668 42.9035 42.9408 45.4566 41.8997C48.0098 40.8587 50.3318 39.323 52.2892 37.3811C54.2465 35.4392 55.8006 33.1295 56.8619 30.5847C57.9233 28.04 58.4709 25.3105 58.4734 22.5532C58.4758 19.796 57.9331 17.0656 56.8763 14.5189C55.8195 11.9723 54.2695 9.65973 52.3156 7.71436C50.3617 5.76899 48.0424 4.22919 45.4912 3.18356C42.9399 2.13793 40.2071 1.60711 37.4499 1.62164C34.7003 1.61403 31.9765 2.15195 29.4363 3.20427C26.896 4.25659 24.5897 5.8024 22.651 7.75218C19.1173 11.3116 16.9734 16.0178 16.607 21.0201C16.2406 26.0223 17.6758 30.9907 20.6532 35.027C21.8725 36.675 23.3304 38.1324 24.9788 39.3511C28.5733 42.0215 32.9348 43.4584 37.4126 43.4473ZM37.4475 3.24327C41.2656 3.24379 44.9978 4.37635 48.1723 6.49777C51.3468 8.61918 53.821 11.6342 55.2821 15.1616C56.7433 18.6891 57.1258 22.5705 56.3812 26.3153C55.6366 30.0601 53.7985 33.5001 51.0991 36.2003C47.8162 39.4579 43.4769 41.4347 38.8644 41.7739C34.252 42.113 29.6702 40.7922 25.9461 38.0498C25.1855 37.4875 24.4678 36.8693 23.7991 36.2003C23.1326 35.535 22.5171 34.8206 21.9578 34.063C19.2091 30.3398 17.8836 25.7559 18.221 21.1404C18.5584 16.5249 20.5365 12.1825 23.7975 8.89867C25.5858 7.10031 27.713 5.67449 30.056 4.70374C32.399 3.733 34.9113 3.23659 37.4475 3.24327Z" fill="#6554C0"/>
<path d="M37.4505 38.7632C41.2009 38.7607 44.8344 37.458 47.732 35.0769C50.6297 32.6958 52.6121 29.3838 53.3415 25.705C54.071 22.0262 53.5023 18.2082 51.7325 14.9017C49.9626 11.5951 47.1011 9.00449 43.6354 7.57116C40.1697 6.13782 36.3142 5.95047 32.7258 7.04102C29.1374 8.13157 26.0382 10.4325 23.9561 13.5519C21.874 16.6713 20.9379 20.4161 21.3072 24.1483C21.6765 27.8805 23.3284 31.3692 25.9815 34.02C27.4866 35.5271 29.2745 36.722 31.2427 37.5359C33.2109 38.3499 35.3206 38.767 37.4505 38.7632ZM37.4505 7.96133C40.827 7.96305 44.0985 9.13551 46.7076 11.2789C49.3166 13.4223 51.1017 16.4041 51.7587 19.7161C52.4157 23.0281 51.904 26.4655 50.3107 29.4425C48.7174 32.4196 46.1412 34.7521 43.021 36.0425C39.9007 37.333 36.4296 37.5017 33.1989 36.5198C29.9683 35.5379 27.1781 33.4662 25.3037 30.6576C23.4293 27.8491 22.5867 24.4775 22.9195 21.1174C23.2523 17.7573 24.7399 14.6165 27.1288 12.2303C28.4834 10.874 30.0925 9.79868 31.8638 9.06609C33.6351 8.3335 35.5336 7.95806 37.4505 7.96133Z" fill="#6554C0"/>
<path d="M21.9794 43.3265L26.7 38.6067L25.941 38.0473C25.1816 37.4856 24.465 36.8683 23.7972 36.2002C23.1306 35.5351 22.5151 34.8206 21.9559 34.0629L21.3964 33.3032L16.6759 38.027L21.9794 43.3265ZM24.2359 38.777L21.9794 41.0335L18.9729 38.027L21.2286 35.7713C22.1265 36.8749 23.1353 37.8834 24.2391 38.781L24.2359 38.777Z" fill="#6554C0"/>
<path d="M8.04976 58.3784C8.88611 58.3793 9.71433 58.2143 10.4865 57.8929C11.2586 57.5716 11.9594 57.1003 12.5481 56.5063L22.8511 46.2049C23.4204 45.6328 23.7396 44.8582 23.7385 44.051C23.7375 43.2439 23.4163 42.4701 22.8454 41.8995L18.1038 37.1579C17.533 36.587 16.7592 36.2658 15.9519 36.2647C15.1446 36.2636 14.3699 36.5828 13.7976 37.1522L3.49543 47.4544C2.60116 48.3501 1.99251 49.4909 1.74642 50.7325C1.50032 51.9741 1.62783 53.2607 2.11282 54.4299C2.59781 55.599 3.41852 56.5981 4.47121 57.3009C5.5239 58.0037 6.76132 58.3787 8.02706 58.3784H8.04976ZM15.9462 37.8852C16.1342 37.885 16.3204 37.9219 16.494 37.9938C16.6677 38.0658 16.8254 38.1713 16.9581 38.3044L21.6989 43.046C21.8318 43.1781 21.9371 43.3351 22.0091 43.5081C22.081 43.681 22.1181 43.8665 22.1181 44.0538C22.1192 44.2403 22.0833 44.4252 22.0123 44.5976C21.9413 44.7701 21.8367 44.9267 21.7046 45.0584L11.4017 55.3606C10.5008 56.2466 9.29056 56.7473 8.02706 56.7568C7.08176 56.7575 6.15748 56.4778 5.3711 55.9532C4.58472 55.4286 3.97156 54.6826 3.60914 53.8096C3.24673 52.9365 3.15133 51.9756 3.33502 51.0483C3.51871 50.121 3.97323 49.269 4.64111 48.6L14.9449 38.2987C15.0763 38.1672 15.2325 38.063 15.4043 37.992C15.5762 37.9211 15.7603 37.8848 15.9462 37.8852Z" fill="#6554C0"/>
</svg>
