<svg xmlns="http://www.w3.org/2000/svg" xmlns:xlink="http://www.w3.org/1999/xlink" width="410" height="410" fill="none" xmlns:v="https://vecta.io/nano"><style><![CDATA[.B{fill:#263238}.C{fill:#455a64}.D{fill:#eb996e}.E{fill:#ffbe9d}.F{fill:#5e9cff}]]></style><path d="M45.748 94.3l2.091-3.403c17.622-28.7 49.487-45.92 83.082-43.87a89.38 89.38 0 0 1 12.858 1.747c30.545 6.462 57.129 29.266 68.142 58.482 6.478 17.179 8.29 36.957 20.59 50.594 15.998 17.745 43.165 18.302 67.051 17.573s51.07-.115 66.978 17.703c9.971 11.161 13.12 27.06 12.3 41.976-2.124 39.565-16.827 74.415-52.333 92.004s-90.528 19.68-129.387 11.939c-54.391-10.832-106.158-40.565-137.26-86.551S20.852 143.91 45.748 94.3z" fill="#d7e9ff"/><path d="M349.107 281.121c-4.297-2.214-9.348-2.501-14.112-1.714-2.559.426-5.224 1.189-6.97 3.116s-2.067 5.305-.066 6.953c1.189.984 2.845 1.132 4.387 1.116 3.731-.041 7.872-.697 10.849 1.541 1.705 1.288 2.837 3.411 4.862 4.043s4.24-.558 5.289-2.354a8.2 8.2 0 0 0 .599-6.059 9.25 9.25 0 0 0-4.838-6.642h0zm9.832-18.975c-2.624 3.747-7.725 2.501-10.095.221s-3.362-5.609-4.272-8.766c-2.074-7.224-4.174-14.76-2.624-22.14.37-2.228 1.349-4.312 2.829-6.018.748-.844 1.705-1.476 2.774-1.833a6.43 6.43 0 0 1 3.319-.201c2.575.681 4.165 3.198 5.322 5.601 3.405 7.072 5.19 14.815 5.223 22.664 0 3.649-.418 7.479-2.46 10.496m7.192 5.355c-2.854-3.387-3.395-8.315-2.124-12.554s4.1-7.839 7.429-10.783c3.884-3.456 8.405-6.121 13.309-7.848 1.897-.769 3.94-1.116 5.986-1.016 1.021.058 2.013.364 2.889.893a6.28 6.28 0 0 1 2.137 2.141c1.402 2.673.058 5.912-1.394 8.56a101.32 101.32 0 0 1-8.741 13.309c-2.624 3.378-5.625 6.708-9.619 8.2s-8.142 1.353-10.299-1.386" class="F"/><g class="B"><path d="M359.111 318.677a8.46 8.46 0 0 1-.238-1.698l-.451-4.649c-.229-2.291-.577-4.568-1.041-6.823a53.53 53.53 0 0 0-2.46-8.044 29.78 29.78 0 0 0-4.1-7.281c-1.39-1.808-3.166-3.282-5.199-4.314-1.385-.673-2.869-1.122-4.395-1.328a8.32 8.32 0 0 1-1.698-.246c.572-.064 1.15-.064 1.722 0 1.581.12 3.127.52 4.568 1.181 2.136 1.011 4.01 2.501 5.477 4.354 1.777 2.254 3.211 4.757 4.256 7.429a49.18 49.18 0 0 1 2.46 8.2c.441 2.281.745 4.587.91 6.905l.23 4.682a7.61 7.61 0 0 1-.041 1.632h0z"/><path d="M358.791 315.101c-.031-.272-.031-.547 0-.82v-2.263l-.098-8.298c-.173-7.011-.82-14.555-1.944-25.191-1.099-9.995-2.583-21.639-4.149-29.2a118.27 118.27 0 0 0-.984-4.625l-.82-3.485c-.254-.951-.394-1.64-.533-2.189a3.26 3.26 0 0 1-.139-.82 2.95 2.95 0 0 1 .278.738l.656 2.165c.271.877.591 2.099.927 3.46l1.099 4.609c1.931 8.936 3.387 17.969 4.362 27.06 1.165 10.66 1.689 20.36 1.739 27.379 0 3.518 0 6.364-.123 8.323l-.14 2.255a3.35 3.35 0 0 1-.131.902h0z"/><path d="M358.75 296.389c-.063-.786-.063-1.576 0-2.362a63.91 63.91 0 0 1 .722-6.396c.514-3.142 1.206-6.252 2.074-9.315 1.023-3.76 2.334-7.436 3.92-10.996a58.74 58.74 0 0 1 11.48-17.819 30.14 30.14 0 0 1 2.689-2.501c.419-.344.779-.697 1.157-.967l1.041-.722c.607-.484 1.251-.92 1.927-1.304.115.148-2.813 1.878-6.511 5.806-4.696 5.242-8.464 11.245-11.144 17.753a87.74 87.74 0 0 0-3.919 10.922c-1.017 3.428-1.698 6.56-2.206 9.225a82.77 82.77 0 0 0-.943 6.339c-.041.785-.137 1.566-.287 2.337h0zm18.081 33.013l-1.87 25.691h-33.005l-1.877-25.691h36.752z"/><path d="M336.143 319.275h43.878v10.127h-43.878v-10.127z"/></g><g class="C"><path d="M380.021 354.109v2.804h-2.058-41.099v-2.804h43.157z"/><path d="M375.937 361.858l2.026-4.945h-39.524l2.361 4.945h35.137z"/></g><path d="M340.694 337.84a1.02 1.02 0 0 0 .155.23l.492.656 1.919 2.46.09.114.082-.114 4.724-6.56h-.271l4.649 6.56.148.205.164-.189 5.51-6.56h-.319l.303.377 4.92 6.183.164.205.148-.213 4.657-6.56h-.27l5.74 6.56.098.115.074-.132 1.796-3.009.459-.82c.062-.088.112-.185.147-.287 0 0-.073.082-.196.254l-.509.771-1.886 2.96h.181l-5.634-6.609-.147-.164-.123.18-4.699 6.56h.328l-4.92-6.191-.303-.377-.164-.197-.156.189-5.502 6.56h.311l-4.698-6.56-.14-.189-.131.189-4.625 6.609h.164l-2.001-2.386-.533-.623c-.125-.17-.191-.235-.196-.197z" fill="#e0e0e0"/><path d="M339.62 329.23c0 .115 8.273.205 18.466.205l18.475-.205c0-.115-8.266-.205-18.475-.205l-18.466.205z" class="C"/><path d="M337.955 357.192c0 .115 9.02.205 20.073.205l20.074-.205c0-.115-9.02-.205-20.074-.205l-20.073.205z" class="B"/><path d="M112.258 253.47H35.564c-3.29 0-6.446 1.307-8.773 3.634s-3.634 5.482-3.634 8.773v96.448H124.64v-96.448a12.41 12.41 0 0 0-12.382-12.407h0z" class="C"/><path d="M31.701 254.028c-.123 0-.213 24.231-.213 54.12l.213 54.12c.123 0 .213-24.231.213-54.12l-.213-54.12zM81.705 135.3a86.15 86.15 0 0 0-15.432 45.379c-.476 10.906.992 22.525-4.182 32.136-7.429 13.792-23.493 13.325-28.413 28.191-2.14 6.47 1.804 20.697 2.87 27.429 1.205 7.643-3.469 14.063-2.263 21.714 1.107 7.011 6.355 12.013 12.653 15.276 5.609 2.903 10.791 2.985 16.621.566 11.119-4.6 20.369-9.454 28.282-18.507 11.119-12.71 14.481-30.34 16.4-47.093 4.187-37.048 3.34-74.493-2.518-111.315" class="B"/><path d="M57.933 307.557c-.115-.037-.233-.067-.353-.09l-1.058-.254c-3.459-.941-6.559-2.89-8.905-5.601a10.5 10.5 0 0 1-1.984-3.517c-.409-1.468-.643-2.979-.697-4.502a44.36 44.36 0 0 1 1.066-10.447c.713-3.723 1.64-7.692 1.919-11.997a24.85 24.85 0 0 0-.467-6.56c-.514-2.239-1.21-4.433-2.083-6.56a70.26 70.26 0 0 1-2.345-6.666c-.695-2.311-.891-4.742-.574-7.134.382-2.38 1.293-4.644 2.665-6.626a30.41 30.41 0 0 1 4.649-5.264c3.387-3.165 7.052-5.74 10.184-8.709 5.588-5.171 10.097-11.396 13.268-18.318a56.16 56.16 0 0 0 3.05-8.2c.394-1.222.623-2.403.902-3.469s.402-2.066.582-2.952c.254-1.796.451-3.182.5-4.1 0-.459.066-.82.082-1.082s0-.369 0-.369 0 .123-.057.369-.074.615-.131 1.074c-.074.943-.295 2.329-.574 4.1l-.615 2.944c-.221 1.074-.525 2.222-.935 3.444-.823 2.78-1.857 5.494-3.091 8.118a57.95 57.95 0 0 1-13.259 18.154c-3.116 2.903-6.79 5.503-10.209 8.684-1.771 1.593-3.353 3.384-4.715 5.338-1.408 2.036-2.341 4.362-2.731 6.806a17.39 17.39 0 0 0 .582 7.307c.64 2.328 1.533 4.534 2.362 6.699a42.77 42.77 0 0 1 2.083 6.478 24.41 24.41 0 0 1 .467 6.47c-.221 4.247-1.173 8.2-1.878 11.947a44.68 44.68 0 0 0-1.017 10.529c.069 1.549.317 3.084.738 4.576a11.1 11.1 0 0 0 2.058 3.583c1.446 1.678 3.207 3.057 5.182 4.059a16.56 16.56 0 0 0 3.895 1.476 9.55 9.55 0 0 0 1.443.262h0z" class="C"/><path d="M210.609 336.856l-39.36-18.688s-15.326-74.415-18.229-79.999-15.006-10.414-15.006-10.414l2.026 100.762 3.608 23.263 55.497 5.256 11.464-20.18z" class="F"/><g class="E"><path d="M244.188 354.486c.221 0 1.312.672.402 2.403s-7.585 7.445-9.545 5.453 1.033-4.42 1.033-4.42l8.11-3.436z"/><path d="M235.799 357.996s-8.052 1.016-11.144 2.197c-3.37 1.279-7.47.402-10.225-1.459a29.11 29.11 0 0 1-4.362-3.559l-10.267-.164a12.3 12.3 0 0 1-2.001-12.718c.55-1.46 1.343-2.816 2.346-4.01 1.221-1.32 3.148-2.386 6.478-2.96l12.193 2.632s18.86-1.353 22.255.238c0 0 4.223 2.501 5.527 3.55.492.402 1.992 5.207-1.083 7.708 0 0 2.673 2.124 1.222 4.035l-.689.82s1.796 2.328.869 3.345-9.02 5.74-11.898 4.625-.5-3.813.779-4.305"/></g><g class="D"><path d="M243.491 345.294c-.341.1-.675.22-1.001.361l-2.722.951-1.911.557-2.222.591c-.847.232-1.614.695-2.214 1.336-.331.356-.56.794-.664 1.269a2.71 2.71 0 0 0 .074 1.429 2.11 2.11 0 0 0 .992 1.074c.421.207.877.335 1.345.378.858.05 1.719.003 2.566-.14 1.42-.229 2.814-.592 4.166-1.082l2.698-1.066c.334-.121.655-.275.959-.459a8.51 8.51 0 0 0-1.008.336l-2.723.959c-1.335.453-2.707.791-4.1 1.009-.813.127-1.638.166-2.46.115a3.44 3.44 0 0 1-1.222-.345c-.371-.194-.662-.514-.82-.902-.132-.398-.158-.824-.075-1.236a2.41 2.41 0 0 1 .551-1.109 4.49 4.49 0 0 1 2.058-1.255c.755-.254 1.509-.418 2.198-.615l1.91-.598 2.698-1.058c.324-.137.634-.305.927-.5h0z"/><path d="M242.769 339.48a6.88 6.88 0 0 0-.992.361l-2.706.976-4.1 1.172c-.859.135-1.676.466-2.386.968a1.99 1.99 0 0 0-.697 1.238c-.072.488-.001.987.205 1.435.208.428.503.807.866 1.115s.785.537 1.241.673c.828.269 1.707.339 2.567.205 1.398-.28 2.77-.681 4.1-1.198l2.714-.951c.337-.105.665-.234.984-.385a6.24 6.24 0 0 0-1.025.262l-2.747.82c-1.336.476-2.707.849-4.1 1.115-.812.117-1.64.044-2.419-.213-.414-.127-.798-.338-1.127-.62a3.13 3.13 0 0 1-.784-1.02 1.91 1.91 0 0 1 .402-2.288c.671-.468 1.439-.779 2.247-.91l4.1-1.246 2.673-1.083a6.54 6.54 0 0 0 .984-.426h0z"/><path d="M238.89 341.12c.168-.536.292-1.084.369-1.64.185-.533.32-1.082.402-1.64a2.9 2.9 0 0 0-.73 1.533 2.73 2.73 0 0 0-.041 1.747h0z"/></g><path d="M210.494 341.382l7.175-2.722s19.918-9.299 20.254-8.79 1.419.442 1.181 2.87-11.841 7.33-12.21 8.2.246 5.1-4.043 8.142-7.38 3.116-7.38 3.116" class="E"/><path d="M215.471 352.124h.189l.492-.049c.632-.1 1.254-.251 1.861-.451a18.2 18.2 0 0 0 6.085-3.501 8.58 8.58 0 0 0 2.46-4.19 19 19 0 0 0 .426-2.682c.014-.103.039-.205.074-.303.047-.08.111-.147.189-.197.187-.136.381-.262.582-.377l1.263-.697 5.42-2.919 2.763-1.747c.462-.324.895-.686 1.296-1.082a3.29 3.29 0 0 0 .549-.689c.082-.139.137-.292.164-.451a2.05 2.05 0 0 0 0-.443 3.13 3.13 0 0 0-.303-1.73c-.163-.253-.378-.469-.632-.632-.102-.066-.196-.146-.278-.237l-.066-.074c-.04-.03-.089-.045-.139-.041-.047-.005-.093-.005-.14 0l-.221.057c-1.074.328-2.067.763-3.059 1.173l-5.633 2.46-9.471 4.362-1.911.886-1.755.689-2.812 1.115-1.771.713-.451.197c-.107 0-.156.066-.156.074s.057 0 .164-.049l.467-.156 1.796-.664 2.837-1.009 1.771-.664 1.927-.869 9.496-4.289a183.64 183.64 0 0 1 5.642-2.46l3.017-1.156.181-.041h.065v-.082c-.229.147-.057.049-.106.082.098.121.214.226.344.311a1.68 1.68 0 0 1 .541.533c.231.482.322 1.019.263 1.55.005.257-.054.511-.173.738a3.12 3.12 0 0 1-.492.623 9.55 9.55 0 0 1-1.254 1.042c-.886.639-1.812 1.197-2.731 1.73l-5.404 2.927-1.271.722-.615.394c-.119.08-.215.19-.278.319-.042.12-.069.244-.082.369a21.24 21.24 0 0 1-.402 2.657c-.375 1.562-1.189 2.985-2.345 4.1-1.748 1.546-3.77 2.751-5.962 3.551a13.28 13.28 0 0 1-1.828.5c-.214.049-.378.066-.492.082l-.091-.025zm21.968.935c-.264.032-.522.107-.762.222-.674.27-1.306.635-1.878 1.082a6.86 6.86 0 0 0-1.083 1.058 2.24 2.24 0 0 0-.457.761c-.1.282-.142.58-.125.879a1.86 1.86 0 0 0 .46.907c.234.253.535.436.869.528.685.187 1.41.164 2.082-.066 2.281-.675 4.494-1.562 6.61-2.648.637-.333 1.255-.7 1.853-1.099.229-.132.441-.292.631-.476-.244.096-.477.217-.697.361l-1.894 1c-2.119 1.013-4.312 1.863-6.56 2.542a3.27 3.27 0 0 1-1.902.074c-.276-.072-.527-.219-.725-.425a1.56 1.56 0 0 1-.399-.739 2 2 0 0 1 .101-.779c.084-.251.217-.482.391-.681.301-.382.642-.731 1.017-1.041a11.39 11.39 0 0 1 2.468-1.46h0z" class="D"/><path opacity=".09" d="M143.926 351.78c6.445-21.738 12.128-49.733 18.573-71.471 2.362 20.065-.59 46.559-4.28 66.42-.435 2.329-.632 4.608-2.46 6.142l-11.833-1.091z" fill="#000"/><path d="M154.48 336.856c.09 0 .361-1.419 1.238-3.592a25.56 25.56 0 0 1 1.845-3.657 27.76 27.76 0 0 1 3.034-3.985 27 27 0 0 1 3.756-3.321 24.45 24.45 0 0 1 3.509-2.116c2.1-1.033 3.51-1.41 3.485-1.492-.341.04-.677.12-1 .238-.389.098-.769.224-1.14.377-.502.176-.995.378-1.476.607-1.263.578-2.47 1.27-3.608 2.066a26.28 26.28 0 0 0-3.846 3.346c-1.146 1.265-2.168 2.638-3.05 4.1-.708 1.193-1.309 2.447-1.796 3.747-.221.55-.352 1.066-.492 1.517a8.46 8.46 0 0 0-.295 1.173c-.086.325-.141.657-.164.992h0z" class="B"/><g class="F"><path d="M142.196 226.738s20.607 46.043 20.607 54.522-15.441 67.183-15.441 67.183l.746 14.038-86.583.303-1.32-18.614 6.757-17.736-6.749-50.143s-4.543-29.11-4.92-37.253c-.508-10.184 33.997-21.992 33.054-23.403l5.953-8.003 34.12 27.708 6.749-19.483 8.085 7.634-1.058 3.247z"/><path d="M85.493 238.989l26.519 44.731 30.733 35.047s2.009 17.802-2.009 23.263-10.914 9.192-10.914 9.192-8.11 0-18.417-8.618-38.737-44.231-38.737-44.231l-9.766-11.783s-11.644-28.602-9.471-43.157c.82-5.617 3.231-7.945 6.412-10.52 8.011-6.454 20.41-2.788 25.65 6.076z"/></g><g class="B"><path d="M59.286 276.668a2.54 2.54 0 0 0 .148.328l.451.935 1.886 3.518c1.697 3.025 4.338 7.298 7.782 12.455l5.781 8.34c2.124 2.968 4.535 6.027 6.519 9.602s3.788 7.478 5.961 11.382a71.9 71.9 0 0 0 7.815 11.406c2.966 3.557 6.456 6.642 10.349 9.151a32.59 32.59 0 0 0 11.988 4.641 26.87 26.87 0 0 0 11.611-.492c1.715-.463 3.367-1.132 4.92-1.992 1.446-.763 2.805-1.682 4.051-2.739a18.34 18.34 0 0 0 3.051-3.223c.795-1.06 1.471-2.204 2.017-3.411a21.6 21.6 0 0 0 1.64-6.101 28.17 28.17 0 0 0 .139-3.993c0-.443-.049-.82-.065-1.042.008-.117.008-.235 0-.352a2.3 2.3 0 0 0 0 .352v1.042a30.43 30.43 0 0 1-.214 3.969c-.275 2.08-.849 4.11-1.705 6.027a18.37 18.37 0 0 1-2.017 3.345c-.879 1.172-1.898 2.232-3.034 3.157a22.21 22.21 0 0 1-4.01 2.682 21.97 21.97 0 0 1-4.846 1.943 26.7 26.7 0 0 1-11.48.443c-4.208-.738-8.227-2.305-11.825-4.609a45.47 45.47 0 0 1-10.258-9.077 71.15 71.15 0 0 1-7.765-11.332c-2.173-3.879-3.928-7.815-5.986-11.374a106.66 106.66 0 0 0-6.56-9.618l-5.814-8.299c-3.477-5.125-6.15-9.372-7.888-12.365a100.13 100.13 0 0 1-1.952-3.477l-.5-.919c-.051-.108-.114-.209-.189-.303h0z"/><path d="M144.32 317.201c0 .057.435.328 1 .959.754.799 1.218 1.828 1.319 2.922a4.92 4.92 0 0 1-.761 3.113c-.435.722-.82 1.074-.82 1.124s.517-.23 1.058-.952c.707-.956 1.037-2.14.926-3.324a4.83 4.83 0 0 0-1.525-3.096c-.318-.361-.734-.62-1.197-.746h0zm-5.683 9.298c-.165.022-.327.061-.484.115l-.574.156-.82.148c-1.703.224-3.435.062-5.067-.476a18.54 18.54 0 0 1-6.56-3.838c-2.256-2.165-4.302-4.54-6.109-7.093a42.88 42.88 0 0 0-6.306-7.043l-3.116-2.657c-.867-.795-1.564-1.758-2.05-2.829-.326-.783-.453-1.634-.372-2.478s.37-1.654.839-2.36c.396-.486.906-.866 1.485-1.107-.163.031-.322.077-.476.139a3.15 3.15 0 0 0-1.14.869 5.31 5.31 0 0 0-.958 2.446c-.109.883.006 1.779.335 2.606.489 1.119 1.197 2.128 2.083 2.968.926.918 2.025 1.771 3.116 2.706 2.316 2.105 4.4 4.453 6.215 7.003 1.829 2.574 3.906 4.964 6.2 7.134 1.938 1.728 4.218 3.03 6.691 3.821 1.678.525 3.457.646 5.19.353l.82-.189c.23-.066.419-.148.566-.197a2.23 2.23 0 0 0 .492-.197h0zM81.32 234.118a4.4 4.4 0 0 0 .344.492l1.05 1.37 3.797 5.067a165.85 165.85 0 0 1 10.931 17.77c3.87 7.183 7.068 13.849 9.52 18.605l2.944 5.617.795 1.501a3.04 3.04 0 0 0 .32.508 3.14 3.14 0 0 0-.238-.549l-.771-1.55-2.812-5.666c-2.378-4.797-5.543-11.48-9.414-18.68-3.27-6.166-6.97-12.096-11.07-17.744-1.64-2.141-2.927-3.863-3.903-4.994l-1.115-1.32c-.11-.156-.236-.299-.377-.427h0z"/></g><path opacity=".09" d="M145.304 325.081c-3.993 2.165-8.388 1.935-12.849 1.066a19.94 19.94 0 0 1-11.48-6.872 19.92 19.92 0 0 0 5.305 10.48c2.837 2.78 6.954 4.387 10.857 3.673s7.856-4.387 8.2-8.347m-37.835-23.665a17.62 17.62 0 0 0-2.46 13.218c-3.387-5.182-4.182-11.742-3.28-17.868s3.403-11.906 6.174-17.441c0 0 3.051 5.166 3.084 5.74.147 2.985-.952 8.593-1.526 11.521a6.41 6.41 0 0 0-1.661 2.659c-.325 1.011-.394 2.086-.2 3.13m24.124 44.157c-8.15 6.355-20.245 6.65-29.159 1.435-8.585-5.027-13.874-14.079-18.778-22.73-7.601-13.399-16.867-29.971-22.296-44.387 0 0 15.211 20.754 19.795 29.7A147.61 147.61 0 0 0 91.7 328a44.74 44.74 0 0 0 17.138 14.682 44.75 44.75 0 0 0 22.124 4.449" fill="#000"/><path d="M148.108 362.44a.83.83 0 0 0 0-.254v-.746l-.106-2.846-.468-10.192v.098l4.978-17.335c2.361-8.544 4.354-16.318 5.699-21.968l1.517-6.707.369-1.829c.048-.213.084-.43.106-.648a3.32 3.32 0 0 0-.188.624l-.451 1.82-1.64 6.667-5.822 21.926-4.92 17.343v.058l.623 10.201.197 2.837c0 .295.049.541.065.738a.91.91 0 0 0 .041.213h0zM61.5 232.437c0 .066.886-.246 2.304-.598a27.71 27.71 0 0 1 5.65-.82 27.21 27.21 0 0 1 5.691.442l2.337.451c-.182-.117-.381-.205-.59-.262a16.91 16.91 0 0 0-1.681-.484 22.3 22.3 0 0 0-5.74-.574c-1.945.059-3.874.367-5.74.919-.558.162-1.106.359-1.64.59-.41.205-.59.303-.59.336zM88.912 217.3a2.4 2.4 0 0 0 .221.426l.697 1.173 2.681 4.256c2.321 3.55 5.642 8.397 9.57 13.546 3.157 4.158 6.215 7.889 8.716 10.808l.181.205.106-.246 2.895-6.339.779-1.763c.101-.202.18-.413.238-.631a3.38 3.38 0 0 0-.337.59l-.861 1.722-3.017 6.281.279-.041c-2.46-2.952-5.486-6.691-8.643-10.84-3.92-5.15-7.265-9.955-9.652-13.464l-2.796-4.174-.763-1.132c-.081-.138-.181-.265-.295-.377h0zM68.978 349.541c.123 0-.254-4.272-.82-9.512l-1.263-9.454c-.115.016.262 4.264.82 9.504l1.263 9.462zm59.352-1.123c-.466 2.362-.792 4.75-.976 7.15-.332 2.384-.515 4.786-.549 7.192.461-2.363.787-4.75.976-7.151.322-2.384.505-4.785.549-7.191h0z" class="B"/><g fill="#fff"><path d="M84.534 254.766a1.05 1.05 0 0 1 .228-.44 1.06 1.06 0 0 1 .404-.287c.155-.062.324-.085.491-.069a1.06 1.06 0 0 1 .468.164l.057.05a.98.98 0 0 1 .28.424.99.99 0 0 1-.189.964 1 1 0 0 1-.419.287.99.99 0 0 1-.506.042c-.17-.031-.328-.105-.461-.215a.99.99 0 0 1-.344-.92h-.008zm8.552-20.845a1.06 1.06 0 0 1 .228-.44 1.05 1.05 0 0 1 .404-.286c.155-.062.324-.085.491-.069a1.06 1.06 0 0 1 .468.164l.049.049a.99.99 0 0 1 .28.424c.055.163.066.338.033.508s-.11.326-.222.457a1 1 0 0 1-.419.287.99.99 0 0 1-.967-.173c-.132-.111-.234-.253-.294-.415a.99.99 0 0 1-.05-.506zm19.623 16.786a1.05 1.05 0 0 1 .228-.44c.11-.127.248-.225.404-.287a1.07 1.07 0 0 1 .491-.069 1.06 1.06 0 0 1 .468.164h.049c.128.115.225.261.28.423s.067.338.035.507-.109.326-.221.457a.99.99 0 0 1-.417.288.98.98 0 0 1-.506.044c-.17-.029-.329-.102-.461-.211a1.01 1.01 0 0 1-.297-.412 1 1 0 0 1-.053-.505v.041zm21.213-8.43c.039-.162.116-.313.225-.44a1.03 1.03 0 0 1 .403-.286c.155-.062.323-.086.489-.069a1.03 1.03 0 0 1 .466.164l.057.049a.99.99 0 0 1 .314.931c-.034.169-.11.327-.223.457a.98.98 0 0 1-.419.287c-.163.058-.337.072-.507.042a.99.99 0 0 1-.805-1.135h0zm3.748-8.306a1.05 1.05 0 0 1 .228-.44c.11-.127.248-.225.404-.287s.324-.085.491-.069a1.06 1.06 0 0 1 .468.164l.057.049a1.01 1.01 0 0 1 .29.427c.057.166.071.343.038.515s-.109.332-.223.465-.26.234-.425.292a1 1 0 0 1-.515.042 1.01 1.01 0 0 1-.466-.221c-.134-.113-.235-.259-.295-.423a1.01 1.01 0 0 1-.044-.514h-.008z"/><use xlink:href="#B"/><path d="M147.789 237.579c.039-.163.117-.314.227-.44s.249-.225.405-.287.324-.085.491-.069a1.04 1.04 0 0 1 .467.164l.058.041a1 1 0 0 1 .28.423c.055.163.067.338.035.507s-.109.326-.221.457-.256.23-.418.288-.336.074-.505.044a1 1 0 0 1-.461-.211c-.132-.109-.235-.252-.297-.413s-.079-.334-.053-.504h-.008zm-27.249 3.804c.039-.162.116-.313.225-.44s.247-.224.402-.286a1.04 1.04 0 0 1 .956.095l.057.049a.99.99 0 0 1 .28.424c.055.164.066.338.033.507a1 1 0 0 1-.642.745.99.99 0 0 1-.506.041c-.17-.03-.328-.104-.461-.214a1.01 1.01 0 0 1-.294-.415 1 1 0 0 1-.05-.506h0zm23.075 17.114c.039-.163.118-.314.228-.44s.248-.225.404-.287a1.07 1.07 0 0 1 .491-.069 1.05 1.05 0 0 1 .467.164h.058a1 1 0 0 1 .28.423c.055.163.067.338.035.507s-.109.326-.221.457a.99.99 0 0 1-.417.288.98.98 0 0 1-.506.044c-.17-.029-.329-.102-.461-.211a1.01 1.01 0 0 1-.297-.412 1 1 0 0 1-.053-.505l-.008.041zm21.09 49.216c.04-.163.118-.313.228-.44s.249-.224.405-.286a1.04 1.04 0 0 1 .491-.069c.166.016.327.073.467.164l.049.041c.129.114.226.26.281.423a.99.99 0 0 1 .034.506.98.98 0 0 1-.22.457.99.99 0 0 1-.418.289 1 1 0 0 1-.506.044c-.169-.03-.328-.103-.461-.212s-.235-.251-.296-.412a1 1 0 0 1-.054-.505h0zm-7.528-28.388a1.05 1.05 0 0 1 .228-.44c.11-.127.249-.225.405-.287a1.05 1.05 0 0 1 .49-.068 1.04 1.04 0 0 1 .468.163l.058.05a.98.98 0 0 1 .279.424.99.99 0 0 1 .034.507c-.033.169-.11.327-.223.457s-.257.229-.419.287-.337.072-.507.042a1 1 0 0 1-.46-.215.98.98 0 0 1-.344-.92h-.009zm-55.497-49.84c.04-.163.118-.313.228-.44a1.06 1.06 0 0 1 .404-.286 1.04 1.04 0 0 1 .491-.069c.167.016.327.073.468.164l.057.041c.129.114.225.26.281.423a.99.99 0 0 1 .034.506.98.98 0 0 1-.22.457 1 1 0 0 1-.924.333c-.169-.03-.328-.103-.461-.212s-.235-.251-.296-.412a1 1 0 0 1-.054-.505h-.008zM75.243 286a1.05 1.05 0 0 1 .228-.44 1.06 1.06 0 0 1 .404-.287c.155-.062.324-.085.491-.069a1.06 1.06 0 0 1 .468.164l.057.049a1.01 1.01 0 0 1 .29.427.99.99 0 0 1 .038.515 1 1 0 0 1-.223.465c-.114.133-.26.234-.425.292a1 1 0 0 1-.514.042 1.01 1.01 0 0 1-.467-.221 1 1 0 0 1-.339-.937h-.008zm-10.307-48.635a1.05 1.05 0 0 1 .225-.44c.109-.126.247-.224.402-.286s.323-.086.489-.069a1.04 1.04 0 0 1 .466.164l.057.041a.99.99 0 0 1 .315.929 1 1 0 0 1-.22.458c-.112.131-.256.23-.418.288a1 1 0 0 1-.506.044.98.98 0 0 1-.461-.212c-.133-.109-.235-.251-.296-.412a1 1 0 0 1-.054-.505h0zm4.042 31.849a1.05 1.05 0 0 1 .228-.44 1.06 1.06 0 0 1 .404-.286 1.04 1.04 0 0 1 .491-.069c.167.016.327.073.468.164l.057.049a1.01 1.01 0 0 1 .29.427 1 1 0 0 1-.185.98 1.01 1.01 0 0 1-.425.292.99.99 0 0 1-.514.041 1 1 0 0 1-.806-1.158h-.008zm23.132 23.001a1.05 1.05 0 0 1 .228-.44 1.06 1.06 0 0 1 .404-.286 1.04 1.04 0 0 1 .491-.069c.167.016.327.073.468.164l.057.049a.99.99 0 0 1 .091 1.388.98.98 0 0 1-.419.287.99.99 0 0 1-.507.042c-.17-.03-.328-.104-.461-.215a.99.99 0 0 1-.344-.92h-.008zm-.975-19.155a1.05 1.05 0 0 1 .632-.726 1.04 1.04 0 0 1 .491-.069c.167.016.327.072.468.164l.057.049a1 1 0 0 1 .328.941c-.032.172-.109.333-.223.466s-.26.233-.425.292a1 1 0 0 1-.514.041.99.99 0 0 1-.466-.22 1 1 0 0 1-.339-.938h-.008zm-13.948-35.531a1.05 1.05 0 0 1 .225-.44c.109-.126.247-.224.402-.286s.323-.086.489-.069a1.04 1.04 0 0 1 .466.164l.057.049a.99.99 0 0 1 .28.424c.055.163.066.338.033.508s-.11.326-.222.457a1 1 0 0 1-.419.287.99.99 0 0 1-.967-.173c-.132-.111-.234-.253-.294-.415a.99.99 0 0 1-.05-.506h0zm18.753-18.548a1.04 1.04 0 0 1 .225-.44 1.05 1.05 0 0 1 .892-.356 1.04 1.04 0 0 1 .466.165l.057.041a.99.99 0 0 1 .095 1.386 1 1 0 0 1-.923.333 1 1 0 0 1-.812-1.129h0zm.713 29.905a1.04 1.04 0 0 1 .63-.732c.156-.062.325-.085.493-.067s.328.075.468.168l.049.041a.99.99 0 0 1 .315.929 1.01 1.01 0 0 1-.22.458.98.98 0 0 1-.418.288 1 1 0 0 1-.506.044.98.98 0 0 1-.461-.212c-.133-.109-.235-.251-.296-.412a1 1 0 0 1-.054-.505h0zm23.977 91.225c.041-.157.117-.303.224-.426s.241-.218.392-.28.314-.086.476-.073.319.063.458.148l.057.041c.129.114.226.26.281.423a.99.99 0 0 1-.186.964c-.112.13-.256.23-.418.288a1 1 0 0 1-.505.044c-.17-.029-.329-.102-.462-.212a.99.99 0 0 1-.296-.412 1 1 0 0 1-.054-.505h.033zm27.511-15.006a1.06 1.06 0 0 1 .228-.44c.11-.126.249-.224.405-.286a1.04 1.04 0 0 1 .49-.069 1.06 1.06 0 0 1 .468.164l.057.049a.99.99 0 0 1 .28.424c.055.164.067.338.034.507a1 1 0 0 1-.223.458c-.112.13-.257.229-.419.287a.98.98 0 0 1-.507.041.99.99 0 0 1-.805-1.135h-.008zm22.247 7.356c.039-.163.117-.314.227-.44s.249-.225.405-.287a1.07 1.07 0 0 1 .491-.069c.166.017.327.073.467.164l.05.041a1 1 0 0 1 .28.423.99.99 0 0 1 .034.507c-.032.169-.108.326-.22.457s-.256.23-.418.288-.336.074-.505.044a.99.99 0 0 1-.462-.211 1 1 0 0 1-.296-.413c-.061-.16-.08-.334-.053-.504h0zm2.378 12.669c.039-.163.117-.314.227-.44s.249-.225.405-.287a1.07 1.07 0 0 1 .491-.069c.166.017.327.073.467.164l.058.041c.128.115.225.261.28.423s.067.338.035.507-.109.326-.221.457-.256.23-.418.288-.336.074-.505.044a1 1 0 0 1-.461-.211c-.132-.109-.235-.252-.297-.413s-.079-.334-.053-.504h-.008zm-20.853 4.239c.04-.163.118-.313.228-.44a1.06 1.06 0 0 1 .404-.286 1.04 1.04 0 0 1 .491-.069c.167.016.327.073.468.164l.049.049a.99.99 0 0 1 .313.931c-.033.169-.11.327-.222.457s-.257.23-.42.287a.99.99 0 0 1-.506.042c-.17-.03-.328-.104-.461-.215a1 1 0 0 1-.344-.92zm6.97-28.372c.04-.163.118-.313.228-.44s.249-.224.405-.286a1.04 1.04 0 0 1 .49-.069c.167.016.327.073.468.164l.057.049c.133.115.233.262.29.427a1 1 0 0 1 .039.515 1.02 1.02 0 0 1-.223.465c-.114.133-.261.233-.426.292a.99.99 0 0 1-.514.041 1 1 0 0 1-.806-1.158h-.008zm-25.584 7.216a1.03 1.03 0 0 1 .225-.443 1.04 1.04 0 0 1 .405-.289 1.05 1.05 0 0 1 .961.101l.049.041c.129.114.225.26.281.423a.99.99 0 0 1 .034.506 1 1 0 0 1-.22.457.99.99 0 0 1-.418.289 1 1 0 0 1-.506.044c-.169-.03-.328-.103-.461-.212s-.235-.251-.296-.412a.99.99 0 0 1-.054-.505h0zm-60.819-7.257c.037-.164.113-.316.222-.443a1.03 1.03 0 0 1 .894-.357 1.02 1.02 0 0 1 .466.169l.057.041a.99.99 0 0 1 .094 1.386 1 1 0 0 1-.924.333c-.169-.03-.328-.103-.461-.212s-.235-.251-.296-.412a1 1 0 0 1-.054-.505h0zm37.629 36.056a1.05 1.05 0 0 1 .228-.44c.11-.127.249-.225.405-.287s.324-.085.491-.069a1.04 1.04 0 0 1 .467.164l.058.049a1 1 0 0 1 .28.425.99.99 0 0 1 .033.507 1 1 0 0 1-.222.457c-.113.13-.258.229-.42.287a.99.99 0 0 1-.967-.173c-.132-.11-.234-.253-.294-.415a.99.99 0 0 1-.05-.505h-.009zm-16.047-20.074a1.04 1.04 0 0 1 .225-.44 1.05 1.05 0 0 1 .892-.356 1.04 1.04 0 0 1 .466.165l.057.049a.99.99 0 0 1 .091 1.388.98.98 0 0 1-.419.287.99.99 0 0 1-.507.042c-.17-.03-.328-.104-.461-.215a.99.99 0 0 1-.344-.92h0zm-9.536 16.326c.037-.163.112-.315.219-.443a1.05 1.05 0 0 1 .397-.294 1.06 1.06 0 0 1 .488-.08 1.05 1.05 0 0 1 .47.153l.049.049a.99.99 0 0 1 .28.424c.055.163.066.338.033.508s-.11.326-.222.457a1 1 0 0 1-.419.287.99.99 0 0 1-.967-.173c-.132-.111-.234-.253-.294-.415a.99.99 0 0 1-.05-.506l.016.033zm26.526-85.493a1.05 1.05 0 0 1 .228-.44c.11-.126.249-.225.405-.286a1.04 1.04 0 0 1 .49-.069 1.03 1.03 0 0 1 .468.164l.058.049c.128.114.225.261.279.424a.99.99 0 0 1 .034.507c-.033.169-.11.327-.223.457a.98.98 0 0 1-.419.287c-.162.058-.337.072-.507.042a.98.98 0 0 1-.804-1.135h-.009zm-21.59 41.681a1.05 1.05 0 0 1 .228-.44 1.06 1.06 0 0 1 .404-.287c.155-.062.324-.085.491-.069s.327.073.468.164l.057.041a.99.99 0 0 1 .314.93c-.033.169-.109.326-.22.457a.98.98 0 0 1-.418.288.99.99 0 0 1-.506.044c-.169-.029-.328-.102-.461-.212a.99.99 0 0 1-.35-.916h-.008zm7.003 15.785a1.05 1.05 0 0 1 .228-.44 1.06 1.06 0 0 1 .404-.287c.155-.062.324-.085.491-.069a1.06 1.06 0 0 1 .468.164l.057.041a.99.99 0 0 1 .314.93.99.99 0 0 1-.22.457c-.112.131-.256.23-.418.288a.99.99 0 0 1-1.263-.58.99.99 0 0 1-.054-.504h-.008zm-23.018 12.677a1.05 1.05 0 0 1 .228-.44 1.06 1.06 0 0 1 .404-.287c.155-.062.324-.085.491-.069s.327.073.468.164l.057.05a.98.98 0 0 1 .28.424.99.99 0 0 1-.189.964 1 1 0 0 1-.419.287.99.99 0 0 1-.507.042c-.17-.031-.328-.105-.461-.215a.99.99 0 0 1-.344-.92h-.008zm62.985 18.31c.038-.163.115-.316.225-.443s.248-.227.405-.289a1.05 1.05 0 0 1 .492-.068 1.04 1.04 0 0 1 .468.169l.058.041a.99.99 0 0 1 .28.423 1 1 0 0 1-.186.964c-.112.13-.256.23-.418.288a1 1 0 0 1-.505.044.98.98 0 0 1-.461-.212 1.01 1.01 0 0 1-.297-.412 1 1 0 0 1-.053-.505h-.008zm52.48-4.797c.039-.162.117-.313.227-.44a1.06 1.06 0 0 1 .405-.286 1.04 1.04 0 0 1 .491-.069c.166.017.327.073.467.164l.058.049a1.01 1.01 0 0 1 .328.942c-.032.172-.109.332-.223.465a1 1 0 0 1-.425.292c-.165.059-.343.073-.515.042s-.333-.108-.466-.221a1 1 0 0 1-.339-.938h-.008zm-46.232-8.618c.04-.163.118-.313.228-.44a1.06 1.06 0 0 1 .404-.286 1.04 1.04 0 0 1 .491-.069c.167.016.327.073.468.164l.057.049a1 1 0 0 1 .329.942 1.01 1.01 0 0 1-.224.465c-.113.133-.26.233-.425.292a.99.99 0 0 1-.514.041 1 1 0 0 1-.806-1.158h-.008zm44.28-9.372a1.04 1.04 0 0 1 .225-.444 1.05 1.05 0 0 1 .405-.288c.156-.063.325-.086.493-.068a1.04 1.04 0 0 1 .468.168l.049.041a1 1 0 0 1 .28.423c.055.163.067.338.035.507s-.109.326-.221.457-.256.23-.418.288-.336.074-.505.044a.99.99 0 0 1-.461-.212 1.01 1.01 0 0 1-.297-.412c-.062-.161-.079-.334-.053-.504h0z"/><use xlink:href="#B" x="-23.042" y="79.294"/><path d="M128.477 258.497a1.05 1.05 0 0 1 .228-.44c.11-.127.249-.225.405-.287a1.07 1.07 0 0 1 .491-.069c.166.017.327.073.467.164h.058a1 1 0 0 1 .28.423c.055.163.067.338.035.507s-.109.326-.221.457-.256.23-.418.288-.336.074-.505.044a.99.99 0 0 1-.462-.211c-.132-.11-.234-.252-.296-.412a.99.99 0 0 1-.053-.505l-.009.041zm3.871 39.163a1.05 1.05 0 0 1 .228-.44c.11-.126.249-.225.405-.286a1.04 1.04 0 0 1 .49-.069c.167.016.327.072.468.164l.049.049c.129.114.225.261.28.424a.99.99 0 0 1 .033.507c-.033.169-.109.327-.222.457s-.257.23-.419.287-.337.072-.507.042-.328-.104-.461-.215a1 1 0 0 1-.294-.414c-.06-.162-.077-.336-.05-.506h0zm6.297-12.767a1.05 1.05 0 0 1 .228-.44c.11-.127.249-.225.405-.287a1.05 1.05 0 0 1 .49-.069c.167.017.328.073.468.164h.049a.99.99 0 0 1 .315.93c-.032.169-.108.326-.22.457s-.256.23-.418.288a.99.99 0 0 1-.506.044c-.169-.029-.328-.102-.461-.212a.99.99 0 0 1-.296-.412c-.061-.161-.08-.334-.054-.504v.041zm-27.855 40.163c.04-.163.118-.313.228-.44a1.06 1.06 0 0 1 .404-.286 1.04 1.04 0 0 1 .491-.069c.167.016.327.073.468.164l.057.049a1.01 1.01 0 0 1 .29.427.99.99 0 0 1 .038.515 1 1 0 0 1-.223.465c-.114.133-.26.234-.425.292a.99.99 0 0 1-.514.041c-.173-.031-.333-.107-.467-.22a1.01 1.01 0 0 1-.339-.938h-.008zm19.639-7.88c.035-.166.11-.321.219-.451a1.03 1.03 0 0 1 .403-.297 1.04 1.04 0 0 1 .969.092l.057.049c.129.115.226.261.28.424s.067.338.034.508a1 1 0 0 1-.223.457c-.112.13-.257.229-.419.287a.98.98 0 0 1-.507.041.99.99 0 0 1-.805-1.135l-.008.025zm-8.405-43.255a1.05 1.05 0 0 1 .225-.44c.109-.126.247-.225.403-.287a1.05 1.05 0 0 1 .489-.069 1.04 1.04 0 0 1 .466.165l.057.041c.129.114.225.26.281.423a.99.99 0 0 1 .034.506c-.033.169-.108.326-.22.457a1 1 0 0 1-.924.333c-.169-.03-.328-.103-.461-.212a.99.99 0 0 1-.296-.412 1 1 0 0 1-.054-.505h0zm29.889 30.627a1.05 1.05 0 0 1 .632-.726 1.04 1.04 0 0 1 .491-.069c.167.016.327.072.468.164l.049.049c.129.114.225.261.28.424a.99.99 0 0 1 .033.507c-.033.169-.11.327-.222.457s-.257.23-.42.287a.99.99 0 0 1-.506.042c-.17-.03-.328-.104-.461-.215a1 1 0 0 1-.294-.414c-.06-.162-.077-.336-.05-.506zm-46.133-14.055c.04-.163.118-.313.228-.44s.249-.224.405-.286a1.04 1.04 0 0 1 .49-.069c.167.016.327.073.468.164l.057.041c.129.114.226.26.281.423a.99.99 0 0 1 .034.506.98.98 0 0 1-.22.457.99.99 0 0 1-.418.289 1 1 0 0 1-.506.044c-.169-.03-.328-.103-.461-.212s-.235-.251-.296-.412a1 1 0 0 1-.054-.505h-.008zM62.984 253.79a1.05 1.05 0 0 1 .632-.726 1.04 1.04 0 0 1 .491-.069c.167.016.327.072.468.164l.057.049a.99.99 0 0 1 .091 1.388.98.98 0 0 1-.419.287.99.99 0 0 1-.507.042c-.17-.03-.328-.104-.461-.215a.99.99 0 0 1-.344-.92h-.008zM80.36 226a1.05 1.05 0 0 1 .228-.44 1.06 1.06 0 0 1 .404-.286 1.04 1.04 0 0 1 .491-.069c.167.016.327.073.468.164l.057.049a.99.99 0 0 1 .091 1.388.98.98 0 0 1-.419.287.99.99 0 0 1-.967-.172 1 1 0 0 1-.294-.415.99.99 0 0 1-.05-.506h-.008zm33.669 3.485c.04-.163.118-.313.228-.44s.249-.224.405-.286a1.04 1.04 0 0 1 .49-.069c.167.016.327.073.468.164l.057.041c.129.114.226.26.281.423a.99.99 0 0 1 .034.506.98.98 0 0 1-.22.457 1 1 0 0 1-.924.333c-.169-.03-.328-.103-.461-.212s-.235-.251-.296-.412a1 1 0 0 1-.054-.505h-.008z"/></g><g class="B"><path d="M148.379 129.732c6.453 4.1 9.02 12.718 7.806 17.811-.623 2.566-1.787 5.149-1.279 7.732.435 2.239 2.05 4.035 3.28 5.97 2.027 3.257 2.958 7.078 2.657 10.903s-1.817 7.453-4.328 10.354-5.883 4.922-9.625 5.769a17.98 17.98 0 0 1-11.172-1.065"/><path d="M152.2 163.344c15.711-34.555-21.664-51.914-42.05-46.158-19.163 5.412-27.339 14.949-30.496 27.765s-3.001 26.716 2.025 38.926c2.46 6.019 6.937 12.136 13.407 12.89"/></g><path d="M133.791 247.73l.468-39.097c0 .09 14.161-2.354 17.138-20.853 1.459-9.209.992-24.305.221-36.646-.705-11.111-8.061-24.739-19.131-23.567L97.924 136.3c-1.623.171-3.122.945-4.2 2.169a6.5 6.5 0 0 0-1.622 4.441l2.247 71.479" class="E"/><path d="M145.435 162.426c.013.614-.214 1.21-.634 1.659s-.999.715-1.613.743c-.3.028-.603-.004-.89-.095a2.25 2.25 0 0 1-1.336-1.14 2.26 2.26 0 0 1-.234-.864c-.011-.615.217-1.21.636-1.66a2.37 2.37 0 0 1 1.611-.751 2.26 2.26 0 0 1 .891.099 2.25 2.25 0 0 1 .783.437 2.26 2.26 0 0 1 .552.706 2.27 2.27 0 0 1 .234.866h0zm-24.534 0a2.35 2.35 0 0 1-2.247 2.394c-.3.028-.603-.004-.89-.095a2.25 2.25 0 0 1-.783-.435 2.26 2.26 0 0 1-.787-1.569c-.013-.615.214-1.21.634-1.659s.999-.716 1.613-.744c.301-.028.604.005.892.096a2.25 2.25 0 0 1 .784.437c.23.197.417.437.552.708a2.26 2.26 0 0 1 .232.867h0zm27.093-4.314c-.287.32-2.132-.951-4.683-.82s-4.378 1.427-4.674 1.124c-.139-.131.148-.697.943-1.32 1.078-.806 2.379-1.256 3.723-1.288a6.29 6.29 0 0 1 3.739 1.074c.804.558 1.091 1.083.952 1.23zm-24.256.607c-.295.312-2.091-1.033-4.641-1.033s-4.436 1.263-4.707.951c-.139-.139.164-.697.984-1.287a6.48 6.48 0 0 1 3.772-1.148 6.22 6.22 0 0 1 3.69 1.213c.787.607 1.05 1.165.902 1.304zm8.757 19.68c0-.147 1.575-.418 4.15-.754.656-.066 1.271-.197 1.377-.64.058-.674-.093-1.35-.434-1.935l-1.928-4.969c-2.681-7.069-4.616-12.891-4.329-12.997s2.69 5.543 5.363 12.62l1.853 5.002a3.75 3.75 0 0 1 .336 2.558c-.095.23-.241.435-.427.599a1.65 1.65 0 0 1-.647.352c-.36.102-.733.154-1.107.156-2.591.139-4.199.148-4.207.008z" class="B"/><path d="M134.259 208.633c-8.718.133-17.302-2.155-24.797-6.61 0 0 6.265 12.874 24.797 11.144v-4.534z" class="D"/><path d="M124.369 155.087c-.246.697-2.804.36-5.797.729s-5.42 1.173-5.822.55c-.18-.295.246-.951 1.222-1.64a10.17 10.17 0 0 1 4.315-1.509c1.535-.169 3.087.013 4.541.533 1.099.459 1.656 1.009 1.541 1.337zm23.034-3.387c-.451.582-2.214 0-4.329-.049s-3.912.393-4.322-.213c-.18-.296.099-.878.886-1.427a5.98 5.98 0 0 1 3.518-.951c1.243.024 2.448.43 3.452 1.164.746.582.992 1.181.795 1.476z" class="B"/><path d="M95.276 167.28c-.271-.131-9.914-4.395-10.029 6.691s11.045 8.914 11.07 8.594-1.041-15.285-1.041-15.285z" class="E"/><path d="M92.972 178.317c-.049 0-.197.131-.525.279-.463.184-.98.184-1.443 0-1.164-.443-2.132-2.312-2.165-4.313-.025-.95.169-1.892.566-2.755.106-.346.295-.661.551-.917a2.21 2.21 0 0 1 .917-.551c.222-.057.457-.034.664.064s.372.268.467.477c.148.312.074.533.131.549s.246-.18.156-.639a1.22 1.22 0 0 0-.426-.697 1.45 1.45 0 0 0-.504-.254c-.183-.051-.374-.065-.562-.041a2.71 2.71 0 0 0-1.238.583 2.72 2.72 0 0 0-.796 1.114 6.56 6.56 0 0 0-.705 3.083c.049 2.231 1.173 4.338 2.772 4.814a2.09 2.09 0 0 0 .916.064 2.07 2.07 0 0 0 .855-.335c.344-.254.402-.508.369-.525z" class="D"/><g class="B"><path d="M136.177 122.082c6.167 3.189 8.709 15.801 6.159 22.263s-9.43 9.61-16.212 11.094-13.431 1.64-20.123-.197c-.459 4.494-3.157 9.111-7.519 10.3-5.781 1.566-11.603-3.723-12.89-9.57s.648-11.865 2.55-17.548"/><path d="M87.264 162.303a8.03 8.03 0 0 0 .861.82c.814.688 1.665 1.332 2.55 1.927 1.323.912 2.777 1.617 4.313 2.091 1.918.604 3.981.573 5.879-.091a9.1 9.1 0 0 0 4.453-3.845c.823-1.39 1.367-2.928 1.599-4.527a16.54 16.54 0 0 0 .172-3.214 3.56 3.56 0 0 0-.14-1.165c-.123 0 0 1.681-.475 4.297-.281 1.52-.837 2.976-1.64 4.297a8.75 8.75 0 0 1-4.174 3.559 8.97 8.97 0 0 1-5.502.115c-1.489-.431-2.911-1.069-4.223-1.895l-3.674-2.369z"/></g><path d="M131.741 185.517c-.326.961-.79 1.87-1.377 2.698a3.58 3.58 0 0 1-2.55 1.484c-.541-.004-1.073-.141-1.548-.4s-.879-.632-1.175-1.084c-.572-.928-.836-2.013-.754-3.1.041-.976.492-2.14 1.459-2.255.407-.014.811.076 1.173.262l5.1 2.067" class="D"/><path d="M129.707 189.707c0-.156-1.148.295-2.722-.336-.893-.345-1.626-1.008-2.058-1.862a4.08 4.08 0 0 1-.388-1.661c-.011-.575.098-1.146.322-1.676a3.9 3.9 0 0 1 .443-.763c.205-.213.172-.205.385-.172s.55.213.82.32l.82.344 2.911 1.14c1.64.623 2.731.951 2.78.82s-.918-.656-2.525-1.427l-2.838-1.32-.82-.369c-.303-.123-.524-.254-.934-.385-.245-.081-.51-.081-.755 0a1.39 1.39 0 0 0-.566.443c-.547.711-.878 1.565-.952 2.459s.111 1.792.534 2.584c.272.502.642.946 1.086 1.305a4.33 4.33 0 0 0 1.505.786c.713.234 1.477.265 2.206.09.525-.09.763-.263.746-.32z" class="B"/><g class="C"><path d="M82.82 159.679c1.132-.082 10.291 1.107 9.569 18.122-.672 15.899-11.824 12.398-15.383 6.412-3.346-5.666-5.297-23.755 5.814-24.534z"/><path d="M77.187 161.688a2.79 2.79 0 0 0 .041-.443l.049-1.304.139-4.846.336-16.687-.205.197h4.715l-.213-.214-.107 3.961-.426 17.31v.148h.139c1.936.446 3.656 1.554 4.863 3.132.914 1.224 1.575 2.618 1.943 4.1.246.955.413 1.929.5 2.911 0 .336.041.599.049.771s0 .271 0 .271a1.15 1.15 0 0 0 0-.271v-.779c-.04-.995-.177-1.984-.41-2.952-.342-1.526-.992-2.966-1.911-4.231a8.84 8.84 0 0 0-5.01-3.28l.139.18.492-17.31.107-3.961v-.221h-5.141v.205l-.189 16.695v4.846 1.296c.011.162.044.322.098.476h0z"/><path d="M82.82 138.4s4.789-11.202 16.195-16.737c4.362-2.172 8.945-3.871 13.67-5.067 0 0-6.659-1.575-17.425 3.214-4.92 2.181-9.84 5.01-13.12 9.266-2.066 2.698-4.658 7.971-4.649 9.324h5.33z"/></g><path d="M112.34 274.085s-.066-.082-.205-.221l-.615-.64c-.787-.832-1.526-1.708-2.214-2.624-1.095-1.465-2.095-2.999-2.993-4.592l-3.387-6.511c-2.419-4.92-5.215-10.84-8.118-17.646-1.443-3.403-2.919-7.019-4.395-10.832l-1.099-2.887a16.77 16.77 0 0 0-1.32-2.911c-.568-.96-1.391-1.744-2.378-2.263a3.38 3.38 0 0 0-1.64-.418c-.313.021-.614.129-.869.311a1.87 1.87 0 0 0-.549.738v.058.065a2.84 2.84 0 0 0 .443 1.091 1.72 1.72 0 0 0 1.025.672c.788.11 1.59-.037 2.288-.418.733-.342 1.331-.919 1.697-1.64s.483-1.543.328-2.337a3.19 3.19 0 0 0-1.337-2.001 3.73 3.73 0 0 0-2.329-.664c-.429.003-.85.113-1.226.321a2.57 2.57 0 0 0-.923.868 1.24 1.24 0 0 0 .082 1.337 2.36 2.36 0 0 0 1.041.754 3.42 3.42 0 0 0 2.149.093c.707-.201 1.332-.624 1.779-1.208a2.88 2.88 0 0 0 .533-2.066c-.072-.713-.358-1.388-.82-1.936a2.97 2.97 0 0 0-1.845-1.016 2.36 2.36 0 0 0-1.078.109 2.37 2.37 0 0 0-.915.579 1.48 1.48 0 0 0-.394 1.042 1.37 1.37 0 0 0 .131.554c.082.174.199.329.344.454.268.241.588.416.936.51s.712.105 1.065.032c.341-.09.66-.25.935-.47a2.51 2.51 0 0 0 .663-.81c.318-.587.521-1.23.599-1.894.231-1.289.08-2.617-.435-3.821-.287-.614-.785-1.106-1.402-1.386-.631-.234-1.329-.21-1.943.066a1.84 1.84 0 0 0-.818.587c-.213.268-.347.59-.388.93a1.69 1.69 0 0 0 1.041 1.64c.292.149.615.228.943.228s.651-.079.943-.228a2.61 2.61 0 0 0 1.173-1.443 3.6 3.6 0 0 0 .107-1.788 8.15 8.15 0 0 0-.377-1.706 3.13 3.13 0 0 0-.992-1.451 3.98 3.98 0 0 0-1.55-.763c-.295-.084-.607-.084-.902 0a1.91 1.91 0 0 0-.746.476 2.15 2.15 0 0 0-.484.722c-.119.291-.119.618 0 .91a1.47 1.47 0 0 0 1.468.82c.555-.008 1.094-.189 1.541-.517a4.23 4.23 0 0 0 1.64-2.583c.215-1.022.054-2.087-.451-3.001a3.32 3.32 0 0 0-.927-1.123c-.383-.291-.83-.485-1.304-.566-.473-.096-.966-.027-1.394.197a1.45 1.45 0 0 0-.523.482c-.132.202-.211.434-.231.674a2.04 2.04 0 0 0 1.542 1.968c.411.087.839.057 1.234-.088a2.23 2.23 0 0 0 .997-.732c.493-.593.78-1.33.82-2.099a13.12 13.12 0 0 0-.82-3.92l-.918-3.231-1.279-4.461-.336-1.156c-.082-.27-.131-.393-.131-.393s0 .139.09.401.172.673.295 1.173l1.205 4.477.877 3.239c.279 1.189.82 2.46.763 3.854-.059.721-.347 1.405-.82 1.952a1.99 1.99 0 0 1-.879.649c-.348.131-.725.161-1.089.089a1.77 1.77 0 0 1-1.328-1.64c.017-.193.081-.378.187-.54s.25-.294.42-.387a1.87 1.87 0 0 1 1.197-.156 2.68 2.68 0 0 1 1.181.517 3.08 3.08 0 0 1 .82 1.025 4.1 4.1 0 0 1 .303 2.706 3.92 3.92 0 0 1-1.525 2.37c-.393.282-.861.439-1.345.451-.227.027-.457-.016-.659-.123a1.12 1.12 0 0 1-.472-.476c-.05-.227-.037-.465.04-.685s.213-.414.394-.561a1.65 1.65 0 0 1 .599-.386c.234-.061.48-.061.713 0a3.12 3.12 0 0 1 1.393.703c.397.349.7.792.878 1.29a7.46 7.46 0 0 1 .353 1.64 3.19 3.19 0 0 1-.099 1.64c-.163.516-.514.953-.984 1.222-.238.119-.501.181-.767.181s-.529-.062-.767-.181c-.245-.096-.455-.264-.602-.482a1.29 1.29 0 0 1-.218-.74 1.45 1.45 0 0 1 .315-.721 1.46 1.46 0 0 1 .645-.452c.519-.226 1.106-.247 1.64-.057.524.244.945.665 1.189 1.189a6.37 6.37 0 0 1 .385 3.583 4.92 4.92 0 0 1-.549 1.747c-.134.261-.32.491-.547.676s-.49.32-.773.398c-.288.062-.587.055-.872-.02s-.548-.218-.768-.414a1.02 1.02 0 0 1-.342-.722c-.005-.137.017-.274.066-.402a1.02 1.02 0 0 1 .219-.344 1.97 1.97 0 0 1 .756-.466c.284-.095.587-.124.884-.084a2.52 2.52 0 0 1 1.574.886 2.82 2.82 0 0 1 .746 1.683c.053.629-.105 1.258-.451 1.786a3.01 3.01 0 0 1-1.555 1.045c-.616.174-1.272.147-1.872-.078-.321-.132-.603-.343-.82-.615-.092-.127-.146-.278-.155-.435a.82.82 0 0 1 .105-.45 2.15 2.15 0 0 1 .778-.705c.313-.168.663-.255 1.018-.255a3.08 3.08 0 0 1 2.036.571 3.07 3.07 0 0 1 1.186 1.75c.134.685.037 1.394-.274 2.019s-.82 1.128-1.448 1.433c-.609.346-1.314.484-2.009.394-.313-.098-.589-.286-.794-.542a1.64 1.64 0 0 1-.354-.893v.123a1.23 1.23 0 0 1 1.074-.82c.508-.003 1.009.127 1.451.377a5.57 5.57 0 0 1 2.222 2.115 16.02 16.02 0 0 1 1.287 2.829l1.115 2.895c1.476 3.805 2.968 7.38 4.428 10.824 2.919 6.806 5.74 12.743 8.2 17.63 1.222 2.46 2.354 4.633 3.444 6.494a42.04 42.04 0 0 0 3.059 4.568 21.54 21.54 0 0 0 3.116 3.411h0z" fill="#fff"/><path d="M72.906 151.7c.1-1.042.351-2.064.746-3.034a11.95 11.95 0 0 1 5.888-5.896 15.92 15.92 0 0 1 5.674-1.386 26.69 26.69 0 0 1 6.732.509c4.699.869 9.635 2.894 15.162 3.731a30.9 30.9 0 0 0 8.118 0c2.502-.377 4.951-1.043 7.298-1.985a32.19 32.19 0 0 0 10.66-7.019c2.053-2.024 3.789-4.346 5.15-6.888.23-.387.432-.79.607-1.205l.393-.91c.099-.222.172-.41.238-.558.032-.062.054-.128.066-.197-.043.056-.079.116-.107.181l-.271.541-.434.885a10.22 10.22 0 0 1-.64 1.189c-1.406 2.488-3.163 4.761-5.215 6.749a31.99 31.99 0 0 1-17.769 8.799 30.46 30.46 0 0 1-8.003 0c-5.453-.82-10.398-2.838-15.154-3.69a26.83 26.83 0 0 0-6.822-.476 15.93 15.93 0 0 0-5.781 1.468 11.96 11.96 0 0 0-5.912 6.101 8.94 8.94 0 0 0-.566 2.279v.607c-.029.065-.049.134-.057.205zm12.374-17.671c.194.048.391.08.59.098l1.689.271c1.46.238 3.551.705 6.125 1.345a65.21 65.21 0 0 0 9.176 1.779 46.08 46.08 0 0 0 11.43-.254c3.787-.549 7.494-1.546 11.046-2.968 2.911-1.153 5.7-2.595 8.323-4.305 1.099-.747 2.083-1.435 2.919-2.091s1.542-1.222 2.083-1.731l1.246-1.172c.279-.271.427-.418.41-.435-.167.108-.323.232-.467.369l-1.296 1.107c-.557.492-1.304 1.017-2.124 1.64s-1.837 1.304-2.935 2.026c-5.846 3.687-12.399 6.109-19.237 7.109-3.756.55-7.563.643-11.341.279-3.079-.335-6.132-.883-9.135-1.64-2.583-.599-4.699-1.025-6.175-1.222-.738-.098-1.312-.156-1.706-.18a3.02 3.02 0 0 0-.623-.025h0z" class="C"/><path d="M84.067 188.969c.11-.021.217-.054.32-.098.286-.121.56-.266.82-.435a7.53 7.53 0 0 0 2.403-2.558 12.36 12.36 0 0 0 1.476-4.994c.189-2.117.189-4.247 0-6.363a38.73 38.73 0 0 0-1.05-6.273c-.373-1.701-.988-3.339-1.829-4.863-.605-1.034-1.448-1.908-2.46-2.55-.258-.17-.533-.313-.82-.427-.205-.073-.32-.106-.32-.09s.418.189 1.082.656c.927.679 1.694 1.552 2.247 2.559.789 1.517 1.363 3.137 1.706 4.813a41 41 0 0 1 1.017 6.216c.172 2.09.172 4.191 0 6.281a12.47 12.47 0 0 1-1.345 4.92c-.541 1.014-1.303 1.894-2.23 2.575-.623.434-1.041.59-1.017.631z" class="B"/><g class="C"><path d="M120.947 186.436l8.417 1.651c1.267.248 2.092 1.477 1.843 2.743l-.061.314c-.249 1.267-1.477 2.092-2.743 1.843l-8.417-1.651a2.34 2.34 0 0 1-1.844-2.743l.062-.314c.249-1.267 1.477-2.092 2.743-1.843z"/><path d="M119.334 187.682L80.425 175.48c-.462-.144-.963-.101-1.393.122s-.755.606-.903 1.067h0c-.075.237-.102.486-.078.734s.097.487.216.705a1.86 1.86 0 0 0 .475.565c.195.154.419.267.658.333l39.787 10.742.147-2.066z"/></g><path d="M90.577 182.319a8.63 8.63 0 0 0-1.287-.451l-3.559-1.083-5.264-1.582a3.52 3.52 0 0 1-1.271-.82 1.92 1.92 0 0 1-.549-1.353c.002-.249.082-.49.229-.691a1.18 1.18 0 0 1 .591-.424 2.97 2.97 0 0 1 1.64.049l11.669 3.755 3.551 1.099c.407.168.826.302 1.255.402a8.78 8.78 0 0 0-1.271-.5l-3.51-1.23-11.652-3.879a3.36 3.36 0 0 0-1.87 0 1.64 1.64 0 0 0-1.082 1.509 2.33 2.33 0 0 0 .672 1.64 3.93 3.93 0 0 0 1.492.82l5.322 1.501 3.559.959a7.26 7.26 0 0 0 1.337.279zm63.583-29.799c-1.329 4.674 3.419 8.684 5.092 13.251 1.64 4.412.246 9.356-1.747 13.62s-4.616 8.299-5.633 12.883c-2.518 11.316 7.716 23.509 5.74 34.932-.705 4.165-2.386 8.511-3.838 12.472-1.402 3.735-1.402 7.851 0 11.586 2.214 6.56 5.97 9.635 8.61 16.015 1.353 3.28 1.247 6.921 1.181 10.447s-.049 7.216 1.525 10.381 5.166 5.609 8.577 4.69c-1.84 2.063-4.31 3.461-7.025 3.978a12.57 12.57 0 0 1-7.997-1.116c-4.485-2.394-6.995-7.249-9.143-11.857-10.398-22.312-15.9-24.198-15.58-48.815l.312-26.24a24.55 24.55 0 0 0 6.141-2.583c11.612-8.019 12.038-22.304 11.948-33.382" class="B"/><path d="M130.954 227.206v9.29s7.142 36.449 9.291 56.695l2.501 25.592s-5.125 7.995-15.843-5.584-12.628-15.719-16.916-15.957l5.002-59.04a8.6 8.6 0 0 0-1.903-4.051l17.868-6.945zm-14.055-20.96s11.669 15.482 12.62 17.614l1.435 3.329-17.868 6.913-17.392-19.057-6.429-16.917 1.911-20.008s3.805-.237 4.518 3.1a25.07 25.07 0 0 1 .484 6.429l5.33-4.289 8.602-2.616s2.025 3.33-1.312 5.002-4.289 1.64-4.289 1.64l-3.001 5.24 1.312 5.871 6.084-5.74c.59-.556 1.355-.889 2.164-.94a3.47 3.47 0 0 1 2.264.662l3.936 2.853 3.682-1.64 7.142 6.388 2.862 2.616s-1.91 3.575-5.74 1.91l-3.813-1.64-4.502 3.28z" class="E"/><g class="D"><path d="M130.954 230.346a3.79 3.79 0 0 0 0-.5c0-.328-.041-.82-.115-1.451-.095-.789-.246-1.57-.451-2.337a10.36 10.36 0 0 0-1.246-3.002c-2.673-4.1-6.88-9.84-12.128-16.9v.213l4.527-3.329h-.156l2.353 1.042c.808.394 1.647.72 2.509.975a4.1 4.1 0 0 0 2.788-.319c.878-.452 1.607-1.146 2.1-2.001l.065-.115-.106-.098c-3.067-2.887-6.487-5.798-9.996-8.914l-.107-.09-.115.066-3.173 1.877h.205l-3.706-2.46-1.927-1.246a2.31 2.31 0 0 0-1.226-.233c-.423.036-.827.188-1.169.438l-7.224 6.109.336.115-1.246-5.601v.148l3.001-5.24-.189.107c.51-.07 1.009-.205 1.485-.402a25.37 25.37 0 0 0 1.402-.574c.467-.205.926-.435 1.386-.656.237-.115.467-.271.697-.402.224-.16.433-.341.623-.541a3.01 3.01 0 0 0 .82-2.19 4.82 4.82 0 0 0-.632-2.23l-.082-.139-.164.049-8.593 2.624h-.041l-5.33 4.288.336.181a25.47 25.47 0 0 0-.451-6.339 3.86 3.86 0 0 0-.587-1.506c-.3-.455-.692-.842-1.152-1.134a5.53 5.53 0 0 0-3.034-.763h-.221v.181l-1.886 20.008v.041l6.462 16.9 13.464 14.858 3.657 3.961.96 1.017.336.336s-.098-.131-.303-.369l-.927-1.042-3.608-4.009-13.399-14.76v.041l-6.396-16.925v.082l1.927-20.008-.189.188c.978-.04 1.947.205 2.788.706a3.41 3.41 0 0 1 1.033 1.021c.267.41.444.873.517 1.357a24.59 24.59 0 0 1 .443 6.223v.476l.369-.295 5.412-4.313h-.074l8.594-2.616-.238-.099c.346.618.54 1.31.566 2.018a2.6 2.6 0 0 1-.161 1.018c-.121.325-.306.623-.544.876a4.44 4.44 0 0 1-.55.475c-.221.123-.418.255-.647.369-.46.222-.911.451-1.37.648a12.03 12.03 0 0 1-2.714.943h-.131l-.049.082-3.002 5.24-.041.074v.082l1.255 5.6.074.345.27-.23 7.2-6.092a1.89 1.89 0 0 1 .959-.368 1.9 1.9 0 0 1 1.009.187c.607.361 1.263.82 1.886 1.222l3.715 2.46.098.066.107-.058 3.173-1.886h-.23l10.013 8.881-.041-.213c-.453.791-1.125 1.434-1.936 1.853-.789.402-1.697.506-2.558.295a16.27 16.27 0 0 1-2.46-.943l-2.353-1.033h-.091l-.073.049-4.519 3.346-.123.09.091.123 12.226 16.81c.569.911.998 1.904 1.271 2.944.209.76.37 1.532.484 2.312a21.09 21.09 0 0 1 .155 1.443l.033.492z"/><path d="M108.847 209.83c.082 0-.23-1.263-.361-3.28a7.52 7.52 0 0 1 .557-3.444c.684-1.275 1.659-2.37 2.846-3.198 2.119-1.625 4.328-3.128 6.617-4.502l2.091-1.23a4.04 4.04 0 0 0 .755-.484c-.289.07-.566.184-.82.336l-2.173 1.116c-2.347 1.309-4.595 2.789-6.724 4.428a9.2 9.2 0 0 0-2.936 3.37c-.471 1.146-.646 2.393-.508 3.624.07.813.204 1.619.401 2.411a3.18 3.18 0 0 0 .255.853h0zm-12.505-7.429a16.04 16.04 0 0 0-.303-2.149 33.63 33.63 0 0 1-.369-5.166 34.31 34.31 0 0 1 .459-5.174 16.65 16.65 0 0 0 .336-2.132 8.19 8.19 0 0 0-.631 2.075 25.33 25.33 0 0 0-.09 10.455 8.2 8.2 0 0 0 .599 2.091h0z"/></g><path d="M175.972 141.639l8.528-15.064a40.35 40.35 0 0 1-5.276-28.716c1.888-9.895 7.408-18.726 15.476-24.758s18.101-8.827 28.126-7.838 19.317 5.693 26.05 13.186a40.35 40.35 0 0 1-.452 54.437 40.35 40.35 0 0 1-26.265 12.752c-10.04.823-20.024-2.139-27.991-8.303h0l-18.196 4.305z" fill="#fff"/><path d="M175.972 141.639l18.253-4.182h.156l-.099-.132-.147.148a41.11 41.11 0 0 0 8.29 4.994c3.513 1.572 7.232 2.632 11.045 3.149a36.2 36.2 0 0 0 6.38.319l3.337-.18 3.403-.517c10.143-2.007 19.137-7.808 25.15-16.219a40.1 40.1 0 0 0 6.806-15.58 41 41 0 0 0-.476-17.917 39.71 39.71 0 0 0-8.634-16.564l-1.64-1.812c-.542-.607-1.189-1.107-1.772-1.64a24.08 24.08 0 0 0-1.828-1.64l-1.935-1.443a17.31 17.31 0 0 0-2.001-1.279l-2.042-1.238-2.14-1.025c-.697-.368-1.417-.689-2.157-.959a41.21 41.21 0 0 0-18.04-2.78 39.82 39.82 0 0 0-16.564 4.92c-9.158 5.096-16.005 13.52-19.122 23.526a43.39 43.39 0 0 0-1.755 13.12c.107 3.844.77 7.653 1.968 11.307a40.63 40.63 0 0 0 4.043 8.676v-.107l-8.455 15.113 8.635-15.014v-.049-.05c-1.657-2.716-2.992-5.617-3.977-8.642-1.169-3.638-1.812-7.423-1.911-11.243a43.24 43.24 0 0 1 1.78-12.997c3.114-9.907 9.912-18.24 18.991-23.28a39.48 39.48 0 0 1 16.4-4.83 40.74 40.74 0 0 1 17.868 2.763 17.14 17.14 0 0 1 2.132.951l2.115 1.025 2.026 1.23a15.04 15.04 0 0 1 1.976 1.312l1.919 1.427c.648.459 1.197 1.058 1.804 1.574s1.213 1.05 1.755 1.64l1.64 1.788a39.36 39.36 0 0 1 8.544 16.4 40.7 40.7 0 0 1 .484 17.737 39.79 39.79 0 0 1-6.724 15.408 40.41 40.41 0 0 1-24.912 16.063l-3.37.517c-1.115.098-2.23.123-3.28.189a36.5 36.5 0 0 1-6.33-.296c-7.011-.928-13.651-3.695-19.246-8.019l-.639-.492.492.648.065-.173-18.261 4.355zm51.602-36.162c0 .648.193 1.282.553 1.822a3.28 3.28 0 0 0 1.472 1.208c.599.248 1.259.313 1.895.187a3.28 3.28 0 0 0 2.391-4.473 3.29 3.29 0 0 0-1.208-1.472c-.54-.36-1.174-.552-1.823-.552a3.28 3.28 0 0 0-3.28 3.28zm-13.087 0c0 .648.193 1.282.553 1.822s.873.96 1.472 1.208 1.259.313 1.895.187a3.28 3.28 0 0 0 2.391-4.473 3.29 3.29 0 0 0-1.208-1.472c-.54-.36-1.174-.552-1.823-.552a3.28 3.28 0 0 0-3.28 3.28zm-13.062-1.64c-.326.561-.479 1.207-.437 1.855a3.28 3.28 0 0 0 4.122 2.96c.627-.168 1.19-.518 1.618-1.007a3.27 3.27 0 0 0 .785-1.737 3.28 3.28 0 0 0-.313-1.88c-.288-.582-.743-1.065-1.306-1.389a3.28 3.28 0 0 0-2.482-.323c-.837.224-1.552.771-1.987 1.521zM14.76 362.555c0 .123 83.361.213 186.14.213l186.14-.213c0-.123-83.337-.213-186.181-.213l-186.099.213z" class="B"/><path d="M120.089 362.76c-1.924-2.928-4.52-5.355-7.57-7.077s-6.469-2.693-9.97-2.829c-11.98-.41-17.966 9.906-17.966 9.906h35.506z" class="C"/><path d="M97.129 362.44a13.3 13.3 0 0 0 .353-1.788c.644-2.844 2.34-5.34 4.748-6.986a15.19 15.19 0 0 0 1.534-.984c-.619.095-1.21.324-1.731.672a10.17 10.17 0 0 0-3.278 3.06 10.16 10.16 0 0 0-1.642 4.173 4.32 4.32 0 0 0 .016 1.853z" class="B"/><path d="M127.502 362.325v-.082a4.59 4.59 0 0 1 4.6-4.518h101.959c1.22 0 2.39.485 3.253 1.347s1.347 2.033 1.347 3.253H127.502z" class="C"/><g class="B"><path d="M322.695 183.68l-1.64 130.2-95.12 22.886h-7.815l5.002-178.76h7.151l92.422 25.674z"/><path d="M302.58 308.558l29.479 54.021h-26.945c4.821-.475-42.64 0-42.64 0l42.64-11.307-13.342-30.299 1.14-12.415h9.668z"/><path d="M301.924 318.529l3.19-100.696-28.963-2.772-3.567 107.511 10.341.524 18.999-4.567z"/></g><g class="C"><path d="M268.534 326.557v-.468-1.377-5.347l.065-20.032.074-69.126-.205.205h34.235l-.213-.213v4.641l.041 73.71v.041l21.377 39.187 5.986 10.923 1.583 2.862.565.967-.516-.992-1.534-2.895-5.904-10.963-21.238-39.262v.091-73.71-4.855h-34.587v.205l.074 69.126.065 20.033v5.346 1.378a1.04 1.04 0 0 0 .132.525zm23.238-5.584c-.106.041 3.994 9.528 9.16 21.172l9.553 21.008c.106-.049-3.994-9.528-9.16-21.18l-9.553-21zm-65.796 15.826v-.46-1.353l.065-5.198c0-4.51.14-11.038.296-19.106l1.927-63.026 1.804-63.049.155-19.115v-5.198-1.353-.46.46 1.353l-.065 5.198c0 4.51-.131 11.038-.295 19.106l-1.977 63.042-1.804 63.033-.155 19.115v5.198 1.353c0 .32.049.46.049.46z"/><path d="M273.724 229.461c-.123 0-.213 21.418-.213 47.83l.213 47.831c.123 0 .214-21.41.214-47.831l-.214-47.83zm51.242 124.689c.155-.178.292-.37.41-.574l.476-.705a9.48 9.48 0 0 0 .59-1.001 25.23 25.23 0 0 0 2.599-6.929c.757-3.603.928-7.305.509-10.963a43.87 43.87 0 0 0-3.559-12.964c-.976-2.124-2.225-4.111-3.715-5.913a15.08 15.08 0 0 0-1.09-1.279l-1.115-1.213c-.82-.747-1.534-1.509-2.346-2.157-1.496-1.273-3.088-2.427-4.764-3.452-.82-.443-1.566-.91-2.337-1.279s-1.5-.763-2.238-1.025c-2.279-.977-4.688-1.618-7.151-1.903a13.49 13.49 0 0 0-2.009-.123c-.234-.019-.47-.019-.705 0 .231.04.463.064.697.074.668.031 1.333.099 1.993.205a26.88 26.88 0 0 1 7.06 2.017c.73.271 1.435.681 2.206 1.033s1.508.82 2.304 1.296c1.65 1.029 3.218 2.183 4.69 3.452.82.64 1.534 1.402 2.313 2.14.369.386.729.82 1.098 1.198.378.404.733.829 1.066 1.271 1.466 1.777 2.696 3.737 3.658 5.83a43.97 43.97 0 0 1 3.55 12.825c.435 3.618.297 7.282-.41 10.856a26.46 26.46 0 0 1-2.46 6.913c-.163.351-.349.691-.557 1.017l-.435.73a5.21 5.21 0 0 0-.328.623h0z"/></g><defs ><path id="B" d="M136.038 224.377a1.05 1.05 0 0 1 .632-.727c.156-.062.324-.085.491-.069a1.06 1.06 0 0 1 .468.164l.057.041a1 1 0 0 1 .281.423.99.99 0 0 1 .034.507c-.033.169-.108.326-.22.457s-.256.23-.418.288a.99.99 0 0 1-.506.044c-.169-.029-.328-.102-.461-.212s-.235-.251-.296-.412-.08-.334-.054-.504h-.008z"/></defs></svg>