<svg width="96" height="67" viewBox="0 0 96 67" fill="none" xmlns="http://www.w3.org/2000/svg">
<path fill-rule="evenodd" clip-rule="evenodd" d="M40.6528 51.5349C33.6799 64.7947 18.5093 69.873 5.41164 62.8199C13.8921 46.7387 22.2784 30.6576 30.7589 14.6705C37.7317 1.41063 52.9024 -3.66763 66 3.3855L40.6528 51.5349ZM26.8955 12.7897L14.269 36.8643C1.17139 29.8112 -3.82267 13.2599 3.15017 0L26.9898 12.7897H26.8955Z" fill="#333333"/>
<path d="M47.0142 65.8565H54.7753C58.807 65.8565 62.3348 64.0253 62.3348 59.7526C62.3348 57.5145 60.9237 56.4972 59.2102 55.9885V55.7851C61.3269 54.9712 62.5364 53.3435 62.5364 51.0037C62.5364 47.9517 59.7142 47.2396 56.6904 47.2396H49.534L47.0142 65.7548V65.8565ZM52.1546 62.8046L52.8602 57.718H54.6745C56.4888 57.718 57.5975 58.4301 57.5975 59.7526C57.5975 61.7872 55.9848 62.8046 54.1705 62.8046H52.1546ZM53.2634 54.9712L53.8681 50.2915H55.4808C56.892 50.2915 57.6983 50.9019 57.6983 52.021C57.6983 53.9539 56.1864 54.9712 54.5737 54.9712H53.2634Z" fill="#333333"/>
<path d="M69.9954 66.0579C75.0351 66.0579 78.7645 63.7181 79.47 58.0211L80.9819 47.2376H76.2446L74.7327 57.9194C74.2287 61.2765 72.4144 62.3956 70.4994 62.3956C68.6851 62.3956 67.2739 61.3783 67.2739 59.0384C67.2739 58.7333 67.2739 58.3263 67.3747 57.9194L68.8866 47.2376H64.1493L62.6374 57.7159C62.5366 58.4281 62.5366 59.0384 62.5366 59.5471C62.5366 64.2268 65.4596 66.0579 69.8946 66.0579H69.9954Z" fill="#333333"/>
<path d="M87.2301 66.0581C91.4635 66.0581 95.092 64.0235 95.092 59.4456C95.092 57.6144 94.1849 56.5971 92.8746 55.7832C90.6571 54.2572 87.7341 53.7486 87.7341 52.3243C87.7341 51.0018 88.9436 50.5949 90.2539 50.5949C91.7658 50.5949 93.5801 51.0018 94.6889 51.6122L95.9992 48.1533C94.4873 47.4412 92.2698 46.9326 90.4555 46.9326C86.4238 46.9326 82.896 48.7637 82.896 53.0365C82.896 55.1728 84.2063 56.1901 85.9198 57.2075C88.0365 58.4282 90.4555 58.9369 90.4555 60.4629C90.4555 61.9889 88.5405 62.3958 87.4317 62.3958C85.5167 62.3958 83.5008 61.6837 82.1905 60.7681L80.981 64.4304C82.3921 65.346 84.6095 66.0581 87.1294 66.0581H87.2301Z" fill="#333333"/>
</svg>
