<svg width="33" height="11" viewBox="0 0 33 11" fill="none" xmlns="http://www.w3.org/2000/svg">
<path fill-rule="evenodd" clip-rule="evenodd" d="M28.7128 0.87854C29.4311 0.87854 29.5513 1.109 29.9101 1.80115L32.9052 10.4492H30.1503L29.5513 8.37351H25.9571L25.2379 10.4492H23.6803L26.7956 0.87854H28.7128V0.87854ZM29.0716 6.98922H26.3159L27.7534 2.60815L29.0716 6.98922ZM13.4967 10.45H9.30347V0.879305H13.616C15.6526 0.879305 16.3717 2.4933 15.293 3.99245L14.8141 4.68383C18.289 6.2986 17.0917 10.45 13.4967 10.45V10.45ZM13.0178 5.14552L13.8563 3.87684C13.9756 3.64637 14.0957 3.41591 14.0957 3.18469C14.0957 2.60815 13.4967 2.14723 12.8977 2.14723H11.6996V9.18051H12.2986C13.4967 9.18051 14.4553 8.60474 14.4553 7.10483C14.4553 5.95329 13.8563 5.26037 13.0178 5.14552V5.14552Z" fill="black"/>
<path fill-rule="evenodd" clip-rule="evenodd" d="M5.11023 10.45H0.916992V0.879305H5.22955C7.26611 0.879305 7.98527 2.4933 6.90653 3.99245L6.42762 4.68383C9.9017 6.2986 8.70443 10.45 5.11023 10.45V10.45ZM4.63052 5.14552L5.46901 3.87684C5.58834 3.64637 5.70846 3.41591 5.70846 3.18469C5.70846 2.60815 5.10943 2.14723 4.5104 2.14723H3.31233V9.18051H3.91136C5.10943 9.18051 6.06804 8.60474 6.06804 7.10483C6.06804 5.95329 5.46901 5.26037 4.63052 5.14552V5.14552ZM23.3207 0.87854H24.8783L21.8832 10.4492H19.487L16.2524 0.87854H18.0495C18.6485 0.87854 18.888 0.993392 19.2476 2.14723L21.0447 8.14229L23.3207 0.87854V0.87854Z" fill="black"/>
</svg>
