<svg width="211" height="305" viewBox="0 0 211 305" fill="none" xmlns="http://www.w3.org/2000/svg">
<path fill-rule="evenodd" clip-rule="evenodd" d="M0.5 104.841C0.5 47.0316 47.6029 0 105.5 0C163.396 0 210.499 47.0316 210.5 104.84C210.5 125.846 204.792 146.476 193.995 164.501L112.441 300.643C110.821 303.346 107.899 305 104.746 305H104.715C101.55 304.989 98.6249 303.313 97.0186 300.59L16.5959 164.21C6.06596 146.353 0.5 125.962 0.5 105.239V104.841ZM129.5 35.5L116.518 63.5274C107.208 61.1037 97.3608 61.7472 88.4484 65.3615C79.5359 68.9759 72.0365 75.3672 67.071 83.5801C62.1056 91.7931 59.9406 101.387 60.8997 110.927C61.8588 120.468 65.8905 129.443 72.3923 136.511C78.894 143.579 87.5167 148.361 96.9715 150.142C106.426 151.923 116.206 150.607 124.848 146.392C133.491 142.176 140.532 135.287 144.92 126.753C149.307 118.22 150.806 108.501 149.192 99.0486L182 88C181.579 85.5767 179.788 81.2776 179 79L147.413 92.0913C145.445 86.3741 142.327 81.1173 138.25 76.6427C134.172 72.168 129.221 68.5697 123.699 66.0681L138.25 39C135.917 37.9131 132.025 36.1855 129.5 35.5ZM105.251 117.346C99.2307 117.346 94.3662 112.526 94.3662 106.5C94.3662 100.523 99.2307 95.654 105.251 95.654C111.223 95.654 116.136 100.523 116.136 106.5C116.136 112.526 111.223 117.346 105.251 117.346Z" fill="black"/>
</svg>
