<svg width="41" height="40" viewBox="0 0 41 40" fill="none" xmlns="http://www.w3.org/2000/svg">
<path d="M4.00005 19.9998C3.9996 16.87 4.88057 13.8033 6.54209 11.1509C8.2036 8.49858 10.5785 6.36774 13.3948 5.00244C16.2111 3.63714 19.355 3.09256 22.4665 3.43107C25.5779 3.76959 28.5311 4.9775 30.9879 6.9165H28.4527C28.2331 6.91862 28.0232 7.00736 27.8687 7.1634C27.7141 7.31945 27.6274 7.53019 27.6274 7.74982C27.6274 7.96944 27.7141 8.18019 27.8687 8.33623C28.0232 8.49228 28.2331 8.58101 28.4527 8.58314H33.1667C33.3877 8.58314 33.5997 8.49534 33.756 8.33905C33.9122 8.18277 34 7.9708 34 7.74978V3.03564C34.0011 2.92553 33.9803 2.81629 33.9389 2.71426C33.8975 2.61222 33.8363 2.5194 33.7588 2.44115C33.6814 2.36291 33.5891 2.30081 33.4875 2.25842C33.3859 2.21603 33.2768 2.19421 33.1667 2.19421C33.0566 2.19421 32.9476 2.21603 32.8459 2.25842C32.7443 2.30081 32.6521 2.36291 32.5746 2.44115C32.4971 2.5194 32.4359 2.61222 32.3945 2.71426C32.3531 2.81629 32.3323 2.92553 32.3334 3.03564V5.85751C28.6997 2.85996 24.0516 1.37609 19.3532 1.71368C14.6547 2.05126 10.2665 4.18439 7.09866 7.67064C3.93081 11.1569 2.22641 15.7287 2.33898 20.4379C2.45155 25.1471 4.37244 29.6323 7.70325 32.9632C7.78029 33.0421 7.87222 33.1048 7.97369 33.1479C8.07517 33.191 8.18418 33.2135 8.29442 33.2141C8.40465 33.2147 8.51392 33.1935 8.61588 33.1516C8.71785 33.1097 8.81049 33.048 8.88844 32.97C8.96639 32.8921 9.0281 32.7995 9.06999 32.6975C9.11188 32.5955 9.13312 32.4863 9.13249 32.376C9.13185 32.2658 9.10935 32.1568 9.06629 32.0553C9.02322 31.9538 8.96045 31.8619 8.88161 31.7849C7.32912 30.2408 6.0983 28.4042 5.26038 26.3813C4.42246 24.3584 3.99408 22.1894 4.00005 19.9998ZM13.3832 34.9961C12.9079 34.7648 12.4439 34.5111 11.9925 34.236C11.8039 34.1209 11.5773 34.0854 11.3624 34.1373C11.1476 34.1893 10.9623 34.3245 10.8471 34.5131C10.732 34.7017 10.6965 34.9284 10.7484 35.1432C10.8004 35.358 10.9356 35.5434 11.1242 35.6585C11.6209 35.9615 12.1317 36.2407 12.655 36.4951C12.7534 36.5429 12.8603 36.5709 12.9695 36.5774C13.0787 36.5839 13.1882 36.5689 13.2916 36.5331C13.395 36.4973 13.4904 36.4415 13.5722 36.3689C13.6541 36.2962 13.7208 36.2082 13.7686 36.1098C13.8165 36.0114 13.8444 35.9045 13.851 35.7952C13.8575 35.686 13.8424 35.5766 13.8066 35.4731C13.7709 35.3697 13.7151 35.2744 13.6424 35.1925C13.5698 35.1107 13.4818 35.0439 13.3833 34.9961H13.3832ZM35.6704 12.7317C35.7181 12.8302 35.7847 12.9184 35.8665 12.9911C35.9482 13.0638 36.0435 13.1197 36.1469 13.1557C36.2503 13.1916 36.3597 13.2068 36.469 13.2004C36.5782 13.194 36.6851 13.1662 36.7836 13.1185C36.8821 13.0707 36.9703 13.0041 37.043 12.9223C37.1157 12.8406 37.1717 12.7453 37.2076 12.6419C37.2435 12.5385 37.2587 12.4291 37.2523 12.3198C37.2459 12.2106 37.2181 12.1037 37.1704 12.0052C36.9167 11.4818 36.6384 10.9708 36.3362 10.4739C36.2793 10.3804 36.2046 10.299 36.1162 10.2344C36.0279 10.1698 35.9277 10.1232 35.8214 10.0973C35.6066 10.045 35.3798 10.0801 35.191 10.195C35.0021 10.3099 34.8666 10.4951 34.8143 10.7099C34.762 10.9246 34.7972 11.1514 34.9121 11.3402C35.1867 11.7919 35.4397 12.2562 35.6704 12.7317ZM22.6438 36.5497C22.1177 36.6122 21.5854 36.6494 21.0614 36.662C20.8444 36.6703 20.6392 36.763 20.4895 36.9204C20.3398 37.0777 20.2575 37.2873 20.26 37.5044C20.2625 37.7215 20.3497 37.9291 20.503 38.0829C20.6563 38.2368 20.8636 38.3246 21.0807 38.3279C21.0872 38.3279 21.0942 38.3279 21.1007 38.3275C21.6768 38.3141 22.2615 38.2728 22.8393 38.2046C23.0586 38.1785 23.2586 38.0664 23.3953 37.8929C23.532 37.7194 23.5942 37.4988 23.5684 37.2795C23.5425 37.0601 23.4306 36.86 23.2573 36.7231C23.084 36.5863 22.8634 36.5238 22.644 36.5494L22.6438 36.5497ZM17.9011 36.4366C17.3796 36.3494 16.8627 36.2373 16.352 36.1006C16.1384 36.0436 15.9109 36.0737 15.7195 36.1843C15.5282 36.295 15.3886 36.4771 15.3315 36.6907C15.2744 36.9042 15.3045 37.1318 15.4152 37.3231C15.5258 37.5145 15.708 37.6541 15.9215 37.7112C16.4838 37.8612 17.0529 37.9844 17.6268 38.0802C17.7348 38.0983 17.8452 38.0948 17.9518 38.0702C18.0584 38.0455 18.1592 38 18.2482 37.9365C18.3373 37.8729 18.4129 37.7923 18.4709 37.6995C18.5288 37.6067 18.5679 37.5033 18.5859 37.3954C18.6039 37.2875 18.6005 37.177 18.5758 37.0704C18.5511 36.9638 18.5057 36.8631 18.4421 36.774C18.3785 36.685 18.298 36.6093 18.2052 36.5514C18.1123 36.4934 18.009 36.4543 17.9011 36.4363V36.4366ZM38.1818 19.598C37.9608 19.5926 37.7468 19.6752 37.5868 19.8275C37.4267 19.9799 37.3336 20.1896 37.3281 20.4105C37.3146 20.9394 37.2765 21.4675 37.2137 21.9929C37.1876 22.2124 37.2497 22.4332 37.3863 22.607C37.523 22.7807 37.723 22.8931 37.9425 22.9194C37.9757 22.9231 38.0091 22.925 38.0425 22.9251C38.2462 22.9248 38.4428 22.8499 38.595 22.7146C38.7473 22.5793 38.8447 22.393 38.869 22.1907C38.9376 21.6134 38.9793 21.0332 38.9939 20.452C38.9967 20.3426 38.9779 20.2337 38.9386 20.1316C38.8993 20.0294 38.8402 19.936 38.7648 19.8567C38.6894 19.7774 38.5991 19.7137 38.499 19.6693C38.399 19.6249 38.2912 19.6007 38.1818 19.598ZM35.624 29.1299C35.4411 29.0059 35.2165 28.9595 34.9994 29.0009C34.7824 29.0424 34.5907 29.1682 34.4663 29.3508C34.1689 29.7883 33.851 30.2116 33.5137 30.6191C33.4423 30.7031 33.3882 30.8005 33.3547 30.9056C33.3212 31.0108 33.3089 31.1215 33.3185 31.2314C33.3281 31.3413 33.3595 31.4482 33.4108 31.5459C33.462 31.6435 33.5322 31.7301 33.6172 31.8004C33.7022 31.8708 33.8003 31.9236 33.9058 31.9557C34.0113 31.9878 34.1222 31.9987 34.232 31.9876C34.3417 31.9766 34.4482 31.9438 34.5452 31.8913C34.6422 31.8387 34.7278 31.7675 34.7971 31.6816C35.1682 31.2336 35.5178 30.7683 35.8448 30.2871C35.9063 30.1966 35.9494 30.0949 35.9715 29.9878C35.9937 29.8807 35.9946 29.7702 35.9741 29.6627C35.9536 29.5553 35.9121 29.4529 35.852 29.3615C35.7919 29.27 35.7144 29.1913 35.624 29.1299ZM36.7722 15.7005C36.908 16.2114 37.0195 16.7285 37.1063 17.2499C37.1386 17.4445 37.2388 17.6213 37.3891 17.7489C37.5395 17.8765 37.7302 17.9467 37.9274 17.947C37.9733 17.9469 38.0192 17.9431 38.0645 17.9356C38.1725 17.9177 38.2759 17.8787 38.3688 17.8208C38.4617 17.7629 38.5423 17.6873 38.6059 17.5983C38.6696 17.5092 38.7151 17.4085 38.7398 17.3019C38.7646 17.1953 38.7681 17.0849 38.7501 16.9769C38.6549 16.4029 38.5324 15.8339 38.3829 15.2716C38.3261 15.058 38.1867 14.8758 37.9954 14.765C37.8042 14.6542 37.5768 14.6239 37.3632 14.6808C37.1496 14.7376 36.9674 14.877 36.8566 15.0683C36.7458 15.2595 36.7155 15.4869 36.7724 15.7005H36.7722ZM31.2718 32.8583C30.8643 33.1953 30.4411 33.5128 30.0035 33.8096C29.9129 33.871 29.8353 33.9497 29.7751 34.041C29.715 34.1324 29.6734 34.2348 29.6527 34.3422C29.6321 34.4497 29.6329 34.5602 29.6549 34.6673C29.677 34.7745 29.7199 34.8763 29.7813 34.9669C29.8427 35.0574 29.9214 35.135 30.0128 35.1952C30.1041 35.2554 30.2065 35.297 30.3139 35.3176C30.4214 35.3382 30.5319 35.3375 30.639 35.3154C30.7462 35.2934 30.848 35.2504 30.9386 35.189C31.4199 34.8626 31.8855 34.5137 32.3338 34.1433C32.5042 34.0025 32.6117 33.7997 32.6326 33.5796C32.6535 33.3596 32.5861 33.1402 32.4453 32.9698C32.3044 32.7994 32.1017 32.6919 31.8816 32.671C31.6615 32.6501 31.4422 32.7175 31.2718 32.8583ZM37.5872 24.5477C37.3767 24.4809 37.1482 24.5003 36.952 24.6016C36.7557 24.703 36.6077 24.8781 36.5404 25.0885C36.3795 25.592 36.1947 26.0875 35.9865 26.5733C35.9411 26.6742 35.9162 26.7832 35.9133 26.8938C35.9104 27.0045 35.9296 27.1146 35.9698 27.2177C36.0099 27.3209 36.0702 27.415 36.1472 27.4946C36.2241 27.5741 36.3161 27.6376 36.4178 27.6812C36.5195 27.7248 36.6289 27.7478 36.7396 27.7486C36.8503 27.7495 36.96 27.7283 37.0624 27.6863C37.1648 27.6443 37.2579 27.5823 37.336 27.504C37.4142 27.4256 37.476 27.3325 37.5178 27.23C37.7474 26.6951 37.951 26.1494 38.1277 25.5947C38.161 25.4905 38.1735 25.3807 38.1643 25.2717C38.1552 25.1626 38.1246 25.0564 38.0744 24.9592C38.0243 24.862 37.9554 24.7756 37.8718 24.705C37.7882 24.6344 37.6915 24.581 37.5872 24.5477ZM27.2243 35.3265C26.7383 35.5344 26.2427 35.7189 25.7391 35.8795C25.6349 35.9127 25.5382 35.9661 25.4546 36.0367C25.371 36.1073 25.3021 36.1937 25.2519 36.2909C25.2017 36.3882 25.1711 36.4943 25.1619 36.6034C25.1527 36.7124 25.1651 36.8222 25.1983 36.9264C25.2316 37.0307 25.285 37.1274 25.3556 37.211C25.4262 37.2946 25.5126 37.3634 25.6098 37.4136C25.707 37.4639 25.8132 37.4944 25.9222 37.5036C26.0313 37.5128 26.141 37.5004 26.2453 37.4672C26.7996 37.2906 27.3452 37.0876 27.8802 36.8589C28.0834 36.7719 28.2437 36.6077 28.3259 36.4025C28.408 36.1973 28.4053 35.9678 28.3183 35.7646C28.2313 35.5614 28.0671 35.4011 27.8619 35.3189C27.6566 35.2367 27.4272 35.2395 27.224 35.3265H27.2243Z" fill="black"/>
<path d="M13.6192 18.2975C13.6192 16.9317 12.7211 15.8374 11.3312 15.5092C10.5676 15.3284 9.76531 15.4117 9.05519 15.7456C8.34507 16.0795 7.76909 16.6442 7.42128 17.3476C7.32389 17.5451 7.30864 17.7732 7.37886 17.9819C7.44909 18.1906 7.59908 18.3631 7.79606 18.4616C7.99304 18.5601 8.221 18.5766 8.43012 18.5076C8.63925 18.4385 8.81255 18.2895 8.91214 18.0931C9.09006 17.7238 9.38934 17.4268 9.75995 17.2518C10.1306 17.0767 10.55 17.0342 10.9482 17.1313C11.1839 17.1869 11.9525 17.4355 11.9525 18.2975C11.9525 19.1667 10.9486 19.837 9.88581 20.5469C8.68909 21.3456 7.33331 22.251 7.33331 23.75C7.33331 23.971 7.42111 24.183 7.5774 24.3393C7.73368 24.4956 7.94565 24.5834 8.16667 24.5834H12.7858C12.8959 24.5844 13.0052 24.5637 13.1072 24.5223C13.2092 24.4809 13.3021 24.4197 13.3803 24.3422C13.4585 24.2647 13.5206 24.1725 13.563 24.0708C13.6054 23.9692 13.6272 23.8602 13.6272 23.7501C13.6272 23.6399 13.6054 23.5309 13.563 23.4293C13.5206 23.3276 13.4585 23.2354 13.3803 23.1579C13.3021 23.0804 13.2092 23.0192 13.1072 22.9778C13.0052 22.9364 12.8959 22.9157 12.7858 22.9167H9.48425C9.83339 22.586 10.3269 22.2563 10.8111 21.9328C12.1276 21.0539 13.6192 20.0578 13.6192 18.2975ZM21.5 21.0417C21.5 20.8206 21.4122 20.6087 21.2559 20.4524C21.0996 20.2962 20.8877 20.2084 20.6667 20.2084H19.9896V15.7813C19.9895 15.6087 19.9359 15.4404 19.8361 15.2995C19.7363 15.1587 19.5953 15.0524 19.4325 14.9951C19.2697 14.9379 19.0931 14.9326 18.9271 14.98C18.7612 15.0275 18.614 15.1252 18.506 15.2599L14.2873 20.5205C14.1892 20.643 14.1276 20.7908 14.1098 20.9468C14.0919 21.1028 14.1185 21.2607 14.1865 21.4022C14.2544 21.5438 14.361 21.6632 14.4939 21.7469C14.6267 21.8305 14.7805 21.8749 14.9375 21.875H18.3229V24.2188C18.3219 24.3289 18.3426 24.4381 18.384 24.5401C18.4254 24.6422 18.4866 24.735 18.5641 24.8132C18.6416 24.8915 18.7338 24.9536 18.8355 24.996C18.9371 25.0384 19.0461 25.0602 19.1562 25.0602C19.2664 25.0602 19.3754 25.0384 19.477 24.996C19.5787 24.9536 19.6709 24.8915 19.7484 24.8132C19.8258 24.735 19.8871 24.6422 19.9285 24.5401C19.9699 24.4381 19.9906 24.3289 19.9896 24.2188V21.875H20.6667C20.8877 21.875 21.0997 21.7872 21.2559 21.6309C21.4122 21.4746 21.5 21.2627 21.5 21.0417ZM18.3229 20.2084H16.6745L18.3229 18.1523V20.2084ZM25.7651 14.4955C25.6578 14.4738 25.5472 14.4735 25.4398 14.4946C25.3324 14.5158 25.2302 14.5579 25.139 14.6187C25.0479 14.6794 24.9697 14.7575 24.9089 14.8486C24.848 14.9396 24.8058 15.0417 24.7845 15.1492L22.9095 24.5242C22.8661 24.7409 22.9106 24.9659 23.0331 25.1498C23.1557 25.3337 23.3463 25.4614 23.563 25.5048C23.617 25.5155 23.672 25.521 23.7271 25.521C23.9195 25.5208 24.106 25.454 24.2548 25.3319C24.4036 25.2098 24.5055 25.04 24.5433 24.8513L26.4183 15.4763C26.4399 15.369 26.4401 15.2585 26.4189 15.1511C26.3977 15.0438 26.3556 14.9416 26.2949 14.8505C26.2343 14.7594 26.1563 14.6812 26.0653 14.6203C25.9744 14.5594 25.8724 14.517 25.7651 14.4955ZM30.0413 24.5838C30.2058 24.5837 30.3667 24.5349 30.5036 24.4436C30.6405 24.3523 30.7474 24.2225 30.8107 24.0706L33.9357 16.5706C33.9886 16.444 34.0093 16.3063 33.9961 16.1697C33.983 16.0331 33.9362 15.9019 33.8601 15.7878C33.7841 15.6736 33.6809 15.58 33.56 15.5152C33.439 15.4505 33.3039 15.4166 33.1667 15.4167H28.9479C28.7283 15.4188 28.5184 15.5075 28.3639 15.6636C28.2093 15.8196 28.1226 16.0304 28.1226 16.25C28.1226 16.4696 28.2093 16.6803 28.3639 16.8364C28.5184 16.9924 28.7283 17.0812 28.9479 17.0833H31.9167L29.2726 23.4297C29.22 23.5563 29.1995 23.694 29.2127 23.8304C29.226 23.9669 29.2727 24.098 29.3487 24.2122C29.4247 24.3263 29.5276 24.4199 29.6484 24.4848C29.7692 24.5497 29.9042 24.5838 30.0413 24.5841V24.5838Z" fill="black"/>
</svg>
