<svg xmlns="http://www.w3.org/2000/svg" width="90" height="90" viewBox="0 0 90 90" fill="none">
  <g clip-path="url(#clip0_8376_43687)">
    <path d="M79.8333 43.4774V19.1539C79.8333 15.1083 76.5418 11.8168 72.4962 11.8168H7.33711C3.29133 11.8168 0 15.1083 0 19.1539V60.0726C0 64.1182 3.29133 67.4097 7.33711 67.4097H55.0923C57.9621 73.7572 64.3437 78.1835 71.7376 78.1835C81.8075 78.1835 90.0002 69.9731 90.0002 59.8813C90 52.701 85.853 46.4733 79.8333 43.4774ZM7.33711 63.8939C5.23002 63.8939 3.51562 62.1797 3.51562 60.0724V19.1539C3.51562 17.0468 5.22984 15.3324 7.33711 15.3324H72.4962C74.6033 15.3324 76.3177 17.0466 76.3177 19.1539V42.1617C74.8316 41.7762 73.3027 41.5804 71.7674 41.579V32.9198C71.7674 31.949 70.9805 31.162 70.0096 31.162C64.7851 31.162 60.5345 26.8993 60.5345 21.6598C60.5345 20.689 59.7475 19.902 58.7767 19.902H21.0567C20.0858 19.902 19.2988 20.689 19.2988 21.6598C19.2988 26.8993 15.0483 31.162 9.82371 31.162C8.85287 31.162 8.0659 31.949 8.0659 32.9198V46.3066C8.0659 47.2775 8.85287 48.0644 9.82371 48.0644C15.0483 48.0644 19.2988 52.3271 19.2988 57.5667C19.2988 58.5375 20.0858 59.3245 21.0567 59.3245H53.4834C53.436 60.8598 53.5817 62.3951 53.9172 63.8941H7.33711V63.8939ZM53.9307 55.8087H22.6965C21.9157 50.0348 17.3429 45.4516 11.5815 44.6675V34.559C17.3429 33.7748 21.9157 29.1917 22.6965 23.4178H57.1368C57.9176 29.1917 62.4904 33.7748 68.2518 34.559V41.9135C61.1656 43.2913 55.5284 48.7885 53.9307 55.8087ZM71.7374 74.6677C63.6059 74.6677 56.9904 68.0344 56.9904 59.8812C56.9904 51.7277 63.6057 45.0944 71.7374 45.0944C79.869 45.0944 86.4844 51.7277 86.4844 59.8812C86.4844 68.0344 79.869 74.6677 71.7374 74.6677Z" fill="#1A75CF"/>
    <path d="M71.7373 62.0403C72.7082 62.0403 73.4951 61.2534 73.4951 60.2825V53.2942C73.4951 52.3233 72.7082 51.5363 71.7373 51.5363C70.7665 51.5363 69.9795 52.3233 69.9795 53.2942V60.2825C69.9795 61.2534 70.7665 62.0403 71.7373 62.0403ZM72.7136 65.0075C72.1054 64.6023 71.2908 64.6217 70.7002 65.0508C70.1096 65.4798 69.8468 66.2587 70.0507 66.9587C70.253 67.6529 70.8785 68.1623 71.5993 68.2203C72.3396 68.2799 73.0559 67.846 73.3503 67.1658C73.6809 66.4013 73.4152 65.4663 72.7136 65.0075ZM42.1356 38.1752C41.9023 38.0925 41.6692 38.0093 41.4363 37.9254V32.916C41.9642 33.1059 42.3328 33.3882 42.5221 33.6585C43.0788 34.4537 44.1752 34.6473 44.9702 34.0904C45.7655 33.5337 45.959 32.4375 45.4021 31.6423C44.6299 30.5393 43.243 29.6145 41.4363 29.2933V29.0488C41.4363 28.078 40.6494 27.291 39.6785 27.291C38.7077 27.291 37.9207 28.078 37.9207 29.0488V29.4234C37.701 29.4746 37.4783 29.534 37.2526 29.602C35.1564 30.235 33.5738 32.2735 33.4038 34.5592C33.2358 36.821 34.4358 38.7857 36.6136 39.8151C36.9045 39.9525 37.3526 40.1401 37.9207 40.3632V46.4151C37.167 46.1664 36.484 45.7728 36.0309 45.2089C35.4227 44.4524 34.3165 44.3318 33.5596 44.9398C32.8028 45.5478 32.6824 46.6544 33.2904 47.4111C34.4775 48.8884 36.2167 49.6912 37.9207 50.0441V50.1774C37.9207 51.1482 38.7077 51.9352 39.6785 51.9352C40.6494 51.9352 41.4363 51.1482 41.4363 50.1774V50.1769C45.0367 49.6775 46.6147 47.3016 46.885 45.178C47.2663 42.1809 45.3134 39.3013 42.1356 38.1752ZM36.91 34.8197C36.9618 34.121 37.3742 33.453 37.9207 33.124V36.5366C37.1951 36.1325 36.8551 35.5557 36.91 34.8197ZM43.3973 44.7341C43.2792 45.6628 42.5775 46.32 41.4362 46.6015V41.6859C42.9533 42.4151 43.5246 43.7346 43.3973 44.7341Z" fill="#1A75CF"/>
  </g>
  <defs>
    <clipPath id="clip0_8376_43687">
      <rect width="90" height="90" fill="white"/>
    </clipPath>
  </defs>
</svg>