<svg width="50" height="51" viewBox="0 0 50 51" fill="none" xmlns="http://www.w3.org/2000/svg">
<path d="M0 25.25C0 11.4429 11.1929 0.25 25 0.25C38.8071 0.25 50 11.4429 50 25.25C50 39.0571 38.8071 50.25 25 50.25C11.1929 50.25 0 39.0571 0 25.25Z" fill="#ECF1FF"/>
<path d="M19.4353 18.0596H18.3518V16.9761C18.3518 16.523 17.9846 16.1558 17.5315 16.1558C17.0785 16.1558 16.7112 16.523 16.7112 16.9761V18.8799C16.7112 19.3329 17.0785 19.7002 17.5315 19.7002H19.4353C19.8884 19.7002 20.2556 19.3329 20.2556 18.8799C20.2556 18.4269 19.8884 18.0596 19.4353 18.0596Z" fill="#0051FF"/>
<path d="M17.5315 12.3484C13.93 12.3484 11 15.2784 11 18.8799C11 22.4813 13.93 25.4113 17.5315 25.4113C21.133 25.4113 24.0631 22.4813 24.0631 18.8799C24.0631 15.2784 21.133 12.3484 17.5315 12.3484ZM17.5315 23.7708C14.8346 23.7707 12.6406 21.5767 12.6406 18.8799C12.6406 16.1831 14.8346 13.989 17.5315 13.989C20.2284 13.989 22.4225 16.1831 22.4225 18.8799C22.4225 21.5767 20.2285 23.7708 17.5315 23.7708Z" fill="#0051FF"/>
<path d="M38.9158 26.4273C38.9147 26.4252 38.9145 26.4229 38.9134 26.4208L36.2775 21.1489C36.2094 21.0127 36.1046 20.8981 35.9751 20.818C35.8455 20.7379 35.6961 20.6955 35.5438 20.6955H29.335V18.8799C29.335 18.4269 28.9677 18.0596 28.5147 18.0596H25.6627C25.6897 18.3295 25.7037 18.603 25.7037 18.8799C25.7037 23.3859 22.0377 27.0519 17.5315 27.0519C14.8648 27.0519 12.4926 25.7679 11 23.7858V34.6955C11 35.1485 11.3673 35.5158 11.8203 35.5158H15.4924C15.8617 37.0267 17.2263 38.1516 18.8495 38.1516C20.4727 38.1516 21.8373 37.0267 22.2066 35.5158H27.7935C28.1628 37.0267 29.5274 38.1516 31.1505 38.1516C32.7737 38.1516 34.1383 37.0267 34.5076 35.5158H38.1797C38.6328 35.5158 39 35.1485 39 34.6955V26.7876C39 26.6581 38.9693 26.5362 38.9158 26.4273ZM18.8495 36.511C17.8483 36.511 17.0339 35.6965 17.0339 34.6954C17.0339 33.6943 17.8484 32.8798 18.8495 32.8798C19.8506 32.8798 20.6651 33.6943 20.6651 34.6954C20.6651 35.6965 19.8506 36.511 18.8495 36.511ZM31.1505 36.511C30.1494 36.511 29.335 35.6965 29.335 34.6954C29.335 33.6943 30.1494 32.8798 31.1505 32.8798C32.1516 32.8798 32.9661 33.6943 32.9661 34.6954C32.9661 35.6965 32.1516 36.511 31.1505 36.511ZM29.335 25.9673V22.336H35.0369L36.8525 25.9673H29.335Z" fill="#0051FF"/>
</svg>
