<svg xmlns="http://www.w3.org/2000/svg" width="80" height="80" viewBox="0 0 80 80" fill="none">
  <path d="M71.25 10H65V7.5C65 6.17392 64.4732 4.90215 63.5355 3.96447C62.5979 3.02678 61.3261 2.5 60 2.5C58.6739 2.5 57.4021 3.02678 56.4645 3.96447C55.5268 4.90215 55 6.17392 55 7.5V10H45V7.5C45 6.17392 44.4732 4.90215 43.5355 3.96447C42.5979 3.02678 41.3261 2.5 40 2.5C38.6739 2.5 37.4021 3.02678 36.4645 3.96447C35.5268 4.90215 35 6.17392 35 7.5V10H25V7.5C25 6.17392 24.4732 4.90215 23.5355 3.96447C22.5979 3.02678 21.3261 2.5 20 2.5C18.6739 2.5 17.4021 3.02678 16.4645 3.96447C15.5268 4.90215 15 6.17392 15 7.5V10H8.75C7.0924 10 5.50269 10.6585 4.33058 11.8306C3.15848 13.0027 2.5 14.5924 2.5 16.25V66.25C2.5 67.9076 3.15848 69.4973 4.33058 70.6694C5.50269 71.8415 7.0924 72.5 8.75 72.5H43.75C44.0815 72.5 44.3995 72.3683 44.6339 72.1339C44.8683 71.8995 45 71.5815 45 71.25C45 70.9185 44.8683 70.6005 44.6339 70.3661C44.3995 70.1317 44.0815 70 43.75 70H8.75C7.75635 69.997 6.80425 69.601 6.10163 68.8984C5.39901 68.1958 5.00297 67.2437 5 66.25V27.5H75V48.75C75 49.0815 75.1317 49.3995 75.3661 49.6339C75.6005 49.8683 75.9185 50 76.25 50C76.5815 50 76.8995 49.8683 77.1339 49.6339C77.3683 49.3995 77.5 49.0815 77.5 48.75V16.25C77.5 14.5924 76.8415 13.0027 75.6694 11.8306C74.4973 10.6585 72.9076 10 71.25 10ZM57.5 7.5C57.5 6.83696 57.7634 6.20107 58.2322 5.73223C58.7011 5.26339 59.337 5 60 5C60.663 5 61.2989 5.26339 61.7678 5.73223C62.2366 6.20107 62.5 6.83696 62.5 7.5V15C62.5 15.663 62.2366 16.2989 61.7678 16.7678C61.2989 17.2366 60.663 17.5 60 17.5C59.337 17.5 58.7011 17.2366 58.2322 16.7678C57.7634 16.2989 57.5 15.663 57.5 15V7.5ZM37.5 7.5C37.5 6.83696 37.7634 6.20107 38.2322 5.73223C38.7011 5.26339 39.337 5 40 5C40.663 5 41.2989 5.26339 41.7678 5.73223C42.2366 6.20107 42.5 6.83696 42.5 7.5V15C42.5 15.663 42.2366 16.2989 41.7678 16.7678C41.2989 17.2366 40.663 17.5 40 17.5C39.337 17.5 38.7011 17.2366 38.2322 16.7678C37.7634 16.2989 37.5 15.663 37.5 15V7.5ZM17.5 7.5C17.5 6.83696 17.7634 6.20107 18.2322 5.73223C18.7011 5.26339 19.337 5 20 5C20.663 5 21.2989 5.26339 21.7678 5.73223C22.2366 6.20107 22.5 6.83696 22.5 7.5V15C22.5 15.663 22.2366 16.2989 21.7678 16.7678C21.2989 17.2366 20.663 17.5 20 17.5C19.337 17.5 18.7011 17.2366 18.2322 16.7678C17.7634 16.2989 17.5 15.663 17.5 15V7.5ZM75 25H5V16.25C5.00297 15.2564 5.39901 14.3042 6.10163 13.6016C6.80425 12.899 7.75635 12.503 8.75 12.5H15V15C15 16.3261 15.5268 17.5979 16.4645 18.5355C17.4021 19.4732 18.6739 20 20 20C21.3261 20 22.5979 19.4732 23.5355 18.5355C24.4732 17.5979 25 16.3261 25 15V12.5H35V15C35 16.3261 35.5268 17.5979 36.4645 18.5355C37.4021 19.4732 38.6739 20 40 20C41.3261 20 42.5979 19.4732 43.5355 18.5355C44.4732 17.5979 45 16.3261 45 15V12.5H55V15C55 16.3261 55.5268 17.5979 56.4645 18.5355C57.4021 19.4732 58.6739 20 60 20C61.3261 20 62.5979 19.4732 63.5355 18.5355C64.4732 17.5979 65 16.3261 65 15V12.5H71.25C72.2437 12.503 73.1958 12.899 73.8984 13.6016C74.601 14.3042 74.997 15.2564 75 16.25V25Z" fill="#1A75CF"/>
  <path d="M37.5 36.25C37.5 35.587 37.2366 34.9511 36.7678 34.4822C36.2989 34.0134 35.663 33.75 35 33.75H30C29.337 33.75 28.7011 34.0134 28.2322 34.4822C27.7634 34.9511 27.5 35.587 27.5 36.25V40C27.5 40.663 27.7634 41.2989 28.2322 41.7678C28.7011 42.2366 29.337 42.5 30 42.5H35C35.663 42.5 36.2989 42.2366 36.7678 41.7678C37.2366 41.2989 37.5 40.663 37.5 40V36.25ZM30 40V36.25H35V40H30ZM22.5 36.25C22.5 35.587 22.2366 34.9511 21.7678 34.4822C21.2989 34.0134 20.663 33.75 20 33.75H15C14.337 33.75 13.7011 34.0134 13.2322 34.4822C12.7634 34.9511 12.5 35.587 12.5 36.25V40C12.5 40.663 12.7634 41.2989 13.2322 41.7678C13.7011 42.2366 14.337 42.5 15 42.5H20C20.663 42.5 21.2989 42.2366 21.7678 41.7678C22.2366 41.2989 22.5 40.663 22.5 40V36.25ZM15 40V36.25H20V40H15ZM65 42.5C65.663 42.5 66.2989 42.2366 66.7678 41.7678C67.2366 41.2989 67.5 40.663 67.5 40V36.25C67.5 35.587 67.2366 34.9511 66.7678 34.4822C66.2989 34.0134 65.663 33.75 65 33.75H60C59.337 33.75 58.7011 34.0134 58.2322 34.4822C57.7634 34.9511 57.5 35.587 57.5 36.25V40C57.5 40.663 57.7634 41.2989 58.2322 41.7678C58.7011 42.2366 59.337 42.5 60 42.5H65ZM60 36.25H65V40H60V36.25ZM37.5 47.5C37.5 46.837 37.2366 46.2011 36.7678 45.7322C36.2989 45.2634 35.663 45 35 45H30C29.337 45 28.7011 45.2634 28.2322 45.7322C27.7634 46.2011 27.5 46.837 27.5 47.5V51.25C27.5 51.913 27.7634 52.5489 28.2322 53.0178C28.7011 53.4866 29.337 53.75 30 53.75H35C35.663 53.75 36.2989 53.4866 36.7678 53.0178C37.2366 52.5489 37.5 51.913 37.5 51.25V47.5ZM30 51.25V47.5H35V51.25H30ZM22.5 47.5C22.5 46.837 22.2366 46.2011 21.7678 45.7322C21.2989 45.2634 20.663 45 20 45H15C14.337 45 13.7011 45.2634 13.2322 45.7322C12.7634 46.2011 12.5 46.837 12.5 47.5V51.25C12.5 51.913 12.7634 52.5489 13.2322 53.0178C13.7011 53.4866 14.337 53.75 15 53.75H20C20.663 53.75 21.2989 53.4866 21.7678 53.0178C22.2366 52.5489 22.5 51.913 22.5 51.25V47.5ZM15 51.25V47.5H20V51.25H15ZM35 56.25H30C29.337 56.25 28.7011 56.5134 28.2322 56.9822C27.7634 57.4511 27.5 58.087 27.5 58.75V62.5C27.5 63.163 27.7634 63.7989 28.2322 64.2678C28.7011 64.7366 29.337 65 30 65H35C35.663 65 36.2989 64.7366 36.7678 64.2678C37.2366 63.7989 37.5 63.163 37.5 62.5V58.75C37.5 58.087 37.2366 57.4511 36.7678 56.9822C36.2989 56.5134 35.663 56.25 35 56.25ZM30 62.5V58.75H35V62.5H30ZM45 42.5H50C50.663 42.5 51.2989 42.2366 51.7678 41.7678C52.2366 41.2989 52.5 40.663 52.5 40V36.25C52.5 35.587 52.2366 34.9511 51.7678 34.4822C51.2989 34.0134 50.663 33.75 50 33.75H45C44.337 33.75 43.7011 34.0134 43.2322 34.4822C42.7634 34.9511 42.5 35.587 42.5 36.25V40C42.5 40.663 42.7634 41.2989 43.2322 41.7678C43.7011 42.2366 44.337 42.5 45 42.5ZM45 36.25H50V40H45V36.25ZM42.5 51.25C42.5 51.913 42.7634 52.5489 43.2322 53.0178C43.7011 53.4866 44.337 53.75 45 53.75C45.3315 53.75 45.6495 53.6183 45.8839 53.3839C46.1183 53.1495 46.25 52.8315 46.25 52.5C46.25 52.1685 46.1183 51.8505 45.8839 51.6161C45.6495 51.3817 45.3315 51.25 45 51.25V47.5H50C50.3315 47.5 50.6495 47.3683 50.8839 47.1339C51.1183 46.8995 51.25 46.5815 51.25 46.25C51.25 45.9185 51.1183 45.6005 50.8839 45.3661C50.6495 45.1317 50.3315 45 50 45H45C44.337 45 43.7011 45.2634 43.2322 45.7322C42.7634 46.2011 42.5 46.837 42.5 47.5V51.25ZM20 56.25H15C14.337 56.25 13.7011 56.5134 13.2322 56.9822C12.7634 57.4511 12.5 58.087 12.5 58.75V62.5C12.5 63.163 12.7634 63.7989 13.2322 64.2678C13.7011 64.7366 14.337 65 15 65H20C20.663 65 21.2989 64.7366 21.7678 64.2678C22.2366 63.7989 22.5 63.163 22.5 62.5V58.75C22.5 58.087 22.2366 57.4511 21.7678 56.9822C21.2989 56.5134 20.663 56.25 20 56.25ZM15 62.5V58.75H20V62.5H15Z" fill="#1A75CF"/>
  <path d="M61.25 45C58.0361 45 54.8943 45.953 52.222 47.7386C49.5497 49.5242 47.4669 52.0621 46.237 55.0314C45.007 58.0007 44.6852 61.268 45.3122 64.4202C45.9393 67.5724 47.4869 70.4679 49.7595 72.7405C52.0321 75.0131 54.9276 76.5608 58.0798 77.1878C61.232 77.8148 64.4993 77.493 67.4686 76.263C70.4379 75.0331 72.9758 72.9503 74.7614 70.278C76.547 67.6057 77.5 64.4639 77.5 61.25C77.495 56.9418 75.7814 52.8114 72.735 49.765C69.6886 46.7186 65.5583 45.005 61.25 45ZM61.25 75C58.5305 75 55.8721 74.1936 53.6109 72.6827C51.3497 71.1718 49.5874 69.0244 48.5467 66.5119C47.506 63.9994 47.2337 61.2347 47.7642 58.5675C48.2948 55.9003 49.6043 53.4503 51.5273 51.5273C53.4503 49.6043 55.9003 48.2947 58.5675 47.7642C61.2348 47.2337 63.9994 47.506 66.5119 48.5467C69.0244 49.5874 71.1718 51.3497 72.6827 53.6109C74.1936 55.8721 75 58.5305 75 61.25C74.9957 64.8954 73.5457 68.3903 70.968 70.968C68.3903 73.5457 64.8954 74.9957 61.25 75Z" fill="#1A75CF"/>
  <path d="M68.4725 56.0099L58.75 65.7324L54.3313 61.3124C54.0955 61.0848 53.7798 60.9588 53.452 60.9616C53.1243 60.9645 52.8108 61.0959 52.579 61.3277C52.3473 61.5594 52.2158 61.8729 52.2129 62.2007C52.2101 62.5284 52.3361 62.8442 52.5638 63.0799L57.8663 68.3837C58.1007 68.618 58.4186 68.7497 58.75 68.7497C59.0815 68.7497 59.3994 68.618 59.6338 68.3837L70.24 57.7774C70.4677 57.5417 70.5937 57.2259 70.5909 56.8982C70.588 56.5705 70.4566 56.2569 70.2248 56.0252C69.993 55.7934 69.6795 55.662 69.3518 55.6591C69.024 55.6563 68.7083 55.7822 68.4725 56.0099Z" fill="#1A75CF"/>
</svg>