<svg xmlns="http://www.w3.org/2000/svg" width="81" height="80" viewBox="0 0 81 80" fill="none">
  <path d="M40.667 8.75C28.9503 8.75 19.417 18.2833 19.417 30C19.417 41.7167 28.9503 51.25 40.667 51.25C52.3837 51.25 61.917 41.7167 61.917 30C61.917 18.2833 52.3837 8.75 40.667 8.75ZM40.667 48.75C30.3287 48.75 21.917 40.3383 21.917 30C21.917 19.6617 30.3287 11.25 40.667 11.25C51.0053 11.25 59.417 19.6617 59.417 30C59.417 40.3383 51.0053 48.75 40.667 48.75Z" fill="#1A75CF"/>
  <path d="M54.5272 24.7001L42.6938 19.2001C42.059 18.905 41.3673 18.7521 40.6672 18.7521C39.9671 18.7521 39.2754 18.905 38.6405 19.2001L26.8072 24.7001C25.8588 25.1401 25.8622 26.5267 26.8072 26.9667L31.0838 28.9517V36.7284C31.0837 36.9089 31.1227 37.0872 31.1981 37.2512C31.2734 37.4152 31.3834 37.561 31.5205 37.6784C34.2805 40.0451 37.4555 41.2251 40.6405 41.2251C43.8238 41.2251 47.0138 40.0451 49.8072 37.6834C49.9458 37.5658 50.0573 37.4195 50.1338 37.2546C50.2104 37.0897 50.2502 36.9102 50.2505 36.7284V28.9534L52.7505 27.7917V31.6667C52.7505 33.2584 55.2505 33.2934 55.2505 31.6667V25.8317C55.2447 25.5948 55.1742 25.364 55.0467 25.1643C54.9192 24.9645 54.7396 24.8051 54.5272 24.7001ZM47.7505 36.1334C43.3072 39.6051 37.9672 39.6101 33.5838 36.1401V30.1134L38.6388 32.4617C39.2746 32.7558 39.9667 32.9081 40.6672 32.9081C41.3676 32.9081 42.0597 32.7558 42.6955 32.4617L47.7505 30.1151V36.1334ZM41.6405 30.1951C41.3362 30.3389 41.0038 30.4134 40.6672 30.4134C40.3306 30.4134 39.9982 30.3389 39.6938 30.1951L30.3005 25.8317L39.6922 21.4684C39.9969 21.3242 40.3298 21.2492 40.667 21.2489C41.0041 21.2486 41.3372 21.323 41.6422 21.4667L51.0338 25.8317L41.6405 30.1951Z" fill="#1A75CF"/>
  <path d="M40.6672 2.08337C25.2738 2.08337 12.7505 14.6067 12.7505 30C12.7505 37.7784 16.0272 45.1334 21.9772 50.71C27.7538 56.1434 32.0405 60.9234 35.4938 65.8034C30.7772 66.5217 26.0838 68.365 26.0838 71.6667C26.0838 75.77 33.4205 77.9167 40.6672 77.9167C47.9138 77.9167 55.2505 75.77 55.2505 71.6667C55.2505 68.3667 50.5588 66.5217 45.8422 65.8034C49.2938 60.9234 53.5805 56.1417 59.3555 50.7117C65.3055 45.135 68.5838 37.7784 68.5838 30C68.5838 14.6067 56.0605 2.08337 40.6672 2.08337ZM52.7505 71.6667C52.7505 73.195 48.0438 75.4167 40.6672 75.4167C33.2905 75.4167 28.5838 73.195 28.5838 71.6667C28.5838 70.5267 31.5472 68.7317 37.0705 68.1334C37.953 69.4832 38.788 70.8634 39.5738 72.2717C40.0155 73.07 41.2872 73.1284 41.7605 72.2717C42.5405 70.8634 43.3822 69.4917 44.2638 68.1334C49.7872 68.7317 52.7505 70.5267 52.7505 71.6667ZM57.6455 48.89C52.3905 53.8284 45.8205 60.52 40.6672 69.1584C35.5138 60.52 28.9438 53.83 23.6872 48.8884C18.2488 43.7884 15.2505 37.08 15.2505 30C15.2505 15.985 26.6522 4.58337 40.6672 4.58337C54.6822 4.58337 66.0838 15.985 66.0838 30C66.0838 37.08 63.0872 43.7884 57.6455 48.89Z" fill="#1A75CF"/>
</svg>