<svg xmlns="http://www.w3.org/2000/svg" width="80" height="80" viewBox="0 0 80 80" fill="none">
  <g clip-path="url(#clip0_8342_52187)">
    <path d="M48.8107 35.364L59.2267 42.7787C59.4525 42.9395 59.7228 43.0259 60 43.0259C60.2772 43.0259 60.5475 42.9395 60.7733 42.7787L71.1893 35.364C72.2588 34.6065 73.1322 33.6049 73.737 32.4422C74.3418 31.2794 74.6605 29.9893 74.6667 28.6787V12.9027C74.6671 12.6429 74.5915 12.3887 74.4494 12.1712C74.3073 11.9538 74.1048 11.7826 73.8667 11.6787L60.5333 5.91869C60.3666 5.84678 60.1869 5.80969 60.0053 5.80969C59.8237 5.80969 59.6441 5.84678 59.4773 5.91869L46.144 11.6787C45.9059 11.7826 45.7034 11.9538 45.5612 12.1712C45.4191 12.3887 45.3436 12.6429 45.344 12.9027V28.6787C45.3491 29.9883 45.6662 31.2779 46.2691 32.4405C46.8719 33.6031 47.7432 34.6053 48.8107 35.364ZM48 13.7787L60 8.59602L72 13.7787V28.6787C71.9952 29.5657 71.7787 30.4387 71.3684 31.2251C70.9582 32.0115 70.366 32.6886 69.6413 33.2L60 40.056L50.3587 33.192C49.6348 32.6816 49.0432 32.0059 48.633 31.2209C48.2227 30.4359 48.0057 29.5644 48 28.6787V13.7787Z" fill="#1A75CF"/>
    <path d="M56.5333 31.7334C56.8104 31.9413 57.1575 32.0332 57.5012 31.9897C57.8449 31.9461 58.1582 31.7705 58.3746 31.5L69.0413 18.1667C69.2623 17.8905 69.3646 17.5379 69.3256 17.1863C69.2865 16.8347 69.1095 16.513 68.8333 16.292C68.5571 16.071 68.2044 15.9688 67.8529 16.0078C67.5013 16.0468 67.1796 16.2239 66.9586 16.5L57.092 28.8254L52.8 25.6C52.6599 25.495 52.5005 25.4185 52.3309 25.3751C52.1612 25.3316 51.9847 25.322 51.8114 25.3468C51.6381 25.3715 51.4713 25.4302 51.3206 25.5194C51.17 25.6086 51.0383 25.7266 50.9333 25.8667C50.8282 26.0068 50.7518 26.1662 50.7083 26.3358C50.6649 26.5054 50.6553 26.6819 50.68 26.8553C50.7048 27.0286 50.7634 27.1954 50.8527 27.346C50.9419 27.4967 51.0599 27.6283 51.2 27.7334L56.5333 31.7334Z" fill="#1A75CF"/>
    <path d="M2.66667 70.6667H4V76C4 77.0609 4.42143 78.0783 5.17157 78.8285C5.92172 79.5786 6.93913 80 8 80H16C17.0609 80 18.0783 79.5786 18.8284 78.8285C19.5786 78.0783 20 77.0609 20 76V70.6667H52V76C52 77.0609 52.4214 78.0783 53.1716 78.8285C53.9217 79.5786 54.9391 80 56 80H64C65.0609 80 66.0783 79.5786 66.8284 78.8285C67.5786 78.0783 68 77.0609 68 76V70.6667H69.3333C70.0406 70.6667 70.7189 70.3857 71.219 69.8857C71.7191 69.3856 72 68.7073 72 68V48C72.0024 47.0452 71.7976 46.1013 71.3996 45.2334C71.0015 44.3656 70.4198 43.5944 69.6947 42.9734L74.2813 39.7094C76.0432 38.4582 77.4812 36.8047 78.4758 34.8862C79.4704 32.9677 79.9929 30.8396 80 28.6787V9.39737C80.0004 9.13759 79.9249 8.88336 79.7828 8.66592C79.6406 8.44847 79.4381 8.27728 79.2 8.17337L60.5333 0.109366C60.3666 0.0374574 60.1869 0.000366211 60.0053 0.000366211C59.8237 0.000366211 59.6441 0.0374574 59.4773 0.109366L40.8 8.17337C40.5619 8.27728 40.3594 8.44847 40.2172 8.66592C40.0751 8.88336 39.9996 9.13759 40 9.39737V14.6667H19.8267C18.4473 14.6672 17.102 15.0955 15.9763 15.8926C14.8506 16.6897 13.9998 17.8164 13.5413 19.1174L5.688 41.432C4.11047 41.6642 2.66867 42.4548 1.62482 43.6602C0.580964 44.8655 0.00440458 46.4055 0 48L0 68C0 68.7073 0.280952 69.3856 0.781049 69.8857C1.28115 70.3857 1.95942 70.6667 2.66667 70.6667ZM17.3333 76C17.3333 76.3537 17.1929 76.6928 16.9428 76.9428C16.6928 77.1929 16.3536 77.3334 16 77.3334H8C7.64638 77.3334 7.30724 77.1929 7.05719 76.9428C6.80714 76.6928 6.66667 76.3537 6.66667 76V70.6667H17.3333V76ZM12 68H9.33333V65.3334H12V68ZM65.3333 76C65.3333 76.3537 65.1929 76.6928 64.9428 76.9428C64.6928 77.1929 64.3536 77.3334 64 77.3334H56C55.6464 77.3334 55.3072 77.1929 55.0572 76.9428C54.8071 76.6928 54.6667 76.3537 54.6667 76V70.6667H65.3333V76ZM62.6667 68H60V65.3334H62.6667V68ZM42.6667 10.2734L60 2.78537L77.3333 10.2734V28.6734C77.3268 30.4093 76.9062 32.1187 76.1064 33.6594C75.3066 35.2001 74.1507 36.5278 72.7347 37.532L60 46.6027L47.2653 37.536C45.8495 36.5319 44.6937 35.2045 43.8939 33.664C43.0941 32.1235 42.6734 30.4144 42.6667 28.6787V10.2734ZM62.6667 49.3334C63.0203 49.3334 63.3594 49.4738 63.6095 49.7239C63.8595 49.9739 64 50.3131 64 50.6667V53.3334C64 53.687 63.8595 54.0261 63.6095 54.2762C63.3594 54.5262 63.0203 54.6667 62.6667 54.6667H54.6667C54.313 54.6667 53.9739 54.5262 53.7239 54.2762C53.4738 54.0261 53.3333 53.687 53.3333 53.3334C53.3333 52.2725 53.7548 51.2551 54.5049 50.5049C55.2551 49.7548 56.2725 49.3334 57.3333 49.3334H62.6667ZM40 22.6667V25.3334H30.6667V22.6667H40ZM40 20H37.3333V17.3334H40V20ZM16.0573 20C16.333 19.2205 16.8434 18.5455 17.5184 18.0679C18.1934 17.5904 18.9998 17.3338 19.8267 17.3334H34.6667V20H30.6667C29.9594 20 29.2811 20.281 28.781 20.7811C28.281 21.2812 28 21.9595 28 22.6667V25.3334C28 26.0406 28.281 26.7189 28.781 27.219C29.2811 27.7191 29.9594 28 30.6667 28H40V28.6787C40.0071 30.8396 40.5297 32.9677 41.5243 34.8862C42.5188 36.8047 43.9568 38.4582 45.7187 39.7094L48 41.3334H8.54933L16.0573 20ZM2.66667 48C2.66667 46.9392 3.08809 45.9218 3.83824 45.1716C4.58839 44.4215 5.6058 44 6.66667 44H51.7467L55.776 46.8694C54.3232 47.2184 53.0297 48.0454 52.1032 49.2176C51.1767 50.3897 50.6708 51.8392 50.6667 53.3334C50.6667 54.3942 51.0881 55.4116 51.8382 56.1618C52.5884 56.9119 53.6058 57.3334 54.6667 57.3334H62.6667C63.7275 57.3334 64.7449 56.9119 65.4951 56.1618C66.2452 55.4116 66.6667 54.3942 66.6667 53.3334V50.6667C66.6645 49.8619 66.4197 49.0765 65.9642 48.4131C65.5087 47.7497 64.8636 47.2391 64.1133 46.948L67.4147 44.5974C68.0024 44.9491 68.4884 45.4478 68.8249 46.0445C69.1613 46.6411 69.3365 47.3151 69.3333 48V68H65.3333V65.3334C65.3333 64.6261 65.0524 63.9478 64.5523 63.4477C64.0522 62.9476 63.3739 62.6667 62.6667 62.6667H60C59.2928 62.6667 58.6145 62.9476 58.1144 63.4477C57.6143 63.9478 57.3333 64.6261 57.3333 65.3334V68H14.6667V65.3334C14.6667 64.6261 14.3857 63.9478 13.8856 63.4477C13.3855 62.9476 12.7072 62.6667 12 62.6667H9.33333C8.62609 62.6667 7.94781 62.9476 7.44772 63.4477C6.94762 63.9478 6.66667 64.6261 6.66667 65.3334V68H2.66667V48Z" fill="#1A75CF"/>
    <path d="M24 20H21.7187C20.8915 20.0009 20.0848 20.2577 19.4093 20.7351C18.7337 21.2125 18.2224 21.8872 17.9454 22.6667L12.94 36.8907C12.8226 37.2243 12.8426 37.5909 12.9955 37.9099C13.1484 38.2288 13.4217 38.4739 13.7554 38.5913C14.089 38.7087 14.4556 38.6888 14.7746 38.5359C15.0935 38.383 15.3386 38.1096 15.456 37.776L20.4614 23.5573C20.553 23.297 20.7232 23.0715 20.9484 22.912C21.1736 22.7525 21.4427 22.6667 21.7187 22.6667H24C24.3537 22.6667 24.6928 22.5262 24.9429 22.2761C25.1929 22.0261 25.3334 21.687 25.3334 21.3333C25.3334 20.9797 25.1929 20.6406 24.9429 20.3905C24.6928 20.1405 24.3537 20 24 20ZM9.33337 57.3333H17.3334C18.3942 57.3333 19.4117 56.9119 20.1618 56.1618C20.9119 55.4116 21.3334 54.3942 21.3334 53.3333C21.3313 51.5659 20.6282 49.8714 19.3784 48.6216C18.1286 47.3718 16.4342 46.6688 14.6667 46.6667H9.33337C8.27251 46.6667 7.25509 47.0881 6.50495 47.8382C5.7548 48.5884 5.33337 49.6058 5.33337 50.6667V53.3333C5.33337 54.3942 5.7548 55.4116 6.50495 56.1618C7.25509 56.9119 8.27251 57.3333 9.33337 57.3333ZM8.00004 50.6667C8.00004 50.313 8.14052 49.9739 8.39057 49.7239C8.64061 49.4738 8.97975 49.3333 9.33337 49.3333H14.6667C15.7276 49.3333 16.745 49.7548 17.4951 50.5049C18.2453 51.2551 18.6667 52.2725 18.6667 53.3333C18.6667 53.687 18.5262 54.0261 18.2762 54.2761C18.0261 54.5262 17.687 54.6667 17.3334 54.6667H9.33337C8.97975 54.6667 8.64061 54.5262 8.39057 54.2761C8.14052 54.0261 8.00004 53.687 8.00004 53.3333V50.6667ZM26.6667 65.3333H45.3334C46.0406 65.3333 46.7189 65.0524 47.219 64.5523C47.7191 64.0522 48 63.3739 48 62.6667V57.3333C48 56.6261 47.7191 55.9478 47.219 55.4477C46.7189 54.9476 46.0406 54.6667 45.3334 54.6667H26.6667C25.9595 54.6667 25.2812 54.9476 24.7811 55.4477C24.281 55.9478 24 56.6261 24 57.3333V62.6667C24 63.3739 24.281 64.0522 24.7811 64.5523C25.2812 65.0524 25.9595 65.3333 26.6667 65.3333ZM26.6667 57.3333H45.3334V62.6667H26.6667V57.3333Z" fill="#1A75CF"/>
  </g>
  <defs>
    <clipPath id="clip0_8342_52187">
      <rect width="80" height="80" fill="white"/>
    </clipPath>
  </defs>
</svg>