<svg xmlns="http://www.w3.org/2000/svg" width="80" height="80" viewBox="0 0 80 80" fill="none">
  <path d="M71.4678 41.3588C72.3307 41.3588 73.0303 40.6592 73.0303 39.7963C73.0303 38.9333 72.3307 38.2338 71.4678 38.2338C70.6048 38.2338 69.9053 38.9333 69.9053 39.7963C69.9053 40.6592 70.6048 41.3588 71.4678 41.3588Z" fill="#1A75CF"/>
  <path d="M78.4344 14.625H73.0331V9.4064C73.0331 9.17282 72.9809 8.9422 72.8802 8.73144C72.7795 8.52068 72.6329 8.33512 72.4512 8.18837C72.2695 8.04162 72.0572 7.93739 71.83 7.88333C71.6028 7.82927 71.3663 7.82674 71.138 7.87593L39.9619 14.5889L8.86266 7.87609C8.63429 7.82692 8.39782 7.82945 8.17056 7.8835C7.9433 7.93755 7.73101 8.04175 7.54923 8.18847C7.36746 8.33519 7.2208 8.52072 7.12001 8.73145C7.01922 8.94219 6.96685 9.1728 6.96672 9.4064V14.625H1.56563C0.700938 14.625 0 15.3259 0 16.1905V70.5936C0 71.4583 0.700938 72.1592 1.56563 72.1592H78.4344C79.2991 72.1592 80 71.4583 80 70.5936V16.1905C80 15.3259 79.2991 14.625 78.4344 14.625ZM10.0978 11.3459L38.3967 17.4544L38.433 68.6545L10.0978 62.5458V11.3459ZM3.13109 17.7561H6.96672V63.8098C6.96672 64.5473 7.48141 65.1848 8.20234 65.3403L25.3086 69.0283H3.13109V17.7561ZM76.8689 69.0281H54.6914L71.7977 65.3401C72.1475 65.2647 72.461 65.0717 72.6858 64.7932C72.9107 64.5147 73.0333 64.1676 73.0333 63.8097V46.8495C73.0333 45.9848 72.3323 45.2839 71.4677 45.2839C70.603 45.2839 69.902 45.9848 69.902 46.8495V62.5458L41.5641 68.6551L41.5278 17.4547L69.902 11.345V32.7986C69.902 33.6633 70.603 34.3642 71.4677 34.3642C72.3323 34.3642 73.0333 33.6633 73.0333 32.7986V17.7561H76.8689V69.0281Z" fill="#1A75CF"/>
  <path d="M15.2272 31.6132L32.6991 35.3846C33.6597 35.5918 34.5951 34.8357 34.5951 33.8543V26.0265C34.595 25.6686 34.4724 25.3216 34.2477 25.0431C34.0229 24.7647 33.7095 24.5716 33.3597 24.4961L15.8879 20.7247C15.6595 20.6754 15.4229 20.6778 15.1956 20.7318C14.9683 20.7857 14.7559 20.8899 14.5741 21.0367C14.3923 21.1834 14.2456 21.369 14.1449 21.5799C14.0441 21.7907 13.9919 22.0214 13.9919 22.255V30.0829C13.9919 30.4407 14.1145 30.7877 14.3393 31.0662C14.5641 31.3446 14.8775 31.5377 15.2272 31.6132ZM17.1232 24.1946L31.464 27.29V31.9146L17.1232 28.8191V24.1946ZM15.2272 39.441L32.6991 43.2124C33.5463 43.395 34.3991 42.8304 34.5658 41.9815C34.7279 41.1563 34.1813 40.3291 33.3597 40.1518L15.8879 36.3804C15.0427 36.1985 14.2096 36.7352 14.0272 37.5804C13.8449 38.4255 14.3821 39.2585 15.2272 39.441ZM33.3597 47.9794L15.8879 44.208C15.0427 44.026 14.2096 44.5629 14.0272 45.408C13.8449 46.2532 14.3821 47.0861 15.2272 47.2686L32.6991 51.0401C33.5463 51.2227 34.3991 50.658 34.5658 49.8091C34.7277 48.984 34.1813 48.1569 33.3597 47.9794ZM33.3597 55.8072L15.8879 52.0358C15.0427 51.8538 14.2096 52.3907 14.0272 53.2358C13.8449 54.081 14.3821 54.914 15.2272 55.0965L32.6991 58.8679C33.5463 59.0505 34.3991 58.4858 34.5658 57.6369C34.7277 56.8118 34.1813 55.9847 33.3597 55.8072ZM64.2685 20.7247L46.7968 24.4961C45.9738 24.6738 45.4307 25.5002 45.5907 26.3258C45.7554 27.175 46.6116 27.7393 47.4574 27.5568L64.9293 23.7854C65.7744 23.6029 66.3116 22.7699 66.1293 21.9247C65.9468 21.0796 65.1137 20.5429 64.2685 20.7247ZM64.2685 28.5525L46.7968 32.324C45.9738 32.5016 45.4307 33.328 45.5907 34.1536C45.7554 35.0029 46.6116 35.5671 47.4574 35.3846L64.9293 31.6132C65.7744 31.4307 66.3116 30.5977 66.1293 29.7525C65.9468 28.9072 65.1137 28.3702 64.2685 28.5525ZM65.5822 36.6925C65.4004 36.5458 65.1881 36.4417 64.9608 36.3876C64.7335 36.3336 64.497 36.3311 64.2687 36.3804L46.7968 40.1518C46.447 40.2273 46.1336 40.4203 45.9088 40.6988C45.6841 40.9772 45.5615 41.3242 45.5615 41.6821V57.3375C45.5615 58.319 46.4968 59.075 47.4574 58.8679L64.9293 55.0965C65.2791 55.021 65.5924 54.8279 65.8172 54.5495C66.042 54.271 66.1646 53.924 66.1646 53.5661V37.9107C66.1645 37.6771 66.1122 37.4464 66.0114 37.2356C65.9107 37.0249 65.764 36.8393 65.5822 36.6925ZM63.0333 52.3025L48.6926 55.398V42.9457L63.0333 39.8502V52.3025Z" fill="#1A75CF"/>
</svg>