<svg xmlns="http://www.w3.org/2000/svg" width="80" height="80" viewBox="0 0 80 80" fill="none">
  <path d="M62.7777 21.4283H17.2224C16.5746 21.4283 16.0496 21.9533 16.0496 22.6012C16.0496 23.249 16.5746 23.774 17.2224 23.774H62.7777C63.4255 23.774 63.9505 23.249 63.9505 22.6012C63.9505 21.9533 63.4255 21.4283 62.7777 21.4283ZM62.7777 34.1983H17.2224C16.9113 34.1983 16.613 34.3219 16.3931 34.5419C16.1731 34.7618 16.0496 35.0601 16.0496 35.3712C16.0496 35.6822 16.1731 35.9805 16.3931 36.2005C16.613 36.4204 16.9113 36.544 17.2224 36.544H62.7777C63.4255 36.544 63.9505 36.019 63.9505 35.3712C63.9505 34.7233 63.4255 34.1983 62.7777 34.1983ZM47.8427 42.4858H32.1574C31.8463 42.4858 31.548 42.6094 31.3281 42.8294C31.1081 43.0493 30.9846 43.3476 30.9846 43.6587C30.9846 43.9697 31.1081 44.268 31.3281 44.488C31.548 44.7079 31.8463 44.8315 32.1574 44.8315H47.8427C47.9967 44.8315 48.1492 44.8012 48.2915 44.7422C48.4338 44.6833 48.5631 44.5969 48.672 44.488C48.7809 44.3791 48.8673 44.2498 48.9263 44.1075C48.9852 43.9652 49.0155 43.8127 49.0155 43.6587C49.0155 43.5046 48.9852 43.3521 48.9263 43.2098C48.8673 43.0675 48.7809 42.9382 48.672 42.8293C48.5631 42.7204 48.4338 42.634 48.2915 42.5751C48.1492 42.5161 47.9967 42.4858 47.8427 42.4858ZM62.7777 27.7872H28.7974C28.4863 27.7872 28.188 27.9108 27.9681 28.1308C27.7481 28.3507 27.6246 28.649 27.6246 28.9601C27.6246 29.2711 27.7481 29.5694 27.9681 29.7894C28.188 30.0093 28.4863 30.1329 28.7974 30.1329H62.7777C63.4255 30.1329 63.9505 29.6079 63.9505 28.9601C63.9505 28.3122 63.4255 27.7872 62.7777 27.7872ZM23.3408 27.7871H17.2224C16.5746 27.7871 16.0496 28.3121 16.0496 28.9599C16.0496 29.6077 16.5746 30.1327 17.2224 30.1327H23.3408C23.6519 30.1327 23.9502 30.0092 24.1701 29.7892C24.3901 29.5693 24.5136 29.271 24.5136 28.9599C24.5136 28.6489 24.3901 28.3505 24.1701 28.1306C23.9502 27.9107 23.6519 27.7871 23.3408 27.7871Z" fill="#1A75CF"/>
  <path d="M73.9454 19.4461C73.6738 19.1786 73.3075 19.0292 72.9263 19.0307H72.9255C70.5485 19.0307 68.603 17.1725 68.496 14.7997C68.4608 14.0282 67.8268 13.424 67.0526 13.424H12.6682C12.2965 13.4229 11.9387 13.5656 11.6697 13.8221C11.4007 14.0786 11.2412 14.4292 11.2246 14.8005C11.1226 17.0679 9.26646 18.9241 6.99896 19.0261C6.22709 19.0608 5.62256 19.695 5.62256 20.4697V50.7855C5.62256 51.5602 6.22709 52.1943 6.99896 52.229C9.26646 52.3311 11.1226 54.1872 11.2246 56.4554C11.2597 57.2269 11.894 57.8311 12.6682 57.8311H47.2896C47.6006 57.8311 47.899 57.7076 48.1189 57.4876C48.3388 57.2677 48.4624 56.9694 48.4624 56.6583C48.4624 56.3473 48.3388 56.049 48.1189 55.829C47.899 55.6091 47.6006 55.4855 47.2896 55.4855H13.4747C13.241 54.11 12.5854 52.8412 11.5989 51.8546C10.6123 50.868 9.34352 50.2125 7.96803 49.9786V21.2761C9.34347 21.0423 10.6122 20.3867 11.5988 19.4002C12.5853 18.4136 13.2409 17.1449 13.4747 15.7694H66.2465C66.7511 18.6835 69.0972 20.9329 72.0318 21.3179V41.2349C72.0318 41.5459 72.1553 41.8443 72.3753 42.0642C72.5952 42.2841 72.8935 42.4077 73.2046 42.4077C73.5156 42.4077 73.8139 42.2841 74.0339 42.0642C74.2538 41.8443 74.3774 41.5459 74.3774 41.2349V20.4763C74.378 20.2844 74.3401 20.0944 74.2658 19.9174C74.1916 19.7405 74.0827 19.5802 73.9454 19.4461Z" fill="#1A75CF"/>
  <path d="M76.7445 7.56958H3.25547C1.46047 7.56958 0 9.03005 0 10.825V60.4297C0 62.2249 1.46047 63.6852 3.25547 63.6852H52.4817L50.7389 67.3372C50.629 67.5665 50.5841 67.8214 50.6091 68.0744C50.6342 68.3274 50.7281 68.5687 50.8808 68.7719C51.0328 68.9756 51.2378 69.1337 51.4734 69.2291C51.709 69.3244 51.9663 69.3533 52.2172 69.3127L55.4619 68.7911L57.2717 71.7619C57.4021 71.9764 57.5881 72.1516 57.81 72.2689C58.0319 72.3863 58.2814 72.4414 58.532 72.4285C58.7828 72.4159 59.0255 72.3357 59.2344 72.1964C59.4432 72.0571 59.6106 71.8639 59.7186 71.6372L62.8633 65.0477L66.0077 71.6368C66.1208 71.8745 66.299 72.0753 66.5217 72.2158C66.7444 72.3563 67.0023 72.4307 67.2656 72.4305C67.5045 72.4306 67.7395 72.3692 67.9478 72.2521C68.156 72.1351 68.3307 71.9664 68.4548 71.7622L70.2647 68.7915L73.5094 69.3132C73.7604 69.3539 74.0178 69.325 74.2535 69.2295C74.4892 69.1341 74.6942 68.9757 74.8461 68.7718C74.9987 68.5686 75.0925 68.3274 75.1175 68.0745C75.1424 67.8216 75.0974 67.5668 74.9875 67.3377L73.2447 63.6857H76.7445C78.5395 63.6857 80 62.2254 80 60.4302V10.825C80 9.03005 78.5395 7.56958 76.7445 7.56958ZM58.3595 69.0391L57.1319 67.0243C56.9885 66.7875 56.7775 66.599 56.5261 66.4831C56.2747 66.3672 55.9944 66.3291 55.7212 66.3738L53.6378 66.7088L55.8325 62.11C56.6975 62.9927 57.9298 63.4696 59.2091 63.3491C59.6468 63.3075 60.0848 63.4248 60.4431 63.6796C60.5608 63.7621 60.6826 63.8385 60.8081 63.9085L58.3595 69.0391ZM63.143 62.0847L63.132 62.0861C62.9542 62.1124 62.7735 62.1124 62.5956 62.0863L62.5822 62.0846C62.3009 62.0412 62.0337 61.9327 61.8017 61.7679C60.9846 61.1871 59.9859 60.9195 58.9878 61.014C58.6092 61.0497 58.2288 60.9667 57.8995 60.7765C57.5701 60.5864 57.3081 60.2985 57.1497 59.9527C57.006 59.6411 56.8244 59.3484 56.6091 59.0813C56.5997 59.068 56.5894 59.0555 56.5795 59.0427C56.5677 59.0283 56.5566 59.0135 56.5447 58.9993C56.531 58.9834 56.5169 58.968 56.5023 58.953C56.1124 58.5028 55.6307 58.1413 55.0895 57.8927C54.7438 57.7343 54.4559 57.4722 54.2657 57.1428C54.0756 56.8134 53.9926 56.4331 54.0283 56.0544C54.1226 55.0564 53.8551 54.0577 53.2744 53.2405C53.0542 52.9304 52.9358 52.5595 52.9358 52.1792C52.9358 51.7989 53.054 51.428 53.2742 51.1179C53.855 50.3007 54.1227 49.302 54.0283 48.3039C53.9926 47.9253 54.0757 47.545 54.2658 47.2156C54.4559 46.8862 54.7438 46.6242 55.0895 46.4657C56.0011 46.0484 56.7323 45.3173 57.1495 44.4057C57.3081 44.0601 57.5703 43.7723 57.8996 43.5821C58.2289 43.392 58.6092 43.3089 58.9878 43.3444C59.9859 43.4388 60.9847 43.1712 61.8019 42.5904C62.112 42.3702 62.4829 42.2519 62.8632 42.2519C63.2435 42.2519 63.6144 42.3702 63.9245 42.5904C64.7419 43.1708 65.7405 43.4384 66.7386 43.3444C67.1173 43.3086 67.4977 43.3916 67.8271 43.5817C68.1565 43.7719 68.4186 44.0599 68.577 44.4057C68.9942 45.3172 69.7253 46.0483 70.6369 46.4655C70.9826 46.624 71.2705 46.8861 71.4607 47.2154C71.6508 47.5448 71.7339 47.9251 71.6983 48.3038C71.6039 49.3018 71.8715 50.3005 72.4522 51.1177C72.6724 51.4278 72.7908 51.7987 72.7908 52.179C72.7908 52.5594 72.6724 52.9303 72.4522 53.2404C71.8715 54.0575 71.604 55.0562 71.6983 56.0543C71.7339 56.433 71.6509 56.8134 71.4607 57.1428C71.2705 57.4722 70.9825 57.7343 70.6367 57.8927C70.0968 58.1409 69.6161 58.5014 69.2267 58.9502C69.2108 58.9666 69.1953 58.9835 69.1805 59.0008C69.1703 59.013 69.1608 59.0257 69.1506 59.038C69.1389 59.053 69.127 59.0677 69.1161 59.0832C68.9014 59.3498 68.7204 59.6418 68.577 59.9527C68.4185 60.2984 68.1564 60.5863 67.827 60.7765C67.4976 60.9666 67.1173 61.0496 66.7386 61.014C65.7405 60.92 64.7419 61.1875 63.9245 61.7679C63.6923 61.9329 63.4246 62.0415 63.143 62.0847ZM70.0052 66.3736C69.7319 66.3291 69.4516 66.3673 69.2003 66.4832C68.9489 66.5992 68.738 66.7877 68.5945 67.0244L67.367 69.0393L64.9184 63.9085C65.0427 63.8382 65.1652 63.7636 65.2834 63.6796C65.6417 63.4247 66.0798 63.3073 66.5175 63.349C67.7972 63.4696 69.0292 62.9927 69.8942 62.11L72.0888 66.7086L70.0052 66.3736ZM77.6545 60.4299C77.6543 60.6712 77.5583 60.9025 77.3877 61.0731C77.2171 61.2437 76.9858 61.3396 76.7445 61.3399H72.1253L71.5206 60.0727C71.5511 60.0566 71.5814 60.0397 71.613 60.0254C73.228 59.2861 74.2006 57.6015 74.0333 55.8333C73.9919 55.3958 74.1092 54.9575 74.3639 54.5993C75.393 53.1516 75.393 51.2063 74.3638 49.7586C74.1092 49.4003 73.9919 48.9624 74.0333 48.5247C74.2006 46.7566 73.228 45.0719 71.6128 44.3327C71.2132 44.1496 70.8926 43.8291 70.7095 43.4294C69.9705 41.8143 68.285 40.8419 66.5173 41.0091C66.0797 41.0507 65.6417 40.9334 65.2834 40.6785C63.8358 39.6494 61.8903 39.6493 60.4428 40.6785C60.0845 40.9332 59.6465 41.0505 59.2089 41.009C57.4386 40.8424 55.7558 41.8143 55.0169 43.4293C54.8338 43.829 54.5132 44.1496 54.1134 44.3325C52.4984 45.0718 51.5258 46.7563 51.6931 48.5246C51.7345 48.9623 51.6172 49.4003 51.3625 49.7586C50.3334 51.2063 50.3334 53.1516 51.3625 54.5991C51.6172 54.9575 51.7346 55.3955 51.6931 55.8332C51.5258 57.6014 52.4984 59.2861 54.1134 60.0252C54.145 60.0396 54.1752 60.0564 54.2056 60.0725L53.6009 61.3399H3.25547C3.0142 61.3396 2.78288 61.2437 2.61228 61.0731C2.44167 60.9025 2.34572 60.6712 2.34547 60.4299V10.825C2.34572 10.5838 2.44167 10.3525 2.61228 10.1819C2.78288 10.0113 3.0142 9.9153 3.25547 9.91505H76.7445C76.9858 9.91534 77.2171 10.0113 77.3877 10.1819C77.5583 10.3525 77.6542 10.5838 77.6545 10.825V60.4299Z" fill="#1A75CF"/>
  <path d="M62.7778 44.8926C58.76 44.8926 55.4912 48.1613 55.4912 52.179C55.4912 56.1968 58.76 59.4655 62.7778 59.4655C66.7956 59.4655 70.0642 56.1966 70.0642 52.179C70.0642 48.1612 66.7956 44.8926 62.7778 44.8926ZM62.7778 57.1199C60.0532 57.1199 57.8367 54.9034 57.8367 52.1788C57.8367 49.4545 60.0532 47.2379 62.7778 47.2379C65.5021 47.2379 67.7187 49.4545 67.7187 52.1788C67.7187 54.9034 65.5021 57.1199 62.7778 57.1199Z" fill="#1A75CF"/>
</svg>