<svg xmlns="http://www.w3.org/2000/svg" width="28" height="28" viewBox="0 0 28 28" fill="none">
  <path fill-rule="evenodd" clip-rule="evenodd" d="M21 12.6C22.5457 12.6 23.8001 13.8544 23.8001 15.4C23.8001 16.9457 22.5457 18.2001 21 18.2001C19.4545 18.2001 18.2001 16.9457 18.2001 15.4C18.2001 13.8544 19.4545 12.6 21 12.6ZM14 12.6C12.4544 12.6 11.2 11.3456 11.2 9.80005C11.2 8.25445 12.4544 7.00005 14 7.00005C15.5456 7.00005 16.8 8.25445 16.8 9.80005C16.8 11.3456 15.5456 12.6 14 12.6ZM22.4001 2.80005C23.9457 2.80005 25.2001 4.05445 25.2001 5.60005C25.2001 7.14565 23.9457 8.40005 22.4001 8.40005C20.8545 8.40005 19.6 7.14565 19.6 5.60005C19.6 4.05445 20.8545 2.80005 22.4001 2.80005ZM18.2001 22.4001C18.9729 22.4001 19.6 23.0259 19.6 23.8001C19.6 24.5742 18.9729 25.2001 18.2001 25.2001H9.80005C9.68525 25.2001 9.57185 25.1861 9.45985 25.158L3.85985 23.758C3.23685 23.6012 2.80005 23.0427 2.80005 22.4001V18.2001C2.80005 17.5967 3.18505 17.0619 3.75765 16.8728L7.95765 15.4728C8.09065 15.4267 8.22925 15.4099 8.36925 15.4071C8.37905 15.4056 8.38885 15.4 8.40005 15.4H12.6C13.3728 15.4 14 16.0259 14 16.8C14 17.5742 13.3728 18.2001 12.6 18.2001H10.0324C10.871 20.7299 13.9916 22.4001 18.2001 22.4001Z" fill="#0051FF"/>
</svg>