<svg xmlns="http://www.w3.org/2000/svg" width="80" height="80" viewBox="0 0 80 80" fill="none">
  <path d="M42.575 38.3875L38.75 36.6875V33.425C40.3705 32.2896 41.5633 30.6435 42.1375 28.75H42.5C43.4946 28.75 44.4484 28.3549 45.1516 27.6517C45.8549 26.9484 46.25 25.9946 46.25 25C46.25 24.0054 45.8549 23.0516 45.1516 22.3483C44.4484 21.6451 43.4946 21.25 42.5 21.25V18.75C42.5 16.4294 41.5781 14.2038 39.9372 12.5628C38.2962 10.9219 36.0706 10 33.75 10C31.4294 10 29.2038 10.9219 27.5628 12.5628C25.9219 14.2038 25 16.4294 25 18.75V21.25C24.0054 21.25 23.0516 21.6451 22.3483 22.3483C21.6451 23.0516 21.25 24.0054 21.25 25C21.25 25.9946 21.6451 26.9484 22.3483 27.6517C23.0516 28.3549 24.0054 28.75 25 28.75H25.3625C25.9367 30.6435 27.1295 32.2896 28.75 33.425V36.6875L24.9125 38.3875C22.7056 39.3726 20.8311 40.9757 19.5157 43.0032C18.2003 45.0307 17.5002 47.3957 17.5 49.8125V51.25C17.5 51.5815 17.6317 51.8995 17.8661 52.1339C18.1005 52.3683 18.4185 52.5 18.75 52.5H48.75C49.0815 52.5 49.3995 52.3683 49.6339 52.1339C49.8683 51.8995 50 51.5815 50 51.25V49.8125C50.0003 47.394 49.299 45.0273 47.9811 42.9994C46.6632 40.9715 44.7852 39.3694 42.575 38.3875ZM42.5 23.75C42.8315 23.75 43.1495 23.8817 43.3839 24.1161C43.6183 24.3505 43.75 24.6685 43.75 25C43.75 25.3315 43.6183 25.6495 43.3839 25.8839C43.1495 26.1183 42.8315 26.25 42.5 26.25V23.75ZM25 26.25C24.6685 26.25 24.3505 26.1183 24.1161 25.8839C23.8817 25.6495 23.75 25.3315 23.75 25C23.75 24.6685 23.8817 24.3505 24.1161 24.1161C24.3505 23.8817 24.6685 23.75 25 23.75V26.25ZM39.75 39.8625L39.175 42.7375L37.1125 41.075L38.0875 39.125L39.75 39.8625ZM27.5 18.75C27.5 17.0924 28.1585 15.5027 29.3306 14.3306C30.5027 13.1585 32.0924 12.5 33.75 12.5C35.4076 12.5 36.9973 13.1585 38.1694 14.3306C39.3415 15.5027 40 17.0924 40 18.75V18.8375C39.5857 18.7813 39.1681 18.752 38.75 18.75C36.8438 18.7906 34.97 19.2516 33.2625 20.1C31.8601 20.8076 30.32 21.2001 28.75 21.25C28.3306 21.2544 27.9119 21.2167 27.5 21.1375V18.75ZM27.5 26.25V23.6625C27.9143 23.7187 28.3319 23.748 28.75 23.75C30.6562 23.7094 32.53 23.2484 34.2375 22.4C35.6399 21.6924 37.18 21.2999 38.75 21.25C39.1694 21.2456 39.5881 21.2833 40 21.3625V26.25C40 27.9076 39.3415 29.4973 38.1694 30.6694C36.9973 31.8415 35.4076 32.5 33.75 32.5C32.0924 32.5 30.5027 31.8415 29.3306 30.6694C28.1585 29.4973 27.5 27.9076 27.5 26.25ZM36.25 34.6375V37.2L33.75 42.2L31.25 37.2V34.6375C32.8816 35.1208 34.6184 35.1208 36.25 34.6375ZM29.4125 39.125L30.3875 41.075L28.325 42.7375L27.75 39.8625L29.4125 39.125ZM47.5 50H20V49.8125C20.0042 47.9813 20.5112 46.1864 21.4657 44.6236C22.4201 43.0608 23.7853 41.7901 25.4125 40.95L26.275 45.25C26.3179 45.4598 26.4141 45.655 26.5542 45.817C26.6942 45.979 26.8736 46.1023 27.075 46.175C27.2111 46.2251 27.355 46.2505 27.5 46.25C27.782 46.2484 28.0551 46.1515 28.275 45.975L31.5375 43.3625L32.6375 45.5625C32.7424 45.7673 32.9018 45.9391 33.0981 46.0591C33.2943 46.1791 33.5199 46.2425 33.75 46.2425C33.9801 46.2425 34.2057 46.1791 34.4019 46.0591C34.5982 45.9391 34.7576 45.7673 34.8625 45.5625L35.9625 43.3625L39.225 45.975C39.4449 46.1515 39.718 46.2484 40 46.25C40.145 46.2505 40.2889 46.2251 40.425 46.175C40.6264 46.1023 40.8058 45.979 40.9458 45.817C41.0859 45.655 41.1821 45.4598 41.225 45.25L42.0875 40.95C43.7146 41.7901 45.0799 43.0608 46.0343 44.6236C46.9888 46.1864 47.4958 47.9813 47.5 49.8125V50Z" fill="#1A75CF"/>
  <path d="M58.75 68.75C58.748 70.407 58.0889 71.9956 56.9172 73.1672C55.7456 74.3389 54.157 74.998 52.5 75H15C13.343 74.998 11.7544 74.3389 10.5828 73.1672C9.4111 71.9956 8.75198 70.407 8.75 68.75V11.25C8.75198 9.59301 9.4111 8.00445 10.5828 6.83278C11.7544 5.6611 13.343 5.00198 15 5H43.75V13.75C43.7501 13.9972 43.8234 14.2388 43.9607 14.4443C44.0981 14.6498 44.2933 14.81 44.5217 14.9046C44.7501 14.9992 45.0013 15.0239 45.2438 14.9757C45.4862 14.9275 45.7089 14.8085 45.8838 14.6337L48.75 11.7675L51.6162 14.6337C51.7911 14.8085 52.0138 14.9275 52.2562 14.9757C52.4987 15.0239 52.7499 14.9992 52.9783 14.9046C53.2067 14.81 53.4019 14.6498 53.5393 14.4443C53.6766 14.2388 53.7499 13.9972 53.75 13.75V5.125C55.1607 5.41512 56.4283 6.18273 57.3391 7.29844C58.2499 8.41415 58.7482 9.80974 58.75 11.25V36.25H61.25V11.25C61.2474 8.93017 60.3246 6.70611 58.6843 5.06574C57.0439 3.42537 54.8198 2.50265 52.5 2.5H15C12.6802 2.50265 10.4561 3.42537 8.81574 5.06574C7.17537 6.70611 6.25265 8.93017 6.25 11.25V68.75C6.25265 71.0698 7.17537 73.2939 8.81574 74.9343C10.4561 76.5746 12.6802 77.4974 15 77.5H52.5C54.8198 77.4974 57.0439 76.5746 58.6843 74.9343C60.3246 73.2939 61.2474 71.0698 61.25 68.75V63.75H58.75V68.75ZM49.6338 9.11625C49.3993 8.88191 49.0815 8.75027 48.75 8.75027C48.4185 8.75027 48.1007 8.88191 47.8662 9.11625L46.25 10.7325V5H51.25V10.7325L49.6338 9.11625Z" fill="#1A75CF"/>
  <path d="M36.25 65H48.75V67.5H36.25V65ZM72.95 35.3875C72.7854 34.7531 72.4947 34.1583 72.0952 33.6385C71.6958 33.1188 71.1958 32.6849 70.625 32.3625C70.0572 32.0335 69.4301 31.8197 68.7796 31.7333C68.1291 31.647 67.4679 31.6898 66.8339 31.8593C66.2 32.0288 65.6057 32.3217 65.0851 32.7212C64.5645 33.1208 64.1278 33.619 63.8 34.1875L51.925 54.75C51.8259 54.9178 51.766 55.1058 51.75 55.3L51.25 63.675C51.2371 63.9065 51.2887 64.1369 51.3992 64.3407C51.5097 64.5444 51.6746 64.7135 51.8756 64.8289C52.0766 64.9443 52.3058 65.0016 52.5374 64.9943C52.7691 64.987 52.9942 64.9154 53.1875 64.7875L60.1875 60.175C60.3506 60.0685 60.484 59.9223 60.575 59.75L72.45 39.1875C72.7829 38.6196 72.9986 37.9908 73.0845 37.3381C73.1704 36.6855 73.1246 36.0222 72.95 35.3875ZM53.9 61.325L54.125 57.475L57.125 59.2L53.9 61.325ZM59.0375 57.425L54.7125 54.925L63.4625 39.7625L67.7875 42.2625L59.0375 57.425ZM70.2875 37.9375L69.0375 40.1L64.7125 37.6L65.9625 35.4375C66.2101 35.0109 66.5784 34.667 67.021 34.4492C67.4636 34.2314 67.9608 34.1494 68.4499 34.2136C68.939 34.2777 69.3982 34.4851 69.7696 34.8097C70.1411 35.1343 70.4083 35.5615 70.5375 36.0375C70.625 36.3549 70.648 36.6865 70.605 37.0129C70.5621 37.3392 70.4541 37.6537 70.2875 37.9375ZM17.5 55H20V57.5H17.5V55ZM22.5 55H35V57.5H22.5V55ZM17.5 60H35V62.5H17.5V60Z" fill="#1A75CF"/>
</svg>