<svg width="20" height="20" viewBox="0 0 20 20" fill="none" xmlns="http://www.w3.org/2000/svg">
<path d="M17.5 1.66675H2.49999C1.58333 1.66675 0.833328 2.41675 0.833328 3.33342V13.3334C0.833328 14.2501 1.58333 15.0001 2.49999 15.0001H8.33333V16.6668H6.66666C6.20642 16.6668 5.83333 17.0398 5.83333 17.5001C5.83333 17.9603 6.20642 18.3334 6.66666 18.3334H13.3333C13.7936 18.3334 14.1667 17.9603 14.1667 17.5001C14.1667 17.0398 13.7936 16.6668 13.3333 16.6668H11.6667V15.0001H17.5C18.4167 15.0001 19.1667 14.2501 19.1667 13.3334V3.33342C19.1667 2.41675 18.4167 1.66675 17.5 1.66675ZM17.5 13.3334H2.49999V3.33342H17.5V13.3334Z" fill="#333B48"/>
</svg>
