<svg xmlns="http://www.w3.org/2000/svg" width="80" height="80" viewBox="0 0 80 80" fill="none">
  <g clip-path="url(#clip0_8373_50735)">
    <path d="M61.325 32.3467C62.9102 31.3492 64.0445 29.8154 64.532 27.9964C65.0444 26.0839 64.7814 24.0862 63.7914 22.3715C61.7964 18.916 57.4203 17.6753 53.9195 19.5201L47.2625 7.98979C46.382 6.46479 44.9553 5.3726 43.2452 4.91432C41.5349 4.45604 39.753 4.68854 38.2283 5.56917C36.7033 6.44964 35.6111 7.87635 35.1528 9.58635C34.8075 10.8749 34.8548 12.2042 35.2756 13.4335C32.1136 21.402 25.4214 29.5284 16.3355 36.461C16.1935 36.3653 16.0368 36.2937 15.8716 36.2489C15.6734 36.1957 15.4667 36.1822 15.2632 36.209C15.0598 36.2357 14.8636 36.3023 14.6859 36.4049L6.19125 41.3095C3.33344 42.9595 1.28625 45.6345 0.426879 48.8417C-0.432496 52.0489 0.00281656 55.3892 1.65297 58.247C3.94704 62.2204 8.12297 64.4442 12.4116 64.4442C14.5136 64.4442 16.6428 63.9098 18.5903 62.7854L19.0766 62.5048L28.4447 74.7359C29.0919 75.5809 29.9942 76.0782 31.0548 76.1743C31.1753 76.1853 31.2945 76.1906 31.4127 76.1906C32.3342 76.1906 33.1813 75.8612 33.8802 75.2271L36.4602 72.886C37.8958 71.5831 38.093 69.4371 36.9188 67.8945L28.1102 56.3212C38.5727 51.9948 48.8611 50.2995 57.2766 51.5364C58.5514 52.9953 60.3877 53.796 62.2656 53.7959C63.4229 53.7962 64.5598 53.491 65.5614 52.9112C68.7195 51.0879 69.8055 47.0353 67.982 43.877L61.325 32.3467ZM61.085 23.934C61.6577 24.9259 61.8098 26.0814 61.5133 27.1876C61.242 28.2003 60.6238 29.0596 59.7605 29.6373L55.4836 22.2295C57.4891 21.2439 59.9514 21.9706 61.085 23.934ZM12.4064 61.3198C9.19907 61.3196 6.075 59.6562 4.35907 56.6845C3.12641 54.5495 2.80188 52.0515 3.44532 49.6506C4.0886 47.2496 5.6186 45.2485 7.7536 44.0159L14.8952 39.8926L24.1692 55.9559L17.0277 60.0792C15.6234 60.8925 14.0292 61.3204 12.4064 61.3198ZM34.36 70.5718L31.7802 72.9128C31.6438 73.0365 31.5186 73.0785 31.3359 73.0618C31.1525 73.0453 31.0375 72.9818 30.9255 72.8357L21.8058 60.929L25.8936 58.5689L34.432 69.7871C34.5211 69.9029 34.5632 70.0481 34.5498 70.1936C34.5365 70.3391 34.4687 70.4742 34.36 70.5718ZM26.4366 53.6326L18.0409 39.0909C26.7864 32.4557 33.4638 24.7071 37.1559 16.9385L55.1788 48.1551C46.6049 47.4682 36.5553 49.3765 26.4366 53.6326ZM63.9988 50.2046C62.3325 51.1668 60.1952 50.5935 59.2333 48.9279L38.5138 13.0406C37.552 11.3746 38.1248 9.23698 39.7906 8.27526C40.3158 7.97099 40.912 7.8108 41.5189 7.81089C41.8242 7.81089 42.1324 7.8512 42.4363 7.9326C43.3402 8.17479 44.0931 8.74995 44.5561 9.55214L65.2755 45.4393C66.2374 47.1053 65.6645 49.2429 63.9988 50.2046ZM65.698 21.2707C65.2664 20.5234 65.5225 19.5678 66.2699 19.1364L72.5423 15.5149C73.2897 15.0834 74.2453 15.3396 74.6767 16.0868C75.1083 16.8342 74.8522 17.7898 74.1048 18.2212L67.8324 21.8426C67.6547 21.9453 67.4585 22.0119 67.2551 22.0388C67.0516 22.0656 66.8449 22.0521 66.6467 21.9989C66.4484 21.9458 66.2626 21.8542 66.0999 21.7292C65.9371 21.6043 65.8005 21.4485 65.698 21.2707ZM58.4667 11.2074L62.2867 4.59089C62.7181 3.8437 63.6736 3.58729 64.4211 4.01901C65.1684 4.45042 65.4245 5.40604 64.993 6.15339L61.173 12.7699C61.0704 12.9477 60.9338 13.1035 60.7711 13.2284C60.6083 13.3534 60.4225 13.445 60.2243 13.4981C60.0261 13.5512 59.8193 13.5647 59.6159 13.5379C59.4124 13.5111 59.2163 13.4445 59.0386 13.3418C58.2911 12.9104 58.0352 11.9548 58.4667 11.2074ZM80 31.0026C80 31.8656 79.3003 32.5651 78.4375 32.5651H70.7975C69.9347 32.5651 69.235 31.8656 69.235 31.0026C69.235 30.1396 69.9347 29.4401 70.7975 29.4401H78.4375C79.3003 29.4401 80 30.1396 80 31.0026Z" fill="#1A75CF"/>
  </g>
  <defs>
    <clipPath id="clip0_8373_50735">
      <rect width="80" height="80" fill="white"/>
    </clipPath>
  </defs>
</svg>