<svg xmlns="http://www.w3.org/2000/svg" width="80" height="80" viewBox="0 0 80 80" fill="none">
  <path d="M25.3333 41.3225C22.3878 41.3225 20 43.7103 20 46.6558C20 49.6013 22.3878 51.9891 25.3333 51.9891C28.2787 51.9891 30.6666 49.6013 30.6666 46.6558C30.6666 43.7103 28.2789 41.3225 25.3333 41.3225ZM25.3333 49.3225C23.8605 49.3225 22.6666 48.1286 22.6666 46.6558C22.6666 45.183 23.8605 43.9891 25.3333 43.9891C26.8061 43.9891 28 45.183 28 46.6558C28 48.1286 26.8061 49.3225 25.3333 49.3225ZM54.6667 51.9891C57.6122 51.9891 60 49.6013 60 46.6558C60 43.7103 57.6122 41.3225 54.6667 41.3225C51.7213 41.3225 49.3334 43.7103 49.3334 46.6558C49.3334 49.6013 51.7211 51.9891 54.6667 51.9891ZM54.6667 43.9891C56.1395 43.9891 57.3334 45.183 57.3334 46.6558C57.3334 48.1286 56.1395 49.3225 54.6667 49.3225C53.1939 49.3225 52 48.1286 52 46.6558C52 45.183 53.1939 43.9891 54.6667 43.9891ZM40 59.9891C43.68 59.9847 46.6622 57.0025 46.6667 53.3224C46.6667 51.8495 45.4728 50.6556 44 50.6556H36C34.5272 50.6556 33.3333 51.8495 33.3333 53.3224C33.3378 57.0025 36.32 59.9847 40 59.9891ZM44 53.3225C44 55.5316 42.2092 57.3225 40 57.3225C37.7909 57.3225 36 55.5316 36 53.3225H44Z" fill="#1A75CF"/>
  <path d="M75.9814 37.8772C75.5519 18.3133 59.5692 2.67749 40.0006 2.67749C20.432 2.67749 4.44938 18.3133 4.02 37.8772C2.82708 38.3931 1.811 39.2466 1.09677 40.3325C0.382538 41.4183 0.00131526 42.6893 0 43.9891L0 49.3223C0.004375 53.0023 2.98656 55.9845 6.66672 55.9891H8.56141C11.0359 69.9772 21.7733 77.3225 40 77.3225C58.2267 77.3225 68.9641 69.9772 71.4386 55.9892H73.3333C77.0133 55.9848 79.9955 53.0026 80 49.3225V43.9891C79.9978 42.6897 79.6163 41.4193 78.9025 40.3336C78.1887 39.2479 77.1734 38.3942 75.9814 37.8772ZM40 5.32249C57.8855 5.33358 72.5777 19.4517 73.3014 37.3225H70.6014C69.8998 20.9219 56.3995 7.98687 39.9841 7.98687C23.5686 7.98687 10.0683 20.9219 9.36672 37.3225H6.7C7.43375 19.4567 22.1192 5.34452 40 5.32249ZM66.852 30.7011C61.0986 21.4298 50.9106 15.8478 40 15.9891C29.1128 15.8475 18.943 21.4055 13.1827 30.645C16.7309 18.7791 27.6531 10.6537 40.0381 10.6667C52.4233 10.6798 63.3286 18.8278 66.852 30.7011ZM6.66672 53.3225C4.45766 53.3225 2.66672 51.5316 2.66672 49.3225V43.9891C2.66672 41.78 4.45766 39.9891 6.66672 39.9891H9.18141C8.39218 43.0372 7.99517 46.1737 8 49.3223C8 50.7117 8.08531 52.033 8.21203 53.3223H6.66672V53.3225ZM40 74.6558C21.5467 74.6558 11.7333 66.9811 10.7627 51.8625L13.9533 53.6866C15.9092 60.5626 22.1845 65.3103 29.3333 65.3225H50.6666C59.5031 65.3225 66.6666 58.1591 66.6666 49.3225C66.6666 40.4859 59.5031 33.3225 50.6666 33.3225H29.3333C20.5006 33.332 13.3428 40.4898 13.3333 49.3225C13.3333 49.6492 13.3627 49.9666 13.3827 50.2878L10.68 48.7437C10.9559 31.5505 23.4667 18.6558 40 18.6558C56.7227 18.6558 69.3333 31.8398 69.3333 49.3225C69.3333 66.1317 59.4667 74.6558 40 74.6558ZM30.6667 57.3225H26.7494C26.0529 57.3205 25.369 57.1367 24.7653 56.7892L16.2667 51.9333C15.879 49.9996 15.9253 48.004 16.4023 46.0905C16.8793 44.1769 17.7752 42.3931 19.0253 40.8677C20.2753 39.3424 21.8484 38.1136 23.631 37.2699C25.4135 36.4263 27.3611 35.9888 29.3333 35.9892H50.6666C58.0303 35.9892 63.9998 41.9587 63.9998 49.3225C63.9998 56.6862 58.0303 62.6558 50.6666 62.6558H29.3333C26.9643 62.6537 24.6387 62.0205 22.5957 60.8214C20.5526 59.6223 18.866 57.9004 17.7092 55.8331L23.4425 59.1105C24.4497 59.6856 25.5894 59.9884 26.7492 59.9891H30.6666C31.0202 59.9891 31.3593 59.8486 31.6093 59.5985C31.8594 59.3485 31.9998 59.0094 31.9998 58.6558C31.9999 58.4807 31.9654 58.3073 31.8985 58.1455C31.8315 57.9838 31.7333 57.8368 31.6095 57.713C31.4857 57.5892 31.3387 57.4909 31.1769 57.4239C31.0152 57.3569 30.8418 57.3225 30.6667 57.3225ZM77.3333 49.3225C77.3333 51.5316 75.5423 53.3225 73.3333 53.3225H71.788C71.9147 52.0331 72 50.7119 72 49.3225C72.0048 46.1738 71.6078 43.0374 70.8186 39.9892H73.3333C75.5423 39.9892 77.3333 41.7802 77.3333 43.9892V49.3225Z" fill="#1A75CF"/>
  <path d="M44.0003 27.9891H36.0003C35.6467 27.9891 35.3075 28.1296 35.0575 28.3796C34.8075 28.6296 34.667 28.9688 34.667 29.3224C34.667 29.676 34.8075 30.0151 35.0575 30.2652C35.3075 30.5152 35.6467 30.6557 36.0003 30.6557H44.0003C44.3539 30.6557 44.693 30.5152 44.943 30.2652C45.1931 30.0151 45.3336 29.676 45.3336 29.3224C45.3336 28.9688 45.1931 28.6296 44.943 28.3796C44.693 28.1296 44.3539 27.9891 44.0003 27.9891ZM38.667 26.6558H41.3337C41.6873 26.6558 42.0264 26.5153 42.2765 26.2653C42.5265 26.0153 42.667 25.6761 42.667 25.3225C42.667 24.9689 42.5265 24.6298 42.2765 24.3798C42.0264 24.1297 41.6873 23.9893 41.3337 23.9893H38.667C38.3134 23.9893 37.9743 24.1297 37.7242 24.3798C37.4742 24.6298 37.3337 24.9689 37.3337 25.3225C37.3337 25.6761 37.4742 26.0153 37.7242 26.2653C37.9743 26.5153 38.3134 26.6558 38.667 26.6558Z" fill="#1A75CF"/>
</svg>