<svg xmlns="http://www.w3.org/2000/svg" width="80" height="80" viewBox="0 0 80 80" fill="none">
  <g clip-path="url(#clip0_8375_43682)">
    <path d="M13.3331 63.3331C9.65641 63.3331 6.66687 60.3436 6.66687 56.6669C6.66687 52.9902 9.65641 50 13.3331 50C17.0098 50 20 52.9902 20 56.6669C20 60.3436 17.0098 63.3331 13.3331 63.3331ZM13.3331 53.3331C11.4947 53.3331 10 54.8284 10 56.6669C10 58.5053 11.4947 60 13.3331 60C15.1716 60 16.6669 58.5053 16.6669 56.6669C16.6669 54.8284 15.1716 53.3331 13.3331 53.3331ZM21.6669 80H1.66688C0.746563 80 0 79.2547 0 78.3331V75C0 72.7753 0.866719 70.6836 2.44016 69.1083C4.01484 67.5348 6.10844 66.6669 8.33313 66.6669H18.3331C20.5603 66.6669 22.6531 67.5348 24.2267 69.1083C24.8767 69.762 24.8767 70.8148 24.2248 71.4667C23.5736 72.1167 22.5183 72.1148 21.8683 71.4648C20.9253 70.52 19.6698 70 18.3331 70H8.33313C6.99828 70 5.74344 70.5219 4.79859 71.4648C3.85328 72.4102 3.33313 73.6652 3.33313 75V76.6669H21.6669C22.5867 76.6669 23.3331 77.4116 23.3331 78.3331C23.3331 79.2547 22.5867 80 21.6669 80ZM40 63.3331C36.3233 63.3331 33.3331 60.3436 33.3331 56.6669C33.3331 52.9902 36.3233 50 40 50C43.6767 50 46.6669 52.9902 46.6669 56.6669C46.6669 60.3436 43.6767 63.3331 40 63.3331ZM40 53.3331C38.1616 53.3331 36.6669 54.8284 36.6669 56.6669C36.6669 58.5053 38.1616 60 40 60C41.8384 60 43.3331 58.5053 43.3331 56.6669C43.3331 54.8284 41.8384 53.3331 40 53.3331ZM51.6669 80H28.3331C27.4133 80 26.6669 79.2547 26.6669 78.3331V75C26.6669 72.7753 27.5336 70.6836 29.1064 69.1083C30.6817 67.5348 32.7752 66.6669 35 66.6669H45C47.2266 66.6669 49.32 67.5348 50.8936 69.1083C52.4652 70.6817 53.3331 72.7753 53.3331 75V78.3331C53.3334 78.552 53.2904 78.7689 53.2068 78.9712C53.1232 79.1735 53.0004 79.3573 52.8457 79.5121C52.6909 79.6669 52.5071 79.7897 52.3049 79.8734C52.1026 79.9572 51.8858 80.0002 51.6669 80ZM30 76.6669H50V75C50 73.6652 49.4781 72.4084 48.5352 71.4648C47.5914 70.52 46.3367 70 45 70H35C33.6652 70 32.4103 70.5219 31.4648 71.4648C30.52 72.4102 30 73.6652 30 75V76.6669ZM66.6669 63.3331C62.9902 63.3331 60 60.3436 60 56.6669C60 52.9902 62.9902 50 66.6669 50C70.3436 50 73.3331 52.9902 73.3331 56.6669C73.3331 60.3436 70.3436 63.3331 66.6669 63.3331ZM66.6669 53.3331C64.8284 53.3331 63.3331 54.8284 63.3331 56.6669C63.3331 58.5053 64.8284 60 66.6669 60C68.5053 60 70 58.5053 70 56.6669C70 54.8284 68.5053 53.3331 66.6669 53.3331ZM78.3331 80H58.3331C58.1142 80.0002 57.8974 79.9572 57.6951 79.8734C57.4929 79.7897 57.3091 79.6669 57.1543 79.5121C56.9996 79.3573 56.8768 79.1735 56.7932 78.9712C56.7096 78.7689 56.6666 78.552 56.6669 78.3331C56.6666 78.1143 56.7096 77.8975 56.7933 77.6952C56.8769 77.493 56.9996 77.3092 57.1544 77.1544C57.3092 76.9996 57.493 76.8769 57.6952 76.7933C57.8975 76.7096 58.1142 76.6666 58.3331 76.6669H76.6669V75C76.6669 73.6652 76.145 72.4084 75.2014 71.4648C74.2584 70.52 73.0036 70 71.6669 70H61.6669C60.3314 70 59.0747 70.5219 58.1317 71.4648C57.9771 71.6198 57.7935 71.7428 57.5913 71.8266C57.3891 71.9105 57.1723 71.9537 56.9534 71.9537C56.7345 71.9537 56.5178 71.9105 56.3156 71.8266C56.1134 71.7428 55.9298 71.6198 55.7752 71.4648C55.6202 71.3102 55.4972 71.1266 55.4134 70.9244C55.3295 70.7222 55.2863 70.5055 55.2863 70.2866C55.2863 70.0677 55.3295 69.8509 55.4134 69.6487C55.4972 69.4465 55.6202 69.2629 55.7752 69.1083C57.3486 67.5348 59.4416 66.6669 61.6669 66.6669H71.6669C73.8934 66.6669 75.9869 67.5348 77.5598 69.1083C79.1312 70.6817 80 72.7753 80 75V78.3331C80.0002 78.5521 79.9572 78.7689 79.8735 78.9712C79.7897 79.1735 79.667 79.3573 79.5121 79.5121C79.3573 79.667 79.1735 79.7897 78.9712 79.8735C78.7689 79.9572 78.5521 80.0002 78.3331 80ZM55 33.3331H51.6669V30C51.6669 26.3233 48.6767 23.3331 45 23.3331H35C31.3233 23.3331 28.3331 26.3233 28.3331 30V33.3331H25V30C25 24.4848 29.4848 20 35 20H45C50.5152 20 55 24.4848 55 30V33.3331ZM40 16.6669C35.4053 16.6669 31.6669 12.9284 31.6669 8.33313C31.6669 3.73844 35.4053 0 40 0C44.5947 0 48.3331 3.73844 48.3331 8.33313C48.3331 12.9284 44.5947 16.6669 40 16.6669ZM40 3.33313C37.243 3.33313 35 5.57688 35 8.33313C35 11.0902 37.243 13.3331 40 13.3331C42.757 13.3331 45 11.0902 45 8.33313C45 5.57688 42.757 3.33313 40 3.33313Z" fill="#1A75CF"/>
    <path d="M54.5116 47.8448L52.155 45.4883L58.333 39.3102V35H21.6668V39.3103L27.8447 45.4883L25.4882 47.8448L18.8213 41.1786C18.6664 41.0239 18.5435 40.8402 18.4597 40.638C18.3759 40.4357 18.3329 40.2189 18.333 40V33.3331C18.333 32.4133 19.08 31.6669 19.9999 31.6669H59.9999C60.9214 31.6669 61.6668 32.4133 61.6668 33.3331V40C61.6668 40.4419 61.4916 40.8667 61.1785 41.1786L54.5116 47.8448Z" fill="#1A75CF"/>
    <path d="M26.6669 53.3331C25.7466 53.3331 25 52.5884 25 51.6669V40C25 39.0802 25.7464 38.3331 26.6669 38.3331C27.5867 38.3331 28.3331 39.0802 28.3331 40V51.6669C28.3331 52.5884 27.5867 53.3331 26.6669 53.3331ZM53.3331 53.3331C53.1142 53.3334 52.8975 53.2904 52.6952 53.2067C52.493 53.1231 52.3092 53.0004 52.1544 52.8456C51.9996 52.6908 51.8769 52.507 51.7933 52.3048C51.7096 52.1025 51.6666 51.8858 51.6669 51.6669V40C51.6669 39.0802 52.4116 38.3331 53.3331 38.3331C54.2547 38.3331 55 39.0802 55 40V51.6669C55 52.5884 54.2547 53.3331 53.3331 53.3331ZM46.6669 46.6669C46.4479 46.667 46.2311 46.624 46.0288 46.5403C45.8265 46.4566 45.6427 46.3338 45.4879 46.179C45.333 46.0242 45.2103 45.8404 45.1265 45.6381C45.0428 45.4358 44.9998 45.2189 45 45V41.6669H35V45C35 45.9216 34.2536 46.6669 33.3331 46.6669C32.4133 46.6669 31.6669 45.9216 31.6669 45V40C31.6669 39.0802 32.4133 38.3331 33.3331 38.3331H46.6669C47.5884 38.3331 48.3331 39.0802 48.3331 40V45C48.3334 45.2189 48.2904 45.4357 48.2068 45.638C48.1232 45.8403 48.0004 46.0242 47.8457 46.179C47.6909 46.3338 47.5071 46.4566 47.3049 46.5403C47.1026 46.624 46.8858 46.667 46.6669 46.6669ZM76.6669 46.6669H63.3331C62.4116 46.6669 61.6669 45.9216 61.6669 45C61.6669 44.0784 62.4116 43.3331 63.3331 43.3331H76.6669V3.33313H51.6669C50.7453 3.33313 50 2.58672 50 1.66688C50 0.746563 50.7453 0 51.6669 0H76.6669C78.5053 0 80 1.49469 80 3.33313V43.3331C80 45.1716 78.5053 46.6669 76.6669 46.6669ZM16.6669 46.6669H3.33313C1.49469 46.6669 0 45.1716 0 43.3331V3.33313C0 1.49469 1.49469 0 3.33313 0H28.3331C29.2534 0 30 0.746406 30 1.66688C30 2.58672 29.2536 3.33313 28.3331 3.33313H3.33313V43.3331H16.6669C17.5867 43.3331 18.3331 44.0784 18.3331 45C18.3331 45.9216 17.5867 46.6669 16.6669 46.6669Z" fill="#1A75CF"/>
  </g>
  <defs>
    <clipPath id="clip0_8375_43682">
      <rect width="80" height="80" fill="white"/>
    </clipPath>
  </defs>
</svg>