<svg xmlns="http://www.w3.org/2000/svg" width="80" height="80" viewBox="0 0 80 80" fill="none">
  <g clip-path="url(#clip0_8376_44025)">
    <path d="M42.6532 52.6627H63.9798C64.7795 52.6627 65.3126 52.1296 65.3126 51.3298V39.3336C65.3126 38.5338 64.7795 38.0007 63.9798 38.0007H42.6532C41.8534 38.0007 41.3203 38.5338 41.3203 39.3336V51.3298C41.3201 52.1294 41.8534 52.6627 42.6532 52.6627ZM43.986 40.6664H62.6469V49.9968H43.986V40.6664ZM6.66441 35.3347H17.3278C18.1275 35.3347 18.6607 34.8016 18.6607 34.0018C18.6607 33.2021 18.1275 32.6689 17.3278 32.6689H6.66441C5.86466 32.6689 5.33154 33.2021 5.33154 34.0018C5.33154 34.8016 5.86466 35.3347 6.66441 35.3347ZM22.6594 35.3347H33.3228C34.1225 35.3347 34.6557 34.8016 34.6557 34.0018C34.6557 33.2021 34.1225 32.6689 33.3228 32.6689H22.6594C21.8597 32.6689 21.3265 33.2021 21.3265 34.0018C21.3265 34.8016 21.8597 35.3347 22.6594 35.3347ZM6.66441 40.6664H23.9923C24.792 40.6664 25.3251 40.1333 25.3251 39.3336C25.3251 38.5338 24.792 38.0007 23.9923 38.0007H6.66441C5.86466 38.0007 5.33154 38.5338 5.33154 39.3336C5.33154 40.1333 5.86466 40.6664 6.66441 40.6664ZM33.3226 38.0006H29.3239C28.5241 38.0006 27.991 38.5337 27.991 39.3334C27.991 40.1332 28.5241 40.6663 29.3239 40.6663H33.3226C34.1224 40.6663 34.6555 40.1332 34.6555 39.3334C34.6555 38.5337 34.1224 38.0006 33.3226 38.0006Z" fill="#1A75CF"/>
    <path d="M78.7754 21.4725C77.8424 20.2729 76.6428 19.6064 75.1765 19.4731L71.9775 19.0854V12.6752C71.9775 9.74288 69.5783 7.34363 66.6459 7.34363H5.33161C2.39925 7.34347 0 9.74272 0 12.6752V55.3286C0 57.7362 1.61778 59.7832 3.81959 60.4392C3.75242 63.1356 5.79256 65.4764 8.53077 65.7254L70.1115 72.6565H70.6446C73.3105 72.6565 75.7098 70.6571 75.9763 68.1246L79.975 25.338C80.1082 24.005 79.7084 22.5387 78.7754 21.4725ZM2.66589 16.674H69.3118V24.6715H2.66589V16.674ZM5.33161 10.0094H66.6457C68.112 10.0094 69.3116 11.209 69.3116 12.6752V14.0081H2.66589V12.6752C2.66589 11.209 3.86551 10.0094 5.33161 10.0094ZM2.66589 55.3285V27.3372H69.3118V55.3285C69.3118 56.7947 68.1122 57.9944 66.6459 57.9944H5.33177C3.86551 57.9944 2.66589 56.7947 2.66589 55.3285ZM77.3091 24.8047L73.3104 67.5914C73.1771 69.0576 71.8441 70.1239 70.378 69.9906L8.93049 63.0595C7.59763 62.9263 6.66448 61.8599 6.53124 60.6602H66.6457C69.5781 60.6602 71.9773 58.261 71.9773 55.3286V21.6057L75.0431 21.8724C75.7096 21.8724 76.376 22.2722 76.7758 22.8054C77.1759 23.3385 77.4425 24.1382 77.3091 24.8047Z" fill="#1A75CF"/>
  </g>
  <defs>
    <clipPath id="clip0_8376_44025">
      <rect width="80" height="80" fill="white"/>
    </clipPath>
  </defs>
</svg>