<svg xmlns="http://www.w3.org/2000/svg" width="28" height="28" viewBox="0 0 28 28" fill="none">
  <g clip-path="url(#clip0_8654_41994)">
    <path d="M26.719 16.8327L26.712 16.8245L25.0717 15.3183C25.1706 14.4422 25.1706 13.5578 25.0717 12.6817L26.719 11.1673C27.4027 10.5245 27.559 9.50483 27.0947 8.67767L25.1592 5.32933C24.9291 4.93044 24.5698 4.62208 24.1405 4.45532C23.7113 4.28855 23.238 4.27339 22.799 4.41233L20.6733 5.082C19.9704 4.54918 19.2048 4.10448 18.3937 3.75783L17.9013 1.57267C17.7994 1.12794 17.5502 0.730679 17.1943 0.445241C16.8383 0.159803 16.3964 0.00291557 15.9402 0L12.0598 0C11.1277 0 10.3028 0.6615 10.0987 1.57267L9.60635 3.759C8.79563 4.10595 8.03012 4.55021 7.32668 5.082L5.19868 4.41117C4.29101 4.12883 3.29935 4.51383 2.84435 5.32117L0.898347 8.687C0.675677 9.08563 0.593059 9.54739 0.663696 9.9985C0.734334 10.4496 0.954149 10.864 1.28801 11.1755L2.92835 12.6817C2.82908 13.5577 2.82869 14.4422 2.92718 15.3183L1.27985 16.8327C0.947076 17.1454 0.729108 17.5609 0.660974 18.0125C0.592841 18.464 0.678498 18.9253 0.904181 19.3223L2.83968 22.6707C3.06988 23.0694 3.42928 23.3776 3.85844 23.5444C4.28761 23.7111 4.76083 23.7264 5.19985 23.5877L7.32551 22.918C8.02848 23.4508 8.79407 23.8955 9.60518 24.2422L10.0975 26.4273C10.1999 26.8721 10.4493 27.2692 10.8054 27.5546C11.1615 27.84 11.6035 27.9969 12.0598 28H15.9402C16.8723 28 17.6972 27.3385 17.9013 26.4273L18.3937 24.241C19.2049 23.8946 19.9705 23.4499 20.6733 22.9168L22.8013 23.5877C23.7113 23.8735 24.7007 23.4862 25.1557 22.6777L27.1017 19.3118C27.559 18.4952 27.4027 17.4755 26.719 16.8327Z" fill="#0051FF"/>
    <path d="M12.9278 18.6446C12.7018 18.5924 12.5058 18.4525 12.3829 18.2559C12.2599 18.0592 12.2201 17.8218 12.2721 17.5957L14.0221 10.0124C14.0805 9.79311 14.2217 9.60504 14.4161 9.4879C14.6104 9.37076 14.8427 9.33371 15.0639 9.38457C15.285 9.43543 15.4778 9.57022 15.6014 9.7605C15.7251 9.95078 15.77 10.1817 15.7266 10.4044L13.9766 17.9877C13.9511 18.0998 13.9036 18.2058 13.837 18.2995C13.7704 18.3932 13.686 18.4728 13.5885 18.5338C13.4911 18.5948 13.3826 18.636 13.2692 18.655C13.1558 18.674 13.0398 18.6705 12.9278 18.6446ZM17.7916 17.5001C17.6142 17.5009 17.4407 17.4477 17.2943 17.3475C17.1478 17.2474 17.0353 17.105 16.9718 16.9394C16.9082 16.7737 16.8965 16.5926 16.9384 16.4202C16.9802 16.2478 17.0736 16.0922 17.206 15.9741L19.4005 14.0001L17.206 12.0261C17.1205 11.9492 17.051 11.8562 17.0014 11.7524C16.9519 11.6486 16.9233 11.5361 16.9172 11.4213C16.9049 11.1894 16.9853 10.9621 17.1406 10.7894C17.2176 10.7039 17.3105 10.6344 17.4143 10.5849C17.5181 10.5353 17.6306 10.5067 17.7454 10.5006C17.9774 10.4884 18.2047 10.5688 18.3773 10.7241L21.294 13.3491C21.3849 13.4314 21.4575 13.5319 21.5072 13.644C21.5569 13.7561 21.5826 13.8774 21.5826 14.0001C21.5826 14.1227 21.5569 14.244 21.5072 14.3561C21.4575 14.4683 21.3849 14.5687 21.294 14.6511L18.3773 17.2761C18.2165 17.4206 18.0079 17.5004 17.7916 17.5001ZM10.2083 17.5001C9.9921 17.5004 9.78343 17.4206 9.62264 17.2761L6.70598 14.6511C6.61509 14.5687 6.54246 14.4683 6.49275 14.3561C6.44304 14.244 6.41736 14.1227 6.41736 14.0001C6.41736 13.8774 6.44304 13.7561 6.49275 13.644C6.54246 13.5319 6.61509 13.4314 6.70598 13.3491L9.62264 10.7241C9.79661 10.5778 10.0206 10.5049 10.2474 10.5207C10.4741 10.5365 10.6858 10.6397 10.8379 10.8087C10.9899 10.9777 11.0703 11.1991 11.0621 11.4263C11.0539 11.6534 10.9578 11.8685 10.794 12.0261L8.59948 14.0001L10.794 15.9741C10.9258 16.0924 11.0185 16.248 11.06 16.4202C11.1015 16.5925 11.0897 16.7732 11.0262 16.9386C10.9627 17.104 10.8506 17.2462 10.7045 17.3465C10.5585 17.4467 10.3855 17.5003 10.2083 17.5001Z" fill="#FAFAFA"/>
  </g>
  <defs>
    <clipPath id="clip0_8654_41994">
      <rect width="28" height="28" fill="white"/>
    </clipPath>
  </defs>
</svg>