<svg xmlns="http://www.w3.org/2000/svg" width="28" height="28" viewBox="0 0 28 28" fill="none">
  <path d="M8.43533 6.8096H7.35181V5.72607C7.35181 5.27304 6.98458 4.90576 6.53149 4.90576C6.07852 4.90576 5.71118 5.27304 5.71118 5.72607V7.62986C5.71124 8.08294 6.07852 8.45022 6.53155 8.45022H8.43533C8.88842 8.45022 9.25564 8.08294 9.25564 7.62991C9.25564 7.17688 8.88842 6.8096 8.43533 6.8096Z" fill="#0051FF"/>
  <path d="M6.53155 1.09839C2.93005 1.09839 0 4.02844 0 7.62994C0 11.2313 2.93005 14.1613 6.53155 14.1613C10.133 14.1613 13.0631 11.2313 13.0631 7.62988C13.0631 4.02844 10.133 1.09839 6.53155 1.09839ZM6.53155 12.5208C3.83463 12.5207 1.64062 10.3267 1.64062 7.62994C1.64062 4.93308 3.83463 2.73901 6.53155 2.73901C9.22841 2.73901 11.4225 4.93308 11.4225 7.62994C11.4225 10.3267 9.22846 12.5208 6.53155 12.5208Z" fill="#0051FF"/>
  <path d="M27.9158 15.1773C27.9147 15.1752 27.9145 15.1729 27.9134 15.1708L25.2775 9.89892C25.2094 9.76266 25.1046 9.64806 24.9751 9.56797C24.8455 9.48788 24.6961 9.44545 24.5438 9.44545H18.335V7.62988C18.335 7.17685 17.9677 6.80957 17.5147 6.80957H14.6627C14.6897 7.07945 14.7037 7.353 14.7037 7.62988C14.7037 12.1359 11.0377 15.8019 6.53155 15.8019C3.86482 15.8019 1.49259 14.5179 0 12.5358V23.4455C0 23.8985 0.367281 24.2658 0.820312 24.2658H4.49236C4.86172 25.7767 6.22634 26.9016 7.84946 26.9016C9.4727 26.9016 10.8373 25.7767 11.2066 24.2658H16.7935C17.1628 25.7767 18.5274 26.9016 20.1505 26.9016C21.7737 26.9016 23.1383 25.7767 23.5076 24.2658H27.1797C27.6328 24.2658 28 23.8985 28 23.4455V15.5376C28 15.4081 27.9693 15.2862 27.9158 15.1773ZM7.84946 25.261C6.8483 25.261 6.03389 24.4465 6.03389 23.4454C6.03389 22.4443 6.84835 21.6298 7.84946 21.6298C8.85057 21.6298 9.66514 22.4443 9.66514 23.4454C9.66514 24.4465 8.85063 25.261 7.84946 25.261ZM20.1505 25.261C19.1494 25.261 18.335 24.4465 18.335 23.4454C18.335 22.4443 19.1494 21.6298 20.1505 21.6298C21.1516 21.6298 21.9661 22.4443 21.9661 23.4454C21.9661 24.4465 21.1516 25.261 20.1505 25.261ZM18.335 14.7173V11.086H24.0369L25.8525 14.7173H18.335Z" fill="#0051FF"/>
</svg>