<svg xmlns="http://www.w3.org/2000/svg" width="80" height="80" viewBox="0 0 80 80" fill="none">
  <path d="M61.6667 5H23.3333C18.7383 5 15 8.73833 15 13.3333V15C12.2433 15 10 17.2433 10 20C10 22.7567 12.2433 25 15 25V35C12.2433 35 10 37.2433 10 40C10 42.7567 12.2433 45 15 45V55C12.2433 55 10 57.2433 10 60C10 62.7567 12.2433 65 15 65V66.6667C15 71.2617 18.7383 75 23.3333 75H61.6667C66.2617 75 70 71.2617 70 66.6667V13.3333C70 8.73833 66.2617 5 61.6667 5ZM13.3333 20C13.3333 19.0817 14.0817 18.3333 15 18.3333H18.3333C19.2517 18.3333 20 19.0817 20 20C20 20.9183 19.2517 21.6667 18.3333 21.6667H15C14.0817 21.6667 13.3333 20.9183 13.3333 20ZM13.3333 40C13.3333 39.0817 14.0817 38.3333 15 38.3333H18.3333C19.2517 38.3333 20 39.0817 20 40C20 40.9183 19.2517 41.6667 18.3333 41.6667H15C14.0817 41.6667 13.3333 40.9183 13.3333 40ZM13.3333 60C13.3333 59.0817 14.0817 58.3333 15 58.3333H18.3333C19.2517 58.3333 20 59.0817 20 60C20 60.9183 19.2517 61.6667 18.3333 61.6667H15C14.0817 61.6667 13.3333 60.9183 13.3333 60ZM66.6667 66.6667C66.6667 69.4233 64.4233 71.6667 61.6667 71.6667H23.3333C20.5767 71.6667 18.3333 69.4233 18.3333 66.6667V65C21.09 65 23.3333 62.7567 23.3333 60C23.3333 57.2433 21.09 55 18.3333 55V45C21.09 45 23.3333 42.7567 23.3333 40C23.3333 37.2433 21.09 35 18.3333 35V25C21.09 25 23.3333 22.7567 23.3333 20C23.3333 17.2433 21.09 15 18.3333 15V13.3333C18.3333 10.5767 20.5767 8.33333 23.3333 8.33333H61.6667C64.4233 8.33333 66.6667 10.5767 66.6667 13.3333V66.6667Z" fill="#1A75CF"/>
  <path d="M59.7315 46.3301L53.8632 43.4767C53.1942 43.1547 52.4394 43.0566 51.7104 43.1967C50.9813 43.3369 50.3167 43.708 49.8148 44.2551L47.9032 46.3601C46.9748 46.1351 44.8898 45.3117 41.8715 42.2951C38.8298 39.2534 38.0182 37.1584 37.7982 36.2717L39.9115 34.3517C40.4587 33.8503 40.8298 33.186 40.97 32.4571C41.1102 31.7283 41.012 30.9737 40.6898 30.3051L37.8348 24.4367C37.5057 23.7646 36.9669 23.2178 36.2998 22.8787C35.6327 22.5396 34.8735 22.4266 34.1365 22.5567C30.6782 23.1717 28.2415 24.9234 27.2748 27.4867C25.4965 32.1984 27.3365 40.5884 35.4582 48.7084C41.7382 54.9884 48.1765 57.5134 52.9532 57.5134C54.3532 57.5134 55.6115 57.2967 56.6798 56.8917C59.2448 55.9251 60.9948 53.4884 61.6098 50.0284C61.739 49.2917 61.6256 48.5331 61.2866 47.8664C60.9475 47.1998 60.4012 46.6612 59.7298 46.3317L59.7315 46.3301ZM55.5048 53.7717C52.5098 54.9034 45.3265 53.8601 37.8165 46.3501C30.3065 38.8417 29.2632 31.6584 30.3948 28.6617C31.1182 26.7451 33.4165 26.0684 34.8382 25.8934L37.6698 31.8834L34.9398 34.3634C34.6431 34.6337 34.4532 35.0016 34.4048 35.4001C34.3315 36.0184 34.2315 39.3684 39.5148 44.6501C44.7982 49.9317 48.1498 49.8351 48.7648 49.7601C49.1632 49.7117 49.5315 49.5217 49.8015 49.2251L52.4032 46.4734L58.3298 49.4434C58.0965 50.7501 57.4215 53.0484 55.5032 53.7717H55.5048Z" fill="#1A75CF"/>
</svg>