<svg xmlns="http://www.w3.org/2000/svg" width="80" height="80" viewBox="0 0 80 80" fill="none">
  <path d="M40 45C35.175 45 31.25 49.4875 31.25 55C31.25 60.5125 35.175 65 40 65C44.825 65 48.75 60.5125 48.75 55C48.75 49.4875 44.825 45 40 45ZM40 62.5C36.55 62.5 33.75 59.1375 33.75 55C33.75 50.8625 36.55 47.5 40 47.5C43.45 47.5 46.25 50.8625 46.25 55C46.25 59.1375 43.45 62.5 40 62.5Z" fill="#1A75CF"/>
  <path d="M70.9375 35.425L60.9375 18.0875C60.1087 16.652 58.7436 15.6046 57.1425 15.1756C55.5414 14.7466 53.8355 14.9712 52.4 15.8C51.825 16.1375 53.8125 17.05 35.5875 6.57496C34.1535 5.74515 32.4487 5.51866 30.8478 5.94525C29.2469 6.37185 27.8809 7.41662 27.05 8.84996C10.2875 37.9 12.2625 35 11.25 35C9.5924 35 8.00269 35.6584 6.83058 36.8305C5.65848 38.0026 5 39.5924 5 41.25V68.75C5 70.4076 5.65848 71.9973 6.83058 73.1694C8.00269 74.3415 9.5924 75 11.25 75H68.75C70.4076 75 71.9973 74.3415 73.1694 73.1694C74.3415 71.9973 75 70.4076 75 68.75V41.25C74.994 39.9815 74.6021 38.7448 73.8765 37.7044C73.1508 36.6639 72.1258 35.8689 70.9375 35.425ZM58.75 19.3375L67.8 35H64.925L59.1125 24.925C59.0308 24.7817 58.9216 24.6561 58.7912 24.5552C58.6608 24.4543 58.5117 24.3803 58.3525 24.3373C58.1933 24.2943 58.0272 24.2832 57.8638 24.3047C57.7003 24.3262 57.5427 24.3798 57.4 24.4625C56.9733 24.709 56.5021 24.8689 56.0135 24.9332C55.525 24.9975 55.0285 24.9649 54.5525 24.8372C54.0765 24.7095 53.6304 24.4892 53.2396 24.189C52.8488 23.8888 52.521 23.5145 52.275 23.0875C52.1933 22.9442 52.0841 22.8186 51.9537 22.7177C51.8233 22.6168 51.6742 22.5428 51.515 22.4998C51.3558 22.4568 51.1897 22.4457 51.0262 22.4672C50.8628 22.4887 50.7052 22.5423 50.5625 22.625L29.1375 35H24.1375L53.6375 17.975C54.4967 17.48 55.5169 17.3455 56.475 17.6009C57.4331 17.8562 58.2511 18.4806 58.75 19.3375ZM50.825 25.3625C51.6386 26.2837 52.7057 26.9447 53.893 27.2626C55.0803 27.5805 56.3349 27.5414 57.5 27.15L62.0375 35H34.1375L50.825 25.3625ZM21.35 33.75L30.4875 17.925C31.6521 18.3122 32.9049 18.348 34.0897 18.0279C35.2745 17.7078 36.3389 17.046 37.15 16.125L44.5 20.375L21.35 33.75ZM29.225 10.1125C29.7239 9.25559 30.5419 8.63119 31.5 8.37586C32.4581 8.12052 33.4783 8.25503 34.3375 8.74996L49.5 17.5L47 18.95L37.425 13.4125C37.138 13.2495 36.7982 13.2067 36.4797 13.2933C36.1612 13.38 35.8899 13.589 35.725 13.875C35.479 14.3036 35.1506 14.6794 34.7589 14.9807C34.3671 15.2821 33.9196 15.503 33.4422 15.6307C32.9647 15.7585 32.4667 15.7907 31.9768 15.7253C31.4869 15.66 31.0148 15.4984 30.5875 15.25C30.4448 15.1673 30.2872 15.1137 30.1238 15.0922C29.9603 15.0707 29.7942 15.0818 29.635 15.1248C29.4758 15.1678 29.3267 15.2418 29.1963 15.3427C29.0659 15.4436 28.9567 15.5692 28.875 15.7125L17.725 35H14.8375L29.225 10.1125ZM72.5 68.75C72.5 69.7445 72.1049 70.6983 71.4016 71.4016C70.6984 72.1049 69.7446 72.5 68.75 72.5H11.25C10.2554 72.5 9.30161 72.1049 8.59835 71.4016C7.89509 70.6983 7.5 69.7445 7.5 68.75V41.25C7.5 40.2554 7.89509 39.3016 8.59835 38.5983C9.30161 37.895 10.2554 37.5 11.25 37.5H68.75C69.7446 37.5 70.6984 37.895 71.4016 38.5983C72.1049 39.3016 72.5 40.2554 72.5 41.25V68.75Z" fill="#1A75CF"/>
  <path d="M68.75 45C67.7554 45 66.8016 44.6049 66.0984 43.9016C65.3951 43.1984 65 42.2446 65 41.25C65 40.9185 64.8683 40.6005 64.6339 40.3661C64.3995 40.1317 64.0815 40 63.75 40H16.25C15.9185 40 15.6005 40.1317 15.3661 40.3661C15.1317 40.6005 15 40.9185 15 41.25C15 42.2446 14.6049 43.1984 13.9017 43.9016C13.1984 44.6049 12.2446 45 11.25 45C10.9185 45 10.6005 45.1317 10.3661 45.3661C10.1317 45.6005 10 45.9185 10 46.25V63.75C10 64.0815 10.1317 64.3995 10.3661 64.6339C10.6005 64.8683 10.9185 65 11.25 65C12.2446 65 13.1984 65.3951 13.9017 66.0984C14.6049 66.8016 15 67.7554 15 68.75C15 69.0815 15.1317 69.3995 15.3661 69.6339C15.6005 69.8683 15.9185 70 16.25 70H63.75C64.0815 70 64.3995 69.8683 64.6339 69.6339C64.8683 69.3995 65 69.0815 65 68.75C65 67.7554 65.3951 66.8016 66.0984 66.0984C66.8016 65.3951 67.7554 65 68.75 65C69.0815 65 69.3995 64.8683 69.6339 64.6339C69.8683 64.3995 70 64.0815 70 63.75V46.25C70 45.9185 69.8683 45.6005 69.6339 45.3661C69.3995 45.1317 69.0815 45 68.75 45ZM67.5 62.625C66.2989 62.87 65.1963 63.4627 64.3295 64.3295C63.4627 65.1963 62.87 66.2989 62.625 67.5H17.375C17.13 66.2989 16.5373 65.1963 15.6705 64.3295C14.8037 63.4627 13.7011 62.87 12.5 62.625V47.375C13.7011 47.13 14.8037 46.5373 15.6705 45.6705C16.5373 44.8037 17.13 43.7011 17.375 42.5H62.625C62.87 43.7011 63.4627 44.8037 64.3295 45.6705C65.1963 46.5373 66.2989 47.13 67.5 47.375V62.625Z" fill="#1A75CF"/>
</svg>