<svg xmlns="http://www.w3.org/2000/svg" width="28" height="28" viewBox="0 0 28 28" fill="none">
  <g clip-path="url(#clip0_8642_49240)">
    <path d="M26.944 8.34689L21.4752 9.98746C21.3063 10.0381 21.1581 10.142 21.0528 10.2835C20.9475 10.425 20.8906 10.5967 20.8906 10.7732V21.4521C20.3376 21.0972 19.681 20.8904 18.9766 20.8904C17.0165 20.8904 15.4219 22.485 15.4219 24.4451C15.4219 26.4051 17.0165 27.9998 18.9766 27.9998C20.9366 27.9998 22.5312 26.4051 22.5312 24.4451V16.8429C24.0754 16.3037 25.4022 15.3303 26.3846 14.0098C27.4414 12.5894 28 10.9029 28 9.13258C28 8.58308 27.4703 8.189 26.944 8.34689ZM21.6016 4.92165H22.4219V5.74196C22.4219 6.19499 22.7892 6.56227 23.2422 6.56227C23.6952 6.56227 24.0625 6.19499 24.0625 5.74196V4.92165H24.8828C25.3358 4.92165 25.7031 4.55436 25.7031 4.10133C25.7031 3.6483 25.3358 3.28102 24.8828 3.28102H24.0625V2.46071C24.0625 2.00768 23.6952 1.64039 23.2422 1.64039C22.7892 1.64039 22.4219 2.00768 22.4219 2.46071V3.28102H21.6016C21.1485 3.28102 20.7812 3.6483 20.7812 4.10133C20.7812 4.55436 21.1485 4.92165 21.6016 4.92165ZM10.1172 22.4216H9.29688V21.6013C9.29688 21.1483 8.92959 20.781 8.47656 20.781C8.02353 20.781 7.65625 21.1483 7.65625 21.6013V22.4216H6.83594C6.38291 22.4216 6.01562 22.7889 6.01562 23.242C6.01562 23.695 6.38291 24.0623 6.83594 24.0623H7.65625V24.8826C7.65625 25.3356 8.02353 25.7029 8.47656 25.7029C8.92959 25.7029 9.29688 25.3356 9.29688 24.8826V24.0623H10.1172C10.5702 24.0623 10.9375 23.695 10.9375 23.242C10.9375 22.7889 10.5702 22.4216 10.1172 22.4216ZM18.0469 14.492V0.82041C18.0469 0.293989 17.5581 -0.096152 17.0448 0.0204965L5.01353 2.75487C4.83219 2.79608 4.67023 2.89769 4.55421 3.04303C4.43819 3.18837 4.375 3.36882 4.375 3.55479V14.5486C3.95202 14.3313 3.48331 14.2182 3.00781 14.2185C1.3493 14.2185 0 15.5678 0 17.2263C0 18.8848 1.3493 20.2341 3.00781 20.2341C4.66632 20.2341 6.01562 18.8848 6.01562 17.2263V8.2899L16.4062 5.92839V11.8142C15.9833 11.5969 15.5146 11.4838 15.0391 11.4841C13.3806 11.4841 12.0312 12.8334 12.0312 14.492C12.0312 16.1505 13.3806 17.4998 15.0391 17.4998C16.6976 17.4998 18.0469 16.1505 18.0469 14.492Z" fill="#0051FF"/>
  </g>
  <defs>
    <clipPath id="clip0_8642_49240">
      <rect width="28" height="28" fill="white"/>
    </clipPath>
  </defs>
</svg>