<svg xmlns="http://www.w3.org/2000/svg" width="80" height="80" viewBox="0 0 80 80" fill="none">
  <path d="M77.5 71.25H76.25V67.5C76.25 67.1685 76.1183 66.8505 75.8839 66.6161C75.6495 66.3817 75.3315 66.25 75 66.25H73.75V48.7175C74.5815 48.0949 75.2442 47.2742 75.6778 46.3302C76.1113 45.3862 76.302 44.3488 76.2324 43.3123C76.1629 42.2759 75.8353 41.2732 75.2795 40.3956C74.7237 39.518 73.9573 38.7933 73.05 38.2873C72.1428 37.7814 71.1234 37.5103 70.0847 37.4987C69.0459 37.4871 68.0208 37.7354 67.1024 38.221C66.1841 38.7066 65.4017 39.414 64.8265 40.279C64.2513 41.144 63.9014 42.1391 63.8088 43.1737L62.5887 44.3937C56.5977 50.3844 48.4723 53.7499 40 53.7499C31.5277 53.7499 23.4023 50.3844 17.4112 44.3937L16.1912 43.1737C16.099 42.1386 15.7494 41.1429 15.1742 40.2774C14.599 39.4118 13.8165 38.7038 12.8979 38.2178C11.9793 37.7319 10.9537 37.4833 9.91453 37.4948C8.87534 37.5062 7.85552 37.7774 6.94786 38.2835C6.0402 38.7897 5.27352 39.5148 4.71758 40.3928C4.16164 41.2709 3.83409 42.274 3.76474 43.311C3.69538 44.3479 3.88643 45.3857 4.32048 46.33C4.75454 47.2742 5.41783 48.095 6.25 48.7175V66.25H5C4.66848 66.25 4.35054 66.3817 4.11612 66.6161C3.8817 66.8505 3.75 67.1685 3.75 67.5V71.25H2.5C2.16848 71.25 1.85054 71.3817 1.61612 71.6161C1.3817 71.8505 1.25 72.1685 1.25 72.5V77.5C1.25 77.8315 1.3817 78.1495 1.61612 78.3839C1.85054 78.6183 2.16848 78.75 2.5 78.75H77.5C77.8315 78.75 78.1495 78.6183 78.3839 78.3839C78.6183 78.1495 78.75 77.8315 78.75 77.5V72.5C78.75 72.1685 78.6183 71.8505 78.3839 71.6161C78.1495 71.3817 77.8315 71.25 77.5 71.25ZM66.25 71.25V68.75H73.75V71.25H66.25ZM15 66.25H13.75V50.5175L15.6438 52.4112C22.1034 58.8709 30.8646 62.4999 40 62.4999C49.1354 62.4999 57.8966 58.8709 64.3563 52.4112L66.25 50.5175V66.25H65C64.6685 66.25 64.3505 66.3817 64.1161 66.6161C63.8817 66.8505 63.75 67.1685 63.75 67.5V71.25H16.25V67.5C16.25 67.1685 16.1183 66.8505 15.8839 66.6161C15.6495 66.3817 15.3315 66.25 15 66.25ZM71.25 66.25H68.75V49.875C69.5748 50.0434 70.4252 50.0434 71.25 49.875V66.25ZM70 40C70.7417 40 71.4667 40.2199 72.0834 40.632C72.7001 41.044 73.1807 41.6297 73.4645 42.3149C73.7484 43.0002 73.8226 43.7542 73.6779 44.4816C73.5332 45.209 73.1761 45.8772 72.6516 46.4016C72.1272 46.9261 71.459 47.2832 70.7316 47.4279C70.0042 47.5726 69.2502 47.4984 68.5649 47.2145C67.8797 46.9307 67.294 46.4501 66.882 45.8334C66.4699 45.2167 66.25 44.4917 66.25 43.75C66.25 42.7554 66.6451 41.8016 67.3484 41.0983C68.0516 40.3951 69.0054 40 70 40ZM40 56.25C44.5059 56.2621 48.9697 55.384 53.1353 53.6662C57.3009 51.9484 61.0862 49.4247 64.2738 46.24C64.5431 46.8412 64.9059 47.396 65.3487 47.8837L62.5887 50.6437C56.5977 56.6344 48.4723 59.9999 40 59.9999C31.5277 59.9999 23.4023 56.6344 17.4112 50.6437L14.6512 47.8837C15.0941 47.396 15.4569 46.8412 15.7263 46.24C18.9138 49.4247 22.6991 51.9484 26.8647 53.6662C31.0303 55.384 35.4941 56.2621 40 56.25ZM10 40C10.7417 40 11.4667 40.2199 12.0834 40.632C12.7001 41.044 13.1807 41.6297 13.4645 42.3149C13.7484 43.0002 13.8226 43.7542 13.6779 44.4816C13.5333 45.209 13.1761 45.8772 12.6517 46.4016C12.1272 46.9261 11.459 47.2832 10.7316 47.4279C10.0042 47.5726 9.25016 47.4984 8.56494 47.2145C7.87971 46.9307 7.29404 46.4501 6.88199 45.8334C6.46993 45.2167 6.25 44.4917 6.25 43.75C6.25 42.7554 6.64509 41.8016 7.34835 41.0983C8.05161 40.3951 9.00544 40 10 40ZM8.75 49.875C9.57483 50.0434 10.4252 50.0434 11.25 49.875V66.25H8.75V49.875ZM6.25 68.75H13.75V71.25H6.25V68.75ZM76.25 76.25H3.75V73.75H76.25V76.25Z" fill="#1A75CF"/>
  <path d="M38.9788 45.7187C39.0942 45.8822 39.2472 46.0157 39.4249 46.1077C39.6027 46.1998 39.7999 46.2479 40 46.2479C40.2002 46.2479 40.3974 46.1998 40.5752 46.1077C40.7529 46.0157 40.9059 45.8822 41.0213 45.7187L44.5325 40.7324C49.3141 39.6199 53.5195 36.7875 56.3477 32.7747C59.176 28.7618 60.4295 23.849 59.8695 18.9717C59.3096 14.0944 56.9753 9.5934 53.3113 6.32594C49.6472 3.05848 44.9094 1.25281 40 1.25281C35.0907 1.25281 30.3529 3.05848 26.6888 6.32594C23.0248 9.5934 20.6905 14.0944 20.1306 18.9717C19.5706 23.849 20.8241 28.7618 23.6524 32.7747C26.4806 36.7875 30.6859 39.6199 35.4675 40.7324L38.9788 45.7187ZM22.5 21.2499C22.5006 17.9406 23.4396 14.6992 25.2079 11.9019C26.9763 9.10455 29.5016 6.866 32.4909 5.44596C35.4801 4.02591 38.8107 3.48257 42.0963 3.87899C45.3819 4.2754 48.4877 5.59532 51.0534 7.6856C53.6191 9.77587 55.5395 12.5508 56.5918 15.6884C57.6441 18.8261 57.7851 22.1978 56.9986 25.4123C56.212 28.6269 54.5301 31.5525 52.1479 33.8498C49.7657 36.147 46.781 37.7218 43.54 38.3912C43.2288 38.4539 42.9531 38.6326 42.7688 38.8912L40 42.8287L37.2313 38.8962C37.047 38.6376 36.7713 38.4589 36.46 38.3962C32.5199 37.5721 28.9827 35.4188 26.4412 32.2972C23.8997 29.1756 22.5082 25.2753 22.5 21.2499Z" fill="#1A75CF"/>
  <path d="M45.5754 31.0937C45.7807 31.2073 46.0138 31.2608 46.2481 31.2481C46.4824 31.2354 46.7084 31.157 46.9002 31.0219C47.092 30.8868 47.242 30.7004 47.3328 30.4841C47.4237 30.2678 47.4519 30.0303 47.4141 29.7987L46.3354 23.185L50.8954 18.5125C51.0559 18.348 51.168 18.1424 51.2193 17.9183C51.2705 17.6943 51.2591 17.4604 51.1861 17.2425C51.1131 17.0245 50.9814 16.8309 50.8055 16.683C50.6296 16.535 50.4164 16.4384 50.1891 16.4037L43.9391 15.4487L41.1316 9.46872C41.0307 9.25398 40.8707 9.0724 40.6704 8.94521C40.4701 8.81803 40.2377 8.75049 40.0004 8.75049C39.7631 8.75049 39.5307 8.81803 39.3304 8.94521C39.1301 9.0724 38.9701 9.25398 38.8691 9.46872L36.0616 15.4487L29.8116 16.4037C29.5844 16.4384 29.3711 16.535 29.1953 16.683C29.0194 16.8309 28.8877 17.0245 28.8147 17.2425C28.7417 17.4604 28.7302 17.6943 28.7815 17.9183C28.8328 18.1424 28.9449 18.348 29.1054 18.5125L33.6654 23.185L32.5866 29.7987C32.5489 30.0303 32.577 30.2678 32.6679 30.4841C32.7588 30.7004 32.9088 30.8868 33.1006 31.0219C33.2924 31.157 33.5184 31.2354 33.7527 31.2481C33.987 31.2608 34.2201 31.2073 34.4254 31.0937L40.0004 28.0125L45.5754 31.0937ZM35.4679 27.66L36.2341 22.965C36.2656 22.772 36.2513 22.5743 36.1925 22.3878C36.1337 22.2013 36.0319 22.0312 35.8954 21.8912L32.5941 18.5075L37.0941 17.82C37.297 17.7889 37.4892 17.7083 37.6536 17.5853C37.8179 17.4624 37.9495 17.3008 38.0366 17.115L40.0004 12.9425L41.9591 17.115C42.0463 17.3008 42.1778 17.4624 42.3422 17.5853C42.5066 17.7083 42.6987 17.7889 42.9016 17.82L47.4016 18.5075L44.1004 21.8912C43.9639 22.0312 43.8621 22.2013 43.8033 22.3878C43.7444 22.5743 43.7302 22.772 43.7616 22.965L44.5279 27.66L40.6004 25.49C40.4152 25.3875 40.207 25.3338 39.9954 25.3338C39.7838 25.3338 39.5756 25.3875 39.3904 25.49L35.4679 27.66Z" fill="#1A75CF"/>
</svg>