<svg xmlns="http://www.w3.org/2000/svg" width="80" height="80" viewBox="0 0 80 80" fill="none">
  <path d="M66.8561 2.40002H13.1521C12.7278 2.40002 12.3208 2.5686 12.0207 2.86865C11.7207 3.16871 11.5521 3.57568 11.5521 4.00002V24.8H8.57611C7.12697 24.8 5.73718 25.3757 4.71248 26.4004C3.68778 27.4251 3.11211 28.8149 3.11211 30.264V72.104C3.10895 72.824 3.2479 73.5374 3.52097 74.2036C3.79405 74.8697 4.1959 75.4754 4.70349 75.986C5.21108 76.4966 5.81443 76.9019 6.47897 77.1789C7.14351 77.4559 7.85617 77.599 8.57611 77.6H71.4241C72.874 77.5979 74.2638 77.0205 75.2882 75.9945C76.3127 74.9685 76.8881 73.5779 76.8881 72.128V37.88C76.8881 36.4301 76.3127 35.0395 75.2882 34.0136C74.2638 32.9876 72.874 32.4101 71.4241 32.408H68.4561V4.00002C68.4561 3.57568 68.2875 3.16871 67.9875 2.86865C67.6874 2.5686 67.2805 2.40002 66.8561 2.40002ZM14.7521 5.60002H65.2561V32.408H35.6561C35.3293 32.4104 35.0111 32.3034 34.7521 32.104L26.3121 25.768C25.4973 25.1482 24.5038 24.8087 23.4801 24.8H14.7521V5.60002ZM73.6881 37.88V72.128C73.6881 72.7292 73.4499 73.3059 73.0255 73.7317C72.6011 74.1576 72.0253 74.3979 71.4241 74.4H8.57611C7.97493 74.3979 7.39909 74.1576 6.97474 73.7317C6.55038 73.3059 6.31211 72.7292 6.31211 72.128V30.288C6.30894 29.9887 6.36516 29.6917 6.47751 29.4143C6.58987 29.1368 6.75613 28.8844 6.96668 28.6716C7.17723 28.4588 7.42788 28.2899 7.70414 28.1746C7.9804 28.0594 8.27677 28 8.57611 28H23.4801C23.8054 27.9989 24.1225 28.1027 24.3841 28.296L32.8001 34.664C33.6198 35.2717 34.6118 35.6024 35.6321 35.608H71.4241C72.0253 35.6101 72.6011 35.8504 73.0255 36.2763C73.4499 36.7022 73.6881 37.2788 73.6881 37.88Z" fill="#1A75CF"/>
  <path d="M60.1601 13.7121C60.1601 13.2877 59.9915 12.8807 59.6915 12.5807C59.3914 12.2806 58.9844 12.1121 58.5601 12.1121H21.4401C21.0157 12.1121 20.6088 12.2806 20.3087 12.5807C20.0087 12.8807 19.8401 13.2877 19.8401 13.7121C19.8401 14.1364 20.0087 14.5434 20.3087 14.8434C20.6088 15.1435 21.0157 15.3121 21.4401 15.3121H58.5601C58.9844 15.3121 59.3914 15.1435 59.6915 14.8434C59.9915 14.5434 60.1601 14.1364 60.1601 13.7121ZM58.5601 21.8081H36.6721C36.2477 21.8081 35.8408 21.9766 35.5407 22.2767C35.2407 22.5767 35.0721 22.9837 35.0721 23.4081C35.0721 23.8324 35.2407 24.2394 35.5407 24.5394C35.8408 24.8395 36.2477 25.0081 36.6721 25.0081H58.5601C58.9844 25.0081 59.3914 24.8395 59.6915 24.5394C59.9915 24.2394 60.1601 23.8324 60.1601 23.4081C60.1601 22.9837 59.9915 22.5767 59.6915 22.2767C59.3914 21.9766 58.9844 21.8081 58.5601 21.8081Z" fill="#1A75CF"/>
</svg>