<svg width="26" height="26" viewBox="0 0 26 26" fill="none" xmlns="http://www.w3.org/2000/svg">
<g clip-path="url(#clip0_8136_36568)">
<path d="M13 0.325195C5.99945 0.325195 0.324951 5.99969 0.324951 13.0002C0.324951 20.0007 5.99945 25.6752 13 25.6752C20.0005 25.6752 25.6749 20.0007 25.6749 13.0002C25.662 6.0062 19.9939 0.338195 13 0.325195Z" fill="#04153C"/>
<path d="M13 0.325195C5.99945 0.325195 0.324951 5.99969 0.324951 13.0002C0.324951 20.0007 5.99945 25.6752 13 25.6752C20.0005 25.6752 25.6749 20.0007 25.6749 13.0002C25.662 6.0062 19.9939 0.338195 13 0.325195ZM19.0333 10.7824L11.8911 17.6074C11.7065 17.7803 11.4621 17.8765 11.2086 17.8752C10.9577 17.8791 10.7172 17.7829 10.5378 17.6074L6.96665 14.1949C6.69755 13.9596 6.57795 13.5956 6.65725 13.2459C6.73525 12.8962 6.99915 12.618 7.34365 12.5218C7.68815 12.4243 8.05865 12.5244 8.30825 12.7805L11.2086 15.5469L17.6917 9.368C18.0856 9.02479 18.681 9.0534 19.041 9.43169C19.3999 9.8113 19.3973 10.4067 19.0333 10.7824Z" fill="#FBCF15"/>
</g>
<defs>
<clipPath id="clip0_8136_36568">
<rect width="26" height="26" fill="white"/>
</clipPath>
</defs>
</svg>
