<svg xmlns="http://www.w3.org/2000/svg" width="28" height="28" viewBox="0 0 28 28" fill="none">
  <g clip-path="url(#clip0_8642_49243)">
    <path d="M24.1574 0.0633672C23.8514 -0.065586 23.4989 0.00649214 23.2634 0.241211L22.5841 0.920539C21.9645 1.53911 21.3553 1.64154 20.5622 1.64154C17.6876 1.64154 15.2186 3.30912 13.9999 5.71297C12.784 3.31448 10.4118 1.64154 7.15644 1.64154C6.49877 1.64154 5.88119 1.38516 5.41574 0.920539L4.73652 0.241156C4.62189 0.126284 4.47572 0.0480525 4.31656 0.0163892C4.15739 -0.0152742 3.99241 0.00105772 3.84255 0.0633125C3.69261 0.125314 3.56446 0.230428 3.47433 0.365335C3.38419 0.500243 3.33614 0.658871 3.33625 0.821117V2.46169C3.33625 6.53268 6.64785 9.84428 10.7188 9.84428H13.1797V13.2625C10.6159 13.3962 8.25796 14.1591 8.25796 15.6957C8.25796 17.3955 11.1417 18.1566 14 18.1566C16.8582 18.1566 19.742 17.3955 19.742 15.6957C19.742 14.1592 17.384 13.3962 14.8203 13.2626V9.84428H17.2812C21.3522 9.84428 24.6638 6.53268 24.6638 2.46169V0.821117C24.6638 0.658879 24.6158 0.500268 24.5256 0.365374C24.4355 0.230481 24.3073 0.125374 24.1574 0.0633672ZM13.9999 23.0782C11.4928 23.0782 9.53513 22.5879 8.25791 21.7377V22.258C8.25791 23.9578 11.1417 24.7188 13.9999 24.7188C16.8582 24.7188 19.742 23.9578 19.742 22.258V21.7377C18.4648 22.5879 16.5071 23.0782 13.9999 23.0782ZM13.9999 26.3594C11.4928 26.3594 9.53513 25.8691 8.25791 25.0188C8.25791 25.2925 8.22706 25.6376 8.33009 25.87C8.69076 27.3307 11.3409 27.9999 13.9999 27.9999C15.9718 27.9999 19.742 27.5002 19.742 25.539V25.0187C18.4648 25.8691 16.5071 26.3594 13.9999 26.3594ZM13.9999 19.797C11.4928 19.797 9.53513 19.3067 8.25791 18.4565V18.9768C8.25791 20.6766 11.1417 21.4376 13.9999 21.4376C16.8582 21.4376 19.742 20.6766 19.742 18.9768V18.4565C18.4648 19.3068 16.5071 19.797 13.9999 19.797ZM5.79708 14.8753C2.93894 14.8753 0.000366211 15.6363 0.000366211 17.3362C0.000366211 19.036 2.93883 19.7971 5.79708 19.7971C6.07166 19.7971 6.34494 19.7836 6.61739 19.7694V14.9031C6.34494 14.8888 6.07166 14.8753 5.79708 14.8753ZM22.2028 14.8754C21.9282 14.8753 21.655 14.8889 21.3825 14.9031V19.7694C21.655 19.7836 21.9282 19.7971 22.2028 19.7971C25.061 19.7971 27.9995 19.036 27.9995 17.3362C27.9995 15.6363 25.061 14.8754 22.2028 14.8754ZM5.79708 21.4376C3.28993 21.4376 1.27759 20.9473 0.000366211 20.097V20.6173C0.000366211 22.3172 2.93883 23.0782 5.79708 23.0782C6.07166 23.0782 6.34494 23.0647 6.61739 23.0505V21.3961C6.34264 21.4089 6.08665 21.4376 5.79708 21.4376ZM5.79708 24.7188C3.28993 24.7188 1.27759 24.2285 0.000366211 23.3782V23.8985C0.000366211 25.5983 2.93889 26.3594 5.79708 26.3594C6.07166 26.3594 6.34494 26.3459 6.61739 26.3316V24.6772C6.34264 24.6901 6.08665 24.7188 5.79708 24.7188ZM22.2028 21.4376C21.9133 21.4376 21.6573 21.409 21.3825 21.396V23.0504C21.655 23.0647 21.9282 23.0782 22.2028 23.0782C25.061 23.0782 27.9995 22.3171 27.9995 20.6173V20.097C26.7223 20.9474 24.7099 21.4376 22.2028 21.4376ZM22.2028 24.7188C21.9133 24.7188 21.6573 24.6902 21.3825 24.6772V26.3316C21.655 26.3459 21.9282 26.3594 22.2028 26.3594C25.061 26.3594 27.9995 25.5983 27.9995 23.8985V23.3782C26.7223 24.2285 24.7099 24.7188 22.2028 24.7188Z" fill="#0051FF"/>
  </g>
  <defs>
    <clipPath id="clip0_8642_49243">
      <rect width="28" height="28" fill="white"/>
    </clipPath>
  </defs>
</svg>