<svg width="40" height="40" viewBox="0 0 40 40" fill="none" xmlns="http://www.w3.org/2000/svg">
<g clip-path="url(#clip0_7928_33459)">
<path d="M13.6743 26.4077C13.9798 26.7126 14.4745 26.7126 14.779 26.4077C15.0846 26.1022 15.0846 25.6078 14.779 25.3029C14.4745 24.9975 13.9798 24.9975 13.6743 25.3029C13.3698 25.6078 13.3698 26.1022 13.6743 26.4077ZM16.9898 24.1976L24.4657 16.7169C24.7706 16.4116 24.7706 15.9169 24.4654 15.6118C24.1599 15.3069 23.6655 15.3072 23.3604 15.6121L15.8844 23.0929C15.5793 23.398 15.5796 23.8927 15.8847 24.1979C16.1899 24.5028 16.6846 24.5028 16.9898 24.1976Z" fill="black"/>
<path d="M12.3063 21.1466L5.57735 27.8755C5.4998 27.9534 5.43951 28.0467 5.4004 28.1494C5.39915 28.1519 5.39798 28.1544 5.39704 28.1568C4.77571 29.8371 2.89063 34.9341 2.14907 36.9391C2.09731 37.0794 2.08685 37.2315 2.11893 37.3775C2.15101 37.5235 2.22427 37.6572 2.33004 37.7628C2.43582 37.8684 2.56965 37.9415 2.71569 37.9734C2.86173 38.0052 3.01384 37.9945 3.15399 37.9426L11.9259 34.6845C12.031 34.6449 12.1265 34.5837 12.2064 34.5048L18.9346 27.7765L30.9308 39.8408C31.0034 39.9138 31.0898 39.9717 31.1849 40.0113C31.28 40.0508 31.382 40.0712 31.485 40.0712H31.4856C31.5887 40.0711 31.6907 40.0505 31.7858 40.0108C31.8809 39.9711 31.9672 39.913 32.0398 39.8398L39.7736 32.034C40.0763 31.7286 40.0751 31.236 39.7711 30.9317L27.7756 18.9356L36.6083 10.1029C38.4405 8.2728 38.4418 5.3046 36.6086 3.47358C34.7772 1.64132 31.8118 1.641 29.9792 3.47358L21.1456 12.3072C20.6927 11.8543 9.82821 0.98944 9.14548 0.307096C8.99951 0.160972 8.8016 0.0786399 8.59506 0.0781274C8.38853 0.0776149 8.19021 0.158964 8.04352 0.304362L0.231648 8.03717C0.158378 8.10974 0.100194 8.19609 0.0604471 8.29124C0.0207005 8.3864 0.000177726 8.48848 6.15313e-05 8.5916C-5.46631e-05 8.69472 0.020238 8.79685 0.0597701 8.89209C0.0993022 8.98734 0.157292 9.07382 0.230398 9.14655L12.3063 21.1466ZM21.698 13.9646L21.6983 13.9643V13.964L26.5702 9.09249L30.9894 13.512L26.1184 18.3826C26.1184 18.383 26.1184 18.383 26.1181 18.383V18.3833L11.6541 32.8473L7.23477 28.4278L21.698 13.9646ZM29.3326 6.32999L33.7518 10.7495L32.0945 12.407L27.6749 7.98772L29.3326 6.32999ZM7.01844 34.8405L5.24657 33.0686L6.43954 29.8426L10.2408 33.6439L7.01844 34.8405ZM4.65001 34.6818L5.40704 35.4389L4.20469 35.8854L4.65001 34.6818ZM28.483 21.8528L25.1355 25.1997C24.8303 25.5045 24.8303 25.9992 25.1355 26.3044C25.4404 26.6096 25.9351 26.6096 26.2402 26.3047L29.5877 22.9578L31.9538 25.3239L29.7113 27.566C29.4064 27.8712 29.4064 28.3658 29.7113 28.671C30.0165 28.9762 30.5112 28.9759 30.8163 28.671L33.0588 26.4286L35.4252 28.7952L32.078 32.1421C31.7727 32.4469 31.7727 32.9416 32.078 33.2468C32.3828 33.552 32.8775 33.552 33.1827 33.2468L36.5302 29.9003L38.1165 31.4869C31.5195 38.078 31.4841 38.1809 31.4841 38.1809L20.0397 26.6715L26.6709 20.0403L28.483 21.8528ZM35.5038 4.57858C36.7252 5.79842 36.7257 7.77686 35.5035 8.99788L34.8569 9.64452L30.4373 5.2253L31.0842 4.57835C32.3053 3.35702 34.2823 3.35608 35.5038 4.57858ZM10.3336 3.70491L6.98673 7.05085C6.68188 7.35569 6.68188 7.85038 6.98673 8.15553C7.29196 8.46077 7.78665 8.46077 8.0918 8.15592L11.4387 4.8096L13.8047 7.176L11.5629 9.41717C11.2577 9.72233 11.2577 10.217 11.5626 10.5223C11.8677 10.8271 12.3621 10.8274 12.6677 10.5223L14.9098 8.28069L17.1184 10.4896L13.772 13.8362C13.4672 14.1413 13.4672 14.636 13.772 14.9412C14.0773 15.246 14.572 15.2463 14.8771 14.9408L18.2234 11.5943L20.0409 13.4119L13.411 20.0419L1.89063 8.5935C1.89063 8.5935 1.99891 8.55811 8.5904 1.96147L10.3336 3.70491Z" fill="black"/>
</g>
<defs>
<clipPath id="clip0_7928_33459">
<rect width="40" height="40" fill="white"/>
</clipPath>
</defs>
</svg>
