<svg width="28" height="29" viewBox="0 0 28 29" fill="none" xmlns="http://www.w3.org/2000/svg">
<g id="Frame">
<g id="Group">
<path id="Vector" d="M24.2806 8.90192L14.2426 2.65325C14.0933 2.55992 13.9019 2.55992 13.7526 2.65325L3.71459 8.90192C3.57925 8.98592 3.49525 9.13525 3.49525 9.29858V11.1093C3.49525 11.3659 3.70525 11.5759 3.96192 11.5759H24.0333C24.2899 11.5759 24.4999 11.3659 24.4999 11.1093V9.29858C24.4999 9.13525 24.4159 8.98592 24.2806 8.90192ZM13.9999 9.84925C12.9313 9.84925 12.0633 8.98125 12.0633 7.91259C12.0633 6.84392 12.9313 5.97592 13.9999 5.97592C15.0686 5.97592 15.9366 6.84392 15.9366 7.91259C15.9366 8.98125 15.0686 9.84925 13.9999 9.84925ZM18.9139 12.5093H22.3673V19.6259H18.9139V12.5093ZM12.2733 12.5093H15.7266V19.6259H12.2733V12.5093ZM5.62792 12.5093H9.08125V19.6259H5.62792V12.5093ZM25.6666 23.2286V25.4499C25.6666 25.7066 25.4566 25.9166 25.1999 25.9166H2.79992C2.53859 25.9166 2.33325 25.7066 2.33325 25.4499V23.2286C2.33325 22.9719 2.53859 22.7619 2.79992 22.7619H3.91992V21.0259C3.91992 20.7693 4.12992 20.5593 4.38659 20.5593H23.6133C23.8699 20.5593 24.0799 20.7693 24.0799 21.0259V22.7619H25.1999C25.4566 22.7619 25.6666 22.9719 25.6666 23.2286Z" fill="#0051FF"/>
</g>
</g>
</svg>
