<svg width="41" height="40" viewBox="0 0 41 40" fill="none" xmlns="http://www.w3.org/2000/svg">
<path fill-rule="evenodd" clip-rule="evenodd" d="M6.66137 19.6439C6.63761 19.6662 6.61848 19.6929 6.6051 19.7226C6.59171 19.7523 6.58433 19.7843 6.58337 19.8169V25.3169C6.58337 26.2769 7.37337 27.0669 8.33337 27.0669H10.5004C10.6434 27.0669 10.7504 26.9599 10.7504 26.8169V19.8169C10.7491 19.751 10.7223 19.6881 10.6757 19.6415C10.6291 19.5949 10.5663 19.5682 10.5004 19.5669H6.83337C6.76812 19.5688 6.70628 19.5965 6.66137 19.6439ZM4.08337 19.8169C4.08731 19.0888 4.37831 18.3916 4.89318 17.8767C5.40806 17.3618 6.10524 17.0708 6.83337 17.0669H10.5004C11.2294 17.068 11.9283 17.358 12.4437 17.8735C12.9592 18.389 13.2493 19.0879 13.2504 19.8169V26.8169C13.2512 27.1783 13.1806 27.5362 13.0427 27.8702C12.9047 28.2042 12.7022 28.5077 12.4467 28.7632C12.1912 29.0187 11.8877 29.2213 11.5537 29.3592C11.2197 29.4971 10.8617 29.5677 10.5004 29.5669H8.33337C5.99337 29.5669 4.08337 27.6569 4.08337 25.3169V19.8169Z" fill="black"/>
<path fill-rule="evenodd" clip-rule="evenodd" d="M20.3334 6.23291C18.9651 6.23173 17.61 6.50036 16.3456 7.02345C15.0812 7.54653 13.9324 8.3138 12.9648 9.28134C11.9973 10.2489 11.23 11.3977 10.7069 12.6621C10.1838 13.9265 9.9152 15.2816 9.91638 16.6499V18.3329C9.91638 18.6644 9.78469 18.9824 9.55027 19.2168C9.31584 19.4512 8.9979 19.5829 8.66638 19.5829C8.33486 19.5829 8.01692 19.4512 7.7825 19.2168C7.54808 18.9824 7.41638 18.6644 7.41638 18.3329V16.6499C7.41638 9.50991 13.1934 3.73291 20.3334 3.73291C27.4734 3.73291 33.2504 9.50991 33.2504 16.6499V18.3169C33.2504 18.6484 33.1187 18.9664 32.8843 19.2008C32.6498 19.4352 32.3319 19.5669 32.0004 19.5669C31.6689 19.5669 31.3509 19.4352 31.1165 19.2008C30.8821 18.9664 30.7504 18.6484 30.7504 18.3169V16.6499C30.7504 10.8899 26.0934 6.23291 20.3334 6.23291ZM32.0794 27.0909C32.2404 27.1232 32.3935 27.1868 32.5299 27.2783C32.6663 27.3697 32.7834 27.4871 32.8744 27.6238C32.9654 27.7605 33.0286 27.9138 33.0603 28.075C33.0921 28.2361 33.0917 28.4019 33.0594 28.5629C32.1774 32.9519 28.3074 36.2499 23.6664 36.2499H22.0004C21.6689 36.2499 21.3509 36.1182 21.1165 35.8838C20.8821 35.6494 20.7504 35.3314 20.7504 34.9999C20.7504 34.6684 20.8821 34.3504 21.1165 34.116C21.3509 33.8816 21.6689 33.7499 22.0004 33.7499H23.6664C25.3013 33.7499 26.8859 33.1843 28.1512 32.149C29.4166 31.1137 30.2847 29.6725 30.6084 28.0699C30.6738 27.7451 30.8654 27.4595 31.1412 27.2759C31.4171 27.0924 31.7545 27.0258 32.0794 27.0909Z" fill="black"/>
<path fill-rule="evenodd" clip-rule="evenodd" d="M29.9944 19.6439C29.9706 19.6662 29.9515 19.6929 29.9381 19.7226C29.9247 19.7523 29.9173 19.7843 29.9164 19.8169V26.8169C29.9164 26.9519 30.0324 27.0669 30.1664 27.0669H32.2504C33.2604 27.0669 34.0834 26.2429 34.0834 25.2329V19.8169C34.0821 19.751 34.0554 19.6881 34.0087 19.6415C33.9621 19.5949 33.8993 19.5682 33.8334 19.5669H30.1664C30.1011 19.5688 30.0393 19.5965 29.9944 19.6439ZM27.4164 19.8169C27.4203 19.0888 27.7113 18.3916 28.2262 17.8767C28.7411 17.3618 29.4383 17.0708 30.1664 17.0669H33.8334C34.5624 17.068 35.2613 17.358 35.7768 17.8735C36.2923 18.389 36.5823 19.0879 36.5834 19.8169V25.2329C36.5826 26.3819 36.1259 27.4837 35.3135 28.2963C34.5011 29.1088 33.3994 29.5658 32.2504 29.5669H30.1664C29.4374 29.5658 28.7385 29.2758 28.223 28.7603C27.7075 28.2448 27.4174 27.5459 27.4164 26.8169V19.8169Z" fill="black"/>
</svg>
