<svg width="24" height="24" viewBox="0 0 24 24" fill="none" xmlns="http://www.w3.org/2000/svg">
<path fill-rule="evenodd" clip-rule="evenodd" d="M8.72732 14.3969C6.77218 13.266 5.45459 11.1512 5.45459 8.72728C5.45459 5.11232 8.38509 2.18182 12 2.18182C15.615 2.18182 18.5455 5.11232 18.5455 8.72728C18.5455 11.1512 17.2279 13.266 15.2728 14.3969V15.2727C15.2728 16.6283 14.1738 17.7273 12.8182 17.7273H11.1819C9.82625 17.7273 8.72732 16.6283 8.72732 15.2727V14.3969ZM12 3.81819C9.28883 3.81819 7.09095 6.01606 7.09095 8.72728C7.09095 10.6844 8.23614 12.3756 9.89657 13.1644C10.2143 13.3153 10.3899 13.6445 10.3607 13.9754C10.3627 13.9985 10.3637 14.0219 10.3637 14.0455V15.2727C10.3637 15.7246 10.73 16.0909 11.1819 16.0909H12.8182C13.2701 16.0909 13.6364 15.7246 13.6364 15.2727V14.0455C13.6364 14.0219 13.6374 13.9985 13.6394 13.9754C13.6102 13.6445 13.7858 13.3153 14.1035 13.1644C15.7639 12.3756 16.9091 10.6844 16.9091 8.72728C16.9091 6.01606 14.7113 3.81819 12 3.81819Z" fill="white"/>
<path d="M10.3636 19.3638C9.91172 19.3638 9.54541 19.7301 9.54541 20.182C9.54541 20.6338 9.91172 21.0001 10.3636 21.0001H13.6363C14.0882 21.0001 14.4545 20.6338 14.4545 20.182C14.4545 19.7301 14.0882 19.3638 13.6363 19.3638H10.3636Z" fill="white"/>
</svg>
