<svg xmlns="http://www.w3.org/2000/svg" width="80" height="80" viewBox="0 0 80 80" fill="none">
  <g clip-path="url(#clip0_8375_43634)">
    <path d="M75.3881 15.5348L65.0012 11.3379V5.33327C65.0012 2.39247 62.6087 0 59.6679 0H7.83522C4.89442 0 2.50195 2.39247 2.50195 5.33327V63.3325C2.50195 63.6862 2.64245 64.0252 2.89245 64.2754L18.2256 79.6085C18.4118 79.7941 18.6484 79.9208 18.9061 79.9728C19.0811 80.0078 17.3974 79.999 59.6679 79.999C62.6087 79.999 65.0012 77.6065 65.0012 74.6657V45.1124C65.0012 44.7588 64.8607 44.4197 64.6107 44.1696C64.3606 43.9196 64.0215 43.7791 63.6679 43.7791C63.3142 43.7791 62.9751 43.9196 62.7251 44.1696C62.475 44.4197 62.3345 44.7588 62.3345 45.1124V74.6657C62.3345 76.136 61.1382 77.3324 59.6679 77.3324H20.5017V66.5605C20.5017 64.0454 18.4556 61.9992 15.9403 61.9992H13.0448C12.6912 61.9992 12.3521 62.1397 12.102 62.3897C11.852 62.6398 11.7115 62.9789 11.7115 63.3325C11.7115 63.6862 11.852 64.0253 12.102 64.2753C12.3521 64.5254 12.6912 64.6659 13.0448 64.6659H15.9403C16.9851 64.6659 17.8351 65.5159 17.8351 66.5605V75.4467L5.16859 62.7802V5.33327C5.16859 3.86295 6.36491 2.66663 7.83522 2.66663H59.6679C61.1382 2.66663 62.3345 3.86295 62.3345 5.33327V10.2604L61.0601 9.74538C59.9537 9.29571 58.7156 9.29571 57.6093 9.74538L43.2811 15.5348C40.4682 16.6711 40.467 20.6631 43.2811 21.7997L46.0014 22.899V31.8086C46.0014 33.2812 46.8032 34.6289 48.0941 35.3256C55.0958 39.1042 63.5119 39.1177 70.5604 35.3319C71.1979 34.9903 71.7306 34.482 72.1017 33.8613C72.4729 33.2406 72.6686 32.5308 72.6679 31.8076V29.4168C72.6679 29.0632 72.5274 28.724 72.2774 28.474C72.0274 28.224 71.6882 28.0835 71.3346 28.0835C70.981 28.0835 70.6418 28.224 70.3918 28.474C70.1418 28.724 70.0013 29.0632 70.0013 29.4168V31.8076C70.0015 32.0487 69.9363 32.2853 69.8125 32.4922C69.6888 32.6992 69.5113 32.8686 69.2988 32.9826C62.9982 36.3664 55.5333 36.31 49.3605 32.9789C48.9334 32.7484 48.6682 32.3001 48.6682 31.8088C48.6682 21.2022 48.6829 21.9314 48.6397 21.7256C48.5948 21.5125 48.4984 21.3136 48.3589 21.1464C48.2195 20.9792 48.0411 20.8486 47.8396 20.7662C47.5494 20.6432 48.8569 21.1764 44.2801 19.3276C43.6881 19.0884 43.6818 18.2493 44.2803 18.0074L58.6084 12.218C59.0742 12.0289 59.5954 12.0289 60.0612 12.218L74.3894 18.0074C74.9877 18.2491 74.9819 19.0883 74.3894 19.3278L60.0612 25.1172C59.5954 25.3063 59.0742 25.3063 58.6084 25.1172L55.5431 23.8787C55.3808 23.813 55.2071 23.7799 55.032 23.7814C54.8569 23.7829 54.6838 23.8189 54.5226 23.8873C54.3614 23.9557 54.2153 24.0552 54.0926 24.1801C53.9699 24.3051 53.873 24.453 53.8075 24.6154C53.7419 24.7777 53.7089 24.9514 53.7104 25.1264C53.7119 25.3015 53.7479 25.4746 53.8163 25.6358C53.8847 25.7969 53.9842 25.9431 54.1091 26.0658C54.234 26.1885 54.3818 26.2854 54.5441 26.351L57.6094 27.5895C58.7158 28.0392 59.9539 28.0392 61.0602 27.5895L75.3882 21.8002C78.201 20.6634 78.202 16.6716 75.3881 15.5348Z" fill="#1A75CF"/>
    <path d="M16.2777 18.9426L21.361 13.8593C21.4848 13.7355 21.5831 13.5885 21.6501 13.4267C21.7171 13.265 21.7516 13.0916 21.7516 12.9165C21.7516 12.7414 21.7171 12.568 21.6501 12.4062C21.5831 12.2444 21.4848 12.0974 21.361 11.9736C21.1109 11.7237 20.7718 11.5833 20.4183 11.5833C20.0647 11.5833 19.7256 11.7237 19.4755 11.9736L15.3349 16.1143L13.9444 14.7236C13.6944 14.4736 13.3553 14.3332 13.0017 14.3332C12.6481 14.3332 12.309 14.4736 12.059 14.7236C11.9351 14.8474 11.8369 14.9944 11.7699 15.1562C11.7028 15.3179 11.6683 15.4913 11.6683 15.6664C11.6683 15.8415 11.7028 16.0149 11.7699 16.1767C11.8369 16.3385 11.9351 16.4855 12.059 16.6093L14.3923 18.9426C14.6423 19.1926 14.9814 19.333 15.335 19.333C15.6886 19.333 16.0277 19.1926 16.2777 18.9426ZM20.6682 30.3329C20.3146 30.3329 19.9754 30.4734 19.7254 30.7234C19.4753 30.9735 19.3349 31.3126 19.3349 31.6662C19.3349 33.1365 18.1385 34.3329 16.6682 34.3329C15.1979 34.3329 14.0016 33.1365 14.0016 31.6662C14.0016 30.1959 15.1979 28.9996 16.6682 28.9996C17.0218 28.9996 17.361 28.8591 17.611 28.6091C17.8611 28.359 18.0015 28.0199 18.0015 27.6663C18.0015 27.3127 17.8611 26.9735 17.611 26.7235C17.361 26.4734 17.0218 26.333 16.6682 26.333C13.7274 26.333 11.335 28.7254 11.335 31.6662C11.335 34.607 13.7274 36.9995 16.6682 36.9995C19.609 36.9995 22.0015 34.607 22.0015 31.6662C22.0015 31.3126 21.861 30.9735 21.611 30.7234C21.3609 30.4734 21.0218 30.3329 20.6682 30.3329ZM16.6682 50.9993C15.1979 50.9993 14.0016 49.803 14.0016 48.3327C14.0016 47.9791 13.8611 47.6399 13.6111 47.3899C13.361 47.1398 13.0219 46.9994 12.6683 46.9994C12.3147 46.9994 11.9755 47.1398 11.7255 47.3899C11.4754 47.6399 11.335 47.9791 11.335 48.3327C11.335 51.2735 13.7274 53.666 16.6682 53.666C19.609 53.666 22.0015 51.2735 22.0015 48.3327C22.0015 45.3919 19.609 42.9994 16.6682 42.9994C16.3146 42.9994 15.9755 43.1399 15.7254 43.3899C15.4754 43.64 15.3349 43.9791 15.3349 44.3327C15.3349 44.6864 15.4754 45.0255 15.7254 45.2755C15.9755 45.5256 16.3146 45.6661 16.6682 45.6661C18.1385 45.6661 19.3349 46.8624 19.3349 48.3327C19.3349 49.803 18.1387 50.9993 16.6682 50.9993ZM27.6681 19.3331H36.168C36.5216 19.3331 36.8607 19.1926 37.1108 18.9425C37.3608 18.6925 37.5013 18.3534 37.5013 17.9997C37.5013 17.6461 37.3608 17.307 37.1108 17.0569C36.8607 16.8069 36.5216 16.6664 36.168 16.6664H27.6681C27.3145 16.6664 26.9753 16.8069 26.7253 17.0569C26.4752 17.307 26.3348 17.6461 26.3348 17.9997C26.3348 18.3534 26.4752 18.6925 26.7253 18.9425C26.9753 19.1926 27.3145 19.3331 27.6681 19.3331ZM27.6681 33.303H38.8346C39.1882 33.303 39.5274 33.1626 39.7774 32.9125C40.0275 32.6625 40.1679 32.3233 40.1679 31.9697C40.1679 31.6161 40.0275 31.277 39.7774 31.0269C39.5274 30.7769 39.1882 30.6364 38.8346 30.6364H27.6681C27.3145 30.6364 26.9753 30.7769 26.7253 31.0269C26.4752 31.277 26.3348 31.6161 26.3348 31.9697C26.3348 32.3233 26.4752 32.6625 26.7253 32.9125C26.9753 33.1626 27.3145 33.303 27.6681 33.303ZM52.6356 63.3325C52.282 63.3325 51.9429 63.473 51.6928 63.723C51.4428 63.9731 51.3023 64.3122 51.3023 64.6658C51.3023 65.0194 51.4428 65.3586 51.6928 65.6086C51.9429 65.8587 52.282 65.9991 52.6356 65.9991H53.0011C53.3547 65.9991 53.6939 65.8587 53.9439 65.6086C54.1939 65.3586 54.3344 65.0194 54.3344 64.6658C54.3344 64.3122 54.1939 63.9731 53.9439 63.723C53.6939 63.473 53.3547 63.3325 53.0011 63.3325H52.6356ZM27.6681 65.9991H46.27C46.6236 65.9991 46.9628 65.8587 47.2128 65.6086C47.4629 65.3586 47.6033 65.0194 47.6033 64.6658C47.6033 64.3122 47.4629 63.9731 47.2128 63.723C46.9628 63.473 46.6236 63.3325 46.27 63.3325H27.6681C27.3145 63.3325 26.9753 63.473 26.7253 63.723C26.4752 63.9731 26.3348 64.3122 26.3348 64.6658C26.3348 65.0194 26.4752 65.3586 26.7253 65.6086C26.9753 65.8587 27.3145 65.9991 27.6681 65.9991ZM56.0011 48.3179C56.0011 47.9642 55.8606 47.6251 55.6105 47.3751C55.3605 47.125 55.0214 46.9845 54.6678 46.9845H38.8346C38.481 46.9845 38.1419 47.125 37.8918 47.3751C37.6418 47.6251 37.5013 47.9642 37.5013 48.3179C37.5013 48.6715 37.6418 49.0106 37.8918 49.2607C38.1419 49.5107 38.481 49.6512 38.8346 49.6512H54.6678C55.0214 49.6512 55.3605 49.5107 55.6105 49.2607C55.8606 49.0106 56.0011 48.6715 56.0011 48.3179ZM27.6681 49.6512H31.9907C32.3443 49.6512 32.6835 49.5107 32.9335 49.2607C33.1835 49.0106 33.324 48.6715 33.324 48.3179C33.324 47.9642 33.1835 47.6251 32.9335 47.3751C32.6835 47.125 32.3443 46.9845 31.9907 46.9845H27.6681C27.3145 46.9845 26.9753 47.125 26.7253 47.3751C26.4752 47.6251 26.3348 47.9642 26.3348 48.3179C26.3348 48.6715 26.4752 49.0106 26.7253 49.2607C26.9753 49.5107 27.3145 49.6512 27.6681 49.6512Z" fill="#1A75CF"/>
  </g>
  <defs>
    <clipPath id="clip0_8375_43634">
      <rect width="80" height="80" fill="white"/>
    </clipPath>
  </defs>
</svg>