<svg width="41" height="40" viewBox="0 0 41 40" fill="none" xmlns="http://www.w3.org/2000/svg">
<g clip-path="url(#clip0_7885_32597)">
<path d="M36.8966 3.77007C31.8698 -1.25673 23.6906 -1.25665 18.6638 3.77007C15.2305 7.20335 14.0383 12.2642 15.5243 16.8547L1.01005 31.3691C0.901192 31.4779 0.814842 31.6071 0.755928 31.7493C0.697013 31.8915 0.666689 32.0439 0.666687 32.1978V38.828C0.666687 39.4753 1.19145 40 1.83872 40H8.46887C8.77981 40 9.07778 39.8765 9.2977 39.6566L10.9555 37.9988C11.0805 37.8738 11.1756 37.7221 11.2337 37.5552C11.2918 37.3882 11.3113 37.2103 11.2909 37.0347L11.084 35.2548L13.5515 35.0222C13.8232 34.9966 14.0773 34.877 14.2703 34.6841C14.4632 34.4912 14.5828 34.237 14.6084 33.9654L14.8411 31.4976L16.6212 31.7044C16.7855 31.7235 16.9519 31.7077 17.1095 31.6579C17.2672 31.6081 17.4125 31.5255 17.536 31.4155C17.6595 31.3056 17.7583 31.1707 17.826 31.0199C17.8936 30.869 17.9286 30.7056 17.9286 30.5402V28.3576H20.0716C20.3801 28.3576 20.6761 28.2359 20.8956 28.0191L23.8075 25.1408C28.399 26.6291 33.4624 25.4372 36.8967 22.0028C41.9233 16.9761 41.9233 8.79679 36.8966 3.77007ZM35.2391 20.3454C32.2808 23.3036 27.8433 24.2269 23.9342 22.698C23.7231 22.6155 23.4925 22.5959 23.2705 22.6417C23.0485 22.6875 22.8445 22.7966 22.6833 22.956L19.5901 26.0135H16.7565C16.1093 26.0135 15.5845 26.5383 15.5845 27.1855V29.2241L13.922 29.0309C13.767 29.0128 13.6099 29.026 13.4601 29.0695C13.3102 29.1129 13.1705 29.1859 13.0492 29.2841C12.9279 29.3823 12.8275 29.5037 12.7537 29.6412C12.68 29.7788 12.6344 29.9296 12.6197 30.085L12.3656 32.7794L9.67138 33.0334C9.516 33.048 9.36511 33.0935 9.22757 33.1673C9.09002 33.241 8.96859 33.3415 8.87039 33.4628C8.77219 33.5841 8.6992 33.7238 8.6557 33.8737C8.6122 34.0235 8.59907 34.1806 8.61708 34.3356L8.89692 36.7422L7.98333 37.656H3.01067V32.6834L17.7058 17.9884C17.8669 17.8272 17.9775 17.6227 18.0242 17.3997C18.0709 17.1766 18.0516 16.9448 17.9686 16.7326C16.4395 12.8234 17.363 8.38608 20.3212 5.42773C24.4342 1.31491 31.1262 1.31491 35.239 5.42773C39.3518 9.54046 39.3518 16.2326 35.2391 20.3454Z" fill="#04153C"/>
<path d="M33.5815 7.08536C32.2105 5.71435 29.9798 5.71442 28.6089 7.08536C27.238 8.4563 27.238 10.687 28.6089 12.0579C29.9798 13.4289 32.2105 13.429 33.5815 12.0579C34.9524 10.687 34.9524 8.4563 33.5815 7.08536ZM31.924 10.4004C31.467 10.8574 30.7235 10.8575 30.2665 10.4004C29.8095 9.94349 29.8095 9.19997 30.2665 8.74294C30.7247 8.28481 31.4658 8.28481 31.924 8.74294C32.3821 9.20106 32.382 9.94231 31.924 10.4004Z" fill="#04153C"/>
</g>
<defs>
<clipPath id="clip0_7885_32597">
<rect width="40" height="40" fill="white" transform="translate(0.666687)"/>
</clipPath>
</defs>
</svg>
