<svg xmlns="http://www.w3.org/2000/svg" width="80" height="80" viewBox="0 0 80 80" fill="none">
  <g clip-path="url(#clip0_8378_44036)">
    <path d="M70.9629 23.5582C70.4223 23.0507 69.9384 22.6018 69.5038 22.1987C65.9731 18.9234 65.9731 18.9234 64.902 14.2279C64.7699 13.6499 64.6232 13.0064 64.4542 12.2845C63.6317 8.77338 60.6599 6.27963 57.0593 6.07948C56.3191 6.03838 55.6598 6.00542 55.0677 5.97604C50.2577 5.73651 50.2577 5.73651 46.4188 2.82807C45.8894 2.42619 45.3587 2.02592 44.8268 1.62729C41.9398 -0.533804 38.0604 -0.533804 35.1735 1.62729C34.6416 2.02589 34.1109 2.42615 33.5815 2.82807C29.7427 5.73651 29.7427 5.73651 24.9326 5.97604C24.3406 6.00542 23.6812 6.03838 22.941 6.07948C19.3404 6.27979 16.3687 8.77338 15.546 12.2845C15.377 13.0064 15.2302 13.6499 15.0984 14.2279C14.0273 18.9232 14.0273 18.9232 10.4965 22.1985C10.062 22.6018 9.57805 23.0507 9.03743 23.5581C6.40805 26.0259 5.7343 29.8464 7.36102 33.0646C7.69555 33.7262 7.99665 34.3137 8.26727 34.841C10.4648 39.1265 10.4648 39.1265 9.86555 43.9054C9.7918 44.4935 9.70977 45.1484 9.62165 45.8845C9.19368 49.4651 11.1334 52.8248 14.4484 54.2445C15.1298 54.5364 15.7381 54.7928 16.2841 55.0228C18.571 55.9865 19.679 56.4545 20.5737 57.2345L13.4173 72.6057C13.321 72.8129 13.2833 73.0424 13.3082 73.2694C13.3332 73.4965 13.4198 73.7123 13.5588 73.8936C13.6977 74.0749 13.8837 74.2146 14.0965 74.2977C14.3092 74.3808 14.5407 74.404 14.7657 74.3648L21.8971 73.1187L25.5341 79.3779C25.6489 79.5755 25.8156 79.7379 26.0161 79.8473C26.2167 79.9568 26.4434 80.0092 26.6716 79.9988C26.8999 79.9885 27.1209 79.9158 27.3107 79.7886C27.5005 79.6614 27.6518 79.4846 27.7482 79.2775L34.0487 65.7443C34.5363 65.5956 34.9849 65.4573 35.3984 65.3296C40.0001 63.9096 40.0004 63.9096 44.6021 65.3296C45.074 65.4753 45.5937 65.6354 46.1634 65.8087L52.4338 79.2775C52.5344 79.4933 52.6945 79.6759 52.8953 79.8038C53.096 79.9318 53.3292 79.9998 53.5673 79.9998C54.011 79.9998 54.4234 79.7639 54.6479 79.3779L58.2849 73.1187L65.4163 74.3648C65.6414 74.404 65.8728 74.3808 66.0856 74.2977C66.2984 74.2146 66.4843 74.0749 66.6233 73.8936C66.7622 73.7123 66.8489 73.4965 66.8738 73.2694C66.8988 73.0424 66.8611 72.8129 66.7648 72.6057L59.557 57.1242C60.4304 56.4084 61.539 55.9404 63.7162 55.0229C64.2624 54.7926 64.8707 54.5364 65.5521 54.2445C68.8671 52.8248 70.8068 49.4653 70.379 45.8845C70.291 45.1484 70.2088 44.4935 70.1349 43.9053C69.5356 39.1265 69.5356 39.1265 71.7332 34.841C72.0035 34.3135 72.3048 33.7262 72.6393 33.0646C74.266 29.8465 73.5923 26.026 70.9629 23.5582ZM26.4924 76.0514L23.6207 71.1096C23.4922 70.8888 23.2991 70.7125 23.0674 70.6047C22.8357 70.4968 22.5765 70.4625 22.3248 70.5064L16.6945 71.4901L22.3262 59.3937C22.6207 59.8339 22.9487 60.3412 23.3346 60.9389C23.6563 61.437 24.0145 61.9917 24.4202 62.6123C25.9299 64.9207 28.4177 66.2381 31.049 66.2639L26.4924 76.0514ZM57.857 70.5062C57.6052 70.4624 57.346 70.4967 57.1143 70.6045C56.8827 70.7124 56.6896 70.8886 56.561 71.1095L53.6893 76.0512L49.1299 66.2578C51.6943 66.1753 54.1045 64.8681 55.5798 62.6121C55.9856 61.9915 56.3437 61.437 56.6651 60.9392C57.0985 60.2678 57.4593 59.7096 57.7812 59.234L63.4871 71.4898L57.857 70.5062ZM70.4081 31.937C70.11 32.5257 69.8101 33.1135 69.5085 33.7004C67.0304 38.5331 66.9784 38.8278 67.6543 44.2165C67.7276 44.8004 67.809 45.4506 67.8965 46.1812C68.1962 48.6892 66.8896 50.9521 64.5677 51.9465C63.8912 52.2362 63.2874 52.4906 62.7451 52.719C57.7406 54.8281 57.5112 55.0204 54.5651 59.5829C54.2459 60.0773 53.8904 60.6279 53.4876 61.2437C52.1051 63.3573 49.6499 64.251 47.2321 63.5204C46.5276 63.3076 45.9013 63.1143 45.3391 62.9409C42.7446 62.1403 41.3723 61.7398 40.0001 61.7398C38.6279 61.7398 37.2557 62.1403 34.661 62.9409C34.0987 63.1143 33.4726 63.3076 32.7681 63.5204C30.3506 64.2512 27.8949 63.3574 26.5126 61.2437C26.1096 60.6276 25.7541 60.077 25.4349 59.5826C22.489 55.0206 22.2596 54.8281 17.2549 52.719C16.6467 52.4633 16.0392 52.2058 15.4324 51.9465C13.1107 50.9521 11.804 48.689 12.1038 46.1812C12.1826 45.5261 12.2633 44.8713 12.346 44.2167C13.0218 38.8278 12.9698 38.5331 10.4916 33.7004C10.19 33.1135 9.89018 32.5257 9.59212 31.937C8.45274 29.6828 8.90649 27.1095 10.7481 25.381C11.2848 24.8773 11.7652 24.4317 12.1966 24.0315C16.1779 20.3381 16.3276 20.0787 17.5356 14.784C17.6665 14.2103 17.8123 13.5714 17.9801 12.8548C18.5563 10.3956 20.5581 8.71588 23.0799 8.57573C23.8148 8.53479 24.4693 8.50229 25.057 8.47292C30.481 8.20276 30.7624 8.10042 35.0912 4.82073C35.5602 4.46542 36.0826 4.06963 36.6716 3.62854C38.6937 2.11495 41.3066 2.11495 43.3287 3.62854C43.9179 4.06963 44.4401 4.46526 44.9091 4.82073C49.2379 8.10042 49.5193 8.20276 54.9434 8.47292C55.5312 8.50229 56.1856 8.53479 56.9204 8.57573C59.4423 8.71588 61.444 10.3956 62.0201 12.8548C62.1879 13.5714 62.3337 14.2103 62.4646 14.784C63.6726 20.0787 63.8223 20.3381 67.8037 24.0315C68.2351 24.4318 68.7156 24.8774 69.2523 25.381C71.0937 27.1095 71.5474 29.6829 70.4081 31.937ZM40.0001 12.3532C28.5412 12.3532 19.2188 21.6757 19.2188 33.1345C19.2188 44.5934 28.5412 53.9157 40.0001 53.9157C51.459 53.9157 60.7813 44.5934 60.7813 33.1345C60.7813 21.6757 51.459 12.3532 40.0001 12.3532ZM27.7646 46.7053C28.7076 40.7126 33.8615 36.2679 40.0001 36.2679C46.1387 36.2679 51.2926 40.7126 52.2356 46.7053C48.9932 49.6315 44.7012 51.4156 40.0001 51.4156C35.299 51.4156 31.007 49.6315 27.7646 46.7053ZM40.0002 33.7679C36.8871 33.7679 34.3543 31.2351 34.3543 28.122C34.3543 25.0089 36.8871 22.476 40.0002 22.476C43.1135 22.476 45.6463 25.0089 45.6463 28.122C45.6463 31.2351 43.1135 33.7679 40.0002 33.7679ZM54.3021 44.5074C52.9601 39.8393 49.4295 36.1724 44.9291 34.602C46.8826 33.1126 48.1463 30.7626 48.1463 28.1221C48.1463 23.6304 44.492 19.9762 40.0002 19.9762C35.5085 19.9762 31.8543 23.6304 31.8543 28.1221C31.8543 30.7626 33.1179 33.1124 35.0712 34.602C30.5709 36.1724 27.0401 39.8395 25.6981 44.5076C23.2088 41.3835 21.7188 37.4299 21.7188 33.1345C21.7188 23.0542 29.9198 14.8532 40.0001 14.8532C50.0804 14.8532 58.2813 23.0542 58.2813 33.1345C58.2813 37.4299 56.7913 41.3835 54.3021 44.5074Z" fill="#1A75CF"/>
  </g>
  <defs>
    <clipPath id="clip0_8378_44036">
      <rect width="80" height="80" fill="white"/>
    </clipPath>
  </defs>
</svg>