<svg xmlns="http://www.w3.org/2000/svg" width="22" height="23" viewBox="0 0 22 23" fill="none">
  <path d="M16.1287 19.5055H16.103C12.5815 19.4188 9.22091 18.0127 6.68699 15.5656C4.23905 13.034 2.83213 9.67473 2.74522 6.15422C2.74003 5.66105 2.93367 5.18655 3.28249 4.83788L5.77032 2.35188C6.12828 1.99403 6.70853 1.99403 7.06649 2.35188L10.7332 6.01855C11.091 6.37651 11.091 6.95676 10.7332 7.31472L9.27016 8.77497C9.5415 9.78873 10.0413 10.7269 10.7313 11.5176C11.5206 12.2079 12.4576 12.708 13.4703 12.9797L14.937 11.5186C15.2949 11.1607 15.8752 11.1607 16.2332 11.5186L19.8998 15.1852C20.2577 15.5432 20.2577 16.1234 19.8998 16.4814L17.412 18.9683C17.0728 19.311 16.6109 19.5044 16.1287 19.5055ZM6.41657 4.29705H6.41199L4.57866 6.13405C4.65341 9.17615 5.86779 12.0793 7.98132 14.2686C10.1707 16.3813 13.0733 17.5956 16.1149 17.6712L17.9547 15.8333L15.5787 13.4637L14.3934 14.6481C14.2239 14.8195 13.9929 14.9162 13.7517 14.9166C13.6873 14.9167 13.6231 14.9099 13.5602 14.8965C12.0327 14.5586 10.6143 13.8428 9.43516 12.8147C8.40707 11.6355 7.6913 10.2172 7.35341 8.68972C7.28967 8.38609 7.38383 8.07082 7.60366 7.85188L8.78799 6.66663L6.41657 4.29705Z" fill="#7ED9FF"/>
</svg>