<svg width="80" height="80" viewBox="0 0 80 80" fill="none" xmlns="http://www.w3.org/2000/svg">
<path d="M56.25 2.5H6.25C5.25635 2.50297 4.30425 2.89901 3.60163 3.60163C2.89901 4.30425 2.50297 5.25635 2.5 6.25V73.75C2.50297 74.7436 2.89901 75.6958 3.60163 76.3984C4.30425 77.101 5.25635 77.497 6.25 77.5H56.25C57.2436 77.497 58.1958 77.101 58.8984 76.3984C59.601 75.6958 59.997 74.7436 60 73.75V6.25C59.997 5.25635 59.601 4.30425 58.8984 3.60163C58.1958 2.89901 57.2436 2.50297 56.25 2.5ZM57.5 73.75C57.5 74.0815 57.3683 74.3995 57.1339 74.6339C56.8995 74.8683 56.5815 75 56.25 75H6.25C5.91848 75 5.60054 74.8683 5.36612 74.6339C5.1317 74.3995 5 74.0815 5 73.75V6.25C5 5.91848 5.1317 5.60054 5.36612 5.36612C5.60054 5.1317 5.91848 5 6.25 5H56.25C56.5815 5 56.8995 5.1317 57.1339 5.36612C57.3683 5.60054 57.5 5.91848 57.5 6.25V73.75ZM76.25 23.75H72.5V18.75C72.5 17.7554 72.1049 16.8016 71.4016 16.0983C70.6984 15.3951 69.7446 15 68.75 15C67.7554 15 66.8016 15.3951 66.0984 16.0983C65.3951 16.8016 65 17.7554 65 18.75V66.25C65.0001 66.3512 65.0127 66.4519 65.0375 66.55L67.5375 76.55C67.6052 76.8203 67.7613 77.0602 67.981 77.2316C68.2007 77.403 68.4714 77.4961 68.75 77.4961C69.0286 77.4961 69.2993 77.403 69.519 77.2316C69.7387 77.0602 69.8948 76.8203 69.9625 76.55L72.4625 66.55C72.4873 66.4519 72.4999 66.3512 72.5 66.25V26.25H75V40H77.5V25C77.5 24.6685 77.3683 24.3505 77.1339 24.1161C76.8995 23.8817 76.5815 23.75 76.25 23.75ZM70 66.1L68.75 71.1L67.5 66.1V26.25H70V66.1ZM70 23.75H67.5V18.75C67.5 18.4185 67.6317 18.1005 67.8661 17.8661C68.1005 17.6317 68.4185 17.5 68.75 17.5C69.0815 17.5 69.3995 17.6317 69.6339 17.8661C69.8683 18.1005 70 18.4185 70 18.75V23.75Z" fill="#1A75CF"/>
<path d="M10 43.75H15V46.25H10V43.75ZM17.5 43.75H52.5V46.25H17.5V43.75ZM10 51.25H52.5V53.75H10V51.25ZM22.085 68.185L21.21 64.6963C21.1522 64.4677 21.031 64.2602 20.8604 64.0976C20.6897 63.935 20.4766 63.8239 20.2455 63.7773C20.0145 63.7306 19.7749 63.7503 19.5545 63.8339C19.3341 63.9176 19.1419 64.0618 19 64.25L16.31 67.8363L14.79 65.5563C14.6691 65.3946 14.5121 65.2633 14.3316 65.1729C14.151 65.0825 13.9519 65.0354 13.75 65.0354C13.5481 65.0354 13.349 65.0825 13.1684 65.1729C12.9879 65.2633 12.8309 65.3946 12.71 65.5563L10.21 69.3063L12.29 70.6938L13.75 68.5L15.21 70.69C15.321 70.8565 15.4703 70.9939 15.6454 71.0907C15.8205 71.1875 16.0163 71.2409 16.2162 71.2463H16.25C16.4441 71.2463 16.6354 71.2011 16.809 71.1143C16.9826 71.0275 17.1336 70.9015 17.25 70.7463L19.4237 67.8475L20.0375 70.3C20.0829 70.4816 20.1685 70.6506 20.2879 70.7947C20.4074 70.9387 20.5577 71.0541 20.7277 71.1323C20.8977 71.2106 21.0831 71.2496 21.2702 71.2466C21.4573 71.2436 21.6413 71.1987 21.8088 71.115L26.8088 68.615L25.6912 66.3775L22.085 68.185ZM48.23 68.2375L47.435 65.855C47.3676 65.6531 47.2497 65.4717 47.0925 65.3281C46.9353 65.1845 46.744 65.0834 46.5368 65.0344C46.3295 64.9855 46.1133 64.9903 45.9084 65.0483C45.7036 65.1064 45.5169 65.2159 45.3662 65.3663L42.8425 67.89L41.125 64.4413C41.0095 64.2476 40.8457 64.0872 40.6496 63.9758C40.4535 63.8644 40.2318 63.8058 40.0063 63.8058C39.7807 63.8058 39.559 63.8644 39.3629 63.9758C39.1668 64.0872 39.003 64.2476 38.8875 64.4413L36.3875 69.4413L38.625 70.5588L40 67.795L41.375 70.5588C41.4636 70.7361 41.5932 70.8898 41.7529 71.0071C41.9127 71.1245 42.0981 71.2022 42.2937 71.2338C42.3619 71.2451 42.4309 71.2505 42.5 71.25C42.8315 71.25 43.1494 71.1182 43.3838 70.8838L45.7025 68.5638L46.315 70.395C46.3714 70.5657 46.4639 70.7222 46.5863 70.8539C46.7087 70.9855 46.858 71.0892 47.0241 71.1579C47.1903 71.2266 47.3692 71.2587 47.5488 71.2519C47.7285 71.2452 47.9045 71.1998 48.065 71.1188L53.065 68.6188L51.9475 66.3813L48.23 68.2375ZM43.75 16.25C41.9013 16.2444 40.1176 16.9312 38.75 18.175C38.0086 17.5129 37.1413 17.0069 36.2 16.6875C36.0015 14.8503 35.131 13.1513 33.7558 11.9169C32.3807 10.6825 30.5979 9.99982 28.75 10C26.9013 9.9944 25.1176 10.6812 23.75 11.925C22.3824 10.6812 20.5987 9.9944 18.75 10C16.7609 10 14.8532 10.7902 13.4467 12.1967C12.0402 13.6033 11.25 15.5109 11.25 17.5C11.25 25.6375 22.6625 32.075 23.1375 32.3375C23.3237 32.4449 23.5351 32.5009 23.75 32.5C23.9651 32.5025 24.1769 32.4464 24.3625 32.3375C25.7064 31.5577 26.9968 30.6891 28.225 29.7375C31.5125 34.85 37.7875 38.4 38.1375 38.5875C38.3241 38.6941 38.5352 38.7501 38.75 38.7501C38.9648 38.7501 39.1759 38.6941 39.3625 38.5875C39.8375 38.325 51.25 31.8875 51.25 23.75C51.25 21.7609 50.4598 19.8533 49.0533 18.4467C47.6468 17.0402 45.7391 16.25 43.75 16.25ZM26.25 23.75C26.2695 25.0362 26.5413 26.3061 27.05 27.4875C25.9896 28.3133 24.8882 29.0852 23.75 29.8C21.5 28.4125 13.75 23.225 13.75 17.5C13.7473 16.4489 14.0768 15.4239 14.6913 14.5711C15.3059 13.7184 16.1742 13.0817 17.1721 12.7518C18.1701 12.4219 19.2468 12.4157 20.2485 12.7342C21.2502 13.0526 22.1257 13.6794 22.75 14.525C22.8704 14.6743 23.0228 14.7947 23.1958 14.8774C23.3689 14.9601 23.5582 15.003 23.75 15.003C23.9418 15.003 24.1311 14.9601 24.3042 14.8774C24.4772 14.7947 24.6296 14.6743 24.75 14.525C25.3088 13.7652 26.0723 13.1801 26.9513 12.838C27.8303 12.4959 28.7885 12.411 29.7139 12.5932C30.6393 12.7754 31.4938 13.2172 32.1775 13.8669C32.8612 14.5167 33.3459 15.3476 33.575 16.2625C31.6185 16.3082 29.7574 17.1168 28.3888 18.5157C27.0203 19.9146 26.2527 21.793 26.25 23.75ZM38.75 36.05C36.5 34.6625 28.75 29.475 28.75 23.75C28.7473 22.6989 29.0768 21.6739 29.6913 20.8211C30.3059 19.9684 31.1742 19.3317 32.1721 19.0018C33.1701 18.6719 34.2468 18.6657 35.2485 18.9842C36.2502 19.3026 37.1257 19.9294 37.75 20.775C37.8704 20.9243 38.0228 21.0447 38.1958 21.1274C38.3689 21.2101 38.5582 21.2531 38.75 21.2531C38.9418 21.2531 39.1311 21.2101 39.3042 21.1274C39.4772 21.0447 39.6296 20.9243 39.75 20.775C40.3743 19.9294 41.2498 19.3026 42.2515 18.9842C43.2532 18.6657 44.3299 18.6719 45.3279 19.0018C46.3258 19.3317 47.1941 19.9684 47.8087 20.8211C48.4232 21.6739 48.7527 22.6989 48.75 23.75C48.75 29.475 41 34.6625 38.75 36.05Z" fill="#1A75CF"/>
</svg>
