<svg xmlns="http://www.w3.org/2000/svg" width="80" height="80" viewBox="0 0 80 80" fill="none">
  <g clip-path="url(#clip0_8407_41767)">
    <path d="M57.5338 13.7775C54.1242 13.7775 51.35 16.5517 51.35 19.9613C51.35 23.371 54.1242 26.1452 57.5338 26.1452C60.9435 26.1452 63.7177 23.371 63.7177 19.9613C63.7177 16.5517 60.9435 13.7775 57.5338 13.7775ZM57.5338 23.7968C55.4189 23.7968 53.6982 22.0762 53.6982 19.9612C53.6982 17.8463 55.4187 16.1256 57.5338 16.1256C59.6488 16.1256 61.3695 17.8462 61.3695 19.9612C61.3695 22.0762 59.6488 23.7968 57.5338 23.7968ZM34.9901 56.36C30.8898 56.36 27.5537 59.6961 27.5537 63.7964C27.5537 68.9204 33.8899 75.3155 34.1596 75.5854C34.2686 75.6944 34.3981 75.7809 34.5406 75.8399C34.683 75.8989 34.8357 75.9293 34.9899 75.9293C35.1441 75.9293 35.2968 75.8989 35.4393 75.8399C35.5817 75.7809 35.7112 75.6944 35.8202 75.5854C36.0898 75.3159 42.4261 68.9204 42.4261 63.7964C42.4264 59.6959 39.0904 56.36 34.9901 56.36ZM34.9901 73.0431C33.0579 70.8926 29.9021 66.7581 29.9021 63.7962C29.9021 60.9908 32.1845 58.7083 34.9901 58.7083C37.7957 58.7083 40.078 60.9908 40.078 63.7962C40.0782 66.7583 36.9221 70.8931 34.9901 73.0431Z" fill="#1A75CF"/>
    <path d="M34.9898 60.2738C33.0476 60.2738 31.4673 61.8539 31.4673 63.7963C31.4673 65.7386 33.0476 67.3188 34.9898 67.3188C36.932 67.3188 38.5123 65.7386 38.5123 63.7963C38.5123 61.8539 36.932 60.2738 34.9898 60.2738ZM34.9898 64.9705C34.3423 64.9705 33.8156 64.4438 33.8156 63.7963C33.8156 63.1488 34.3423 62.6221 34.9898 62.6221C35.6373 62.6221 36.164 63.1488 36.164 63.7963C36.164 64.4438 35.6373 64.9705 34.9898 64.9705ZM50.461 0.089302C50.3184 0.0304698 50.1657 0.000291017 50.0115 0.000489252C49.8573 0.000687486 49.7047 0.0312588 49.5623 0.0904574C49.4199 0.149656 49.2906 0.236322 49.1817 0.345506C49.0728 0.454691 48.9865 0.584254 48.9277 0.726798L43.231 14.5317L22.2849 8.99191V1.17492C22.2849 0.8635 22.1612 0.564835 21.941 0.344628C21.7208 0.12442 21.4221 0.000708809 21.1107 0.000708809C20.7992 0.000708809 20.5006 0.12442 20.2804 0.344628C20.0602 0.564835 19.9365 0.8635 19.9365 1.17492V9.89612C19.9365 10.1552 20.0222 10.407 20.1803 10.6123C20.3383 10.8176 20.5599 10.9649 20.8104 11.0311L43.6238 17.065C43.8989 17.1377 44.191 17.1081 44.4458 16.9817C44.7007 16.8552 44.901 16.6406 45.0096 16.3776L51.0983 1.62257C51.217 1.33473 51.2166 1.01151 51.0971 0.72398C50.9776 0.436454 50.7488 0.208163 50.461 0.089302ZM15.1488 46.7806L1.47454 43.1637C1.17491 43.0883 0.857631 43.134 0.591481 43.291C0.325331 43.4479 0.13176 43.7034 0.0527329 44.0021C-0.0262941 44.3008 0.015592 44.6186 0.169311 44.8866C0.323029 45.1546 0.576191 45.3513 0.873914 45.4339L13.6743 48.8195V57.0644C13.6743 57.3759 13.798 57.6745 14.0182 57.8947C14.2384 58.1149 14.5371 58.2387 14.8485 58.2387C15.1599 58.2387 15.4586 58.1149 15.6788 57.8947C15.899 57.6745 16.0227 57.3759 16.0227 57.0644V47.9156C16.0227 47.6565 15.937 47.4047 15.7789 47.1994C15.6209 46.9941 15.3993 46.8468 15.1488 46.7806ZM14.8485 0.000708809C14.5371 0.000708809 14.2384 0.12442 14.0182 0.344628C13.798 0.564835 13.6743 0.8635 13.6743 1.17492V6.71458L1.47454 3.48788C1.17491 3.41245 0.857631 3.45816 0.591481 3.61509C0.325331 3.77202 0.13176 4.02753 0.0527329 4.32623C-0.0262941 4.62492 0.015592 4.94273 0.169311 5.21075C0.323029 5.47877 0.576191 5.6754 0.873914 5.75802L14.5482 9.37472C14.722 9.4206 14.904 9.42598 15.0803 9.39045C15.2565 9.35492 15.4222 9.27941 15.5646 9.16975C15.7071 9.06009 15.8224 8.91921 15.9019 8.75794C15.9813 8.59667 16.0226 8.41933 16.0227 8.23957V1.17492C16.0227 0.863513 15.899 0.564872 15.6788 0.344673C15.4586 0.124475 15.1599 0.000750239 14.8485 0.000708809ZM14.8485 61.5263C14.5371 61.5263 14.2384 61.65 14.0182 61.8702C13.798 62.0904 13.6743 62.3891 13.6743 62.7005V78.8256C13.6743 79.137 13.798 79.4356 14.0182 79.6559C14.2384 79.8761 14.5371 79.9998 14.8485 79.9998C15.1599 79.9998 15.4586 79.8761 15.6788 79.6559C15.899 79.4356 16.0227 79.137 16.0227 78.8256V62.7005C16.0227 62.3891 15.899 62.0905 15.6788 61.8703C15.4586 61.6501 15.1599 61.5263 14.8485 61.5263ZM15.1488 13.582L1.47454 9.96534C1.17491 9.88991 0.857631 9.93562 0.591481 10.0926C0.325331 10.2495 0.13176 10.505 0.0527329 10.8037C-0.0262941 11.1024 0.015592 11.4202 0.169311 11.6882C0.323029 11.9562 0.576191 12.1529 0.873914 12.2355L13.6745 15.6212V39.9131L1.47454 36.6864C1.17491 36.611 0.857631 36.6567 0.591481 36.8136C0.325331 36.9706 0.13176 37.2261 0.0527329 37.5248C-0.0262941 37.8235 0.015592 38.1413 0.169311 38.4093C0.323029 38.6773 0.576191 38.874 0.873914 38.9566L14.5482 42.5733C14.722 42.6192 14.904 42.6245 15.0803 42.589C15.2565 42.5535 15.4222 42.478 15.5646 42.3683C15.7071 42.2587 15.8224 42.1178 15.9019 41.9565C15.9813 41.7952 16.0226 41.6179 16.0227 41.4381V14.717C16.0227 14.4579 15.937 14.2061 15.7789 14.0008C15.6209 13.7955 15.3993 13.6483 15.1488 13.582Z" fill="#1A75CF"/>
    <path d="M79.273 10.6997C79.1305 10.6408 78.9778 10.6105 78.8236 10.6107C78.6693 10.6109 78.5167 10.6414 78.3743 10.7006C78.2319 10.7599 78.1026 10.8465 77.9937 10.9558C77.8848 11.065 77.7985 11.1946 77.7398 11.3372L73.1554 22.4465L68.6428 21.2529C68.6972 20.8176 68.7275 20.386 68.7275 19.961C68.7275 13.7889 63.7059 8.76749 57.5339 8.76749C56.6062 8.76723 55.6821 8.88244 54.7829 9.11046L57.8729 1.62238C57.9916 1.33453 57.9912 1.01131 57.8716 0.723783C57.7521 0.436258 57.5233 0.207966 57.2355 0.0891057C57.093 0.0302523 56.9403 5.70364e-05 56.786 0.000245013C56.6318 0.000432989 56.4792 0.0310005 56.3368 0.0902013C56.1944 0.149402 56.0651 0.236076 55.9562 0.345272C55.8473 0.454467 55.761 0.584045 55.7022 0.726602L51.7073 10.4073C48.4912 12.3762 46.3403 15.9218 46.3403 19.9609C46.3403 20.5887 46.4034 21.2299 46.5189 21.8787L21.4112 15.2384C21.2374 15.1926 21.0554 15.1872 20.8792 15.2228C20.703 15.2584 20.5373 15.3339 20.3948 15.4436C20.2524 15.5532 20.137 15.6941 20.0576 15.8554C19.9782 16.0166 19.9368 16.1939 19.9367 16.3737V22.3219C18.4609 23.6818 17.5342 25.6291 17.5342 27.7893C17.5342 29.9239 18.634 32.2789 19.9367 34.3198V43.0945C19.9367 43.3536 20.0224 43.6054 20.1805 43.8107C20.3385 44.016 20.5601 44.1632 20.8106 44.2295L61.1967 54.9114C61.4718 54.9841 61.7639 54.9545 62.0188 54.8281C62.2736 54.7017 62.4739 54.4871 62.5825 54.2241L72.524 30.1325C72.5878 29.9779 72.6179 29.8114 72.6121 29.6441C72.6064 29.4769 72.5649 29.3129 72.4906 29.163C72.4163 29.0131 72.3107 28.8808 72.1811 28.775C72.0515 28.6692 71.9008 28.5924 71.739 28.5496L66.6386 27.2005C67.253 26 67.7748 24.7708 68.1437 23.5502L73.5487 24.9797C73.8237 25.0524 74.1158 25.0228 74.3707 24.8964C74.6256 24.77 74.8259 24.5554 74.9345 24.2924L79.9108 12.2329C80.0295 11.945 80.0289 11.6218 79.9093 11.3343C79.7897 11.0468 79.5609 10.8185 79.273 10.6997ZM57.5338 11.1159C62.4111 11.1159 66.379 15.0839 66.379 19.9612C66.379 25.6766 59.8791 33.2447 57.5338 35.7894C55.1885 33.2449 48.6885 25.6766 48.6885 19.9612C48.6885 15.084 52.6565 11.1159 57.5338 11.1159ZM19.8826 27.7889C19.8826 24.9835 22.1649 22.701 24.9705 22.701C27.7762 22.701 30.0585 24.9835 30.0585 27.7889C30.0585 30.751 26.9026 34.8856 24.9705 37.0358C23.0384 34.8853 19.8826 30.7508 19.8826 27.7889ZM69.8415 30.4766L60.8039 52.3783L22.2851 42.1904V37.5128C23.2745 38.7051 24.0498 39.4875 24.1404 39.5781C24.2494 39.6872 24.3788 39.7737 24.5213 39.8328C24.6638 39.8918 24.8165 39.9222 24.9707 39.9222C25.1249 39.9222 25.2776 39.8918 25.4201 39.8328C25.5626 39.7737 25.692 39.6872 25.801 39.5781C26.0707 39.3084 32.4069 32.9131 32.4069 27.7891C32.4069 23.6888 29.0708 20.3527 24.9705 20.3527C24.0237 20.3527 23.1187 20.5324 22.2851 20.8566V17.8984L47.2395 24.4985C49.6954 31.2563 56.3588 37.9806 56.7033 38.3253C56.8123 38.4344 56.9418 38.5209 57.0842 38.58C57.2267 38.639 57.3794 38.6694 57.5336 38.6694C57.6879 38.6694 57.8406 38.639 57.983 38.58C58.1255 38.5209 58.2549 38.4344 58.3639 38.3253C58.625 38.0642 62.5131 34.1405 65.4506 29.3152L69.8415 30.4766ZM79.1254 63.7017L65.4953 60.0967C65.2203 60.0239 64.9282 60.0535 64.6733 60.1799C64.4184 60.3064 64.2181 60.521 64.1097 60.7841L56.8496 78.3777C56.7375 78.6643 56.7424 78.9833 56.8632 79.2663C56.9839 79.5493 57.2109 79.7736 57.4953 79.891C57.7797 80.0083 58.0989 80.0094 58.384 79.8939C58.6692 79.7784 58.8977 79.5557 59.0203 79.2735L65.8884 62.6298L78.5249 65.9722C79.1521 66.1386 79.7944 65.764 79.9604 65.1373C80.0399 64.8362 79.9967 64.5159 79.8401 64.2467C79.6835 63.9774 79.4264 63.7814 79.1254 63.7017ZM79.1254 57.2241L69.2018 54.5994L78.6316 31.7478C78.693 31.6048 78.7254 31.4511 78.7269 31.2955C78.7283 31.1399 78.6989 30.9855 78.6401 30.8414C78.5814 30.6973 78.4947 30.5663 78.3849 30.456C78.2751 30.3458 78.1445 30.2584 78.0007 30.199C77.8568 30.1397 77.7026 30.1095 77.547 30.1103C77.3914 30.111 77.2375 30.1427 77.0942 30.2035C76.951 30.2642 76.8212 30.3528 76.7125 30.4642C76.6038 30.5755 76.5183 30.7074 76.461 30.8521L66.5194 54.9436C66.4555 55.0983 66.4255 55.2648 66.4312 55.432C66.437 55.5992 66.4784 55.7633 66.5528 55.9132C66.6271 56.0631 66.7326 56.1954 66.8622 56.3011C66.9919 56.4069 67.1426 56.4838 67.3044 56.5266L78.5246 59.4942C78.6229 59.5203 78.7241 59.5335 78.8257 59.5336C79.1108 59.5333 79.386 59.4293 79.6 59.241C79.8141 59.0528 79.9523 58.7931 79.989 58.5104C80.0257 58.2277 79.9583 57.9413 79.7994 57.7046C79.6405 57.4679 79.4009 57.2971 79.1254 57.2241ZM60.1391 59.0947C60.0647 58.9448 59.9592 58.8125 59.8296 58.7067C59.7 58.601 59.5493 58.5241 59.3875 58.4813L21.4112 48.4368C21.2374 48.3909 21.0553 48.3855 20.8791 48.4211C20.7029 48.4566 20.5371 48.532 20.3946 48.6416C20.2521 48.7513 20.1367 48.8922 20.0573 49.0535C19.9779 49.2149 19.9366 49.3923 19.9367 49.5721V78.8255C19.9367 79.1369 20.0604 79.4356 20.2806 79.6558C20.5008 79.876 20.7995 79.9997 21.1109 79.9997C21.4223 79.9997 21.721 79.876 21.9412 79.6558C22.1614 79.4356 22.2851 79.1369 22.2851 78.8255V51.0969L57.4902 60.4084L50.0752 78.3776C50.0148 78.5204 49.9832 78.6738 49.9824 78.8288C49.9816 78.9839 50.0115 79.1376 50.0704 79.2811C50.1293 79.4246 50.216 79.555 50.3256 79.6647C50.4351 79.7745 50.5653 79.8615 50.7087 79.9206C50.8521 79.9798 51.0057 80.0099 51.1608 80.0094C51.3159 80.0088 51.4693 79.9776 51.6123 79.9174C51.7552 79.8572 51.8848 79.7693 51.9936 79.6588C52.1023 79.5482 52.1881 79.4172 52.246 79.2733L60.1728 60.0642C60.2365 59.9095 60.2665 59.743 60.2607 59.5758C60.2548 59.4086 60.2134 59.2446 60.1391 59.0947Z" fill="#1A75CF"/>
    <path d="M24.9707 24.2665C23.0286 24.2665 21.4482 25.8466 21.4482 27.789C21.4482 29.7313 23.0286 31.3115 24.9707 31.3115C26.9129 31.3115 28.4932 29.7313 28.4932 27.789C28.4932 25.8466 26.9131 24.2665 24.9707 24.2665ZM24.9707 28.9632C24.3232 28.9632 23.7965 28.4365 23.7965 27.789C23.7965 27.1415 24.3232 26.6148 24.9707 26.6148C25.6182 26.6148 26.145 27.1415 26.145 27.789C26.145 28.4365 25.6182 28.9632 24.9707 28.9632Z" fill="#1A75CF"/>
  </g>
  <defs>
    <clipPath id="clip0_8407_41767">
      <rect width="80" height="80" fill="white"/>
    </clipPath>
  </defs>
</svg>