<svg xmlns="http://www.w3.org/2000/svg" width="80" height="80" viewBox="0 0 80 80" fill="none">
  <path d="M73.7499 48.75C73.6287 48.75 73.5137 48.775 73.3962 48.7862L68.6462 38.6075C74.6724 35.1575 78.7499 28.6763 78.7499 21.25C78.7499 10.2225 69.7774 1.25 58.7499 1.25C51.3312 1.25 44.8574 5.31875 41.4049 11.3338L35.9624 6.435C36.1462 5.9925 36.2499 5.50875 36.2499 5C36.2499 2.9325 34.5674 1.25 32.4999 1.25C30.4324 1.25 28.7499 2.9325 28.7499 5C28.7499 7.0675 30.4324 8.75 32.4999 8.75C33.1462 8.75 33.7462 8.57125 34.2774 8.28125L40.2549 13.6613C40.0749 14.0988 39.9137 14.5475 39.7637 15H26.1499C25.5399 10.7662 21.8987 7.5 17.4999 7.5C12.6762 7.5 8.74992 11.425 8.74992 16.25C8.74992 21.075 12.6762 25 17.4999 25C21.8987 25 25.5399 21.7337 26.1499 17.5H39.1149C38.8752 18.7357 38.753 19.9913 38.7499 21.25C38.7499 26.77 41.0262 31.9625 44.9987 35.7325L43.4087 37.3225C43.1035 36.6325 42.6048 36.0459 41.9729 35.6336C41.341 35.2214 40.6031 35.0013 39.8487 35C39.4037 35 38.9687 35.0913 38.5537 35.2388C38.0549 33.6575 36.5924 32.5 34.8487 32.5C33.849 32.5055 32.8892 32.8922 32.1649 33.5812C31.8601 32.889 31.3608 32.3002 30.7277 31.8864C30.0947 31.4726 29.355 31.2515 28.5987 31.25C27.5712 31.25 26.5662 31.6663 25.8399 32.3925L14.5649 43.6675C13.2733 44.9551 12.4186 46.6157 12.1212 48.415L11.3324 53.15L9.99992 54.4825L8.74992 53.2325L0.732422 61.25L18.7499 79.2675L26.7674 71.25L25.5174 70L26.8387 68.6787L33.2737 67.7588C34.7291 67.5502 36.1086 66.9784 37.2849 66.0963L49.4162 56.9987C49.9843 56.5711 50.4456 56.0177 50.7637 55.3817C51.0819 54.7458 51.2483 54.0448 51.2499 53.3337C51.2486 52.1185 50.7652 50.9533 49.9059 50.094C49.0466 49.2347 47.8815 48.7513 46.6662 48.75H45.8712L37.3112 54.4562L51.7887 39.9787C53.6249 40.6625 55.5362 41.0675 57.4999 41.1888V60.2313C56.7709 60.4882 56.1392 60.9645 55.6916 61.5947C55.244 62.225 55.0024 62.9782 54.9999 63.7513C54.9999 65.8187 56.6824 67.5013 58.7499 67.5013C60.8174 67.5013 62.4999 65.8187 62.4999 63.7513C62.4974 62.9782 62.2558 62.225 61.8082 61.5947C61.3606 60.9645 60.729 60.4882 59.9999 60.2313V41.1863C62.202 41.0567 64.367 40.5612 66.4062 39.72L71.1237 49.8288C70.768 50.1768 70.4853 50.5923 70.2924 51.051C70.0994 51.5097 70 52.0024 69.9999 52.5C69.9999 54.5675 71.6824 56.25 73.7499 56.25C75.8174 56.25 77.4999 54.5675 77.4999 52.5C77.4999 50.4325 75.8174 48.75 73.7499 48.75ZM32.4999 6.25C32.1781 6.2356 31.8742 6.09762 31.6515 5.86477C31.4289 5.63193 31.3046 5.32217 31.3046 5C31.3046 4.67783 31.4289 4.36807 31.6515 4.13523C31.8742 3.90238 32.1781 3.7644 32.4999 3.75C32.8218 3.7644 33.1257 3.90238 33.3483 4.13523C33.571 4.36807 33.6953 4.67783 33.6953 5C33.6953 5.32217 33.571 5.63193 33.3483 5.86477C33.1257 6.09762 32.8218 6.2356 32.4999 6.25ZM17.4999 22.5C14.0537 22.5 11.2499 19.6963 11.2499 16.25C11.2499 12.8038 14.0537 10 17.4999 10C20.9462 10 23.7499 12.8038 23.7499 16.25C23.7499 19.6963 20.9462 22.5 17.4999 22.5ZM62.7837 38.2625C62.5972 37.6079 62.5017 36.9307 62.4999 36.25C62.4999 32.1138 65.8637 28.75 69.9999 28.75C71.3963 28.7569 72.763 29.1534 73.9462 29.895C72.7567 31.979 71.1524 33.7967 69.2324 35.236C67.3124 36.6752 65.1176 37.7053 62.7837 38.2625ZM76.2499 21.25H64.9999C64.6781 21.2356 64.3742 21.0976 64.1515 20.8648C63.9289 20.6319 63.8046 20.3222 63.8046 20C63.8046 19.6778 63.9289 19.3681 64.1515 19.1352C64.3742 18.9024 64.6781 18.7644 64.9999 18.75C67.0674 18.75 68.7499 17.0675 68.7499 15C68.7499 12.9325 67.0674 11.25 64.9999 11.25H62.4999C62.1781 11.2356 61.8742 11.0976 61.6515 10.8648C61.4289 10.6319 61.3046 10.3222 61.3046 10C61.3046 9.67783 61.4289 9.36807 61.6515 9.13523C61.8742 8.90238 62.1781 8.7644 62.4999 8.75H70.9737C74.2237 11.9288 76.2499 16.355 76.2499 21.25ZM49.9999 21.25H54.9999C55.3218 21.2644 55.6257 21.4024 55.8483 21.6352C56.071 21.8681 56.1953 22.1778 56.1953 22.5C56.1953 22.8222 56.071 23.1319 55.8483 23.3648C55.6257 23.5976 55.3218 23.7356 54.9999 23.75H41.4499C41.3235 22.9225 41.2567 22.087 41.2499 21.25C41.2499 17.5325 42.4237 14.0875 44.4087 11.25H51.2499C51.5718 11.2644 51.8757 11.4024 52.0983 11.6352C52.321 11.8681 52.4453 12.1778 52.4453 12.5C52.4453 12.8222 52.321 13.1319 52.0983 13.3648C51.8757 13.5976 51.5718 13.7356 51.2499 13.75H49.9999C47.9324 13.75 46.2499 15.4325 46.2499 17.5C46.2499 19.5675 47.9324 21.25 49.9999 21.25ZM18.7499 75.7325L4.26742 61.25L8.74992 56.7675L23.2324 71.25L18.7499 75.7325ZM33.5524 57.82C33.9158 58.1829 34.3935 58.4089 34.9046 58.4597C35.4156 58.5105 35.9285 58.383 36.3562 58.0988L46.6287 51.25H46.6662C47.2185 51.251 47.7479 51.4708 48.1385 51.8614C48.5291 52.252 48.7489 52.7814 48.7499 53.3337C48.7499 53.9862 48.4387 54.6087 47.9174 55L35.7874 64.0975C34.9461 64.7264 33.9607 65.1346 32.9212 65.285L25.6599 66.3225L23.7499 68.2325L11.7674 56.25L13.6674 54.35L14.5874 48.8263C14.7993 47.5409 15.4097 46.3546 16.3324 45.435L27.6074 34.16C27.873 33.9103 28.2253 33.7738 28.5898 33.7794C28.9542 33.785 29.3022 33.9322 29.5599 34.19C29.8177 34.4477 29.965 34.7957 29.9706 35.1602C29.9762 35.5246 29.8396 35.877 29.5899 36.1425L20.3662 45.3662L22.1337 47.1338L31.3574 37.91L33.8574 35.41C34.123 35.1603 34.4753 35.0238 34.8398 35.0294C35.2042 35.035 35.5522 35.1822 35.8099 35.44C36.0677 35.6977 36.215 36.0457 36.2206 36.4102C36.2262 36.7746 36.0896 37.127 35.8399 37.3925L24.1162 49.1162L25.8837 50.8838L37.6074 39.16L38.8574 37.91C39.123 37.6603 39.4753 37.5238 39.8398 37.5294C40.2042 37.535 40.5522 37.6822 40.81 37.94C41.0677 38.1977 41.215 38.5457 41.2206 38.9102C41.2262 39.2746 41.0896 39.627 40.8399 39.8925L27.8662 52.8662L29.6337 54.6338L42.6074 41.66L52.6074 31.66C52.873 31.4103 53.2253 31.2738 53.5898 31.2794C53.9542 31.2849 54.3022 31.4322 54.56 31.69C54.8177 31.9477 54.965 32.2957 54.9706 32.6602C54.9762 33.0246 54.8396 33.377 54.5899 33.6425L33.5549 54.6787C33.1337 55.0975 32.9037 55.6562 32.9037 56.25C32.9037 56.8438 33.1337 57.4012 33.5524 57.82ZM56.3574 35.41C57.0949 34.6737 57.4999 33.6937 57.4999 32.6513C57.4999 30.5 55.7499 28.75 53.5987 28.75C52.5712 28.75 51.5662 29.1663 50.8399 29.8925L46.7649 33.9675C44.5234 31.8606 42.8794 29.1979 41.9999 26.25H54.9999C57.0674 26.25 58.7499 24.5675 58.7499 22.5C58.7499 20.4325 57.0674 18.75 54.9999 18.75H49.9999C49.6781 18.7356 49.3742 18.5976 49.1515 18.3648C48.9289 18.1319 48.8046 17.8222 48.8046 17.5C48.8046 17.1778 48.9289 16.8681 49.1515 16.6352C49.3742 16.4024 49.6781 16.2644 49.9999 16.25H51.2499C53.3174 16.25 54.9999 14.5675 54.9999 12.5C54.9999 10.4325 53.3174 8.75 51.2499 8.75H46.5262C49.6824 5.6625 53.9949 3.75 58.7499 3.75C62.0299 3.75 65.0912 4.67375 67.7174 6.25H62.4999C60.4324 6.25 58.7499 7.9325 58.7499 10C58.7499 12.0675 60.4324 13.75 62.4999 13.75H64.9999C65.3218 13.7644 65.6257 13.9024 65.8483 14.1352C66.071 14.3681 66.1953 14.6778 66.1953 15C66.1953 15.3222 66.071 15.6319 65.8483 15.8648C65.6257 16.0976 65.3218 16.2356 64.9999 16.25C62.9324 16.25 61.2499 17.9325 61.2499 20C61.2499 22.0675 62.9324 23.75 64.9999 23.75H76.0499C75.8611 25.0732 75.5201 26.3701 75.0337 27.615C73.5058 26.7233 71.769 26.2523 69.9999 26.25C64.4862 26.25 59.9999 30.7362 59.9999 36.25C59.9999 37.0737 60.1112 37.8825 60.3087 38.6712C59.7905 38.7202 59.2704 38.7465 58.7499 38.75C57.0374 38.75 55.3637 38.4987 53.7499 38.0175L56.3574 35.41ZM58.7499 65C58.4281 64.9856 58.1242 64.8476 57.9015 64.6148C57.6789 64.3819 57.5546 64.0722 57.5546 63.75C57.5546 63.4278 57.6789 63.1181 57.9015 62.8852C58.1242 62.6524 58.4281 62.5144 58.7499 62.5C59.0718 62.5144 59.3757 62.6524 59.5983 62.8852C59.821 63.1181 59.9453 63.4278 59.9453 63.75C59.9453 64.0722 59.821 64.3819 59.5983 64.6148C59.3757 64.8476 59.0718 64.9856 58.7499 65ZM73.7499 53.75C73.4281 53.7356 73.1242 53.5976 72.9015 53.3648C72.6789 53.1319 72.5546 52.8222 72.5546 52.5C72.5546 52.1778 72.6789 51.8681 72.9015 51.6352C73.1242 51.4024 73.4281 51.2644 73.7499 51.25C74.0718 51.2644 74.3757 51.4024 74.5983 51.6352C74.821 51.8681 74.9453 52.1778 74.9453 52.5C74.9453 52.8222 74.821 53.1319 74.5983 53.3648C74.3757 53.5976 74.0718 53.7356 73.7499 53.75Z" fill="#1A75CF"/>
  <path d="M17.5 12.5C15.4325 12.5 13.75 14.1825 13.75 16.25C13.75 18.3175 15.4325 20 17.5 20C19.5675 20 21.25 18.3175 21.25 16.25C21.25 14.1825 19.5675 12.5 17.5 12.5ZM17.5 17.5C17.1782 17.4856 16.8743 17.3476 16.6516 17.1148C16.4289 16.8819 16.3047 16.5722 16.3047 16.25C16.3047 15.9278 16.4289 15.6181 16.6516 15.3852C16.8743 15.1524 17.1782 15.0144 17.5 15C17.8218 15.0144 18.1257 15.1524 18.3484 15.3852C18.5711 15.6181 18.6953 15.9278 18.6953 16.25C18.6953 16.5722 18.5711 16.8819 18.3484 17.1148C18.1257 17.3476 17.8218 17.4856 17.5 17.5Z" fill="#1A75CF"/>
</svg>