<svg xmlns="http://www.w3.org/2000/svg" width="80" height="80" viewBox="0 0 80 80" fill="none">
  <path d="M75.2793 74.8275V48.9062C75.2783 47.9078 74.8813 46.9505 74.1753 46.2444C73.4694 45.5383 72.5121 45.1412 71.5137 45.14H65.4331V8.10625C65.4312 6.33007 64.7249 4.62715 63.4691 3.37109C62.2133 2.11502 60.5105 1.4084 58.7343 1.40625H22.6318C20.8555 1.40824 19.1525 2.11476 17.8964 3.37083C16.6403 4.62689 15.9338 6.32991 15.9318 8.10625V37.4375H8.93744C7.81958 37.4387 6.74783 37.8832 5.95738 38.6737C5.16693 39.4641 4.72235 40.5359 4.72119 41.6538V71.8938C4.72301 73.67 5.4294 75.3731 6.68536 76.6291C7.94133 77.8852 9.64428 78.5918 11.4206 78.5938H71.5162C72.5142 78.5919 73.4708 78.1944 74.1762 77.4884C74.8816 76.7824 75.2783 75.8255 75.2793 74.8275ZM66.9756 47.3275C67.211 48.8655 67.9313 50.2882 69.0315 51.3884C70.1317 52.4886 71.5544 53.2089 73.0924 53.4444V58.3681C71.5544 58.6036 70.1317 59.3239 69.0315 60.4241C67.9313 61.5243 67.211 62.947 66.9756 64.485H45.9531C45.7178 62.9469 44.9976 61.5241 43.8973 60.4239C42.7971 59.3236 41.3743 58.6034 39.8362 58.3681V53.4444C41.3743 53.2091 42.7971 52.4889 43.8973 51.3886C44.9976 50.2884 45.7178 48.8656 45.9531 47.3275H66.9756ZM73.0918 62.9125C73.09 63.3299 72.9231 63.7295 72.6275 64.0242C72.3319 64.3188 71.9317 64.4845 71.5143 64.485H69.1931C69.4036 63.5308 69.8826 62.6568 70.5734 61.9658C71.2643 61.2748 72.1383 60.7957 73.0924 60.585L73.0918 62.9125ZM39.8362 60.585C40.7904 60.7956 41.6646 61.2746 42.3556 61.9656C43.0465 62.6566 43.5256 63.5308 43.7362 64.485H41.4149C40.9964 64.4845 40.5951 64.318 40.2991 64.022C40.0032 63.7261 39.8367 63.3248 39.8362 62.9062V60.585ZM39.8362 51.2275V48.9062C39.8367 48.4877 40.0032 48.0864 40.2991 47.7905C40.5951 47.4945 40.9964 47.328 41.4149 47.3275H43.7362C43.5256 48.2817 43.0465 49.1559 42.3556 49.8469C41.6646 50.5379 40.7904 51.0169 39.8362 51.2275ZM39.8362 66.3206C40.3306 66.5519 40.8697 66.6721 41.4156 66.6725H71.5149C72.0601 66.672 72.5985 66.5521 73.0924 66.3213V68.8675C73.0923 69.2858 72.9261 69.687 72.6305 69.983C72.3349 70.279 71.9339 70.4456 71.5156 70.4463H41.4149C40.9963 70.4458 40.595 70.2793 40.2989 69.9833C40.0029 69.6874 39.8362 69.2861 39.8356 68.8675L39.8362 66.3206ZM73.0924 48.9062V51.2275C72.1383 51.0168 71.2643 50.5377 70.5734 49.8467C69.8826 49.1557 69.4036 48.2817 69.1931 47.3275H71.5143C71.9328 47.328 72.334 47.4945 72.6299 47.7905C72.9258 48.0865 73.0921 48.4878 73.0924 48.9062ZM18.1193 8.10625C18.1206 6.90987 18.5965 5.76286 19.4425 4.91689C20.2884 4.07092 21.4354 3.59507 22.6318 3.59375H58.7343C59.9306 3.59507 61.0776 4.07094 61.9235 4.91693C62.7693 5.76292 63.245 6.90992 63.2462 8.10625V45.14H41.4149C40.4164 45.1412 39.4591 45.5383 38.7531 46.2444C38.047 46.9504 37.6498 47.9077 37.6487 48.9062V74.8275C37.6495 75.3731 37.7696 75.9119 38.0006 76.4062H16.3574C17.49 75.1764 18.1189 73.5657 18.1193 71.8938V8.10625ZM6.90744 71.8938V41.6512C6.9086 41.1136 7.12297 40.5983 7.50352 40.2184C7.88408 39.8386 8.39975 39.6252 8.93744 39.625H15.9318V71.8938C15.9388 72.4908 15.8273 73.0832 15.6037 73.6368C15.3801 74.1905 15.0489 74.6942 14.6292 75.1188C14.2095 75.5435 13.7097 75.8807 13.1587 76.1108C12.6078 76.3409 12.0167 76.4594 11.4196 76.4594C10.8226 76.4594 10.2314 76.3409 9.68051 76.1108C9.12958 75.8807 8.62978 75.5435 8.21009 75.1188C7.7904 74.6942 7.45915 74.1905 7.23554 73.6368C7.01194 73.0832 6.90041 72.4908 6.90744 71.8938ZM71.5149 76.4062H41.4149C40.9963 76.4058 40.595 76.2393 40.2989 75.9433C40.0029 75.6474 39.8362 75.2461 39.8356 74.8275V72.2819C40.33 72.5132 40.8691 72.6333 41.4149 72.6338H71.5149C72.0599 72.6333 72.5982 72.5134 73.0918 72.2825V74.8275C73.0917 75.2458 72.9255 75.647 72.6299 75.943C72.3343 76.239 71.9333 76.4056 71.5149 76.4062Z" fill="#1A75CF"/>
  <path d="M56.4649 61.5087C57.5732 61.5087 58.6565 61.1801 59.5779 60.5644C60.4994 59.9487 61.2175 59.0735 61.6416 58.0497C62.0657 57.0258 62.1766 55.8991 61.9604 54.8122C61.7441 53.7253 61.2104 52.7269 60.4267 51.9433C59.6431 51.1598 58.6446 50.6262 57.5577 50.41C56.4707 50.1939 55.3441 50.305 54.3203 50.7291C53.2965 51.1533 52.4214 51.8716 51.8058 52.7931C51.1902 53.7146 50.8617 54.798 50.8618 55.9062C50.8635 57.3917 51.4543 58.8158 52.5048 59.8662C53.5552 60.9165 54.9795 61.5072 56.4649 61.5087ZM56.4649 52.4906C57.1405 52.4906 57.8009 52.6909 58.3626 53.0662C58.9243 53.4415 59.362 53.975 59.6206 54.5991C59.8791 55.2232 59.9467 55.91 59.8149 56.5726C59.6831 57.2351 59.3578 57.8437 58.8801 58.3214C58.4025 58.7991 57.7939 59.1244 57.1313 59.2562C56.4687 59.388 55.782 59.3203 55.1578 59.0618C54.5337 58.8033 54.0003 58.3655 53.625 57.8038C53.2496 57.2421 53.0493 56.5817 53.0493 55.9062C53.0505 55.0007 53.4107 54.1326 54.051 53.4923C54.6913 52.852 55.5594 52.4917 56.4649 52.4906ZM23.9087 34.86H55.8299C56.12 34.86 56.3982 34.7447 56.6033 34.5396C56.8085 34.3345 56.9237 34.0563 56.9237 33.7662C56.9237 33.4761 56.8085 33.1979 56.6033 32.9928C56.3982 32.7877 56.12 32.6725 55.8299 32.6725H23.9087C23.6186 32.6725 23.3404 32.7877 23.1353 32.9928C22.9302 33.1979 22.8149 33.4761 22.8149 33.7662C22.8149 34.0563 22.9302 34.3345 23.1353 34.5396C23.3404 34.7447 23.6186 34.86 23.9087 34.86ZM23.9087 41.0937H55.8299C56.12 41.0937 56.3982 40.9785 56.6033 40.7733C56.8085 40.5682 56.9237 40.29 56.9237 40C56.9237 39.7099 56.8085 39.4317 56.6033 39.2266C56.3982 39.0214 56.12 38.9062 55.8299 38.9062H23.9087C23.6186 38.9062 23.3404 39.0214 23.1353 39.2266C22.9302 39.4317 22.8149 39.7099 22.8149 40C22.8149 40.29 22.9302 40.5682 23.1353 40.7733C23.3404 40.9785 23.6186 41.0937 23.9087 41.0937ZM23.9087 47.3274H31.9999C32.29 47.3274 32.5682 47.2122 32.7733 47.0071C32.9785 46.802 33.0937 46.5238 33.0937 46.2337C33.0937 45.9436 32.9785 45.6654 32.7733 45.4603C32.5682 45.2552 32.29 45.1399 31.9999 45.1399H23.9087C23.6186 45.1399 23.3404 45.2552 23.1353 45.4603C22.9302 45.6654 22.8149 45.9436 22.8149 46.2337C22.8149 46.5238 22.9302 46.802 23.1353 47.0071C23.3404 47.2122 23.6186 47.3274 23.9087 47.3274ZM40.6831 19.43C40.8092 19.4297 40.9334 19.4605 41.0448 19.5197C41.1561 19.579 41.2511 19.6648 41.3213 19.7696C41.3915 19.8743 41.4348 19.9948 41.4473 20.1203C41.4598 20.2458 41.4411 20.3724 41.3929 20.489C41.3447 20.6055 41.2685 20.7084 41.1711 20.7884C41.0736 20.8684 40.9579 20.9232 40.8342 20.9478C40.7105 20.9723 40.5826 20.966 40.4619 20.9293C40.3413 20.8926 40.2315 20.8267 40.1424 20.7375C39.9374 20.5322 39.6592 20.4167 39.369 20.4165C39.0789 20.4164 38.8005 20.5315 38.5953 20.7365C38.39 20.9416 38.2745 21.2198 38.2744 21.5099C38.2742 21.8001 38.3893 22.0784 38.5943 22.2837C38.878 22.5671 39.2166 22.7895 39.5893 22.9375V23.3181C39.5893 23.6082 39.7045 23.8864 39.9097 24.0915C40.1148 24.2966 40.393 24.4118 40.6831 24.4118C40.9731 24.4118 41.2513 24.2966 41.4565 24.0915C41.6616 23.8864 41.7768 23.6082 41.7768 23.3181V22.9343C42.4147 22.6807 42.9441 22.2126 43.274 21.6106C43.6038 21.0086 43.7134 20.3104 43.5838 19.6363C43.4543 18.9622 43.0937 18.3544 42.5642 17.9176C42.0347 17.4807 41.3695 17.2422 40.6831 17.2431C40.48 17.2431 40.2853 17.1624 40.1417 17.0188C39.9981 16.8752 39.9174 16.6805 39.9174 16.4775C39.9174 16.2744 39.9981 16.0797 40.1417 15.9361C40.2853 15.7925 40.48 15.7118 40.6831 15.7118C40.7835 15.7116 40.8831 15.7313 40.9759 15.7698C41.0687 15.8083 41.1529 15.8649 41.2237 15.9362C41.4287 16.1415 41.7069 16.2569 41.9971 16.2571C42.2872 16.2573 42.5656 16.1422 42.7709 15.9371C42.9762 15.7321 43.0916 15.4539 43.0918 15.1637C43.092 14.8736 42.9769 14.5952 42.7718 14.39C42.4882 14.1066 42.1496 13.8844 41.7768 13.7368V13.3562C41.7768 13.0661 41.6616 12.7879 41.4565 12.5828C41.2513 12.3777 40.9731 12.2625 40.6831 12.2625C40.393 12.2625 40.1148 12.3777 39.9097 12.5828C39.7045 12.7879 39.5893 13.0661 39.5893 13.3562V13.74C38.9512 13.9933 38.4214 14.4613 38.0914 15.0633C37.7613 15.6654 37.6516 16.3637 37.7812 17.0379C37.9108 17.7121 38.2716 18.32 38.8013 18.7568C39.331 19.1936 39.9965 19.4319 40.6831 19.4306V19.43Z" fill="#1A75CF"/>
  <path d="M40.6831 29.6938C42.9294 29.6938 45.1252 29.0277 46.993 27.7797C48.8607 26.5317 50.3164 24.7579 51.176 22.6826C52.0356 20.6073 52.2606 18.3237 51.8223 16.1205C51.3841 13.9174 50.3024 11.8937 48.714 10.3053C47.1257 8.71692 45.1019 7.63523 42.8988 7.197C40.6957 6.75876 38.4121 6.98368 36.3367 7.8433C34.2614 8.70293 32.4876 10.1586 31.2397 12.0264C29.9917 13.8941 29.3256 16.09 29.3256 18.3363C29.329 21.3474 30.5267 24.2342 32.6559 26.3634C34.7851 28.4926 37.6719 29.6903 40.6831 29.6938ZM40.6831 9.16689C42.4967 9.16689 44.2697 9.70472 45.7777 10.7124C47.2857 11.72 48.4611 13.1522 49.1551 14.8278C49.8491 16.5035 50.0307 18.3473 49.6768 20.1261C49.3229 21.9049 48.4495 23.5389 47.167 24.8213C45.8845 26.1037 44.2505 26.977 42.4717 27.3308C40.6928 27.6845 38.849 27.5028 37.1734 26.8087C35.4978 26.1145 34.0657 24.9391 33.0582 23.431C32.0506 21.9229 31.5129 20.1499 31.5131 18.3363C31.5159 15.9051 32.4829 13.5744 34.202 11.8554C35.9212 10.1364 38.252 9.16954 40.6831 9.16689ZM23.9087 53.5625H31.9999C32.29 53.5625 32.5682 53.4473 32.7733 53.2422C32.9785 53.037 33.0937 52.7588 33.0937 52.4688C33.0937 52.1787 32.9785 51.9005 32.7733 51.6954C32.5682 51.4902 32.29 51.375 31.9999 51.375H23.9087C23.6186 51.375 23.3404 51.4902 23.1353 51.6954C22.9302 51.9005 22.8149 52.1787 22.8149 52.4688C22.8149 52.7588 22.9302 53.037 23.1353 53.2422C23.3404 53.4473 23.6186 53.5625 23.9087 53.5625ZM23.9087 59.7944H31.9999C32.29 59.7944 32.5682 59.6792 32.7733 59.474C32.9785 59.2689 33.0937 58.9907 33.0937 58.7006C33.0937 58.4106 32.9785 58.1324 32.7733 57.9272C32.5682 57.7221 32.29 57.6069 31.9999 57.6069H23.9087C23.6186 57.6069 23.3404 57.7221 23.1353 57.9272C22.9302 58.1324 22.8149 58.4106 22.8149 58.7006C22.8149 58.9907 22.9302 59.2689 23.1353 59.474C23.3404 59.6792 23.6186 59.7944 23.9087 59.7944ZM23.9087 66.0281H31.9999C32.29 66.0281 32.5682 65.9129 32.7733 65.7078C32.9785 65.5027 33.0937 65.2245 33.0937 64.9344C33.0937 64.6443 32.9785 64.3661 32.7733 64.161C32.5682 63.9559 32.29 63.8406 31.9999 63.8406H23.9087C23.6186 63.8406 23.3404 63.9559 23.1353 64.161C22.9302 64.3661 22.8149 64.6443 22.8149 64.9344C22.8149 65.2245 22.9302 65.5027 23.1353 65.7078C23.3404 65.9129 23.6186 66.0281 23.9087 66.0281Z" fill="#1A75CF"/>
</svg>