<svg xmlns="http://www.w3.org/2000/svg" width="80" height="80" viewBox="0 0 80 80" fill="none">
  <g clip-path="url(#clip0_8378_44029)">
    <path d="M74.6653 1.33325H5.33469C2.39328 1.33325 0 3.72669 0 6.66794V50.6665C0.000124241 51.0201 0.140634 51.3592 0.390646 51.6092C0.640658 51.8592 0.979711 51.9997 1.33328 51.9998H78.6666C79.0201 51.9997 79.3592 51.8592 79.6092 51.6092C79.8592 51.3592 79.9997 51.0201 79.9998 50.6665V6.66794C80 3.72669 77.6067 1.33325 74.6653 1.33325ZM77.3333 49.3333H2.66672V6.66794C2.66672 5.19591 3.86406 3.99997 5.33469 3.99997H74.6653C76.1359 3.99997 77.3333 5.19591 77.3333 6.66794V49.3333Z" fill="#1A75CF"/>
    <path d="M78.6667 49.3333H1.33328C0.979711 49.3334 0.640658 49.4739 0.390646 49.7239C0.140634 49.9739 0.000124241 50.313 0 50.6665L0 57.3318C0 60.2733 2.39328 62.6665 5.33469 62.6665H74.6653C77.6067 62.6665 80 60.2733 80 57.3318V50.6665C79.9999 50.313 79.8594 49.9739 79.6094 49.7239C79.3593 49.4739 79.0203 49.3334 78.6667 49.3333ZM77.3333 57.332C77.3333 58.804 76.1359 60 74.6653 60H5.33469C3.86406 60 2.66672 58.804 2.66672 57.332V52H77.3334L77.3333 57.332Z" fill="#1A75CF"/>
    <path d="M44.0001 54.6667H36.0001C35.2641 54.6667 34.6668 55.2641 34.6668 56C34.6668 56.736 35.2641 57.3333 36.0001 57.3333H44.0001C44.736 57.3333 45.3333 56.736 45.3333 56C45.3333 55.2641 44.736 54.6667 44.0001 54.6667ZM73.3333 6.66675H6.66678C6.31321 6.66687 5.97415 6.80738 5.72414 7.05739C5.47413 7.30741 5.33362 7.64646 5.3335 8.00003V50.6667C5.33362 51.0203 5.47413 51.3594 5.72414 51.6094C5.97415 51.8594 6.31321 51.9999 6.66678 52H73.3335C73.6871 51.9999 74.0261 51.8594 74.2761 51.6094C74.5261 51.3594 74.6667 51.0203 74.6668 50.6667V8.00003C74.6668 7.26409 74.0694 6.66675 73.3333 6.66675ZM72.0001 49.3333H8.00006V9.33331H72.0001V49.3333ZM57.3333 70.6667H22.6668C20.4615 70.6667 18.6668 72.4614 18.6668 74.6667C18.6668 76.8721 20.4615 78.6667 22.6668 78.6667H57.3335C59.5388 78.6667 61.3335 76.8721 61.3335 74.6667C61.3335 72.4614 59.5387 70.6667 57.3333 70.6667ZM57.3333 76H22.6668C21.9308 76 21.3335 75.4014 21.3335 74.6667C21.3335 73.9321 21.9308 73.3335 22.6668 73.3335H57.3335C58.0694 73.3335 58.6668 73.9321 58.6668 74.6667C58.6668 75.4014 58.0694 76 57.3333 76Z" fill="#1A75CF"/>
    <path d="M54.6668 70.6667C50.2427 70.6667 48.0001 67.5267 48.0001 61.3334C47.9999 60.9799 47.8594 60.6408 47.6094 60.3908C47.3594 60.1408 47.0203 60.0003 46.6668 60.0002H33.3335C32.9799 60.0003 32.6409 60.1408 32.3909 60.3908C32.1408 60.6408 32.0003 60.9799 32.0002 61.3334C32.0002 67.5267 29.7576 70.6667 25.3335 70.6667C24.9799 70.6668 24.6409 70.8074 24.3909 71.0574C24.1408 71.3074 24.0003 71.6464 24.0002 72C24.0003 72.3536 24.1408 72.6926 24.3909 72.9426C24.6409 73.1926 24.9799 73.3332 25.3335 73.3333H54.6668C55.0204 73.3332 55.3594 73.1926 55.6094 72.9426C55.8594 72.6926 55.9999 72.3536 56.0001 72C55.9999 71.6464 55.8594 71.3074 55.6094 71.0574C55.3594 70.8074 55.0204 70.6668 54.6668 70.6667ZM31.828 70.6667C33.4694 68.8481 34.436 66.14 34.6307 62.6667H45.3707C45.564 66.14 46.5307 68.8481 48.1733 70.6667H31.828ZM63.7121 40.6186L60.4935 37.4L62.2841 35.6094C62.4473 35.4462 62.5654 35.2434 62.6269 35.0209C62.6883 34.7985 62.6911 34.5638 62.6347 34.34C62.5782 34.1165 62.4647 33.9115 62.3053 33.7449C62.1459 33.5783 61.9461 33.4558 61.7254 33.3894L48.3921 29.3894C48.1616 29.3201 47.9166 29.3147 47.6832 29.3736C47.4498 29.4326 47.2368 29.5537 47.0668 29.7241C46.8962 29.894 46.775 30.107 46.716 30.3404C46.6571 30.5738 46.6626 30.8189 46.7321 31.0494L50.7321 44.3827C50.7981 44.6038 50.9204 44.804 51.0871 44.9636C51.2537 45.1232 51.459 45.2368 51.6827 45.2933C52.136 45.4053 52.6201 45.2745 52.9521 44.9427L54.8374 43.0559L58.056 46.2759C58.3054 46.5266 58.6454 46.6666 58.9987 46.6666C59.3519 46.6666 59.6919 46.5266 59.9413 46.2759L63.7119 42.5039C63.8359 42.3802 63.9342 42.2333 64.0013 42.0715C64.0684 41.9098 64.103 41.7364 64.103 41.5613C64.103 41.3862 64.0685 41.2128 64.0014 41.051C63.9343 40.8893 63.836 40.7423 63.7121 40.6186ZM58.9987 43.448L56.068 40.5159C55.9066 40.3541 55.7148 40.2258 55.5036 40.1384C55.2924 40.051 55.066 40.0062 54.8374 40.0066C54.609 40.0063 54.3827 40.051 54.1716 40.1381C53.9604 40.2253 53.7685 40.3532 53.6068 40.5145L52.6441 41.4772L49.9974 32.6545L58.8201 35.3012L57.788 36.3333C57.648 36.4733 57.537 36.6396 57.4615 36.8227C57.386 37.0058 57.3474 37.202 57.348 37.4C57.3472 37.5985 57.3859 37.7951 57.4619 37.9785C57.5379 38.1619 57.6497 38.3283 57.7907 38.468L60.884 41.5613L58.9987 43.448ZM56.0001 12H18.6668C18.3132 12.0001 17.9742 12.1406 17.7241 12.3906C17.4741 12.6407 17.3336 12.9797 17.3335 13.3333V20C17.3336 20.3536 17.4741 20.6926 17.7241 20.9426C17.9742 21.1926 18.3132 21.3332 18.6668 21.3333H56.0001C56.3536 21.3332 56.6927 21.1926 56.9427 20.9426C57.1927 20.6926 57.3332 20.3536 57.3333 20V13.3333C57.3332 12.9797 57.1927 12.6407 56.9427 12.3906C56.6927 12.1406 56.3536 12.0001 56.0001 12ZM54.6668 18.6667H20.0001V14.6667H54.6668V18.6667ZM34.6668 26.6667H24.0001C23.6465 26.6668 23.3074 26.8074 23.0574 27.0574C22.8074 27.3074 22.6669 27.6464 22.6668 28V33.3333C22.6669 33.6868 22.8074 34.0259 23.0574 34.2759C23.3074 34.5259 23.6465 34.6664 24.0001 34.6666H34.6668C35.0203 34.6664 35.3594 34.5259 35.6094 34.2759C35.8594 34.0259 35.9999 33.6868 36.0001 33.3333V28C35.9999 27.6464 35.8594 27.3074 35.6094 27.0574C35.3594 26.8074 35.0203 26.6668 34.6668 26.6667ZM33.3333 32H25.3333V29.3333H33.3333V32Z" fill="#1A75CF"/>
    <path d="M56.0001 12H18.6668C18.3132 12.0001 17.9742 12.1406 17.7241 12.3906C17.4741 12.6407 17.3336 12.9797 17.3335 13.3333V38.6666C17.3336 39.0201 17.4741 39.3592 17.7241 39.6092C17.9742 39.8592 18.3132 39.9997 18.6668 39.9998H50.4082C50.616 40.0002 50.8211 39.9518 51.0068 39.8584C51.1926 39.7651 51.3538 39.6295 51.4776 39.4625C51.6019 39.2957 51.6855 39.1021 51.7216 38.8972C51.7577 38.6923 51.7453 38.4818 51.6855 38.2825L49.9976 32.6545L55.6176 34.3412C55.8166 34.4011 56.0269 34.4135 56.2316 34.3774C56.4363 34.3412 56.6296 34.2576 56.7962 34.1333C56.963 34.0094 57.0986 33.8482 57.1919 33.6624C57.2852 33.4767 57.3337 33.2717 57.3335 33.0639V13.3333C57.3333 12.5973 56.736 12 56.0001 12ZM54.6668 31.272L48.3907 29.3894C48.1602 29.3201 47.9152 29.3147 47.6818 29.3736C47.4484 29.4326 47.2354 29.5537 47.0654 29.7241C46.8948 29.8942 46.7736 30.1075 46.7146 30.3412C46.6557 30.5748 46.6612 30.82 46.7307 31.0508L48.616 37.3334H20.0001V14.6667H54.6668V31.272Z" fill="#1A75CF"/>
  </g>
  <defs>
    <clipPath id="clip0_8378_44029">
      <rect width="80" height="80" fill="white"/>
    </clipPath>
  </defs>
</svg>