<svg xmlns="http://www.w3.org/2000/svg" width="80" height="80" viewBox="0 0 80 80" fill="none">
  <g clip-path="url(#clip0_8346_47479)">
    <path d="M68.9437 21.5088L47.898 0.463125C47.7512 0.316279 47.5769 0.199798 47.385 0.120334C47.1932 0.0408695 46.9876 -2.02525e-05 46.7799 7.52513e-09L17.1248 7.52513e-09C13.5234 7.52513e-09 10.5935 2.92984 10.5935 6.53125V73.4688C10.5935 77.0702 13.5234 80 17.1248 80H62.8754C66.4768 80 69.4066 77.0702 69.4066 73.4688V22.6267C69.4066 22.2074 69.2401 21.8053 68.9437 21.5088ZM48.3612 5.39828L64.0085 21.0453H51.7301C49.8724 21.0453 48.3613 19.5341 48.3613 17.6763V5.39828H48.3612ZM66.2444 73.4688C66.2444 75.3264 64.7332 76.8378 62.8754 76.8378H17.1248C15.2671 76.8378 13.7557 75.3264 13.7557 73.4688V6.53125C13.7557 4.67359 15.2671 3.16219 17.1248 3.16219H45.1988V17.6766C45.1988 21.278 48.1285 24.2078 51.7299 24.2078H66.2444V73.4688Z" fill="#1A75CF"/>
    <path d="M52.6484 40.1581H27.3518C26.4787 40.1581 25.7708 40.8661 25.7708 41.7392C25.7708 42.6123 26.4787 43.3203 27.3518 43.3203H52.6484C53.5218 43.3203 54.2295 42.6123 54.2295 41.7392C54.2295 40.8661 53.5218 40.1581 52.6484 40.1581ZM52.6484 47.22H27.3518C26.4787 47.22 25.7708 47.9279 25.7708 48.8011C25.7708 49.6742 26.4787 50.3821 27.3518 50.3821H52.6484C53.5218 50.3821 54.2295 49.6742 54.2295 48.8011C54.2295 47.9279 53.5218 47.22 52.6484 47.22ZM52.6484 54.2818H27.3518C26.4787 54.2818 25.7708 54.9898 25.7708 55.8629C25.7708 56.7361 26.4787 57.444 27.3518 57.444H52.6484C53.5218 57.444 54.2295 56.7361 54.2295 55.8629C54.2295 54.9898 53.5218 54.2818 52.6484 54.2818ZM44.427 61.3439H27.3518C26.4787 61.3439 25.7708 62.0518 25.7708 62.925C25.7708 63.7981 26.4787 64.5061 27.3518 64.5061H44.427C45.3004 64.5061 46.0081 63.7981 46.0081 62.925C46.0081 62.0518 45.3004 61.3439 44.427 61.3439Z" fill="#1A75CF"/>
  </g>
  <defs>
    <clipPath id="clip0_8346_47479">
      <rect width="80" height="80" fill="white"/>
    </clipPath>
  </defs>
</svg>