<svg xmlns="http://www.w3.org/2000/svg" width="28" height="28" viewBox="0 0 28 28" fill="none">
  <path d="M6.72935 5.18118C6.62441 4.14135 5.90745 3.28418 4.90208 2.99663L0.450188 1.74609L0 3.32427L4.45184 4.57475C4.8067 4.6757 5.05985 4.97851 5.09671 5.34541L6.62118 20.5933L6.63277 20.5921C6.7147 21.9166 7.80779 22.972 9.15261 22.972H10.0495C9.95761 23.2298 9.89844 23.5038 9.89844 23.7928C9.89844 25.1498 11.0024 26.2537 12.3594 26.2537C13.7164 26.2537 14.8203 25.1498 14.8203 23.7928C14.8203 23.5038 14.7611 23.2298 14.6692 22.972H19.8933C19.8014 23.2298 19.7422 23.5038 19.7422 23.7928C19.7422 25.1498 20.8461 26.2537 22.2031 26.2537C23.5601 26.2537 24.6641 25.1498 24.6641 23.7928C24.6641 22.4358 23.5601 21.3319 22.2031 21.3319H9.15261C8.65916 21.3319 8.25781 20.9305 8.25781 20.4371C8.25781 19.9709 8.60787 19.5879 9.07173 19.5463L24.053 18.1893C25.3676 18.0698 26.3594 16.9844 26.3594 15.6642V8.20687H28V6.56625H6.86782L6.72935 5.18118ZM8.92352 17.912C8.60169 17.9413 8.30091 18.0317 8.02752 18.166L7.52396 13.1288H9.89844V17.8235L8.92352 17.912ZM16.4609 11.4881V8.20687H19.7422V11.4881H16.4609ZM19.7422 13.1287V16.9285L16.4609 17.2268V13.1287H19.7422ZM14.8203 11.4881H11.5391V8.20687H14.8203V11.4881ZM14.8203 13.1287V17.3759L11.5391 17.6742V13.1287H14.8203ZM23.9048 16.555L21.3828 16.7793V13.1287H24.7188V15.6642C24.7188 16.1304 24.3687 16.5133 23.9048 16.555ZM24.7188 11.4881H21.3828V8.20687H24.7188V11.4881ZM9.89844 8.20687V11.4881H7.3599L7.03183 8.20687H9.89844Z" fill="#0051FF"/>
</svg>