<svg xmlns="http://www.w3.org/2000/svg" width="80" height="80" viewBox="0 0 80 80" fill="none">
  <path d="M28.75 65C28.0083 65 27.2833 65.2199 26.6666 65.632C26.0499 66.0441 25.5693 66.6297 25.2855 67.3149C25.0016 68.0002 24.9274 68.7542 25.0721 69.4816C25.2167 70.209 25.5739 70.8772 26.0983 71.4017C26.6228 71.9261 27.291 72.2833 28.0184 72.428C28.7458 72.5726 29.4998 72.4984 30.1851 72.2146C30.8703 71.9307 31.456 71.4501 31.868 70.8334C32.2801 70.2167 32.5 69.4917 32.5 68.75C32.499 67.7558 32.1036 66.8025 31.4006 66.0995C30.6975 65.3964 29.7443 65.001 28.75 65ZM28.75 70C28.5028 70 28.2611 69.9267 28.0555 69.7893C27.85 69.652 27.6898 69.4568 27.5951 69.2284C27.5005 69 27.4758 68.7486 27.524 68.5061C27.5723 68.2637 27.6913 68.0409 27.8661 67.8661C28.0409 67.6913 28.2637 67.5723 28.5061 67.524C28.7486 67.4758 28.9999 67.5005 29.2284 67.5952C29.4568 67.6898 29.652 67.85 29.7893 68.0555C29.9267 68.2611 30 68.5028 30 68.75C30 69.0815 29.8683 69.3995 29.6339 69.6339C29.3995 69.8683 29.0815 70 28.75 70ZM57.5 65C56.7583 65 56.0333 65.2199 55.4166 65.632C54.7999 66.0441 54.3193 66.6297 54.0355 67.3149C53.7516 68.0002 53.6774 68.7542 53.8221 69.4816C53.9668 70.209 54.3239 70.8772 54.8484 71.4017C55.3728 71.9261 56.041 72.2833 56.7684 72.428C57.4958 72.5726 58.2498 72.4984 58.9351 72.2146C59.6203 71.9307 60.206 71.4501 60.618 70.8334C61.0301 70.2167 61.25 69.4917 61.25 68.75C61.249 67.7558 60.8536 66.8025 60.1506 66.0995C59.4475 65.3964 58.4943 65.001 57.5 65ZM57.5 70C57.2528 70 57.0111 69.9267 56.8055 69.7893C56.6 69.652 56.4398 69.4568 56.3452 69.2284C56.2505 69 56.2258 68.7486 56.274 68.5061C56.3223 68.2637 56.4413 68.0409 56.6161 67.8661C56.7909 67.6913 57.0137 67.5723 57.2561 67.524C57.4986 67.4758 57.7499 67.5005 57.9784 67.5952C58.2068 67.6898 58.402 67.85 58.5393 68.0555C58.6767 68.2611 58.75 68.5028 58.75 68.75C58.75 69.0815 58.6183 69.3995 58.3839 69.6339C58.1495 69.8683 57.8315 70 57.5 70ZM48.75 35C51.9639 35 55.1057 34.047 57.778 32.2614C60.4503 30.4758 62.5331 27.9379 63.763 24.9686C64.993 21.9993 65.3148 18.732 64.6878 15.5798C64.0608 12.4276 62.5131 9.53213 60.2405 7.25952C57.9679 4.98692 55.0724 3.43926 51.9202 2.81225C48.768 2.18524 45.5007 2.50704 42.5314 3.73696C39.5621 4.96689 37.0242 7.04969 35.2386 9.72199C33.453 12.3943 32.5 15.5361 32.5 18.75C32.505 23.0583 34.2186 27.1886 37.265 30.235C40.3114 33.2814 44.4418 34.995 48.75 35ZM48.75 5.00001C51.4695 5.00001 54.1279 5.80643 56.3891 7.3173C58.6503 8.82817 60.4126 10.9756 61.4533 13.4881C62.494 16.0006 62.7663 18.7653 62.2358 21.4325C61.7053 24.0997 60.3957 26.5498 58.4727 28.4727C56.5497 30.3957 54.0997 31.7053 51.4325 32.2358C48.7653 32.7663 46.0006 32.4941 43.4881 31.4534C40.9756 30.4126 38.8282 28.6503 37.3173 26.3891C35.8064 24.1279 35 21.4695 35 18.75C35.004 15.1045 36.4539 11.6094 39.0317 9.03167C41.6094 6.45391 45.1045 5.00398 48.75 5.00001ZM74.045 17.5H68.75C68.4185 17.5 68.1005 17.6317 67.8661 17.8661C67.6317 18.1005 67.5 18.4185 67.5 18.75C67.5 19.0815 67.6317 19.3995 67.8661 19.6339C68.1005 19.8683 68.4185 20 68.75 20H74.045C74.2982 20.0003 74.5409 20.1011 74.7199 20.2801C74.8989 20.4591 74.9997 20.7018 75 20.955C75.0001 21.0395 74.9888 21.1236 74.9662 21.205L68.5488 44.7375C68.331 45.5303 67.8593 46.2298 67.2059 46.7288C66.5525 47.2278 65.7534 47.4987 64.9313 47.5H30.4775L22.98 20H28.75C29.0815 20 29.3995 19.8683 29.6339 19.6339C29.8683 19.3995 30 19.0815 30 18.75C30 18.4185 29.8683 18.1005 29.6339 17.8661C29.3995 17.6317 29.0815 17.5 28.75 17.5H22.2975L19.4638 7.10751C19.1013 5.7855 18.3152 4.6189 17.2259 3.78663C16.1367 2.95435 14.8045 2.50237 13.4338 2.50001H6.25C5.25544 2.50001 4.30161 2.8951 3.59835 3.59836C2.89509 4.30162 2.5 5.25545 2.5 6.25001C2.5 7.24457 2.89509 8.1984 3.59835 8.90166C4.30161 9.60492 5.25544 10 6.25 10H12.4788L21.3587 42.565C18.8216 42.8557 16.4918 44.106 14.8471 46.0596C13.2024 48.0132 12.3675 50.522 12.5134 53.0716C12.6594 55.6211 13.7752 58.0182 15.6321 59.7714C17.489 61.5245 19.9463 62.5008 22.5 62.5H22.6375C21.3928 63.7152 20.5385 65.2738 20.1838 66.9768C19.8291 68.6798 19.9901 70.4498 20.6461 72.0609C21.3021 73.672 22.4235 75.051 23.867 76.0217C25.3104 76.9925 27.0105 77.511 28.75 77.511C30.4895 77.511 32.1896 76.9925 33.633 76.0217C35.0765 75.051 36.1979 73.672 36.8539 72.0609C37.5099 70.4498 37.6709 68.6798 37.3162 66.9768C36.9615 65.2738 36.1072 63.7152 34.8625 62.5H51.3875C50.1428 63.7152 49.2885 65.2738 48.9338 66.9768C48.5791 68.6798 48.7401 70.4498 49.3961 72.0609C50.0521 73.672 51.1735 75.051 52.617 76.0217C54.0604 76.9925 55.7605 77.511 57.5 77.511C59.2395 77.511 60.9396 76.9925 62.383 76.0217C63.8265 75.051 64.9479 73.672 65.6039 72.0609C66.2599 70.4498 66.4209 68.6798 66.0662 66.9768C65.7115 65.2738 64.8572 63.7152 63.6125 62.5H66.25C67.2446 62.5 68.1984 62.1049 68.9016 61.4017C69.6049 60.6984 70 59.7446 70 58.75C70 57.7554 69.6049 56.8016 68.9016 56.0984C68.1984 55.3951 67.2446 55 66.25 55H22.5C21.837 55 21.2011 54.7366 20.7322 54.2678C20.2634 53.7989 20 53.1631 20 52.5C20 51.837 20.2634 51.2011 20.7322 50.7322C21.2011 50.2634 21.837 50 22.5 50H64.9313C66.3019 49.9979 67.6341 49.5462 68.7233 48.7141C69.8126 47.8821 70.5987 46.7156 70.9613 45.3938L77.3763 21.8688C77.5171 21.3561 77.5377 20.8178 77.4364 20.2958C77.3351 19.7739 77.1147 19.2824 76.7923 18.8596C76.4699 18.4368 76.0543 18.0941 75.5778 17.8583C75.1012 17.6225 74.5767 17.4999 74.045 17.5ZM35 68.75C35 69.9861 34.6334 71.1945 33.9467 72.2223C33.2599 73.2501 32.2838 74.0512 31.1418 74.5243C29.9997 74.9973 28.7431 75.1211 27.5307 74.8799C26.3183 74.6388 25.2047 74.0435 24.3306 73.1694C23.4565 72.2953 22.8612 71.1817 22.6201 69.9693C22.3789 68.7569 22.5027 67.5003 22.9758 66.3582C23.4488 65.2162 24.2499 64.2401 25.2777 63.5533C26.3055 62.8666 27.5139 62.5 28.75 62.5C30.407 62.502 31.9956 63.1611 33.1672 64.3328C34.3389 65.5045 34.998 67.093 35 68.75ZM63.75 68.75C63.75 69.9861 63.3834 71.1945 62.6967 72.2223C62.0099 73.2501 61.0338 74.0512 59.8918 74.5243C58.7497 74.9973 57.4931 75.1211 56.2807 74.8799C55.0683 74.6388 53.9547 74.0435 53.0806 73.1694C52.2065 72.2953 51.6112 71.1817 51.3701 69.9693C51.1289 68.7569 51.2527 67.5003 51.7258 66.3582C52.1988 65.2162 52.9999 64.2401 54.0277 63.5533C55.0555 62.8666 56.2639 62.5 57.5 62.5C59.157 62.502 60.7456 63.1611 61.9172 64.3328C63.0889 65.5045 63.748 67.093 63.75 68.75ZM22.5 47.5C21.1739 47.5 19.9021 48.0268 18.9645 48.9645C18.0268 49.9022 17.5 51.1739 17.5 52.5C17.5 53.8261 18.0268 55.0979 18.9645 56.0355C19.9021 56.9732 21.1739 57.5 22.5 57.5H66.25C66.5815 57.5 66.8995 57.6317 67.1339 57.8661C67.3683 58.1005 67.5 58.4185 67.5 58.75C67.5 59.0815 67.3683 59.3995 67.1339 59.6339C66.8995 59.8683 66.5815 60 66.25 60H22.5C20.5109 60 18.6032 59.2098 17.1967 57.8033C15.7902 56.3968 15 54.4891 15 52.5C15 50.5109 15.7902 48.6032 17.1967 47.1967C18.6032 45.7902 20.5109 45 22.5 45H22.9775C23.1697 45 23.3593 44.9558 23.5317 44.8706C23.704 44.7854 23.8543 44.6616 23.971 44.5089C24.0877 44.3562 24.1676 44.1786 24.2045 43.9899C24.2414 43.8013 24.2343 43.6067 24.1838 43.4213L14.64 8.42126C14.5679 8.15663 14.4107 7.92307 14.1927 7.75659C13.9747 7.59011 13.708 7.49995 13.4338 7.50001H6.25C5.91848 7.50001 5.60054 7.36831 5.36612 7.13389C5.1317 6.89947 5 6.58153 5 6.25001C5 5.91849 5.1317 5.60054 5.36612 5.36612C5.60054 5.1317 5.91848 5.00001 6.25 5.00001H13.4338C14.2561 5.00102 15.0555 5.2718 15.7091 5.7708C16.3628 6.26981 16.8347 6.96949 17.0525 7.76251L27.8862 47.5H22.5ZM39.1162 19.6338C38.9969 19.5184 38.9016 19.3805 38.8361 19.228C38.7706 19.0755 38.7361 18.9115 38.7347 18.7455C38.7332 18.5795 38.7649 18.4149 38.8277 18.2613C38.8906 18.1077 38.9834 17.9681 39.1008 17.8508C39.2181 17.7334 39.3577 17.6406 39.5113 17.5777C39.6649 17.5149 39.8295 17.4833 39.9955 17.4847C40.1615 17.4861 40.3255 17.5206 40.478 17.5861C40.6305 17.6516 40.7684 17.7469 40.8838 17.8663L46.25 23.2325L56.6162 12.8663C56.7316 12.7469 56.8695 12.6516 57.022 12.5861C57.1745 12.5206 57.3385 12.4861 57.5045 12.4847C57.6705 12.4833 57.8351 12.5149 57.9887 12.5777C58.1423 12.6406 58.2819 12.7334 58.3992 12.8508C58.5166 12.9681 58.6094 13.1077 58.6723 13.2613C58.7351 13.4149 58.7668 13.5795 58.7653 13.7455C58.7639 13.9115 58.7294 14.0755 58.6639 14.228C58.5984 14.3805 58.5031 14.5184 58.3838 14.6338L47.1338 25.8838C46.8993 26.1181 46.5815 26.2497 46.25 26.2497C45.9185 26.2497 45.6007 26.1181 45.3662 25.8838L39.1162 19.6338Z" fill="#1A75CF"/>
</svg>