<svg xmlns="http://www.w3.org/2000/svg" width="28" height="28" viewBox="0 0 28 28" fill="none">
  <path fill-rule="evenodd" clip-rule="evenodd" d="M4.33881 3.43636C4.12793 3.43636 3.95699 3.6073 3.95699 3.81818V13.2479C3.95699 13.4588 4.12794 13.6297 4.33881 13.6297H23.6611C23.872 13.6297 24.0429 13.4588 24.0429 13.2479V3.81818C24.0429 3.6073 23.872 3.43636 23.6611 3.43636H4.33881ZM2.17517 3.81818C2.17517 2.62324 3.14386 1.65454 4.33881 1.65454H23.6611C24.8561 1.65454 25.8247 2.62323 25.8247 3.81818V13.2479C25.8247 14.4429 24.8561 15.4116 23.6611 15.4116H18.5355V18.8364H20.5372C21.7321 18.8364 22.7008 19.8051 22.7008 21V24.1818C22.7008 25.3768 21.7321 26.3455 20.5372 26.3455H7.46277C6.26783 26.3455 5.29914 25.3768 5.29914 24.1818V21C5.29914 19.8051 6.26783 18.8364 7.46277 18.8364H9.46443V15.4116H4.33881C3.14386 15.4116 2.17517 14.4429 2.17517 13.2479V3.81818ZM11.2462 15.4116V20.5372C11.2462 20.7481 11.4172 20.919 11.6281 20.919H16.3719C16.5827 20.919 16.7537 20.7481 16.7537 20.5372V15.4116H11.2462ZM9.46591 20.6182H7.46277C7.2519 20.6182 7.08096 20.7891 7.08096 21V24.1818C7.08096 24.3927 7.2519 24.5636 7.46277 24.5636H20.5372C20.748 24.5636 20.919 24.3927 20.919 24.1818V21C20.919 20.7891 20.748 20.6182 20.5372 20.6182H18.534C18.4914 21.7756 17.5397 22.7008 16.3719 22.7008H11.6281C10.4602 22.7008 9.50851 21.7756 9.46591 20.6182Z" fill="#0051FF"/>
</svg>