<svg xmlns="http://www.w3.org/2000/svg" width="80" height="80" viewBox="0 0 80 80" fill="none">
  <g clip-path="url(#clip0_8342_52173)">
    <path d="M13.9598 65.2486C13.7364 64.4159 12.8803 63.9208 12.0462 64.1442C11.2135 64.3676 10.7184 65.2237 10.9418 66.0578C11.1653 66.8905 12.0214 67.3856 12.8554 67.1623C13.6879 66.9389 14.1832 66.0812 13.9598 65.2486Z" fill="#1A75CF"/>
    <path d="M79.6245 64.0486C78.4636 60.838 74.9233 59.152 71.7042 60.2617L58.7611 63.5573C59.3691 60.9841 58.2797 58.1483 55.7995 56.7172L33.6895 43.9508C31.8814 42.9078 29.7761 42.6313 27.762 43.1717L14.908 46.6158C14.3296 45.9737 13.5848 45.5041 12.756 45.2591C11.9273 45.0141 11.0469 45.0032 10.2123 45.2277L1.15828 47.6539C0.325153 47.8772 -0.169691 48.7341 0.0535906 49.5673L6.52406 73.7106C6.74718 74.5431 7.60328 75.0388 8.43734 74.815L17.4898 72.3889C19.248 71.9183 20.5392 70.4642 20.8759 68.747L23.0727 68.2C24.2559 67.9056 25.4903 68.0798 26.5516 68.692L42.9631 78.105C46.1795 79.9617 49.9056 80.4561 53.448 79.5583C53.4859 79.5486 53.5236 79.5377 53.5608 79.5252L75.8311 72.058C75.842 72.0544 75.8528 72.0505 75.8636 72.0466C79.1045 70.8798 80.792 67.293 79.6245 64.0486ZM16.6814 69.3713L9.13734 71.393L3.47578 50.2677L6.49406 49.4589L9.325 60.0214C9.54781 60.8523 10.4028 61.3498 11.2383 61.1258C12.0716 60.9023 12.5661 60.0458 12.3428 59.2125L9.51203 48.6502L11.0208 48.2459C11.8609 48.0206 12.71 48.5214 12.9352 49.3498L17.7867 67.4608C18.0097 68.283 17.5106 69.1492 16.6814 69.3713ZM74.8197 69.1023L52.6248 76.5442C49.8652 77.2289 46.9906 76.8234 44.5211 75.3978L28.1092 65.9844C26.3469 64.9678 24.2903 64.6781 22.3178 65.1687L20.5264 65.6148L16.21 49.5022L28.5711 46.1898C29.7797 45.8653 31.0434 46.0316 32.1278 46.6572L54.2375 59.4234C55.7164 60.2767 56.2539 62.1794 55.3802 63.6917C54.5241 65.1763 52.6184 65.7042 51.1128 64.8344L37.5844 57.0236C36.8375 56.5925 35.8819 56.8481 35.4505 57.5953C35.0191 58.3425 35.275 59.298 36.0222 59.7292L49.5503 67.5398C51.4502 68.6375 53.8103 68.6869 55.8009 67.5353C73.5752 63.0067 72.5508 63.2769 72.6844 63.2289C74.3052 62.647 76.1006 63.4914 76.6856 65.1088C77.2673 66.7255 76.4305 68.5133 74.8197 69.1023ZM77.1177 21.1025L64.1292 0.728748C63.988 0.507364 63.7934 0.325132 63.5631 0.19889C63.3329 0.0726481 63.0746 0.00646973 62.812 0.00646973C62.5495 0.00646973 62.2911 0.0726481 62.0609 0.19889C61.8307 0.325132 61.636 0.507364 61.4948 0.728748L48.5062 21.1027C40.8837 32.5364 49.3462 48.2772 62.812 48.2772C76.2456 48.2772 84.7609 32.568 77.1177 21.1025ZM62.8119 45.1528C51.9381 45.1528 44.8144 32.2527 51.1136 22.8239C51.1198 22.8145 51.1259 22.8053 51.1319 22.7958L62.8119 4.47422L74.4919 22.7958C74.4978 22.8053 74.5041 22.8145 74.5101 22.8239C80.787 32.2189 73.75 45.1528 62.8119 45.1528Z" fill="#1A75CF"/>
    <path d="M71.9141 24.5616C71.4352 23.8441 70.4654 23.6507 69.7476 24.1299C69.0301 24.6088 68.8366 25.579 69.3159 26.2965C70.1709 27.5771 70.6227 29.0738 70.6227 30.6247C70.6227 35.0354 66.9729 38.9043 62.8119 38.9043C61.9491 38.9043 61.2498 39.6037 61.2498 40.4665C61.2498 41.3293 61.9491 42.0287 62.8119 42.0287C68.7394 42.0287 73.7471 36.8063 73.7471 30.6249C73.7469 28.4541 73.1132 26.3576 71.9141 24.5616Z" fill="#1A75CF"/>
  </g>
  <defs>
    <clipPath id="clip0_8342_52173">
      <rect width="80" height="80" fill="white"/>
    </clipPath>
  </defs>
</svg>