<svg xmlns="http://www.w3.org/2000/svg" width="28" height="28" viewBox="0 0 28 28" fill="none">
  <g clip-path="url(#clip0_8642_49184)">
    <path d="M14.1886 28C13.1097 28.0268 10.99 27.8589 10.2971 27.6943C9.80969 27.5825 9.37108 27.3172 9.04583 26.9374C8.71556 26.5645 8.50801 26.099 8.45138 25.6041V25.5894C8.41508 25.2324 8.40393 24.8733 8.41802 24.5147C8.40391 24.2176 8.41507 23.9197 8.45138 23.6244V23.6097C8.50172 23.1384 8.71257 22.6987 9.04857 22.3644C9.38652 22.0276 9.82885 21.8155 10.3031 21.7629C10.9982 21.6896 13.1135 21.6491 14.1859 21.6497C15.2583 21.6502 16.9865 21.6896 17.6815 21.7629C18.1564 21.8163 18.599 22.0296 18.9366 22.3677C19.2724 22.7022 19.4832 23.1417 19.5338 23.6129V23.6277C19.5685 23.9228 19.5858 24.2198 19.5858 24.5169C19.5876 24.8763 19.5705 25.2356 19.5344 25.5932V25.6079C19.4774 26.103 19.2697 26.5686 18.9394 26.9418C18.6143 27.3216 18.1759 27.5869 17.6886 27.6986C16.9969 27.8501 15.2676 28.0044 14.1886 28Z" fill="#0051FF"/>
    <path d="M14.0001 20.8363C15.8561 20.8363 17.3606 19.3318 17.3606 17.4758C17.3606 15.6198 15.8561 14.1152 14.0001 14.1152C12.1441 14.1152 10.6395 15.6198 10.6395 17.4758C10.6395 19.3318 12.1441 20.8363 14.0001 20.8363Z" fill="#0051FF"/>
    <path d="M22.7222 20.4612C24.4745 20.4612 25.8951 19.0406 25.8951 17.2882C25.8951 15.5358 24.4745 14.1152 22.7222 14.1152C20.9698 14.1152 19.5492 15.5358 19.5492 17.2882C19.5492 19.0406 20.9698 20.4612 22.7222 20.4612Z" fill="#0051FF"/>
    <path d="M5.27795 20.4612C7.03033 20.4612 8.45092 19.0406 8.45092 17.2882C8.45092 15.5358 7.03033 14.1152 5.27795 14.1152C3.52557 14.1152 2.10498 15.5358 2.10498 17.2882C2.10498 19.0406 3.52557 20.4612 5.27795 20.4612Z" fill="#0051FF"/>
    <path d="M18.8207 3.7023C18.4449 3.64326 18.1059 3.44244 17.8736 3.14114C17.6413 2.83984 17.5332 2.46097 17.5717 2.08245C17.5834 1.97819 17.6071 1.87562 17.6422 1.77675C17.684 1.64301 17.6848 1.4998 17.6443 1.36564C17.6039 1.23148 17.5241 1.11255 17.4153 1.02425C16.9404 0.614432 16.402 0.284721 15.8211 0.0480773C15.6945 -0.0053556 15.5536 -0.0150057 15.4209 0.0206557C15.2882 0.0563171 15.1711 0.135251 15.0883 0.244952C14.9781 0.390308 14.8399 0.512136 14.6818 0.603258C14.5238 0.69438 14.3491 0.752955 14.1681 0.775532C13.9871 0.798108 13.8034 0.78423 13.6278 0.734715C13.4522 0.685199 13.2884 0.601048 13.1458 0.487218C13.0578 0.416736 12.9792 0.335325 12.9117 0.244952C12.8289 0.135251 12.7119 0.0563171 12.5792 0.0206557C12.4464 -0.0150057 12.3056 -0.0053556 12.1789 0.0480773C11.6432 0.26594 11.1432 0.563116 10.6958 0.92964C10.5817 1.01915 10.4977 1.14141 10.4551 1.28002C10.4125 1.41863 10.4133 1.56696 10.4574 1.70511C10.7248 2.41605 10.3639 3.24675 9.62995 3.54972C9.49916 3.6043 9.36122 3.63985 9.22034 3.65526C9.0771 3.67228 8.94255 3.73293 8.83494 3.829C8.72733 3.92506 8.65187 4.05189 8.61878 4.1923C8.48438 4.7889 8.47248 5.40658 8.58378 6.00792C8.61244 6.15277 8.68635 6.28478 8.79485 6.38493C8.90335 6.48507 9.04085 6.54819 9.18752 6.56519C9.56422 6.60501 9.91121 6.78809 10.1567 7.07656C10.4022 7.36502 10.5275 7.73681 10.5066 8.11503C10.4972 8.27043 10.4612 8.42306 10.3999 8.5662C10.2835 8.83472 10.3737 9.16011 10.6138 9.35808C11.0862 9.76091 11.6201 10.0853 12.1953 10.3189C12.2666 10.3465 12.3421 10.3621 12.4185 10.3649C12.5217 10.3671 12.6238 10.3433 12.7153 10.2955C12.8068 10.2476 12.8847 10.1775 12.9418 10.0914C13.0652 9.90407 13.2333 9.75039 13.4309 9.64431C13.6286 9.53823 13.8495 9.48308 14.0739 9.48386C14.2909 9.48351 14.505 9.53499 14.6981 9.634C14.8913 9.73302 15.0581 9.87672 15.1846 10.0532C15.267 10.1704 15.3878 10.2552 15.5261 10.2929C15.6644 10.3305 15.8115 10.3187 15.942 10.2593C16.4668 10.0261 16.9549 9.71747 17.3906 9.34331C17.5014 9.2536 17.5821 9.13224 17.6221 8.99544C17.6621 8.85864 17.6593 8.71291 17.6143 8.57769C17.3409 7.87222 17.6898 7.03714 18.4204 6.72651C18.5439 6.67256 18.6742 6.63576 18.8076 6.61714C18.9491 6.59656 19.0809 6.5331 19.1852 6.43532C19.2896 6.33754 19.3614 6.21014 19.3911 6.07026C19.454 5.77698 19.4881 5.47824 19.4928 5.17831C19.4926 4.862 19.4595 4.54657 19.3939 4.23714C19.3639 4.10029 19.2931 3.97574 19.1909 3.87996C19.0887 3.78417 18.9598 3.72165 18.8213 3.70066L18.8207 3.7023ZM15.831 5.17886C15.8312 5.54103 15.724 5.89513 15.5229 6.19637C15.3219 6.49761 15.036 6.73246 14.7015 6.8712C14.3669 7.00995 13.9987 7.04637 13.6435 6.97584C13.2883 6.90532 12.9619 6.73103 12.7057 6.47501C12.4496 6.21899 12.2751 5.89275 12.2043 5.53755C12.1336 5.18236 12.1698 4.81416 12.3084 4.47954C12.4469 4.14491 12.6816 3.85889 12.9827 3.65766C13.2838 3.45643 13.6379 3.34901 14 3.34901C14.4849 3.35146 14.9492 3.54514 15.292 3.88798C15.6348 4.23082 15.8285 4.69511 15.831 5.17995V5.17886ZM28 23.9317C28.0001 23.651 27.9838 23.3706 27.9514 23.0917V23.0781C27.9038 22.6331 27.7047 22.218 27.3875 21.9023C27.0691 21.5829 26.6513 21.3815 26.203 21.3314C25.5467 21.2619 23.9171 21.222 22.9021 21.222C21.8871 21.222 19.9014 21.2597 19.238 21.3286C19.3796 21.4293 19.5126 21.5416 19.6356 21.6644C20.1303 22.159 20.4408 22.808 20.5155 23.5035V23.5227C20.5533 23.8586 20.5715 24.1964 20.5702 24.5344C20.5721 24.921 20.5538 25.3074 20.5155 25.6921V25.7058C20.4633 26.187 20.3076 26.6512 20.0589 27.0664C20.941 27.1676 22.1725 27.2436 22.9026 27.2256C23.9214 27.2327 25.5539 27.0867 26.209 26.9385C26.6691 26.8331 27.0831 26.5825 27.3897 26.2237C27.7016 25.872 27.8976 25.4329 27.9514 24.9659V24.9522C27.9856 24.6132 28.0019 24.2725 28 23.9317ZM7.47198 25.7031V25.6878C7.43305 25.3001 7.4199 24.9102 7.4326 24.5207C7.42094 24.1872 7.4341 23.8532 7.47198 23.5216V23.5057C7.51834 23.0732 7.65629 22.6556 7.87666 22.2806C8.09703 21.9056 8.39476 21.5818 8.75002 21.3308C8.08995 21.2614 6.46792 21.2242 5.4562 21.2242C4.44448 21.2242 2.44401 21.2619 1.78776 21.3335C1.33929 21.3827 0.920926 21.5831 0.601587 21.9017C0.284461 22.2176 0.0855846 22.633 0.0383062 23.0781V23.0917C0.00365534 23.3703 -0.00732145 23.6513 0.00549369 23.9317C-0.00770803 24.2702 0.00289099 24.6092 0.0372124 24.9462V24.9604C0.0910557 25.4274 0.287123 25.8665 0.598853 26.2182C0.905732 26.577 1.31987 26.8276 1.7801 26.933C2.43635 27.0889 4.43628 27.2469 5.4551 27.2217C6.28224 27.2166 7.10843 27.1648 7.92971 27.0664C7.68046 26.6504 7.5243 26.1853 7.47198 25.7031ZM5.21995 13.5078C5.18167 13.5078 5.14393 13.5078 5.1051 13.5017C4.96928 13.4868 4.83772 13.4453 4.71797 13.3795C4.59822 13.3137 4.49263 13.2249 4.40724 13.1182C4.32185 13.0115 4.25834 12.8891 4.22034 12.7578C4.18234 12.6266 4.17061 12.4891 4.18581 12.3533C4.43354 10.0925 6.00253 8.10519 8.18182 7.29089C8.43999 7.19444 8.72591 7.20449 8.97666 7.31885C9.22742 7.4332 9.42248 7.64248 9.51893 7.90066C9.61538 8.15883 9.60533 8.44474 9.49097 8.6955C9.37662 8.94625 9.16734 9.14131 8.90917 9.23776C7.45776 9.77972 6.41487 11.0917 6.25135 12.5797C6.224 12.8343 6.10359 13.0698 5.91324 13.2411C5.7229 13.4124 5.47601 13.5073 5.21995 13.5078ZM22.7801 13.5078C22.5238 13.5073 22.2767 13.4121 22.0863 13.2405C21.8959 13.0689 21.7757 12.833 21.7487 12.5781C21.5846 11.09 20.5423 9.77808 19.0909 9.23612C18.8327 9.13967 18.6234 8.94461 18.5091 8.69386C18.3947 8.4431 18.3847 8.15719 18.4811 7.89901C18.5776 7.64084 18.7726 7.43156 19.0234 7.31721C19.2741 7.20285 19.5601 7.1928 19.8182 7.28925C21.9975 8.10355 23.5665 10.0909 23.8142 12.3517C23.8294 12.4875 23.8177 12.6249 23.7797 12.7562C23.7417 12.8874 23.6782 13.0099 23.5928 13.1166C23.5074 13.2233 23.4018 13.312 23.2821 13.3778C23.1623 13.4437 23.0308 13.4852 22.8949 13.5001C22.8594 13.5028 22.8184 13.5078 22.7801 13.5078Z" fill="#0051FF"/>
  </g>
  <defs>
    <clipPath id="clip0_8642_49184">
      <rect width="28" height="28" fill="white"/>
    </clipPath>
  </defs>
</svg>