<svg xmlns="http://www.w3.org/2000/svg" width="80" height="80" viewBox="0 0 80 80" fill="none">
  <path d="M34.9712 27.8428C33.7639 26.6594 31.897 26.755 30.7903 27.8839L26.9547 31.7958L25.9019 30.6944C24.7501 29.4891 22.8769 29.4963 21.7219 30.5999C20.5434 31.7261 20.5011 33.6013 21.6273 34.7799L24.7903 38.0891C25.9317 39.2834 27.8578 39.3203 29.0387 38.1163L35.0123 32.0238C36.1564 30.8569 36.1379 28.9869 34.9712 27.8428ZM33.3384 30.3827L27.3648 36.4752C27.3072 36.5336 27.2385 36.5799 27.1627 36.6114C27.0869 36.643 27.0056 36.6591 26.9236 36.6588C26.8415 36.6581 26.7603 36.641 26.6849 36.6085C26.6095 36.576 26.5414 36.5287 26.4845 36.4695L23.3215 33.1603C23.2095 33.0428 23.1486 32.8856 23.1522 32.7232C23.1559 32.5609 23.2238 32.4066 23.3411 32.2942C23.3992 32.2386 23.4677 32.195 23.5427 32.1659C23.6177 32.1368 23.6977 32.1227 23.7782 32.1245C23.8586 32.1263 23.9379 32.144 24.0115 32.1765C24.0851 32.2089 24.1516 32.2556 24.2072 32.3138L26.0965 34.2905C26.55 34.7649 27.313 34.7781 27.7806 34.3013L32.464 29.5249C32.5203 29.4674 32.5874 29.4215 32.6614 29.39C32.7354 29.3584 32.8149 29.3418 32.8954 29.341C32.9758 29.3403 33.0556 29.3554 33.1302 29.3855C33.2048 29.4156 33.2728 29.4602 33.3301 29.5166C33.3877 29.5728 33.4335 29.6399 33.4651 29.7139C33.4966 29.7879 33.5133 29.8674 33.514 29.9479C33.5148 30.0284 33.4997 30.1082 33.4695 30.1828C33.4394 30.2574 33.3948 30.3253 33.3384 30.3827ZM34.9712 41.6738C33.8056 40.5308 31.9345 40.548 30.7903 41.7147L26.9547 45.6266L25.9019 44.5252C24.7672 43.3375 22.8962 43.3084 21.7219 44.4306C20.5434 45.5569 20.5011 47.432 21.6273 48.6106L24.7903 51.9199C25.9447 53.1277 27.8701 53.1384 29.0387 51.947L35.0123 45.8547C36.1561 44.6878 36.1379 42.8178 34.9712 41.6738ZM33.3384 44.2134L27.3648 50.3058C27.3073 50.3644 27.2386 50.4108 27.1628 50.4424C27.087 50.4739 27.0056 50.4899 26.9235 50.4893C26.8414 50.4888 26.7602 50.4718 26.6848 50.4393C26.6094 50.4068 26.5413 50.3595 26.4845 50.3002L23.3215 46.9908C23.2095 46.8733 23.1486 46.7161 23.1522 46.5538C23.1559 46.3914 23.2238 46.2372 23.3411 46.1249C23.3992 46.0692 23.4677 46.0256 23.5427 45.9964C23.6177 45.9673 23.6977 45.9532 23.7782 45.955C23.8586 45.9568 23.9379 45.9745 24.0115 46.007C24.0851 46.0395 24.1516 46.0862 24.2072 46.1444L26.0965 48.1211C26.5405 48.5855 27.302 48.62 27.7806 48.1319L32.464 43.3555C32.5204 43.298 32.5874 43.2523 32.6614 43.2207C32.7354 43.1892 32.8149 43.1726 32.8954 43.1719C32.9758 43.1711 33.0556 43.1862 33.1302 43.2163C33.2048 43.2463 33.2727 43.2908 33.3301 43.3472C33.3876 43.4035 33.4335 43.4706 33.465 43.5446C33.4966 43.6186 33.5132 43.6981 33.514 43.7786C33.5147 43.8591 33.4996 43.9389 33.4695 44.0135C33.4394 44.0881 33.3948 44.1561 33.3384 44.2134ZM34.9711 55.5045C33.8056 54.3616 31.934 54.3788 30.7903 55.5455L26.9547 59.4575L25.9019 58.3561C24.7673 57.1688 22.8958 57.1395 21.7219 58.2616C20.5434 59.3878 20.5011 61.263 21.6273 62.4416L24.7901 65.7508C25.3401 66.3264 26.1122 66.6594 26.9161 66.6645H26.9275C27.3205 66.6636 27.7094 66.5847 28.0717 66.4326C28.4341 66.2804 28.7627 66.058 29.0386 65.7781L35.0122 59.6856C36.1561 58.5188 36.1379 56.6488 34.9711 55.5045ZM33.3384 58.0444L27.3648 64.1369C27.3076 64.1949 27.2395 64.241 27.1644 64.2725C27.0894 64.304 27.0088 64.3203 26.9273 64.3205C26.8446 64.3203 26.7627 64.3035 26.6866 64.271C26.6106 64.2384 26.5418 64.1909 26.4845 64.1313L23.3215 60.822C23.266 60.7639 23.2224 60.6954 23.1933 60.6204C23.1642 60.5454 23.1501 60.4654 23.1519 60.385C23.1537 60.3045 23.1714 60.2252 23.2038 60.1516C23.2363 60.078 23.2829 60.0115 23.3411 59.9559C23.3992 59.9004 23.4678 59.8568 23.5428 59.8277C23.6177 59.7986 23.6977 59.7845 23.7782 59.7863C23.8586 59.7882 23.9379 59.8058 24.0115 59.8382C24.0851 59.8707 24.1516 59.9173 24.2072 59.9755L26.0965 61.9522C26.5655 62.4428 27.3323 62.4203 27.7806 61.963L32.464 57.1866C32.5778 57.0706 32.733 57.0046 32.8954 57.0031C33.0578 57.0015 33.2142 57.0646 33.3301 57.1783C33.3876 57.2346 33.4335 57.3016 33.465 57.3756C33.4966 57.4497 33.5132 57.5292 33.514 57.6096C33.5147 57.6901 33.4996 57.7699 33.4695 57.8445C33.4394 57.9191 33.3948 57.987 33.3384 58.0444ZM57.2301 31.828H39.9997C39.6889 31.828 39.3908 31.9514 39.171 32.1712C38.9513 32.391 38.8278 32.6891 38.8278 32.9999C38.8278 33.3107 38.9513 33.6087 39.171 33.8285C39.3908 34.0483 39.6889 34.1717 39.9997 34.1717H57.2301C57.5409 34.1717 57.839 34.0483 58.0588 33.8285C58.2785 33.6087 58.402 33.3107 58.402 32.9999C58.402 32.6891 58.2785 32.391 58.0588 32.1712C57.839 31.9514 57.5409 31.828 57.2301 31.828ZM57.2301 46.0495H39.9997C39.6889 46.0495 39.3908 46.173 39.171 46.3928C38.9513 46.6125 38.8278 46.9106 38.8278 47.2214C38.8278 47.5322 38.9513 47.8303 39.171 48.0501C39.3908 48.2698 39.6889 48.3933 39.9997 48.3933H57.2301C57.5409 48.3933 57.839 48.2698 58.0588 48.0501C58.2785 47.8303 58.402 47.5322 58.402 47.2214C58.402 46.9106 58.2785 46.6125 58.0588 46.3928C57.839 46.173 57.5409 46.0495 57.2301 46.0495ZM57.2301 60.271H39.9997C39.6889 60.271 39.3908 60.3944 39.171 60.6142C38.9513 60.834 38.8278 61.132 38.8278 61.4428C38.8278 61.7536 38.9513 62.0517 39.171 62.2715C39.3908 62.4912 39.6889 62.6147 39.9997 62.6147H57.2301C57.5409 62.6147 57.839 62.4912 58.0588 62.2715C58.2785 62.0517 58.402 61.7536 58.402 61.4428C58.402 61.132 58.2785 60.834 58.0588 60.6142C57.839 60.3944 57.5409 60.271 57.2301 60.271Z" fill="#1A75CF"/>
  <path d="M68.5062 46.6172C68.1954 46.6172 67.8973 46.7407 67.6775 46.9604C67.4577 47.1802 67.3343 47.4783 67.3343 47.7891V74.5844C67.3343 76.2781 65.9563 77.6561 64.2627 77.6561H15.7369C14.0432 77.6561 12.6654 76.278 12.6654 74.5844V14.1366C12.6654 12.4428 14.0432 11.0648 15.7369 11.0648H25.6644V11.7284C25.6644 13.4086 27.0315 14.7755 28.7115 14.7755H29.1515V16.8631H17.5858C16.3591 16.8631 15.3612 17.8611 15.3612 19.0878V72.9511C15.3612 74.178 16.3591 75.1758 17.5858 75.1758H37.2649C37.5757 75.1758 37.8738 75.0523 38.0935 74.8326C38.3133 74.6128 38.4368 74.3147 38.4368 74.0039C38.4368 73.6931 38.3133 73.395 38.0935 73.1753C37.8738 72.9555 37.5757 72.832 37.2649 72.832H17.7052V19.2069H29.1515V21.0527C29.1515 22.4786 30.3113 23.6384 31.7372 23.6384H48.2618C49.6877 23.6384 50.8477 22.4786 50.8477 21.0527V19.2069H62.2938V72.8317H42.7341C42.0868 72.8317 41.5622 73.3564 41.5622 74.0036C41.5622 74.6508 42.0868 75.1755 42.7341 75.1755H62.4132C63.6401 75.1755 64.6379 74.1775 64.6379 72.9508V19.0877C64.6379 17.8611 63.6399 16.863 62.4132 16.863H50.8479V14.7755H51.2877C52.9679 14.7755 54.3347 13.4084 54.3347 11.7284V11.7205L54.3349 11.7175V11.0648H64.2624C65.9562 11.0648 67.334 12.443 67.334 14.1366V42.3202C67.3375 42.6286 67.4626 42.9233 67.682 43.1401C67.9014 43.357 68.1974 43.4787 68.5059 43.4787C68.8144 43.4787 69.1105 43.357 69.3299 43.1401C69.5493 42.9233 69.6743 42.6286 69.6779 42.3202V14.1366C69.6779 11.1503 67.2485 8.72094 64.2624 8.72094H54.3347V8.01062C54.3347 6.33047 52.9677 4.96359 51.2877 4.96359H44.9057V3.05797C44.9057 1.37187 43.5338 0 41.8477 0H38.1518C36.4655 0 35.094 1.37187 35.094 3.05797V4.96328H28.7118C27.0316 4.96328 25.6647 6.33016 25.6647 8.01031V8.72062H15.7372C12.7512 8.72062 10.3218 11.15 10.3218 14.1362V74.5841C10.3218 77.5703 12.7512 79.9997 15.7372 79.9997H64.2629C67.249 79.9997 69.6783 77.5703 69.6783 74.5841V47.7892C69.6783 47.4784 69.5547 47.1803 69.3349 46.9605C69.1151 46.7407 68.817 46.6172 68.5062 46.6172ZM48.5038 21.0527C48.5037 21.1168 48.4782 21.1783 48.4328 21.2237C48.3874 21.269 48.3259 21.2945 48.2618 21.2945H31.7372C31.6731 21.2944 31.6116 21.2689 31.5663 21.2236C31.521 21.1783 31.4955 21.1168 31.4954 21.0527V19.2069H48.504V21.0527H48.5038ZM48.504 16.8631H31.4955V14.7755H48.5041V16.8631H48.504ZM37.4374 3.05797C37.4376 2.67078 37.7646 2.34391 38.1515 2.34391H41.8474C42.2346 2.34391 42.5615 2.67094 42.5615 3.05797V4.96328H37.4374V3.05797ZM28.0082 8.01047C28.0082 7.62937 28.3302 7.30734 28.7113 7.30734H51.2876C51.6687 7.30734 51.9907 7.62937 51.9907 8.01047V11.7188C51.9899 12.1052 51.6633 12.4314 51.2768 12.4314H28.7222C28.3351 12.4314 28.0082 12.1044 28.0082 11.7173V8.01047Z" fill="#1A75CF"/>
</svg>