<svg xmlns="http://www.w3.org/2000/svg" width="80" height="80" viewBox="0 0 80 80" fill="none">
  <path d="M75 10.175H5C4.66848 10.175 4.35054 10.3067 4.11612 10.5412C3.8817 10.7756 3.75 11.0935 3.75 11.425V68.5751C3.75 68.9066 3.8817 69.2245 4.11612 69.4589C4.35054 69.6934 4.66848 69.8251 5 69.8251H75C75.3315 69.8251 75.6495 69.6934 75.8839 69.4589C76.1183 69.2245 76.25 68.9066 76.25 68.5751V11.425C76.25 11.0935 76.1183 10.7756 75.8839 10.5412C75.6495 10.3067 75.3315 10.175 75 10.175ZM73.75 67.3251H6.25V12.675H73.75V67.3251Z" fill="#1A75CF"/>
  <path d="M67 16.8375C67.6904 16.8375 68.25 16.2779 68.25 15.5875C68.25 14.8972 67.6904 14.3375 67 14.3375C66.3096 14.3375 65.75 14.8972 65.75 15.5875C65.75 16.2779 66.3096 16.8375 67 16.8375Z" fill="#1A75CF"/>
  <path d="M70.8877 16.8375C71.5781 16.8375 72.1377 16.2779 72.1377 15.5875C72.1377 14.8972 71.5781 14.3375 70.8877 14.3375C70.1973 14.3375 69.6377 14.8972 69.6377 15.5875C69.6377 16.2779 70.1973 16.8375 70.8877 16.8375Z" fill="#1A75CF"/>
  <path d="M63.1123 16.8375C63.8027 16.8375 64.3623 16.2779 64.3623 15.5875C64.3623 14.8972 63.8027 14.3375 63.1123 14.3375C62.4219 14.3375 61.8623 14.8972 61.8623 15.5875C61.8623 16.2779 62.4219 16.8375 63.1123 16.8375Z" fill="#1A75CF"/>
  <path d="M10.4248 16.8375H24.1748C24.5063 16.8375 24.8243 16.7058 25.0587 16.4714C25.2931 16.237 25.4248 15.919 25.4248 15.5875C25.4248 15.256 25.2931 14.9381 25.0587 14.7036C24.8243 14.4692 24.5063 14.3375 24.1748 14.3375H10.4248C10.0933 14.3375 9.77534 14.4692 9.54092 14.7036C9.3065 14.9381 9.1748 15.256 9.1748 15.5875C9.1748 15.919 9.3065 16.237 9.54092 16.4714C9.77534 16.7058 10.0933 16.8375 10.4248 16.8375ZM21.1498 28.1125V30.2875H11.3248C10.9933 30.2875 10.6753 30.4192 10.4409 30.6536C10.2065 30.8881 10.0748 31.206 10.0748 31.5375V56.3625C10.0748 56.694 10.2065 57.012 10.4409 57.2464C10.6753 57.4808 10.9933 57.6125 11.3248 57.6125H21.1498V59.8C21.1498 60.1315 21.2815 60.4495 21.5159 60.6839C21.7503 60.9183 22.0683 61.05 22.3998 61.05H57.5998C57.9313 61.05 58.2493 60.9183 58.4837 60.6839C58.7181 60.4495 58.8498 60.1315 58.8498 59.8V57.6125H68.6748C69.0063 57.6125 69.3243 57.4808 69.5587 57.2464C69.7931 57.012 69.9248 56.694 69.9248 56.3625V31.5375C69.9248 31.206 69.7931 30.8881 69.5587 30.6536C69.3243 30.4192 69.0063 30.2875 68.6748 30.2875H58.8498V28.1125C58.8498 27.781 58.7181 27.4631 58.4837 27.2286C58.2493 26.9942 57.9313 26.8625 57.5998 26.8625H22.3998C22.0683 26.8625 21.7503 26.9942 21.5159 27.2286C21.2815 27.4631 21.1498 27.781 21.1498 28.1125ZM12.5748 55.1125V32.7875H21.1498V55.1125H12.5748ZM67.4248 32.7875V55.1125H58.8498V32.7875H67.4248ZM23.6748 29.3625H56.3498V58.55H23.6498L23.6748 29.3625Z" fill="#1A75CF"/>
  <path d="M39.9998 34.1875C38.069 34.1875 36.1815 34.7601 34.5761 35.8328C32.9706 36.9055 31.7193 38.4302 30.9804 40.2141C30.2415 41.9979 30.0482 43.9608 30.4249 45.8546C30.8016 47.7483 31.7314 49.4878 33.0967 50.8531C34.462 52.2184 36.2015 53.1482 38.0952 53.5249C39.989 53.9016 41.9519 53.7083 43.7358 52.9694C45.5196 52.2305 47.0443 50.9792 48.117 49.3738C49.1897 47.7683 49.7623 45.8808 49.7623 43.95C49.759 41.3618 48.7294 38.8806 46.8993 37.0505C45.0692 35.2204 42.588 34.1908 39.9998 34.1875ZM39.9998 51.25C38.5634 51.25 37.1593 50.8241 35.965 50.026C34.7707 49.228 33.8398 48.0938 33.2901 46.7667C32.7405 45.4397 32.5966 43.9794 32.8769 42.5707C33.1571 41.1619 33.8488 39.8678 34.8644 38.8521C35.8801 37.8365 37.1742 37.1448 38.583 36.8645C39.9918 36.5843 41.452 36.7281 42.779 37.2778C44.1061 37.8275 45.2403 38.7584 46.0384 39.9527C46.8364 41.147 47.2623 42.5511 47.2623 43.9875C47.2623 44.9412 47.0745 45.8856 46.7095 46.7667C46.3445 47.6479 45.8096 48.4485 45.1352 49.1229C44.4608 49.7972 43.6602 50.3322 42.779 50.6972C41.8979 51.0621 40.9535 51.25 39.9998 51.25Z" fill="#1A75CF"/>
  <path d="M43.8127 42.8375L38.2377 40C38.0477 39.8903 37.8321 39.8325 37.6127 39.8325C37.3933 39.8325 37.1777 39.8903 36.9877 40C36.8053 40.1111 36.6543 40.267 36.5493 40.4531C36.4442 40.6391 36.3886 40.8489 36.3877 41.0625V46.6375C36.3862 46.8516 36.4398 47.0626 36.5432 47.2501C36.6467 47.4376 36.7965 47.5953 36.9785 47.7083C37.1604 47.8212 37.3683 47.8855 37.5823 47.895C37.7962 47.9045 38.009 47.8589 38.2002 47.7625L43.7752 44.975C43.9832 44.8713 44.1582 44.7117 44.2805 44.5141C44.4028 44.3165 44.4676 44.0886 44.4676 43.8562C44.4676 43.6238 44.4028 43.396 44.2805 43.1984C44.1582 43.0008 43.9832 42.8412 43.7752 42.7375L43.8127 42.8375ZM38.9252 44.725V43.1875L40.4627 43.95L38.9252 44.725Z" fill="#1A75CF"/>
</svg>