<svg xmlns="http://www.w3.org/2000/svg" width="28" height="28" viewBox="0 0 28 28" fill="none">
  <path fill-rule="evenodd" clip-rule="evenodd" d="M0.767944 6.53321C0.767944 4.29953 2.5787 2.48877 4.81239 2.48877H23.1874C25.4211 2.48877 27.2318 4.29953 27.2318 6.53321V24.9082C27.2318 25.2089 26.9881 25.4527 26.6874 25.4527H25.3749C25.0742 25.4527 24.8304 25.2089 24.8304 24.9082C24.8304 24.6075 25.0742 24.3638 25.3749 24.3638H26.1429V9.29407C25.4048 10.0839 24.3538 10.5777 23.1874 10.5777H4.81239C3.64602 10.5777 2.59497 10.0839 1.85683 9.29407V24.3638H2.62489C2.92558 24.3638 3.16933 24.6075 3.16933 24.9082C3.16933 25.2089 2.92558 25.4527 2.62489 25.4527H1.31239C1.0117 25.4527 0.767944 25.2089 0.767944 24.9082V6.53321ZM23.1874 3.57766C24.8197 3.57766 26.1429 4.90091 26.1429 6.53321C26.1429 8.16552 24.8197 9.48877 23.1874 9.48877H4.81239C3.18008 9.48877 1.85683 8.16552 1.85683 6.53321C1.85683 4.90091 3.18008 3.57766 4.81239 3.57766H23.1874ZM6.56239 6.53322C6.56239 7.49971 5.77889 8.28322 4.81239 8.28322C3.84589 8.28322 3.06239 7.49971 3.06239 6.53322C3.06239 5.56672 3.84589 4.78321 4.81239 4.78321C5.77889 4.78321 6.56239 5.56672 6.56239 6.53322ZM23.1874 8.28322C24.1539 8.28322 24.9374 7.49971 24.9374 6.53322C24.9374 5.56672 24.1539 4.78321 23.1874 4.78321C22.2209 4.78321 21.4374 5.56672 21.4374 6.53322C21.4374 7.49971 22.2209 8.28322 23.1874 8.28322ZM21.3535 17.9596C21.4624 17.9596 21.5928 18.0429 21.6295 18.15C21.7726 18.5669 21.7727 18.8055 21.6296 19.2224C21.5928 19.3295 21.4624 19.4128 21.3536 19.4128H19.9397L19.9357 19.4124L19.9571 19.4716C20.2453 19.5674 20.4534 19.8388 20.4534 20.1592V22.3473V22.5276V24.9488C20.4534 25.1413 20.2974 25.2973 20.1049 25.2973H18.3512C18.1588 25.2973 18.0028 25.1413 18.0028 24.9488V23.2526H9.99749V24.9488C9.99749 25.1413 9.84148 25.2973 9.64904 25.2973H7.89535C7.70288 25.2973 7.5469 25.1413 7.5469 24.9488V22.5276V22.3473V20.1592C7.5469 19.8387 7.75506 19.5673 8.04336 19.4715L8.06469 19.4124L8.06058 19.4128H6.64667C6.53786 19.4128 6.40745 19.3296 6.37068 19.2225C6.22752 18.8055 6.22745 18.5669 6.37064 18.15C6.40741 18.0429 6.53782 17.9596 6.64663 17.9596H8.06054C8.16934 17.9596 8.29975 18.0429 8.33653 18.15C8.37256 18.2549 8.39946 18.3485 8.41738 18.4365L9.36188 15.8234C9.51773 15.3924 9.93021 15.103 10.3884 15.103H17.6119C18.07 15.103 18.4826 15.3924 18.6384 15.8233L19.5828 18.4362C19.6007 18.3483 19.6276 18.2548 19.6636 18.15C19.7004 18.0429 19.8308 17.9596 19.9396 17.9596H21.3535ZM17.4775 16.3853H10.5218L9.41975 19.4342H18.5796L17.4775 16.3853ZM9.24868 21.5821H10.7158C11.0305 21.5821 11.2857 21.327 11.2857 21.0122C11.2857 20.6974 11.0305 20.4423 10.7158 20.4423H9.24868C8.93388 20.4423 8.67878 20.6975 8.67878 21.0122C8.67878 21.327 8.93391 21.5821 9.24868 21.5821ZM17.2843 21.5821H18.7515C19.0662 21.5821 19.3214 21.327 19.3214 21.0122C19.3214 20.6974 19.0662 20.4423 18.7515 20.4423H17.2843C16.9696 20.4423 16.7144 20.6975 16.7144 21.0122C16.7144 21.327 16.9696 21.5821 17.2843 21.5821Z" fill="#0051FF"/>
</svg>