<svg xmlns="http://www.w3.org/2000/svg" width="81" height="80" viewBox="0 0 81 80" fill="none">
  <g clip-path="url(#clip0_8376_43696)">
    <path d="M79.0003 4.16913e-08H1.66634C1.49129 -4.37377e-05 1.31794 0.034392 1.1562 0.101341C0.994455 0.16829 0.847482 0.266441 0.72367 0.390191C0.599859 0.513941 0.501634 0.660865 0.434604 0.822575C0.367574 0.984285 0.333052 1.15761 0.333008 1.33267L0.333008 28H2.99967V2.66667H77.6663V32H30.9997V34.6667H78.9997C79.1747 34.6667 79.3481 34.6323 79.5098 34.5653C79.6716 34.4984 79.8185 34.4002 79.9424 34.2765C80.0662 34.1527 80.1644 34.0058 80.2314 33.8441C80.2984 33.6824 80.333 33.5091 80.333 33.334V1.33333C80.3331 1.15828 80.2986 0.984935 80.2317 0.823191C80.1647 0.661447 80.0666 0.514474 79.9428 0.390662C79.8191 0.266851 79.6721 0.168626 79.5104 0.101596C79.3487 0.0345662 79.1754 4.38102e-05 79.0003 4.16913e-08Z" fill="#1A75CF"/>
    <path d="M44.333 6.66671H70.9997V9.33337H44.333V6.66671ZM48.333 14.6667H74.9997V17.3334H48.333V14.6667ZM42.9997 22.6667H69.6663V25.3334H42.9997V22.6667ZM42.8933 11.4957C41.9805 9.30154 39.4618 8.26287 37.2678 9.17571C37.2303 9.19137 37.193 9.20737 37.156 9.22404L26.3447 14.8324C26.771 13.9488 26.9948 12.9811 26.9997 12C26.9997 8.31821 24.0148 5.33337 20.333 5.33337C16.6512 5.33337 13.6663 8.31821 13.6663 12C13.6713 13.4472 14.1518 14.8527 15.0338 16H14.9783C11.1937 16.0254 7.81517 18.3782 6.47901 21.9194L2.91967 34.1875C2.07234 36.3885 3.16967 38.8599 5.37084 39.7072C6.37455 40.0936 7.48708 40.087 8.48617 39.6889C9.05362 39.4603 9.56585 39.1133 9.98873 38.6713C10.4116 38.2292 10.7355 37.7021 10.9387 37.125L12.333 32.6875V51.9847C11.1856 51.1028 9.78017 50.6224 8.33301 50.6172C4.65667 50.6117 1.67184 53.5875 1.66634 57.264C1.665 58.1552 1.84262 59.0376 2.18866 59.8588C2.53471 60.68 3.04213 61.4234 3.68084 62.0449C2.6763 62.5581 1.83248 63.338 1.24193 64.2992C0.651388 65.2603 0.336916 66.3655 0.333008 67.4935V78.6667C0.332964 78.8418 0.3674 79.0151 0.434349 79.1768C0.501298 79.3386 0.599449 79.4856 0.723199 79.6094C0.846948 79.7332 0.993873 79.8314 1.15558 79.8984C1.31729 79.9655 1.49062 80 1.66567 80H14.9997C15.1747 80.0001 15.3481 79.9657 15.5098 79.8987C15.6716 79.8318 15.8185 79.7336 15.9423 79.6098C16.0662 79.4861 16.1644 79.3392 16.2314 79.1775C16.2984 79.0158 16.333 78.8424 16.333 78.6674V67.4935C16.3298 66.561 16.1138 65.6415 15.7015 64.805C15.2892 63.9685 14.6914 63.2372 13.9537 62.6667H24.0458C23.3081 63.2371 22.7102 63.9685 22.2979 64.8049C21.8856 65.6414 21.6696 66.561 21.6665 67.4935V78.6667C21.6665 78.8418 21.7009 79.0151 21.7678 79.1768C21.8348 79.3386 21.933 79.4856 22.0567 79.6094C22.1804 79.7332 22.3274 79.8314 22.4891 79.8984C22.6508 79.9655 22.8241 80 22.9992 80H36.3332C36.5082 80.0001 36.6816 79.9657 36.8433 79.8987C37.0051 79.8318 37.152 79.7336 37.2758 79.6098C37.3997 79.4861 37.4979 79.3392 37.5649 79.1775C37.6319 79.0158 37.6665 78.8424 37.6665 78.6674V67.4935C37.6626 66.3655 37.3481 65.2603 36.7576 64.2992C36.167 63.338 35.3232 62.5581 34.3187 62.0449C36.9512 59.4754 37.0023 55.2582 34.4328 52.6257C33.6541 51.8279 32.6877 51.2383 31.622 50.9109C30.5563 50.5836 29.4255 50.529 28.3332 50.752V23.4765L40.5733 17.121C42.7673 16.2084 43.806 13.6897 42.8933 11.4957ZM20.333 8.00004C22.5422 8.00004 24.333 9.79087 24.333 12C24.333 14.2092 22.5422 16 20.333 16C18.1248 15.9977 16.3353 14.2082 16.333 12C16.333 9.79087 18.1238 8.00004 20.333 8.00004ZM8.33301 53.2839C10.5422 53.2839 12.333 55.0747 12.333 57.2839C12.333 59.493 10.5422 61.2839 8.33301 61.2839C6.12384 61.2839 4.33301 59.493 4.33301 57.2839C4.33534 55.0757 6.12484 53.2864 8.33301 53.2839ZM13.6663 77.3334H2.99967V67.4935C3.00234 65.565 4.56517 64.0024 6.49384 64H10.1722C12.1007 64.0024 13.6637 65.565 13.6663 67.4935V77.3334ZM34.9997 67.4935V77.3334H24.333V67.4935C24.3357 65.565 25.8985 64.0024 27.8272 64H31.5055C33.4342 64.0024 34.997 65.565 34.9997 67.4935ZM29.6663 53.2839C31.8745 53.2862 33.664 55.0757 33.6663 57.2839C33.6663 59.493 31.8755 61.2839 29.6663 61.2839C27.4572 61.2839 25.6663 59.493 25.6663 57.2839C25.6663 55.0747 27.4572 53.2839 29.6663 53.2839ZM40.4535 13.72C40.3653 13.9465 40.2299 14.1516 40.0564 14.3217C39.8828 14.4919 39.6751 14.6232 39.447 14.707L26.3858 21.483C26.169 21.5955 25.9872 21.7654 25.8604 21.9741C25.7335 22.1829 25.6664 22.4224 25.6663 22.6667V51.9847C23.1688 53.8314 22.3037 57.1735 23.5917 60H21.6663V37.3334H18.9997V60H14.4077C14.7869 59.1617 14.9869 58.2534 14.9947 57.3334H14.9997V24C14.9997 23.6815 14.8856 23.3734 14.6781 23.1317C14.4706 22.89 14.1834 22.7305 13.8685 22.6822C13.5536 22.6339 13.2318 22.6999 12.9614 22.8684C12.691 23.0368 12.4899 23.2965 12.3943 23.6004L8.41301 36.2695C8.11134 37.1015 7.19217 37.5315 6.36017 37.2297C6.30175 37.2085 6.2446 37.184 6.18901 37.1562C5.81847 36.9647 5.53504 36.6389 5.39664 36.2454C5.25823 35.8519 5.2753 35.4204 5.44434 35.039L9.00351 22.7709C9.47259 21.5663 10.2933 20.5306 11.3588 19.7987C12.4243 19.0667 13.6855 18.6723 14.9782 18.6667H24.419C24.6327 18.667 24.8434 18.6156 25.033 18.517L38.285 11.6382C38.6682 11.4783 39.0978 11.4696 39.4872 11.6139C39.8765 11.7581 40.1968 12.0446 40.3833 12.4155C40.4848 12.6162 40.5435 12.8358 40.5555 13.0604C40.5676 13.285 40.5329 13.5096 40.4535 13.72ZM55.6518 62.0449C58.289 59.4755 58.344 55.2547 55.7747 52.6175C53.2053 49.9804 48.9845 49.9254 46.3473 52.4947C43.7102 55.064 43.6552 59.2849 46.2245 61.922C46.265 61.9635 46.306 62.0045 46.3475 62.0449C45.343 62.5581 44.4992 63.3381 43.9087 64.2992C43.3181 65.2603 43.0036 66.3655 42.9997 67.4935V78.6667C42.9996 78.8418 43.0341 79.0151 43.101 79.1768C43.168 79.3386 43.2661 79.4856 43.3899 79.6094C43.5136 79.7332 43.6605 79.8314 43.8223 79.8984C43.984 79.9655 44.1573 80 44.3323 80H57.6663C57.8414 80.0001 58.0147 79.9657 58.1765 79.8987C58.3382 79.8318 58.4852 79.7336 58.609 79.6098C58.7328 79.4861 58.831 79.3392 58.8981 79.1775C58.9651 79.0158 58.9996 78.8424 58.9997 78.6674V67.4935C58.9958 66.3655 58.6813 65.2603 58.0908 64.2992C57.5002 63.338 56.6564 62.5581 55.6518 62.0449ZM50.9997 53.2839C53.2088 53.2839 54.9997 55.0747 54.9997 57.2839C54.9997 59.493 53.2088 61.2839 50.9997 61.2839C48.7905 61.2839 46.9997 59.493 46.9997 57.2839C47.002 55.0757 48.7915 53.2864 50.9997 53.2839ZM56.333 77.3334H45.6663V67.4935C45.669 65.565 47.2318 64.0024 49.1605 64H52.8388C54.7673 64.0024 56.3303 65.565 56.333 67.4935V77.3334ZM76.9852 62.0449C79.6223 59.4755 79.6773 55.2547 77.108 52.6175C74.5387 49.9804 70.3178 49.9254 67.6807 52.4947C65.0435 55.064 64.9885 59.2849 67.5578 61.922C67.5983 61.9635 67.6393 62.0045 67.6808 62.0449C66.6763 62.5581 65.8325 63.3381 65.242 64.2992C64.6514 65.2603 64.337 66.3655 64.333 67.4935V78.6667C64.333 78.8418 64.3674 79.0151 64.4343 79.1768C64.5013 79.3386 64.5994 79.4856 64.7232 79.6094C64.847 79.7332 64.9939 79.8314 65.1556 79.8984C65.3173 79.9655 65.4906 80 65.6657 80H78.9997C79.1747 80.0001 79.3481 79.9657 79.5098 79.8987C79.6716 79.8318 79.8185 79.7336 79.9424 79.6098C80.0662 79.4861 80.1644 79.3392 80.2314 79.1775C80.2984 79.0158 80.333 78.8424 80.333 78.6674V67.4935C80.3291 66.3655 80.0146 65.2603 79.4241 64.2992C78.8335 63.338 77.9897 62.5581 76.9852 62.0449ZM72.333 53.2839C74.5422 53.2839 76.333 55.0747 76.333 57.2839C76.333 59.493 74.5422 61.2839 72.333 61.2839C70.1238 61.2839 68.333 59.493 68.333 57.2839C68.3353 55.0757 70.1248 53.2864 72.333 53.2839ZM77.6663 77.3334H66.9997V67.4935C67.0023 65.565 68.5652 64.0024 70.4938 64H74.1722C76.1007 64.0024 77.6637 65.565 77.6663 67.4935V77.3334Z" fill="#1A75CF"/>
  </g>
  <defs>
    <clipPath id="clip0_8376_43696">
      <rect width="80" height="80" fill="white" transform="translate(0.333008)"/>
    </clipPath>
  </defs>
</svg>