<svg xmlns="http://www.w3.org/2000/svg" width="70" height="80" viewBox="0 0 70 80" fill="none">
  <path d="M67.9437 58.1186L65.2582 57.2303C66.0802 55.5371 66.5098 53.6803 66.5098 51.7647C66.5098 44.8452 60.8803 39.2157 53.9608 39.2157C50.4254 39.2157 47.1558 40.6681 44.8246 43.1526C42.9939 34.3506 43.6846 24.6761 46.8019 16.6602L47.0497 16.0218C47.0734 15.9606 47.0932 15.8982 47.1092 15.8345C47.97 12.3914 47.354 8.76769 45.4187 5.89239C42.9338 2.20267 38.797 0 34.3529 0C32.1304 0 29.9291 0.558588 27.9886 1.61459C26.1093 2.63545 24.4835 4.11467 23.2869 5.89271C21.352 8.76769 20.7358 12.3912 21.5965 15.8345C21.6146 15.9067 21.6378 15.9774 21.6657 16.0463C23.6289 20.8612 24.8973 27.9479 24.8973 34.1004C24.8973 39.5503 23.8937 44.8869 21.9144 49.9613L21.3936 51.2955L1.06918 58.1209C0.757666 58.2255 0.486878 58.4254 0.295037 58.6921C0.103197 58.9589 -5.07727e-06 59.2792 1.87346e-10 59.6078L1.87346e-10 69.0196C1.87346e-10 69.8858 0.702275 70.5882 1.56863 70.5882H4.78431V78.4314C4.78431 79.2976 5.48659 80 6.35294 80H62.6667C63.5329 80 64.2353 79.2976 64.2353 78.4314V70.5882H67.451C68.3172 70.5882 69.0196 69.8858 69.0196 69.0196V59.6078C69.0196 59.278 68.9157 58.9566 68.7225 58.6892C68.5294 58.4219 68.2568 58.2222 67.9437 58.1186ZM53.9608 42.3529C59.1504 42.3529 63.3726 46.5751 63.3726 51.7647C63.3726 53.7267 62.7744 55.6071 61.6428 57.2025C59.8781 59.6908 57.0063 61.1765 53.9608 61.1765C48.7711 61.1765 44.549 56.9544 44.549 51.7647C44.549 50.2902 44.8797 48.8805 45.5321 47.5747C45.539 47.5609 45.5456 47.547 45.5522 47.5329C47.1633 44.3366 50.3812 42.3529 53.9608 42.3529ZM27.9914 36.0784H40.7647C40.8198 37.1278 40.9057 38.1747 41.0234 39.2157H27.7539C27.8682 38.1729 27.9474 37.1265 27.9914 36.0784ZM24.6151 14.9705C24.0069 12.4191 24.4692 9.75482 25.8896 7.64439C26.8089 6.28045 28.0427 5.15763 29.4871 4.37067C30.97 3.56377 32.6526 3.13725 34.3529 3.13725C37.7517 3.13725 40.9156 4.82243 42.8163 7.64439C44.2388 9.75796 44.7002 12.427 44.0882 14.9815L43.8775 15.5239C41.8014 20.8627 40.7326 26.8867 40.693 32.9412H28.0196C27.8955 27.8275 26.9529 20.7641 24.6151 14.9705ZM61.098 76.8627H7.92157V70.5882H61.098V76.8627ZM65.8824 67.451H3.13726V60.7357L23.0877 54.0359C23.3053 53.9629 23.5043 53.8429 23.6705 53.6846C23.8367 53.5262 23.9661 53.3332 24.0496 53.1194L24.8372 51.1017C25.9412 48.2725 26.7667 45.3424 27.3018 42.3529H41.4761C41.7366 43.8281 42.066 45.2903 42.4631 46.7347C41.7658 48.3194 41.4118 50.0082 41.4118 51.7647C41.4118 58.6842 47.0413 64.3137 53.9608 64.3137C57.627 64.3137 61.1035 62.6993 63.4753 59.9449L65.8824 60.7412V67.451Z" fill="#1A75CF"/>
</svg>