<svg width="40" height="40" viewBox="0 0 40 40" fill="none" xmlns="http://www.w3.org/2000/svg">
<g clip-path="url(#clip0_7885_32698)">
<path d="M32.0139 23.6876C31.8165 23.6877 31.6234 23.6303 31.4583 23.5222C31.2931 23.4142 31.1631 23.2603 31.0842 23.0794C31.0052 22.8985 30.9808 22.6985 31.014 22.504C31.0471 22.3094 31.1363 22.1288 31.2706 21.9842C31.3916 21.8538 34.278 18.7876 38.9841 18.7876C39.2529 18.7876 39.5107 18.8944 39.7008 19.0844C39.8909 19.2745 39.9976 19.5323 39.9976 19.8011C39.9976 20.0699 39.8909 20.3277 39.7008 20.5178C39.5107 20.7078 39.2529 20.8146 38.9841 20.8146C35.1902 20.8146 32.7807 23.3369 32.7571 23.3626C32.6625 23.4653 32.5475 23.5472 32.4196 23.6032C32.2917 23.6591 32.1535 23.6879 32.0139 23.6876Z" fill="#04153C"/>
<path d="M14.2855 27.7121C14.1071 27.7119 13.9319 27.6646 13.7776 27.575C13.6234 27.4854 13.4955 27.3567 13.4069 27.2018C13.3183 27.0469 13.2722 26.8714 13.2732 26.693C13.2742 26.5146 13.3222 26.3397 13.4125 26.1858C16.0253 21.7304 19.1936 19.1973 22.828 18.6554C28.2098 17.854 32.5206 21.7601 32.7017 21.927C32.7997 22.0172 32.879 22.1258 32.935 22.2467C32.991 22.3676 33.0226 22.4983 33.0281 22.6314C33.0336 22.7645 33.0128 22.8973 32.9668 23.0224C32.9209 23.1474 32.8508 23.2622 32.7605 23.3601C32.6702 23.458 32.5615 23.5372 32.4406 23.5931C32.3197 23.649 32.1889 23.6805 32.0558 23.6858C31.9227 23.6912 31.7899 23.6702 31.6649 23.6242C31.5399 23.5782 31.4252 23.5079 31.3274 23.4175C31.2916 23.3844 27.5267 19.9966 23.1118 20.6628C20.1199 21.1142 17.4449 23.3175 15.1605 27.2115C15.071 27.364 14.9431 27.4905 14.7896 27.5783C14.6361 27.6661 14.4623 27.7123 14.2855 27.7121ZM26.3875 34.6554C25.0821 34.6554 23.6037 34.4378 21.9699 33.8689C21.7179 33.7788 21.5117 33.5926 21.3963 33.351C21.281 33.1094 21.2658 32.832 21.3542 32.5793C21.4426 32.3266 21.6274 32.1191 21.8682 32.0021C22.1089 31.8851 22.3862 31.8681 22.6395 31.9547C29.1152 34.2088 32.6024 30.0804 32.6395 30.0385C32.7216 29.929 32.8249 29.8373 32.9434 29.7689C33.0618 29.7005 33.1929 29.6567 33.3287 29.6403C33.4645 29.6238 33.6022 29.6351 33.7336 29.6733C33.8649 29.7115 33.9872 29.7759 34.093 29.8626C34.1987 29.9493 34.2859 30.0565 34.3491 30.1778C34.4124 30.2991 34.4504 30.432 34.461 30.5684C34.4715 30.7047 34.4543 30.8418 34.4105 30.9714C34.3666 31.101 34.297 31.2203 34.2057 31.3223C34.1598 31.3777 33.0618 32.6973 30.9997 33.6554C29.554 34.3222 27.9795 34.6636 26.3875 34.6554ZM17.3517 18.9277C17.2655 18.9275 17.1797 18.9166 17.0963 18.8952C16.9674 18.8618 16.8464 18.8033 16.7402 18.7231C16.634 18.6429 16.5446 18.5426 16.4771 18.4278C16.4097 18.313 16.3655 18.1861 16.3471 18.0543C16.3287 17.9224 16.3365 17.7883 16.3699 17.6594L18.9375 7.78376C18.9655 7.64938 19.0205 7.52209 19.0992 7.40962C19.1779 7.29714 19.2786 7.20182 19.3952 7.12943C19.5119 7.05704 19.642 7.0091 19.7777 6.98852C19.9134 6.96793 20.0519 6.97512 20.1847 7.00966C20.3176 7.0442 20.442 7.10537 20.5505 7.18945C20.659 7.27354 20.7493 7.37878 20.8159 7.49881C20.8825 7.61883 20.924 7.75114 20.938 7.8877C20.9519 8.02425 20.938 8.16222 20.897 8.29322L18.3294 18.1689C18.2731 18.3856 18.1467 18.5776 17.9698 18.7148C17.7929 18.8521 17.5756 18.927 17.3517 18.9277Z" fill="#04153C"/>
<path d="M23.4794 40.0018C18.3307 40.0018 14.0294 38.4654 11.2625 37.1295C9.3629 36.2201 7.35435 35.5583 5.28615 35.1606C2.93007 34.7005 1.27669 33.6593 0.505741 32.1491C-0.279394 30.6126 -0.144259 28.6694 0.906417 26.3735C3.32939 18.9572 8.96993 10.0322 13.2807 3.8444C13.8717 2.99739 14.6338 2.28373 15.5177 1.74953C16.4017 1.21533 17.3878 0.872456 18.4125 0.743052L24.0584 0.0315658C25.0726 -0.096904 26.0973 0.169795 26.9201 0.77638C27.7429 1.38296 28.3008 2.28291 28.478 3.28967L28.9807 6.13697C29.0823 6.71317 29.0393 7.30555 28.8556 7.86105C28.672 8.41655 28.3534 8.91782 27.9284 9.31996C27.5035 9.72209 26.9854 10.0125 26.4206 10.1653C25.8558 10.318 25.2619 10.3282 24.6922 10.1951L19.6841 9.02549C19.5537 8.99596 19.4305 8.94093 19.3214 8.86358C19.2124 8.78623 19.1198 8.68807 19.0488 8.57476C18.9779 8.46145 18.93 8.33523 18.9081 8.20336C18.8861 8.07149 18.8904 7.93658 18.9208 7.80639C18.9512 7.6762 19.007 7.55331 19.0851 7.44479C19.1632 7.33627 19.262 7.24427 19.3757 7.17407C19.4895 7.10388 19.616 7.05688 19.7481 7.03578C19.8801 7.01469 20.0149 7.01992 20.1449 7.05116L25.153 8.22075C25.3965 8.27835 25.6504 8.27453 25.892 8.20965C26.1336 8.14478 26.3553 8.02087 26.5371 7.84908C26.719 7.67729 26.8553 7.463 26.9338 7.22547C27.0123 6.98795 27.0305 6.73464 26.9868 6.48832L26.4841 3.64103C26.3968 3.14663 26.1227 2.70475 25.7186 2.40689C25.3145 2.10904 24.8112 1.97804 24.3132 2.04103L18.6652 2.75116C17.922 2.84518 17.2067 3.09406 16.5657 3.48174C15.9246 3.86942 15.372 4.38727 14.9436 5.00184C10.7003 11.0937 5.15169 19.8667 2.8152 27.0559C2.80297 27.0944 2.7883 27.1321 2.77128 27.1687C1.97196 28.8951 1.81723 30.2599 2.31115 31.2268C2.91453 32.4079 4.47331 32.9363 5.67534 33.1708C7.914 33.6019 10.0881 34.3185 12.1443 35.3032C16.7861 37.5451 26.0929 40.3964 36.2659 34.3052C36.3801 34.2368 36.5066 34.1916 36.6383 34.1722C36.77 34.1527 36.9042 34.1594 37.0333 34.1918C37.1623 34.2242 37.2838 34.2817 37.3907 34.361C37.4975 34.4404 37.5877 34.54 37.6561 34.6542C37.7245 34.7684 37.7697 34.8949 37.7891 35.0266C37.8086 35.1583 37.8019 35.2925 37.7695 35.4216C37.7371 35.5507 37.6796 35.6721 37.6002 35.779C37.5209 35.8858 37.4213 35.976 37.3071 36.0444C32.3875 38.9883 27.6544 40.0018 23.4794 40.0018Z" fill="#04153C"/>
</g>
<defs>
<clipPath id="clip0_7885_32698">
<rect width="40" height="40" fill="white"/>
</clipPath>
</defs>
</svg>
