<svg width="222" height="150" viewBox="0 0 222 150" fill="none" xmlns="http://www.w3.org/2000/svg">
<g clip-path="url(#clip0_8138_4161)">
<rect x="2.66669" y="3" width="216" height="144" rx="7.2" fill="#26292E"/>
<path d="M65.9654 53.9092C65.7366 53.9092 65.5598 53.8468 65.435 53.722C65.3102 53.5868 65.2478 53.3996 65.2478 53.1604V43.5352C65.2478 43.296 65.3102 43.114 65.435 42.9892C65.5702 42.8644 65.7522 42.802 65.981 42.802H69.6938C70.8794 42.802 71.7894 43.0828 72.4238 43.6444C73.0686 44.1956 73.391 44.9808 73.391 46C73.391 46.6656 73.2454 47.2376 72.9542 47.716C72.663 48.184 72.2418 48.5428 71.6906 48.7924C71.1394 49.042 70.4738 49.1668 69.6938 49.1668L69.8498 48.9484H70.193C70.609 48.9484 70.9678 49.0524 71.2694 49.2604C71.5814 49.4684 71.857 49.8012 72.0962 50.2588L73.5314 52.8952C73.625 53.0616 73.6666 53.2228 73.6562 53.3788C73.6458 53.5348 73.5886 53.6648 73.4846 53.7688C73.3806 53.8624 73.2298 53.9092 73.0322 53.9092C72.8242 53.9092 72.6578 53.8676 72.533 53.7844C72.4082 53.6908 72.299 53.5556 72.2054 53.3788L70.5206 50.29C70.2918 49.8532 70.0318 49.5672 69.7406 49.432C69.4494 49.2864 69.0594 49.2136 68.5706 49.2136H66.6986V53.1604C66.6986 53.3996 66.6362 53.5868 66.5114 53.722C66.397 53.8468 66.215 53.9092 65.9654 53.9092ZM66.6986 48.0904H69.4598C70.2918 48.0904 70.9158 47.9188 71.3318 47.5756C71.7478 47.222 71.9558 46.7072 71.9558 46.0312C71.9558 45.3552 71.7478 44.8456 71.3318 44.5024C70.9158 44.1592 70.2918 43.9876 69.4598 43.9876H66.6986V48.0904ZM78.8842 53.9404C78.0626 53.9404 77.3554 53.7844 76.7626 53.4724C76.1802 53.15 75.7278 52.6976 75.4054 52.1152C75.083 51.5224 74.9218 50.8256 74.9218 50.0248C74.9218 49.2344 75.0778 48.5428 75.3898 47.95C75.7122 47.3572 76.149 46.8944 76.7002 46.5616C77.2618 46.2288 77.9014 46.0624 78.619 46.0624C79.1286 46.0624 79.5862 46.1508 79.9918 46.3276C80.4078 46.494 80.7614 46.7384 81.0526 47.0608C81.3438 47.3832 81.5622 47.7784 81.7078 48.2464C81.8638 48.704 81.9418 49.224 81.9418 49.8064C81.9418 49.9728 81.8898 50.1028 81.7858 50.1964C81.6922 50.2796 81.5518 50.3212 81.3646 50.3212H76.0294V49.4164H81.0058L80.7406 49.6348C80.7406 49.094 80.6574 48.6364 80.491 48.262C80.335 47.8772 80.101 47.586 79.789 47.3884C79.4874 47.1908 79.1078 47.092 78.6502 47.092C78.151 47.092 77.7246 47.2116 77.371 47.4508C77.0174 47.6796 76.747 48.0072 76.5598 48.4336C76.3726 48.8496 76.279 49.3332 76.279 49.8844V49.978C76.279 50.914 76.5026 51.6212 76.9498 52.0996C77.397 52.578 78.0418 52.8172 78.8842 52.8172C79.217 52.8172 79.555 52.7756 79.8982 52.6924C80.2518 52.6092 80.5898 52.4584 80.9122 52.24C81.0682 52.1464 81.2086 52.1048 81.3334 52.1152C81.4686 52.1152 81.5778 52.1568 81.661 52.24C81.7442 52.3128 81.7962 52.4064 81.817 52.5208C81.8378 52.6248 81.8222 52.7392 81.7702 52.864C81.7182 52.9888 81.6194 53.098 81.4738 53.1916C81.1306 53.4308 80.7198 53.618 80.2414 53.7532C79.7734 53.878 79.321 53.9404 78.8842 53.9404ZM86.999 53.9404C86.2294 53.9404 85.5638 53.7792 85.0022 53.4568C84.4406 53.124 84.009 52.6612 83.7074 52.0684C83.4058 51.4652 83.255 50.758 83.255 49.9468C83.255 49.3436 83.3382 48.8028 83.5046 48.3244C83.6814 47.846 83.931 47.4404 84.2534 47.1076C84.5758 46.7644 84.9658 46.5044 85.4234 46.3276C85.8914 46.1508 86.4166 46.0624 86.999 46.0624C87.363 46.0624 87.7478 46.1196 88.1534 46.234C88.559 46.3484 88.9334 46.5356 89.2766 46.7956C89.391 46.8788 89.4638 46.9776 89.495 47.092C89.5262 47.196 89.5262 47.3052 89.495 47.4196C89.4742 47.534 89.4222 47.6328 89.339 47.716C89.2662 47.7888 89.1674 47.8304 89.0426 47.8408C88.9282 47.8512 88.8034 47.8148 88.6682 47.7316C88.4186 47.5444 88.1534 47.4092 87.8726 47.326C87.6022 47.2428 87.3422 47.2012 87.0926 47.2012C86.7078 47.2012 86.3646 47.2636 86.063 47.3884C85.7718 47.5132 85.5222 47.6952 85.3142 47.9344C85.1166 48.1632 84.9658 48.4492 84.8618 48.7924C84.7578 49.1252 84.7058 49.5152 84.7058 49.9624C84.7058 50.8464 84.9138 51.5432 85.3298 52.0528C85.7458 52.552 86.3334 52.8016 87.0926 52.8016C87.3422 52.8016 87.6022 52.7652 87.8726 52.6924C88.143 52.6092 88.4082 52.474 88.6682 52.2868C88.8034 52.2036 88.9282 52.1724 89.0426 52.1932C89.157 52.2036 89.2506 52.2504 89.3234 52.3336C89.4066 52.4064 89.4586 52.5 89.4794 52.6144C89.5002 52.7184 89.4898 52.8276 89.4482 52.942C89.417 53.0564 89.3442 53.15 89.2298 53.2228C88.897 53.4724 88.533 53.6544 88.1378 53.7688C87.7426 53.8832 87.363 53.9404 86.999 53.9404ZM91.661 53.878C91.4426 53.878 91.271 53.8104 91.1462 53.6752C91.0214 53.54 90.959 53.3528 90.959 53.1136V46.8892C90.959 46.6396 91.0214 46.4524 91.1462 46.3276C91.271 46.1924 91.4426 46.1248 91.661 46.1248C91.8898 46.1248 92.0666 46.1924 92.1914 46.3276C92.3162 46.4524 92.3786 46.6396 92.3786 46.8892V53.1136C92.3786 53.3528 92.3162 53.54 92.1914 53.6752C92.077 53.8104 91.9002 53.878 91.661 53.878ZM91.661 44.44C91.3802 44.44 91.1566 44.3672 90.9902 44.2216C90.8342 44.0656 90.7562 43.8628 90.7562 43.6132C90.7562 43.3428 90.8342 43.14 90.9902 43.0048C91.1566 42.8592 91.3802 42.7864 91.661 42.7864C91.9626 42.7864 92.1862 42.8592 92.3318 43.0048C92.4878 43.14 92.5658 43.3428 92.5658 43.6132C92.5658 43.8628 92.4878 44.0656 92.3318 44.2216C92.1862 44.3672 91.9626 44.44 91.661 44.44ZM98.6389 53.9404C97.9525 53.9404 97.3649 53.7688 96.8761 53.4256C96.3873 53.0824 96.0597 52.6196 95.8933 52.0372L96.0649 51.8032V53.176C96.0649 53.4152 96.0025 53.5972 95.8777 53.722C95.7633 53.8468 95.5917 53.9092 95.3629 53.9092C95.1445 53.9092 94.9729 53.8468 94.8481 53.722C94.7233 53.5972 94.6609 53.4152 94.6609 53.176V43.4104C94.6609 43.1712 94.7233 42.9944 94.8481 42.88C94.9729 42.7552 95.1445 42.6928 95.3629 42.6928C95.5917 42.6928 95.7685 42.7552 95.8933 42.88C96.0181 42.9944 96.0805 43.1712 96.0805 43.4104V47.9188H95.9089C96.0753 47.3572 96.4029 46.91 96.8917 46.5772C97.3805 46.234 97.9629 46.0624 98.6389 46.0624C99.3149 46.0624 99.9025 46.2236 100.402 46.546C100.911 46.858 101.301 47.3104 101.572 47.9032C101.853 48.4856 101.993 49.1824 101.993 49.9936C101.993 50.7944 101.853 51.4964 101.572 52.0996C101.291 52.6924 100.901 53.15 100.402 53.4724C99.9025 53.7844 99.3149 53.9404 98.6389 53.9404ZM98.3113 52.8172C98.7585 52.8172 99.1485 52.708 99.4813 52.4896C99.8245 52.2712 100.09 51.954 100.277 51.538C100.464 51.122 100.558 50.6072 100.558 49.9936C100.558 49.0784 100.355 48.3816 99.9493 47.9032C99.5437 47.4248 98.9977 47.1856 98.3113 47.1856C97.8537 47.1856 97.4533 47.2948 97.1101 47.5132C96.7773 47.7212 96.5173 48.0332 96.3301 48.4492C96.1533 48.8652 96.0649 49.38 96.0649 49.9936C96.0649 50.9088 96.2677 51.6108 96.6733 52.0996C97.0789 52.578 97.6249 52.8172 98.3113 52.8172ZM107.046 53.9404C106.297 53.9404 105.647 53.7792 105.096 53.4568C104.545 53.1344 104.118 52.6768 103.817 52.084C103.515 51.4912 103.364 50.7944 103.364 49.9936C103.364 49.3904 103.448 48.8496 103.614 48.3712C103.791 47.8824 104.04 47.4664 104.363 47.1232C104.685 46.78 105.07 46.52 105.517 46.3432C105.975 46.156 106.484 46.0624 107.046 46.0624C107.795 46.0624 108.445 46.2236 108.996 46.546C109.547 46.8684 109.974 47.326 110.275 47.9188C110.577 48.5012 110.728 49.1928 110.728 49.9936C110.728 50.5968 110.639 51.1428 110.462 51.6316C110.296 52.1204 110.052 52.5364 109.729 52.8796C109.407 53.2228 109.017 53.488 108.559 53.6752C108.112 53.852 107.608 53.9404 107.046 53.9404ZM107.046 52.8172C107.504 52.8172 107.899 52.708 108.232 52.4896C108.575 52.2712 108.835 51.954 109.012 51.538C109.199 51.122 109.292 50.6072 109.292 49.9936C109.292 49.0784 109.09 48.3816 108.684 47.9032C108.278 47.4248 107.732 47.1856 107.046 47.1856C106.599 47.1856 106.204 47.2948 105.86 47.5132C105.528 47.7212 105.268 48.0332 105.08 48.4492C104.893 48.8652 104.8 49.38 104.8 49.9936C104.8 50.9088 105.002 51.6108 105.408 52.0996C105.824 52.578 106.37 52.8172 107.046 52.8172ZM119.515 53.9404C118.85 53.9404 118.262 53.7844 117.752 53.4724C117.253 53.15 116.863 52.6924 116.582 52.0996C116.302 51.4964 116.161 50.7944 116.161 49.9936C116.161 49.1824 116.296 48.4856 116.567 47.9032C116.848 47.3104 117.238 46.858 117.737 46.546C118.246 46.2236 118.839 46.0624 119.515 46.0624C120.191 46.0624 120.774 46.234 121.262 46.5772C121.751 46.91 122.079 47.3572 122.245 47.9188H122.074V43.4104C122.074 43.1712 122.131 42.9944 122.245 42.88C122.37 42.7552 122.547 42.6928 122.776 42.6928C123.004 42.6928 123.181 42.7552 123.306 42.88C123.431 42.9944 123.493 43.1712 123.493 43.4104V53.176C123.493 53.4152 123.431 53.5972 123.306 53.722C123.181 53.8468 123.004 53.9092 122.776 53.9092C122.557 53.9092 122.386 53.8468 122.261 53.722C122.136 53.5972 122.074 53.4152 122.074 53.176V51.7564L122.245 52.0372C122.089 52.6196 121.762 53.0824 121.262 53.4256C120.774 53.7688 120.191 53.9404 119.515 53.9404ZM119.843 52.8172C120.3 52.8172 120.696 52.708 121.028 52.4896C121.372 52.2712 121.632 51.954 121.808 51.538C121.996 51.122 122.089 50.6072 122.089 49.9936C122.089 49.0784 121.886 48.3816 121.481 47.9032C121.075 47.4248 120.529 47.1856 119.843 47.1856C119.396 47.1856 119 47.2948 118.657 47.5132C118.324 47.7212 118.064 48.0332 117.877 48.4492C117.69 48.8652 117.596 49.38 117.596 49.9936C117.596 50.9088 117.799 51.6108 118.205 52.0996C118.621 52.578 119.167 52.8172 119.843 52.8172ZM129.28 53.9404C128.458 53.9404 127.751 53.7844 127.158 53.4724C126.576 53.15 126.123 52.6976 125.801 52.1152C125.478 51.5224 125.317 50.8256 125.317 50.0248C125.317 49.2344 125.473 48.5428 125.785 47.95C126.108 47.3572 126.544 46.8944 127.096 46.5616C127.657 46.2288 128.297 46.0624 129.014 46.0624C129.524 46.0624 129.982 46.1508 130.387 46.3276C130.803 46.494 131.157 46.7384 131.448 47.0608C131.739 47.3832 131.958 47.7784 132.103 48.2464C132.259 48.704 132.337 49.224 132.337 49.8064C132.337 49.9728 132.285 50.1028 132.181 50.1964C132.088 50.2796 131.947 50.3212 131.76 50.3212H126.425V49.4164H131.401L131.136 49.6348C131.136 49.094 131.053 48.6364 130.886 48.262C130.73 47.8772 130.496 47.586 130.184 47.3884C129.883 47.1908 129.503 47.092 129.046 47.092C128.546 47.092 128.12 47.2116 127.766 47.4508C127.413 47.6796 127.142 48.0072 126.955 48.4336C126.768 48.8496 126.674 49.3332 126.674 49.8844V49.978C126.674 50.914 126.898 51.6212 127.345 52.0996C127.792 52.578 128.437 52.8172 129.28 52.8172C129.612 52.8172 129.95 52.7756 130.294 52.6924C130.647 52.6092 130.985 52.4584 131.308 52.24C131.464 52.1464 131.604 52.1048 131.729 52.1152C131.864 52.1152 131.973 52.1568 132.056 52.24C132.14 52.3128 132.192 52.4064 132.212 52.5208C132.233 52.6248 132.218 52.7392 132.166 52.864C132.114 52.9888 132.015 53.098 131.869 53.1916C131.526 53.4308 131.115 53.618 130.637 53.7532C130.169 53.878 129.716 53.9404 129.28 53.9404ZM140.557 53.9404C139.777 53.9404 139.184 53.7116 138.779 53.254C138.373 52.786 138.17 52.1152 138.17 51.2416V43.4104C138.17 43.1712 138.233 42.9944 138.358 42.88C138.482 42.7552 138.654 42.6928 138.872 42.6928C139.101 42.6928 139.278 42.7552 139.403 42.88C139.528 42.9944 139.59 43.1712 139.59 43.4104V51.1324C139.59 51.6732 139.699 52.0788 139.918 52.3492C140.146 52.6092 140.469 52.7392 140.885 52.7392C140.978 52.7392 141.062 52.7392 141.134 52.7392C141.207 52.7288 141.28 52.7184 141.353 52.708C141.467 52.6976 141.55 52.7288 141.602 52.8016C141.654 52.8744 141.68 53.02 141.68 53.2384C141.68 53.436 141.634 53.592 141.54 53.7064C141.457 53.8104 141.316 53.878 141.119 53.9092C141.025 53.9196 140.932 53.9248 140.838 53.9248C140.744 53.9352 140.651 53.9404 140.557 53.9404ZM145.577 53.9404C144.963 53.9404 144.449 53.826 144.033 53.5972C143.627 53.3684 143.325 53.0304 143.128 52.5832C142.93 52.136 142.831 51.5744 142.831 50.8984V46.8112C142.831 46.572 142.889 46.3952 143.003 46.2808C143.128 46.156 143.305 46.0936 143.533 46.0936C143.762 46.0936 143.939 46.156 144.064 46.2808C144.189 46.3952 144.251 46.572 144.251 46.8112V50.8984C144.251 51.5432 144.381 52.0216 144.641 52.3336C144.901 52.6352 145.312 52.786 145.873 52.786C146.497 52.786 147.002 52.578 147.387 52.162C147.782 51.746 147.979 51.1948 147.979 50.5084V46.8112C147.979 46.572 148.037 46.3952 148.151 46.2808C148.276 46.156 148.453 46.0936 148.681 46.0936C148.91 46.0936 149.087 46.156 149.212 46.2808C149.337 46.3952 149.399 46.572 149.399 46.8112V53.176C149.399 53.6648 149.17 53.9092 148.713 53.9092C148.484 53.9092 148.307 53.8468 148.182 53.722C148.068 53.5972 148.011 53.4152 148.011 53.176V51.8188L148.213 52.084C148.005 52.6872 147.667 53.15 147.199 53.4724C146.742 53.7844 146.201 53.9404 145.577 53.9404ZM151.917 53.8C151.761 53.8 151.636 53.7636 151.543 53.6908C151.449 53.618 151.382 53.5244 151.34 53.41C151.309 53.2956 151.309 53.1708 151.34 53.0356C151.382 52.9004 151.46 52.7652 151.574 52.63L155.895 46.936V47.2948H151.824C151.647 47.2948 151.506 47.248 151.402 47.1544C151.309 47.0504 151.262 46.9152 151.262 46.7488C151.262 46.572 151.309 46.4368 151.402 46.3432C151.506 46.2496 151.647 46.2028 151.824 46.2028H156.582C156.758 46.2028 156.899 46.2392 157.003 46.312C157.117 46.3848 157.19 46.4784 157.221 46.5928C157.263 46.7072 157.268 46.832 157.237 46.9672C157.206 47.092 157.133 47.2168 157.018 47.3416L152.635 53.098V52.708H156.909C157.284 52.708 157.471 52.89 157.471 53.254C157.471 53.4204 157.419 53.5556 157.315 53.6596C157.221 53.7532 157.086 53.8 156.909 53.8H151.917Z" fill="white"/>
<path d="M15.5405 138.897C14.7845 138.897 14.1365 138.739 13.5965 138.422C13.0565 138.105 12.6389 137.655 12.3437 137.072C12.0557 136.482 11.9117 135.787 11.9117 134.988C11.9117 134.39 11.9945 133.854 12.1601 133.378C12.3257 132.896 12.5633 132.486 12.8729 132.147C13.1825 131.802 13.5605 131.539 14.0069 131.359C14.4605 131.179 14.9717 131.089 15.5405 131.089C15.9725 131.089 16.3865 131.15 16.7825 131.272C17.1857 131.395 17.5313 131.568 17.8193 131.791C17.9345 131.87 18.0101 131.96 18.0461 132.061C18.0821 132.162 18.0857 132.259 18.0569 132.352C18.0353 132.439 17.9885 132.514 17.9165 132.579C17.8517 132.637 17.7689 132.669 17.6681 132.676C17.5673 132.676 17.4593 132.637 17.3441 132.558C17.0921 132.363 16.8149 132.223 16.5125 132.136C16.2173 132.043 15.9005 131.996 15.5621 131.996C15.0077 131.996 14.5361 132.115 14.1473 132.352C13.7657 132.583 13.4741 132.921 13.2725 133.368C13.0781 133.807 12.9809 134.347 12.9809 134.988C12.9809 135.621 13.0781 136.165 13.2725 136.618C13.4741 137.065 13.7657 137.407 14.1473 137.644C14.5361 137.875 15.0077 137.99 15.5621 137.99C15.9005 137.99 16.2209 137.943 16.5233 137.85C16.8329 137.756 17.1173 137.612 17.3765 137.418C17.4917 137.338 17.5961 137.302 17.6897 137.31C17.7905 137.317 17.8733 137.349 17.9381 137.407C18.0029 137.457 18.0461 137.529 18.0677 137.623C18.0965 137.709 18.0965 137.799 18.0677 137.893C18.0389 137.986 17.9741 138.069 17.8733 138.141C17.5781 138.393 17.2253 138.584 16.8149 138.714C16.4117 138.836 15.9869 138.897 15.5405 138.897ZM21.0032 138.897C20.4632 138.897 20.0528 138.739 19.772 138.422C19.4912 138.098 19.3508 137.634 19.3508 137.029V131.607C19.3508 131.442 19.394 131.319 19.4804 131.24C19.5668 131.154 19.6856 131.11 19.8368 131.11C19.9952 131.11 20.1176 131.154 20.204 131.24C20.2904 131.319 20.3336 131.442 20.3336 131.607V136.953C20.3336 137.328 20.4092 137.608 20.5604 137.796C20.7188 137.976 20.942 138.066 21.23 138.066C21.2948 138.066 21.3524 138.066 21.4028 138.066C21.4532 138.058 21.5036 138.051 21.554 138.044C21.6332 138.037 21.6908 138.058 21.7268 138.109C21.7628 138.159 21.7808 138.26 21.7808 138.411C21.7808 138.548 21.7484 138.656 21.6836 138.735C21.626 138.807 21.5288 138.854 21.392 138.876C21.3272 138.883 21.2624 138.886 21.1976 138.886C21.1328 138.894 21.068 138.897 21.0032 138.897ZM23.0852 138.854C22.934 138.854 22.8152 138.807 22.7288 138.714C22.6424 138.62 22.5992 138.49 22.5992 138.325V134.016C22.5992 133.843 22.6424 133.713 22.7288 133.627C22.8152 133.533 22.934 133.486 23.0852 133.486C23.2436 133.486 23.366 133.533 23.4524 133.627C23.5388 133.713 23.582 133.843 23.582 134.016V138.325C23.582 138.49 23.5388 138.62 23.4524 138.714C23.3732 138.807 23.2508 138.854 23.0852 138.854ZM23.0852 132.32C22.8908 132.32 22.736 132.27 22.6208 132.169C22.5128 132.061 22.4588 131.92 22.4588 131.748C22.4588 131.56 22.5128 131.42 22.6208 131.326C22.736 131.226 22.8908 131.175 23.0852 131.175C23.294 131.175 23.4488 131.226 23.5496 131.326C23.6576 131.42 23.7116 131.56 23.7116 131.748C23.7116 131.92 23.6576 132.061 23.5496 132.169C23.4488 132.27 23.294 132.32 23.0852 132.32ZM27.5921 138.897C27.0233 138.897 26.5337 138.789 26.1233 138.573C25.7201 138.35 25.4069 138.037 25.1837 137.634C24.9605 137.223 24.8489 136.741 24.8489 136.186C24.8489 135.639 24.9569 135.16 25.1729 134.75C25.3961 134.34 25.6985 134.019 26.0801 133.789C26.4689 133.558 26.9117 133.443 27.4085 133.443C27.7613 133.443 28.0781 133.504 28.3589 133.627C28.6469 133.742 28.8917 133.911 29.0933 134.134C29.2949 134.358 29.4461 134.631 29.5469 134.955C29.6549 135.272 29.7089 135.632 29.7089 136.035C29.7089 136.15 29.6729 136.24 29.6009 136.305C29.5361 136.363 29.4389 136.392 29.3093 136.392H25.6157V135.765H29.0609L28.8773 135.916C28.8773 135.542 28.8197 135.225 28.7045 134.966C28.5965 134.7 28.4345 134.498 28.2185 134.361C28.0097 134.224 27.7469 134.156 27.4301 134.156C27.0845 134.156 26.7893 134.239 26.5445 134.404C26.2997 134.563 26.1125 134.79 25.9829 135.085C25.8533 135.373 25.7885 135.708 25.7885 136.089V136.154C25.7885 136.802 25.9433 137.292 26.2529 137.623C26.5625 137.954 27.0089 138.12 27.5921 138.12C27.8225 138.12 28.0565 138.091 28.2941 138.033C28.5389 137.976 28.7729 137.871 28.9961 137.72C29.1041 137.655 29.2013 137.626 29.2877 137.634C29.3813 137.634 29.4569 137.662 29.5145 137.72C29.5721 137.77 29.6081 137.835 29.6225 137.914C29.6369 137.986 29.6261 138.066 29.5901 138.152C29.5541 138.238 29.4857 138.314 29.3849 138.379C29.1473 138.544 28.8629 138.674 28.5317 138.768C28.2077 138.854 27.8945 138.897 27.5921 138.897ZM31.4173 138.876C31.2661 138.876 31.1473 138.832 31.0609 138.746C30.9745 138.66 30.9313 138.534 30.9313 138.368V133.962C30.9313 133.796 30.9745 133.674 31.0609 133.594C31.1473 133.508 31.2661 133.465 31.4173 133.465C31.5685 133.465 31.6837 133.508 31.7629 133.594C31.8493 133.674 31.8925 133.796 31.8925 133.962V134.847L31.7737 134.685C31.9249 134.275 32.1697 133.965 32.5081 133.756C32.8537 133.548 33.2461 133.443 33.6853 133.443C34.1101 133.443 34.4593 133.519 34.7329 133.67C35.0065 133.821 35.2117 134.052 35.3485 134.361C35.4853 134.671 35.5537 135.063 35.5537 135.538V138.368C35.5537 138.534 35.5105 138.66 35.4241 138.746C35.3449 138.832 35.2261 138.876 35.0677 138.876C34.9093 138.876 34.7869 138.832 34.7005 138.746C34.6141 138.66 34.5709 138.534 34.5709 138.368V135.592C34.5709 135.124 34.4809 134.782 34.3009 134.566C34.1209 134.35 33.8329 134.242 33.4369 134.242C32.9761 134.242 32.6053 134.386 32.3245 134.674C32.0509 134.955 31.9141 135.337 31.9141 135.819V138.368C31.9141 138.706 31.7485 138.876 31.4173 138.876ZM39.2933 138.897C38.8685 138.897 38.5121 138.822 38.2241 138.67C37.9433 138.519 37.7309 138.3 37.5869 138.012C37.4501 137.724 37.3817 137.371 37.3817 136.953V134.296H36.6905C36.5609 134.296 36.4601 134.264 36.3881 134.199C36.3161 134.127 36.2801 134.034 36.2801 133.918C36.2801 133.796 36.3161 133.702 36.3881 133.638C36.4601 133.573 36.5609 133.54 36.6905 133.54H37.3817V132.363C37.3817 132.198 37.4249 132.075 37.5113 131.996C37.5977 131.91 37.7201 131.866 37.8785 131.866C38.0369 131.866 38.1557 131.91 38.2349 131.996C38.3213 132.075 38.3645 132.198 38.3645 132.363V133.54H39.6713C39.8081 133.54 39.9125 133.573 39.9845 133.638C40.0565 133.702 40.0925 133.796 40.0925 133.918C40.0925 134.034 40.0565 134.127 39.9845 134.199C39.9125 134.264 39.8081 134.296 39.6713 134.296H38.3645V136.867C38.3645 137.263 38.4473 137.562 38.6129 137.763C38.7785 137.965 39.0521 138.066 39.4337 138.066C39.5705 138.066 39.6857 138.055 39.7793 138.033C39.8729 138.004 39.9557 137.99 40.0277 137.99C40.0925 137.983 40.1465 138.004 40.1897 138.055C40.2401 138.105 40.2653 138.199 40.2653 138.336C40.2653 138.436 40.2473 138.53 40.2113 138.616C40.1825 138.696 40.1213 138.75 40.0277 138.778C39.9413 138.807 39.8261 138.832 39.6821 138.854C39.5381 138.883 39.4085 138.897 39.2933 138.897ZM43.3597 138.897C42.7909 138.897 42.3013 138.789 41.8909 138.573C41.4877 138.35 41.1745 138.037 40.9513 137.634C40.7281 137.223 40.6165 136.741 40.6165 136.186C40.6165 135.639 40.7245 135.16 40.9405 134.75C41.1637 134.34 41.4661 134.019 41.8477 133.789C42.2365 133.558 42.6793 133.443 43.1761 133.443C43.5289 133.443 43.8457 133.504 44.1265 133.627C44.4145 133.742 44.6593 133.911 44.8609 134.134C45.0625 134.358 45.2137 134.631 45.3145 134.955C45.4225 135.272 45.4765 135.632 45.4765 136.035C45.4765 136.15 45.4405 136.24 45.3685 136.305C45.3037 136.363 45.2065 136.392 45.0769 136.392H41.3833V135.765H44.8285L44.6449 135.916C44.6449 135.542 44.5873 135.225 44.4721 134.966C44.3641 134.7 44.2021 134.498 43.9861 134.361C43.7773 134.224 43.5145 134.156 43.1977 134.156C42.8521 134.156 42.5569 134.239 42.3121 134.404C42.0673 134.563 41.8801 134.79 41.7505 135.085C41.6209 135.373 41.5561 135.708 41.5561 136.089V136.154C41.5561 136.802 41.7109 137.292 42.0205 137.623C42.3301 137.954 42.7765 138.12 43.3597 138.12C43.5901 138.12 43.8241 138.091 44.0617 138.033C44.3065 137.976 44.5405 137.871 44.7637 137.72C44.8717 137.655 44.9689 137.626 45.0553 137.634C45.1489 137.634 45.2245 137.662 45.2821 137.72C45.3397 137.77 45.3757 137.835 45.3901 137.914C45.4045 137.986 45.3937 138.066 45.3577 138.152C45.3217 138.238 45.2533 138.314 45.1525 138.379C44.9149 138.544 44.6305 138.674 44.2993 138.768C43.9753 138.854 43.6621 138.897 43.3597 138.897ZM47.174 138.843C46.9868 138.843 46.832 138.782 46.7096 138.66C46.5872 138.537 46.526 138.382 46.526 138.195C46.526 138.008 46.5872 137.857 46.7096 137.742C46.832 137.626 46.9868 137.569 47.174 137.569C47.3756 137.569 47.5304 137.626 47.6384 137.742C47.7536 137.857 47.8112 138.008 47.8112 138.195C47.8112 138.382 47.7536 138.537 47.6384 138.66C47.5304 138.782 47.3756 138.843 47.174 138.843ZM47.174 134.772C46.9868 134.772 46.832 134.714 46.7096 134.599C46.5872 134.476 46.526 134.322 46.526 134.134C46.526 133.947 46.5872 133.796 46.7096 133.681C46.832 133.558 46.9868 133.497 47.174 133.497C47.3756 133.497 47.5304 133.558 47.6384 133.681C47.7536 133.796 47.8112 133.947 47.8112 134.134C47.8112 134.322 47.7536 134.476 47.6384 134.599C47.5304 134.714 47.3756 134.772 47.174 134.772ZM49.8351 138.8C49.6623 138.8 49.5327 138.76 49.4463 138.681C49.3671 138.595 49.3275 138.48 49.3275 138.336C49.3275 138.249 49.3491 138.163 49.3923 138.076C49.4355 137.99 49.5003 137.904 49.5867 137.817L51.9519 135.279C52.3119 134.898 52.5711 134.545 52.7295 134.221C52.8879 133.897 52.9671 133.569 52.9671 133.238C52.9671 132.82 52.8375 132.504 52.5783 132.288C52.3263 132.064 51.9555 131.953 51.4659 131.953C51.1635 131.953 50.8719 132.003 50.5911 132.104C50.3175 132.198 50.0475 132.345 49.7811 132.547C49.6803 132.619 49.5867 132.651 49.5003 132.644C49.4139 132.637 49.3383 132.604 49.2735 132.547C49.2159 132.482 49.1727 132.41 49.1439 132.331C49.1223 132.244 49.1259 132.154 49.1547 132.061C49.1835 131.967 49.2447 131.888 49.3383 131.823C49.6335 131.593 49.9755 131.413 50.3643 131.283C50.7531 131.154 51.1527 131.089 51.5631 131.089C52.0815 131.089 52.5171 131.172 52.8699 131.337C53.2299 131.496 53.5035 131.73 53.6907 132.039C53.8779 132.342 53.9715 132.712 53.9715 133.152C53.9715 133.454 53.9211 133.753 53.8203 134.048C53.7195 134.336 53.5683 134.631 53.3667 134.934C53.1723 135.236 52.9203 135.549 52.6107 135.873L50.3643 138.238V137.947H53.9067C54.0507 137.947 54.1587 137.983 54.2307 138.055C54.3099 138.127 54.3495 138.231 54.3495 138.368C54.3495 138.505 54.3099 138.613 54.2307 138.692C54.1587 138.764 54.0507 138.8 53.9067 138.8H49.8351ZM58.1469 138.897C57.2685 138.897 56.5989 138.562 56.1381 137.893C55.6845 137.216 55.4577 136.248 55.4577 134.988C55.4577 134.131 55.5585 133.414 55.7601 132.838C55.9689 132.262 56.2713 131.827 56.6673 131.532C57.0705 131.236 57.5637 131.089 58.1469 131.089C59.0325 131.089 59.7021 131.42 60.1557 132.082C60.6093 132.738 60.8361 133.702 60.8361 134.977C60.8361 135.819 60.7317 136.532 60.5229 137.115C60.3213 137.698 60.0225 138.141 59.6265 138.444C59.2305 138.746 58.7373 138.897 58.1469 138.897ZM58.1469 138.044C58.7229 138.044 59.1513 137.796 59.4321 137.299C59.7129 136.802 59.8533 136.028 59.8533 134.977C59.8533 133.926 59.7129 133.159 59.4321 132.676C59.1585 132.187 58.7301 131.942 58.1469 131.942C57.5709 131.942 57.1425 132.187 56.8617 132.676C56.5809 133.159 56.4405 133.926 56.4405 134.977C56.4405 136.028 56.5809 136.802 56.8617 137.299C57.1425 137.796 57.5709 138.044 58.1469 138.044ZM63.0567 138.8C62.9199 138.8 62.8119 138.76 62.7327 138.681C62.6535 138.602 62.6139 138.498 62.6139 138.368C62.6139 138.231 62.6535 138.127 62.7327 138.055C62.8119 137.983 62.9199 137.947 63.0567 137.947H64.4175V132.018H64.9359L63.3591 133.033C63.2583 133.098 63.1611 133.126 63.0675 133.119C62.9811 133.105 62.9055 133.069 62.8407 133.011C62.7759 132.946 62.7327 132.871 62.7111 132.784C62.6895 132.698 62.6931 132.612 62.7219 132.525C62.7579 132.432 62.8299 132.356 62.9379 132.298L64.4283 131.326C64.5363 131.262 64.6371 131.211 64.7307 131.175C64.8315 131.132 64.9287 131.11 65.0223 131.11C65.1303 131.11 65.2239 131.143 65.3031 131.208C65.3823 131.272 65.4219 131.377 65.4219 131.521V137.947H66.6747C66.8187 137.947 66.9267 137.983 66.9987 138.055C67.0779 138.127 67.1175 138.231 67.1175 138.368C67.1175 138.505 67.0779 138.613 66.9987 138.692C66.9267 138.764 66.8187 138.8 66.6747 138.8H63.0567Z" fill="white"/>
<path d="M85.506 77.3188C85.2772 77.3188 85.09 77.2408 84.9444 77.0848C84.7988 76.9392 84.726 76.7572 84.726 76.5388V75.1504L85.0848 75.4936C84.3672 75.4728 83.7276 75.3792 83.166 75.2128C82.6148 75.0464 82.1468 74.854 81.762 74.6356C81.5748 74.5212 81.4448 74.3808 81.372 74.2144C81.2992 74.0376 81.2732 73.8608 81.294 73.684C81.3148 73.5072 81.3772 73.3564 81.4812 73.2316C81.5956 73.0964 81.736 73.0132 81.9024 72.982C82.0688 72.9404 82.2612 72.982 82.4796 73.1068C82.7708 73.2732 83.1504 73.4344 83.6184 73.5904C84.0968 73.736 84.6688 73.8088 85.3344 73.8088C85.8544 73.8088 86.2756 73.7464 86.598 73.6216C86.9204 73.4968 87.1544 73.3252 87.3 73.1068C87.456 72.8884 87.534 72.6388 87.534 72.358C87.534 72.1292 87.482 71.9316 87.378 71.7652C87.274 71.5884 87.1024 71.4376 86.8632 71.3128C86.624 71.1776 86.3016 71.0684 85.896 70.9852L84.2424 70.6264C83.296 70.4184 82.5888 70.07 82.1208 69.5812C81.6528 69.0924 81.4188 68.4528 81.4188 67.6624C81.4188 67.0488 81.5696 66.5028 81.8712 66.0244C82.1728 65.5356 82.594 65.1456 83.1348 64.8544C83.6756 64.5632 84.31 64.3916 85.038 64.3396L84.726 64.5736V63.2632C84.726 63.0448 84.7988 62.8628 84.9444 62.7172C85.09 62.5612 85.2772 62.4832 85.506 62.4832C85.7244 62.4832 85.9064 62.5612 86.052 62.7172C86.208 62.8628 86.286 63.0448 86.286 63.2632V64.5736L85.9584 64.324C86.4056 64.3344 86.8944 64.4228 87.4248 64.5892C87.9656 64.7556 88.4284 64.9896 88.8132 65.2912C88.9692 65.416 89.0732 65.5616 89.1252 65.728C89.1772 65.884 89.1824 66.04 89.1408 66.196C89.0992 66.3416 89.0212 66.4664 88.9068 66.5704C88.7924 66.6744 88.6468 66.7368 88.47 66.7576C88.3036 66.768 88.1112 66.7108 87.8928 66.586C87.5912 66.4092 87.2532 66.2688 86.8788 66.1648C86.5044 66.0504 86.0572 65.9932 85.5372 65.9932C84.8716 65.9932 84.3464 66.144 83.9616 66.4456C83.5872 66.7368 83.4 67.1216 83.4 67.6C83.4 67.9536 83.5144 68.2396 83.7432 68.458C83.972 68.666 84.362 68.8324 84.9132 68.9572L86.6136 69.3316C87.612 69.55 88.3452 69.8984 88.8132 70.3768C89.2812 70.8448 89.5152 71.4636 89.5152 72.2332C89.5152 72.8364 89.3644 73.372 89.0628 73.84C88.7612 74.2976 88.3452 74.6668 87.8148 74.9476C87.2948 75.218 86.6864 75.3896 85.9896 75.4624L86.286 75.1348V76.5388C86.286 76.7572 86.2132 76.9392 86.0676 77.0848C85.922 77.2408 85.7348 77.3188 85.506 77.3188ZM94.4855 75.556C93.9239 75.556 93.3415 75.4832 92.7383 75.3376C92.1351 75.192 91.6099 74.9736 91.1627 74.6824C90.9547 74.5472 90.8143 74.3912 90.7415 74.2144C90.6687 74.0376 90.6479 73.8712 90.6791 73.7152C90.7207 73.5488 90.7987 73.4084 90.9131 73.294C91.0379 73.1796 91.1887 73.112 91.3655 73.0912C91.5527 73.0704 91.7555 73.1172 91.9739 73.2316C92.4003 73.4604 92.8111 73.6268 93.2063 73.7308C93.6015 73.8244 94.0071 73.8712 94.4231 73.8712C94.8807 73.8712 95.2655 73.8088 95.5775 73.684C95.8895 73.5592 96.1235 73.372 96.2795 73.1224C96.4459 72.8728 96.5291 72.5712 96.5291 72.2176C96.5291 71.6976 96.3523 71.3128 95.9987 71.0632C95.6555 70.8032 95.1511 70.6732 94.4855 70.6732H93.4871C93.1959 70.6732 92.9723 70.6004 92.8163 70.4548C92.6707 70.3092 92.5979 70.1064 92.5979 69.8464C92.5979 69.5864 92.6707 69.3836 92.8163 69.238C92.9723 69.0924 93.1959 69.0196 93.4871 69.0196H94.2983C94.6935 69.0196 95.0315 68.9572 95.3123 68.8324C95.5931 68.6972 95.8115 68.51 95.9675 68.2708C96.1235 68.0316 96.2015 67.7404 96.2015 67.3972C96.2015 66.9188 96.0403 66.5548 95.7179 66.3052C95.4059 66.0556 94.9483 65.9308 94.3451 65.9308C93.9603 65.9308 93.5963 65.9776 93.2531 66.0712C92.9203 66.1544 92.5511 66.3156 92.1455 66.5548C91.9583 66.6692 91.7763 66.716 91.5995 66.6952C91.4331 66.6744 91.2927 66.6068 91.1783 66.4924C91.0639 66.378 90.9859 66.2428 90.9443 66.0868C90.9027 65.9204 90.9131 65.754 90.9755 65.5876C91.0379 65.4108 91.1679 65.26 91.3655 65.1352C91.8127 64.844 92.3067 64.6256 92.8475 64.48C93.3883 64.324 93.9447 64.246 94.5167 64.246C95.2759 64.246 95.9259 64.3656 96.4667 64.6048C97.0075 64.8336 97.4183 65.1664 97.6991 65.6032C97.9903 66.0296 98.1359 66.5496 98.1359 67.1632C98.1359 67.6 98.0527 68.0004 97.8863 68.3644C97.7199 68.718 97.4859 69.0196 97.1843 69.2692C96.8827 69.5188 96.5187 69.6956 96.0923 69.7996V69.6124C96.8411 69.7372 97.4235 70.0492 97.8395 70.5484C98.2555 71.0372 98.4635 71.6508 98.4635 72.3892C98.4635 73.034 98.3023 73.5956 97.9799 74.074C97.6575 74.5524 97.1999 74.9216 96.6071 75.1816C96.0143 75.4312 95.3071 75.556 94.4855 75.556ZM103.839 75.556C103.278 75.556 102.695 75.4832 102.092 75.3376C101.489 75.192 100.964 74.9736 100.517 74.6824C100.309 74.5472 100.168 74.3912 100.095 74.2144C100.023 74.0376 100.002 73.8712 100.033 73.7152C100.075 73.5488 100.153 73.4084 100.267 73.294C100.392 73.1796 100.543 73.112 100.719 73.0912C100.907 73.0704 101.109 73.1172 101.328 73.2316C101.754 73.4604 102.165 73.6268 102.56 73.7308C102.955 73.8244 103.361 73.8712 103.777 73.8712C104.235 73.8712 104.619 73.8088 104.931 73.684C105.243 73.5592 105.477 73.372 105.633 73.1224C105.8 72.8728 105.883 72.5712 105.883 72.2176C105.883 71.6976 105.706 71.3128 105.353 71.0632C105.009 70.8032 104.505 70.6732 103.839 70.6732H102.841C102.55 70.6732 102.326 70.6004 102.17 70.4548C102.025 70.3092 101.952 70.1064 101.952 69.8464C101.952 69.5864 102.025 69.3836 102.17 69.238C102.326 69.0924 102.55 69.0196 102.841 69.0196H103.652C104.047 69.0196 104.385 68.9572 104.666 68.8324C104.947 68.6972 105.165 68.51 105.321 68.2708C105.477 68.0316 105.555 67.7404 105.555 67.3972C105.555 66.9188 105.394 66.5548 105.072 66.3052C104.76 66.0556 104.302 65.9308 103.699 65.9308C103.314 65.9308 102.95 65.9776 102.607 66.0712C102.274 66.1544 101.905 66.3156 101.499 66.5548C101.312 66.6692 101.13 66.716 100.953 66.6952C100.787 66.6744 100.647 66.6068 100.532 66.4924C100.418 66.378 100.34 66.2428 100.298 66.0868C100.257 65.9204 100.267 65.754 100.329 65.5876C100.392 65.4108 100.522 65.26 100.719 65.1352C101.167 64.844 101.661 64.6256 102.201 64.48C102.742 64.324 103.299 64.246 103.871 64.246C104.63 64.246 105.28 64.3656 105.821 64.6048C106.361 64.8336 106.772 65.1664 107.053 65.6032C107.344 66.0296 107.49 66.5496 107.49 67.1632C107.49 67.6 107.407 68.0004 107.24 68.3644C107.074 68.718 106.84 69.0196 106.538 69.2692C106.237 69.5188 105.873 69.6956 105.446 69.7996V69.6124C106.195 69.7372 106.777 70.0492 107.193 70.5484C107.609 71.0372 107.817 71.6508 107.817 72.3892C107.817 73.034 107.656 73.5956 107.334 74.074C107.011 74.5524 106.554 74.9216 105.961 75.1816C105.368 75.4312 104.661 75.556 103.839 75.556ZM113.412 75.556C112.112 75.556 111.119 75.0672 110.432 74.0896C109.746 73.1016 109.403 71.6976 109.403 69.8776C109.403 68.6504 109.553 67.6208 109.855 66.7888C110.167 65.9464 110.619 65.312 111.212 64.8856C111.815 64.4592 112.549 64.246 113.412 64.246C114.722 64.246 115.715 64.7244 116.391 65.6812C117.078 66.638 117.421 68.0316 117.421 69.862C117.421 71.0788 117.265 72.1136 116.953 72.9664C116.651 73.8088 116.204 74.4536 115.611 74.9008C115.019 75.3376 114.285 75.556 113.412 75.556ZM113.412 73.918C114.119 73.918 114.639 73.5904 114.972 72.9352C115.315 72.28 115.487 71.2556 115.487 69.862C115.487 68.4684 115.315 67.4596 114.972 66.8356C114.639 66.2012 114.119 65.884 113.412 65.884C112.715 65.884 112.195 66.2012 111.852 66.8356C111.509 67.4596 111.337 68.4684 111.337 69.862C111.337 71.2556 111.509 72.28 111.852 72.9352C112.195 73.5904 112.715 73.918 113.412 73.918ZM120.036 75.478C119.682 75.478 119.396 75.3688 119.178 75.1504C118.97 74.932 118.866 74.6512 118.866 74.308C118.866 73.9752 118.97 73.7048 119.178 73.4968C119.396 73.2784 119.682 73.1692 120.036 73.1692C120.4 73.1692 120.68 73.2784 120.878 73.4968C121.086 73.7048 121.19 73.9752 121.19 74.308C121.19 74.6512 121.086 74.932 120.878 75.1504C120.68 75.3688 120.4 75.478 120.036 75.478ZM126.635 75.556C125.335 75.556 124.342 75.0672 123.656 74.0896C122.969 73.1016 122.626 71.6976 122.626 69.8776C122.626 68.6504 122.777 67.6208 123.078 66.7888C123.39 65.9464 123.843 65.312 124.436 64.8856C125.039 64.4592 125.772 64.246 126.635 64.246C127.946 64.246 128.939 64.7244 129.615 65.6812C130.301 66.638 130.644 68.0316 130.644 69.862C130.644 71.0788 130.488 72.1136 130.176 72.9664C129.875 73.8088 129.428 74.4536 128.835 74.9008C128.242 75.3376 127.509 75.556 126.635 75.556ZM126.635 73.918C127.342 73.918 127.862 73.5904 128.195 72.9352C128.538 72.28 128.71 71.2556 128.71 69.862C128.71 68.4684 128.538 67.4596 128.195 66.8356C127.862 66.2012 127.342 65.884 126.635 65.884C125.938 65.884 125.418 66.2012 125.075 66.8356C124.732 67.4596 124.56 68.4684 124.56 69.862C124.56 71.2556 124.732 72.28 125.075 72.9352C125.418 73.5904 125.938 73.918 126.635 73.918ZM135.989 75.556C134.689 75.556 133.696 75.0672 133.009 74.0896C132.323 73.1016 131.98 71.6976 131.98 69.8776C131.98 68.6504 132.131 67.6208 132.432 66.7888C132.744 65.9464 133.197 65.312 133.789 64.8856C134.393 64.4592 135.126 64.246 135.989 64.246C137.299 64.246 138.293 64.7244 138.969 65.6812C139.655 66.638 139.998 68.0316 139.998 69.862C139.998 71.0788 139.842 72.1136 139.53 72.9664C139.229 73.8088 138.781 74.4536 138.189 74.9008C137.596 75.3376 136.863 75.556 135.989 75.556ZM135.989 73.918C136.696 73.918 137.216 73.5904 137.549 72.9352C137.892 72.28 138.064 71.2556 138.064 69.862C138.064 68.4684 137.892 67.4596 137.549 66.8356C137.216 66.2012 136.696 65.884 135.989 65.884C135.292 65.884 134.772 66.2012 134.429 66.8356C134.086 67.4596 133.914 68.4684 133.914 69.862C133.914 71.2556 134.086 72.28 134.429 72.9352C134.772 73.5904 135.292 73.918 135.989 73.918Z" fill="white"/>
<g clip-path="url(#clip1_8138_4161)">
<path d="M212.273 11.034H212.332L212.302 10.9831C211.77 10.0687 210.922 9.35926 209.902 9.01006L209.82 8.98198L209.861 9.05825C210.19 9.66615 210.442 10.3235 210.617 11.0085L210.624 11.034H210.65H212.273ZM208.495 8.80285L208.467 8.76254L208.439 8.80285C207.98 9.46569 207.621 10.2004 207.384 10.9904L207.371 11.034H207.416H209.517H209.563L209.55 10.9904C209.312 10.2004 208.953 9.46569 208.495 8.80285ZM204.177 14.3084L204.183 14.334H204.21H206.069H206.107L206.102 14.2961C206.058 13.9337 206.026 13.5722 206.026 13.2001C206.026 12.8281 206.058 12.4666 206.102 12.1042L206.107 12.0662H206.069H204.21H204.183L204.177 12.0919C204.088 12.4461 204.033 12.8174 204.033 13.2001C204.033 13.5829 204.088 13.9542 204.177 14.3084ZM204.661 15.3662H204.602L204.631 15.4171C205.163 16.3371 206.011 17.041 207.031 17.3902L207.113 17.4183L207.072 17.342C206.743 16.7341 206.491 16.0767 206.316 15.3917L206.309 15.3662H206.283H204.661ZM206.283 11.034H206.309L206.316 11.0085C206.491 10.3235 206.743 9.66615 207.072 9.05825L207.113 8.98198L207.031 9.01006C206.011 9.35923 205.163 10.0631 204.631 10.9832L204.602 11.034H204.661H206.283ZM208.439 17.5974L208.467 17.6377L208.495 17.5974C208.953 16.9346 209.312 16.1999 209.55 15.4099L209.563 15.3662H209.517H207.416H207.371L207.384 15.4099C207.621 16.1999 207.98 16.9346 208.439 17.5974ZM209.754 14.334H209.783L209.787 14.3047C209.837 13.9411 209.876 13.5764 209.876 13.2001C209.876 12.8239 209.837 12.4537 209.787 12.0955L209.783 12.0662H209.754H207.18H207.15L207.146 12.0955C207.097 12.4537 207.058 12.8239 207.058 13.2001C207.058 13.5764 207.097 13.9411 207.146 14.3047L207.15 14.334H207.18H209.754ZM209.861 17.342L209.82 17.4183L209.902 17.3902C210.922 17.041 211.77 16.3316 212.302 15.4172L212.332 15.3662H212.273H210.65H210.624L210.617 15.3917C210.442 16.0767 210.19 16.7341 209.861 17.342ZM210.831 14.2961L210.826 14.334H210.865H212.724H212.75L212.757 14.3084C212.845 13.9542 212.901 13.5829 212.901 13.2001C212.901 12.8174 212.845 12.4461 212.757 12.0919L212.75 12.0662H212.724H210.865H210.826L210.831 12.1042C210.875 12.4666 210.908 12.8281 210.908 13.2001C210.908 13.5722 210.875 13.9337 210.831 14.2961ZM203.001 13.2001C203.001 10.1828 205.444 7.73403 208.461 7.73403C211.484 7.73403 213.933 10.1829 213.933 13.2001C213.933 16.2174 211.484 18.6662 208.461 18.6662C205.444 18.6662 203.001 16.2175 203.001 13.2001Z" fill="#FFF9F9" stroke="#262733" stroke-width="0.0677966"/>
</g>
<g clip-path="url(#clip2_8138_4161)">
<path fill-rule="evenodd" clip-rule="evenodd" d="M52.3625 15.1935C52.5793 16.4704 52.378 17.7834 51.7885 18.9362C51.1991 20.089 50.2531 21.0197 49.0921 21.5892C47.9311 22.1587 46.6173 22.3364 45.3471 22.0958C44.0769 21.8552 42.9185 21.2092 42.0451 20.2544C41.1716 19.2995 40.63 18.087 40.5011 16.7982C40.3723 15.5094 40.6631 14.2133 41.3302 13.1038C41.9973 11.9943 43.0048 11.1309 44.2021 10.6426C45.3994 10.1544 46.7223 10.0675 47.973 10.3949C47.5816 11.8958 45.0373 12.6989 45.0373 12.6989C44.283 13.0065 43.6482 13.5505 43.228 14.2495C42.8077 14.9484 42.6245 15.7649 42.7057 16.5769C42.7868 17.3889 43.1281 18.1527 43.6784 18.7543C44.2286 19.3559 44.9584 19.7628 45.7586 19.9144C46.5588 20.066 47.3865 19.954 48.118 19.5952C48.8494 19.2364 49.4454 18.6501 49.8167 17.9238C49.8167 17.9238 50.8035 15.4593 52.3625 15.1935Z" fill="white"/>
<path d="M50.8926 12.1666C50.4161 11.6408 49.8508 11.2045 49.2235 10.8774C49.0679 10.7963 48.8791 10.8677 48.8066 11.0275L48.6555 11.3604C48.3048 12.1332 48.6825 13.0301 49.2523 13.659C49.8221 14.2878 50.6789 14.75 51.4815 14.4742L51.8248 14.3562C51.9899 14.2995 52.0786 14.1194 52.0135 13.9575C51.7489 13.2995 51.3696 12.693 50.8926 12.1666Z" fill="#FBCF15"/>
<path d="M45.3505 16.2C45.3505 16.8172 45.846 17.3111 46.4593 17.3111C47.0677 17.3111 47.5682 16.8172 47.5682 16.2C47.5682 15.5876 47.0677 15.0888 46.4593 15.0888C45.846 15.0888 45.3505 15.5876 45.3505 16.2Z" fill="#FBCF15"/>
<rect x="45.1503" y="14.8906" width="2.58831" height="2.59419" rx="1.29416" fill="#FBCF15"/>
<path d="M63.5357 19.5705V10.2505C62.0978 10.2505 61.2839 11.4091 61.2839 12.8533V18.2067L56.7778 11.3838C56.3006 10.6613 55.5156 10.0122 54.6861 10.25C53.7776 10.5104 53.7776 11.4735 53.7776 12.8293V22.149C54.2115 22.149 54.5886 22.0457 54.9036 21.8618C55.6326 21.4362 56.0295 20.5789 56.0295 19.5705L55.9954 14.1931L60.5352 21.0227C61.0128 21.7412 61.7947 22.3851 62.6221 22.1512C63.5357 21.8929 63.5357 20.9288 63.5357 19.5705Z" fill="white"/>
<path d="M24.0599 19.5792V10.2C22.8355 10.2 21.8422 11.3894 21.8422 12.857V22.2C23.0666 22.2 24.0599 21.0527 24.0599 19.5792Z" fill="white"/>
<path d="M38.7128 19.5794V10.2002C37.4796 10.2002 36.4792 11.3896 36.4792 12.8572V22.2002C37.7124 22.2002 38.7128 21.0529 38.7128 19.5794Z" fill="white"/>
<path d="M16.6611 12.0612L15.6325 13.9268L14.6249 12.0994C13.7699 10.5488 12.235 9.8011 11.197 10.4286L14.3791 16.2L11.197 21.9714C12.235 22.5989 13.7699 21.8512 14.6249 20.3006L15.6325 18.4732L16.6611 20.3388C17.5195 21.8957 19.03 22.5989 20.068 21.9714L16.8858 16.2L20.068 10.4286C19.03 9.80111 17.5195 10.5044 16.6611 12.0612Z" fill="white"/>
<path d="M26.2777 12.821C26.2777 11.3476 27.2951 10.2002 28.5492 10.2002V19.9502L34.7051 19.9502C34.7051 21.1925 33.4567 22.2002 31.9163 22.2002H26.2777V12.821Z" fill="white"/>
</g>
<g clip-path="url(#clip3_8138_4161)">
<path d="M140.666 87H80.6663V147H140.666V87Z" fill="white"/>
<path d="M106.53 92.7967C106.873 92.7967 107.151 92.5188 107.151 92.176C107.151 91.8332 106.873 91.5553 106.53 91.5553C106.187 91.5553 105.909 91.8332 105.909 92.176C105.909 92.5188 106.187 92.7967 106.53 92.7967Z" fill="#26292E"/>
<path d="M108.603 92.7967C108.946 92.7967 109.223 92.5188 109.223 92.176C109.223 91.8332 108.946 91.5553 108.603 91.5553C108.26 91.5553 107.982 91.8332 107.982 92.176C107.982 92.5188 108.26 92.7967 108.603 92.7967Z" fill="#26292E"/>
<path d="M110.674 92.7967C111.016 92.7967 111.294 92.5188 111.294 92.176C111.294 91.8332 111.016 91.5553 110.674 91.5553C110.331 91.5553 110.053 91.8332 110.053 92.176C110.053 92.5188 110.331 92.7967 110.674 92.7967Z" fill="#26292E"/>
<path d="M112.739 92.7967C113.082 92.7967 113.36 92.5188 113.36 92.176C113.36 91.8332 113.082 91.5553 112.739 91.5553C112.396 91.5553 112.118 91.8332 112.118 92.176C112.118 92.5188 112.396 92.7967 112.739 92.7967Z" fill="#26292E"/>
<path d="M118.948 92.7967C119.291 92.7967 119.569 92.5188 119.569 92.176C119.569 91.8332 119.291 91.5553 118.948 91.5553C118.606 91.5553 118.328 91.8332 118.328 92.176C118.328 92.5188 118.606 92.7967 118.948 92.7967Z" fill="#26292E"/>
<path d="M106.53 94.864C106.873 94.864 107.151 94.5862 107.151 94.2434C107.151 93.9006 106.873 93.6227 106.53 93.6227C106.187 93.6227 105.909 93.9006 105.909 94.2434C105.909 94.5862 106.187 94.864 106.53 94.864Z" fill="#26292E"/>
<path d="M112.739 94.864C113.082 94.864 113.36 94.5862 113.36 94.2434C113.36 93.9006 113.082 93.6227 112.739 93.6227C112.396 93.6227 112.118 93.9006 112.118 94.2434C112.118 94.5862 112.396 94.864 112.739 94.864Z" fill="#26292E"/>
<path d="M114.809 94.864C115.152 94.864 115.43 94.5862 115.43 94.2434C115.43 93.9006 115.152 93.6227 114.809 93.6227C114.467 93.6227 114.189 93.9006 114.189 94.2434C114.189 94.5862 114.467 94.864 114.809 94.864Z" fill="#26292E"/>
<path d="M116.877 94.864C117.22 94.864 117.498 94.5862 117.498 94.2434C117.498 93.9006 117.22 93.6227 116.877 93.6227C116.535 93.6227 116.257 93.9006 116.257 94.2434C116.257 94.5862 116.535 94.864 116.877 94.864Z" fill="#26292E"/>
<path d="M118.948 94.864C119.291 94.864 119.569 94.5862 119.569 94.2434C119.569 93.9006 119.291 93.6227 118.948 93.6227C118.606 93.6227 118.328 93.9006 118.328 94.2434C118.328 94.5862 118.606 94.864 118.948 94.864Z" fill="#26292E"/>
<path d="M102.393 96.935C102.736 96.935 103.014 96.6571 103.014 96.3143C103.014 95.9715 102.736 95.6936 102.393 95.6936C102.05 95.6936 101.773 95.9715 101.773 96.3143C101.773 96.6571 102.05 96.935 102.393 96.935Z" fill="#26292E"/>
<path d="M104.464 96.935C104.807 96.935 105.085 96.6571 105.085 96.3143C105.085 95.9715 104.807 95.6936 104.464 95.6936C104.121 95.6936 103.844 95.9715 103.844 96.3143C103.844 96.6571 104.121 96.935 104.464 96.935Z" fill="#26292E"/>
<path d="M106.53 96.935C106.873 96.935 107.151 96.6571 107.151 96.3143C107.151 95.9715 106.873 95.6936 106.53 95.6936C106.187 95.6936 105.909 95.9715 105.909 96.3143C105.909 96.6571 106.187 96.935 106.53 96.935Z" fill="#26292E"/>
<path d="M108.603 96.935C108.946 96.935 109.223 96.6571 109.223 96.3143C109.223 95.9715 108.946 95.6936 108.603 95.6936C108.26 95.6936 107.982 95.9715 107.982 96.3143C107.982 96.6571 108.26 96.935 108.603 96.935Z" fill="#26292E"/>
<path d="M118.948 96.935C119.291 96.935 119.569 96.6571 119.569 96.3143C119.569 95.9715 119.291 95.6936 118.948 95.6936C118.606 95.6936 118.328 95.9715 118.328 96.3143C118.328 96.6571 118.606 96.935 118.948 96.935Z" fill="#26292E"/>
<path d="M102.393 99.0055C102.736 99.0055 103.014 98.7276 103.014 98.3848C103.014 98.042 102.736 97.7642 102.393 97.7642C102.05 97.7642 101.773 98.042 101.773 98.3848C101.773 98.7276 102.05 99.0055 102.393 99.0055Z" fill="#26292E"/>
<path d="M106.53 99.0055C106.873 99.0055 107.151 98.7276 107.151 98.3848C107.151 98.042 106.873 97.7642 106.53 97.7642C106.187 97.7642 105.909 98.042 105.909 98.3848C105.909 98.7276 106.187 99.0055 106.53 99.0055Z" fill="#26292E"/>
<path d="M108.603 99.0055C108.946 99.0055 109.223 98.7276 109.223 98.3848C109.223 98.042 108.946 97.7642 108.603 97.7642C108.26 97.7642 107.982 98.042 107.982 98.3848C107.982 98.7276 108.26 99.0055 108.603 99.0055Z" fill="#26292E"/>
<path d="M110.674 99.0055C111.016 99.0055 111.294 98.7276 111.294 98.3848C111.294 98.042 111.016 97.7642 110.674 97.7642C110.331 97.7642 110.053 98.042 110.053 98.3848C110.053 98.7276 110.331 99.0055 110.674 99.0055Z" fill="#26292E"/>
<path d="M112.739 99.0055C113.082 99.0055 113.36 98.7276 113.36 98.3848C113.36 98.042 113.082 97.7642 112.739 97.7642C112.396 97.7642 112.118 98.042 112.118 98.3848C112.118 98.7276 112.396 99.0055 112.739 99.0055Z" fill="#26292E"/>
<path d="M102.393 101.073C102.736 101.073 103.014 100.796 103.014 100.453C103.014 100.11 102.736 99.832 102.393 99.832C102.05 99.832 101.773 100.11 101.773 100.453C101.773 100.796 102.05 101.073 102.393 101.073Z" fill="#26292E"/>
<path d="M104.464 101.073C104.807 101.073 105.085 100.796 105.085 100.453C105.085 100.11 104.807 99.832 104.464 99.832C104.121 99.832 103.844 100.11 103.844 100.453C103.844 100.796 104.121 101.073 104.464 101.073Z" fill="#26292E"/>
<path d="M106.53 101.073C106.873 101.073 107.151 100.796 107.151 100.453C107.151 100.11 106.873 99.832 106.53 99.832C106.187 99.832 105.909 100.11 105.909 100.453C105.909 100.796 106.187 101.073 106.53 101.073Z" fill="#26292E"/>
<path d="M110.674 101.073C111.016 101.073 111.294 100.796 111.294 100.453C111.294 100.11 111.016 99.832 110.674 99.832C110.331 99.832 110.053 100.11 110.053 100.453C110.053 100.796 110.331 101.073 110.674 101.073Z" fill="#26292E"/>
<path d="M112.739 101.073C113.082 101.073 113.36 100.796 113.36 100.453C113.36 100.11 113.082 99.832 112.739 99.832C112.396 99.832 112.118 100.11 112.118 100.453C112.118 100.796 112.396 101.073 112.739 101.073Z" fill="#26292E"/>
<path d="M118.948 101.073C119.291 101.073 119.569 100.796 119.569 100.453C119.569 100.11 119.291 99.832 118.948 99.832C118.606 99.832 118.328 100.11 118.328 100.453C118.328 100.796 118.606 101.073 118.948 101.073Z" fill="#26292E"/>
<path d="M102.393 103.144C102.736 103.144 103.014 102.866 103.014 102.523C103.014 102.18 102.736 101.903 102.393 101.903C102.05 101.903 101.773 102.18 101.773 102.523C101.773 102.866 102.05 103.144 102.393 103.144Z" fill="#26292E"/>
<path d="M104.464 103.144C104.807 103.144 105.085 102.866 105.085 102.523C105.085 102.18 104.807 101.902 104.464 101.902C104.121 101.902 103.844 102.18 103.844 102.523C103.844 102.866 104.121 103.144 104.464 103.144Z" fill="#26292E"/>
<path d="M108.603 103.144C108.946 103.144 109.223 102.866 109.223 102.523C109.223 102.18 108.946 101.902 108.603 101.902C108.26 101.902 107.982 102.18 107.982 102.523C107.982 102.866 108.26 103.144 108.603 103.144Z" fill="#26292E"/>
<path d="M112.739 103.144C113.082 103.144 113.36 102.866 113.36 102.523C113.36 102.18 113.082 101.903 112.739 101.903C112.396 101.903 112.118 102.18 112.118 102.523C112.118 102.866 112.396 103.144 112.739 103.144Z" fill="#26292E"/>
<path d="M114.809 103.144C115.152 103.144 115.43 102.866 115.43 102.523C115.43 102.18 115.152 101.903 114.809 101.903C114.467 101.903 114.189 102.18 114.189 102.523C114.189 102.866 114.467 103.144 114.809 103.144Z" fill="#26292E"/>
<path d="M116.877 103.144C117.22 103.144 117.498 102.866 117.498 102.523C117.498 102.18 117.22 101.902 116.877 101.902C116.535 101.902 116.257 102.18 116.257 102.523C116.257 102.866 116.535 103.144 116.877 103.144Z" fill="#26292E"/>
<path d="M118.948 103.144C119.291 103.144 119.569 102.866 119.569 102.523C119.569 102.18 119.291 101.903 118.948 101.903C118.606 101.903 118.328 102.18 118.328 102.523C118.328 102.866 118.606 103.144 118.948 103.144Z" fill="#26292E"/>
<path d="M102.393 105.21C102.736 105.21 103.014 104.932 103.014 104.589C103.014 104.246 102.736 103.968 102.393 103.968C102.05 103.968 101.773 104.246 101.773 104.589C101.773 104.932 102.05 105.21 102.393 105.21Z" fill="#26292E"/>
<path d="M106.53 105.21C106.873 105.21 107.151 104.932 107.151 104.589C107.151 104.246 106.873 103.968 106.53 103.968C106.187 103.968 105.909 104.246 105.909 104.589C105.909 104.932 106.187 105.21 106.53 105.21Z" fill="#26292E"/>
<path d="M110.674 105.21C111.016 105.21 111.294 104.932 111.294 104.589C111.294 104.246 111.016 103.968 110.674 103.968C110.331 103.968 110.053 104.246 110.053 104.589C110.053 104.932 110.331 105.21 110.674 105.21Z" fill="#26292E"/>
<path d="M114.809 105.21C115.152 105.21 115.43 104.932 115.43 104.589C115.43 104.246 115.152 103.968 114.809 103.968C114.467 103.968 114.189 104.246 114.189 104.589C114.189 104.932 114.467 105.21 114.809 105.21Z" fill="#26292E"/>
<path d="M118.948 105.21C119.291 105.21 119.569 104.932 119.569 104.589C119.569 104.246 119.291 103.968 118.948 103.968C118.606 103.968 118.328 104.246 118.328 104.589C118.328 104.932 118.606 105.21 118.948 105.21Z" fill="#26292E"/>
<path d="M85.843 109.348C86.1858 109.348 86.4637 109.07 86.4637 108.727C86.4637 108.384 86.1858 108.107 85.843 108.107C85.5002 108.107 85.2223 108.384 85.2223 108.727C85.2223 109.07 85.5002 109.348 85.843 109.348Z" fill="#26292E"/>
<path d="M89.9807 109.348C90.3235 109.348 90.6014 109.07 90.6014 108.727C90.6014 108.384 90.3235 108.107 89.9807 108.107C89.6379 108.107 89.36 108.384 89.36 108.727C89.36 109.07 89.6379 109.348 89.9807 109.348Z" fill="#26292E"/>
<path d="M92.0511 109.348C92.3939 109.348 92.6718 109.07 92.6718 108.727C92.6718 108.384 92.3939 108.107 92.0511 108.107C91.7083 108.107 91.4305 108.384 91.4305 108.727C91.4305 109.07 91.7083 109.348 92.0511 109.348Z" fill="#26292E"/>
<path d="M94.1185 109.348C94.4613 109.348 94.7392 109.07 94.7392 108.727C94.7392 108.384 94.4613 108.107 94.1185 108.107C93.7757 108.107 93.4978 108.384 93.4978 108.727C93.4978 109.07 93.7757 109.348 94.1185 109.348Z" fill="#26292E"/>
<path d="M96.1893 109.348C96.5321 109.348 96.81 109.07 96.81 108.727C96.81 108.384 96.5321 108.107 96.1893 108.107C95.8465 108.107 95.5686 108.384 95.5686 108.727C95.5686 109.07 95.8465 109.348 96.1893 109.348Z" fill="#26292E"/>
<path d="M98.2561 109.348C98.5989 109.348 98.8768 109.07 98.8768 108.727C98.8768 108.384 98.5989 108.107 98.2561 108.107C97.9133 108.107 97.6354 108.384 97.6354 108.727C97.6354 109.07 97.9133 109.348 98.2561 109.348Z" fill="#26292E"/>
<path d="M104.464 109.348C104.807 109.348 105.085 109.07 105.085 108.727C105.085 108.384 104.807 108.107 104.464 108.107C104.121 108.107 103.844 108.384 103.844 108.727C103.844 109.07 104.121 109.348 104.464 109.348Z" fill="#26292E"/>
<path d="M108.603 109.348C108.946 109.348 109.223 109.07 109.223 108.727C109.223 108.384 108.946 108.107 108.603 108.107C108.26 108.107 107.982 108.384 107.982 108.727C107.982 109.07 108.26 109.348 108.603 109.348Z" fill="#26292E"/>
<path d="M110.674 109.348C111.016 109.348 111.294 109.07 111.294 108.727C111.294 108.384 111.016 108.107 110.674 108.107C110.331 108.107 110.053 108.384 110.053 108.727C110.053 109.07 110.331 109.348 110.674 109.348Z" fill="#26292E"/>
<path d="M112.739 109.348C113.082 109.348 113.36 109.07 113.36 108.727C113.36 108.384 113.082 108.107 112.739 108.107C112.396 108.107 112.118 108.384 112.118 108.727C112.118 109.07 112.396 109.348 112.739 109.348Z" fill="#26292E"/>
<path d="M114.809 109.348C115.152 109.348 115.43 109.07 115.43 108.727C115.43 108.384 115.152 108.107 114.809 108.107C114.467 108.107 114.189 108.384 114.189 108.727C114.189 109.07 114.467 109.348 114.809 109.348Z" fill="#26292E"/>
<path d="M123.084 109.348C123.427 109.348 123.705 109.07 123.705 108.727C123.705 108.384 123.427 108.107 123.084 108.107C122.741 108.107 122.463 108.384 122.463 108.727C122.463 109.07 122.741 109.348 123.084 109.348Z" fill="#26292E"/>
<path d="M125.152 109.348C125.494 109.348 125.772 109.07 125.772 108.727C125.772 108.384 125.494 108.107 125.152 108.107C124.809 108.107 124.531 108.384 124.531 108.727C124.531 109.07 124.809 109.348 125.152 109.348Z" fill="#26292E"/>
<path d="M127.222 109.348C127.565 109.348 127.843 109.07 127.843 108.727C127.843 108.384 127.565 108.107 127.222 108.107C126.88 108.107 126.602 108.384 126.602 108.727C126.602 109.07 126.88 109.348 127.222 109.348Z" fill="#26292E"/>
<path d="M129.292 109.348C129.635 109.348 129.913 109.07 129.913 108.727C129.913 108.384 129.635 108.107 129.292 108.107C128.95 108.107 128.672 108.384 128.672 108.727C128.672 109.07 128.95 109.348 129.292 109.348Z" fill="#26292E"/>
<path d="M131.361 109.348C131.704 109.348 131.982 109.07 131.982 108.727C131.982 108.384 131.704 108.107 131.361 108.107C131.019 108.107 130.741 108.384 130.741 108.727C130.741 109.07 131.019 109.348 131.361 109.348Z" fill="#26292E"/>
<path d="M85.843 111.418C86.1858 111.418 86.4637 111.141 86.4637 110.798C86.4637 110.455 86.1858 110.177 85.843 110.177C85.5002 110.177 85.2223 110.455 85.2223 110.798C85.2223 111.141 85.5002 111.418 85.843 111.418Z" fill="#26292E"/>
<path d="M89.9807 111.418C90.3235 111.418 90.6014 111.141 90.6014 110.798C90.6014 110.455 90.3235 110.177 89.9807 110.177C89.6379 110.177 89.36 110.455 89.36 110.798C89.36 111.141 89.6379 111.418 89.9807 111.418Z" fill="#26292E"/>
<path d="M92.0511 111.418C92.3939 111.418 92.6718 111.141 92.6718 110.798C92.6718 110.455 92.3939 110.177 92.0511 110.177C91.7083 110.177 91.4305 110.455 91.4305 110.798C91.4305 111.141 91.7083 111.418 92.0511 111.418Z" fill="#26292E"/>
<path d="M94.1185 111.418C94.4613 111.418 94.7392 111.141 94.7392 110.798C94.7392 110.455 94.4613 110.177 94.1185 110.177C93.7757 110.177 93.4978 110.455 93.4978 110.798C93.4978 111.141 93.7757 111.418 94.1185 111.418Z" fill="#26292E"/>
<path d="M102.393 111.418C102.736 111.418 103.014 111.141 103.014 110.798C103.014 110.455 102.736 110.177 102.393 110.177C102.05 110.177 101.773 110.455 101.773 110.798C101.773 111.141 102.05 111.418 102.393 111.418Z" fill="#26292E"/>
<path d="M106.53 111.418C106.873 111.418 107.151 111.141 107.151 110.798C107.151 110.455 106.873 110.177 106.53 110.177C106.187 110.177 105.909 110.455 105.909 110.798C105.909 111.141 106.187 111.418 106.53 111.418Z" fill="#26292E"/>
<path d="M108.603 111.418C108.946 111.418 109.223 111.141 109.223 110.798C109.223 110.455 108.946 110.177 108.603 110.177C108.26 110.177 107.982 110.455 107.982 110.798C107.982 111.141 108.26 111.418 108.603 111.418Z" fill="#26292E"/>
<path d="M112.739 111.418C113.082 111.418 113.36 111.141 113.36 110.798C113.36 110.455 113.082 110.177 112.739 110.177C112.396 110.177 112.118 110.455 112.118 110.798C112.118 111.141 112.396 111.418 112.739 111.418Z" fill="#26292E"/>
<path d="M118.948 111.418C119.291 111.418 119.569 111.141 119.569 110.798C119.569 110.455 119.291 110.177 118.948 110.177C118.606 110.177 118.328 110.455 118.328 110.798C118.328 111.141 118.606 111.418 118.948 111.418Z" fill="#26292E"/>
<path d="M125.152 111.418C125.494 111.418 125.772 111.141 125.772 110.798C125.772 110.455 125.494 110.177 125.152 110.177C124.809 110.177 124.531 110.455 124.531 110.798C124.531 111.141 124.809 111.418 125.152 111.418Z" fill="#26292E"/>
<path d="M133.432 111.418C133.774 111.418 134.052 111.141 134.052 110.798C134.052 110.455 133.774 110.177 133.432 110.177C133.089 110.177 132.811 110.455 132.811 110.798C132.811 111.141 133.089 111.418 133.432 111.418Z" fill="#26292E"/>
<path d="M85.843 113.484C86.1858 113.484 86.4637 113.206 86.4637 112.863C86.4637 112.521 86.1858 112.243 85.843 112.243C85.5002 112.243 85.2223 112.521 85.2223 112.863C85.2223 113.206 85.5002 113.484 85.843 113.484Z" fill="#26292E"/>
<path d="M87.91 113.484C88.2528 113.484 88.5307 113.206 88.5307 112.863C88.5307 112.521 88.2528 112.243 87.91 112.243C87.5672 112.243 87.2893 112.521 87.2893 112.863C87.2893 113.206 87.5672 113.484 87.91 113.484Z" fill="#26292E"/>
<path d="M89.9807 113.484C90.3235 113.484 90.6014 113.206 90.6014 112.864C90.6014 112.521 90.3235 112.243 89.9807 112.243C89.6379 112.243 89.36 112.521 89.36 112.864C89.36 113.206 89.6379 113.484 89.9807 113.484Z" fill="#26292E"/>
<path d="M98.2561 113.484C98.5989 113.484 98.8768 113.206 98.8768 112.863C98.8768 112.521 98.5989 112.243 98.2561 112.243C97.9133 112.243 97.6354 112.521 97.6354 112.863C97.6354 113.206 97.9133 113.484 98.2561 113.484Z" fill="#26292E"/>
<path d="M102.393 113.484C102.736 113.484 103.014 113.206 103.014 112.863C103.014 112.521 102.736 112.243 102.393 112.243C102.05 112.243 101.773 112.521 101.773 112.863C101.773 113.206 102.05 113.484 102.393 113.484Z" fill="#26292E"/>
<path d="M106.53 113.484C106.873 113.484 107.151 113.206 107.151 112.864C107.151 112.521 106.873 112.243 106.53 112.243C106.187 112.243 105.909 112.521 105.909 112.864C105.909 113.206 106.187 113.484 106.53 113.484Z" fill="#26292E"/>
<path d="M116.877 113.484C117.22 113.484 117.498 113.206 117.498 112.864C117.498 112.521 117.22 112.243 116.877 112.243C116.535 112.243 116.257 112.521 116.257 112.864C116.257 113.206 116.535 113.484 116.877 113.484Z" fill="#26292E"/>
<path d="M123.084 113.484C123.427 113.484 123.705 113.206 123.705 112.864C123.705 112.521 123.427 112.243 123.084 112.243C122.741 112.243 122.463 112.521 122.463 112.864C122.463 113.206 122.741 113.484 123.084 113.484Z" fill="#26292E"/>
<path d="M125.152 113.484C125.494 113.484 125.772 113.206 125.772 112.864C125.772 112.521 125.494 112.243 125.152 112.243C124.809 112.243 124.531 112.521 124.531 112.864C124.531 113.206 124.809 113.484 125.152 113.484Z" fill="#26292E"/>
<path d="M127.222 113.484C127.565 113.484 127.843 113.206 127.843 112.864C127.843 112.521 127.565 112.243 127.222 112.243C126.88 112.243 126.602 112.521 126.602 112.864C126.602 113.206 126.88 113.484 127.222 113.484Z" fill="#26292E"/>
<path d="M129.292 113.484C129.635 113.484 129.913 113.206 129.913 112.863C129.913 112.521 129.635 112.243 129.292 112.243C128.95 112.243 128.672 112.521 128.672 112.863C128.672 113.206 128.95 113.484 129.292 113.484Z" fill="#26292E"/>
<path d="M133.432 113.484C133.774 113.484 134.052 113.206 134.052 112.864C134.052 112.521 133.774 112.243 133.432 112.243C133.089 112.243 132.811 112.521 132.811 112.864C132.811 113.206 133.089 113.484 133.432 113.484Z" fill="#26292E"/>
<path d="M135.497 113.484C135.84 113.484 136.118 113.206 136.118 112.864C136.118 112.521 135.84 112.243 135.497 112.243C135.154 112.243 134.877 112.521 134.877 112.864C134.877 113.206 135.154 113.484 135.497 113.484Z" fill="#26292E"/>
<path d="M85.843 115.557C86.1858 115.557 86.4637 115.279 86.4637 114.936C86.4637 114.594 86.1858 114.316 85.843 114.316C85.5002 114.316 85.2223 114.594 85.2223 114.936C85.2223 115.279 85.5002 115.557 85.843 115.557Z" fill="#26292E"/>
<path d="M89.9807 115.557C90.3235 115.557 90.6014 115.279 90.6014 114.936C90.6014 114.593 90.3235 114.315 89.9807 114.315C89.6379 114.315 89.36 114.593 89.36 114.936C89.36 115.279 89.6379 115.557 89.9807 115.557Z" fill="#26292E"/>
<path d="M94.1185 115.557C94.4613 115.557 94.7392 115.279 94.7392 114.936C94.7392 114.594 94.4613 114.316 94.1185 114.316C93.7757 114.316 93.4978 114.594 93.4978 114.936C93.4978 115.279 93.7757 115.557 94.1185 115.557Z" fill="#26292E"/>
<path d="M96.1893 115.557C96.5321 115.557 96.81 115.279 96.81 114.936C96.81 114.593 96.5321 114.315 96.1893 114.315C95.8465 114.315 95.5686 114.593 95.5686 114.936C95.5686 115.279 95.8465 115.557 96.1893 115.557Z" fill="#26292E"/>
<path d="M102.393 115.557C102.736 115.557 103.014 115.279 103.014 114.936C103.014 114.594 102.736 114.316 102.393 114.316C102.05 114.316 101.773 114.594 101.773 114.936C101.773 115.279 102.05 115.557 102.393 115.557Z" fill="#26292E"/>
<path d="M106.53 115.557C106.873 115.557 107.151 115.279 107.151 114.936C107.151 114.593 106.873 114.315 106.53 114.315C106.187 114.315 105.909 114.593 105.909 114.936C105.909 115.279 106.187 115.557 106.53 115.557Z" fill="#26292E"/>
<path d="M108.603 115.557C108.946 115.557 109.223 115.279 109.223 114.936C109.223 114.593 108.946 114.315 108.603 114.315C108.26 114.315 107.982 114.593 107.982 114.936C107.982 115.279 108.26 115.557 108.603 115.557Z" fill="#26292E"/>
<path d="M114.809 115.557C115.152 115.557 115.43 115.279 115.43 114.936C115.43 114.594 115.152 114.316 114.809 114.316C114.467 114.316 114.189 114.594 114.189 114.936C114.189 115.279 114.467 115.557 114.809 115.557Z" fill="#26292E"/>
<path d="M116.877 115.557C117.22 115.557 117.498 115.279 117.498 114.936C117.498 114.593 117.22 114.315 116.877 114.315C116.535 114.315 116.257 114.593 116.257 114.936C116.257 115.279 116.535 115.557 116.877 115.557Z" fill="#26292E"/>
<path d="M118.948 115.557C119.291 115.557 119.569 115.279 119.569 114.936C119.569 114.594 119.291 114.316 118.948 114.316C118.606 114.316 118.328 114.594 118.328 114.936C118.328 115.279 118.606 115.557 118.948 115.557Z" fill="#26292E"/>
<path d="M125.152 115.557C125.494 115.557 125.772 115.279 125.772 114.936C125.772 114.593 125.494 114.315 125.152 114.315C124.809 114.315 124.531 114.593 124.531 114.936C124.531 115.279 124.809 115.557 125.152 115.557Z" fill="#26292E"/>
<path d="M135.497 115.557C135.84 115.557 136.118 115.279 136.118 114.936C136.118 114.593 135.84 114.315 135.497 114.315C135.154 114.315 134.877 114.593 134.877 114.936C134.877 115.279 135.154 115.557 135.497 115.557Z" fill="#26292E"/>
<path d="M85.843 117.628C86.1858 117.628 86.4637 117.35 86.4637 117.007C86.4637 116.664 86.1858 116.386 85.843 116.386C85.5002 116.386 85.2223 116.664 85.2223 117.007C85.2223 117.35 85.5002 117.628 85.843 117.628Z" fill="#26292E"/>
<path d="M92.0511 117.628C92.3939 117.628 92.6718 117.35 92.6718 117.007C92.6718 116.664 92.3939 116.386 92.0511 116.386C91.7083 116.386 91.4305 116.664 91.4305 117.007C91.4305 117.35 91.7083 117.628 92.0511 117.628Z" fill="#26292E"/>
<path d="M98.2561 117.628C98.5989 117.628 98.8768 117.35 98.8768 117.007C98.8768 116.664 98.5989 116.386 98.2561 116.386C97.9133 116.386 97.6354 116.664 97.6354 117.007C97.6354 117.35 97.9133 117.628 98.2561 117.628Z" fill="#26292E"/>
<path d="M102.393 117.628C102.736 117.628 103.014 117.35 103.014 117.007C103.014 116.664 102.736 116.386 102.393 116.386C102.05 116.386 101.773 116.664 101.773 117.007C101.773 117.35 102.05 117.628 102.393 117.628Z" fill="#26292E"/>
<path d="M104.464 117.628C104.807 117.628 105.085 117.35 105.085 117.007C105.085 116.664 104.807 116.386 104.464 116.386C104.121 116.386 103.844 116.664 103.844 117.007C103.844 117.35 104.121 117.628 104.464 117.628Z" fill="#26292E"/>
<path d="M110.674 117.628C111.016 117.628 111.294 117.35 111.294 117.007C111.294 116.664 111.016 116.386 110.674 116.386C110.331 116.386 110.053 116.664 110.053 117.007C110.053 117.35 110.331 117.628 110.674 117.628Z" fill="#26292E"/>
<path d="M112.739 117.628C113.082 117.628 113.36 117.35 113.36 117.007C113.36 116.664 113.082 116.386 112.739 116.386C112.396 116.386 112.118 116.664 112.118 117.007C112.118 117.35 112.396 117.628 112.739 117.628Z" fill="#26292E"/>
<path d="M114.809 117.628C115.152 117.628 115.43 117.35 115.43 117.007C115.43 116.664 115.152 116.386 114.809 116.386C114.467 116.386 114.189 116.664 114.189 117.007C114.189 117.35 114.467 117.628 114.809 117.628Z" fill="#26292E"/>
<path d="M123.084 117.628C123.427 117.628 123.705 117.35 123.705 117.007C123.705 116.664 123.427 116.386 123.084 116.386C122.741 116.386 122.463 116.664 122.463 117.007C122.463 117.35 122.741 117.628 123.084 117.628Z" fill="#26292E"/>
<path d="M125.152 117.628C125.494 117.628 125.772 117.35 125.772 117.007C125.772 116.664 125.494 116.386 125.152 116.386C124.809 116.386 124.531 116.664 124.531 117.007C124.531 117.35 124.809 117.628 125.152 117.628Z" fill="#26292E"/>
<path d="M127.222 117.628C127.565 117.628 127.843 117.35 127.843 117.007C127.843 116.664 127.565 116.386 127.222 116.386C126.88 116.386 126.602 116.664 126.602 117.007C126.602 117.35 126.88 117.628 127.222 117.628Z" fill="#26292E"/>
<path d="M131.361 117.628C131.704 117.628 131.982 117.35 131.982 117.007C131.982 116.664 131.704 116.386 131.361 116.386C131.019 116.386 130.741 116.664 130.741 117.007C130.741 117.35 131.019 117.628 131.361 117.628Z" fill="#26292E"/>
<path d="M133.432 117.628C133.774 117.628 134.052 117.35 134.052 117.007C134.052 116.664 133.774 116.386 133.432 116.386C133.089 116.386 132.811 116.664 132.811 117.007C132.811 117.35 133.089 117.628 133.432 117.628Z" fill="#26292E"/>
<path d="M135.497 117.628C135.84 117.628 136.118 117.35 136.118 117.007C136.118 116.664 135.84 116.386 135.497 116.386C135.154 116.386 134.877 116.664 134.877 117.007C134.877 117.35 135.154 117.628 135.497 117.628Z" fill="#26292E"/>
<path d="M85.843 119.693C86.1858 119.693 86.4637 119.415 86.4637 119.073C86.4637 118.73 86.1858 118.452 85.843 118.452C85.5002 118.452 85.2223 118.73 85.2223 119.073C85.2223 119.415 85.5002 119.693 85.843 119.693Z" fill="#26292E"/>
<path d="M89.9807 119.693C90.3235 119.693 90.6014 119.415 90.6014 119.073C90.6014 118.73 90.3235 118.452 89.9807 118.452C89.6379 118.452 89.36 118.73 89.36 119.073C89.36 119.415 89.6379 119.693 89.9807 119.693Z" fill="#26292E"/>
<path d="M92.0511 119.693C92.3939 119.693 92.6718 119.415 92.6718 119.073C92.6718 118.73 92.3939 118.452 92.0511 118.452C91.7083 118.452 91.4305 118.73 91.4305 119.073C91.4305 119.415 91.7083 119.693 92.0511 119.693Z" fill="#26292E"/>
<path d="M94.1185 119.693C94.4613 119.693 94.7392 119.415 94.7392 119.073C94.7392 118.73 94.4613 118.452 94.1185 118.452C93.7757 118.452 93.4978 118.73 93.4978 119.073C93.4978 119.415 93.7757 119.693 94.1185 119.693Z" fill="#26292E"/>
<path d="M104.464 119.693C104.807 119.693 105.085 119.415 105.085 119.073C105.085 118.73 104.807 118.452 104.464 118.452C104.121 118.452 103.844 118.73 103.844 119.073C103.844 119.415 104.121 119.693 104.464 119.693Z" fill="#26292E"/>
<path d="M112.739 119.693C113.082 119.693 113.36 119.415 113.36 119.073C113.36 118.73 113.082 118.452 112.739 118.452C112.396 118.452 112.118 118.73 112.118 119.073C112.118 119.415 112.396 119.693 112.739 119.693Z" fill="#26292E"/>
<path d="M118.948 119.693C119.291 119.693 119.569 119.415 119.569 119.073C119.569 118.73 119.291 118.452 118.948 118.452C118.606 118.452 118.328 118.73 118.328 119.073C118.328 119.415 118.606 119.693 118.948 119.693Z" fill="#26292E"/>
<path d="M125.152 119.693C125.494 119.693 125.772 119.415 125.772 119.073C125.772 118.73 125.494 118.452 125.152 118.452C124.809 118.452 124.531 118.73 124.531 119.073C124.531 119.415 124.809 119.693 125.152 119.693Z" fill="#26292E"/>
<path d="M129.292 119.693C129.635 119.693 129.913 119.415 129.913 119.073C129.913 118.73 129.635 118.452 129.292 118.452C128.95 118.452 128.672 118.73 128.672 119.073C128.672 119.415 128.95 119.693 129.292 119.693Z" fill="#26292E"/>
<path d="M133.432 119.693C133.774 119.693 134.052 119.415 134.052 119.073C134.052 118.73 133.774 118.452 133.432 118.452C133.089 118.452 132.811 118.73 132.811 119.073C132.811 119.415 133.089 119.693 133.432 119.693Z" fill="#26292E"/>
<path d="M85.843 121.764C86.1858 121.764 86.4637 121.486 86.4637 121.143C86.4637 120.8 86.1858 120.522 85.843 120.522C85.5002 120.522 85.2223 120.8 85.2223 121.143C85.2223 121.486 85.5002 121.764 85.843 121.764Z" fill="#26292E"/>
<path d="M96.1893 121.764C96.5321 121.764 96.81 121.486 96.81 121.143C96.81 120.8 96.5321 120.522 96.1893 120.522C95.8465 120.522 95.5686 120.8 95.5686 121.143C95.5686 121.486 95.8465 121.764 96.1893 121.764Z" fill="#26292E"/>
<path d="M98.2561 121.764C98.5989 121.764 98.8768 121.486 98.8768 121.143C98.8768 120.8 98.5989 120.522 98.2561 120.522C97.9133 120.522 97.6354 120.8 97.6354 121.143C97.6354 121.486 97.9133 121.764 98.2561 121.764Z" fill="#26292E"/>
<path d="M106.53 121.764C106.873 121.764 107.151 121.486 107.151 121.143C107.151 120.8 106.873 120.522 106.53 120.522C106.187 120.522 105.909 120.8 105.909 121.143C105.909 121.486 106.187 121.764 106.53 121.764Z" fill="#26292E"/>
<path d="M108.603 121.764C108.946 121.764 109.223 121.486 109.223 121.143C109.223 120.8 108.946 120.522 108.603 120.522C108.26 120.522 107.982 120.8 107.982 121.143C107.982 121.486 108.26 121.764 108.603 121.764Z" fill="#26292E"/>
<path d="M110.674 121.764C111.016 121.764 111.294 121.486 111.294 121.143C111.294 120.8 111.016 120.522 110.674 120.522C110.331 120.522 110.053 120.8 110.053 121.143C110.053 121.486 110.331 121.764 110.674 121.764Z" fill="#26292E"/>
<path d="M112.739 121.764C113.082 121.764 113.36 121.486 113.36 121.143C113.36 120.8 113.082 120.522 112.739 120.522C112.396 120.522 112.118 120.8 112.118 121.143C112.118 121.486 112.396 121.764 112.739 121.764Z" fill="#26292E"/>
<path d="M114.809 121.764C115.152 121.764 115.43 121.486 115.43 121.143C115.43 120.8 115.152 120.522 114.809 120.522C114.467 120.522 114.189 120.8 114.189 121.143C114.189 121.486 114.467 121.764 114.809 121.764Z" fill="#26292E"/>
<path d="M116.877 121.764C117.22 121.764 117.498 121.486 117.498 121.143C117.498 120.8 117.22 120.522 116.877 120.522C116.535 120.522 116.257 120.8 116.257 121.143C116.257 121.486 116.535 121.764 116.877 121.764Z" fill="#26292E"/>
<path d="M118.948 121.764C119.291 121.764 119.569 121.486 119.569 121.143C119.569 120.8 119.291 120.522 118.948 120.522C118.606 120.522 118.328 120.8 118.328 121.143C118.328 121.486 118.606 121.764 118.948 121.764Z" fill="#26292E"/>
<path d="M123.084 121.764C123.427 121.764 123.705 121.486 123.705 121.143C123.705 120.8 123.427 120.522 123.084 120.522C122.741 120.522 122.463 120.8 122.463 121.143C122.463 121.486 122.741 121.764 123.084 121.764Z" fill="#26292E"/>
<path d="M125.152 121.764C125.494 121.764 125.772 121.486 125.772 121.143C125.772 120.8 125.494 120.522 125.152 120.522C124.809 120.522 124.531 120.8 124.531 121.143C124.531 121.486 124.809 121.764 125.152 121.764Z" fill="#26292E"/>
<path d="M127.222 121.764C127.565 121.764 127.843 121.486 127.843 121.143C127.843 120.8 127.565 120.522 127.222 120.522C126.88 120.522 126.602 120.8 126.602 121.143C126.602 121.486 126.88 121.764 127.222 121.764Z" fill="#26292E"/>
<path d="M129.292 121.764C129.635 121.764 129.913 121.486 129.913 121.143C129.913 120.8 129.635 120.522 129.292 120.522C128.95 120.522 128.672 120.8 128.672 121.143C128.672 121.486 128.95 121.764 129.292 121.764Z" fill="#26292E"/>
<path d="M133.432 121.764C133.774 121.764 134.052 121.486 134.052 121.143C134.052 120.8 133.774 120.522 133.432 120.522C133.089 120.522 132.811 120.8 132.811 121.143C132.811 121.486 133.089 121.764 133.432 121.764Z" fill="#26292E"/>
<path d="M135.497 121.764C135.84 121.764 136.118 121.486 136.118 121.143C136.118 120.8 135.84 120.522 135.497 120.522C135.154 120.522 134.877 120.8 134.877 121.143C134.877 121.486 135.154 121.764 135.497 121.764Z" fill="#26292E"/>
<path d="M85.843 123.832C86.1858 123.832 86.4637 123.554 86.4637 123.211C86.4637 122.868 86.1858 122.59 85.843 122.59C85.5002 122.59 85.2223 122.868 85.2223 123.211C85.2223 123.554 85.5002 123.832 85.843 123.832Z" fill="#26292E"/>
<path d="M89.9807 123.832C90.3235 123.832 90.6014 123.554 90.6014 123.211C90.6014 122.868 90.3235 122.59 89.9807 122.59C89.6379 122.59 89.36 122.868 89.36 123.211C89.36 123.554 89.6379 123.832 89.9807 123.832Z" fill="#26292E"/>
<path d="M94.1185 123.832C94.4613 123.832 94.7392 123.554 94.7392 123.211C94.7392 122.868 94.4613 122.59 94.1185 122.59C93.7757 122.59 93.4978 122.868 93.4978 123.211C93.4978 123.554 93.7757 123.832 94.1185 123.832Z" fill="#26292E"/>
<path d="M96.1893 123.832C96.5321 123.832 96.81 123.554 96.81 123.211C96.81 122.868 96.5321 122.59 96.1893 122.59C95.8465 122.59 95.5686 122.868 95.5686 123.211C95.5686 123.554 95.8465 123.832 96.1893 123.832Z" fill="#26292E"/>
<path d="M104.464 123.832C104.807 123.832 105.085 123.554 105.085 123.211C105.085 122.868 104.807 122.59 104.464 122.59C104.121 122.59 103.844 122.868 103.844 123.211C103.844 123.554 104.121 123.832 104.464 123.832Z" fill="#26292E"/>
<path d="M108.603 123.832C108.946 123.832 109.223 123.554 109.223 123.211C109.223 122.868 108.946 122.59 108.603 122.59C108.26 122.59 107.982 122.868 107.982 123.211C107.982 123.554 108.26 123.832 108.603 123.832Z" fill="#26292E"/>
<path d="M114.809 123.832C115.152 123.832 115.43 123.554 115.43 123.211C115.43 122.868 115.152 122.59 114.809 122.59C114.467 122.59 114.189 122.868 114.189 123.211C114.189 123.554 114.467 123.832 114.809 123.832Z" fill="#26292E"/>
<path d="M116.877 123.832C117.22 123.832 117.498 123.554 117.498 123.211C117.498 122.868 117.22 122.59 116.877 122.59C116.535 122.59 116.257 122.868 116.257 123.211C116.257 123.554 116.535 123.832 116.877 123.832Z" fill="#26292E"/>
<path d="M125.152 123.832C125.494 123.832 125.772 123.554 125.772 123.211C125.772 122.868 125.494 122.59 125.152 122.59C124.809 122.59 124.531 122.868 124.531 123.211C124.531 123.554 124.809 123.832 125.152 123.832Z" fill="#26292E"/>
<path d="M127.222 123.832C127.565 123.832 127.843 123.554 127.843 123.211C127.843 122.868 127.565 122.59 127.222 122.59C126.88 122.59 126.602 122.868 126.602 123.211C126.602 123.554 126.88 123.832 127.222 123.832Z" fill="#26292E"/>
<path d="M135.497 123.832C135.84 123.832 136.118 123.554 136.118 123.211C136.118 122.868 135.84 122.59 135.497 122.59C135.154 122.59 134.877 122.868 134.877 123.211C134.877 123.554 135.154 123.832 135.497 123.832Z" fill="#26292E"/>
<path d="M85.843 125.902C86.1858 125.902 86.4637 125.624 86.4637 125.281C86.4637 124.939 86.1858 124.661 85.843 124.661C85.5002 124.661 85.2223 124.939 85.2223 125.281C85.2223 125.624 85.5002 125.902 85.843 125.902Z" fill="#26292E"/>
<path d="M92.0511 125.902C92.3939 125.902 92.6718 125.624 92.6718 125.281C92.6718 124.939 92.3939 124.661 92.0511 124.661C91.7083 124.661 91.4305 124.939 91.4305 125.281C91.4305 125.624 91.7083 125.902 92.0511 125.902Z" fill="#26292E"/>
<path d="M98.2561 125.902C98.5989 125.902 98.8768 125.624 98.8768 125.281C98.8768 124.939 98.5989 124.661 98.2561 124.661C97.9133 124.661 97.6354 124.939 97.6354 125.281C97.6354 125.624 97.9133 125.902 98.2561 125.902Z" fill="#26292E"/>
<path d="M102.393 125.902C102.736 125.902 103.014 125.624 103.014 125.281C103.014 124.939 102.736 124.661 102.393 124.661C102.05 124.661 101.773 124.939 101.773 125.281C101.773 125.624 102.05 125.902 102.393 125.902Z" fill="#26292E"/>
<path d="M104.464 125.902C104.807 125.902 105.085 125.624 105.085 125.281C105.085 124.939 104.807 124.661 104.464 124.661C104.121 124.661 103.844 124.939 103.844 125.281C103.844 125.624 104.121 125.902 104.464 125.902Z" fill="#26292E"/>
<path d="M106.53 125.902C106.873 125.902 107.151 125.624 107.151 125.281C107.151 124.939 106.873 124.661 106.53 124.661C106.187 124.661 105.909 124.939 105.909 125.281C105.909 125.624 106.187 125.902 106.53 125.902Z" fill="#26292E"/>
<path d="M108.603 125.902C108.946 125.902 109.223 125.624 109.223 125.281C109.223 124.939 108.946 124.661 108.603 124.661C108.26 124.661 107.982 124.939 107.982 125.281C107.982 125.624 108.26 125.902 108.603 125.902Z" fill="#26292E"/>
<path d="M118.948 125.902C119.291 125.902 119.569 125.624 119.569 125.281C119.569 124.939 119.291 124.661 118.948 124.661C118.606 124.661 118.328 124.939 118.328 125.281C118.328 125.624 118.606 125.902 118.948 125.902Z" fill="#26292E"/>
<path d="M123.084 125.902C123.427 125.902 123.705 125.624 123.705 125.281C123.705 124.939 123.427 124.661 123.084 124.661C122.741 124.661 122.463 124.939 122.463 125.281C122.463 125.624 122.741 125.902 123.084 125.902Z" fill="#26292E"/>
<path d="M125.152 125.902C125.494 125.902 125.772 125.624 125.772 125.281C125.772 124.939 125.494 124.661 125.152 124.661C124.809 124.661 124.531 124.939 124.531 125.281C124.531 125.624 124.809 125.902 125.152 125.902Z" fill="#26292E"/>
<path d="M127.222 125.902C127.565 125.902 127.843 125.624 127.843 125.281C127.843 124.939 127.565 124.661 127.222 124.661C126.88 124.661 126.602 124.939 126.602 125.281C126.602 125.624 126.88 125.902 127.222 125.902Z" fill="#26292E"/>
<path d="M131.361 125.902C131.704 125.902 131.982 125.624 131.982 125.281C131.982 124.939 131.704 124.661 131.361 124.661C131.019 124.661 130.741 124.939 130.741 125.281C130.741 125.624 131.019 125.902 131.361 125.902Z" fill="#26292E"/>
<path d="M127.222 127.968C127.565 127.968 127.843 127.69 127.843 127.347C127.843 127.004 127.565 126.727 127.222 126.727C126.88 126.727 126.602 127.004 126.602 127.347C126.602 127.69 126.88 127.968 127.222 127.968Z" fill="#26292E"/>
<path d="M129.292 127.968C129.635 127.968 129.913 127.69 129.913 127.347C129.913 127.004 129.635 126.726 129.292 126.726C128.95 126.726 128.672 127.004 128.672 127.347C128.672 127.69 128.95 127.968 129.292 127.968Z" fill="#26292E"/>
<path d="M104.464 130.038C104.807 130.038 105.085 129.76 105.085 129.418C105.085 129.075 104.807 128.797 104.464 128.797C104.121 128.797 103.844 129.075 103.844 129.418C103.844 129.76 104.121 130.038 104.464 130.038Z" fill="#26292E"/>
<path d="M106.53 130.038C106.873 130.038 107.151 129.76 107.151 129.418C107.151 129.075 106.873 128.797 106.53 128.797C106.187 128.797 105.909 129.075 105.909 129.418C105.909 129.76 106.187 130.038 106.53 130.038Z" fill="#26292E"/>
<path d="M112.739 130.039C113.082 130.039 113.36 129.761 113.36 129.418C113.36 129.075 113.082 128.797 112.739 128.797C112.396 128.797 112.118 129.075 112.118 129.418C112.118 129.761 112.396 130.039 112.739 130.039Z" fill="#26292E"/>
<path d="M114.809 130.039C115.152 130.039 115.43 129.761 115.43 129.418C115.43 129.075 115.152 128.797 114.809 128.797C114.467 128.797 114.189 129.075 114.189 129.418C114.189 129.761 114.467 130.039 114.809 130.039Z" fill="#26292E"/>
<path d="M118.948 130.039C119.291 130.039 119.569 129.761 119.569 129.418C119.569 129.075 119.291 128.797 118.948 128.797C118.606 128.797 118.328 129.075 118.328 129.418C118.328 129.761 118.606 130.039 118.948 130.039Z" fill="#26292E"/>
<path d="M123.084 130.038C123.427 130.038 123.705 129.76 123.705 129.418C123.705 129.075 123.427 128.797 123.084 128.797C122.741 128.797 122.463 129.075 122.463 129.418C122.463 129.76 122.741 130.038 123.084 130.038Z" fill="#26292E"/>
<path d="M127.222 130.038C127.565 130.038 127.843 129.76 127.843 129.418C127.843 129.075 127.565 128.797 127.222 128.797C126.88 128.797 126.602 129.075 126.602 129.418C126.602 129.76 126.88 130.038 127.222 130.038Z" fill="#26292E"/>
<path d="M131.361 130.039C131.704 130.039 131.982 129.761 131.982 129.418C131.982 129.075 131.704 128.797 131.361 128.797C131.019 128.797 130.741 129.075 130.741 129.418C130.741 129.761 131.019 130.039 131.361 130.039Z" fill="#26292E"/>
<path d="M133.432 130.038C133.774 130.038 134.052 129.76 134.052 129.418C134.052 129.075 133.774 128.797 133.432 128.797C133.089 128.797 132.811 129.075 132.811 129.418C132.811 129.76 133.089 130.038 133.432 130.038Z" fill="#26292E"/>
<path d="M135.497 130.038C135.84 130.038 136.118 129.76 136.118 129.418C136.118 129.075 135.84 128.797 135.497 128.797C135.154 128.797 134.877 129.075 134.877 129.418C134.877 129.76 135.154 130.038 135.497 130.038Z" fill="#26292E"/>
<path d="M102.393 132.106C102.736 132.106 103.014 131.828 103.014 131.485C103.014 131.142 102.736 130.865 102.393 130.865C102.05 130.865 101.773 131.142 101.773 131.485C101.773 131.828 102.05 132.106 102.393 132.106Z" fill="#26292E"/>
<path d="M110.674 132.106C111.016 132.106 111.294 131.828 111.294 131.485C111.294 131.142 111.016 130.865 110.674 130.865C110.331 130.865 110.053 131.142 110.053 131.485C110.053 131.828 110.331 132.106 110.674 132.106Z" fill="#26292E"/>
<path d="M112.739 132.106C113.082 132.106 113.36 131.828 113.36 131.485C113.36 131.142 113.082 130.865 112.739 130.865C112.396 130.865 112.118 131.142 112.118 131.485C112.118 131.828 112.396 132.106 112.739 132.106Z" fill="#26292E"/>
<path d="M118.948 132.106C119.291 132.106 119.569 131.828 119.569 131.485C119.569 131.142 119.291 130.865 118.948 130.865C118.606 130.865 118.328 131.142 118.328 131.485C118.328 131.828 118.606 132.106 118.948 132.106Z" fill="#26292E"/>
<path d="M127.222 132.106C127.565 132.106 127.843 131.828 127.843 131.485C127.843 131.142 127.565 130.865 127.222 130.865C126.88 130.865 126.602 131.142 126.602 131.485C126.602 131.828 126.88 132.106 127.222 132.106Z" fill="#26292E"/>
<path d="M129.292 132.106C129.635 132.106 129.913 131.828 129.913 131.485C129.913 131.142 129.635 130.865 129.292 130.865C128.95 130.865 128.672 131.142 128.672 131.485C128.672 131.828 128.95 132.106 129.292 132.106Z" fill="#26292E"/>
<path d="M133.432 132.106C133.774 132.106 134.052 131.828 134.052 131.485C134.052 131.142 133.774 130.865 133.432 130.865C133.089 130.865 132.811 131.142 132.811 131.485C132.811 131.828 133.089 132.106 133.432 132.106Z" fill="#26292E"/>
<path d="M135.497 132.106C135.84 132.106 136.118 131.828 136.118 131.485C136.118 131.142 135.84 130.865 135.497 130.865C135.154 130.865 134.877 131.142 134.877 131.485C134.877 131.828 135.154 132.106 135.497 132.106Z" fill="#26292E"/>
<path d="M102.393 134.177C102.736 134.177 103.014 133.899 103.014 133.556C103.014 133.213 102.736 132.935 102.393 132.935C102.05 132.935 101.773 133.213 101.773 133.556C101.773 133.899 102.05 134.177 102.393 134.177Z" fill="#26292E"/>
<path d="M104.464 134.177C104.807 134.177 105.085 133.899 105.085 133.556C105.085 133.213 104.807 132.935 104.464 132.935C104.121 132.935 103.844 133.213 103.844 133.556C103.844 133.899 104.121 134.177 104.464 134.177Z" fill="#26292E"/>
<path d="M106.53 134.177C106.873 134.177 107.151 133.899 107.151 133.556C107.151 133.213 106.873 132.935 106.53 132.935C106.187 132.935 105.909 133.213 105.909 133.556C105.909 133.899 106.187 134.177 106.53 134.177Z" fill="#26292E"/>
<path d="M110.674 134.177C111.016 134.177 111.294 133.899 111.294 133.556C111.294 133.213 111.016 132.935 110.674 132.935C110.331 132.935 110.053 133.213 110.053 133.556C110.053 133.899 110.331 134.177 110.674 134.177Z" fill="#26292E"/>
<path d="M114.809 134.177C115.152 134.177 115.43 133.899 115.43 133.556C115.43 133.213 115.152 132.935 114.809 132.935C114.467 132.935 114.189 133.213 114.189 133.556C114.189 133.899 114.467 134.177 114.809 134.177Z" fill="#26292E"/>
<path d="M116.877 134.177C117.22 134.177 117.498 133.899 117.498 133.556C117.498 133.213 117.22 132.935 116.877 132.935C116.535 132.935 116.257 133.213 116.257 133.556C116.257 133.899 116.535 134.177 116.877 134.177Z" fill="#26292E"/>
<path d="M118.948 134.177C119.291 134.177 119.569 133.899 119.569 133.556C119.569 133.213 119.291 132.935 118.948 132.935C118.606 132.935 118.328 133.213 118.328 133.556C118.328 133.899 118.606 134.177 118.948 134.177Z" fill="#26292E"/>
<path d="M121.013 134.177C121.356 134.177 121.634 133.899 121.634 133.556C121.634 133.213 121.356 132.935 121.013 132.935C120.67 132.935 120.392 133.213 120.392 133.556C120.392 133.899 120.67 134.177 121.013 134.177Z" fill="#26292E"/>
<path d="M123.084 134.177C123.427 134.177 123.705 133.899 123.705 133.556C123.705 133.213 123.427 132.935 123.084 132.935C122.741 132.935 122.463 133.213 122.463 133.556C122.463 133.899 122.741 134.177 123.084 134.177Z" fill="#26292E"/>
<path d="M125.152 134.177C125.494 134.177 125.772 133.899 125.772 133.556C125.772 133.213 125.494 132.935 125.152 132.935C124.809 132.935 124.531 133.213 124.531 133.556C124.531 133.899 124.809 134.177 125.152 134.177Z" fill="#26292E"/>
<path d="M127.222 134.177C127.565 134.177 127.843 133.899 127.843 133.556C127.843 133.213 127.565 132.935 127.222 132.935C126.88 132.935 126.602 133.213 126.602 133.556C126.602 133.899 126.88 134.177 127.222 134.177Z" fill="#26292E"/>
<path d="M131.361 134.177C131.704 134.177 131.982 133.899 131.982 133.556C131.982 133.213 131.704 132.935 131.361 132.935C131.019 132.935 130.741 133.213 130.741 133.556C130.741 133.899 131.019 134.177 131.361 134.177Z" fill="#26292E"/>
<path d="M133.432 134.177C133.774 134.177 134.052 133.899 134.052 133.556C134.052 133.213 133.774 132.935 133.432 132.935C133.089 132.935 132.811 133.213 132.811 133.556C132.811 133.899 133.089 134.177 133.432 134.177Z" fill="#26292E"/>
<path d="M135.497 134.177C135.84 134.177 136.118 133.899 136.118 133.556C136.118 133.213 135.84 132.935 135.497 132.935C135.154 132.935 134.877 133.213 134.877 133.556C134.877 133.899 135.154 134.177 135.497 134.177Z" fill="#26292E"/>
<path d="M102.393 136.247C102.736 136.247 103.014 135.97 103.014 135.627C103.014 135.284 102.736 135.006 102.393 135.006C102.05 135.006 101.773 135.284 101.773 135.627C101.773 135.97 102.05 136.247 102.393 136.247Z" fill="#26292E"/>
<path d="M104.464 136.247C104.807 136.247 105.085 135.97 105.085 135.627C105.085 135.284 104.807 135.006 104.464 135.006C104.121 135.006 103.844 135.284 103.844 135.627C103.844 135.97 104.121 136.247 104.464 136.247Z" fill="#26292E"/>
<path d="M106.53 136.247C106.873 136.247 107.151 135.97 107.151 135.627C107.151 135.284 106.873 135.006 106.53 135.006C106.187 135.006 105.909 135.284 105.909 135.627C105.909 135.97 106.187 136.247 106.53 136.247Z" fill="#26292E"/>
<path d="M116.877 136.247C117.22 136.247 117.498 135.97 117.498 135.627C117.498 135.284 117.22 135.006 116.877 135.006C116.535 135.006 116.257 135.284 116.257 135.627C116.257 135.97 116.535 136.247 116.877 136.247Z" fill="#26292E"/>
<path d="M123.084 136.247C123.427 136.247 123.705 135.97 123.705 135.627C123.705 135.284 123.427 135.006 123.084 135.006C122.741 135.006 122.463 135.284 122.463 135.627C122.463 135.97 122.741 136.247 123.084 136.247Z" fill="#26292E"/>
<path d="M127.222 136.247C127.565 136.247 127.843 135.97 127.843 135.627C127.843 135.284 127.565 135.006 127.222 135.006C126.88 135.006 126.602 135.284 126.602 135.627C126.602 135.97 126.88 136.247 127.222 136.247Z" fill="#26292E"/>
<path d="M129.292 136.247C129.635 136.247 129.913 135.97 129.913 135.627C129.913 135.284 129.635 135.006 129.292 135.006C128.95 135.006 128.672 135.284 128.672 135.627C128.672 135.97 128.95 136.247 129.292 136.247Z" fill="#26292E"/>
<path d="M131.361 136.247C131.704 136.247 131.982 135.97 131.982 135.627C131.982 135.284 131.704 135.006 131.361 135.006C131.019 135.006 130.741 135.284 130.741 135.627C130.741 135.97 131.019 136.247 131.361 136.247Z" fill="#26292E"/>
<path d="M133.432 136.247C133.774 136.247 134.052 135.97 134.052 135.627C134.052 135.284 133.774 135.006 133.432 135.006C133.089 135.006 132.811 135.284 132.811 135.627C132.811 135.97 133.089 136.247 133.432 136.247Z" fill="#26292E"/>
<path d="M135.497 136.247C135.84 136.247 136.118 135.97 136.118 135.627C136.118 135.284 135.84 135.006 135.497 135.006C135.154 135.006 134.877 135.284 134.877 135.627C134.877 135.97 135.154 136.247 135.497 136.247Z" fill="#26292E"/>
<path d="M102.393 138.315C102.736 138.315 103.014 138.037 103.014 137.694C103.014 137.351 102.736 137.074 102.393 137.074C102.05 137.074 101.773 137.351 101.773 137.694C101.773 138.037 102.05 138.315 102.393 138.315Z" fill="#26292E"/>
<path d="M104.464 138.315C104.807 138.315 105.085 138.037 105.085 137.694C105.085 137.351 104.807 137.074 104.464 137.074C104.121 137.074 103.844 137.351 103.844 137.694C103.844 138.037 104.121 138.315 104.464 138.315Z" fill="#26292E"/>
<path d="M108.603 138.315C108.946 138.315 109.223 138.037 109.223 137.694C109.223 137.351 108.946 137.074 108.603 137.074C108.26 137.074 107.982 137.351 107.982 137.694C107.982 138.037 108.26 138.315 108.603 138.315Z" fill="#26292E"/>
<path d="M110.674 138.315C111.016 138.315 111.294 138.037 111.294 137.694C111.294 137.351 111.016 137.074 110.674 137.074C110.331 137.074 110.053 137.351 110.053 137.694C110.053 138.037 110.331 138.315 110.674 138.315Z" fill="#26292E"/>
<path d="M116.877 138.315C117.22 138.315 117.498 138.037 117.498 137.694C117.498 137.351 117.22 137.074 116.877 137.074C116.535 137.074 116.257 137.351 116.257 137.694C116.257 138.037 116.535 138.315 116.877 138.315Z" fill="#26292E"/>
<path d="M118.948 138.315C119.291 138.315 119.569 138.037 119.569 137.694C119.569 137.351 119.291 137.074 118.948 137.074C118.606 137.074 118.328 137.351 118.328 137.694C118.328 138.037 118.606 138.315 118.948 138.315Z" fill="#26292E"/>
<path d="M129.292 138.315C129.635 138.315 129.913 138.037 129.913 137.694C129.913 137.351 129.635 137.074 129.292 137.074C128.95 137.074 128.672 137.351 128.672 137.694C128.672 138.037 128.95 138.315 129.292 138.315Z" fill="#26292E"/>
<path d="M131.361 138.315C131.704 138.315 131.982 138.037 131.982 137.694C131.982 137.351 131.704 137.074 131.361 137.074C131.019 137.074 130.741 137.351 130.741 137.694C130.741 138.037 131.019 138.315 131.361 138.315Z" fill="#26292E"/>
<path d="M135.497 138.315C135.84 138.315 136.118 138.037 136.118 137.694C136.118 137.351 135.84 137.074 135.497 137.074C135.154 137.074 134.877 137.351 134.877 137.694C134.877 138.037 135.154 138.315 135.497 138.315Z" fill="#26292E"/>
<path d="M104.464 140.386C104.807 140.386 105.085 140.108 105.085 139.765C105.085 139.422 104.807 139.144 104.464 139.144C104.121 139.144 103.844 139.422 103.844 139.765C103.844 140.108 104.121 140.386 104.464 140.386Z" fill="#26292E"/>
<path d="M106.53 140.386C106.873 140.386 107.151 140.108 107.151 139.765C107.151 139.422 106.873 139.144 106.53 139.144C106.187 139.144 105.909 139.422 105.909 139.765C105.909 140.108 106.187 140.386 106.53 140.386Z" fill="#26292E"/>
<path d="M108.603 140.386C108.946 140.386 109.223 140.108 109.223 139.765C109.223 139.422 108.946 139.144 108.603 139.144C108.26 139.144 107.982 139.422 107.982 139.765C107.982 140.108 108.26 140.386 108.603 140.386Z" fill="#26292E"/>
<path d="M114.809 140.386C115.152 140.386 115.43 140.108 115.43 139.765C115.43 139.422 115.152 139.144 114.809 139.144C114.467 139.144 114.189 139.422 114.189 139.765C114.189 140.108 114.467 140.386 114.809 140.386Z" fill="#26292E"/>
<path d="M118.948 140.386C119.291 140.386 119.569 140.108 119.569 139.765C119.569 139.422 119.291 139.144 118.948 139.144C118.606 139.144 118.328 139.422 118.328 139.765C118.328 140.108 118.606 140.386 118.948 140.386Z" fill="#26292E"/>
<path d="M121.013 140.386C121.356 140.386 121.634 140.108 121.634 139.765C121.634 139.422 121.356 139.144 121.013 139.144C120.67 139.144 120.392 139.422 120.392 139.765C120.392 140.108 120.67 140.386 121.013 140.386Z" fill="#26292E"/>
<path d="M125.152 140.386C125.494 140.386 125.772 140.108 125.772 139.765C125.772 139.422 125.494 139.144 125.152 139.144C124.809 139.144 124.531 139.422 124.531 139.765C124.531 140.108 124.809 140.386 125.152 140.386Z" fill="#26292E"/>
<path d="M127.222 140.386C127.565 140.386 127.843 140.108 127.843 139.765C127.843 139.422 127.565 139.144 127.222 139.144C126.88 139.144 126.602 139.422 126.602 139.765C126.602 140.108 126.88 140.386 127.222 140.386Z" fill="#26292E"/>
<path d="M129.292 140.386C129.635 140.386 129.913 140.108 129.913 139.765C129.913 139.422 129.635 139.144 129.292 139.144C128.95 139.144 128.672 139.422 128.672 139.765C128.672 140.108 128.95 140.386 129.292 140.386Z" fill="#26292E"/>
<path d="M135.497 140.386C135.84 140.386 136.118 140.108 136.118 139.765C136.118 139.422 135.84 139.144 135.497 139.144C135.154 139.144 134.877 139.422 134.877 139.765C134.877 140.108 135.154 140.386 135.497 140.386Z" fill="#26292E"/>
<path d="M102.393 142.451C102.736 142.451 103.014 142.174 103.014 141.831C103.014 141.488 102.736 141.21 102.393 141.21C102.05 141.21 101.773 141.488 101.773 141.831C101.773 142.174 102.05 142.451 102.393 142.451Z" fill="#26292E"/>
<path d="M108.603 142.452C108.946 142.452 109.223 142.174 109.223 141.831C109.223 141.488 108.946 141.21 108.603 141.21C108.26 141.21 107.982 141.488 107.982 141.831C107.982 142.174 108.26 142.452 108.603 142.452Z" fill="#26292E"/>
<path d="M125.152 142.452C125.494 142.452 125.772 142.174 125.772 141.831C125.772 141.488 125.494 141.21 125.152 141.21C124.809 141.21 124.531 141.488 124.531 141.831C124.531 142.174 124.809 142.452 125.152 142.452Z" fill="#26292E"/>
<path d="M127.222 142.452C127.565 142.452 127.843 142.174 127.843 141.831C127.843 141.488 127.565 141.21 127.222 141.21C126.88 141.21 126.602 141.488 126.602 141.831C126.602 142.174 126.88 142.452 127.222 142.452Z" fill="#26292E"/>
<path d="M129.292 142.451C129.635 142.451 129.913 142.174 129.913 141.831C129.913 141.488 129.635 141.21 129.292 141.21C128.95 141.21 128.672 141.488 128.672 141.831C128.672 142.174 128.95 142.451 129.292 142.451Z" fill="#26292E"/>
<path d="M131.361 142.451C131.704 142.451 131.982 142.174 131.982 141.831C131.982 141.488 131.704 141.21 131.361 141.21C131.019 141.21 130.741 141.488 130.741 141.831C130.741 142.174 131.019 142.451 131.361 142.451Z" fill="#26292E"/>
<path d="M133.432 142.452C133.774 142.452 134.052 142.174 134.052 141.831C134.052 141.488 133.774 141.21 133.432 141.21C133.089 141.21 132.811 141.488 132.811 141.831C132.811 142.174 133.089 142.452 133.432 142.452Z" fill="#26292E"/>
<path d="M135.497 142.452C135.84 142.452 136.118 142.174 136.118 141.831C136.118 141.488 135.84 141.21 135.497 141.21C135.154 141.21 134.877 141.488 134.877 141.831C134.877 142.174 135.154 142.452 135.497 142.452Z" fill="#26292E"/>
<path d="M92.0527 91.2871C88.132 91.2871 84.9533 94.4658 84.9533 98.3865C84.9533 102.307 88.132 105.486 92.0527 105.486C95.9734 105.486 99.152 102.307 99.152 98.3865C99.152 94.4658 95.9734 91.2871 92.0527 91.2871ZM92.0527 103.356C89.3125 103.356 87.0831 101.127 87.0831 98.3865C87.0831 95.6463 89.3125 93.4169 92.0527 93.4169C94.7929 93.4169 97.0222 95.6463 97.0222 98.3865C97.0222 101.127 94.7929 103.356 92.0527 103.356Z" fill="#26292E"/>
<path d="M129.295 91.2871C125.374 91.2871 122.195 94.4658 122.195 98.3865C122.195 102.307 125.374 105.486 129.295 105.486C133.216 105.486 136.394 102.307 136.394 98.3865C136.394 94.4658 133.216 91.2871 129.295 91.2871ZM129.295 103.356C126.555 103.356 124.325 101.127 124.325 98.3865C124.325 95.6463 126.555 93.4169 129.295 93.4169C132.035 93.4169 134.264 95.6463 134.264 98.3865C134.264 101.127 132.035 103.356 129.295 103.356Z" fill="#26292E"/>
<path d="M92.0526 128.529C88.1319 128.529 84.9532 131.708 84.9532 135.628C84.9532 139.549 88.1319 142.728 92.0526 142.728C95.9733 142.728 99.152 139.549 99.152 135.628C99.152 131.708 95.9733 128.529 92.0526 128.529ZM92.0526 140.598C89.3124 140.598 87.0831 138.369 87.0831 135.628C87.0831 132.888 89.3124 130.659 92.0526 130.659C94.7928 130.659 97.0222 132.888 97.0222 135.628C97.0222 138.369 94.7928 140.598 92.0526 140.598Z" fill="#26292E"/>
<path d="M91.9887 101.365C93.669 101.365 95.0313 100.003 95.0313 98.3223C95.0313 96.6419 93.669 95.2797 91.9887 95.2797C90.3083 95.2797 88.9461 96.6419 88.9461 98.3223C88.9461 100.003 90.3083 101.365 91.9887 101.365Z" fill="#26292E"/>
<path d="M129.225 101.365C130.906 101.365 132.268 100.003 132.268 98.3223C132.268 96.6419 130.906 95.2797 129.225 95.2797C127.545 95.2797 126.183 96.6419 126.183 98.3223C126.183 100.003 127.545 101.365 129.225 101.365Z" fill="#26292E"/>
<path d="M91.9887 138.602C93.669 138.602 95.0313 137.239 95.0313 135.559C95.0313 133.878 93.669 132.516 91.9887 132.516C90.3083 132.516 88.9461 133.878 88.9461 135.559C88.9461 137.239 90.3083 138.602 91.9887 138.602Z" fill="#26292E"/>
</g>
<rect x="99.8665" y="106.2" width="21.6" height="21.6" rx="2.4" fill="white"/>
<path fill-rule="evenodd" clip-rule="evenodd" d="M112.249 109.117C112.984 108.274 114.35 109.03 114.025 110.101L112.753 114.3H115.769C116.663 114.3 117.139 115.355 116.548 116.026L108.987 124.594C108.26 125.418 106.919 124.697 107.206 123.636L108.607 118.454H106.388C105.496 118.454 105.019 117.405 105.605 116.733L112.249 109.117ZM112.552 110.665L106.845 117.208H109.42C109.614 117.208 109.797 117.298 109.915 117.452C110.033 117.606 110.072 117.806 110.022 117.993L108.641 123.103L115.309 115.546H111.913C111.715 115.546 111.53 115.453 111.412 115.294C111.295 115.136 111.259 114.931 111.316 114.742L112.552 110.665Z" fill="#FEBF4A"/>
<path d="M106.845 117.208L112.552 110.665L111.316 114.742C111.259 114.931 111.295 115.136 111.412 115.294C111.53 115.453 111.715 115.546 111.913 115.546H115.309L108.641 123.103L110.022 117.993C110.072 117.806 110.033 117.606 109.915 117.452C109.797 117.298 109.614 117.208 109.42 117.208H106.845Z" fill="#FEBF4A"/>
</g>
<rect x="1.46669" y="1.8" width="218.4" height="146.4" rx="8.4" stroke="#333B48" stroke-width="2.4"/>
<defs>
<clipPath id="clip0_8138_4161">
<rect x="2.66669" y="3" width="216" height="144" rx="7.2" fill="white"/>
</clipPath>
<clipPath id="clip1_8138_4161">
<rect width="13.2" height="13.2" fill="white" transform="translate(201.866 6.60004)"/>
</clipPath>
<clipPath id="clip2_8138_4161">
<rect width="55" height="12" fill="white" transform="translate(9.86649 10.2)"/>
</clipPath>
<clipPath id="clip3_8138_4161">
<path d="M80.6665 91.8C80.6665 89.149 82.8155 87 85.4665 87H135.867C138.517 87 140.667 89.149 140.667 91.8V147H80.6665V91.8Z" fill="white"/>
</clipPath>
</defs>
</svg>
