<svg xmlns="http://www.w3.org/2000/svg" width="28" height="28" viewBox="0 0 28 28" fill="none">
  <path d="M14.623 15.0523C14.2229 15.2043 13.781 15.2047 13.3805 15.0535L5.83337 12.1782V18.6958C5.83331 18.8141 5.86921 18.9296 5.9363 19.027C6.00339 19.1244 6.09851 19.1991 6.20904 19.2412L13.7924 22.1287C13.9261 22.1797 14.074 22.1797 14.2077 22.1287L21.791 19.2412C21.9016 19.1991 21.9967 19.1244 22.0638 19.027C22.1309 18.9296 22.1668 18.8141 22.1667 18.6958V12.1782L14.623 15.0523Z" fill="#0051FF"/>
  <path d="M26.4577 8.2046L14.2077 3.53793C14.0739 3.48736 13.9262 3.48736 13.7923 3.53793L1.54235 8.2046C1.43167 8.24658 1.33639 8.32124 1.26915 8.41866C1.20191 8.51607 1.16589 8.63164 1.16589 8.75002C1.16589 8.86839 1.20191 8.98396 1.26915 9.08138C1.33639 9.17879 1.43167 9.25345 1.54235 9.29543L13.7923 13.9621C13.9261 14.0128 14.0739 14.0128 14.2077 13.9621L26.4577 9.29543C26.5684 9.25345 26.6636 9.17879 26.7309 9.08138C26.7981 8.98396 26.8341 8.86839 26.8341 8.75002C26.8341 8.63164 26.7981 8.51607 26.7309 8.41866C26.6636 8.32124 26.5684 8.24658 26.4577 8.2046Z" fill="#0051FF"/>
  <path d="M4.08333 21C3.92862 21 3.78025 20.9385 3.67085 20.8291C3.56146 20.7197 3.5 20.5714 3.5 20.4167V9.639C3.5 9.48429 3.56146 9.33591 3.67085 9.22652C3.78025 9.11712 3.92862 9.05566 4.08333 9.05566C4.23804 9.05566 4.38642 9.11712 4.49581 9.22652C4.60521 9.33591 4.66667 9.48429 4.66667 9.639V20.4167C4.66667 20.5714 4.60521 20.7197 4.49581 20.8291C4.38642 20.9385 4.23804 21 4.08333 21Z" fill="#0051FF"/>
  <path d="M4.08337 19.8333C3.61939 19.8337 3.17454 20.0182 2.84645 20.3463C2.51836 20.6744 2.33384 21.1193 2.33337 21.5833V23.9166C2.33337 24.0713 2.39483 24.2197 2.50423 24.3291C2.61362 24.4385 2.762 24.4999 2.91671 24.4999H5.25004C5.40475 24.4999 5.55312 24.4385 5.66252 24.3291C5.77192 24.2197 5.83337 24.0713 5.83337 23.9166V21.5833C5.83291 21.1193 5.64839 20.6744 5.3203 20.3463C4.99221 20.0182 4.54736 19.8337 4.08337 19.8333Z" fill="#0051FF"/>
</svg>