<svg xmlns="http://www.w3.org/2000/svg" width="28" height="28" viewBox="0 0 28 28" fill="none">
  <path fill-rule="evenodd" clip-rule="evenodd" d="M14 11.1096C13.6995 11.1096 13.3991 11.256 13.2574 11.5495L8.68405 21C8.39938 21.588 8.9938 22.3079 9.62496 22.1393L13.6663 21.0613C13.885 21.003 14.1155 21.003 14.3336 21.0613L18.375 22.1393C19.0061 22.3079 19.6 21.588 19.3159 21L14.7425 11.5495C14.6008 11.256 14.3004 11.1096 14 11.1096Z" fill="#0051FF"/>
  <path d="M13.4166 5.83325C13.0306 5.83555 12.661 5.98993 12.388 6.26292C12.115 6.53592 11.9606 6.90552 11.9583 7.29159H4.56513C4.32246 6.61492 3.67263 6.12492 2.91663 6.12492C1.95704 6.12492 1.16663 6.91534 1.16663 7.87492C1.16663 8.8345 1.95704 9.62492 2.91663 9.62492C3.67204 9.62492 4.32246 9.13492 4.56513 8.45825H9.48729C6.77363 9.9615 4.88946 12.7755 4.68704 16.0416H4.66663C4.28056 16.0439 3.91096 16.1983 3.63797 16.4713C3.36497 16.7443 3.21059 17.1139 3.20829 17.4999V18.6666C3.20829 19.4652 3.86804 20.1249 4.66663 20.1249H5.83329C6.63188 20.1249 7.29163 19.4652 7.29163 18.6666V17.4999C7.28914 17.118 7.13784 16.7522 6.86988 16.4801C6.60192 16.208 6.23842 16.0511 5.85663 16.0428C6.10629 12.4844 8.62921 9.56425 11.9816 8.71259C12.0434 9.04888 12.2205 9.35312 12.4824 9.57288C12.7443 9.79265 13.0747 9.9142 13.4166 9.91659H14.5833C15.295 9.91659 15.897 9.39159 16.0183 8.71259C19.3707 9.56425 21.8936 12.4844 22.1433 16.0428C21.7615 16.0511 21.398 16.208 21.13 16.4801C20.8621 16.7522 20.7108 17.118 20.7083 17.4999V18.6666C20.7083 19.4652 21.368 20.1249 22.1666 20.1249H23.3333C24.1319 20.1249 24.7916 19.4652 24.7916 18.6666V17.4999C24.7916 16.7013 24.1319 16.0416 23.3333 16.0416H23.3129C23.1105 12.7755 21.2263 9.9615 18.5126 8.45825H23.4348C23.6775 9.13492 24.3273 9.62492 25.0833 9.62492C26.0429 9.62492 26.8333 8.8345 26.8333 7.87492C26.8333 6.91534 26.0429 6.12492 25.0833 6.12492C24.3279 6.12492 23.6775 6.61492 23.4348 7.29159H16.0416C16.0416 6.493 15.3819 5.83325 14.5833 5.83325H13.4166ZM13.4166 6.99992H14.5833C14.7513 6.99992 14.875 7.12359 14.875 7.29159V8.45825C14.875 8.62625 14.7513 8.74992 14.5833 8.74992H13.4166C13.378 8.75105 13.3396 8.74428 13.3037 8.73002C13.2678 8.71576 13.2352 8.69432 13.2079 8.667C13.1806 8.63969 13.1591 8.60709 13.1449 8.57119C13.1306 8.53529 13.1238 8.49686 13.125 8.45825V7.29159C13.125 7.12359 13.2486 6.99992 13.4166 6.99992Z" fill="#0051FF"/>
</svg>