<svg width="46" height="40" viewBox="0 0 46 40" fill="none" xmlns="http://www.w3.org/2000/svg">
<path d="M43.1236 0.177734H3.54315C2.82742 0.177734 2.141 0.462517 1.6349 0.969434C1.12881 1.47635 0.844482 2.16388 0.844482 2.88076V37.1191C0.844482 37.836 1.12881 38.5236 1.6349 39.0305C2.141 39.5374 2.82742 39.8222 3.54315 39.8222H43.1236C43.8393 39.8222 44.5257 39.5374 45.0318 39.0305C45.5379 38.5236 45.8223 37.836 45.8223 37.1191V2.88076C45.8223 2.16388 45.5379 1.47635 45.0318 0.969434C44.5257 0.462517 43.8393 0.177734 43.1236 0.177734V0.177734ZM3.54315 1.97975H43.1236C43.3622 1.97975 43.591 2.07468 43.7597 2.24365C43.9284 2.41263 44.0231 2.6418 44.0231 2.88076V5.58379H2.64359V2.88076C2.64359 2.6418 2.73837 2.41263 2.90707 2.24365C3.07577 2.07468 3.30457 1.97975 3.54315 1.97975V1.97975ZM43.1236 38.0202H3.54315C3.30457 38.0202 3.07577 37.9252 2.90707 37.7563C2.73837 37.5873 2.64359 37.3581 2.64359 37.1191V7.38582H44.0231V37.1191C44.0231 37.3581 43.9284 37.5873 43.7597 37.7563C43.591 37.9252 43.3622 38.0202 43.1236 38.0202ZM15.948 15.1435L10.0829 22.703L15.948 30.2625C16.0765 30.4523 16.1279 30.6841 16.0917 30.9105C16.0555 31.137 15.9345 31.3411 15.7533 31.4813C15.572 31.6214 15.3442 31.6871 15.1163 31.6649C14.8884 31.6427 14.6776 31.5342 14.5267 31.3617L8.22983 23.2526C8.10875 23.0951 8.04309 22.9018 8.04309 22.703C8.04309 22.5042 8.10875 22.3109 8.22983 22.1534L14.5267 14.0443C14.5956 13.9425 14.6846 13.8559 14.7882 13.7898C14.8918 13.7238 15.0078 13.6797 15.1291 13.6602C15.2503 13.6408 15.3743 13.6464 15.4933 13.6768C15.6123 13.7072 15.7238 13.7616 15.821 13.8368C15.9182 13.912 15.999 14.0063 16.0585 14.1139C16.1179 14.2215 16.1547 14.3402 16.1666 14.4626C16.1785 14.5851 16.1652 14.7086 16.1276 14.8257C16.0901 14.9428 16.0289 15.051 15.948 15.1435V15.1435ZM38.4369 22.1534C38.558 22.3109 38.6237 22.5042 38.6237 22.703C38.6237 22.9018 38.558 23.0951 38.4369 23.2526C31.8971 31.4608 32.239 31.7131 31.4294 31.7131C31.2306 31.7125 31.0377 31.6459 30.8806 31.5239C30.6926 31.3778 30.5699 31.1631 30.5396 30.9267C30.5092 30.6902 30.5736 30.4514 30.7187 30.2625L36.5838 22.703L30.7187 15.1435C30.5902 14.9537 30.5388 14.7219 30.575 14.4955C30.6112 14.269 30.7323 14.0649 30.9135 13.9247C31.0947 13.7845 31.3225 13.7189 31.5504 13.7411C31.7783 13.7633 31.9892 13.8717 32.14 14.0443L38.4369 22.1534ZM26.9316 14.8822L21.5343 31.1004C21.4579 31.3274 21.2947 31.5148 21.0804 31.6212C20.8662 31.7277 20.6185 31.7445 20.3918 31.668C20.1652 31.5916 19.9781 31.4281 19.8719 31.2135C19.7656 30.9989 19.7488 30.7508 19.8251 30.5238L25.2224 14.3056C25.2602 14.1932 25.3198 14.0893 25.3976 14C25.4755 13.9106 25.5702 13.8375 25.6763 13.7848C25.7824 13.7321 25.8978 13.7008 26.0159 13.6928C26.1341 13.6847 26.2526 13.7001 26.3649 13.7379C26.4771 13.7758 26.5808 13.8354 26.67 13.9134C26.7592 13.9914 26.8322 14.0863 26.8848 14.1925C26.9375 14.2988 26.9687 14.4144 26.9767 14.5327C26.9847 14.6511 26.9694 14.7698 26.9316 14.8822V14.8822Z" fill="#04153C"/>
</svg>
