<svg xmlns="http://www.w3.org/2000/svg" width="80" height="80" viewBox="0 0 80 80" fill="none">
  <g clip-path="url(#clip0_8342_50426)">
    <path d="M76.1859 46.8584H74.9887V36.0748C74.9887 34.3676 74.139 32.8561 72.8414 31.9376V30.4693C72.8414 28.3395 71.1087 26.6068 68.9789 26.6068H68.085L71.5051 21.5881C72.6515 19.9059 72.2156 17.6045 70.5334 16.4579L47.3254 0.642304C46.5106 0.0868352 45.5284 -0.118165 44.559 0.0657415C44.0822 0.154725 43.6278 0.337398 43.2221 0.603188C42.8163 0.868978 42.4673 1.21261 42.1953 1.61418L22.1639 31.0084H16.5897L17.9345 17.3943C17.9497 17.2409 18.0493 17.1079 18.1884 17.0556C19.9211 16.4023 21.4226 15.1823 22.4164 13.6204C22.4947 13.4975 22.6423 13.4271 22.7951 13.4426L31.5381 14.3064C31.6871 14.3211 31.8375 14.3063 31.9807 14.2629C32.124 14.2195 32.2573 14.1483 32.373 14.0533C32.4888 13.9584 32.5847 13.8416 32.6553 13.7096C32.7259 13.5776 32.7698 13.433 32.7845 13.284C32.7992 13.1351 32.7844 12.9846 32.741 12.8414C32.6976 12.6981 32.6264 12.5648 32.5315 12.4491C32.4365 12.3333 32.3197 12.2374 32.1877 12.1668C32.0557 12.0962 31.9111 12.0523 31.7622 12.0376L23.0192 11.1739C22.0043 11.0745 21.0365 11.5421 20.4928 12.3965C19.7622 13.545 18.6581 14.4418 17.3842 14.9221C16.4253 15.2837 15.7668 16.145 15.6656 17.1701L14.2987 31.0082H12.8451L14.972 9.47637C15.0486 8.70137 15.7403 8.13199 16.5162 8.20965L34.184 9.95496C34.4849 9.98467 34.7852 9.89365 35.019 9.70193C35.2527 9.5102 35.4007 9.23347 35.4304 8.93262C35.4602 8.63176 35.3691 8.33143 35.1774 8.09768C34.9857 7.86393 34.709 7.71592 34.4081 7.68621L16.7403 5.9409C14.7147 5.74105 12.9033 7.22621 12.7031 9.25215L10.9887 26.6068H8.06919C5.9395 26.6068 4.20669 28.3395 4.20669 30.4693V31.4709C2.46435 32.2731 1.25122 34.0343 1.25122 36.0748L1.25122 74.9334C1.25122 77.7271 3.52403 80 6.31794 80H69.9222C72.7159 80 74.9887 77.7271 74.9887 74.9334V64.15H76.1859C77.599 64.15 78.7486 63.0004 78.7486 61.5875V49.4211C78.7487 48.0079 77.599 46.8584 76.1859 46.8584ZM68.9789 28.8868C69.8517 28.8867 70.5615 29.5967 70.5615 30.4695V31.0503C70.3495 31.0229 70.1359 31.009 69.9222 31.0086H65.0854L66.5312 28.8868H68.9789ZM44.0792 2.89793C44.1833 2.74434 44.3168 2.6129 44.472 2.51123C44.6272 2.40956 44.801 2.33966 44.9834 2.30559C45.1656 2.27055 45.3529 2.272 45.5346 2.30985C45.7162 2.34769 45.8885 2.42118 46.0415 2.52605L69.2495 18.3417C69.8929 18.7803 70.0598 19.6606 69.6214 20.304L62.3267 31.0081H60.5761L64.1525 25.7601C64.7325 24.909 64.7803 23.8259 64.2768 22.9332C63.6078 21.7473 63.3365 20.3509 63.5131 19.0011C63.6443 17.9968 63.2025 17.0165 62.36 16.4425L50.329 8.24371C49.4864 7.66949 48.4123 7.61684 47.5258 8.10637C46.3343 8.76418 44.9354 9.02246 43.587 8.83371C42.587 8.6934 41.5728 9.14496 41.0014 9.98324L26.6734 31.0082H24.9228L44.0792 2.89793ZM44.5812 22.2559C39.617 22.2559 35.542 26.1267 35.21 31.0082L29.432 31.0082L42.885 11.2671H42.8851C42.922 11.2125 42.9716 11.1677 43.0297 11.1365C43.0877 11.1052 43.1525 11.0886 43.2184 11.0879C43.2358 11.0879 43.2531 11.0892 43.2704 11.0915C45.1045 11.3481 47.0068 10.9971 48.6275 10.1023C48.755 10.0317 48.9187 10.0418 49.045 10.1278L61.0761 18.3267C61.202 18.4126 61.2712 18.5614 61.2525 18.7057C61.0123 20.5415 61.3814 22.4406 62.2912 24.0534C62.3642 24.1829 62.3553 24.3489 62.2687 24.4762L57.8175 31.0081H53.9529C53.6206 26.1267 49.5458 22.2559 44.5812 22.2559ZM51.6668 31.0084H37.4958C37.8223 27.3851 40.8745 24.5359 44.5812 24.5359C48.2881 24.5357 51.3404 27.3851 51.6668 31.0084ZM6.48653 30.4693C6.48653 29.5965 7.19638 28.8865 8.06919 28.8865H10.7636L10.554 31.0082H6.48653V30.4693ZM3.53106 36.0748C3.53106 34.5382 4.78122 33.2881 6.31794 33.2881L69.9222 33.2881C71.4589 33.2881 72.7089 34.5382 72.7089 36.0748V39.2379L3.53106 39.2379V36.0748ZM72.7089 74.9334C72.7089 76.47 71.4589 77.7201 69.9222 77.7201H6.31794C4.78122 77.7201 3.53106 76.47 3.53106 74.9334V71.7703H9.67825C9.82794 71.7703 9.97616 71.7408 10.1145 71.6835C10.2527 71.6262 10.3784 71.5423 10.4842 71.4364C10.5901 71.3306 10.674 71.2049 10.7313 71.0666C10.7886 70.9283 10.8181 70.7801 10.8181 70.6304C10.8181 70.4807 10.7886 70.3325 10.7313 70.1942C10.674 70.0559 10.5901 69.9303 10.4842 69.8244C10.3784 69.7186 10.2527 69.6346 10.1145 69.5773C9.97616 69.5201 9.82794 69.4906 9.67825 69.4906H3.53106L3.53106 41.5178L72.7089 41.5178V46.8584L61.8703 46.8584C58.4553 46.8584 55.4972 48.849 54.0933 51.7304C54.0886 51.7401 54.0833 51.7495 54.0784 51.7592C54.0665 51.7837 54.0562 51.8092 54.0447 51.8339C53.8775 52.189 53.7322 52.5567 53.6139 52.9361L53.6129 52.9392C53.3548 53.7697 53.2238 54.6345 53.2245 55.5042C53.2245 60.2715 57.1029 64.15 61.8701 64.15H72.7087V69.4906H16.9773C16.8276 69.4906 16.6794 69.5201 16.5411 69.5773C16.4028 69.6346 16.2772 69.7186 16.1713 69.8244C16.0655 69.9303 15.9815 70.0559 15.9242 70.1942C15.867 70.3325 15.8375 70.4807 15.8375 70.6304C15.8375 70.7801 15.867 70.9283 15.9242 71.0666C15.9815 71.2049 16.0655 71.3306 16.1713 71.4364C16.2772 71.5423 16.4028 71.6262 16.5411 71.6835C16.6794 71.7408 16.8276 71.7703 16.9773 71.7703H72.7089V74.9334ZM76.4689 61.5873C76.4689 61.7432 76.342 61.8701 76.1859 61.8701L61.8706 61.8701C59.4573 61.8701 57.3533 60.5203 56.274 58.5361C56.1259 58.2641 55.998 57.9816 55.8915 57.6907C55.6412 57.0086 55.5047 56.272 55.5047 55.5042C55.5039 54.5494 55.7187 53.6068 56.1333 52.7467C56.1781 52.654 56.225 52.5625 56.274 52.4723C57.3533 50.4881 59.4573 49.1382 61.8706 49.1382L76.1859 49.1382C76.3418 49.1382 76.4689 49.2651 76.4689 49.4211V61.5873Z" fill="#1A75CF"/>
    <path d="M62.1377 50.8792C59.5874 50.8792 57.5127 52.954 57.5127 55.5041C57.5127 58.0543 59.5874 60.129 62.1377 60.129C64.688 60.129 66.7627 58.0543 66.7627 55.5041C66.7627 52.954 64.688 50.8792 62.1377 50.8792ZM62.1377 57.8491C60.8446 57.8491 59.7925 56.7971 59.7925 55.5041C59.7925 54.2112 60.8446 53.159 62.1377 53.159C63.4308 53.159 64.4829 54.211 64.4829 55.5041C64.4829 56.7973 63.4308 57.8491 62.1377 57.8491Z" fill="#1A75CF"/>
  </g>
  <defs>
    <clipPath id="clip0_8342_50426">
      <rect width="80" height="80" fill="white"/>
    </clipPath>
  </defs>
</svg>