<svg xmlns="http://www.w3.org/2000/svg" width="22" height="23" viewBox="0 0 22 23" fill="none">
  <path d="M15.4658 12.9753C15.4125 12.8892 15.2742 12.836 15.0661 12.7324C14.8571 12.6308 13.8274 12.1276 13.6367 12.0579C13.5535 12.0279 13.48 12.0037 13.4122 12.0037C13.3232 12.0037 13.2438 12.0444 13.1654 12.1615C13.0261 12.3695 12.6245 12.836 12.5035 12.9753C12.4348 13.0547 12.3641 13.0944 12.279 13.0944C12.2151 13.0944 12.1406 13.0721 12.0516 13.0266C11.8406 12.925 11.1671 12.7044 10.3687 11.9989C9.74738 11.4482 9.32738 10.7689 9.20447 10.5608C9.08254 10.3547 9.19189 10.2415 9.29738 10.1389C9.39125 10.0431 9.50544 9.895 9.61189 9.77404C9.71641 9.65307 9.75125 9.56694 9.81996 9.42855C9.88867 9.29017 9.85479 9.16823 9.80157 9.06468C9.75028 8.96113 9.33221 7.94017 9.15609 7.52404C9.02641 7.21436 8.89576 7.17468 8.78738 7.17468C8.7506 7.17468 8.71576 7.17952 8.6848 7.17952C8.5648 7.17952 8.42641 7.16113 8.28512 7.16113C8.14576 7.16113 7.92028 7.21339 7.7277 7.42242C7.53705 7.62855 6.99512 8.13081 6.99512 9.15178C6.99512 10.1737 7.74415 11.1589 7.8506 11.2973C7.95415 11.4366 9.29738 13.5995 11.4225 14.4308C12.6545 14.9127 13.1732 15.0221 13.4654 15.0221C13.6783 15.0221 13.7712 14.964 13.9329 14.9495C14.3151 14.9156 15.1696 14.4463 15.3448 13.9624C15.519 13.4786 15.519 13.0615 15.4658 12.9753Z" fill="#81FFA3"/>
  <path d="M11.1576 1.59229C5.92014 1.59229 1.65918 5.82422 1.65918 11.0268C1.65918 12.5955 2.04918 14.1333 2.7924 15.5007L1.39401 19.6291C1.27692 19.9745 1.36401 20.3558 1.6195 20.6171C1.80434 20.8068 2.05498 20.9074 2.31047 20.9074C2.40821 20.9074 2.50692 20.8929 2.60369 20.862L6.94401 19.4839C8.24563 20.1226 9.69337 20.4594 11.1576 20.4594C16.396 20.4594 20.6579 16.2284 20.6579 11.0268C20.6579 5.82422 16.396 1.59229 11.1576 1.59229ZM11.1556 18.5249C9.87434 18.5249 8.6095 18.2026 7.49853 17.592C7.3553 17.5136 7.19466 17.4729 7.03305 17.4729C6.9353 17.4729 6.8366 17.4874 6.73885 17.5184L3.83853 18.4387L4.76369 15.7097C4.85563 15.4387 4.82272 15.1397 4.67369 14.8949C3.96627 13.7336 3.59272 12.3962 3.59272 11.0278C3.59272 6.89358 6.98563 3.52874 11.1556 3.52874C15.3266 3.52874 18.7205 6.89358 18.7205 11.0278C18.7205 15.161 15.3276 18.5249 11.1556 18.5249Z" fill="#81FFA3"/>
</svg>