<svg width="60" height="61" viewBox="0 0 60 61" fill="none" xmlns="http://www.w3.org/2000/svg">
<rect x="-0.000244141" y="0.30127" width="60" height="60" rx="6.00601" fill="#F5F4F9"/>
<g clip-path="url(#clip0)">
<path d="M50.141 27.7166L25.2536 13.3486C24.539 12.9374 23.6906 12.8264 22.8942 13.0397C22.0978 13.253 21.4186 13.7734 21.0052 14.4867L18.14 19.4492L16.2326 22.7525C15.8212 23.4674 15.71 24.3162 15.9236 25.1129C16.1371 25.9095 16.6579 26.589 17.3717 27.0022L25.9045 31.9283L24.5775 34.1912C24.401 34.4907 24.1495 34.7391 23.8479 34.9119C23.5462 35.0847 23.2047 35.176 22.8571 35.1768H17.8751V31.3798C17.8751 31.2318 17.8163 31.0897 17.7116 30.985C17.6069 30.8803 17.4649 30.8215 17.3168 30.8215H14.2856V30.101C14.2849 29.4454 14.0241 28.8169 13.5605 28.3533C13.0969 27.8898 12.4684 27.629 11.8128 27.6282H10.1377C10.0644 27.6282 9.99175 27.6426 9.92399 27.6706C9.85622 27.6987 9.79465 27.7398 9.7428 27.7917C9.69094 27.8435 9.64981 27.9051 9.62176 27.9729C9.59372 28.0406 9.5793 28.1133 9.57935 28.1866V47.1128C9.5793 47.1862 9.59372 47.2588 9.62176 47.3265C9.64981 47.3943 9.69094 47.4559 9.7428 47.5077C9.79465 47.5596 9.85622 47.6007 9.92399 47.6288C9.99175 47.6568 10.0644 47.6712 10.1377 47.6712H11.8128C12.4684 47.6704 13.0969 47.4097 13.5605 46.9461C14.0241 46.4825 14.2849 45.854 14.2856 45.1984V43.4247H17.3168C17.4649 43.4247 17.6069 43.3659 17.7116 43.2612C17.8163 43.1564 17.8751 43.0144 17.8751 42.8663V40.1223H22.8571C24.0667 40.1198 25.2548 39.8023 26.3044 39.2011C27.3541 38.6 28.2291 37.7359 28.8435 36.6939L30.1877 34.4017L34.8649 37.102C35.3359 37.3753 35.8705 37.5194 36.415 37.52C36.6886 37.5199 36.9611 37.4838 37.2254 37.4128C37.7333 37.2777 38.1984 37.0154 38.5767 36.6505C39.1884 36.9344 39.8546 37.0818 40.529 37.0826C40.9424 37.0823 41.3539 37.0278 41.753 36.9205C42.771 36.6499 43.6675 36.0426 44.2963 35.1975L45.4398 35.8577C45.5033 35.8944 45.5735 35.9182 45.6462 35.9278C45.7189 35.9374 45.7928 35.9326 45.8637 35.9136C45.9345 35.8946 46.001 35.8618 46.0591 35.8171C46.1173 35.7724 46.1661 35.7167 46.2027 35.6531L50.3442 28.4801C50.381 28.4167 50.405 28.3466 50.4147 28.2738C50.4244 28.2011 50.4196 28.1272 50.4008 28.0563C50.3819 27.9854 50.3492 27.9189 50.3047 27.8606C50.2601 27.8023 50.2045 27.7534 50.141 27.7166ZM13.1689 45.1984C13.1685 45.5579 13.0256 45.9027 12.7713 46.1569C12.5171 46.4111 12.1724 46.5541 11.8128 46.5544H10.6961V28.745H11.8128C12.1724 28.7453 12.5171 28.8883 12.7713 29.1425C13.0256 29.3968 13.1685 29.7415 13.1689 30.101V45.1984ZM16.7584 42.308H14.2856V31.9382H16.7584V42.308ZM27.8799 36.1289C27.3645 37.0033 26.6304 37.7284 25.7497 38.2328C24.8689 38.7373 23.872 39.0037 22.8571 39.0059H17.8751V36.2938H22.8571C23.3994 36.2926 23.932 36.1503 24.4026 35.8807C24.8732 35.6112 25.2654 35.2237 25.5408 34.7565L26.8729 32.4873L29.2219 33.8434L27.8799 36.1289ZM35.4239 36.1349L17.93 26.0351C17.4724 25.7703 17.1385 25.3347 17.0017 24.824C16.8648 24.3133 16.9361 23.7691 17.2 23.3109L18.8272 20.4913L34.8595 29.7475L39.7748 32.5853L38.1472 35.4062L38.145 35.4097C38.1025 35.4817 38.0555 35.551 38.0042 35.6171V35.6193C37.7098 36.0035 37.2858 36.2676 36.8111 36.3625C36.3364 36.4573 35.8434 36.3765 35.4239 36.1349ZM41.4661 35.8417C40.7348 36.0395 39.9594 35.9987 39.2528 35.7252L40.7438 33.143L43.326 34.6337C42.8504 35.2243 42.1985 35.6475 41.4655 35.8417H41.4661ZM45.5167 34.6101L41.9058 32.5253L40.8162 31.8964L28.4883 24.7793L19.3863 19.5242L21.9723 15.0451C22.2373 14.5876 22.6729 14.2538 23.1836 14.1171C23.6943 13.9804 24.2384 14.0518 24.6965 14.3157L49.0989 28.4048L45.5167 34.6101Z" fill="#2F80ED"/>
<path d="M43.131 31.5752C43.4562 31.7641 43.8255 31.8637 44.2015 31.8639C44.3903 31.8638 44.5782 31.8389 44.7605 31.7899C45.2404 31.6614 45.6608 31.3705 45.9503 30.9667C46.2397 30.5629 46.3801 30.0712 46.3477 29.5755C46.3153 29.0798 46.1119 28.6106 45.7724 28.248C45.4328 27.8854 44.978 27.6517 44.4855 27.5868C43.993 27.5219 43.4932 27.6297 43.0712 27.892C42.6493 28.1543 42.3314 28.5548 42.1717 29.0252C42.0119 29.4956 42.0202 30.0068 42.1951 30.4718C42.3701 30.9368 42.7008 31.3267 43.131 31.5752ZM43.3126 29.2004C43.3801 29.0832 43.4702 28.9807 43.5776 28.8985C43.685 28.8164 43.8075 28.7563 43.9383 28.7218C44.0257 28.6984 44.1158 28.6864 44.2063 28.6863C44.4334 28.6864 44.6541 28.7613 44.8342 28.8996C45.0144 29.0379 45.1438 29.2317 45.2026 29.451C45.2613 29.6704 45.246 29.903 45.1591 30.1128C45.0722 30.3226 44.9185 30.4978 44.7218 30.6113C44.5251 30.7248 44.2965 30.7703 44.0713 30.7406C43.8462 30.7109 43.6371 30.6078 43.4766 30.4472C43.3161 30.2866 43.213 30.0775 43.1834 29.8524C43.1538 29.6272 43.1993 29.3986 43.3129 29.202L43.3126 29.2004Z" fill="#15AE00"/>
<path d="M24.0966 25.9201L19.5212 23.2778C19.4577 23.2406 19.3874 23.2163 19.3144 23.2063C19.2415 23.1963 19.1673 23.2009 19.0961 23.2197C19.0249 23.2385 18.9581 23.2713 18.8996 23.316C18.8411 23.3607 18.7921 23.4166 18.7552 23.4804C18.7184 23.5441 18.6946 23.6145 18.6851 23.6876C18.6756 23.7606 18.6806 23.8348 18.6999 23.9058C18.7192 23.9769 18.7524 24.0435 18.7975 24.1017C18.8426 24.1598 18.8988 24.2085 18.9628 24.2449L23.5395 26.8868C23.6673 26.9536 23.8159 26.9684 23.9542 26.9282C24.0926 26.8879 24.2101 26.7957 24.2821 26.6708C24.354 26.5459 24.3749 26.3981 24.3403 26.2581C24.3058 26.1182 24.2185 25.9971 24.0966 25.9201Z" fill="#15AE00"/>
</g>
<defs>
<clipPath id="clip0">
<rect width="40.8408" height="40.8408" fill="white" transform="translate(9.57935 9.88086)"/>
</clipPath>
</defs>
</svg>
