<svg width="80" height="80" viewBox="0 0 80 80" fill="none" xmlns="http://www.w3.org/2000/svg">
<rect width="80" height="80" rx="40" fill="#2ADAF8"/>
<path d="M47.5845 18.9414C42.8038 18.9432 38.1659 20.571 34.4328 23.5575H16.5676C15.527 23.5586 14.5293 23.9725 13.7934 24.7084C13.0576 25.4442 12.6437 26.4419 12.6426 27.4825V30.6173C12.6442 31.6088 13.0207 32.5631 13.6967 33.2885C14.3727 34.0139 15.2981 34.4568 16.287 34.5282C15.9987 35.0831 15.8482 35.6992 15.8484 36.3244V39.4598C15.8479 40.0791 15.9949 40.6896 16.2772 41.2407H15.2854C14.245 41.2418 13.2475 41.6556 12.5117 42.3911C11.7758 43.1267 11.3618 44.1241 11.3604 45.1645V48.2932C11.3619 49.1808 11.6639 50.0417 12.2173 50.7357C12.7706 51.4298 13.5426 51.916 14.4075 52.1153C14.0904 52.6925 13.9243 53.3405 13.9248 53.9991V57.1339C13.9259 58.1745 14.3398 59.1722 15.0756 59.908C15.8115 60.6439 16.8092 61.0578 17.8498 61.0589H47.5845C50.3497 61.0595 53.0879 60.5152 55.6428 59.4573C58.1976 58.3993 60.519 56.8484 62.4743 54.8931C64.4296 52.9378 65.9806 50.6164 67.0385 48.0615C68.0965 45.5067 68.6407 42.7684 68.6401 40.0032C68.6346 34.42 66.4147 29.067 62.4674 25.1185C58.52 21.17 53.1676 18.9485 47.5845 18.9414ZM14.7867 30.6173V27.4825C14.7872 27.0104 14.975 26.5577 15.3089 26.2238C15.6427 25.8899 16.0954 25.7021 16.5676 25.7016H32.1281C30.3259 27.6495 28.9102 29.9219 27.9562 32.3982H16.5676C16.0954 32.3977 15.6427 32.2099 15.3089 31.876C14.975 31.5422 14.7872 31.0895 14.7867 30.6173ZM17.9926 39.4586V36.3244C17.9929 35.8523 18.1805 35.3996 18.5143 35.0657C18.8481 34.7319 19.3007 34.544 19.7728 34.5436H27.2394C26.7618 36.3241 26.5208 38.1598 26.5226 40.0032C26.5226 40.4149 26.5349 40.826 26.5588 41.234V41.2395H19.7728C19.3008 41.2388 18.8482 41.051 18.5145 40.7171C18.1807 40.3833 17.993 39.9307 17.9926 39.4586ZM13.5045 48.2932V45.1645C13.505 44.6924 13.6928 44.2397 14.0267 43.9058C14.3605 43.5719 14.8132 43.3841 15.2854 43.3836H26.7953C27.1762 45.7265 27.95 47.9882 29.084 50.0734H15.2854C14.8133 50.0729 14.3607 49.8852 14.0269 49.5515C13.693 49.2178 13.5052 48.7652 13.5045 48.2932ZM17.8498 58.9147C17.3776 58.9142 16.925 58.7265 16.5911 58.3926C16.2572 58.0587 16.0694 57.606 16.0689 57.1339V53.9991C16.0694 53.5269 16.2572 53.0741 16.591 52.7401C16.9249 52.4062 17.3776 52.2182 17.8498 52.2176H30.425C32.4577 55.0714 35.1699 57.3732 38.3162 58.9147H17.8498ZM54.8317 57.472C52.5363 58.4311 50.0722 58.9217 47.5845 58.9147C44.4805 58.9165 41.4239 58.1542 38.6844 56.6949C35.9448 55.2357 33.6067 53.1245 31.8763 50.5476C30.1982 48.0466 29.1417 45.1809 28.7948 42.189V42.1847C28.4666 39.3646 28.7775 36.5067 29.7046 33.8231V33.8188C30.7368 30.8345 32.4998 28.156 34.8327 26.0278C37.1656 23.8996 39.9942 22.3893 43.0606 21.6347C46.1269 20.88 49.3334 20.9051 52.3875 21.7076C55.4417 22.5101 58.2463 24.0645 60.5457 26.2289C62.845 28.3934 64.5659 31.0991 65.5513 34.0992C66.5367 37.0993 66.7554 40.2984 66.1873 43.4047C65.6192 46.5111 64.2824 49.4257 62.2989 51.8829C60.3154 54.34 57.7483 56.2615 54.8317 57.472Z" fill="white"/>
<path d="M47.5839 24.9453C45.6066 24.9447 43.6486 25.3337 41.8217 26.0901C39.9948 26.8464 38.3347 27.9552 36.9365 29.3532C35.5382 30.7512 34.429 32.411 33.6723 34.2378C32.9156 36.0646 32.5262 38.0225 32.5264 39.9998C32.5258 40.5802 32.5596 41.1601 32.6275 41.7366C33.0512 45.4052 34.8096 48.7898 37.5677 51.2457C40.3258 53.7016 43.8909 55.0572 47.5839 55.0543C49.5609 55.0547 51.5186 54.6655 53.3451 53.9091C55.1717 53.1526 56.8312 52.0437 58.2291 50.6457C59.6269 49.2476 60.7355 47.5878 61.4917 45.7612C62.2478 43.9345 62.6367 41.9768 62.6359 39.9998C62.6317 36.0088 61.0446 32.1825 58.2228 29.3602C55.401 26.5379 51.5749 24.9502 47.5839 24.9453ZM52.5296 51.9262C50.963 52.5804 49.2815 52.9149 47.5839 52.9101C44.3808 52.9092 41.2925 51.7171 38.9196 49.5655C36.5467 47.414 35.0589 44.4568 34.7453 41.2691C34.4318 38.0814 35.315 34.891 37.2232 32.3183C39.1314 29.7457 41.9282 27.9747 45.0698 27.3497C48.2113 26.7248 51.473 27.2905 54.2205 28.937C56.9681 30.5834 59.0051 33.1929 59.9354 36.2579C60.8657 39.3229 60.6229 42.6244 59.2541 45.5203C57.8853 48.4162 55.4885 50.6995 52.5296 51.9262Z" fill="white"/>
<path d="M47.5812 38.928C47.0609 38.9188 46.565 38.7057 46.2002 38.3345C45.8355 37.9633 45.6312 37.4638 45.6312 36.9434C45.6312 36.423 45.8355 35.9234 46.2002 35.5522C46.565 35.1811 47.0609 34.9679 47.5812 34.9588H50.6375C50.9219 34.9588 51.1946 34.8459 51.3956 34.6448C51.5967 34.4437 51.7096 34.1711 51.7096 33.8867C51.7096 33.6024 51.5967 33.3297 51.3956 33.1286C51.1946 32.9276 50.9219 32.8146 50.6375 32.8146H48.6533V31.9227C48.6533 31.6383 48.5403 31.3656 48.3393 31.1646C48.1382 30.9635 47.8655 30.8506 47.5812 30.8506C47.2968 30.8506 47.0242 30.9635 46.8231 31.1646C46.622 31.3656 46.5091 31.6383 46.5091 31.9227V32.9641C45.5421 33.2235 44.7025 33.8257 44.1466 34.6583C43.5907 35.491 43.3565 36.4973 43.4877 37.4899C43.6189 38.4824 44.1065 39.3933 44.8596 40.053C45.6128 40.7126 46.58 41.0759 47.5812 41.0752C48.1074 41.0752 48.6121 41.2842 48.9843 41.6564C49.3564 42.0285 49.5654 42.5332 49.5654 43.0595C49.5654 43.5857 49.3564 44.0904 48.9843 44.4625C48.6121 44.8347 48.1074 45.0437 47.5812 45.0437H44.5248C44.2405 45.0437 43.9678 45.1567 43.7667 45.3577C43.5657 45.5588 43.4527 45.8315 43.4527 46.1158C43.4527 46.4001 43.5657 46.6728 43.7667 46.8739C43.9678 47.0749 44.2405 47.1879 44.5248 47.1879H46.5091V48.0805C46.5091 48.3648 46.622 48.6375 46.8231 48.8385C47.0242 49.0396 47.2968 49.1525 47.5812 49.1525C47.8655 49.1525 48.1382 49.0396 48.3393 48.8385C48.5403 48.6375 48.6533 48.3648 48.6533 48.0805V47.039C49.6197 46.7792 50.4587 46.1769 51.0142 45.3444C51.5696 44.512 51.8035 43.506 51.6723 42.5139C51.5412 41.5217 51.0539 40.6111 50.3013 39.9515C49.5486 39.2919 48.5819 38.9284 47.5812 38.9286V38.928Z" fill="white"/>
</svg>
