<svg width="60" height="61" viewBox="0 0 60 61" fill="none" xmlns="http://www.w3.org/2000/svg">
<rect x="0.000244141" y="0.30127" width="60" height="60" rx="6.00601" fill="#F5F4F9"/>
<path d="M42.8324 44.6508H17.1689C16.4739 44.6501 15.8075 44.3737 15.316 43.8822C14.8245 43.3907 14.5481 42.7243 14.5474 42.0293V14.1582C14.5481 13.4631 14.8245 12.7967 15.316 12.3053C15.8075 11.8138 16.4739 11.5374 17.1689 11.5366H42.8324C43.5275 11.5374 44.1938 11.8138 44.6853 12.3053C45.1768 12.7967 45.4532 13.4631 45.4539 14.1582V42.0293C45.4532 42.7243 45.1768 43.3907 44.6853 43.8822C44.1938 44.3737 43.5275 44.6501 42.8324 44.6508ZM17.1689 12.6404C16.7665 12.6409 16.3807 12.8009 16.0962 13.0854C15.8117 13.37 15.6516 13.7558 15.6512 14.1582V42.0293C15.6516 42.4317 15.8117 42.8175 16.0962 43.102C16.3807 43.3865 16.7665 43.5466 17.1689 43.547H42.8324C43.2348 43.5466 43.6206 43.3865 43.9051 43.102C44.1897 42.8175 44.3497 42.4317 44.3501 42.0293V14.1582C44.3497 13.7558 44.1897 13.37 43.9051 13.0854C43.6206 12.8009 43.2348 12.6409 42.8324 12.6404H17.1689Z" fill="#2F80ED"/>
<path d="M45.4539 32.509H14.5474V17.0557H45.4539V32.509ZM15.6512 31.4052H44.3501V18.1595H15.6512V31.4052Z" fill="#2F80ED"/>
<path d="M38.279 40.7876C37.7333 40.7876 37.1997 40.6257 36.7459 40.3225C36.2921 40.0193 35.9384 39.5883 35.7296 39.0841C35.5207 38.5799 35.4661 38.025 35.5726 37.4897C35.679 36.9544 35.9419 36.4627 36.3278 36.0768C36.7137 35.6909 37.2054 35.4281 37.7407 35.3216C38.276 35.2151 38.8308 35.2698 39.3351 35.4786C39.8393 35.6875 40.2703 36.0412 40.5735 36.495C40.8767 36.9488 41.0386 37.4823 41.0386 38.0281C41.0377 38.7597 40.7467 39.4611 40.2293 39.9784C39.712 40.4957 39.0106 40.7867 38.279 40.7876ZM38.279 36.3724C37.9516 36.3724 37.6315 36.4695 37.3592 36.6514C37.0869 36.8333 36.8747 37.0919 36.7494 37.3945C36.6241 37.697 36.5913 38.0299 36.6552 38.3511C36.719 38.6723 36.8767 38.9673 37.1083 39.1988C37.3398 39.4304 37.6349 39.5881 37.956 39.652C38.2772 39.7159 38.6101 39.6831 38.9127 39.5577C39.2152 39.4324 39.4738 39.2202 39.6557 38.9479C39.8376 38.6757 39.9348 38.3555 39.9348 38.0281C39.9348 37.589 39.7603 37.1678 39.4498 36.8573C39.1393 36.5468 38.7182 36.3724 38.279 36.3724Z" fill="#2F80ED"/>
<path d="M21.7222 40.7876C21.1764 40.7876 20.6429 40.6257 20.1891 40.3225C19.7353 40.0193 19.3816 39.5883 19.1727 39.0841C18.9638 38.5799 18.9092 38.025 19.0157 37.4897C19.1221 36.9544 19.385 36.4627 19.7709 36.0768C20.1568 35.6909 20.6485 35.4281 21.1838 35.3216C21.7191 35.2151 22.274 35.2698 22.7782 35.4786C23.2824 35.6875 23.7134 36.0412 24.0166 36.495C24.3198 36.9488 24.4817 37.4823 24.4817 38.0281C24.4808 38.7597 24.1898 39.4611 23.6725 39.9784C23.1551 40.4957 22.4538 40.7867 21.7222 40.7876ZM21.7222 36.3724C21.3947 36.3724 21.0746 36.4695 20.8023 36.6514C20.53 36.8333 20.3178 37.0919 20.1925 37.3945C20.0672 37.697 20.0344 38.0299 20.0983 38.3511C20.1622 38.6723 20.3198 38.9673 20.5514 39.1988C20.783 39.4304 21.078 39.5881 21.3992 39.652C21.7203 39.7159 22.0532 39.6831 22.3558 39.5577C22.6583 39.4324 22.9169 39.2202 23.0988 38.9479C23.2808 38.6757 23.3779 38.3555 23.3779 38.0281C23.3779 37.589 23.2034 37.1678 22.8929 36.8573C22.5824 36.5468 22.1613 36.3724 21.7222 36.3724Z" fill="#2F80ED"/>
<path d="M40.3836 49.0659H36.7272C36.2608 49.0655 35.8136 48.88 35.4838 48.5503C35.1539 48.2205 34.9684 47.7734 34.9678 47.307V43.5469H42.1425V47.307C42.1419 47.7733 41.9564 48.2204 41.6267 48.5501C41.297 48.8798 40.8499 49.0653 40.3836 49.0659ZM36.0716 44.6507V47.307C36.0719 47.4807 36.1411 47.6473 36.264 47.7701C36.3869 47.8929 36.5535 47.962 36.7272 47.9621H40.3836C40.5573 47.9618 40.7237 47.8927 40.8465 47.7699C40.9693 47.6471 41.0384 47.4806 41.0387 47.307V44.6507H36.0716Z" fill="#2F80ED"/>
<path d="M23.2745 49.0659H19.6181C19.1517 49.0655 18.7045 48.88 18.3747 48.5503C18.0448 48.2205 17.8592 47.7734 17.8586 47.307V43.5469H25.0334V47.307C25.0328 47.7733 24.8473 48.2204 24.5176 48.5501C24.1878 48.8798 23.7408 49.0653 23.2745 49.0659ZM18.9624 44.6507V47.307C18.9627 47.4807 19.0319 47.6473 19.1548 47.7701C19.2778 47.8929 19.4444 47.962 19.6181 47.9621H23.2745C23.4481 47.9618 23.6146 47.8927 23.7374 47.7699C23.8602 47.6471 23.9293 47.4806 23.9296 47.307V44.6507H18.9624Z" fill="#2F80ED"/>
<path d="M48.7649 26.5302H44.9016V25.4264H47.6611V19.8152H45.4535V18.7114H48.7649V26.5302Z" fill="#2F80ED"/>
<path d="M15.0992 26.5302H11.2358V18.7114H14.5473V19.8152H12.3396V25.4264H15.0992V26.5302Z" fill="#2F80ED"/>
<path d="M29.4485 17.6074H30.5523V31.9569H29.4485V17.6074Z" fill="#2F80ED"/>
<path d="M26.689 37.4761H33.3118V38.5799H26.689V37.4761Z" fill="#15AE00"/>
</svg>
