<svg width="60" height="60" viewBox="0 0 60 60" fill="none" xmlns="http://www.w3.org/2000/svg">
<rect width="60" height="60" rx="6.00601" fill="#F5F4F9"/>
<mask id="path-2-inside-1_875_139" fill="white">
<path d="M14.5715 45C14.5715 43.3431 15.9147 42 17.5715 42H42.4287C44.0855 42 45.4287 43.3431 45.4287 45V49C45.4287 49.5523 44.981 50 44.4287 50H15.5715C15.0193 50 14.5715 49.5523 14.5715 49V45Z"/>
</mask>
<path d="M14.5715 45C14.5715 43.3431 15.9147 42 17.5715 42H42.4287C44.0855 42 45.4287 43.3431 45.4287 45V49C45.4287 49.5523 44.981 50 44.4287 50H15.5715C15.0193 50 14.5715 49.5523 14.5715 49V45Z" stroke="#2F80ED" stroke-width="3" mask="url(#path-2-inside-1_875_139)"/>
<path d="M30 20.2856C21.493 20.2856 14.5715 29.1521 14.5715 40.0503C14.5715 40.4958 14.9549 40.8571 15.4287 40.8571C15.9025 40.8571 16.2859 40.4958 16.2859 40.0503C16.2859 30.0415 22.4382 21.8991 30.0001 21.8991C37.562 21.8991 43.7143 30.0415 43.7143 40.0503C43.7143 40.4958 44.0977 40.8571 44.5715 40.8571C45.0453 40.8571 45.4287 40.4958 45.4287 40.0503C45.4285 29.1521 38.507 20.2856 30 20.2856Z" fill="#2F80ED"/>
<path d="M26.742 26.4891C26.4567 26.1078 25.9156 26.0296 25.536 26.3169C21.8862 29.0542 20.9461 32.6767 20.9083 32.8294C20.7921 33.2915 21.0733 33.7593 21.5352 33.8746C21.6051 33.8923 21.6758 33.9003 21.7448 33.9003C22.131 33.9003 22.482 33.639 22.5796 33.2477C22.588 33.2161 23.4043 30.07 26.5695 27.6955C26.9508 27.4102 27.0282 26.8698 26.742 26.4891Z" fill="#15AE00"/>
<rect x="29.4287" y="10" width="1.71429" height="8" rx="0.857144" fill="#15AE00"/>
<rect width="1.71363" height="7.99693" rx="0.856814" transform="matrix(0.706835 0.707379 -0.706835 0.707379 44.2175 14.5713)" fill="#15AE00"/>
<rect width="1.71363" height="7.99693" rx="0.856814" transform="matrix(0.706835 -0.707378 0.706835 0.707378 14.5715 15.5757)" fill="#15AE00"/>
</svg>
