<svg width="80" height="80" viewBox="0 0 80 80" fill="none" xmlns="http://www.w3.org/2000/svg">
<rect width="80" height="80" rx="40" fill="#913BFF"/>
<g clip-path="url(#clip0)">
<path d="M33.4242 24.0728C31.359 24.0728 29.6787 25.753 29.6787 27.8183C29.6787 28.2392 30.02 28.5804 30.4408 28.5804C30.8617 28.5804 31.203 28.2392 31.203 27.8183C31.203 26.5934 32.1994 25.597 33.4242 25.597C33.8451 25.597 34.1864 25.2558 34.1864 24.8349C34.1864 24.4139 33.8451 24.0728 33.4242 24.0728Z" fill="white"/>
<path d="M46.4062 27.0562C45.9852 27.0562 45.644 27.3974 45.644 27.8183C45.644 28.2392 45.9852 28.5804 46.4062 28.5804C47.631 28.5804 48.6274 29.5768 48.6274 30.8017C48.6274 31.2226 48.9686 31.5638 49.3896 31.5638C49.8106 31.5638 50.1517 31.2226 50.1517 30.8017C50.1517 28.7364 48.4715 27.0562 46.4062 27.0562Z" fill="white"/>
<path d="M43.5227 21.2226C43.0747 19.2063 41.0701 17.9305 39.0541 18.378C38.6432 18.4692 38.384 18.8764 38.4753 19.2873C38.5665 19.6981 38.9734 19.9573 39.3846 19.8661C40.5805 19.6007 41.769 20.3574 42.0346 21.5531C42.1135 21.9084 42.4285 22.1501 42.7779 22.1501C42.8326 22.1501 42.8883 22.1443 42.9439 22.1319C43.3548 22.0406 43.614 21.6335 43.5227 21.2226Z" fill="white"/>
<path d="M47.5386 43.5351C45.5147 42.1396 42.8375 41.3711 40.0002 41.3711C37.1631 41.3711 34.4858 42.1396 32.4618 43.5351C30.3514 44.9903 29.189 46.953 29.189 49.0617C29.189 51.1706 30.3514 53.1333 32.4618 54.5885C34.4858 55.9839 37.1631 56.7525 40.0002 56.7525C42.8375 56.7525 45.5147 55.9839 47.5386 54.5885C49.6491 53.1333 50.8114 51.1706 50.8114 49.0617C50.8114 46.953 49.6491 44.9902 47.5386 43.5351ZM46.6733 53.3335C44.9013 54.5553 42.5314 55.2281 40.0002 55.2281C37.4691 55.2281 35.0991 54.5553 33.3271 53.3335C31.6416 52.1713 30.7133 50.6542 30.7133 49.0616C30.7133 47.4691 31.6416 45.952 33.3271 44.7899C35.0991 43.5681 37.4691 42.8952 40.0002 42.8952C42.5314 42.8952 44.9013 43.5681 46.6733 44.7899C48.3587 45.9521 49.287 47.4691 49.287 49.0616C49.2871 50.6543 48.3588 52.1714 46.6733 53.3335Z" fill="white"/>
<path d="M58.1909 30.7635C58.0435 29.5927 57.1986 28.9432 56.2953 28.7474C56.3395 28.4989 56.3611 28.2461 56.3593 27.9901C56.3447 25.7843 54.5961 23.9621 52.3368 23.6582C52.3786 23.4163 52.3989 23.1703 52.3973 22.9214C52.3816 20.5505 50.3627 18.6227 47.8595 18.5473C47.4663 16.6118 45.6453 15.1483 43.4738 15.1621C43.2316 15.1635 42.9898 15.1836 42.7509 15.222C42.1219 14.5693 41.2677 14.1463 40.3305 14.0315C40.2558 14.0093 40.1772 13.9987 40.098 14.0002C40.0651 14.0009 40.0324 14.0025 39.9998 14.0045C39.9672 14.0025 39.9345 14.0009 39.9016 14.0002C39.8229 13.9984 39.7439 14.0093 39.6691 14.0315C38.7319 14.1463 37.8778 14.5693 37.2488 15.222C37.0099 15.1835 36.7681 15.1634 36.5258 15.162C36.5166 15.162 36.5077 15.162 36.4986 15.162C34.339 15.162 32.5307 16.6206 32.1398 18.5473C29.6369 18.6229 27.618 20.5507 27.6024 22.9214C27.6007 23.1703 27.621 23.4163 27.6628 23.6582C25.4037 23.9622 23.6548 25.7845 23.6402 27.9902C23.6385 28.2461 23.6599 28.499 23.7043 28.7474C22.8011 28.9431 21.9561 29.5927 21.8087 30.7635C21.691 31.6982 22.1099 32.5794 22.8486 33.0768C22.8353 33.1839 22.8286 33.292 22.8286 33.4009C22.8286 33.7244 22.8884 34.0395 23.0055 34.3415C22.9169 34.818 22.9138 35.3123 23.0047 35.8023L28.1621 63.6135C28.4185 64.9963 29.6254 66 31.0319 66H48.9677C50.3742 66 51.581 64.9963 51.8375 63.6135L56.9948 35.8023C57.0857 35.3123 57.0827 34.818 56.994 34.3415C57.1112 34.0394 57.1709 33.7243 57.1709 33.4009C57.1709 33.2919 57.1643 33.1839 57.1509 33.0768C57.8899 32.5794 58.3085 31.6982 58.1909 30.7635ZM55.4962 35.5243L50.3388 63.3355C50.2162 63.9962 49.6397 64.4757 48.9677 64.4757H47.3083L48.1264 57.1229C48.1729 56.7046 47.8715 56.3277 47.4531 56.2812C47.0343 56.2346 46.6579 56.5361 46.6114 56.9543L45.7745 64.4757H42.943L43.1341 59.3252C43.1496 58.9045 42.8212 58.551 42.4007 58.5353C41.9794 58.5178 41.6265 58.8482 41.6107 59.2687L41.4176 64.4757H38.5819L38.3882 59.2538C38.3727 58.8331 38.0193 58.5027 37.5984 58.5204C37.1777 58.5359 36.8494 58.8896 36.865 59.3103L37.0565 64.4758H34.225L33.3893 56.9657C33.3428 56.5474 32.9663 56.2461 32.5476 56.2925C32.1292 56.339 31.8278 56.7159 31.8744 57.1343L32.6913 64.4758H31.0318C30.3599 64.4758 29.7833 63.9964 29.6608 63.3356L24.5034 35.5244C24.4358 35.1604 24.4513 34.7923 24.5429 34.4444C24.5579 34.3874 24.5755 34.3316 24.5943 34.2765C24.5996 34.261 24.6048 34.2456 24.6104 34.2303C24.6306 34.1747 24.6523 34.1198 24.6761 34.0662C24.6804 34.0567 24.6853 34.0475 24.6897 34.038C24.7105 33.9929 24.7328 33.9486 24.7562 33.9052C24.7651 33.8886 24.7741 33.872 24.7834 33.8555C24.8111 33.8065 24.8401 33.7584 24.8709 33.7118C24.8788 33.6999 24.8875 33.6884 24.8955 33.6766C24.9213 33.6391 24.948 33.6023 24.9758 33.5664C24.9876 33.5509 24.9996 33.5356 25.0118 33.5204C25.0481 33.4757 25.0852 33.4316 25.1244 33.3895C25.1265 33.3874 25.1286 33.3854 25.1307 33.3831C25.1711 33.3403 25.213 33.2991 25.2562 33.2592C25.2642 33.2517 25.2724 33.2444 25.2805 33.237C25.3747 33.1524 25.4749 33.0748 25.5809 33.0055C25.5835 33.0038 25.5861 33.0021 25.5888 33.0004C25.6981 32.9296 25.813 32.8672 25.9327 32.8142C25.9358 32.8128 25.9391 32.8114 25.9422 32.81C26.0595 32.7586 26.1814 32.7164 26.3068 32.6835C26.3158 32.6811 26.3248 32.6789 26.3338 32.6767C26.4541 32.6466 26.5776 32.6256 26.7035 32.6139C26.7178 32.6126 26.732 32.6115 26.7462 32.6103C26.808 32.6057 26.8703 32.6024 26.9332 32.6024C27.4059 32.6024 27.85 32.7353 28.2277 32.9675C28.8571 33.3545 29.3022 34.0173 29.3894 34.8005L29.4095 34.9808L29.4647 35.4771C29.4647 35.4772 29.4647 35.4773 29.4647 35.4774L29.469 35.5156L30.1668 41.7871C30.2102 42.1768 30.5402 42.4651 30.9234 42.4651C30.9515 42.4651 30.9799 42.4636 31.0086 42.4604C31.4269 42.4139 31.7284 42.037 31.6817 41.6187L30.9839 35.3472C30.983 35.3392 30.9827 35.3313 30.9819 35.3234C30.9817 35.3214 30.9818 35.3194 30.9816 35.3174C30.9731 35.2328 30.9692 35.1486 30.9692 35.065C30.9693 35.0435 30.9699 35.0219 30.9706 35.0005C30.971 34.9828 30.9713 34.9653 30.9721 34.9477C30.9738 34.9133 30.9766 34.8791 30.9798 34.8448C30.9804 34.8385 30.9807 34.8322 30.9813 34.826C30.985 34.789 30.99 34.7522 30.9954 34.7154C30.9963 34.7095 30.9968 34.7036 30.9976 34.6977C31.0031 34.6621 31.0098 34.6269 31.0168 34.5917C31.0182 34.5847 31.0192 34.5775 31.0207 34.5705C31.028 34.5356 31.0364 34.5008 31.0452 34.4663C31.0471 34.4592 31.0484 34.452 31.0503 34.4449C31.0588 34.4128 31.0684 34.381 31.0782 34.3493C31.081 34.34 31.0834 34.3304 31.0864 34.321C31.0959 34.2912 31.1067 34.2618 31.1173 34.2323C31.1212 34.2213 31.1247 34.2101 31.1288 34.1991C31.1408 34.1674 31.1539 34.1362 31.1672 34.105C31.1708 34.0966 31.1739 34.088 31.1776 34.0797C31.1893 34.0531 31.2021 34.0271 31.2145 34.001C31.2206 33.9882 31.2262 33.9753 31.2326 33.9627C31.2462 33.9355 31.2611 33.909 31.2757 33.8824C31.2819 33.8712 31.2875 33.8598 31.2938 33.8486C31.308 33.8237 31.3233 33.7993 31.3385 33.7749C31.3461 33.7625 31.3532 33.7498 31.3611 33.7375C31.3752 33.7154 31.3906 33.694 31.4054 33.6723C31.4117 33.663 31.4178 33.6537 31.4243 33.6446C31.4285 33.6386 31.4325 33.6325 31.4368 33.6266C31.4491 33.6095 31.4623 33.5931 31.475 33.5763C31.4903 33.5562 31.5054 33.536 31.5215 33.5163C31.5251 33.5117 31.5292 33.5073 31.5328 33.5029C31.5575 33.473 31.5826 33.4435 31.6088 33.4145C31.6093 33.4139 31.6098 33.4134 31.6104 33.4129C31.6385 33.3819 31.6672 33.3519 31.6966 33.3226C31.7163 33.303 31.7365 33.2842 31.7567 33.2653C31.7661 33.2565 31.7753 33.2473 31.7848 33.2387C32.2364 32.8318 32.8264 32.6025 33.44 32.6025H33.4929C33.8267 32.6025 34.1449 32.6678 34.4351 32.7867C35.3058 33.1432 35.9253 33.9814 35.9625 34.9823L35.9637 35.0164L36.1084 38.916C36.124 39.3366 36.4797 39.6676 36.8982 39.6493C37.3189 39.6338 37.6472 39.2802 37.6316 38.8595L37.4946 35.1662C37.4946 35.1659 37.4946 35.1657 37.4946 35.1654V35.1653V35.1652C37.4939 35.1449 37.4941 35.1248 37.4939 35.1046C37.4936 35.082 37.4929 35.0592 37.4932 35.0366C37.4935 35.0182 37.4946 34.9999 37.4952 34.9815C37.496 34.9581 37.4964 34.9345 37.4979 34.9112C37.499 34.8937 37.5011 34.8762 37.5025 34.8586C37.5045 34.8348 37.5062 34.8108 37.5089 34.787C37.5108 34.7697 37.5138 34.7525 37.5161 34.7352C37.5194 34.7116 37.5222 34.6878 37.5261 34.6642C37.5289 34.647 37.5327 34.6299 37.5359 34.6127C37.5403 34.5894 37.5442 34.566 37.5493 34.5429C37.5529 34.5266 37.5572 34.5107 37.5611 34.4945C37.5668 34.4708 37.5722 34.4468 37.5786 34.4232C37.5827 34.408 37.5876 34.3931 37.5921 34.3779C37.5992 34.3538 37.6059 34.3295 37.6137 34.3055C37.6187 34.2901 37.6246 34.275 37.6299 34.2597C37.638 34.2365 37.6458 34.213 37.6545 34.1899C37.6604 34.1745 37.6671 34.1595 37.6733 34.1441C37.6825 34.1215 37.6914 34.0987 37.7013 34.0765C37.7084 34.0605 37.7163 34.0447 37.7237 34.0288C37.7336 34.0076 37.7431 33.9864 37.7536 33.9655C37.7621 33.9484 37.7715 33.9319 37.7806 33.915C37.7909 33.8956 37.8009 33.876 37.8118 33.8569C37.8213 33.8401 37.8319 33.8236 37.8418 33.807C37.853 33.7884 37.8637 33.7696 37.8753 33.7513C37.887 33.7329 37.8997 33.715 37.9119 33.697C37.9229 33.6808 37.9332 33.6644 37.9446 33.6484C37.9579 33.6297 37.9721 33.6115 37.9859 33.5932C37.9971 33.5783 38.0078 33.5632 38.0193 33.5486C38.0399 33.5224 38.0616 33.4968 38.0834 33.4712C38.0888 33.4649 38.0938 33.4583 38.0993 33.4521C38.1269 33.4204 38.1553 33.3893 38.1847 33.3589C38.5667 32.9626 39.0555 32.7108 39.5887 32.6304C39.7118 32.6118 39.8372 32.6023 39.9642 32.6023H40.0349C40.7124 32.6023 41.3443 32.8711 41.8144 33.3589C42.167 33.7247 42.393 34.1769 42.4733 34.6658C42.4737 34.6683 42.474 34.6709 42.4744 34.6735C42.4806 34.7117 42.486 34.75 42.4903 34.7886C42.4909 34.7927 42.4911 34.797 42.4915 34.8012C42.4954 34.8382 42.4989 34.8753 42.5012 34.9127C42.5016 34.9187 42.5016 34.9247 42.5019 34.9306C42.504 34.9663 42.5055 35.002 42.506 35.038C42.5061 35.0459 42.5057 35.0539 42.5057 35.0619C42.5058 35.0962 42.5057 35.1306 42.5045 35.1652C42.5045 35.1652 42.5045 35.1652 42.5045 35.1653C42.5045 35.1656 42.5045 35.1658 42.5045 35.1661L42.3685 38.8313C42.3529 39.2519 42.6813 39.6055 43.1019 39.6211C43.5227 39.6391 43.8761 39.3084 43.8918 38.8877L44.0367 34.9821C44.0862 33.6477 45.1709 32.6024 46.5063 32.6024H46.5593C47.1729 32.6024 47.7629 32.8316 48.2144 33.2387C48.2236 33.247 48.2323 33.2558 48.2413 33.2642C48.262 33.2834 48.2826 33.3027 48.3027 33.3226C48.332 33.352 48.3609 33.3821 48.389 33.4132C48.3894 33.4136 48.3898 33.414 48.3902 33.4144C48.4163 33.4433 48.4414 33.4727 48.466 33.5025C48.4699 33.5071 48.4739 33.5116 48.4778 33.5164C48.4937 33.536 48.5086 33.5561 48.524 33.5761C48.5368 33.593 48.5501 33.6095 48.5625 33.6267C48.5667 33.6326 48.5707 33.6387 48.575 33.6447C48.6218 33.7108 48.6656 33.7787 48.7055 33.8486C48.7057 33.849 48.7059 33.8494 48.7061 33.8498C48.7272 33.887 48.7474 33.9246 48.7666 33.9627C48.7713 33.972 48.7754 33.9815 48.7799 33.991C48.7942 34.0203 48.8085 34.0497 48.8216 34.0795C48.8296 34.0977 48.8366 34.1163 48.8441 34.1347C48.8529 34.1561 48.8622 34.1774 48.8703 34.1989C48.8798 34.2238 48.888 34.249 48.8966 34.2741C48.9019 34.2897 48.9078 34.305 48.9129 34.3206C48.9216 34.3481 48.9292 34.3759 48.9371 34.4036C48.941 34.4172 48.9454 34.4307 48.949 34.4443C48.956 34.4708 48.9618 34.4976 48.9679 34.5244C48.9714 34.5396 48.9754 34.5547 48.9787 34.5699C48.9852 34.6014 48.9906 34.6331 48.9959 34.6648C48.9978 34.6755 49.0001 34.6861 49.0017 34.6968C49.0062 34.726 49.0096 34.7553 49.013 34.7846C49.0146 34.7982 49.0169 34.8117 49.0182 34.8253C49.0209 34.8521 49.0225 34.8792 49.0243 34.9062C49.0253 34.9204 49.0267 34.9346 49.0274 34.9488C49.028 34.9628 49.0282 34.9769 49.0286 34.9909C49.029 35.0003 49.0291 35.0098 49.0293 35.0192C49.0297 35.0349 49.0303 35.0507 49.0303 35.0665C49.0303 35.1037 49.0295 35.141 49.0278 35.1784C49.0277 35.1814 49.0277 35.1845 49.0275 35.1875C49.0254 35.2307 49.0223 35.2739 49.018 35.3174C49.0179 35.3185 49.018 35.3196 49.0179 35.3207C49.017 35.3295 49.0167 35.3382 49.0156 35.347V35.3471V35.3472L48.3256 41.5489C48.2791 41.9672 48.5805 42.3441 48.9989 42.3906C49.0274 42.3938 49.056 42.3953 49.0841 42.3953C49.4672 42.3953 49.7973 42.1071 49.8406 41.7174L50.5307 35.5156L50.6103 34.8004C50.7497 33.5474 51.8056 32.6024 53.0665 32.6024C53.1293 32.6024 53.1915 32.6057 53.2535 32.6102C53.2677 32.6114 53.282 32.6125 53.2962 32.6138C53.4219 32.6255 53.5454 32.6465 53.6657 32.6766C53.6748 32.6788 53.684 32.6811 53.693 32.6835C53.8181 32.7163 53.9399 32.7585 54.057 32.8098C54.0605 32.8113 54.0638 32.8128 54.0673 32.8143C54.1867 32.8673 54.3015 32.9296 54.4106 33.0002C54.4134 33.0021 54.4162 33.0039 54.4191 33.0057C54.5248 33.0749 54.6249 33.1524 54.7188 33.2368C54.7271 33.2443 54.7355 33.2519 54.7438 33.2595C54.7866 33.2991 54.8284 33.3401 54.8685 33.3826C54.8707 33.385 54.8731 33.3872 54.8753 33.3895C54.9143 33.4314 54.9514 33.4753 54.9875 33.5199C55.0001 33.5355 55.0123 33.5511 55.0244 33.567C55.0515 33.6022 55.0777 33.6382 55.103 33.6749C55.1116 33.6874 55.1208 33.6996 55.1291 33.7122C55.1597 33.7583 55.1882 33.8059 55.2157 33.8544C55.2255 33.8717 55.2349 33.889 55.2443 33.9065C55.2668 33.9484 55.2883 33.9911 55.3084 34.0345C55.3134 34.0454 55.3191 34.0561 55.324 34.0672C55.3475 34.1198 55.3687 34.1736 55.3886 34.2282C55.3947 34.245 55.4005 34.2618 55.4063 34.2786C55.4241 34.3308 55.4406 34.3837 55.455 34.4377C55.548 34.7875 55.5641 35.1579 55.4962 35.5243ZM56.0449 31.9303C55.9293 31.9636 55.8246 32.0233 55.7383 32.1031C55.7304 32.096 55.722 32.0894 55.7141 32.0824C55.6845 32.0561 55.6544 32.0304 55.624 32.005C55.6069 31.9908 55.5896 31.9768 55.5722 31.9628C55.5366 31.934 55.5007 31.9056 55.4642 31.8781C55.4574 31.873 55.4504 31.8681 55.4436 31.863C55.2588 31.726 55.0633 31.6058 54.8589 31.5032C54.8512 31.4995 54.8437 31.4956 54.8361 31.4918C54.7889 31.4685 54.7411 31.446 54.693 31.4246C54.683 31.4201 54.673 31.4159 54.663 31.4115C54.6149 31.3906 54.5667 31.3702 54.5177 31.3511C54.5109 31.3484 54.504 31.3461 54.4972 31.3435C54.3526 31.288 54.2046 31.2412 54.0539 31.2029C54.0276 31.1962 54.0013 31.1891 53.9748 31.183C53.9406 31.1751 53.9064 31.1681 53.8721 31.161C53.8388 31.1541 53.8053 31.1475 53.7718 31.1415C53.7404 31.136 53.7091 31.1308 53.6775 31.1259C53.6394 31.12 53.6012 31.1148 53.5628 31.1101C53.5343 31.1065 53.5058 31.1029 53.4772 31.1C53.4328 31.0954 53.3881 31.092 53.3433 31.0889C53.3199 31.0873 53.2965 31.0852 53.2731 31.084C53.2044 31.0804 53.1355 31.0783 53.0662 31.0783C52.9016 31.0783 52.7393 31.0884 52.5798 31.1078C52.532 31.1136 52.4848 31.1218 52.4375 31.1294C52.4027 31.1348 52.3673 31.1391 52.3327 31.1455C52.2921 31.153 52.2523 31.1629 52.212 31.1717C52.1737 31.18 52.1349 31.1872 52.0971 31.1966C51.7967 31.2713 51.5097 31.3807 51.24 31.5194C51.2306 31.5242 51.2209 31.5283 51.2115 31.5333C51.1647 31.5578 51.1192 31.5846 51.0734 31.6109C51.0513 31.6236 51.0285 31.6352 51.0067 31.6484C50.9621 31.6753 50.919 31.7041 50.8756 31.7326C50.8536 31.747 50.8311 31.7604 50.8095 31.7751C50.7728 31.8002 50.7375 31.8272 50.7018 31.8535C50.6747 31.8734 50.6468 31.8923 50.6202 31.9129C50.5945 31.9328 50.5702 31.9542 50.545 31.9748C50.5096 32.0035 50.4738 32.0315 50.4395 32.0615C50.4239 32.075 50.4094 32.0897 50.3941 32.1034C50.3514 32.1418 50.3087 32.1801 50.2677 32.2202C50.2612 32.2265 50.2553 32.2333 50.2489 32.2397C50.1447 32.3433 50.0456 32.4522 49.9532 32.5669C49.9517 32.5687 49.9503 32.5707 49.9488 32.5726C49.9015 32.6316 49.8556 32.6918 49.8116 32.7534C49.8102 32.7514 49.8085 32.7496 49.8072 32.7476C49.778 32.7067 49.7471 32.6669 49.7162 32.6271C49.7029 32.6098 49.6903 32.5922 49.6767 32.5751C49.6316 32.5188 49.585 32.4636 49.5367 32.4096C49.5323 32.4047 49.5275 32.4001 49.5232 32.3952C49.522 32.394 49.5211 32.3928 49.52 32.3916C49.5107 32.3812 49.5006 32.3716 49.4912 32.3613C49.4541 32.3212 49.4167 32.2814 49.3781 32.243C49.3664 32.2313 49.3542 32.2203 49.3424 32.2089C49.3039 32.1715 49.2653 32.1344 49.2255 32.0988C49.2136 32.0881 49.2012 32.0782 49.1891 32.0677C49.1484 32.0321 49.1076 31.9968 49.0656 31.963C49.0546 31.9541 49.0432 31.9459 49.032 31.9372C48.9883 31.9028 48.9444 31.8687 48.8995 31.8362C48.8894 31.829 48.879 31.8223 48.8689 31.8152C48.8222 31.7821 48.7751 31.7495 48.7271 31.7185C48.7192 31.7133 48.7109 31.7088 48.7029 31.7037C48.6523 31.6715 48.6012 31.64 48.5492 31.6102C48.5437 31.607 48.5379 31.6042 48.5324 31.601C48.4777 31.5699 48.4224 31.5399 48.3664 31.5114C48.3625 31.5095 48.3585 31.5078 48.3547 31.5058C48.2967 31.4767 48.2382 31.4487 48.1789 31.4224C48.1769 31.4216 48.1749 31.4207 48.173 31.4199C48.1117 31.3929 48.0498 31.3672 47.9872 31.3432C47.9862 31.3428 47.9853 31.3425 47.9843 31.3422C47.9207 31.318 47.8566 31.2952 47.7918 31.2742C47.7907 31.2739 47.7896 31.2736 47.7886 31.2732C47.7239 31.2522 47.6588 31.2328 47.5931 31.2152C47.5903 31.2145 47.5876 31.2139 47.5848 31.2131C47.5208 31.1961 47.4563 31.1803 47.3912 31.1665C47.3845 31.1651 47.3776 31.1641 47.3708 31.1628C47.3097 31.1501 47.2484 31.1383 47.1866 31.1284C47.1721 31.1261 47.1573 31.1248 47.1427 31.1226C47.0886 31.1145 47.0344 31.1067 46.9797 31.1009C46.9481 31.0976 46.9161 31.0959 46.8844 31.0933C46.8464 31.0902 46.8086 31.0863 46.7705 31.0843C46.7003 31.0805 46.6299 31.0787 46.5594 31.0787H46.5064C46.4299 31.0787 46.354 31.0813 46.2785 31.0856C46.2548 31.0869 46.2312 31.089 46.2074 31.0908C46.1553 31.0945 46.1035 31.0991 46.052 31.1049C46.0254 31.1078 45.999 31.1112 45.9726 31.1146C45.9227 31.1212 45.873 31.1288 45.8235 31.1373C45.7991 31.1414 45.7745 31.1453 45.7502 31.15C45.6898 31.1614 45.6299 31.1743 45.5704 31.1885C45.5587 31.1913 45.5467 31.1935 45.5349 31.1964C45.4642 31.2139 45.3943 31.2335 45.3252 31.2547C45.3048 31.2609 45.2848 31.268 45.2646 31.2745C45.2155 31.2904 45.1667 31.3069 45.1185 31.3247C45.0942 31.3336 45.0702 31.3428 45.0462 31.3523C45.0014 31.3698 44.9571 31.388 44.9131 31.407C44.89 31.417 44.8668 31.4269 44.8439 31.4374C44.7948 31.4597 44.7466 31.4832 44.6986 31.5074C44.6826 31.5155 44.6662 31.523 44.6504 31.5313C44.5876 31.5641 44.5259 31.5985 44.4651 31.6344C44.4494 31.6438 44.4342 31.6538 44.4185 31.6634C44.3733 31.691 44.3285 31.7192 44.2846 31.7486C44.2635 31.7626 44.2428 31.7771 44.2221 31.7915C44.1836 31.8183 44.1456 31.8457 44.1081 31.8737C44.0875 31.8891 44.067 31.9045 44.0467 31.9203C44.0072 31.9511 43.9685 31.9828 43.9302 32.015C43.9142 32.0285 43.8977 32.0416 43.8819 32.0554C43.8288 32.1014 43.7769 32.1486 43.7265 32.1975C43.7171 32.2065 43.7083 32.2161 43.6989 32.2252C43.6578 32.2657 43.6175 32.307 43.5782 32.3492C43.5616 32.3671 43.5455 32.3854 43.5292 32.4035C43.4976 32.4387 43.4666 32.4744 43.4363 32.5107C43.4197 32.5305 43.4034 32.5505 43.3871 32.5706C43.3568 32.6085 43.3273 32.6471 43.2983 32.6861C43.2885 32.6993 43.2779 32.7118 43.2683 32.7251C43.1605 32.5774 43.0416 32.4361 42.9123 32.3019C42.1522 31.5132 41.1305 31.0788 40.0351 31.0788H39.9644C38.869 31.0788 37.8472 31.5132 37.0872 32.3019C36.9578 32.4362 36.8391 32.5775 36.7311 32.7252C36.7219 32.7124 36.7117 32.7004 36.7023 32.6877C36.6727 32.6479 36.6426 32.6085 36.6116 32.5699C36.596 32.5503 36.58 32.531 36.564 32.5118C36.533 32.4747 36.5012 32.4382 36.4689 32.4021C36.4533 32.3848 36.4378 32.3671 36.4219 32.35C36.3814 32.3065 36.3398 32.2639 36.2975 32.2223C36.2893 32.2142 36.2816 32.2059 36.2735 32.198C36.2227 32.1489 36.1705 32.1013 36.1171 32.055C36.102 32.0418 36.0862 32.0293 36.0709 32.0163C36.0319 31.9834 35.9924 31.9511 35.952 31.9197C35.9323 31.9044 35.9123 31.8893 35.8923 31.8744C35.8541 31.8459 35.8155 31.8181 35.7763 31.7908C35.7561 31.7768 35.736 31.7627 35.7155 31.749C35.6706 31.719 35.625 31.6903 35.5789 31.6622C35.5641 31.6531 35.5497 31.6436 35.5347 31.6347C35.4737 31.5986 35.4117 31.564 35.3487 31.5311C35.3333 31.5231 35.3175 31.5158 35.302 31.508C35.2536 31.4835 35.2047 31.4597 35.1552 31.4372C35.1325 31.4268 35.1096 31.4171 35.0866 31.4072C35.0424 31.3881 34.9979 31.3698 34.9529 31.3523C34.929 31.3429 34.9051 31.3337 34.8811 31.3249C34.8326 31.3071 34.7836 31.2904 34.7342 31.2745C34.7142 31.268 34.6945 31.2611 34.6743 31.2549C34.605 31.2337 34.5351 31.2141 34.4644 31.1966C34.4528 31.1937 34.4409 31.1915 34.4293 31.1888C34.3697 31.1746 34.3096 31.1617 34.2489 31.1501C34.2248 31.1455 34.2003 31.1416 34.1759 31.1375C34.1264 31.1291 34.0766 31.1213 34.0264 31.1147C34.0001 31.1113 33.9737 31.1079 33.9473 31.105C33.8957 31.0992 33.8438 31.0946 33.7917 31.0909C33.768 31.0891 33.7445 31.087 33.7207 31.0857C33.6453 31.0815 33.5694 31.0788 33.4928 31.0788H33.4399C33.3693 31.0788 33.2989 31.0807 33.2287 31.0844C33.1883 31.0865 33.1482 31.0906 33.108 31.094C33.0785 31.0964 33.049 31.098 33.0196 31.1011C32.9648 31.1069 32.9103 31.1147 32.856 31.1229C32.8416 31.125 32.8271 31.1263 32.8126 31.1286C32.7486 31.1388 32.685 31.151 32.6216 31.1642C32.6171 31.1651 32.6127 31.1657 32.6082 31.1667C32.5418 31.1808 32.476 31.1969 32.4106 31.2144C32.4091 31.2148 32.4077 31.215 32.4063 31.2154C32.2063 31.269 32.011 31.3382 31.8222 31.4219C31.8216 31.4221 31.8211 31.4224 31.8205 31.4226C31.7599 31.4494 31.7001 31.4779 31.641 31.5078C31.6384 31.5091 31.6356 31.5103 31.633 31.5116C31.5759 31.5406 31.5196 31.5713 31.464 31.6028C31.4594 31.6055 31.4547 31.6077 31.4502 31.6104C31.3969 31.6409 31.3444 31.6732 31.2926 31.7062C31.2858 31.7105 31.2789 31.7144 31.2723 31.7186C31.2227 31.7506 31.1741 31.7843 31.1259 31.8186C31.1174 31.8247 31.1086 31.8302 31.1001 31.8363C31.0542 31.8694 31.0093 31.9042 30.9648 31.9393C30.9545 31.9474 30.944 31.955 30.9337 31.9632C30.8906 31.9979 30.8485 32.0343 30.8067 32.0708C30.7959 32.0803 30.7847 32.0892 30.7741 32.0988C30.7698 32.1025 30.7653 32.106 30.7612 32.1098C30.7245 32.143 30.6892 32.1777 30.6536 32.2122C30.643 32.2226 30.6319 32.2325 30.6213 32.243C30.5814 32.2827 30.5428 32.3238 30.5045 32.3653C30.4962 32.3743 30.4874 32.3827 30.4791 32.3919C30.4782 32.3929 30.4773 32.394 30.4764 32.395C30.4718 32.4 30.467 32.4047 30.4625 32.4098C30.4141 32.4638 30.3674 32.5191 30.3223 32.5754C30.3082 32.5931 30.2952 32.6114 30.2814 32.6292C30.2513 32.6681 30.2211 32.7069 30.1925 32.7468C30.1909 32.7491 30.1891 32.7512 30.1874 32.7535C30.1419 32.6899 30.0947 32.6275 30.0458 32.5668C30.0112 32.5239 29.9748 32.4827 29.9385 32.4413C29.9234 32.4241 29.9092 32.406 29.8937 32.3889C29.1597 31.5799 28.1008 31.0787 26.9331 31.0787C26.8637 31.0787 26.7948 31.0808 26.7262 31.0844C26.7026 31.0856 26.6793 31.0877 26.6557 31.0893C26.611 31.0924 26.5664 31.0958 26.5221 31.1004C26.4934 31.1034 26.4648 31.107 26.436 31.1106C26.3979 31.1153 26.36 31.1205 26.3221 31.1263C26.2903 31.1312 26.2586 31.1364 26.227 31.1421C26.1937 31.148 26.1607 31.1546 26.1276 31.1614C26.0929 31.1686 26.0583 31.1756 26.0239 31.1836C25.998 31.1897 25.9723 31.1966 25.9466 31.2031C25.7946 31.2417 25.6454 31.2889 25.4996 31.3449C25.4937 31.3471 25.4878 31.3491 25.482 31.3515C25.4326 31.3708 25.3837 31.3914 25.3351 31.4126C25.3257 31.4167 25.3163 31.4207 25.307 31.4249C25.2582 31.4466 25.2101 31.4693 25.1622 31.493C25.1553 31.4964 25.1485 31.4999 25.1416 31.5033C24.9356 31.6067 24.7386 31.7278 24.5526 31.866C24.5472 31.8701 24.5415 31.874 24.536 31.8781C24.4985 31.9062 24.4618 31.9354 24.4253 31.9648C24.4089 31.978 24.3927 31.9911 24.3765 32.0046C24.3454 32.0307 24.3144 32.0571 24.2839 32.0841C24.2763 32.0909 24.2685 32.0971 24.2609 32.104C24.1745 32.024 24.0698 31.9644 23.9542 31.9311C23.4499 31.786 23.2725 31.3361 23.3206 30.9547C23.3479 30.738 23.4942 30.2318 24.2621 30.209C24.3038 30.2078 24.3458 30.2072 24.3883 30.2076C24.4708 30.208 24.5597 30.2122 24.66 30.2206C24.9304 30.244 25.1931 30.1197 25.3485 29.8968C25.5039 29.6739 25.5289 29.385 25.4141 29.1387C25.2456 28.7774 25.1615 28.3946 25.1642 28.0008C25.1746 26.4128 26.6068 25.1288 28.3502 25.1387C28.4333 25.1391 28.5222 25.1435 28.6222 25.1517C28.893 25.1748 29.1554 25.0508 29.3107 24.8279C29.466 24.605 29.491 24.3161 29.3763 24.0699C29.2078 23.7086 29.1237 23.3258 29.1263 22.932C29.1368 21.35 30.555 20.0699 32.2923 20.0699C32.2989 20.0699 32.3057 20.0699 32.3123 20.0699C32.4458 20.0706 32.586 20.0801 32.7292 20.0981C32.9466 20.1254 33.1655 20.0576 33.3297 19.9122C33.4938 19.7667 33.5873 19.5576 33.5862 19.3382L33.5856 19.3096C33.5987 17.8593 34.9022 16.6868 36.4984 16.6868C36.5044 16.6868 36.5107 16.6868 36.5168 16.6868C36.793 16.6884 37.0683 16.7259 37.3351 16.7984C37.6391 16.8807 37.963 16.7678 38.1495 16.5136C38.5591 15.9551 39.2157 15.5983 39.951 15.5348C39.9644 15.5337 39.9776 15.5322 39.9907 15.5303C39.9966 15.5304 40.0023 15.5304 40.0082 15.5303C40.0213 15.5322 40.0345 15.5337 40.0479 15.5348C40.7832 15.5983 41.4399 15.9551 41.8495 16.5137C42.0361 16.7679 42.36 16.8812 42.6639 16.7984C42.9306 16.7259 43.2058 16.6884 43.482 16.6868C45.0877 16.6775 46.3987 17.8524 46.4132 19.3071L46.4126 19.3346C46.4105 19.5546 46.5036 19.7646 46.6677 19.9109C46.8319 20.0572 47.0509 20.1256 47.2696 20.0981C47.4148 20.0799 47.551 20.0706 47.6863 20.0699C47.6929 20.0699 47.6996 20.0699 47.7063 20.0699C49.4434 20.0699 50.862 21.3501 50.8724 22.932C50.875 23.3258 50.7909 23.7086 50.6225 24.0699C50.5075 24.3162 50.5326 24.6051 50.688 24.8279C50.8434 25.0509 51.1051 25.1746 51.3765 25.1517C51.4764 25.1434 51.5654 25.1391 51.6484 25.1387C53.3968 25.1259 54.8241 26.4127 54.8345 28.0007C54.837 28.3945 54.7529 28.7774 54.5844 29.1387C54.5375 29.2396 54.513 29.3495 54.513 29.4608C54.513 29.8817 54.8544 30.2231 55.2754 30.2231C55.2964 30.2231 55.3175 30.2222 55.3385 30.2205C55.439 30.2121 55.5277 30.2079 55.6105 30.2075C55.6529 30.2073 55.6947 30.2078 55.7363 30.2089C56.5043 30.2319 56.6505 30.738 56.6778 30.9546C56.7266 31.3353 56.5493 31.7851 56.0449 31.9303Z" fill="white"/>
</g>
<defs>
<clipPath id="clip0">
<rect width="52" height="52" fill="white" transform="translate(14 14)"/>
</clipPath>
</defs>
</svg>
