<svg width="80" height="80" viewBox="0 0 80 80" fill="none" xmlns="http://www.w3.org/2000/svg">
<rect width="80" height="80" rx="40" fill="#2ADAF8"/>
<path d="M66.824 49.9296L66.5765 49.5224C65.6438 47.9884 64.0923 46.9082 62.3199 46.5587L60.2971 46.16V35.9981H65.5319C66.6098 35.9981 67.4866 35.1291 67.4866 34.0609V18.9373C67.4866 17.869 66.6097 17 65.5319 17H50.2726C49.1947 17 48.318 17.8691 48.318 18.9373V24.6742C48.318 25.103 48.6687 25.4508 49.1015 25.4508C49.5343 25.4508 49.885 25.103 49.885 24.6742V18.9373C49.885 18.7254 50.0589 18.553 50.2727 18.553H65.5321C65.7459 18.553 65.9198 18.7254 65.9198 18.9373V34.061C65.9198 34.2729 65.7459 34.4452 65.5321 34.4452H50.2726C50.0588 34.4452 49.8849 34.2729 49.8849 34.061V29.7226C49.8849 29.2938 49.5342 28.946 49.1014 28.946C48.6686 28.946 48.3179 29.2938 48.3179 29.7226V34.061C48.3179 35.1293 49.1947 35.9983 50.2725 35.9983H56.2087V45.3544L55.1689 45.1495C53.7337 44.8666 52.3346 44.0081 51.4069 43.3869L46.2244 39.9171C44.2527 38.597 41.9529 37.8992 39.5735 37.8992H30.0614C26.8962 37.8992 23.9181 39.1186 21.6759 41.3325C20.2571 42.7335 18.4711 43.6891 16.511 44.096L15.3861 44.3294C13.7138 44.6765 12.5 46.1577 12.5 47.8511V55.3719C12.5 56.269 13.0344 57.0842 13.8617 57.4485L16.9825 58.8232C17.1712 59.8013 17.6467 60.7354 18.4091 61.4911C19.4225 62.4953 20.7535 62.9976 22.0847 62.9976C23.4158 62.9976 24.7468 62.4953 25.7602 61.4911C26.4119 60.8451 26.8528 60.0687 27.0854 59.246H53.1067C53.3393 60.0687 53.7802 60.8451 54.432 61.4911C55.4138 62.464 56.719 63 58.1075 63C59.4959 63 60.8013 62.4642 61.7831 61.4911C62.4349 60.8451 62.8757 60.0687 63.1083 59.246H64.5947C66.1967 59.246 67.5 57.9542 67.5 56.3665V52.3387C67.4998 51.4897 67.266 50.6567 66.824 49.9296ZM57.7758 35.9981H58.7301V45.8512L57.7758 45.663V35.9981ZM24.6521 60.393C23.9663 61.0726 23.0545 61.447 22.0846 61.447C21.1147 61.447 20.2029 61.0726 19.5171 60.393C18.417 59.3026 18.1723 57.6813 18.7818 56.3541C18.7867 56.3434 18.7915 56.3327 18.7964 56.322C18.815 56.2826 18.8346 56.2437 18.8547 56.2049C18.8642 56.1866 18.8736 56.1684 18.8835 56.1503C18.9017 56.1166 18.9206 56.0832 18.9399 56.05C18.9532 56.0271 18.9669 56.0044 18.9807 55.9819C18.9987 55.9526 19.0168 55.9234 19.0357 55.8946C19.0528 55.8685 19.0704 55.8427 19.0883 55.817C19.1059 55.7916 19.1234 55.766 19.1417 55.741C19.1626 55.7124 19.1844 55.6843 19.2063 55.6562C19.2234 55.6342 19.2401 55.6121 19.2577 55.5905C19.2834 55.5589 19.3104 55.528 19.3373 55.4971C19.3526 55.4795 19.3673 55.4616 19.383 55.4442C19.423 55.4002 19.4641 55.3571 19.5065 55.3148C19.5101 55.3112 19.5134 55.3074 19.5171 55.3038C19.5251 55.2958 19.5336 55.2883 19.5418 55.2805C19.5777 55.2455 19.6138 55.211 19.6506 55.1779C19.6602 55.1693 19.6703 55.1613 19.6799 55.1528C19.7167 55.1205 19.7536 55.0885 19.7914 55.0579C19.795 55.0551 19.7987 55.0524 19.8023 55.0495C21.1303 53.9843 23.0458 53.9856 24.3722 55.0538C24.3737 55.0551 24.3753 55.0561 24.3769 55.0574C24.4174 55.0901 24.4571 55.1244 24.4965 55.1591C24.5036 55.1653 24.5109 55.1711 24.5179 55.1774C24.5634 55.2182 24.6081 55.2602 24.6519 55.3037C24.6992 55.3505 24.7448 55.3987 24.789 55.4476C24.8085 55.4691 24.8268 55.4911 24.8456 55.513C24.8686 55.5396 24.8917 55.5663 24.9138 55.5935C24.9387 55.624 24.9626 55.6551 24.9862 55.6862C24.9996 55.7035 25.0128 55.721 25.0257 55.7386C25.0543 55.7778 25.0823 55.8174 25.1092 55.8575C25.1139 55.8643 25.1184 55.8712 25.1229 55.878C26.0446 57.2733 25.8877 59.1682 24.6521 60.393ZM60.6749 60.393C59.989 61.0726 59.0772 61.447 58.1073 61.447C57.1374 61.447 56.2257 61.0726 55.5399 60.393C54.304 59.1682 54.1472 57.273 55.069 55.8778C55.0734 55.8711 55.0778 55.8644 55.0823 55.8578C55.1093 55.8176 55.1373 55.7779 55.1661 55.7385C55.1789 55.721 55.192 55.7038 55.2052 55.6866C55.2289 55.6553 55.253 55.6241 55.278 55.5934C55.3 55.5664 55.3228 55.54 55.3457 55.5136C55.3647 55.4916 55.3833 55.4692 55.4029 55.4476C55.4472 55.3987 55.4928 55.3506 55.54 55.3038C56.2258 54.6241 57.1375 54.2498 58.1074 54.2498C59.0773 54.2498 59.9891 54.6241 60.6749 55.3038C60.7221 55.3506 60.7677 55.3988 60.8119 55.4477C60.8315 55.4692 60.8499 55.4914 60.8688 55.5133C60.8918 55.5398 60.9147 55.5664 60.9368 55.5935C60.9617 55.6241 60.9856 55.6552 61.0094 55.6864C61.0226 55.7038 61.0358 55.7211 61.0487 55.7387C61.0774 55.778 61.1054 55.8175 61.1323 55.8576C61.1369 55.8644 61.1414 55.8712 61.1459 55.878C62.0674 57.2732 61.9105 59.1683 60.6749 60.393ZM65.933 56.3665H65.9328C65.9328 57.0979 65.3324 57.693 64.5945 57.693H63.3045C63.2738 56.5667 62.8727 55.4921 62.1508 54.6111C62.146 54.6051 62.1414 54.599 62.1364 54.593C62.0918 54.539 62.0455 54.4861 61.9984 54.4335C61.9864 54.4201 61.975 54.4063 61.9629 54.3928C61.913 54.3384 61.8614 54.2851 61.809 54.2325C61.8001 54.2236 61.7919 54.2142 61.7829 54.2054C61.1079 53.5364 60.28 53.074 59.3773 52.8505C58.967 52.7488 58.5413 52.6965 58.1073 52.6965C57.7602 52.6965 57.4183 52.7301 57.0853 52.7954C56.0864 52.9917 55.1681 53.4756 54.4317 54.2054C54.4229 54.2141 54.4149 54.2232 54.4062 54.2321C54.3535 54.285 54.3018 54.3384 54.2518 54.3931C54.24 54.4059 54.229 54.4194 54.2174 54.4323C54.17 54.4854 54.1231 54.5388 54.0781 54.5933C54.0736 54.5988 54.0694 54.6044 54.0649 54.6099C53.3425 55.491 52.941 56.5662 52.9101 57.6931H27.2817C27.2509 56.5649 26.8485 55.4884 26.1243 54.6065C26.1209 54.6024 26.1177 54.5982 26.1144 54.5941C26.0671 54.5368 26.018 54.4807 25.9681 54.4251C25.9588 54.4149 25.9502 54.4043 25.9409 54.3941C25.8823 54.3301 25.8222 54.2671 25.76 54.2055C25.5067 53.9544 25.2334 53.7347 24.9454 53.5463C24.0811 52.9814 23.0828 52.699 22.0846 52.699C20.7535 52.699 19.4223 53.2012 18.409 54.2055C18.3511 54.2629 18.2952 54.3217 18.2404 54.3813C18.2242 54.399 18.2086 54.417 18.1926 54.4348C18.1539 54.4781 18.1159 54.5219 18.0788 54.5662C18.0624 54.5859 18.046 54.6057 18.0298 54.6257C17.9915 54.6731 17.9541 54.721 17.9176 54.7694C17.9062 54.7845 17.8945 54.7993 17.8834 54.8146C17.7852 54.9477 17.6941 55.0851 17.6099 55.2259C17.6076 55.2299 17.6053 55.2339 17.6029 55.2379C17.5618 55.3072 17.5224 55.3774 17.4847 55.4485C17.4836 55.4505 17.4825 55.4526 17.4813 55.4546C17.2082 55.9698 17.0245 56.5271 16.9403 57.1051L14.4983 56.0293C14.2364 55.9139 14.0672 55.6559 14.0672 55.3719V47.8511C14.0672 46.8886 14.7571 46.0467 15.7077 45.8494L16.8326 45.6159C19.0906 45.1471 21.148 44.0464 22.7823 42.4326C24.7288 40.5106 27.314 39.4521 30.0617 39.4521H39.5739C41.6395 39.4521 43.6359 40.0579 45.3475 41.2038L50.53 44.6737C51.5699 45.37 53.1506 46.3348 54.8635 46.6726L62.0145 48.082C63.3554 48.3463 64.5289 49.1634 65.2346 50.3239L65.4821 50.731C65.7772 51.2162 65.933 51.7722 65.933 52.3387V56.3665Z" fill="white"/>
</svg>
