<svg width="28" height="29" viewBox="0 0 28 29" fill="none" xmlns="http://www.w3.org/2000/svg">
<g clip-path="url(#clip0)">
<path fill-rule="evenodd" clip-rule="evenodd" d="M3.5 0.5H24.5C26.4303 0.5 28 2.06975 28 4V25C28 26.9303 26.4303 28.5 24.5 28.5H19.25V18.875H21.875L23.625 14.5H19.25V11C19.25 10.1121 19.9124 10.1172 20.7697 10.1238C20.845 10.1244 20.9219 10.125 21 10.125H22.75V5.75H19.25C16.3503 5.75 14 8.10025 14 11V14.5H10.5V18.875H14V28.5H3.5C1.56975 28.5 0 26.9303 0 25V4C0 2.06975 1.56975 0.5 3.5 0.5Z" fill="white"/>
</g>
<defs>
<clipPath id="clip0">
<rect width="28" height="28" fill="white" transform="translate(0 0.5)"/>
</clipPath>
</defs>
</svg>
