<svg width="80" height="81" viewBox="0 0 80 81" fill="none" xmlns="http://www.w3.org/2000/svg">
<rect y="0.5" width="80" height="80" rx="40" fill="#00D616"/>
<path d="M61.0462 31.731H48.7692V19.454C48.7692 18.4797 47.9898 17.7002 47.0154 17.7002H32.9846C32.0102 17.7002 31.2307 18.4797 31.2307 19.454V31.731H18.9538C17.9794 31.731 17.2 32.5105 17.2 33.4848V47.5156C17.2 48.49 17.9794 49.2695 18.9538 49.2695H31.2307V61.5464C31.2307 62.5208 32.0102 63.3003 32.9846 63.3003H47.0154C47.9898 63.3003 48.7692 62.5208 48.7692 61.5464V49.2695H61.0462C62.0206 49.2695 62.8 48.49 62.8 47.5156V33.4848C62.7026 32.5105 61.9231 31.731 61.0462 31.731ZM59.3898 45.7618H59.2923H47.0154C46.041 45.7618 45.2615 46.5413 45.2615 47.5156V59.7926H34.7384V47.5156C34.7384 46.5413 33.959 45.7618 32.9846 45.7618H20.7077V35.2387H32.9846C33.959 35.2387 34.7384 34.4592 34.7384 33.4848V21.2079H45.359V33.4848C45.359 34.4592 46.1385 35.2387 47.1128 35.2387H59.3898V45.7618Z" fill="white"/>
</svg>
