<svg width="80" height="81" viewBox="0 0 80 81" fill="none" xmlns="http://www.w3.org/2000/svg">
<rect y="0.5" width="80" height="80" rx="40" fill="#913BFF"/>
<g clip-path="url(#clip0)">
<path d="M62.1125 53.4626C62.5336 53.4626 62.875 53.1212 62.875 52.7001V51.9376C62.8603 40.1955 53.9693 30.3659 42.2875 29.177V27.5376H46.1C46.5211 27.5376 46.8625 27.1962 46.8625 26.7751C46.8625 22.985 43.7901 19.9126 40 19.9126C36.21 19.9126 33.1375 22.985 33.1375 26.7751C33.1375 27.1962 33.4789 27.5376 33.9 27.5376H37.7125V29.177C26.0307 30.3659 17.1397 40.1955 17.125 51.9376V52.7001C17.125 53.1212 17.4664 53.4626 17.8875 53.4626H20.175V54.9876C18.4905 54.9876 17.125 56.3531 17.125 58.0376C17.125 59.7221 18.4905 61.0876 20.175 61.0876H59.825C61.5095 61.0876 62.875 59.7221 62.875 58.0376C62.875 56.3531 61.5095 54.9876 59.825 54.9876V53.4626H62.1125ZM34.7166 26.0126C35.1354 23.0947 37.8403 21.0687 40.7583 21.4875C43.1039 21.8242 44.9467 23.667 45.2834 26.0126H34.7166ZM40.7625 27.5376V29.0626H39.2375V27.5376H40.7625ZM61.35 58.0376C61.35 58.8799 60.6673 59.5626 59.825 59.5626H20.175C19.3327 59.5626 18.65 58.8799 18.65 58.0376C18.65 57.1953 19.3327 56.5126 20.175 56.5126H59.825C60.6673 56.5126 61.35 57.1953 61.35 58.0376ZM21.7 54.9876V53.4626H58.3V54.9876H21.7ZM18.65 51.9376C18.65 40.1463 28.2087 30.5876 40 30.5876C51.7913 30.5876 61.35 40.1463 61.35 51.9376H18.65Z" fill="white"/>
</g>
<defs>
<clipPath id="clip0">
<rect width="45.75" height="45.75" fill="white" transform="translate(17.125 17.625)"/>
</clipPath>
</defs>
</svg>
