<svg width="60" height="61" viewBox="0 0 60 61" fill="none" xmlns="http://www.w3.org/2000/svg">
<rect x="0.000244141" y="0.30127" width="60" height="60" rx="6.00601" fill="#F5F4F9"/>
<g clip-path="url(#clip0_875_65)">
<path d="M27.5325 10L27.724 9.67086C27.6286 9.61533 27.5138 9.60396 27.4093 9.63968C27.3048 9.6754 27.221 9.7547 27.1796 9.85703L27.5325 10ZM22.763 21.7744L22.41 21.6314C22.3916 21.6768 22.3822 21.7254 22.3822 21.7744H22.763ZM22.763 41.5385H22.3822C22.3822 41.674 22.4542 41.7994 22.5714 41.8676L22.763 41.5385ZM31.4349 46.5846L31.2433 46.9138C31.3564 46.9795 31.4952 46.9827 31.6111 46.9222L31.4349 46.5846ZM34.2532 45.1128L34.4295 45.4504C34.5552 45.3847 34.634 45.2546 34.634 45.1128H34.2532ZM34.2532 27.0308L33.8954 26.9005C33.8802 26.9423 33.8724 26.9864 33.8724 27.0308H34.2532ZM38.1556 16.3077L38.5134 16.4379C38.5742 16.271 38.5115 16.0843 38.3624 15.9879L38.1556 16.3077ZM36.2044 15.0462L36.4112 14.7264C36.4062 14.7231 36.4011 14.72 36.3959 14.717L36.2044 15.0462ZM31.4349 27.0308L31.0811 26.89C31.0632 26.9348 31.0541 26.9825 31.0541 27.0308H31.4349ZM25.1155 25.2259C24.9316 25.124 24.6998 25.1904 24.5979 25.3744C24.4959 25.5583 24.5624 25.7901 24.7463 25.8921L25.1155 25.2259ZM29.2991 28.4151C29.4831 28.5171 29.7148 28.4506 29.8168 28.2666C29.9187 28.0827 29.8522 27.8509 29.6683 27.749L29.2991 28.4151ZM19.0774 41.5385L18.9035 41.1997C18.7764 41.2649 18.6966 41.3957 18.6966 41.5385H19.0774ZM42.2748 43.0103H42.6556C42.6556 42.8726 42.5813 42.7456 42.4612 42.6782L42.2748 43.0103ZM19.0774 44.0615H18.6966C18.6966 44.1992 18.7709 44.3262 18.891 44.3936L19.0774 44.0615ZM31.4349 51L31.2484 51.332C31.359 51.3941 31.4932 51.3971 31.6063 51.34L31.4349 51ZM42.2748 45.5333L42.4462 45.8733C42.5746 45.8086 42.6556 45.6771 42.6556 45.5333H42.2748ZM27.1796 9.85703L22.41 21.6314L23.1159 21.9173L27.8855 10.143L27.1796 9.85703ZM22.3822 21.7744V41.5385H23.1438V21.7744H22.3822ZM22.5714 41.8676L31.2433 46.9138L31.6264 46.2555L22.9545 41.2093L22.5714 41.8676ZM31.6111 46.9222L34.4295 45.4504L34.077 44.7753L31.2586 46.2471L31.6111 46.9222ZM34.6111 27.161L38.5134 16.4379L37.7978 16.1775L33.8954 26.9005L34.6111 27.161ZM38.3624 15.9879L36.4112 14.7264L35.9977 15.3659L37.9488 16.6275L38.3624 15.9879ZM35.8506 14.9053L31.0811 26.89L31.7887 27.1716L36.5582 15.187L35.8506 14.9053ZM36.3959 14.717L27.724 9.67086L27.341 10.3291L36.0129 15.3753L36.3959 14.717ZM31.8157 46.5846V27.0308H31.0541V46.5846H31.8157ZM24.7463 25.8921L29.2991 28.4151L29.6683 27.749L25.1155 25.2259L24.7463 25.8921ZM18.891 41.8705L31.2484 48.809L31.6213 48.1449L19.2638 41.2064L18.891 41.8705ZM31.6063 48.8169L42.4462 43.3503L42.1033 42.6702L31.2634 48.1369L31.6063 48.8169ZM22.589 39.3074L18.9035 41.1997L19.2513 41.8772L22.9369 39.9849L22.589 39.3074ZM42.4612 42.6782L34.4397 38.1743L34.0668 38.8384L42.0883 43.3423L42.4612 42.6782ZM34.634 45.1128V38.5063H33.8724V45.1128H34.634ZM34.634 38.5063V27.0308H33.8724V38.5063H34.634ZM18.891 44.3936L31.2484 51.332L31.6213 50.668L19.2638 43.7295L18.891 44.3936ZM31.6063 51.34L42.4462 45.8733L42.1033 45.1933L31.2634 50.66L31.6063 51.34ZM18.6966 41.5385V44.0615H19.4582V41.5385H18.6966ZM31.0541 48.4769V51H31.8157V48.4769H31.0541ZM41.894 43.0103V45.5333H42.6556V43.0103H41.894Z" fill="#2F80ED"/>
<path d="M24.4968 22.1945L28.3992 12.3125L34.2527 15.6766L30.3504 25.3484L24.4968 22.1945Z" stroke="#15AE00" stroke-width="0.76161" stroke-linejoin="round"/>
</g>
<defs>
<clipPath id="clip0_875_65">
<rect width="40" height="42" fill="white" transform="translate(10.0002 9.30127)"/>
</clipPath>
</defs>
</svg>
