<svg width="223" height="46" viewBox="0 0 223 46" fill="none" xmlns="http://www.w3.org/2000/svg">
<path d="M10.1278 3.09091H8.1622V10.527H8.06632L2.93137 3.09091H1.16291V14H3.13912V6.56925H3.22967L8.36994 14H10.1278V3.09091ZM21.1578 3.09091V10.0529C21.1578 11.4219 20.2044 12.402 18.7076 12.402C17.2054 12.402 16.2573 11.4219 16.2573 10.0529V3.09091H14.2811V10.218C14.2811 12.5618 16.0389 14.1651 18.7076 14.1651C21.3656 14.1651 23.1341 12.5618 23.1341 10.218V3.09091H21.1578ZM27.282 14H34.4198V12.3434H29.2583V9.36577H34.0097V7.70916H29.2583V4.74751H34.3772V3.09091H27.282V14ZM39.8529 3.09091H37.6849L41.5255 14H43.9651L47.811 3.09091H45.6377L42.8039 11.6776H42.692L39.8529 3.09091ZM60.4098 8.54545C60.4098 5.01918 58.2578 2.94176 55.3974 2.94176C52.5316 2.94176 50.3849 5.01918 50.3849 8.54545C50.3849 12.0664 52.5316 14.1491 55.3974 14.1491C58.2578 14.1491 60.4098 12.0717 60.4098 8.54545ZM58.4229 8.54545C58.4229 11.0277 57.1765 12.3754 55.3974 12.3754C53.6236 12.3754 52.3718 11.0277 52.3718 8.54545C52.3718 6.06321 53.6236 4.71555 55.3974 4.71555C57.1765 4.71555 58.4229 6.06321 58.4229 8.54545ZM70.2068 6.08984H72.1084C72.0711 4.2468 70.4997 2.94176 68.1773 2.94176C65.8868 2.94176 64.1663 4.23082 64.1716 6.15909C64.1716 7.72514 65.2849 8.62536 67.08 9.08878L68.3211 9.40838C69.4983 9.70668 70.276 10.0742 70.2813 10.9212C70.276 11.8533 69.3918 12.4766 68.1027 12.4766C66.8669 12.4766 65.9081 11.9226 65.8282 10.7773H63.884C63.9639 12.9453 65.5779 14.1651 68.1187 14.1651C70.7341 14.1651 72.2522 12.8601 72.2575 10.9371C72.2522 9.04616 70.6915 8.18324 69.0509 7.79439L68.0281 7.53871C67.1333 7.32564 66.1638 6.94744 66.1744 6.03658C66.1798 5.21626 66.9149 4.61435 68.1507 4.61435C69.3279 4.61435 70.1056 5.163 70.2068 6.08984ZM81.7401 14H88.521V12.3434H83.7163V3.09091H81.7401V14ZM94.0472 14L94.9474 11.31H99.049L99.9545 14H102.064L98.218 3.09091H95.7784L91.9379 14H94.0472ZM95.4801 9.72266L96.9556 5.32812H97.0408L98.5163 9.72266H95.4801ZM114.466 3.09091H112.5V10.527H112.404L107.269 3.09091H105.501V14H107.477V6.56925H107.568L112.708 14H114.466V3.09091ZM118.417 14H126.492V12.3434H120.872L126.46 4.32138V3.09091H118.385V4.74751H124.01L118.417 12.7695V14ZM131.805 14L132.705 11.31H136.807L137.712 14H139.822L135.976 3.09091H133.536L129.696 14H131.805ZM133.238 9.72266L134.713 5.32812H134.799L136.274 9.72266H133.238ZM143.259 3.09091V14H145.155V6.48935H145.256L148.271 13.968H149.688L152.703 6.50533H152.804V14H154.7V3.09091H152.282L149.043 10.9957H148.916L145.677 3.09091H143.259ZM160.829 3.09091H158.852V14H160.829V3.09091ZM164.969 14H172.106V12.3434H166.945V9.36577H171.696V7.70916H166.945V4.74751H172.064V3.09091H164.969V14ZM185.045 3.09091H183.079V10.527H182.983L177.848 3.09091H176.08V14H178.056V6.56925H178.147L183.287 14H185.045V3.09091ZM188.719 4.74751H192.09V14H194.051V4.74751H197.422V3.09091H188.719V4.74751ZM210.38 8.54545C210.38 5.01918 208.228 2.94176 205.367 2.94176C202.501 2.94176 200.355 5.01918 200.355 8.54545C200.355 12.0664 202.501 14.1491 205.367 14.1491C208.228 14.1491 210.38 12.0717 210.38 8.54545ZM208.393 8.54545C208.393 11.0277 207.146 12.3754 205.367 12.3754C203.593 12.3754 202.342 11.0277 202.342 8.54545C202.342 6.06321 203.593 4.71555 205.367 4.71555C207.146 4.71555 208.393 6.06321 208.393 8.54545ZM220.176 6.08984H222.078C222.041 4.2468 220.469 2.94176 218.147 2.94176C215.857 2.94176 214.136 4.23082 214.141 6.15909C214.141 7.72514 215.255 8.62536 217.05 9.08878L218.291 9.40838C219.468 9.70668 220.246 10.0742 220.251 10.9212C220.246 11.8533 219.362 12.4766 218.072 12.4766C216.837 12.4766 215.878 11.9226 215.798 10.7773H213.854C213.934 12.9453 215.548 14.1651 218.088 14.1651C220.704 14.1651 222.222 12.8601 222.227 10.9371C222.222 9.04616 220.661 8.18324 219.021 7.79439L217.998 7.53871C217.103 7.32564 216.134 6.94744 216.144 6.03658C216.15 5.21626 216.885 4.61435 218.12 4.61435C219.298 4.61435 220.075 5.163 220.176 6.08984Z" fill="#32363F"/>
<path d="M83.8977 41H94.267V38.4858H88.1591V38.3864L90.2827 36.3054C93.2727 33.5781 94.0753 32.2145 94.0753 30.5597C94.0753 28.0384 92.0156 26.2557 88.8977 26.2557C85.8438 26.2557 83.7486 28.081 83.7557 30.9361H86.6747C86.6676 29.544 87.5483 28.6918 88.8764 28.6918C90.1548 28.6918 91.1065 29.4872 91.1065 30.7656C91.1065 31.9233 90.3963 32.7188 89.0753 33.9901L83.8977 38.7841V41ZM104.199 41.3196C107.856 41.3196 110.065 38.5355 110.072 33.7415C110.079 28.983 107.842 26.2557 104.199 26.2557C100.548 26.2557 98.332 28.9759 98.3249 33.7415C98.3107 38.5213 100.534 41.3125 104.199 41.3196ZM104.199 38.7699C102.529 38.7699 101.45 37.0938 101.457 33.7415C101.464 30.4389 102.537 28.777 104.199 28.777C105.853 28.777 106.933 30.4389 106.933 33.7415C106.94 37.0938 105.86 38.7699 104.199 38.7699ZM114.265 41H124.634V38.4858H118.526V38.3864L120.65 36.3054C123.64 33.5781 124.442 32.2145 124.442 30.5597C124.442 28.0384 122.383 26.2557 119.265 26.2557C116.211 26.2557 114.116 28.081 114.123 30.9361H117.042C117.035 29.544 117.915 28.6918 119.244 28.6918C120.522 28.6918 121.474 29.4872 121.474 30.7656C121.474 31.9233 120.763 32.7188 119.442 33.9901L114.265 38.7841V41ZM128.863 41H139.232V38.4858H133.124V38.3864L135.248 36.3054C138.238 33.5781 139.04 32.2145 139.04 30.5597C139.04 28.0384 136.98 26.2557 133.863 26.2557C130.809 26.2557 128.713 28.081 128.721 30.9361H131.64C131.632 29.544 132.513 28.6918 133.841 28.6918C135.12 28.6918 136.071 29.4872 136.071 30.7656C136.071 31.9233 135.361 32.7188 134.04 33.9901L128.863 38.7841V41Z" fill="#32363F"/>
</svg>
