<svg width="22" height="49" viewBox="0 0 22 49" fill="none" xmlns="http://www.w3.org/2000/svg">
<g clip-path="url(#clip0_7850_32980)">
<mask id="mask0_7850_32980" style="mask-type:luminance" maskUnits="userSpaceOnUse" x="0" y="0" width="22" height="49">
<path d="M0 0.5H22V48.02H0V0.5Z" fill="white"/>
</mask>
<g mask="url(#mask0_7850_32980)">
<path d="M3.77031 42.7272C4.19843 43.5935 4.7469 44.3905 5.39831 45.0929C5.60831 45.314 5.82331 45.5226 6.04431 45.7179C6.26131 45.9111 6.48931 46.0898 6.72731 46.2551C6.96031 46.4172 7.19531 46.5722 7.43331 46.7044C7.8979 46.9599 8.38598 47.1668 8.89031 47.3222C9.36631 47.4606 9.85531 47.5443 10.3493 47.5732C10.8184 47.5978 11.2886 47.5624 11.7493 47.4678C12.6447 47.2872 13.4815 46.8761 14.1823 46.2726C14.4189 46.0792 14.6372 45.863 14.8343 45.627V45.5123C14.6245 45.2401 14.3966 44.9832 14.1523 44.7437C12.9624 43.5264 11.524 42.5995 9.94231 42.0309C9.18748 41.7571 8.40107 41.5869 7.60331 41.5248C6.82803 41.4626 6.04834 41.5506 5.30431 41.784C4.75351 41.952 4.23845 42.2261 3.78631 42.5919L3.77031 42.7272ZM20.1643 34.4298C19.3114 34.7246 18.5139 35.1683 17.8063 35.7418C17.4681 36.0221 17.1582 36.3371 16.8813 36.6818C16.6043 37.0227 16.3663 37.3967 16.1713 37.7944C15.7731 38.5997 15.5668 39.4914 15.5693 40.3956C15.5713 40.6281 15.5843 40.8595 15.6093 41.0898C15.6393 41.3223 15.6813 41.5526 15.7373 41.7799C15.927 42.5661 16.2696 43.3043 16.7443 43.9493L16.8473 43.9731C17.1116 43.8245 17.3621 43.6509 17.5953 43.4545C18.1872 42.9689 18.7044 42.3935 19.1293 41.7479C19.5377 41.1264 19.8734 40.4572 20.1293 39.7541C20.2503 39.4173 20.3533 39.0733 20.4373 38.7252C20.5223 38.3895 20.5853 38.0486 20.6263 37.7035C20.6717 37.3748 20.6921 37.0428 20.6873 36.7108C20.6903 36.3905 20.6673 36.0713 20.6173 35.7562C20.5856 35.533 20.5398 35.3122 20.4803 35.0951C20.4265 34.875 20.3497 34.6617 20.2513 34.4587L20.1643 34.4298ZM0.659306 33.2315C0.919104 34.5094 1.42626 35.7199 2.15031 36.7903C2.78458 37.7366 3.60728 38.5319 4.56331 39.1229C4.99531 39.3853 5.45531 39.594 5.93431 39.7448C6.38531 39.8894 6.85331 39.9721 7.32431 39.9927C8.23839 40.0348 9.14756 39.8331 9.96431 39.407C10.2373 39.2737 10.4973 39.1147 10.7413 38.9297L10.7633 38.8171C10.6882 38.652 10.6061 38.4904 10.5173 38.3326L10.2673 37.9029C10.0406 37.5275 9.79525 37.1644 9.53231 36.8151C9.40227 36.6415 9.26515 36.4736 9.12131 36.312C8.84898 35.983 8.55708 35.6718 8.24731 35.3802C8.09231 35.2356 7.93831 35.0899 7.78531 34.9567C7.627 34.8185 7.46424 34.6858 7.29731 34.5589C7.13031 34.4329 6.96731 34.3079 6.79831 34.1912C6.46057 33.957 6.10925 33.7445 5.74631 33.5548C5.39292 33.3687 5.02697 33.2092 4.65131 33.0776C3.91665 32.813 3.14087 32.6914 2.36331 32.7191C1.78938 32.7366 1.22395 32.8671 0.697306 33.1034L0.657306 33.2325L0.659306 33.2315ZM18.5593 29.4908C17.6608 29.5561 16.7793 29.7764 15.9513 30.1427C15.5531 30.3215 15.1741 30.5427 14.8203 30.8028C14.4693 31.0611 14.1463 31.3565 13.8583 31.6871C13.5734 32.0206 13.3252 32.3858 13.1183 32.7759C12.9151 33.1745 12.7571 33.5961 12.6473 34.0321C12.5689 34.3688 12.517 34.7115 12.4923 35.0569C12.4853 35.1726 12.4843 35.2883 12.4853 35.406C12.4853 35.6436 12.5003 35.8823 12.5273 36.1188C12.5603 36.3585 12.6063 36.5971 12.6633 36.8316C12.6803 36.9039 12.6973 36.9783 12.7173 37.0517C12.7373 37.126 12.7623 37.1994 12.7873 37.2748C12.8383 37.4256 12.8973 37.5806 12.9703 37.7417L13.0643 37.7893C13.3544 37.7057 13.6366 37.595 13.9073 37.4587C14.5893 37.1226 15.2197 36.6848 15.7783 36.1591C16.0495 35.9075 16.3053 35.6387 16.5443 35.3544C16.8947 34.9429 17.2118 34.5024 17.4923 34.0373C17.5823 33.8875 17.6733 33.7356 17.7563 33.5827C17.9143 33.2852 18.0573 32.9804 18.1863 32.6674C18.2483 32.5135 18.3053 32.3617 18.3543 32.2098C18.3793 32.1334 18.4003 32.0569 18.4233 31.9825L18.4903 31.7522C18.5683 31.4536 18.6243 31.1499 18.6603 30.8431C18.6833 30.6199 18.6873 30.4082 18.6933 30.1923C18.6933 30.0859 18.6933 29.9795 18.6783 29.8679L18.6333 29.5373L18.5593 29.4908ZM0.0153059 23.1882C0.00530593 23.3597 0.00130593 23.5281 -0.000694073 23.6965C-0.00269407 23.8649 0.00630593 24.0322 0.0143059 24.1996C0.0333059 24.5322 0.0613059 24.8597 0.107306 25.181C0.152306 25.5012 0.221306 25.8173 0.295306 26.1241C0.333306 26.2791 0.371306 26.4299 0.416306 26.5787C0.551218 27.0146 0.713907 27.4408 0.903306 27.8545C1.02631 28.1231 1.17331 28.3762 1.31531 28.62C1.45831 28.8607 1.61531 29.0931 1.78431 29.3152C1.95431 29.527 2.12831 29.7388 2.31031 29.9278C2.48831 30.1158 2.67631 30.2925 2.87431 30.4578C3.06831 30.6168 3.27031 30.7635 3.48031 30.8989C3.88031 31.1592 4.31131 31.3637 4.76231 31.5115C5.63681 31.7943 6.56725 31.8388 7.46331 31.6406C7.76031 31.5827 8.05131 31.496 8.33231 31.3823L8.38031 31.2759C8.34734 31.0971 8.30664 30.92 8.25831 30.7449C8.21331 30.5807 8.17431 30.4164 8.12831 30.2604C8.06531 30.0487 7.99231 29.8369 7.92231 29.6241C7.85231 29.4123 7.77431 29.2119 7.68931 29.0105C7.20037 27.8199 6.5321 26.7167 5.70931 25.7419C5.43983 25.4296 5.15442 25.1323 4.85431 24.8514C4.55828 24.5765 4.2431 24.3245 3.91131 24.0973C3.26948 23.6448 2.55099 23.321 1.79331 23.1428C1.23463 23.0065 0.655815 22.9823 0.0883059 23.0715L0.0153059 23.1882ZM18.2443 24.339C17.3607 24.1627 16.4547 24.1418 15.5643 24.2771C15.1333 24.3432 14.7103 24.4568 14.3033 24.6149C13.9004 24.771 13.5152 24.9719 13.1543 25.214C12.7943 25.4558 12.4643 25.7409 12.1683 26.0611C12.0197 26.223 11.8823 26.3956 11.7573 26.5776C11.493 26.944 11.2768 27.3449 11.1143 27.7698C11.0273 27.9857 10.9543 28.2068 10.8973 28.433C10.8413 28.6634 10.7973 28.8958 10.7633 29.1303C10.7461 29.2495 10.7344 29.3694 10.7283 29.4898C10.7173 29.7651 10.7159 30.0408 10.7243 30.3162C10.7303 30.4764 10.7583 30.6344 10.7893 30.8131L10.8693 30.8834C11.1713 30.8751 11.4713 30.84 11.7663 30.777C13.2803 30.4867 14.6163 29.7026 15.6913 28.7832C15.9523 28.5528 16.2163 28.3101 16.4483 28.0611C16.5643 27.9371 16.6743 27.8111 16.7803 27.684C16.8863 27.557 16.9953 27.4278 17.0883 27.2966C17.1823 27.1665 17.2783 27.0353 17.3623 26.902C17.4463 26.7677 17.5363 26.6345 17.6123 26.4991C17.6877 26.3654 17.7564 26.2279 17.8183 26.0869C17.8863 25.9496 17.9463 25.808 17.9993 25.6634C18.0383 25.557 18.0693 25.4516 18.1023 25.3514C18.1365 25.2492 18.1675 25.1458 18.1953 25.0415C18.2224 24.9364 18.2438 24.8299 18.2593 24.7223C18.2753 24.6169 18.2943 24.5043 18.3023 24.3886L18.2443 24.339ZM1.81231 13.4528C1.45115 14.6708 1.32743 15.9506 1.44831 17.2183C1.49642 17.6586 1.57259 18.0951 1.67631 18.5251C1.71231 18.6645 1.75231 18.804 1.79431 18.9404C1.95331 19.4672 2.16731 19.9734 2.43431 20.4507C2.91277 21.329 3.59094 22.0739 4.41031 22.6211C5.18531 23.1273 6.07331 23.4165 6.98931 23.462C7.28931 23.4857 7.59231 23.4795 7.89231 23.4434L7.96431 23.3566C7.97031 23.2605 7.97431 23.1676 7.97531 23.0767C7.97631 22.9847 7.98231 22.8959 7.98331 22.8101C7.98331 22.6366 7.98331 22.4703 7.97331 22.307C7.97331 22.2017 7.96231 22.0839 7.95331 21.9734C7.94531 21.8628 7.94131 21.7533 7.93231 21.6428C7.91381 21.4236 7.88813 21.2052 7.85531 20.9878C7.7973 20.5587 7.71381 20.1337 7.60531 19.7151C7.50605 19.2989 7.38112 18.8897 7.23131 18.4899C6.95033 17.703 6.57687 16.9546 6.11931 16.2617C5.89438 15.9261 5.64711 15.6072 5.37931 15.3071C4.85959 14.7136 4.23685 14.2258 3.54331 13.8691C3.0321 13.6008 2.47694 13.4334 1.90631 13.3753L1.81231 13.4528ZM19.2323 19.1087C18.4179 18.7129 17.5427 18.4675 16.6463 18.3835C16.2107 18.3461 15.7725 18.3537 15.3383 18.4063C14.6944 18.4885 14.0676 18.6779 13.4823 18.9672C13.0922 19.1664 12.7246 19.4096 12.3863 19.6924C11.5959 20.3617 11.0022 21.2458 10.6723 22.2451C10.6323 22.3608 10.6023 22.4775 10.5683 22.5963C10.5066 22.8227 10.4585 23.0528 10.4243 23.2853C10.4113 23.368 10.4063 23.4537 10.4003 23.5415L10.4603 23.6304C10.7533 23.7058 11.0523 23.7533 11.3533 23.7729C12.1051 23.8291 12.8607 23.7713 13.5963 23.6014C14.3022 23.4425 14.9883 23.2009 15.6413 22.8814C16.2555 22.5879 16.8352 22.2229 17.3693 21.7936C17.8646 21.3996 18.2998 20.9308 18.6603 20.4031C18.9233 20.0302 19.1303 19.6191 19.2773 19.1841L19.2323 19.1087ZM5.55331 4.69055C4.97937 5.76653 4.61485 6.94817 4.48031 8.16881C4.35652 9.27592 4.45386 10.3975 4.76631 11.4642C4.91331 11.9497 5.11231 12.4177 5.35931 12.8588C5.59731 13.2772 5.88231 13.6646 6.20931 14.0138C6.84743 14.6895 7.64125 15.1868 8.51631 15.459C8.80331 15.5571 9.09831 15.6253 9.39631 15.6656L9.48631 15.5985C9.59331 15.2679 9.67731 14.9301 9.73731 14.5871C10.0733 12.9032 10.0273 11.1615 9.60331 9.49833C9.18231 7.89712 8.38931 6.43846 7.16531 5.46946C6.7166 5.1012 6.20752 4.81918 5.66231 4.63683L5.55331 4.69055ZM21.4693 13.9249C20.7535 13.3594 19.9434 12.934 19.0793 12.6698C18.2392 12.4159 17.3569 12.3466 16.4893 12.4663C15.4349 12.6113 14.4396 13.0542 13.6132 13.7461C12.7867 14.438 12.1611 15.3521 11.8053 16.3877L11.8433 16.4941C12.1093 16.6398 12.3883 16.7606 12.6763 16.8546C14.1333 17.3526 15.6823 17.3298 17.0613 17.0137C17.4013 16.9373 17.7373 16.8381 18.0663 16.7172C18.3883 16.6036 18.7013 16.4672 19.0043 16.3092C19.5898 16.0109 20.1285 15.6233 20.6023 15.1594C20.9503 14.8247 21.2503 14.4414 21.4953 14.021L21.4693 13.9249ZM17.6533 0.9375C15.4273 1.39927 13.5793 2.73913 12.5603 4.40233C12.3103 4.80212 12.1033 5.22876 11.9433 5.67401C11.7908 6.10687 11.6871 6.55646 11.6343 7.01386C11.5315 7.90916 11.6427 8.81685 11.9583 9.65742C12.0563 9.93841 12.1783 10.2091 12.3253 10.4673L12.4283 10.5014C12.7283 10.3919 13.0183 10.2587 13.2973 10.1027C14.6972 9.36672 15.8984 8.2834 16.7933 6.94981C17.6513 5.65644 18.1713 4.1575 18.0983 2.63169C18.0801 2.06495 17.9671 1.50574 17.7643 0.978822L17.6533 0.9375Z" fill="#EFE8FE"/>
</g>
</g>
<defs>
<clipPath id="clip0_7850_32980">
<rect width="22" height="48" fill="white" transform="translate(0 0.5)"/>
</clipPath>
</defs>
</svg>
