<svg width="22" height="49" viewBox="0 0 22 49" fill="none" xmlns="http://www.w3.org/2000/svg">
<mask id="mask0_7850_32990" style="mask-type:luminance" maskUnits="userSpaceOnUse" x="0" y="0" width="22" height="49">
<path d="M22 0.5H0V48.02H22V0.5Z" fill="white"/>
</mask>
<g mask="url(#mask0_7850_32990)">
<path d="M18.2297 42.7272C17.8016 43.5935 17.2531 44.3905 16.6017 45.0929C16.3917 45.314 16.1767 45.5226 15.9557 45.7179C15.7387 45.9111 15.5107 46.0898 15.2727 46.2551C15.0397 46.4172 14.8047 46.5722 14.5667 46.7044C14.1021 46.9599 13.614 47.1668 13.1097 47.3222C12.6337 47.4606 12.1447 47.5443 11.6507 47.5732C11.1816 47.5978 10.7114 47.5624 10.2507 47.4678C9.3553 47.2872 8.5185 46.8761 7.8177 46.2726C7.5811 46.0792 7.3628 45.863 7.1657 45.627V45.5123C7.3755 45.2401 7.6034 44.9832 7.8477 44.7437C9.0376 43.5264 10.476 42.5995 12.0577 42.0309C12.8125 41.7571 13.5989 41.5869 14.3967 41.5248C15.172 41.4626 15.9517 41.5506 16.6957 41.784C17.2465 41.952 17.7615 42.2261 18.2137 42.5919L18.2297 42.7272ZM1.8357 34.4298C2.6886 34.7246 3.4861 35.1683 4.1937 35.7418C4.5319 36.0221 4.8418 36.3371 5.1187 36.6818C5.3957 37.0227 5.6337 37.3967 5.8287 37.7944C6.2269 38.5997 6.4332 39.4914 6.4307 40.3956C6.4287 40.6281 6.4157 40.8595 6.3907 41.0898C6.3607 41.3223 6.3187 41.5526 6.2627 41.7799C6.073 42.5661 5.7304 43.3043 5.2557 43.9493L5.1527 43.9731C4.8884 43.8245 4.6379 43.6509 4.4047 43.4545C3.8128 42.9689 3.2956 42.3935 2.8707 41.7479C2.4623 41.1264 2.1266 40.4572 1.8707 39.7541C1.7497 39.4173 1.6467 39.0733 1.5627 38.7252C1.4777 38.3895 1.4147 38.0486 1.3737 37.7035C1.3283 37.3748 1.3079 37.0428 1.3127 36.7108C1.3097 36.3905 1.3327 36.0713 1.3827 35.7562C1.4144 35.533 1.4602 35.3122 1.5197 35.0951C1.5735 34.875 1.6503 34.6617 1.7487 34.4587L1.8357 34.4298ZM21.3407 33.2315C21.0809 34.5094 20.5737 35.7199 19.8497 36.7903C19.2154 37.7366 18.3927 38.5319 17.4367 39.1229C17.0047 39.3853 16.5447 39.594 16.0657 39.7448C15.6147 39.8894 15.1467 39.9721 14.6757 39.9927C13.7616 40.0348 12.8524 39.8331 12.0357 39.407C11.7627 39.2737 11.5027 39.1147 11.2587 38.9297L11.2367 38.8171C11.3118 38.652 11.3939 38.4904 11.4827 38.3326L11.7327 37.9029C11.9594 37.5275 12.2048 37.1644 12.4677 36.8151C12.5977 36.6415 12.7348 36.4736 12.8787 36.312C13.151 35.983 13.4429 35.6718 13.7527 35.3802C13.9077 35.2356 14.0617 35.0899 14.2147 34.9567C14.373 34.8185 14.5358 34.6858 14.7027 34.5589C14.8697 34.4329 15.0327 34.3079 15.2017 34.1912C15.5394 33.957 15.8907 33.7445 16.2537 33.5548C16.6071 33.3687 16.973 33.2092 17.3487 33.0776C18.0834 32.813 18.8591 32.6914 19.6367 32.7191C20.2106 32.7366 20.7761 32.8671 21.3027 33.1034L21.3427 33.2325L21.3407 33.2315ZM3.4407 29.4908C4.3392 29.5561 5.2207 29.7764 6.0487 30.1427C6.4469 30.3215 6.8259 30.5427 7.1797 30.8028C7.5307 31.0611 7.8537 31.3565 8.1417 31.6871C8.4266 32.0206 8.6748 32.3858 8.8817 32.7759C9.0849 33.1745 9.2429 33.5961 9.3527 34.0321C9.4311 34.3688 9.483 34.7115 9.5077 35.0569C9.5147 35.1726 9.5157 35.2883 9.5147 35.406C9.5147 35.6436 9.4997 35.8823 9.4727 36.1188C9.4397 36.3585 9.3937 36.5971 9.3367 36.8316C9.3197 36.9039 9.3027 36.9783 9.2827 37.0517C9.2627 37.126 9.2377 37.1994 9.2127 37.2748C9.1617 37.4256 9.1027 37.5806 9.0297 37.7417L8.9357 37.7893C8.6456 37.7057 8.3634 37.595 8.0927 37.4587C7.4107 37.1226 6.7803 36.6848 6.2217 36.1591C5.9505 35.9075 5.6947 35.6387 5.4557 35.3544C5.1053 34.9429 4.7882 34.5024 4.5077 34.0373C4.4177 33.8875 4.3267 33.7356 4.2437 33.5827C4.0857 33.2852 3.9427 32.9804 3.8137 32.6674C3.7517 32.5135 3.6947 32.3617 3.6457 32.2098C3.6207 32.1334 3.5997 32.0569 3.5767 31.9825L3.5097 31.7522C3.4317 31.4536 3.3757 31.1499 3.3397 30.8431C3.3167 30.6199 3.3127 30.4082 3.3067 30.1923C3.3067 30.0859 3.3067 29.9795 3.3217 29.8679L3.3667 29.5373L3.4407 29.4908ZM21.9847 23.1882C21.9947 23.3597 21.9987 23.5281 22.0007 23.6965C22.0027 23.8649 21.9937 24.0322 21.9857 24.1996C21.9667 24.5322 21.9387 24.8597 21.8927 25.181C21.8477 25.5012 21.7787 25.8173 21.7047 26.1241C21.6667 26.2791 21.6287 26.4299 21.5837 26.5787C21.4488 27.0146 21.2861 27.4408 21.0967 27.8545C20.9737 28.1231 20.8267 28.3762 20.6847 28.62C20.5417 28.8607 20.3847 29.0931 20.2157 29.3152C20.0457 29.527 19.8717 29.7388 19.6897 29.9278C19.5117 30.1158 19.3237 30.2925 19.1257 30.4578C18.9317 30.6168 18.7297 30.7635 18.5197 30.8989C18.1197 31.1592 17.6887 31.3637 17.2377 31.5115C16.3632 31.7943 15.4328 31.8388 14.5367 31.6406C14.2397 31.5827 13.9487 31.496 13.6677 31.3823L13.6197 31.2759C13.6527 31.0971 13.6934 30.92 13.7417 30.7449C13.7867 30.5807 13.8257 30.4164 13.8717 30.2604C13.9347 30.0487 14.0077 29.8369 14.0777 29.6241C14.1477 29.4123 14.2257 29.2119 14.3107 29.0105C14.7996 27.8199 15.4679 26.7167 16.2907 25.7419C16.5602 25.4296 16.8456 25.1323 17.1457 24.8514C17.4417 24.5765 17.7569 24.3245 18.0887 24.0973C18.7305 23.6448 19.449 23.321 20.2067 23.1428C20.7654 23.0065 21.3442 22.9823 21.9117 23.0715L21.9847 23.1882ZM3.7557 24.339C4.6393 24.1627 5.5453 24.1418 6.4357 24.2771C6.8667 24.3432 7.2897 24.4568 7.6967 24.6149C8.0996 24.771 8.4848 24.9719 8.8457 25.214C9.2057 25.4558 9.5357 25.7409 9.8317 26.0611C9.9803 26.223 10.1177 26.3956 10.2427 26.5776C10.507 26.944 10.7232 27.3449 10.8857 27.7698C10.9727 27.9857 11.0457 28.2068 11.1027 28.433C11.1587 28.6634 11.2027 28.8958 11.2367 29.1303C11.2539 29.2495 11.2656 29.3694 11.2717 29.4898C11.2827 29.7651 11.2841 30.0408 11.2757 30.3162C11.2697 30.4764 11.2417 30.6344 11.2107 30.8131L11.1307 30.8834C10.8287 30.8751 10.5287 30.84 10.2337 30.777C8.7197 30.4867 7.3837 29.7026 6.3087 28.7832C6.0477 28.5528 5.7837 28.3101 5.5517 28.0611C5.4357 27.9371 5.3257 27.8111 5.2197 27.684C5.1137 27.557 5.0047 27.4278 4.9117 27.2966C4.8177 27.1665 4.7217 27.0353 4.6377 26.902C4.5537 26.7677 4.4637 26.6345 4.3877 26.4991C4.3123 26.3654 4.2436 26.2279 4.1817 26.0869C4.1137 25.9496 4.0537 25.808 4.0007 25.6634C3.9617 25.557 3.9307 25.4516 3.8977 25.3514C3.8635 25.2492 3.8325 25.1458 3.8047 25.0415C3.7776 24.9364 3.7562 24.8299 3.7407 24.7223C3.7247 24.6169 3.7057 24.5043 3.6977 24.3886L3.7557 24.339ZM20.1877 13.4528C20.5489 14.6708 20.6726 15.9506 20.5517 17.2183C20.5036 17.6586 20.4274 18.0951 20.3237 18.5251C20.2877 18.6645 20.2477 18.804 20.2057 18.9404C20.0467 19.4672 19.8327 19.9734 19.5657 20.4507C19.0872 21.329 18.4091 22.0739 17.5897 22.6211C16.8147 23.1273 15.9267 23.4165 15.0107 23.462C14.7107 23.4857 14.4077 23.4795 14.1077 23.4434L14.0357 23.3566C14.0297 23.2605 14.0257 23.1676 14.0247 23.0767C14.0237 22.9847 14.0177 22.8959 14.0167 22.8101C14.0167 22.6366 14.0167 22.4703 14.0267 22.307C14.0267 22.2017 14.0377 22.0839 14.0467 21.9734C14.0547 21.8628 14.0587 21.7533 14.0677 21.6428C14.0862 21.4236 14.1119 21.2052 14.1447 20.9878C14.2027 20.5587 14.2862 20.1337 14.3947 19.7151C14.4939 19.2989 14.6189 18.8897 14.7687 18.4899C15.0497 17.703 15.4231 16.9546 15.8807 16.2617C16.1056 15.9261 16.3529 15.6072 16.6207 15.3071C17.1404 14.7136 17.7632 14.2258 18.4567 13.8691C18.9679 13.6008 19.5231 13.4334 20.0937 13.3753L20.1877 13.4528ZM2.7677 19.1087C3.5821 18.7129 4.4573 18.4675 5.3537 18.3835C5.7893 18.3461 6.2275 18.3537 6.6617 18.4063C7.3056 18.4885 7.9324 18.6779 8.5177 18.9672C8.9078 19.1664 9.2754 19.4096 9.6137 19.6924C10.4041 20.3617 10.9978 21.2458 11.3277 22.2451C11.3677 22.3608 11.3977 22.4775 11.4317 22.5963C11.4934 22.8227 11.5415 23.0528 11.5757 23.2853C11.5887 23.368 11.5937 23.4537 11.5997 23.5415L11.5397 23.6304C11.2467 23.7058 10.9477 23.7533 10.6467 23.7729C9.8949 23.8291 9.1393 23.7713 8.4037 23.6014C7.6978 23.4425 7.0117 23.2009 6.3587 22.8814C5.7445 22.5879 5.1648 22.2229 4.6307 21.7936C4.1354 21.3996 3.7002 20.9308 3.3397 20.4031C3.0767 20.0302 2.8697 19.6191 2.7227 19.1841L2.7677 19.1087ZM16.4467 4.69055C17.0206 5.76653 17.3851 6.94817 17.5197 8.16881C17.6435 9.27592 17.5461 10.3975 17.2337 11.4642C17.0867 11.9497 16.8877 12.4177 16.6407 12.8588C16.4027 13.2772 16.1177 13.6646 15.7907 14.0138C15.1526 14.6895 14.3588 15.1868 13.4837 15.459C13.1967 15.5571 12.9017 15.6253 12.6037 15.6656L12.5137 15.5985C12.4067 15.2679 12.3227 14.9301 12.2627 14.5871C11.9267 12.9032 11.9727 11.1615 12.3967 9.49833C12.8177 7.89712 13.6107 6.43846 14.8347 5.46946C15.2834 5.1012 15.7925 4.81918 16.3377 4.63683L16.4467 4.69055ZM0.530701 13.9249C1.2465 13.3594 2.0566 12.934 2.9207 12.6698C3.7608 12.4159 4.6431 12.3466 5.5107 12.4663C6.5651 12.6113 7.5604 13.0542 8.3868 13.7461C9.2133 14.438 9.8389 15.3521 10.1947 16.3877L10.1567 16.4941C9.8907 16.6398 9.6117 16.7606 9.3237 16.8546C7.8667 17.3526 6.3177 17.3298 4.9387 17.0137C4.5987 16.9373 4.2627 16.8381 3.9337 16.7172C3.6117 16.6036 3.2987 16.4672 2.9957 16.3092C2.4102 16.0109 1.8715 15.6233 1.3977 15.1594C1.0497 14.8247 0.749701 14.4414 0.5047 14.021L0.530701 13.9249ZM4.3467 0.9375C6.5727 1.39927 8.4207 2.73913 9.4397 4.40233C9.6897 4.80212 9.8967 5.22876 10.0567 5.67401C10.2092 6.10687 10.3129 6.55646 10.3657 7.01386C10.4685 7.90916 10.3573 8.81685 10.0417 9.65742C9.9437 9.93841 9.8217 10.2091 9.6747 10.4673L9.5717 10.5014C9.2717 10.3919 8.9817 10.2586 8.7027 10.1027C7.3028 9.36672 6.1016 8.2834 5.2067 6.94981C4.3487 5.65644 3.8287 4.1575 3.9017 2.63169C3.9199 2.06495 4.0329 1.50574 4.2357 0.978822L4.3467 0.9375Z" fill="#EFE8FE"/>
</g>
</svg>
