<svg width="800" height="438" viewBox="0 0 800 438" fill="none" xmlns="http://www.w3.org/2000/svg">
<g clip-path="url(#clip0_6284_27572)">
<path d="M585.649 93.9085C585.649 77.2605 572.153 63.7646 555.504 63.7646C538.856 63.7646 525.36 77.2605 525.36 93.9085V108.401" stroke="#5FA8F1" stroke-width="5.5" stroke-linecap="round"/>
<path d="M585.649 93.9085C585.649 77.2601 599.145 63.7641 615.793 63.7641C632.441 63.7641 645.937 77.2601 645.937 93.9085V108.594" stroke="#5FA8F1" stroke-width="5.5" stroke-linecap="round"/>
<path d="M525.36 109.642L585.648 169.654" stroke="#5FA8F1" stroke-width="5.5" stroke-linecap="round"/>
<path d="M645.858 109.642L585.706 170.072" stroke="#5FA8F1" stroke-width="5.5" stroke-linecap="round"/>
<path d="M734.971 153.635V250.28" stroke="#5FA8F1" stroke-width="5.5" stroke-linecap="round" stroke-linejoin="round"/>
<path d="M754.479 69.6529V166.991" stroke="#5FA8F1" stroke-width="5.5" stroke-linecap="round" stroke-linejoin="round"/>
<path d="M695.917 81.4977V166.656" stroke="#5FA8F1" stroke-width="5.5" stroke-linecap="round" stroke-linejoin="round"/>
<path d="M715.586 82.1666V166.655" stroke="#5FA8F1" stroke-width="5.5" stroke-linecap="round" stroke-linejoin="round"/>
<path d="M773.423 70.4036V166.656" stroke="#5FA8F1" stroke-width="5.5" stroke-linecap="round" stroke-linejoin="round"/>
<path d="M716.479 245.808V152.89H734.723" stroke="#5FA8F1" stroke-width="5.5" stroke-linecap="round" stroke-linejoin="round"/>
<path d="M753.712 204.505V252.065" stroke="#5FA8F1" stroke-width="5.5" stroke-linecap="round" stroke-linejoin="round"/>
<path d="M735.222 252.054V203.759H753.465" stroke="#5FA8F1" stroke-width="5.5" stroke-linecap="round" stroke-linejoin="round"/>
<path d="M695.176 169.114H713.717" stroke="#5FA8F1" stroke-width="5.5" stroke-linecap="round" stroke-linejoin="round"/>
<path d="M696.158 81.4977H705.428H714.698" stroke="#5FA8F1" stroke-width="5.5" stroke-linecap="round" stroke-linejoin="round"/>
<path d="M586.477 169.164H695.714C695.714 139.16 673.662 114.553 644.958 110.417" stroke="#5FA8F1" stroke-width="5.5" stroke-linecap="round" stroke-linejoin="round"/>
<path d="M773.811 69.7342H754.75M773.811 166.965H754.75H773.811Z" stroke="#5FA8F1" stroke-width="5.5" stroke-linecap="round" stroke-linejoin="round"/>
<path d="M714.699 212.516H694.675" stroke="#5FA8F1" stroke-width="5.5" stroke-linecap="round" stroke-linejoin="round"/>
<path d="M694.428 213.013V304.031" stroke="#5FA8F1" stroke-width="5.5" stroke-linecap="round" stroke-linejoin="round"/>
<path d="M793.78 212.791V303.212" stroke="#5FA8F1" stroke-width="5.5" stroke-linecap="round" stroke-linejoin="round"/>
<path d="M675.936 244.678C686.859 244.678 695.714 235.78 695.714 224.803H617.101" stroke="#5FA8F1" stroke-width="5.5" stroke-linecap="round" stroke-linejoin="round"/>
<path d="M655.663 224.803H605.746" stroke="#5FA8F1" stroke-width="5.5" stroke-linecap="round" stroke-linejoin="round"/>
<path d="M645.777 185.052H616.854" stroke="#5FA8F1" stroke-width="5.5" stroke-linecap="round" stroke-linejoin="round"/>
<path d="M612.238 185.052H629.928" stroke="#5FA8F1" stroke-width="5.5" stroke-linecap="round" stroke-linejoin="round"/>
<path d="M635.355 205.424H613.451" stroke="#5FA8F1" stroke-width="5.5" stroke-linecap="round" stroke-linejoin="round"/>
<path d="M685.825 205.424C691.287 205.424 695.714 200.974 695.714 195.486" stroke="#5FA8F1" stroke-width="5.5" stroke-linecap="round"/>
<path d="M695.917 212.516C695.917 234.469 713.626 252.266 735.47 252.266H752.922" stroke="#5FA8F1" stroke-width="5.5" stroke-linecap="round"/>
<path d="M792.149 212.516C792.149 234.469 774.441 252.266 752.596 252.266H735.145" stroke="#5FA8F1" stroke-width="5.5" stroke-linecap="round"/>
<path d="M674.946 185.549C674.946 191.038 670.519 195.486 665.057 195.486" stroke="#5FA8F1" stroke-width="5.5" stroke-linecap="round"/>
<path d="M695.714 195.486C695.714 189.998 691.286 185.549 685.825 185.549H676.184" stroke="#5FA8F1" stroke-width="5.5" stroke-linecap="round"/>
<path d="M665.06 195.486C665.06 200.975 660.633 205.424 655.171 205.424" stroke="#5FA8F1" stroke-width="5.5" stroke-linecap="round"/>
<path d="M612.154 185.248C606.665 185.248 602.216 189.675 602.216 195.137" stroke="#5FA8F1" stroke-width="5.5" stroke-linecap="round"/>
<path d="M655.666 205.424C650.205 205.424 645.777 200.975 645.777 195.486V185.3" stroke="#5FA8F1" stroke-width="5.5" stroke-linecap="round"/>
<path d="M645.777 224.803C640.317 224.803 635.889 220.18 635.889 214.478V205.424" stroke="#5FA8F1" stroke-width="5.5" stroke-linecap="round"/>
<path d="M793.122 212.516H753.493" stroke="#5FA8F1" stroke-width="5.5" stroke-linecap="round" stroke-linejoin="round"/>
<path d="M756.891 359.016C756.891 371.159 766.004 381.003 777.246 381.003" stroke="#5FA8F1" stroke-width="5.5" stroke-linecap="round" stroke-linejoin="round"/>
<path d="M631.808 359.016C631.808 371.159 640.921 381.003 652.163 381.003H774.338" stroke="#5FA8F1" stroke-width="5.5" stroke-linecap="round" stroke-linejoin="round"/>
<path d="M777.248 381.003C788.49 381.003 797.603 371.159 797.603 359.016" stroke="#5FA8F1" stroke-width="5.5" stroke-linecap="round" stroke-linejoin="round"/>
<path d="M777.246 359.016C777.246 367.024 773.479 374.031 767.852 377.862" stroke="#5FA8F1" stroke-width="5.5" stroke-linecap="round" stroke-linejoin="round"/>
<path d="M631.356 362.091C631.356 330.155 659.878 304.266 694.413 304.266C728.949 304.266 756.945 330.155 756.945 362.091" stroke="#5FA8F1" stroke-width="5.5" stroke-linecap="round" stroke-linejoin="round"/>
<path d="M777.246 359.016C777.246 339.589 762.139 323.571 740.971 321.325" stroke="#5FA8F1" stroke-width="5.5" stroke-linecap="round" stroke-linejoin="round"/>
<path d="M797.603 359.016C797.603 328.659 769.976 304.05 735.897 304.05C729.58 304.05 723.486 304.895 717.747 306.465" stroke="#5FA8F1" stroke-width="5.5" stroke-linecap="round" stroke-linejoin="round"/>
<path d="M555.879 248.338L574.497 267.164C575.81 268.793 578.436 273.094 578.436 277.258C578.436 282.464 577.221 299.952 592.433 302.92H507.871M586.132 202.91V169.901V202.91ZM495.725 171.861V291.14V171.861Z" stroke="#5FA8F1" stroke-width="5.5" stroke-linecap="round" stroke-linejoin="round"/>
<path d="M586.628 203.545L612.684 232.854C612.684 232.854 630.62 250.652 630.62 264.822C630.62 282.701 630.62 326.201 630.62 326.201" stroke="#5FA8F1" stroke-width="5.5" stroke-linecap="round" stroke-linejoin="round"/>
<path d="M555.075 247.767C555.075 247.767 549.625 240.062 556.562 231.765C564.556 222.203 574.498 231.765 574.498 231.765L592.435 249.644L600.995 259.107" stroke="#5FA8F1" stroke-width="5.5" stroke-linecap="round" stroke-linejoin="round"/>
<path d="M507.583 302.708C501.194 302.708 496.015 297.528 496.015 291.14" stroke="#5FA8F1" stroke-width="5.5" stroke-miterlimit="10" stroke-linecap="round" stroke-linejoin="round"/>
<path d="M563.689 314.854C563.689 308.465 568.868 303.286 575.257 303.286" stroke="#5FA8F1" stroke-width="5.5" stroke-miterlimit="10" stroke-linecap="round" stroke-linejoin="round"/>
<path d="M518.572 171.572V298.37" stroke="#5FA8F1" stroke-width="5.5" stroke-miterlimit="10" stroke-linecap="round" stroke-linejoin="round"/>
<path d="M539.57 259.73V282.287" stroke="#5FA8F1" stroke-width="5.5" stroke-miterlimit="10" stroke-linecap="round" stroke-linejoin="round"/>
<path d="M556.728 248.946V282.287" stroke="#5FA8F1" stroke-width="5.5" stroke-miterlimit="10" stroke-linecap="round" stroke-linejoin="round"/>
<path d="M569.57 181.489V200.125" stroke="#5FA8F1" stroke-width="5.5" stroke-miterlimit="10" stroke-linecap="round" stroke-linejoin="round"/>
<path d="M563.541 314.933V376.051" stroke="#5FA8F1" stroke-width="5.5" stroke-linecap="round" stroke-linejoin="round"/>
<path d="M563.541 325.818H629.682" stroke="#5FA8F1" stroke-width="5.5" stroke-linecap="round" stroke-linejoin="round"/>
<path d="M574.388 302.996L693.972 303.384" stroke="#5FA8F1" stroke-width="5.5" stroke-linecap="round" stroke-linejoin="round"/>
<path d="M324.446 280.054H454.354" stroke="#5FA8F1" stroke-width="5.5" stroke-linecap="round" stroke-linejoin="round"/>
<path d="M474.721 163.358C474.721 156.67 469.299 151.248 462.61 151.248" stroke="#5FA8F1" stroke-width="5.5" stroke-linecap="round" stroke-linejoin="round"/>
<path d="M306.519 163.358C306.519 156.67 311.941 151.248 318.629 151.248" stroke="#5FA8F1" stroke-width="5.5" stroke-linecap="round" stroke-linejoin="round"/>
<path d="M462.61 259.137C469.299 259.137 474.721 253.716 474.721 247.027" stroke="#5FA8F1" stroke-width="5.5" stroke-linecap="round" stroke-linejoin="round"/>
<path d="M318.629 259.137C311.941 259.137 306.519 253.716 306.519 247.027" stroke="#5FA8F1" stroke-width="5.5" stroke-linecap="round" stroke-linejoin="round"/>
<path d="M319.02 151.248H461.508" stroke="#5FA8F1" stroke-width="5.5" stroke-linecap="round" stroke-linejoin="round"/>
<path d="M318.745 259.137H462.336" stroke="#5FA8F1" stroke-width="5.5" stroke-linecap="round" stroke-linejoin="round"/>
<path d="M475.273 302.624C475.273 290.464 465.414 280.054 453.254 280.054" stroke="#5FA8F1" stroke-width="5.5" stroke-linecap="round" stroke-linejoin="round"/>
<path d="M304.129 302.624C304.129 290.464 313.987 280.054 326.147 280.054" stroke="#5FA8F1" stroke-width="5.5" stroke-linecap="round" stroke-linejoin="round"/>
<path d="M410.591 259.137C410.591 271.298 420.449 280.054 432.609 280.054M368.482 259.137C368.482 271.298 358.623 280.054 346.463 280.054L368.482 259.137Z" stroke="#5FA8F1" stroke-width="5.5" stroke-linecap="round" stroke-linejoin="round"/>
<path d="M474.721 164.459V245.927" stroke="#5FA8F1" stroke-width="5.5" stroke-linecap="round" stroke-linejoin="round"/>
<path d="M306.519 164.459V245.927" stroke="#5FA8F1" stroke-width="5.5" stroke-linecap="round" stroke-linejoin="round"/>
<path d="M474.721 173.266H496.739" stroke="#5FA8F1" stroke-width="5.5" stroke-linecap="round" stroke-linejoin="round"/>
<path d="M378.941 243.691H403.263M378.941 301.452H403.263H378.941Z" stroke="#5FA8F1" stroke-width="5.5" stroke-linecap="round" stroke-linejoin="round"/>
<path d="M264.618 178.966C271.97 178.966 277.984 184.647 277.984 191.664V279.217" stroke="#5FA8F1" stroke-width="5.5" stroke-linecap="round" stroke-linejoin="round"/>
<path d="M265.955 317.313L303.381 303.612" stroke="#5FA8F1" stroke-width="5.5" stroke-linecap="round"/>
<path d="M253.423 354.239L265.955 317.313" stroke="#5FA8F1" stroke-width="5.5" stroke-linecap="round"/>
<path d="M227.858 279.217L303.381 303.612" stroke="#5FA8F1" stroke-width="5.5" stroke-linecap="round"/>
<path d="M227.858 279.217L253.423 354.239" stroke="#5FA8F1" stroke-width="5.5" stroke-linecap="round"/>
<path d="M226.355 229.927V254.99" stroke="#5FA8F1" stroke-width="5.5" stroke-linecap="round"/>
<path d="M259.271 246.803L241.56 264.514" stroke="#5FA8F1" stroke-width="5.5" stroke-linecap="round"/>
<path d="M193.94 246.803L211.651 264.514" stroke="#5FA8F1" stroke-width="5.5" stroke-linecap="round"/>
<path d="M194.609 312.3L212.32 294.589" stroke="#5FA8F1" stroke-width="5.5" stroke-linecap="round"/>
<path d="M179.403 279.217H201.124" stroke="#5FA8F1" stroke-width="5.5" stroke-linecap="round"/>
<path d="M252.556 205.104C254.889 205.104 256.722 203.961 256.722 202.506C256.722 201.051 254.889 199.908 252.556 199.908V205.104ZM102.543 205.104H252.556V199.908H102.543V205.104Z" fill="#5FA8F1"/>
<path d="M102.543 229.091H152.67" stroke="#5FA8F1" stroke-width="5.5"/>
<path d="M127.786 277.863C130.143 277.863 131.993 276.72 131.993 275.265C131.993 273.81 130.143 272.666 127.786 272.666V277.863ZM102.543 277.863H127.786V272.666H102.543V277.863Z" fill="#5FA8F1"/>
<path d="M152.915 300.384C155.266 300.384 157.113 299.241 157.113 297.786C157.113 296.33 155.266 295.187 152.915 295.187V300.384ZM102.543 300.384H152.915V295.187H102.543V300.384Z" fill="#5FA8F1"/>
<path d="M152.67 229.091V277.88" stroke="#5FA8F1" stroke-width="5.5" stroke-linecap="round"/>
<path d="M102.543 179.119H265.385" stroke="#5FA8F1" stroke-width="5.5"/>
<path d="M102.543 314.243H152.67" stroke="#5FA8F1" stroke-width="5.5"/>
<path d="M264.536 128.294C257.231 128.294 251.335 122.398 251.335 115.094" stroke="#5FA8F1" stroke-width="5.5" stroke-linecap="round"/>
<path d="M264.536 128.294C257.231 128.294 251.335 134.191 251.335 141.494" stroke="#5FA8F1" stroke-width="5.5" stroke-linecap="round"/>
<path d="M238.134 128.294C245.439 128.294 251.335 122.398 251.335 115.094" stroke="#5FA8F1" stroke-width="5.5" stroke-linecap="round"/>
<path d="M238.134 128.294C245.439 128.294 251.335 134.191 251.335 141.494" stroke="#5FA8F1" stroke-width="5.5" stroke-linecap="round"/>
<path d="M304.138 154.695C289.529 154.695 277.737 142.903 277.737 128.294" stroke="#5FA8F1" stroke-width="5.5" stroke-linecap="round"/>
<path d="M304.138 154.694C289.529 154.694 277.737 166.487 277.737 181.096" stroke="#5FA8F1" stroke-width="5.5" stroke-linecap="round"/>
<path d="M251.335 154.695C265.944 154.695 277.736 142.903 277.736 128.294" stroke="#5FA8F1" stroke-width="5.5" stroke-linecap="round"/>
<path d="M251.335 154.694C265.944 154.694 277.736 166.487 277.736 181.096" stroke="#5FA8F1" stroke-width="5.5" stroke-linecap="round"/>
<path d="M330.539 115.974C315.93 115.974 304.138 103.741 304.138 88.6928" stroke="#5FA8F1" stroke-width="5.5" stroke-linecap="round"/>
<path d="M330.539 115.974C315.93 115.974 304.138 127.414 304.138 141.494" stroke="#5FA8F1" stroke-width="5.5" stroke-linecap="round"/>
<path d="M277.737 115.974C292.346 115.974 304.138 103.741 304.138 88.6928" stroke="#5FA8F1" stroke-width="5.5" stroke-linecap="round"/>
<path d="M277.737 115.974C292.346 115.974 304.138 127.414 304.138 141.494" stroke="#5FA8F1" stroke-width="5.5" stroke-linecap="round"/>
<path d="M2.47424 275.622C2.47424 264.562 11.3937 255.596 22.3965 255.596H81.9142" stroke="#5FA8F1" stroke-width="5.5" stroke-linecap="round" stroke-linejoin="round"/>
<path d="M81.9143 255.596C92.8825 255.596 101.774 264.562 101.774 275.622" stroke="#5FA8F1" stroke-width="5.5" stroke-linecap="round" stroke-linejoin="round"/>
<path d="M2.47424 394.615V275.456" stroke="#5FA8F1" stroke-width="5.5" stroke-linejoin="round"/>
<path d="M101.774 314.352V275.622" stroke="#5FA8F1" stroke-width="5.5" stroke-linecap="round" stroke-linejoin="round"/>
<path d="M81.9144 334.949H86.8536" stroke="#5FA8F1" stroke-width="5.5" stroke-linecap="round" stroke-linejoin="round"/>
<path d="M59.7866 353.806C59.7866 355.059 60.802 356.074 62.0547 356.074C63.3073 356.074 64.3227 355.059 64.3227 353.806H59.7866ZM64.3227 335.466C64.3227 325.132 72.2018 317.356 81.8236 317.356V312.82C69.6093 312.82 59.7866 322.714 59.7866 335.466H64.3227ZM81.8236 317.356H141.494V312.82H81.8236V317.356ZM59.7866 335.466V353.806H64.3227V335.466H59.7866Z" fill="#5FA8F1"/>
<path d="M62.0151 356.098C62.0151 367.442 70.9008 376.125 81.862 376.125" stroke="#5FA8F1" stroke-width="5.5" stroke-miterlimit="10" stroke-linecap="round" stroke-linejoin="round"/>
<path d="M83.1835 376.125V396.152" stroke="#5FA8F1" stroke-width="5.5" stroke-linecap="round"/>
<path d="M81.4285 394.593C80.6042 395.537 80.6944 396.977 81.6299 397.809C82.5658 398.641 83.9918 398.55 84.8165 397.606L81.4285 394.593ZM101.812 374.697V372.418C101.164 372.418 100.547 372.699 100.118 373.191L101.812 374.697ZM84.8165 397.606L103.506 376.203L100.118 373.191L81.4285 394.593L84.8165 397.606ZM101.812 376.975H141.494V372.418H101.812V376.975Z" fill="#5FA8F1"/>
<path d="M101.709 332.68C100.456 332.68 99.4408 333.696 99.4408 334.949C99.4408 336.2 100.456 337.217 101.709 337.217V332.68ZM141.402 332.68H101.709V337.217H141.402V332.68Z" fill="#5FA8F1"/>
<path d="M121.634 354.808H81.9142" stroke="#5FA8F1" stroke-width="5.5" stroke-linecap="round" stroke-linejoin="round"/>
<path d="M22.3341 315.088C22.3341 304.12 32.3297 295.228 44.6598 295.228H59.5884C71.9185 295.228 81.9141 304.12 81.9141 315.088" stroke="#5FA8F1" stroke-width="5.5" stroke-linecap="round"/>
<path d="M63.3781 334.948H22.3341C22.3341 345.916 30.6266 354.808 40.856 354.808H62.1849" stroke="#5FA8F1" stroke-width="5.5" stroke-linejoin="round"/>
<path d="M81.9141 315.088H22.3341" stroke="#5FA8F1" stroke-width="5.5" stroke-linecap="round"/>
<path d="M32.9261 315.75V334.286" stroke="#5FA8F1" stroke-width="5.5" stroke-linecap="round"/>
<path d="M42.2343 296.957V305.429" stroke="#5FA8F1" stroke-width="5.5" stroke-linecap="round"/>
<path d="M61.4972 296.957V305.429" stroke="#5FA8F1" stroke-width="5.5" stroke-linecap="round"/>
<path d="M487.408 35.7728H449.114" stroke="#5FA8F1" stroke-width="5.5" stroke-linecap="round" stroke-linejoin="round"/>
<path d="M487.408 35.7728V74.0669" stroke="#5FA8F1" stroke-width="5.5" stroke-linecap="round" stroke-linejoin="round"/>
<path d="M334.233 150.655H468.261V83.6404L334.233 150.655ZM439.286 54.9194H334.233H439.286Z" stroke="#5FA8F1" stroke-width="5.5" stroke-linecap="round" stroke-linejoin="round"/>
<path d="M331.807 132.657L388.228 89.1291L412.863 111.722L484.6 39.9847" stroke="#5FA8F1" stroke-width="5.5" stroke-linecap="round" stroke-linejoin="round"/>
<path d="M317.772 55.3099C310.467 55.3099 304.571 49.4137 304.571 42.1094" stroke="#5FA8F1" stroke-width="5.5" stroke-linecap="round"/>
<path d="M317.772 55.3101C310.467 55.3101 304.571 61.2064 304.571 68.5106" stroke="#5FA8F1" stroke-width="5.5" stroke-linecap="round"/>
<path d="M291.37 55.3099C298.675 55.3099 304.571 49.4137 304.571 42.1094" stroke="#5FA8F1" stroke-width="5.5" stroke-linecap="round"/>
<path d="M291.37 55.3101C298.675 55.3101 304.571 61.2064 304.571 68.5106" stroke="#5FA8F1" stroke-width="5.5" stroke-linecap="round"/>
<path d="M792.506 303.413C785.447 303.413 779.747 297.713 779.747 290.653" stroke="#5FA8F1" stroke-width="5.5" stroke-linecap="round"/>
<path d="M792.506 303.413C785.447 303.413 779.747 309.112 779.747 316.172" stroke="#5FA8F1" stroke-width="5.5" stroke-linecap="round"/>
<path d="M766.989 303.413C774.049 303.413 779.748 297.713 779.748 290.653" stroke="#5FA8F1" stroke-width="5.5" stroke-linecap="round"/>
<path d="M766.989 303.413C774.049 303.413 779.748 309.112 779.748 316.172" stroke="#5FA8F1" stroke-width="5.5" stroke-linecap="round"/>
<path d="M114.063 156.869V178.611" stroke="#5FA8F1" stroke-width="5.5" stroke-linecap="round"/>
<path d="M156.517 84.7398V97.9612" stroke="#5FA8F1" stroke-width="5.5"/>
<path d="M198.972 156.869V178.611" stroke="#5FA8F1" stroke-width="5.5"/>
<path d="M135.951 24.5095V100.899" stroke="#5FA8F1" stroke-width="5.5" stroke-linecap="round"/>
<path d="M124.199 2.47421V25.9787" stroke="#5FA8F1" stroke-width="5.5"/>
<path d="M37.5258 24.5095H135.951" stroke="#5FA8F1" stroke-width="5.5" stroke-linecap="round"/>
<path d="M98.4907 155.694L212.341 156.723" stroke="#5FA8F1" stroke-width="5.5" stroke-linecap="round"/>
<path d="M102.163 178.758H212.341" stroke="#5FA8F1" stroke-width="5.5" stroke-linecap="round"/>
<path d="M91.8804 68.5809H111.712H91.8804ZM58.0928 68.5809H77.9247H58.0928Z" stroke="#5FA8F1" stroke-width="5.5" stroke-linecap="round"/>
<path d="M58.0928 46.5452H111.859" stroke="#5FA8F1" stroke-width="5.5" stroke-linecap="round"/>
<path d="M58.0928 90.6161H111.859" stroke="#5FA8F1" stroke-width="5.5" stroke-linecap="round"/>
<path d="M135.951 81.8018H178.553" stroke="#5FA8F1" stroke-width="5.5" stroke-linecap="round"/>
<path d="M57.9454 134.687H80.8623H57.9454ZM57.9454 155.694H101.135H57.9454Z" stroke="#5FA8F1" stroke-width="5.5" stroke-linecap="round"/>
<path d="M36.0568 24.5097L124.199 2.47421" stroke="#5FA8F1" stroke-width="5.5" stroke-linecap="round"/>
<path d="M212.341 155.254C212.341 124.404 187.661 99.4309 157.252 99.4309C126.843 99.4309 102.163 124.404 102.163 155.254" stroke="#5FA8F1" stroke-width="5.5" stroke-linecap="round"/>
<path d="M134.592 335.134H248.928" stroke="#5FA8F1" stroke-width="5.5" stroke-linejoin="round"/>
<path d="M148.512 337.891L164.068 425.852" stroke="#5FA8F1" stroke-width="5.5" stroke-linecap="round" stroke-linejoin="round"/>
<path d="M167.358 336.495L209.691 383.184" stroke="#5FA8F1" stroke-width="5.5" stroke-linecap="round" stroke-linejoin="round"/>
<path d="M225 426.448L198.003 394.43" stroke="#5FA8F1" stroke-width="5.5" stroke-linecap="round" stroke-linejoin="round"/>
<path d="M239.75 337.239L225.373 426.606" stroke="#5FA8F1" stroke-width="5.5" stroke-linecap="round"/>
<path d="M220.496 336.02L196.53 363.337" stroke="#5FA8F1" stroke-width="5.5" stroke-linecap="round" stroke-linejoin="round"/>
<path d="M164.572 425.858L209.485 383.619" stroke="#5FA8F1" stroke-width="5.5" stroke-linecap="round" stroke-linejoin="round"/>
<path d="M290.419 339.865C302.101 365.223 330.507 376.93 353.074 376.93C373.25 376.93 398.768 363.933 414.666 339.865L444.758 302.247" stroke="#5FA8F1" stroke-width="5.5" stroke-linecap="round" stroke-linejoin="round"/>
<path d="M290.42 338.899C302.101 313.377 330.508 301.596 353.074 301.596C373.251 301.596 398.769 314.676 414.666 338.899L442.793 376.93" stroke="#5FA8F1" stroke-width="5.5" stroke-linecap="round" stroke-linejoin="round"/>
<path d="M329.374 357.726C339.581 357.726 347.856 349.791 347.856 340.001H328.624" stroke="#5FA8F1" stroke-width="5.5" stroke-linecap="round" stroke-linejoin="round"/>
<path d="M309.665 340.069H291.913" stroke="#5FA8F1" stroke-width="5.5" stroke-linecap="round" stroke-linejoin="round"/>
<path d="M327.984 305.178V373.134" stroke="#5FA8F1" stroke-width="5.5"/>
<path d="M403.709 377.116V354.114" stroke="#5FA8F1" stroke-width="5.5" stroke-linecap="round"/>
<path d="M403.709 324.802V301.096" stroke="#5FA8F1" stroke-width="5.5" stroke-linecap="round"/>
<path d="M350.58 301.17H401.266" stroke="#5FA8F1" stroke-width="5.5" stroke-linecap="round"/>
<path d="M351.192 377.32H403.099" stroke="#5FA8F1" stroke-width="5.5" stroke-linecap="round"/>
<path d="M460.572 391.192H446.299C446.299 415.113 465.987 435.491 490.302 435.491H520.13" stroke="#5FA8F1" stroke-width="5.5" stroke-linecap="round" stroke-linejoin="round"/>
<path d="M477.8 391.192H563.444" stroke="#5FA8F1" stroke-width="5.5" stroke-linecap="round" stroke-linejoin="round"/>
<path d="M491.089 376.426H534.897" stroke="#5FA8F1" stroke-width="5.5" stroke-linecap="round" stroke-linejoin="round"/>
<path d="M461.043 378.563C462.649 378.563 463.91 377.642 463.91 376.469C463.91 375.297 462.649 374.377 461.043 374.377V378.563ZM443.817 378.563H461.043V374.377H443.817V378.563Z" fill="#5FA8F1"/>
<path d="M549.663 378.888C548.285 378.888 547.202 377.805 547.202 376.426C547.202 375.048 548.285 373.965 549.663 373.965V378.888ZM564.921 378.888H549.663V373.965H564.921V378.888Z" fill="#5FA8F1"/>
<path d="M507.825 375.934C507.825 377.312 506.742 378.395 505.364 378.395C503.985 378.395 502.903 377.312 502.903 375.934H507.825ZM507.825 316.868V375.934H502.903V316.868H507.825Z" fill="#5FA8F1"/>
<path d="M444.92 348.469C443.838 347.681 443.443 346.205 444.231 345.024C445.019 343.941 446.495 343.546 447.677 344.334L444.92 348.469ZM491.975 373.965C493.058 374.753 493.452 376.229 492.665 377.41C491.877 378.493 490.4 378.888 489.219 378.1L491.975 373.965ZM447.677 344.433L491.975 373.965L489.219 378.1L444.92 348.567L447.677 344.433Z" fill="#5FA8F1"/>
<path d="M447.382 348.173C446.201 348.764 444.725 348.271 444.134 346.991C443.543 345.81 444.035 344.333 445.216 343.743L447.382 348.173ZM504.282 315.195C505.463 314.605 506.94 315.096 507.531 316.376C508.121 317.557 507.629 319.034 506.349 319.625L504.282 315.195ZM445.216 343.743L504.282 315.195L506.448 319.625L447.382 348.173L445.216 343.743Z" fill="#5FA8F1"/>
<path d="M533.222 345.121C534.207 344.137 535.782 344.235 536.668 345.121C537.653 346.106 537.554 347.681 536.668 348.567L533.222 345.121ZM507.136 377.41C506.151 378.394 504.576 378.296 503.69 377.41C502.705 376.426 502.804 374.85 503.69 373.965L507.136 377.41ZM536.668 348.665L507.136 377.41L503.69 373.866L533.222 345.121L536.668 348.665Z" fill="#5FA8F1"/>
<path d="M551.927 375.343C552.517 376.524 552.025 378.001 550.844 378.69C549.663 379.281 548.186 378.788 547.497 377.607L551.927 375.343ZM537.16 345.81L551.927 375.343L547.497 377.508L532.731 347.976L537.16 345.81Z" fill="#5FA8F1"/>
<path d="M520.623 435.491C545.135 435.491 564.429 415.113 564.429 391.192" stroke="#5FA8F1" stroke-width="5.5" stroke-linecap="round" stroke-linejoin="round"/>
<path d="M467.956 406.254C471.795 406.254 475.339 402.906 475.339 399.067V388.731" stroke="#5FA8F1" stroke-width="5.5"/>
<path d="M490.598 376.426C490.598 384.301 483.018 391.192 474.847 391.192" stroke="#5FA8F1" stroke-width="5.5"/>
<path d="M468.448 406.253C464.609 406.253 461.065 402.907 461.065 399.067V376.426" stroke="#5FA8F1" stroke-width="5.5"/>
<path d="M448.148 302.829H513.977" stroke="#5FA8F1" stroke-width="5.5" stroke-linecap="round"/>
</g>
<defs>
<clipPath id="clip0_6284_27572">
<rect width="800" height="437.938" fill="white"/>
</clipPath>
</defs>
</svg>
