<svg width="28" height="29" viewBox="0 0 28 29" fill="none" xmlns="http://www.w3.org/2000/svg">
<g clip-path="url(#clip0)">
<path d="M25.2 0.5H2.8C1.26 0.5 0 1.76 0 3.3V25.7C0 27.24 1.26 28.5 2.8 28.5H25.2C26.74 28.5 28 27.24 28 25.7V3.3C28 1.76 26.74 0.5 25.2 0.5ZM8.4 24.3H4.2V11.7H8.4V24.3ZM6.3 9.32C4.9 9.32 3.78 8.2 3.78 6.8C3.78 5.4 4.9 4.28 6.3 4.28C7.7 4.28 8.82 5.4 8.82 6.8C8.82 8.2 7.7 9.32 6.3 9.32ZM23.8 24.3H19.6V16.88C19.6 15.7601 18.62 14.78 17.5 14.78C16.38 14.78 15.4 15.7601 15.4 16.88V24.3H11.2V11.7H15.4V13.38C16.1 12.26 17.64 11.42 18.9 11.42C21.56 11.42 23.8 13.66 23.8 16.32V24.3Z" fill="white"/>
</g>
<defs>
<clipPath id="clip0">
<rect width="28" height="28" fill="white" transform="translate(0 0.5)"/>
</clipPath>
</defs>
</svg>
