<svg width="150" height="34" viewBox="0 0 150 34" fill="none" xmlns="http://www.w3.org/2000/svg">
<g clip-path="url(#clip0)">
<path fill-rule="evenodd" clip-rule="evenodd" d="M115.898 14.1571C116.49 17.7639 115.941 21.4725 114.333 24.7287C112.725 27.9849 110.145 30.6137 106.979 32.2223C103.813 33.831 100.23 34.333 96.7654 33.6534C93.3012 32.9739 90.142 31.1491 87.7599 28.452C85.3777 25.7549 83.9005 22.3302 83.5491 18.6897C83.1977 15.0492 83.9909 11.3885 85.8102 8.25454C87.6295 5.12063 90.3772 2.68183 93.6426 1.30265C96.908 -0.0765443 100.516 -0.322069 103.927 0.602766C102.86 4.84222 95.9204 7.1108 95.9204 7.1108C93.8632 7.97969 92.1321 9.51613 90.986 11.4905C89.8398 13.4649 89.3401 15.7711 89.5615 18.0646C89.7829 20.3581 90.7135 22.5157 92.2142 24.2149C93.715 25.9141 95.7053 27.0637 97.8877 27.4918C100.07 27.9199 102.327 27.6036 104.322 26.5902C106.317 25.5768 107.942 23.9206 108.955 21.8692C108.955 21.8692 111.646 14.908 115.898 14.1571Z" fill="white"/>
<path d="M111.889 5.60734C110.603 4.13761 109.08 2.91565 107.391 1.99507C106.942 1.75034 106.389 1.95913 106.184 2.42761L105.76 3.39531C104.812 5.55847 105.861 8.04538 107.416 9.82276C108.97 11.599 111.361 12.8853 113.584 12.0939L114.461 11.7817C114.898 11.6264 115.133 11.1499 114.966 10.7175C114.244 8.83915 113.202 7.10797 111.889 5.60734Z" fill="#FBCF15"/>
<path d="M96.7744 17.0001C96.7744 18.7437 98.1259 20.1385 99.7986 20.1385C101.458 20.1385 102.823 18.7437 102.823 17.0001C102.823 15.2704 101.458 13.8616 99.7986 13.8616C98.1259 13.8616 96.7744 15.2704 96.7744 17.0001Z" fill="#FBCF15"/>
<rect x="96.2285" y="13.3013" width="7.05903" height="7.32757" rx="3.52951" fill="#FBCF15"/>
<path d="M146.371 26.5203V0.195062C142.449 0.195062 140.229 3.46766 140.229 7.54692V22.6681L127.94 3.39624C126.639 1.35537 124.498 -0.478143 122.235 0.193564C119.758 0.929094 119.758 3.64937 119.758 7.47922V33.8035C120.941 33.8035 121.97 33.5119 122.829 32.9924C124.817 31.7904 125.899 29.3687 125.899 26.5203L125.806 11.3312L138.188 30.6222C139.49 32.6516 141.623 34.4705 143.879 33.8097C146.371 33.0801 146.371 30.357 146.371 26.5203Z" fill="white"/>
<path d="M38.7096 26.545V0.0523682C35.3702 0.0523682 32.6612 3.412 32.6612 7.55721V33.9477C36.0005 33.9477 38.7096 30.7069 38.7096 26.545Z" fill="white"/>
<path d="M78.672 26.5456V0.0529812C75.3088 0.0529812 72.5804 3.41261 72.5804 7.55783V33.9484C75.9436 33.9484 78.672 30.7075 78.672 26.5456Z" fill="white"/>
<path d="M18.5311 5.30957L15.7257 10.5792L12.9777 5.4174C10.646 1.03751 6.45973 -1.0744 3.62891 0.698091L12.3075 17.0001L3.62891 33.302C6.45973 35.0745 10.646 32.9626 12.9777 28.5827L15.7257 23.4209L18.5311 28.6905C20.8722 33.0881 24.9916 35.0745 27.8225 33.302L19.1439 17.0001L27.8225 0.698118C24.9916 -1.07437 20.8722 0.912014 18.5311 5.30957Z" fill="white"/>
<path d="M44.758 7.45575C44.758 3.29382 47.5328 0.0529812 50.9532 0.0529812V27.593L67.7418 27.593C67.7418 31.1018 64.3371 33.9484 60.1362 33.9484H44.758V7.45575Z" fill="white"/>
</g>
<defs>
<clipPath id="clip0">
<rect width="150" height="33.8954" fill="white" transform="translate(0 0.0523682)"/>
</clipPath>
</defs>
</svg>
