<svg width="33" height="34" viewBox="0 0 33 34" fill="none" xmlns="http://www.w3.org/2000/svg">
<g clip-path="url(#clip0)">
<path fill-rule="evenodd" clip-rule="evenodd" d="M32.4304 14.1569C33.0219 17.7638 32.4728 21.4724 30.8651 24.7286C29.2575 27.9847 26.6777 30.6136 23.5112 32.2222C20.3448 33.8308 16.7617 34.3329 13.2976 33.6533C9.83346 32.9737 6.67423 31.149 4.29208 28.4519C1.90992 25.7548 0.432759 22.33 0.0813487 18.6896C-0.270062 15.0491 0.523152 11.3883 2.34244 8.25442C4.16174 5.1205 6.90941 2.68171 10.1748 1.30252C13.4402 -0.0766663 17.048 -0.322191 20.459 0.602644C19.3918 4.8421 12.4526 7.11068 12.4526 7.11068C10.3954 7.97957 8.66435 9.51601 7.5182 11.4904C6.37204 13.4647 5.87232 15.771 6.09371 18.0645C6.31509 20.358 7.24571 22.5156 8.74647 24.2148C10.2472 25.914 12.2375 27.0635 14.4199 27.4917C16.6024 27.9198 18.8597 27.6035 20.8545 26.5901C22.8494 25.5766 24.4747 23.9205 25.4875 21.8691C25.4875 21.8691 28.1786 14.9078 32.4304 14.1569Z" fill="white"/>
<path d="M28.4215 5.60734C27.1356 4.13761 25.6125 2.91565 23.9231 1.99507C23.4739 1.75034 22.9211 1.95913 22.7158 2.42761L22.2918 3.39531C21.3441 5.55847 22.393 8.04538 23.9481 9.82276C25.5022 11.599 27.893 12.8853 30.1165 12.0939L30.9937 11.7817C31.4302 11.6264 31.6648 11.1499 31.4984 10.7175C30.776 8.83915 29.7345 7.10797 28.4215 5.60734Z" fill="#FBCF15"/>
<path d="M13.3066 17.0001C13.3066 18.7437 14.6582 20.1385 16.3308 20.1385C17.9901 20.1385 19.355 18.7437 19.355 17.0001C19.355 15.2704 17.9901 13.8616 16.3308 13.8616C14.6582 13.8616 13.3066 15.2704 13.3066 17.0001Z" fill="#FBCF15"/>
<rect x="12.7617" y="13.3013" width="7.05903" height="7.32757" rx="3.52951" fill="#FBCF15"/>
</g>
<defs>
<clipPath id="clip0">
<rect width="33" height="34" fill="white"/>
</clipPath>
</defs>
</svg>
