<svg width="19" height="14" viewBox="0 0 19 14" fill="none" xmlns="http://www.w3.org/2000/svg">
<path d="M18.52 2.38742V2.09742C18.52 1.0055 17.65 0.117188 16.5806 0.117188H2.45946C1.39004 0.117188 0.52002 1.0055 0.52002 2.09742V2.38742V2.38954V11.9018C0.52002 12.9936 1.39004 13.8819 2.45946 13.8819H16.5807C17.65 13.8819 18.52 12.9936 18.52 11.9018V2.38954V2.38742ZM2.45946 1.19406H16.5806C17.0684 1.19406 17.4653 1.59929 17.4653 2.09742L10.4025 6.90521C9.93241 7.22522 9.1077 7.22518 8.63766 6.90524L1.57472 2.09763C1.57472 1.59954 1.9716 1.19406 2.45946 1.19406ZM16.5807 12.805H2.45946C1.9716 12.805 1.57472 12.3998 1.57472 11.9018V3.39186L8.05262 7.80124C8.46409 8.08133 8.99197 8.22133 9.52005 8.22133C10.048 8.22133 10.5761 8.0813 10.9876 7.80124L17.4654 3.39186V11.9018C17.4653 12.3998 17.0685 12.805 16.5807 12.805Z" fill="white"/>
</svg>
