<svg width="30" height="30" viewBox="0 0 30 30" fill="none" xmlns="http://www.w3.org/2000/svg">
<path d="M17.1234 2.46777L8.79844 6.79668L6.09375 8.20293V8.52754V17.1092L9.375 18.5154V10.0779L9.41133 10.0586L15.4687 6.79668L20.434 4.12305L17.1234 2.46777Z" fill="#57A4FF"/>
<path d="M25.7811 19.5846C24.8199 18.959 23.6776 18.6718 22.5348 18.7683C21.3921 18.8648 20.3141 19.3395 19.4713 20.1173C18.6286 20.8952 18.0693 21.9318 17.8817 23.0632C17.6942 24.1946 17.8892 25.3562 18.436 26.3643C18.9827 27.3724 19.8499 28.1695 20.9004 28.6295C21.9509 29.0895 23.1248 29.1862 24.2365 28.9042C25.3481 28.6222 26.334 27.9777 27.0382 27.0725C27.7424 26.1674 28.1248 25.0533 28.1249 23.9065C28.1276 23.0474 27.9144 22.2014 27.5048 21.4463C27.0953 20.6911 26.5026 20.0509 25.7811 19.5846Z" fill="#57A4FF"/>
<path d="M26.25 19.3399V6.5624C26.25 6.47533 26.2258 6.38998 26.18 6.31589C26.1343 6.24181 26.0688 6.1819 25.991 6.14287L14.741 0.517869C14.6781 0.486581 14.6089 0.469813 14.5387 0.468799C14.4684 0.467785 14.3988 0.482551 14.335 0.512009L2.14746 6.13701C2.06607 6.17437 1.99712 6.23432 1.94882 6.30973C1.90052 6.38514 1.8749 6.47284 1.875 6.5624V21.5624C1.8749 21.652 1.90052 21.7397 1.94882 21.8151C1.99712 21.8905 2.06607 21.9504 2.14746 21.9878L14.335 27.6128C14.3988 27.6423 14.4684 27.6571 14.5387 27.6561C14.6089 27.6551 14.6781 27.6383 14.741 27.6069L17.7832 26.0853C18.1196 26.8866 18.6371 27.5992 19.2952 28.1669C19.9532 28.7347 20.7339 29.1422 21.576 29.3575C22.418 29.5728 23.2985 29.59 24.1483 29.4079C24.9981 29.2257 25.7941 28.849 26.4739 28.3075C27.1537 27.7659 27.6987 27.0742 28.0662 26.2865C28.4337 25.4989 28.6136 24.6369 28.5919 23.768C28.5702 22.8992 28.3475 22.0472 27.9412 21.2789C27.5348 20.5106 26.956 19.8469 26.25 19.3399ZM19.4168 3.904L9.39492 9.30049L6.82734 8.11572L17.1275 2.75967L19.4168 3.904ZM8.90625 10.1073V17.5704L6.5625 16.5655V9.02568L8.90625 10.1073ZM14.523 1.45771L16.0916 2.2417L5.87754 7.55263C5.8389 7.57286 5.80321 7.59829 5.77148 7.62822L3.46231 6.5624L14.523 1.45771ZM14.0625 26.455L2.8125 21.2624V7.29482L5.625 8.59326V16.8749C5.62504 16.9666 5.65199 17.0563 5.7025 17.1329C5.75302 17.2094 5.82487 17.2695 5.90918 17.3056L9.19043 18.7118C9.24867 18.7371 9.31151 18.7501 9.375 18.7499C9.49932 18.7499 9.61855 18.7005 9.70646 18.6126C9.79436 18.5247 9.84375 18.4055 9.84375 18.2812V10.5403L14.0625 12.4874V26.455ZM14.523 11.6671L10.4596 9.79209L20.4422 4.4167L24.733 6.5624L14.523 11.6671ZM17.4902 25.1841L15 26.4292V12.4769L25.3125 7.3206V18.7933C24.3562 18.3553 23.2962 18.1942 22.2529 18.3283C21.2097 18.4623 20.2249 18.8862 19.4103 19.5517C18.5958 20.2172 17.9841 21.0977 17.6447 22.0932C17.3053 23.0888 17.2518 24.1596 17.4902 25.1841ZM22.9688 28.5937C22.0417 28.5937 21.1354 28.3187 20.3645 27.8037C19.5937 27.2886 18.9928 26.5565 18.6381 25.7C18.2833 24.8435 18.1905 23.9009 18.3713 22.9917C18.5522 22.0824 18.9986 21.2471 19.6542 20.5916C20.3097 19.936 21.145 19.4896 22.0543 19.3087C22.9635 19.1278 23.906 19.2207 24.7626 19.5755C25.6191 19.9303 26.3512 20.5311 26.8663 21.3019C27.3813 22.0728 27.6562 22.979 27.6562 23.9062C27.6548 25.1489 27.1605 26.3404 26.2817 27.2191C25.403 28.0979 24.2115 28.5922 22.9688 28.5937Z" fill="#004FAC"/>
<path d="M21 22L25 26" stroke="#004FAC" stroke-linecap="round" stroke-linejoin="round"/>
<path d="M21 26L25 22" stroke="#004FAC" stroke-linecap="round" stroke-linejoin="round"/>
</svg>
