<svg width="60" height="60" viewBox="0 0 60 60" fill="none" xmlns="http://www.w3.org/2000/svg">
<rect width="60" height="60" rx="6.00601" fill="#F5F4F9"/>
<g clip-path="url(#clip0)">
<path d="M43.7846 18.4146C43.3889 17.5531 42.9087 16.7235 42.3567 15.949C41.8095 15.1816 41.1873 14.4605 40.5069 13.8065C39.8257 13.1516 39.0799 12.5582 38.2902 12.0421C37.4925 11.5204 36.643 11.0729 35.764 10.7115C33.9365 9.96088 31.9997 9.57959 30.0064 9.57959C27.9603 9.57959 25.9757 9.98002 24.1068 10.7705C23.2094 11.1502 22.3431 11.6208 21.5327 12.1681C20.7302 12.7105 19.9756 13.3327 19.2896 14.0186C18.6036 14.7047 17.9815 15.4593 17.439 16.2617C16.8918 17.0721 16.422 17.9377 16.0415 18.8359C15.2518 20.7048 14.8506 22.6894 14.8506 24.7355C14.8538 25.8737 15.0731 27.1596 15.5023 28.5579C15.8868 29.8118 16.434 31.159 17.1758 32.6771C18.1147 34.5899 19.3415 36.6973 20.8228 38.942C22.0001 40.7256 23.3482 42.6113 24.8303 44.5473C26.2058 46.343 27.4288 47.8313 28.2671 48.8252H23.4655C23.0249 48.8252 22.6678 49.1824 22.6678 49.6229C22.6678 50.0635 23.0249 50.4206 23.4655 50.4206H36.5473C36.9878 50.4206 37.345 50.0635 37.345 49.6229C37.345 49.1824 36.9878 48.8252 36.5473 48.8252H31.7459C32.6614 47.7399 34.0421 46.0571 35.5837 44.0201C37.1751 41.9158 38.5981 39.8849 39.813 37.9833C41.3445 35.5862 42.5673 33.3608 43.448 31.3681C43.625 30.9661 43.4424 30.4938 43.0403 30.316C42.9374 30.2713 42.8298 30.2482 42.7189 30.2482C42.4022 30.2482 42.1158 30.4349 41.9882 30.7245C40.0722 35.0701 36.7563 39.8298 34.3122 43.0572C32.9235 44.891 31.6631 46.4369 30.8503 47.4101C30.5576 47.7603 30.2736 48.0961 30.0064 48.4072C28.8123 47.016 25.7277 43.326 22.8146 39.0473C20.9241 36.2714 19.4276 33.7228 18.3659 31.4718C17.1048 28.8068 16.4403 26.4776 16.4459 24.7355C16.4467 21.114 17.857 17.7088 20.4175 15.1466C22.9796 12.5859 26.3849 11.1749 30.0064 11.1749H30.008C37.2971 11.1749 43.2477 16.8751 43.5548 24.1522C43.5724 24.5805 43.9397 24.916 44.3681 24.916C44.8076 24.8977 45.1669 24.5247 45.1486 24.0852C45.0648 22.1094 44.6062 20.2014 43.7846 18.4146Z" fill="#1A75CF"/>
<path d="M43.9346 28.4669C44.3752 28.4669 44.7323 28.1098 44.7323 27.6693C44.7323 27.2287 44.3752 26.8716 43.9346 26.8716C43.4941 26.8716 43.137 27.2287 43.137 27.6693C43.137 28.1098 43.4941 28.4669 43.9346 28.4669Z" fill="#1A75CF"/>
<path d="M30.6508 18.354H27.9324C27.511 18.354 27.164 18.681 27.1348 19.0949V29.9203C27.1348 30.3607 27.4919 30.7179 27.9324 30.7179C28.373 30.7179 28.7301 30.3607 28.7301 29.9203V26.3307H30.6508C32.8465 26.3307 34.6329 24.5588 34.6329 22.3807C34.6329 20.1981 32.8093 18.354 30.6508 18.354ZM30.6508 24.7354H28.7301V19.9493H30.6508C31.9446 19.9493 33.0375 21.0628 33.0375 22.3807C33.0375 23.6791 31.9668 24.7354 30.6508 24.7354Z" fill="#1A75CF"/>
<path d="M30.0065 13.5679C23.8389 13.5679 18.8391 18.5677 18.8391 24.7353C18.8391 30.9029 23.8389 35.9027 30.0065 35.9027C36.1741 35.9027 41.1739 30.9029 41.1739 24.7353C41.1739 18.5677 36.1741 13.5679 30.0065 13.5679ZM30.0065 34.3074C24.72 34.3074 20.4345 30.0218 20.4345 24.7353C20.4345 19.4488 24.72 15.1632 30.0065 15.1632C35.293 15.1632 39.5786 19.4488 39.5786 24.7353C39.5786 30.0218 35.293 34.3074 30.0065 34.3074Z" fill="#15AE00"/>
</g>
<defs>
<clipPath id="clip0">
<rect width="40.8408" height="40.8408" fill="white" transform="translate(9.57959 9.57959)"/>
</clipPath>
</defs>
</svg>
