<svg width="80" height="80" viewBox="0 0 80 80" fill="none" xmlns="http://www.w3.org/2000/svg">
<rect width="80" height="80" rx="40" fill="#46CCE3"/>
<path d="M41.957 60.2874H25.6455L26.7215 59.98C28.0971 59.5883 29.3577 58.8452 30.3677 57.8342C31.251 56.9509 31.8145 55.8325 32.0002 54.6205C33.96 53.6151 35.7014 52.2043 37.0428 50.5336L62.0309 18.6082C62.7224 17.2827 61.4546 17.7432 60.4749 18.6079C46.1827 30.5949 42.6673 32.6684 42.6673 32.6684L29.1835 43.0613C27.6174 44.4142 26.3146 46.1101 25.3876 47.9915C24.1699 48.1747 23.0467 48.7388 22.1592 49.6256C21.1482 50.6365 20.4062 51.8971 20.0134 53.2718L17.8086 60.9889C17.8069 60.9948 17.8063 61.0009 17.8048 61.0068C17.7969 61.0364 17.7905 61.0666 17.7854 61.0972C17.7835 61.109 17.7815 61.1206 17.78 61.1324C17.7762 61.1625 17.774 61.1929 17.773 61.2238C17.7727 61.2327 17.7717 61.2415 17.7716 61.2503C17.7716 61.2518 17.7714 61.2532 17.7714 61.2546C17.7714 61.2918 17.7739 61.3283 17.778 61.3644C17.7792 61.374 17.781 61.3834 17.7824 61.393C17.7868 61.4231 17.7923 61.4527 17.7994 61.4817C17.8018 61.4916 17.8042 61.5014 17.807 61.5114C17.8161 61.5444 17.8267 61.5768 17.8391 61.6084C17.8407 61.6126 17.842 61.6168 17.8437 61.621C17.8588 61.6578 17.8764 61.6936 17.8957 61.728C17.8988 61.7336 17.9024 61.7389 17.9056 61.7444C17.9226 61.7731 17.9409 61.8008 17.9606 61.8275C17.966 61.8348 17.9713 61.8422 17.9769 61.8493C18.021 61.9058 18.0707 61.9576 18.1261 62.0031C18.1303 62.0064 18.1347 62.0093 18.1388 62.0126C18.1593 62.0289 18.1802 62.0447 18.202 62.0593C18.2093 62.0643 18.2171 62.0683 18.2246 62.073C18.2438 62.0851 18.2631 62.0972 18.2831 62.1079C18.2911 62.1122 18.2995 62.1157 18.3075 62.1197C18.3276 62.1297 18.3477 62.1398 18.3685 62.1484C18.3773 62.152 18.3863 62.1547 18.3951 62.1581C18.4157 62.1659 18.4361 62.1738 18.4572 62.1801C18.4688 62.1837 18.4807 62.1861 18.4924 62.1892C18.5109 62.194 18.5292 62.1993 18.5482 62.2031C18.569 62.2073 18.5899 62.2099 18.6109 62.2127C18.6212 62.2141 18.6312 62.2162 18.6415 62.2172C18.6738 62.2205 18.7065 62.2223 18.7392 62.2223C18.7401 62.2223 18.741 62.222 18.7418 62.222H41.9569C42.4909 62.222 42.9242 61.7887 42.9242 61.2547C42.9242 60.7207 42.491 60.2874 41.957 60.2874ZM30.4459 44.5269L56.4984 23.6205L35.5558 49.2963C34.5545 50.5431 33.3158 51.6152 31.9255 52.4493C31.6874 51.388 31.1553 50.4132 30.3677 49.6256C29.578 48.836 28.6005 48.3035 27.5361 48.0666C28.3028 46.7242 29.2773 45.5369 30.4459 44.5269ZM21.8738 53.8039C22.1766 52.7445 22.7484 51.7732 23.5271 50.9944V50.9935C24.2584 50.2631 25.2307 49.8606 26.2639 49.8606C27.2971 49.8606 28.2694 50.2631 28.9998 50.9935C29.7302 51.7248 30.1336 52.6961 30.1336 53.7303C30.1336 54.7635 29.7302 55.7358 28.9998 56.4662C28.221 57.246 27.2497 57.8178 26.1894 58.1205L20.1479 59.8464L21.8738 53.8039Z" fill="white"/>
<path d="M55.5011 60.2876H45.8269C45.2929 60.2876 44.8595 60.721 44.8595 61.255C44.8595 61.789 45.2929 62.2223 45.8269 62.2223H55.5011C56.0351 62.2223 56.4684 61.789 56.4684 61.255C56.4684 60.721 56.0351 60.2876 55.5011 60.2876Z" fill="white"/>
</svg>
