<svg width="19" height="18" viewBox="0 0 19 18" fill="none" xmlns="http://www.w3.org/2000/svg">
<path d="M18.0018 13.5138L15.4002 10.8994C15.0508 10.5503 14.583 10.3579 14.083 10.3579C13.5628 10.3579 13.0715 10.5637 12.7001 10.937L11.6874 11.954C10.9005 11.5146 9.85458 10.9103 8.76868 9.81956C7.68405 8.72968 7.08239 7.68213 6.64276 6.8874L7.65643 5.86993C8.41007 5.11132 8.42548 3.89429 7.69091 3.15708L5.08984 0.544231C4.74143 0.193278 4.27357 0 3.77236 0C3.26371 0 2.78253 0.196719 2.41326 0.554777C2.18988 0.735489 1.06883 1.72956 0.651023 3.77962C0.0660412 6.6491 1.4101 9.40997 5.29022 13.3091C9.62463 17.6617 13.3249 18 14.3558 18C14.5704 18 14.6999 17.9867 14.7344 17.9826C16.7559 17.7446 17.4797 16.8429 18.0081 16.1844C18.6929 15.3311 18.6905 14.2082 18.0018 13.5138ZM17.1385 15.4802C16.6418 16.0991 16.1727 16.6836 14.6045 16.8682C14.6037 16.8683 14.5179 16.878 14.3558 16.878C13.4335 16.878 10.1108 16.5634 6.08005 12.5157C2.50188 8.91997 1.24598 6.4541 1.74526 4.00461C2.10968 2.21649 3.07718 1.45647 3.11478 1.4276L3.14814 1.40284L3.1774 1.37337C3.33891 1.21128 3.55017 1.12197 3.77229 1.12197C3.97453 1.12197 4.16158 1.19812 4.29949 1.33709L6.90115 3.95053C7.20049 4.25092 7.18456 4.75641 6.86608 5.07699L5.71972 6.22754L5.70088 6.24736C5.40214 6.57789 5.43728 7.02458 5.60185 7.31547C6.0767 8.17625 6.72713 9.35514 7.9787 10.6127C9.22611 11.8657 10.398 12.5186 11.2525 12.9947C11.3381 13.0429 11.5147 13.1238 11.7358 13.1238C11.9969 13.1238 12.2366 13.0128 12.414 12.8105L13.4899 11.7301C13.6505 11.5687 13.8611 11.4798 14.0829 11.4798C14.2856 11.4798 14.4736 11.5561 14.6112 11.6936L17.2111 14.3063C17.5413 14.6392 17.405 15.1482 17.1385 15.4802Z" fill="white"/>
</svg>
