<svg width="80" height="81" viewBox="0 0 80 81" fill="none" xmlns="http://www.w3.org/2000/svg">
<rect y="0.5" width="80" height="80" rx="40" fill="#2ADAF8"/>
<g clip-path="url(#clip0)">
<path d="M58.6692 15.6567C55.8317 15.6567 53.3625 17.6234 52.6816 20.3241H38.7337C37.7079 20.3241 36.7433 20.7236 36.0178 21.449L16.0529 41.414C14.8587 42.6083 14.8587 44.5515 16.0529 45.7457L34.7547 64.4475C35.3519 65.0447 36.1363 65.3432 36.9206 65.3432C37.7049 65.3432 38.4893 65.0447 39.0864 64.4475L59.0514 44.4825C59.7768 43.757 60.1763 42.7926 60.1763 41.7666V29.1123C60.7762 28.8039 61.3435 28.4455 61.8614 28.0328C63.8124 26.4783 64.8437 24.3337 64.8437 21.8313C64.8437 18.4266 62.0738 15.6567 58.6692 15.6567ZM58.7178 41.7667C58.7178 42.403 58.47 43.0012 58.02 43.4512L38.055 63.4162C37.4294 64.0419 36.4116 64.0419 35.786 63.4162L17.0842 44.7144C16.4587 44.0888 16.4587 43.071 17.0842 42.4454L37.0492 22.4804C37.4992 22.0304 38.0974 21.7826 38.7337 21.7826H57.1134C57.9981 21.7826 58.7178 22.5024 58.7178 23.387V28.1783C57.4456 28.7022 56.0443 29.0039 54.6977 29.1121C54.4526 27.229 52.8392 25.7693 50.8903 25.7693C48.7724 25.7693 47.0494 27.4924 47.0494 29.6102C47.0494 31.728 48.7724 33.451 50.8903 33.451C52.6712 33.451 54.1726 32.2325 54.6053 30.5854C55.9698 30.4948 57.3879 30.2235 58.7178 29.7445V41.7667ZM50.7273 30.3211C51.433 30.4828 52.2206 30.5806 53.0518 30.6099C52.6732 31.4254 51.8469 31.9926 50.8902 31.9926C49.5766 31.9926 48.5079 30.9239 48.5079 29.6103C48.5079 28.2967 49.5766 27.228 50.8902 27.228C52.0477 27.228 53.0145 28.0579 53.2281 29.1538C52.4423 29.1348 51.7027 29.0483 51.0531 28.8994C50.6607 28.8092 50.2693 29.0547 50.1794 29.4473C50.0894 29.8399 50.3347 30.231 50.7273 30.3211ZM60.9524 26.8921C60.7071 27.0876 60.4473 27.2689 60.1763 27.4374V23.387C60.1763 21.6981 58.8023 20.3241 57.1134 20.3241H54.1998C54.8359 18.4467 56.6281 17.1153 58.6692 17.1153C61.2696 17.1153 63.3852 19.2309 63.3852 21.8313C63.3852 23.9032 62.5666 25.6059 60.9524 26.8921Z" fill="white"/>
</g>
<defs>
<clipPath id="clip0">
<rect width="49.6865" height="49.6865" fill="white" transform="translate(15.1567 15.6567)"/>
</clipPath>
</defs>
</svg>
