<svg width="80" height="80" viewBox="0 0 80 80" fill="none" xmlns="http://www.w3.org/2000/svg">
<rect width="80" height="80" rx="40" fill="#15AE00"/>
<path d="M60.166 25.2567C61.8706 27.3706 63.0337 29.8337 63.619 32.5721C64.2025 35.3023 64.1768 38.1687 63.5428 41.0913C62.3657 46.5158 59.1848 51.5843 54.5857 55.3633C49.9599 59.1645 44.3914 61.2578 38.9063 61.2578C36.0228 61.2578 33.3131 60.6862 30.8522 59.5588C28.3987 58.4346 26.3094 56.8163 24.6423 54.7488C22.9334 52.6293 21.7701 50.1662 21.1849 47.4279C21.1662 47.3402 21.1498 47.252 21.1323 47.164H16.9911C16.4226 47.164 15.9617 46.7031 15.9617 46.1346C15.9617 45.5661 16.4226 45.1052 16.9911 45.1052H20.8399C20.6651 43.0886 20.8045 41.0133 21.2612 38.9086C22.2969 34.1347 24.8856 29.6368 28.6264 26.0506H18.2316C17.6631 26.0506 17.2022 25.5898 17.2022 25.0213C17.2022 24.4528 17.6631 23.9919 18.2316 23.9919H31.0343C35.4911 20.5999 40.731 18.7422 45.8975 18.7422C48.1602 18.7422 50.3322 19.0984 52.3532 19.8009C52.8903 19.9875 53.1741 20.5741 52.9875 21.1112C52.8008 21.6482 52.2143 21.9324 51.6773 21.7456C49.8742 21.1188 47.9296 20.801 45.8975 20.801C40.8878 20.801 35.7836 22.7281 31.5252 26.2273C27.2827 29.7133 24.3522 34.372 23.2731 39.3453C22.847 41.3088 23.0549 45.2972 23.236 47.164C23.7641 49.5168 24.775 51.6336 26.2448 53.4566C27.71 55.2737 29.5486 56.697 31.7095 57.6871C33.8995 58.6903 36.3207 59.199 38.9062 59.199C43.9159 59.199 49.0202 57.272 53.2786 53.7728C57.5209 50.2868 60.4517 45.6282 61.5308 40.6548C62.1026 38.0196 62.1277 35.4449 61.6057 33.0023C61.0885 30.5824 60.0635 28.4093 58.559 26.5435L58.5444 26.5257C58.1906 26.0808 58.2645 25.4332 58.7095 25.0793C59.1533 24.7264 59.7984 24.799 60.1529 25.2406L60.166 25.2567Z" fill="white"/>
<path d="M37.6131 47.299C37.9341 47.299 38.2569 47.192 38.5244 46.9723L44.2494 42.2683C44.4994 42.0629 44.6727 41.7792 44.7413 41.463L47.6237 28.1786C47.792 27.4032 47.2998 26.6382 46.5244 26.47C45.7493 26.3016 44.984 26.794 44.8158 27.5693L42.0392 40.3655L36.7002 44.7523C36.0872 45.256 35.9986 46.1614 36.5024 46.7744C36.7863 47.12 37.198 47.299 37.6131 47.299Z" fill="white"/>
<path d="M22.3936 34.9072H17.0355C16.467 34.9072 16.0061 35.3681 16.0061 35.9366C16.0061 36.5051 16.467 36.9659 17.0355 36.9659H22.3936C22.9622 36.9659 23.423 36.5051 23.423 35.9366C23.423 35.3681 22.9622 34.9072 22.3936 34.9072Z" fill="white"/>
</svg>
