<svg width="80" height="80" viewBox="0 0 80 80" fill="none" xmlns="http://www.w3.org/2000/svg">
<rect width="80" height="80" rx="40" fill="#913BFF"/>
<path d="M24.8523 20.7634C24.472 20.7634 24.1642 21.0712 24.1642 21.4514V25.909H22.5502V21.1949C22.5502 20.8147 22.2424 20.5068 21.8622 20.5068C21.482 20.5068 21.1742 20.8147 21.1742 21.1949V25.909H19.5601V21.1949C19.5601 20.8147 19.2523 20.5068 18.8721 20.5068C18.4919 20.5068 18.1841 20.8147 18.1841 21.1949V30.1171C18.1841 30.9724 18.6593 31.85 19.339 32.251C19.5401 32.3693 19.8805 33.1104 19.8805 33.5203V38.6902C19.8805 42.9363 19.8429 47.095 19.3885 51.293C19.1076 53.8861 18.9524 56.0792 18.9524 56.6038C18.9524 58.288 20.2306 59.6071 21.8622 59.6071C23.4938 59.6071 24.772 58.288 24.772 56.6038C24.772 56.0792 24.6168 53.8864 24.3359 51.293C23.8815 47.0946 23.8439 42.936 23.8439 38.6906V33.559C23.8439 33.0813 24.2201 32.3912 24.6333 32.1113C25.302 31.6583 25.5403 30.7843 25.5403 30.1174V21.4514C25.5403 21.0712 25.2321 20.7634 24.8523 20.7634ZM21.8622 58.2311C20.9878 58.2311 20.3284 57.5316 20.3284 56.6034C20.3284 56.1817 20.4754 54.0369 20.7563 51.441C21.2182 47.1749 21.2566 42.9754 21.2566 38.6902V34.2187L22.4674 34.237V38.6906C22.4674 42.975 22.5058 47.1742 22.9677 51.441C23.249 54.0369 23.3959 56.1817 23.3959 56.6034C23.3959 57.5316 22.7366 58.2311 21.8622 58.2311ZM24.1642 30.1171C24.1642 30.4876 24.0341 30.8553 23.8618 30.9721C23.2583 31.3803 22.7677 32.1199 22.5663 32.862L21.1595 32.8412C20.9864 32.165 20.59 31.3914 20.0382 31.0656C19.7791 30.9126 19.5601 30.4783 19.5601 30.1171V27.285H24.1642V30.1171Z" fill="white"/>
<path d="M40.5 59C48.4954 59 55 52.4953 55 44.4998C55 36.5047 48.4954 30 40.5 30C32.505 30 26 36.5047 26 44.4998C26 52.4953 32.505 59 40.5 59ZM40.5 31.5523C47.6396 31.5523 53.4477 37.3605 53.4477 44.4998C53.4477 51.6395 47.6396 57.4477 40.5 57.4477C33.3608 57.4477 27.5523 51.6395 27.5523 44.4998C27.5523 37.3605 33.3608 31.5523 40.5 31.5523Z" fill="white"/>
<path d="M61.816 20.937C61.8156 20.689 61.6433 20.4607 61.4275 20.3389C61.2118 20.2171 60.9474 20.2206 60.7349 20.3486C57.7688 22.1303 55.9265 25.387 55.9265 28.8472V39.4235C55.9265 39.8726 56.148 40.3144 56.55 40.6677C56.9113 40.9856 57.3929 41.2103 57.8777 41.3049V43.9312C57.8777 46.3859 57.4534 50.1185 57.1435 52.8441C56.9453 54.5864 56.7891 55.9625 56.7891 56.5659C56.7891 59.5202 58.6908 59.7495 59.2735 59.7495C60.5026 59.7495 61.816 58.9135 61.816 56.5631C61.8156 56.534 61.816 20.937 61.816 20.937ZM57.3026 39.4235V28.8472C57.3026 26.2954 58.4658 23.8726 60.4037 22.2654C60.4123 27.3106 60.4195 34.4224 60.4252 39.9335L58.5536 39.9672C58.5281 39.9675 58.5027 39.9693 58.4776 39.9725C58.1623 40.0141 57.7244 39.8679 57.4585 39.6342C57.3302 39.5217 57.3026 39.4382 57.3026 39.4235ZM59.2735 58.3734C58.9994 58.3734 58.1651 58.3734 58.1651 56.5659C58.1651 56.0406 58.3253 54.6312 58.5109 52.9993C58.8245 50.2411 59.2538 46.4637 59.2538 43.9309V41.3307L60.4027 41.3103C60.4267 53.6117 60.4399 56.5405 60.4399 56.5659C60.4399 57.3909 60.2375 58.3734 59.2735 58.3734Z" fill="white"/>
</svg>
