<svg width="80" height="80" viewBox="0 0 80 80" fill="none" xmlns="http://www.w3.org/2000/svg">
<rect width="80" height="80" rx="40" fill="#2ADAF8"/>
<path d="M67.3096 45.7924C67.1215 44.7434 66.1606 43.7488 65.1181 43.5315L61.9406 42.938L61.2595 41.5401C61.2386 41.5003 61.2157 41.4648 61.1864 41.4293C61.7087 40.723 62.1599 39.8746 62.4023 39.0534C63.1334 38.7922 63.7142 38.1758 63.8876 37.4862C64.1341 36.4915 63.873 35.593 63.3173 35.3527V34.0383C63.3173 30.7743 60.8333 28.4068 57.4051 28.4068C53.979 28.4068 51.493 30.7743 51.493 34.0383L51.5849 35.1855C50.9331 35.593 50.6699 36.4957 50.9206 37.4841C51.094 38.1778 51.6768 38.7943 52.2952 38.9406C52.6399 39.8663 53.0953 40.7251 53.6197 41.4335C53.5883 41.469 53.5695 41.5024 53.5487 41.5401L53.0034 42.8293L49.6859 43.5315C48.9296 43.6903 48.2214 44.2691 47.8141 44.9691L46.8886 44.7748L45.8127 42.5723C45.7563 42.4511 45.6581 42.3696 45.5495 42.3111C46.4875 41.0991 47.2417 39.6615 47.7827 38.2217C48.7186 37.8832 49.6608 37.0474 49.9345 35.9566C50.3001 34.5127 49.9157 33.2213 49.0195 32.6592V30.5904C49.0195 25.6109 45.2215 22 39.9904 22C34.7593 22 30.9655 25.615 30.9655 30.5904V32.6592C30.0692 33.2192 29.6848 34.5085 30.0483 35.9566C30.322 37.0453 31.2705 37.8874 32.2127 38.2259C32.7475 39.6657 33.4933 41.1033 34.4313 42.3153C34.3247 42.3759 34.2307 42.4553 34.1743 42.5723L33.1005 44.7748L32.1792 44.9712C31.7739 44.2691 31.0657 43.6965 30.3074 43.5336L27.1278 42.9401L26.4467 41.5421C26.4279 41.5045 26.4029 41.4669 26.3736 41.4314C26.8959 40.7251 27.3471 39.8767 27.5874 39.0555C28.3186 38.7943 28.9014 38.1778 29.0727 37.4883C29.3213 36.4936 29.0602 35.5951 28.4982 35.3548V34.0404C28.4982 30.7764 26.0122 28.4089 22.5861 28.4089C19.162 28.4089 16.676 30.7764 16.676 34.0404L16.7679 35.1876C16.114 35.5951 15.8529 36.4978 16.1015 37.4862C16.2749 38.1799 16.8598 38.7964 17.4761 38.9427C17.8208 39.8684 18.2763 40.7272 18.7985 41.4356C18.7693 41.469 18.7463 41.5045 18.7275 41.5421L18.1822 42.8293L14.8668 43.5315C13.8244 43.7488 12.8634 44.7434 12.6775 45.7924L12.0319 49.4096C11.9316 49.9759 12.0695 50.5233 12.4184 50.9371C12.7673 51.3529 13.2791 51.5849 13.8557 51.5849H24.2239L23.6306 54.9178C23.4906 55.7265 23.6787 56.4976 24.1717 57.0847C24.6626 57.6677 25.3855 58 26.2065 58H53.791C54.6141 58 55.3327 57.674 55.8279 57.0847C56.3188 56.4996 56.5131 55.7286 56.3689 54.9199L55.7756 51.587H66.1459C66.7204 51.587 67.2344 51.3613 67.5832 50.935C67.9321 50.5212 68.0658 49.9759 67.9697 49.4117L67.3096 45.7924ZM53.275 38.088L53.1852 37.9208L53.0138 37.9605C52.7569 37.9605 52.2012 37.6492 52.0925 37.1936C51.9588 36.6503 52.103 36.247 52.4184 36.2303L52.7047 36.3808V34.0425C52.7047 31.4388 54.635 29.6229 57.403 29.6229C60.1711 29.6229 62.1014 31.4388 62.1014 34.0425V36.059L62.2477 36.3557L62.536 36.2052C62.7031 36.2491 62.8472 36.6503 62.7115 37.1978C62.5986 37.6429 62.0408 37.9647 61.7567 37.9647L61.5854 37.9313L61.5332 38.0943C61.0255 39.6343 59.9664 41.5275 58.5186 42.1941C58.153 42.3654 57.7791 42.4511 57.403 42.4511C57.0207 42.4511 56.6447 42.3655 56.2749 42.2004C54.8251 41.5317 53.7764 39.6385 53.275 38.088ZM60.7937 43.3183L58.4873 44.6557L58.1572 43.9891L60.4657 42.6475L60.7937 43.3183ZM56.6405 43.9828L56.3146 44.6494L54.2297 43.4458L53.9853 43.3559L54.33 42.6413L56.6405 43.9828ZM45.6581 45.1676L45.7521 45.3599L45.1484 45.7109L41.5718 47.7797L40.7821 46.1686L42.5265 45.1614L43.3538 44.6828L44.179 44.2043L44.9687 43.7467L45.3071 44.4404L45.6581 45.1676ZM33.1862 37.0766C32.6869 37.1832 31.5358 36.5542 31.3081 35.6431C31.0741 34.7133 31.2976 33.844 31.8032 33.6977C31.9536 33.6538 32.1082 33.6893 32.2649 33.7708V30.5904C32.2649 26.0894 35.7244 23.2977 39.9904 23.2977C44.2584 23.2977 47.718 26.0894 47.718 30.5904V33.7708C47.8705 33.6893 48.0251 33.6538 48.1797 33.6977C48.6852 33.8377 48.9108 34.707 48.6748 35.6431C48.4492 36.5459 47.3043 37.1665 46.8029 37.0766C46.0195 39.4567 44.3274 42.6099 41.8768 43.7404C41.2919 44.0142 40.6589 44.1646 39.9883 44.1646C39.3072 44.1646 38.6722 44.0142 38.0809 43.7446C35.6325 42.6246 33.9738 39.5131 33.1862 37.0766ZM34.3247 45.1676L34.6778 44.4404L35.0162 43.7467L35.8059 44.2043L36.6311 44.6828L37.4563 45.1614L39.2007 46.1686L38.4131 47.7797L34.8366 45.7109L34.2307 45.3599L34.3247 45.1676ZM18.4601 38.088L18.3703 37.9208L18.1969 37.9605C17.9399 37.9605 17.3863 37.6492 17.2735 37.1936C17.1356 36.6503 17.2839 36.247 17.5994 36.2303L17.8835 36.3808V34.0425C17.8835 31.4388 19.8159 29.6229 22.5819 29.6229C25.3499 29.6229 27.2824 31.4388 27.2824 34.0425V36.059L27.4307 36.3557L27.7169 36.2052C27.8819 36.2491 28.0303 36.6503 27.8924 37.1978C27.7817 37.6429 27.2218 37.9647 26.9377 37.9647L26.7664 37.9313L26.712 38.0943C26.2044 39.6343 25.1452 41.5275 23.6954 42.1941C23.3319 42.3654 22.9579 42.4511 22.5798 42.4511C22.1996 42.4511 21.8215 42.3655 21.4517 42.2004C20.0081 41.5317 18.9615 39.6385 18.4601 38.088ZM25.9767 43.3183L23.6682 44.6557L23.3402 43.987L25.6508 42.6455L25.9767 43.3183ZM21.8256 43.9828L21.4976 44.6494L19.4148 43.4458L19.1683 43.3559L19.5151 42.6413L21.8256 43.9828ZM24.4307 50.3938H18.2178V48.6427C18.2178 48.3167 17.9504 48.0471 17.6203 48.0471C17.2902 48.0471 17.0228 48.3167 17.0228 48.6427V50.3938H13.8515C13.6343 50.3938 13.4483 50.3165 13.3293 50.1744C13.2102 50.0385 13.1663 49.84 13.206 49.6227L13.8494 46.0035C13.9518 45.433 14.5409 44.8249 15.1092 44.7016L18.1091 44.0685L21.4559 46.0077C21.5227 46.0515 21.5958 46.0724 21.7462 46.0724C21.7964 46.0724 21.8591 46.0683 21.9322 46.0641C22.0889 46.016 22.2205 45.9011 22.2936 45.7548L22.5861 45.1551L22.8785 45.7548C22.9496 45.9011 23.0833 46.016 23.4154 46.0892C23.522 46.0892 23.6223 46.0599 23.7163 46.0077L26.9753 44.0476L30.063 44.6996C30.368 44.7602 30.6709 44.9733 30.909 45.2345L27.8652 45.8802C26.3339 46.202 24.9196 47.6647 24.6459 49.2027L24.4307 50.3938ZM54.8418 56.2677C54.5974 56.5623 54.2213 56.7253 53.7826 56.7253H48.47V53.6557C48.47 53.3046 48.1838 53.0163 47.8308 53.0163C47.4798 53.0163 47.1936 53.3046 47.1936 53.6557V56.7253H32.783V53.6557C32.783 53.3046 32.4968 53.0163 32.1458 53.0163C31.7948 53.0163 31.5086 53.3046 31.5086 53.6557V56.7253H26.196C25.7594 56.7253 25.3834 56.5623 25.1369 56.2677C24.8903 55.971 24.7963 55.5781 24.8736 55.1456L25.5066 51.5911L25.7197 50.398L25.8931 49.4284C26.077 48.3982 27.0964 47.3429 28.1222 47.1256L31.3916 46.436L32.5615 46.1915L32.9961 46.0975C33.0232 46.1184 33.042 46.1435 33.0754 46.1665L38.3609 49.2236C38.4591 49.2779 38.5677 49.3093 38.6784 49.3093C38.7411 49.3093 38.8038 49.3009 38.8644 49.2821C39.0336 49.2319 39.1735 49.1108 39.2508 48.954L39.9904 47.437L40.7299 48.954C40.8072 49.1108 40.9472 49.2319 41.1164 49.2821C41.1749 49.3009 41.2397 49.3093 41.3023 49.3093C41.4131 49.3093 41.5196 49.2779 41.6199 49.2236L46.9053 46.1665C46.9387 46.1435 46.9554 46.1184 46.9826 46.0975L47.4171 46.1874L48.5912 46.436L51.8544 47.1256C52.8801 47.3429 53.8996 48.3919 54.0835 49.4284L54.2569 50.398L54.472 51.5911L55.105 55.1456C55.1823 55.5781 55.0904 55.9731 54.8418 56.2677ZM66.6515 50.1744C66.5345 50.3144 66.3486 50.3917 66.1292 50.3917H62.9601V48.6385C62.9601 48.3146 62.6926 48.045 62.3626 48.045C62.0325 48.045 61.7651 48.3146 61.7651 48.6385V50.3917H55.55L55.3327 49.2069C55.0591 47.6647 53.6447 46.1999 52.1134 45.8781L49.0738 45.2303C49.3099 44.9691 49.6149 44.7581 49.9178 44.6954L52.9177 44.0601L56.2666 46.0014C56.3334 46.0453 56.4045 46.0641 56.5549 46.0641C56.6071 46.0641 56.6698 46.0599 56.7429 46.0557C56.8975 46.0098 57.0333 45.8948 57.1043 45.7485L57.401 45.1488L57.6955 45.7485C57.7665 45.8948 57.9002 46.0098 58.2324 46.0829C58.339 46.0829 58.4413 46.0515 58.5353 46.0014L61.7964 44.0413L64.8841 44.6933C65.4524 44.8124 66.0415 45.4205 66.1459 45.9951L66.7894 49.6123C66.8144 49.84 66.7706 50.0365 66.6515 50.1744Z" fill="white"/>
</svg>
