<svg width="80" height="80" viewBox="0 0 80 80" fill="none" xmlns="http://www.w3.org/2000/svg">
<rect width="80" height="80" rx="40" fill="#FF5630"/>
<path d="M59.7902 20.1777H20.2098C19.494 20.1777 18.8076 20.4625 18.3015 20.9694C17.7954 21.4764 17.5111 22.1639 17.5111 22.8808V57.1191C17.5111 57.836 17.7954 58.5236 18.3015 59.0305C18.8076 59.5374 19.494 59.8222 20.2098 59.8222H59.7902C60.506 59.8222 61.1924 59.5374 61.6985 59.0305C62.2046 58.5236 62.4889 57.836 62.4889 57.1191V22.8808C62.4889 22.1639 62.2046 21.4764 61.6985 20.9694C61.1924 20.4625 60.506 20.1777 59.7902 20.1777ZM20.2098 21.9798H59.7902C60.0288 21.9798 60.2576 22.0747 60.4263 22.2437C60.595 22.4126 60.6898 22.6418 60.6898 22.8808V25.5838H19.3102V22.8808C19.3102 22.6418 19.405 22.4126 19.5737 22.2437C19.7424 22.0747 19.9712 21.9798 20.2098 21.9798ZM59.7902 58.0202H20.2098C19.9712 58.0202 19.7424 57.9252 19.5737 57.7563C19.405 57.5873 19.3102 57.3581 19.3102 57.1191V27.3858H60.6898V57.1191C60.6898 57.3581 60.595 57.5873 60.4263 57.7563C60.2576 57.9252 60.0288 58.0202 59.7902 58.0202ZM32.6146 35.1435L26.7495 42.703L32.6146 50.2625C32.7432 50.4523 32.7945 50.684 32.7584 50.9105C32.7222 51.137 32.6011 51.3411 32.4199 51.4813C32.2386 51.6214 32.0109 51.6871 31.783 51.6649C31.5551 51.6427 31.3442 51.5342 31.1933 51.3617L24.8965 43.2526C24.7754 43.0951 24.7097 42.9018 24.7097 42.703C24.7097 42.5042 24.7754 42.3109 24.8965 42.1534L31.1933 34.0443C31.2623 33.9425 31.3513 33.8559 31.4549 33.7898C31.5585 33.7238 31.6745 33.6797 31.7957 33.6602C31.917 33.6408 32.0409 33.6464 32.1599 33.6768C32.2789 33.7072 32.3905 33.7616 32.4877 33.8368C32.5849 33.912 32.6657 34.0063 32.7251 34.1139C32.7845 34.2215 32.8213 34.3402 32.8332 34.4626C32.8451 34.5851 32.8319 34.7086 32.7943 34.8257C32.7567 34.9428 32.6955 35.051 32.6146 35.1435ZM55.1035 42.1534C55.2246 42.3109 55.2903 42.5042 55.2903 42.703C55.2903 42.9018 55.2246 43.0951 55.1035 43.2526C48.5638 51.4608 48.9056 51.7131 48.096 51.7131C47.8972 51.7125 47.7043 51.6459 47.5473 51.5239C47.3592 51.3778 47.2365 51.1631 47.2062 50.9267C47.1758 50.6902 47.2403 50.4514 47.3853 50.2625L53.2505 42.703L47.3853 35.1435C47.2568 34.9537 47.2055 34.7219 47.2416 34.4955C47.2778 34.269 47.3989 34.0649 47.5801 33.9247C47.7614 33.7845 47.9891 33.7189 48.217 33.7411C48.4449 33.7633 48.6558 33.8717 48.8066 34.0443L55.1035 42.1534ZM43.5982 34.8822L38.2009 51.1004C38.1245 51.3274 37.9613 51.5148 37.747 51.6212C37.5328 51.7277 37.2851 51.7445 37.0585 51.668C36.8318 51.5916 36.6448 51.4281 36.5385 51.2135C36.4322 50.9989 36.4154 50.7508 36.4917 50.5238L41.8891 34.3056C41.9269 34.1932 41.9864 34.0893 42.0643 34C42.1421 33.9106 42.2368 33.8375 42.3429 33.7848C42.449 33.7321 42.5644 33.7008 42.6826 33.6928C42.8007 33.6847 42.9193 33.7001 43.0315 33.7379C43.1437 33.7758 43.2474 33.8354 43.3366 33.9134C43.4258 33.9914 43.4988 34.0863 43.5515 34.1925C43.6041 34.2988 43.6353 34.4144 43.6433 34.5327C43.6514 34.6511 43.636 34.7698 43.5982 34.8822Z" fill="white"/>
</svg>
