<svg width="60" height="61" viewBox="0 0 60 61" fill="none" xmlns="http://www.w3.org/2000/svg">
<rect x="0.000244141" y="0.30127" width="60" height="60" rx="6.00601" fill="#F5F4F9"/>
<g clip-path="url(#clip0)">
<path d="M25.6936 38.5014C25.5393 38.5014 25.3839 38.4484 25.2571 38.3404L20.894 34.6252C20.7435 34.4969 20.657 34.3095 20.657 34.1116C20.657 33.914 20.7439 33.7267 20.894 33.5984L25.2571 29.8832C25.5405 29.6416 25.966 29.6758 26.2076 29.9592C26.4488 30.2429 26.4149 30.6684 26.1312 30.9096L22.3712 34.1116L26.1312 37.3136C26.4149 37.5551 26.4488 37.9807 26.2076 38.264C26.074 38.4209 25.8844 38.5014 25.6936 38.5014Z" fill="#2F80ED"/>
<path d="M34.3067 38.5014C34.1159 38.5014 33.9263 38.4209 33.7931 38.264C33.5515 37.9807 33.5858 37.5551 33.8691 37.3136L37.6291 34.1116L33.8691 30.9096C33.5858 30.6684 33.5515 30.2429 33.7931 29.9592C34.0343 29.6758 34.4602 29.6416 34.7431 29.8832L39.1063 33.5984C39.2568 33.7267 39.3433 33.914 39.3433 34.1116C39.3433 34.3095 39.2568 34.4969 39.1063 34.6252L34.7431 38.3404C34.6163 38.4484 34.4609 38.5014 34.3067 38.5014Z" fill="#2F80ED"/>
<path d="M28.4558 41.2883C28.4096 41.2883 28.3629 41.2834 28.3159 41.2736C27.9517 41.1968 27.7184 40.839 27.7951 40.4748L30.5144 27.5642C30.5911 27.1999 30.9486 26.9667 31.3132 27.0434C31.6774 27.1202 31.9107 27.4776 31.8339 27.8422L29.1147 40.7528C29.0477 41.0704 28.7678 41.2883 28.4558 41.2883Z" fill="#2F80ED"/>
<path d="M45.8937 48.322H14.1072C11.6111 48.322 9.58008 46.2914 9.58008 43.7949V16.8162C9.58008 14.3201 11.6111 12.2891 14.1072 12.2891H45.8937C48.3899 12.2891 50.4209 14.3201 50.4209 16.8162V43.7949C50.4209 46.2914 48.3899 48.322 45.8937 48.322ZM14.1072 13.6376C12.3546 13.6376 10.9286 15.0636 10.9286 16.8162V43.7949C10.9286 45.5475 12.3546 46.9735 14.1072 46.9735H45.8937C47.6464 46.9735 49.0724 45.5475 49.0724 43.7949V16.8162C49.0724 15.0636 47.6464 13.6376 45.8937 13.6376H14.1072Z" fill="#2F80ED"/>
<path d="M49.7467 23.0858H10.2543C9.88184 23.0858 9.58008 22.7841 9.58008 22.4116C9.58008 22.0394 9.88184 21.7373 10.2543 21.7373H49.7467C50.1192 21.7373 50.4209 22.0394 50.4209 22.4116C50.4209 22.7841 50.1192 23.0858 49.7467 23.0858Z" fill="#2F80ED"/>
<path d="M21.1006 19.8593C19.9244 19.8593 18.9668 18.9018 18.9668 17.7256C18.9668 16.549 19.9244 15.5918 21.1006 15.5918C22.2771 15.5918 23.2343 16.549 23.2343 17.7256C23.2343 18.9018 22.2771 19.8593 21.1006 19.8593ZM21.1006 16.9403C20.6679 16.9403 20.3153 17.2925 20.3153 17.7256C20.3153 18.1586 20.6679 18.5108 21.1006 18.5108C21.5336 18.5108 21.8858 18.1586 21.8858 17.7256C21.8858 17.2925 21.5336 16.9403 21.1006 16.9403Z" fill="#15AE00"/>
<path d="M14.5444 19.8388C13.3679 19.8388 12.4106 18.8816 12.4106 17.7051C12.4106 16.5285 13.3679 15.5713 14.5444 15.5713C15.721 15.5713 16.6782 16.5285 16.6782 17.7051C16.6782 18.8816 15.721 19.8388 14.5444 19.8388ZM14.5444 16.9198C14.1117 16.9198 13.7592 17.2724 13.7592 17.7051C13.7592 18.1381 14.1117 18.4903 14.5444 18.4903C14.9775 18.4903 15.3297 18.1381 15.3297 17.7051C15.3297 17.2724 14.9775 16.9198 14.5444 16.9198Z" fill="#15AE00"/>
<path d="M27.6563 19.8795C26.4802 19.8795 25.5229 18.9223 25.5229 17.7457C25.5229 16.5695 26.4802 15.6123 27.6563 15.6123C28.8329 15.6123 29.7901 16.5695 29.7901 17.7457C29.7901 18.9223 28.8329 19.8795 27.6563 19.8795ZM27.6563 16.9604C27.2236 16.9604 26.8715 17.3126 26.8715 17.7457C26.8715 18.1788 27.2236 18.531 27.6563 18.531C28.0894 18.531 28.4416 18.1788 28.4416 17.7457C28.4416 17.3126 28.0894 16.9604 27.6563 16.9604Z" fill="#15AE00"/>
</g>
<defs>
<clipPath id="clip0">
<rect width="40.8408" height="40.8408" fill="white" transform="translate(9.57983 9.88086)"/>
</clipPath>
</defs>
</svg>
