<svg width="80" height="80" viewBox="0 0 80 80" fill="none" xmlns="http://www.w3.org/2000/svg">
<rect width="80" height="80" rx="40" fill="#6554C0"/>
<path d="M33.9059 27.2285C27.4036 29.7461 23.0596 36.1182 23.0596 43.0847V47.7239C23.0596 48.3587 22.495 48.8894 21.8594 48.8894H19.4608C17.5037 48.8894 15.8998 47.283 15.8998 45.3285V40.0878C15.8998 38.5433 16.8953 37.187 18.3703 36.7127C18.9757 36.5181 19.628 36.8504 19.8227 37.4545C20.0174 38.0586 19.6821 38.7061 19.0771 38.9006C18.5648 39.0653 18.2012 39.5536 18.2012 40.0878V45.3285C18.2012 46.0157 18.7728 46.5909 19.4608 46.5909H20.7582V43.0848C20.7582 39.1156 21.9311 35.3025 24.1968 32.0579C26.4103 28.8882 29.4553 26.4771 33.0494 25.0856C33.6419 24.8562 34.3085 25.1498 34.5383 25.7418C34.7678 26.3333 34.4984 26.999 33.9059 27.2285ZM52.6018 27.8826C52.6018 30.2935 50.6377 32.2551 48.2236 32.2551C45.8096 32.2551 43.8456 30.2936 43.8456 27.8826C43.8456 25.4716 45.8095 23.5101 48.2236 23.5101C50.6377 23.5101 52.6018 25.4717 52.6018 27.8826ZM50.3004 27.8826C50.3004 26.739 49.3688 25.8085 48.2236 25.8085C47.0786 25.8085 46.1469 26.739 46.1469 27.8826C46.1469 29.0262 47.0786 29.9567 48.2236 29.9567C49.3688 29.9567 50.3004 29.0262 50.3004 27.8826ZM64.1002 40.0877V45.3283C64.1002 47.2829 62.5601 48.8892 60.603 48.8892H58.4777C57.7798 51.06 56.6722 53.2036 55.1807 55.0821C52.73 58.1687 49.3577 60.4527 45.6072 61.583C45.4386 63.4737 43.8439 64.978 41.9081 64.978H38.1559C36.1081 64.978 34.442 63.3203 34.442 61.2751C34.442 59.2295 36.1081 57.572 38.1559 57.572H41.9082C43.256 57.572 44.4385 58.2691 45.0894 59.345C52.1818 57.1532 57.0536 50.5883 57.0536 43.0845C57.0536 40.7717 56.5975 38.5327 55.6976 36.4256L54.1837 35.75C53.532 36.244 52.8268 36.6518 52.0758 36.969L51.8873 38.7842C51.8253 39.9802 50.432 40.7195 48.2239 40.7195C46.0097 40.7195 44.6169 39.9781 44.56 38.7786L44.372 36.9691C43.621 36.6521 42.9158 36.2442 42.264 35.7502L40.5899 36.4975C39.5222 37.0395 38.1855 36.204 37.0823 34.2953C36.6842 33.6067 36.3993 32.8884 36.2804 32.2733C36.0321 30.9883 36.5505 30.4055 36.9307 30.1582L38.418 29.0819C38.3696 28.684 38.3452 28.2824 38.3452 27.8813C38.3452 27.4736 38.3704 27.0658 38.4203 26.6619L36.9336 25.5862C35.9216 24.9373 35.9752 23.3618 37.0825 21.4467C38.1859 19.5373 39.5231 18.7018 40.5909 19.2452L42.2811 19.9996C42.9276 19.5118 43.6263 19.1087 44.3697 18.7944L44.56 16.9632C44.6168 15.764 46.0096 15.0225 48.2236 15.0225C50.4326 15.0225 51.8262 15.7623 51.8872 16.959L52.0777 18.7945C52.821 19.1087 53.5199 19.512 54.1664 19.9997L55.8536 19.2469C56.2581 19.0421 57.0228 18.8852 58.0127 19.7421C58.4867 20.1525 58.9669 20.7579 59.365 21.4468C60.4694 23.3566 60.5249 24.9317 59.5186 25.5832L58.0273 26.6621C58.0772 27.066 58.1024 27.4739 58.1024 27.8815C58.1024 28.283 58.0781 28.6848 58.0298 29.0819L59.5203 30.1606C60.5249 30.8128 60.4688 32.3875 59.3649 34.2965C58.967 34.9851 58.4867 35.5915 58.0127 36.002C58.0122 36.0025 58.0116 36.0051 58.011 36.0056C58.9031 38.2588 59.3549 40.642 59.3549 43.0926C59.3549 44.2773 59.2502 45.4415 59.0437 46.5907H60.603C61.2911 46.5907 61.7988 46.0154 61.7988 45.3282V40.0876C61.7988 39.5532 61.4605 39.065 60.9482 38.9003C60.3434 38.7058 60.0304 38.0583 60.2251 37.4542C60.4198 36.8501 61.0551 36.5179 61.66 36.7125C63.1352 37.187 64.1002 38.5433 64.1002 40.0877ZM43.3207 61.2576C43.3207 61.1638 43.3115 61.0605 43.294 60.9717C43.2909 60.9585 43.2881 60.9571 43.2854 60.9437C43.1421 60.3163 42.579 59.8705 41.9082 59.8705H38.1559C37.377 59.8705 36.7433 60.497 36.7433 61.2749C36.7433 62.0532 37.377 62.6797 38.1559 62.6797H41.9082C42.6871 62.6799 43.3207 62.0355 43.3207 61.2576ZM56.1035 25.2161L57.9091 23.9097C57.8564 23.6406 57.7028 23.1684 57.372 22.5963C57.0413 22.0242 56.7088 21.6553 56.5018 21.4753L54.4583 22.387C54.0473 22.5705 53.5667 22.4974 53.2286 22.2003C52.4661 21.5299 51.5949 21.0272 50.6396 20.7066C50.2122 20.563 49.9082 20.1836 49.8616 19.7356L49.631 17.5132C49.3715 17.4242 48.8852 17.3209 48.2236 17.3209C47.5622 17.3209 47.076 17.4242 46.8163 17.513L46.5854 19.7356C46.5389 20.1834 46.2347 20.5629 45.8076 20.7064C44.8516 21.0273 43.9807 21.5298 43.2187 22.2C42.8806 22.4974 42.3998 22.5703 41.9888 22.3867L39.9455 21.4748C39.7385 21.6548 39.4059 22.0237 39.0751 22.5959C38.7444 23.1679 38.5907 23.6401 38.5381 23.9093L40.3437 25.2157C40.7087 25.4799 40.8858 25.9325 40.7965 26.3738C40.6968 26.8671 40.6463 27.3743 40.6463 27.8815C40.6463 28.3829 40.6958 28.8848 40.7935 29.3738C40.8814 29.8143 40.7043 30.2657 40.3402 30.5292L38.5383 31.8332C38.5909 32.1022 38.7445 32.5744 39.0752 33.1464C39.406 33.7187 39.7387 34.0876 39.9457 34.2676L41.9734 33.3627C42.3855 33.1787 42.8672 33.2525 43.2054 33.5511C43.9711 34.2278 44.8473 34.7346 45.8095 35.0571C46.237 35.2005 46.5413 35.58 46.5879 36.0279L46.8166 38.2292C47.0763 38.3182 47.5623 38.4214 48.2239 38.4214C48.8855 38.4214 49.3717 38.3181 49.6314 38.2291L49.86 36.0281C49.9065 35.5801 50.2107 35.2006 50.6381 35.0571C51.6006 34.7343 52.4767 34.2275 53.2422 33.551C53.5804 33.2522 54.0619 33.1785 54.474 33.3624L56.502 34.2672C56.709 34.0871 57.0415 33.7183 57.372 33.1464C57.703 32.5741 57.8566 32.1017 57.9092 31.8327L56.1072 30.529C55.7427 30.2653 55.5657 29.8134 55.6541 29.3727C55.7517 28.8859 55.8012 28.384 55.8012 27.8815C55.8012 27.3744 55.7505 26.8672 55.6509 26.374C55.5616 25.9328 55.7385 25.4801 56.1035 25.2161Z" fill="white"/>
</svg>
