<svg width="30" height="31" viewBox="0 0 30 31" fill="none" xmlns="http://www.w3.org/2000/svg">
<path d="M11.207 7.57445C7.15997 9.13679 4.45623 13.091 4.45623 17.4141V20.293C4.45623 20.6868 4.10483 21.0162 3.70926 21.0162H2.21634C0.998276 21.0162 0 20.0193 0 18.8064V15.5544C0 14.5959 0.619576 13.7542 1.53764 13.4599C1.91443 13.3392 2.32042 13.5454 2.44162 13.9202C2.56281 14.2951 2.35408 14.6969 1.97753 14.8176C1.65867 14.9198 1.43236 15.2228 1.43236 15.5544V18.8064C1.43236 19.2329 1.78814 19.5899 2.21634 19.5899H3.02387V17.4142C3.02387 14.951 3.7539 12.5848 5.16406 10.5714C6.54175 8.60438 8.43692 7.10821 10.674 6.24467C11.0427 6.10236 11.4576 6.28453 11.6006 6.65188C11.7434 7.01899 11.5758 7.43206 11.207 7.57445ZM22.8434 7.98038C22.8434 9.47648 21.6209 10.6937 20.1184 10.6937C18.6159 10.6937 17.3935 9.47656 17.3935 7.98038C17.3935 6.48421 18.6158 5.26703 20.1184 5.26703C21.6209 5.26703 22.8434 6.48429 22.8434 7.98038ZM21.411 7.98038C21.411 7.27073 20.8311 6.69332 20.1184 6.69332C19.4057 6.69332 18.8258 7.27073 18.8258 7.98038C18.8258 8.69004 19.4057 9.26745 20.1184 9.26745C20.8311 9.26745 21.411 8.69004 21.411 7.98038ZM30 15.5543V18.8064C30 20.0193 29.0414 21.0161 27.8234 21.0161H26.5006C26.0662 22.3631 25.3768 23.6934 24.4485 24.859C22.9232 26.7745 20.8242 28.1918 18.4899 28.8932C18.385 30.0665 17.3924 31 16.1876 31H13.8522C12.5776 31 11.5407 29.9713 11.5407 28.7022C11.5407 27.4328 12.5776 26.4042 13.8522 26.4042H16.1877C17.0266 26.4042 17.7625 26.8368 18.1677 27.5044C22.582 26.1443 25.6142 22.0704 25.6142 17.4139C25.6142 15.9788 25.3303 14.5893 24.7702 13.2817L23.828 12.8625C23.4224 13.1691 22.9834 13.4221 22.516 13.619L22.3987 14.7454C22.3601 15.4876 21.4929 15.9463 20.1185 15.9463C18.7405 15.9463 17.8736 15.4863 17.8381 14.7419L17.7212 13.619C17.2537 13.4223 16.8148 13.1692 16.4091 12.8626L15.3672 13.3263C14.7026 13.6627 13.8707 13.1443 13.184 11.9598C12.9362 11.5325 12.7589 11.0868 12.6849 10.7051C12.5304 9.90761 12.8531 9.54597 13.0896 9.39249L14.0153 8.72459C13.9853 8.47768 13.9701 8.22848 13.9701 7.97959C13.9701 7.72658 13.9857 7.4735 14.0168 7.22287L13.0915 6.55537C12.4616 6.15268 12.495 5.17496 13.1842 3.98655C13.8709 2.8017 14.7032 2.28325 15.3678 2.6204L16.4198 3.08854C16.8221 2.78585 17.257 2.5357 17.7197 2.34069L17.8381 1.20434C17.8735 0.460136 18.7404 0 20.1184 0C21.4933 0 22.3607 0.459106 22.3986 1.20172L22.5172 2.34077C22.9798 2.5357 23.4148 2.78601 23.8172 3.08862L24.8673 2.62151C25.1191 2.49441 25.595 2.39703 26.2112 2.9288C26.5062 3.18347 26.805 3.55914 27.0528 3.98663C27.7402 5.17179 27.7747 6.14919 27.1484 6.55346L26.2202 7.22303C26.2513 7.47366 26.2669 7.72674 26.2669 7.97967C26.2669 8.22888 26.2518 8.47816 26.2218 8.72459L27.1494 9.39399C27.7747 9.79874 27.7398 10.7759 27.0528 11.9605C26.8051 12.3878 26.5062 12.7641 26.2112 13.0189C26.2108 13.0192 26.2105 13.0208 26.2101 13.0211C26.7653 14.4193 27.0466 15.8982 27.0466 17.419C27.0466 18.1542 26.9814 18.8766 26.8529 19.5897H27.8234C28.2516 19.5897 28.5676 19.2327 28.5676 18.8063V15.5542C28.5676 15.2226 28.3571 14.9197 28.0382 14.8174C27.6618 14.6968 27.4669 14.2949 27.5881 13.9201C27.7093 13.5452 28.1047 13.339 28.4812 13.4598C29.3994 13.7542 30 14.5959 30 15.5543ZM17.0668 28.6913C17.0668 28.6331 17.0611 28.569 17.0502 28.5139C17.0483 28.5057 17.0465 28.5048 17.0449 28.4965C16.9557 28.1072 16.6052 27.8306 16.1877 27.8306H13.8522C13.3674 27.8306 12.9731 28.2193 12.9731 28.702C12.9731 29.185 13.3674 29.5738 13.8522 29.5738H16.1877C16.6724 29.5739 17.0668 29.174 17.0668 28.6913ZM25.0229 6.32566L26.1466 5.51497C26.1138 5.34802 26.0183 5.05499 25.8123 4.69993C25.6066 4.34494 25.3996 4.11602 25.2707 4.0043L23.9989 4.57006C23.743 4.68392 23.4439 4.6386 23.2335 4.45421C22.7589 4.03821 22.2167 3.72625 21.6221 3.52728C21.3561 3.43822 21.1669 3.20272 21.1379 2.92476L20.9943 1.54562C20.8328 1.49039 20.5302 1.42629 20.1184 1.42629C19.7067 1.42629 19.4041 1.49039 19.2425 1.54554L19.0988 2.92476C19.0698 3.20264 18.8805 3.43814 18.6146 3.5272C18.0197 3.72633 17.4776 4.03813 17.0033 4.45405C16.7929 4.6386 16.4936 4.68384 16.2378 4.5699L14.9661 4.00398C14.8373 4.11571 14.6302 4.34462 14.4244 4.69969C14.2185 5.05468 14.1228 5.3477 14.0901 5.51473L15.2139 6.32542C15.4411 6.48936 15.5513 6.77026 15.4958 7.04411C15.4337 7.3502 15.4023 7.66494 15.4023 7.97967C15.4023 8.29084 15.4331 8.60232 15.4938 8.90573C15.5486 9.1791 15.4384 9.4592 15.2118 9.62275L14.0902 10.4319C14.123 10.5989 14.2186 10.8919 14.4244 11.2468C14.6303 11.602 14.8373 11.8309 14.9662 11.9426L16.2283 11.381C16.4847 11.2669 16.7846 11.3127 16.995 11.498C17.4716 11.9179 18.017 12.2324 18.6158 12.4325C18.8819 12.5215 19.0713 12.757 19.1003 13.035L19.2427 14.401C19.4043 14.4562 19.7068 14.5202 20.1185 14.5202C20.5303 14.5202 20.833 14.4561 20.9946 14.4009L21.1369 13.0351C21.1658 12.7571 21.3551 12.5216 21.6212 12.4325C22.2202 12.2322 22.7655 11.9177 23.242 11.4979C23.4524 11.3125 23.7521 11.2668 24.0087 11.3809L25.2709 11.9424C25.3997 11.8306 25.6066 11.6017 25.8123 11.2468C26.0184 10.8917 26.114 10.5986 26.1467 10.4316L25.0252 9.62259C24.7983 9.45897 24.6881 9.17854 24.7432 8.90509C24.8039 8.60296 24.8347 8.29155 24.8347 7.97967C24.8347 7.66502 24.8032 7.35028 24.7412 7.04419C24.6855 6.77042 24.7957 6.48952 25.0229 6.32566Z" fill="#57A4FF"/>
</svg>
