<svg width="80" height="80" viewBox="0 0 80 80" fill="none" xmlns="http://www.w3.org/2000/svg">
<rect width="80" height="80" rx="40" fill="#00D616"/>
<path d="M55.0811 56.8647H24.919C24.1021 56.8639 23.3189 56.539 22.7413 55.9613C22.1636 55.3837 21.8387 54.6005 21.8379 53.7836V21.0269C21.8387 20.21 22.1636 19.4268 22.7413 18.8492C23.3189 18.2715 24.1021 17.9467 24.919 17.9458H55.0811C55.898 17.9467 56.6812 18.2715 57.2588 18.8492C57.8365 19.4268 58.1614 20.21 58.1622 21.0269V53.7836C58.1614 54.6005 57.8365 55.3837 57.2588 55.9613C56.6812 56.539 55.898 56.8639 55.0811 56.8647ZM24.919 19.2431C24.446 19.2436 23.9926 19.4317 23.6582 19.7661C23.3238 20.1005 23.1357 20.554 23.1352 21.0269V53.7836C23.1357 54.2566 23.3238 54.71 23.6582 55.0444C23.9926 55.3788 24.446 55.5669 24.919 55.5674H55.0811C55.5541 55.5669 56.0075 55.3788 56.3419 55.0444C56.6763 54.71 56.8644 54.2566 56.8649 53.7836V21.0269C56.8644 20.554 56.6763 20.1005 56.3419 19.7661C56.0075 19.4317 55.5541 19.2436 55.0811 19.2431H24.919Z" fill="white"/>
<path d="M58.1622 42.5943H21.8379V24.4321H58.1622V42.5943ZM23.1352 41.297H56.8649V25.7294H23.1352V41.297Z" fill="white"/>
<path d="M49.7296 52.3244C49.0881 52.3244 48.4611 52.1342 47.9277 51.7778C47.3944 51.4214 46.9787 50.9149 46.7332 50.3223C46.4877 49.7296 46.4235 49.0775 46.5486 48.4484C46.6738 47.8193 46.9827 47.2414 47.4363 46.7878C47.8898 46.3342 48.4677 46.0254 49.0968 45.9002C49.726 45.7751 50.3781 45.8393 50.9707 46.0848C51.5633 46.3302 52.0699 46.7459 52.4262 47.2793C52.7826 47.8126 52.9728 48.4397 52.9728 49.0811C52.9718 49.941 52.6298 50.7653 52.0218 51.3733C51.4138 51.9813 50.5894 52.3233 49.7296 52.3244ZM49.7296 47.1352C49.3447 47.1352 48.9685 47.2493 48.6485 47.4631C48.3285 47.677 48.079 47.9809 47.9318 48.3365C47.7845 48.692 47.7459 49.0833 47.821 49.4608C47.8961 49.8382 48.0814 50.185 48.3536 50.4571C48.6257 50.7293 48.9725 50.9146 49.3499 50.9897C49.7274 51.0648 50.1187 51.0262 50.4743 50.879C50.8298 50.7317 51.1337 50.4823 51.3476 50.1622C51.5614 49.8422 51.6755 49.466 51.6755 49.0811C51.6755 48.565 51.4705 48.0701 51.1056 47.7051C50.7406 47.3402 50.2457 47.1352 49.7296 47.1352Z" fill="white"/>
<path d="M30.2701 52.3244C29.6286 52.3244 29.0016 52.1342 28.4683 51.7778C27.9349 51.4214 27.5192 50.9149 27.2737 50.3223C27.0283 49.7296 26.964 49.0775 27.0892 48.4484C27.2143 47.8193 27.5232 47.2414 27.9768 46.7878C28.4304 46.3342 29.0082 46.0254 29.6374 45.9002C30.2665 45.7751 30.9186 45.8393 31.5112 46.0848C32.1039 46.3302 32.6104 46.7459 32.9668 47.2793C33.3231 47.8126 33.5133 48.4397 33.5133 49.0811C33.5123 49.941 33.1703 50.7653 32.5623 51.3733C31.9543 51.9813 31.1299 52.3233 30.2701 52.3244ZM30.2701 47.1352C29.8852 47.1352 29.509 47.2493 29.189 47.4631C28.869 47.677 28.6196 47.9809 28.4723 48.3365C28.325 48.692 28.2865 49.0833 28.3615 49.4608C28.4366 49.8382 28.622 50.185 28.8941 50.4571C29.1663 50.7293 29.513 50.9146 29.8905 50.9897C30.2679 51.0648 30.6592 51.0262 31.0148 50.879C31.3704 50.7317 31.6743 50.4823 31.8881 50.1622C32.1019 49.8422 32.216 49.466 32.216 49.0811C32.216 48.565 32.011 48.0701 31.6461 47.7051C31.2812 47.3402 30.7862 47.1352 30.2701 47.1352Z" fill="white"/>
<path d="M52.2031 62.0539H47.9058C47.3576 62.0534 46.832 61.8354 46.4444 61.4479C46.0567 61.0603 45.8386 60.5348 45.8379 59.9866V55.5674H54.2703V59.9866C54.2696 60.5347 54.0516 61.0601 53.6641 61.4476C53.2765 61.8352 52.7511 62.0532 52.2031 62.0539ZM47.1352 56.8647V59.9866C47.1355 60.1908 47.2168 60.3866 47.3613 60.5309C47.5058 60.6753 47.7016 60.7564 47.9058 60.7566H52.2031C52.4072 60.7562 52.6028 60.675 52.7471 60.5307C52.8915 60.3864 52.9727 60.1907 52.973 59.9866V56.8647H47.1352Z" fill="white"/>
<path d="M32.0952 62.0539H27.7979C27.2497 62.0534 26.7241 61.8354 26.3364 61.4479C25.9488 61.0603 25.7307 60.5348 25.73 59.9866V55.5674H34.1624V59.9866C34.1617 60.5347 33.9437 61.0601 33.5562 61.4476C33.1686 61.8352 32.6432 62.0532 32.0952 62.0539ZM27.0273 56.8647V59.9866C27.0276 60.1908 27.1089 60.3866 27.2534 60.5309C27.3979 60.6753 27.5937 60.7564 27.7979 60.7566H32.0952C32.2993 60.7562 32.4949 60.675 32.6392 60.5307C32.7835 60.3864 32.8648 60.1907 32.8651 59.9866V56.8647H27.0273Z" fill="white"/>
<path d="M62.0542 35.5678H57.5137V34.2705H60.7569V27.6757H58.1623V26.3784H62.0542V35.5678Z" fill="white"/>
<path d="M22.4863 35.5678H17.9458V26.3784H21.8377V27.6757H19.2431V34.2705H22.4863V35.5678Z" fill="white"/>
<path d="M39.3516 25.0811H40.6489V41.9459H39.3516V25.0811Z" fill="white"/>
<path d="M36.1079 48.4326H43.8917V49.7299H36.1079V48.4326Z" fill="white"/>
</svg>
