<svg width="80" height="80" viewBox="0 0 80 80" fill="none" xmlns="http://www.w3.org/2000/svg">
<rect width="80" height="80" rx="40" fill="#00D616"/>
<path d="M65.5563 33.4315L40.395 20.0981C40.1476 19.9673 39.8532 19.9673 39.6058 20.0981L14.4445 33.4315C14.1703 33.5765 14 33.859 14 34.1665C14 34.474 14.1703 34.7565 14.4437 34.9015L21.5484 38.6666V49.1666H23.2258V39.5557L25.7419 40.8891V45.9516C24.2985 46.3241 23.2258 47.6174 23.2258 49.1666C23.2258 49.9283 23.4942 50.6225 23.9286 51.185C23.4707 52.7408 23.2258 54.345 23.2258 55.9683V58.3333C23.2258 58.6492 23.4053 58.9375 23.6896 59.0792L24.6164 59.54C25.2236 59.8408 25.9021 60 26.5806 60C27.2592 60 27.9377 59.8408 28.5449 59.5392L29.4717 59.0783C29.756 58.9375 29.9355 58.6492 29.9355 58.3333V55.9683C29.9355 54.345 29.6906 52.7408 29.2326 51.185C29.6671 50.6225 29.9355 49.9283 29.9355 49.1666C29.9355 47.6174 28.8628 46.3241 27.4194 45.9516V41.7782L39.605 48.2358C39.7291 48.3008 39.8641 48.3333 40 48.3333C40.1359 48.3333 40.2709 48.3008 40.395 48.2358L56.7742 39.5557V48.7549C52.1093 52.2475 46.3474 54.1666 40.5024 54.1666H39.4985C36.6192 54.1666 33.7726 53.7125 31.0367 52.8166L30.5125 54.4C33.4161 55.3508 36.4405 55.8333 39.4976 55.8333H40.5015C46.8539 55.8333 53.1132 53.6991 58.1279 49.8241C58.3317 49.6666 58.4516 49.4241 58.4516 49.1666V38.6666L65.5563 34.9015C65.8297 34.7565 66 34.474 66 34.1665C66 33.859 65.8297 33.5765 65.5563 33.4315ZM28.2581 57.8183L27.7943 58.0483C27.0436 58.4208 26.1168 58.4208 25.3662 58.0483L24.9032 57.8183V55.9683C24.9032 54.7158 25.0567 53.475 25.3595 52.2633C25.7386 52.4116 26.1487 52.5 26.5806 52.5C27.0126 52.5 27.4227 52.4116 27.8018 52.2633C28.1046 53.475 28.2581 54.7158 28.2581 55.9683V57.8183ZM28.2581 49.1666C28.2581 50.0858 27.5057 50.8333 26.5806 50.8333C25.6555 50.8333 24.9032 50.0858 24.9032 49.1666C24.9032 48.2474 25.6555 47.4999 26.5806 47.4999C27.5057 47.4999 28.2581 48.2474 28.2581 49.1666ZM40 46.5549L27.9964 40.1941L38.3872 34.6882C38.8644 34.8815 39.4079 34.9999 40 34.9999C41.8812 34.9999 43.3548 33.9015 43.3548 32.4999C43.3548 31.0982 41.8812 29.9998 40 29.9998C38.1188 29.9998 36.6452 31.0982 36.6452 32.4999C36.6452 32.8807 36.7617 33.2357 36.958 33.5565L26.2141 39.2499L16.621 34.1665L40 21.7773L63.379 34.1665L40 46.5549ZM38.3226 32.4999C38.3226 32.1599 38.9759 31.6665 40 31.6665C41.0241 31.6665 41.6774 32.1599 41.6774 32.4999C41.6774 32.8399 41.0241 33.3332 40 33.3332C38.9759 33.3332 38.3226 32.8399 38.3226 32.4999Z" fill="white"/>
</svg>
