<svg width="28" height="29" viewBox="0 0 28 29" fill="none" xmlns="http://www.w3.org/2000/svg">
<g clip-path="url(#clip0)">
<path d="M18.1676 16.1102C18.1179 16.0298 17.9888 15.9801 17.7946 15.8835C17.5995 15.7886 16.6384 15.3189 16.4605 15.2539C16.3828 15.2259 16.3142 15.2033 16.251 15.2033C16.1679 15.2033 16.0938 15.2413 16.0206 15.3506C15.8906 15.5448 15.5157 15.9801 15.4028 16.1102C15.3387 16.1842 15.2728 16.2213 15.1933 16.2213C15.1337 16.2213 15.0641 16.2005 14.981 16.158C14.7841 16.0632 14.1555 15.8573 13.4103 15.1988C12.8304 14.6849 12.4384 14.0508 12.3237 13.8566C12.2099 13.6642 12.312 13.5586 12.4104 13.4628C12.498 13.3734 12.6046 13.2352 12.704 13.1223C12.8015 13.0094 12.834 12.929 12.8982 12.7999C12.9623 12.6707 12.9307 12.5569 12.881 12.4602C12.8331 12.3636 12.4429 11.4107 12.2786 11.0223C12.1575 10.7333 12.0356 10.6962 11.9344 10.6962C11.9001 10.6962 11.8676 10.7008 11.8387 10.7008C11.7267 10.7008 11.5975 10.6836 11.4657 10.6836C11.3356 10.6836 11.1251 10.7324 10.9454 10.9275C10.7675 11.1199 10.2617 11.5886 10.2617 12.5415C10.2617 13.4953 10.9608 14.4148 11.0601 14.544C11.1568 14.674 12.4104 16.6928 14.3939 17.4686C15.5437 17.9184 16.0279 18.0205 16.3006 18.0205C16.4993 18.0205 16.586 17.9663 16.7369 17.9528C17.0937 17.9211 17.8912 17.4831 18.0547 17.0315C18.2173 16.5798 18.2173 16.1906 18.1676 16.1102Z" fill="white"/>
<path d="M20.4888 0.5H7.51123C3.43948 0.5 0 3.94039 0 8.01123V20.9879C0 25.0596 3.43948 28.5 7.51123 28.5H20.4888C24.5596 28.5 28 25.0596 28 20.987V8.01123C28 3.94039 24.5605 0.5 20.4888 0.5ZM26.1935 20.987C26.1935 24.0796 23.5814 26.6926 20.4888 26.6926H7.51123C4.41948 26.6926 1.80645 24.0805 1.80645 20.987V8.01123C1.80645 4.91948 4.41948 2.30645 7.51123 2.30645H20.4888C23.5805 2.30645 26.1935 4.91858 26.1935 8.01123V20.987Z" fill="white"/>
<path d="M14.1472 5.48633C9.25897 5.48633 5.28206 9.43613 5.28206 14.2919C5.28206 15.756 5.64606 17.1912 6.33974 18.4675L5.03458 22.3206C4.92529 22.6431 5.00658 22.999 5.24503 23.2428C5.41755 23.4199 5.65148 23.5138 5.88993 23.5138C5.98116 23.5138 6.07329 23.5003 6.16361 23.4714L10.2146 22.1852C11.4294 22.7813 12.7806 23.0956 14.1472 23.0956C19.0364 23.0956 23.0142 19.1467 23.0142 14.2919C23.0142 9.43613 19.0364 5.48633 14.1472 5.48633ZM14.1454 21.2901C12.9495 21.2901 11.769 20.9893 10.7321 20.4194C10.5985 20.3462 10.4485 20.3083 10.2977 20.3083C10.2065 20.3083 10.1143 20.3218 10.0231 20.3507L7.31613 21.2097L8.17961 18.6626C8.26542 18.4097 8.23471 18.1306 8.09561 17.9021C7.43535 16.8182 7.08671 15.5699 7.08671 14.2928C7.08671 10.4342 10.2534 7.29368 14.1454 7.29368C18.0383 7.29368 21.2059 10.4342 21.2059 14.2928C21.2059 18.1505 18.0392 21.2901 14.1454 21.2901Z" fill="white"/>
</g>
<defs>
<clipPath id="clip0">
<rect width="28" height="28" fill="white" transform="translate(0 0.5)"/>
</clipPath>
</defs>
</svg>
