<svg width="160" height="160" viewBox="0 0 160 160" fill="none" xmlns="http://www.w3.org/2000/svg">
<rect width="160" height="160" rx="20" fill="#EEEDF5" fill-opacity="0.4"/>
<path d="M93.2377 97.0287C91.274 97.0287 89.4925 96.0287 88.472 94.3535C88.0888 93.7247 87.2683 93.525 86.6397 93.9085C86.0108 94.2915 85.8115 95.1118 86.1947 95.7408C86.9043 96.9058 87.865 97.8465 88.9835 98.5197L87.6017 104.791L84.2702 100.954C84.8885 100.243 84.7133 99.4332 84.2082 98.9938C83.6523 98.5105 82.8102 98.5695 82.3272 99.125L79.9828 101.821L74.0775 95.2597C74.5802 94.2945 74.8847 93.2352 74.9718 92.1312C86.358 95.483 97.7417 86.9372 97.8328 75.1607C97.8337 75.133 97.8333 64.2328 97.8333 64.2052C97.8333 59.059 93.6463 54.8723 88.5 54.8723H71.5C66.3537 54.8723 62.1667 59.0593 62.1667 64.2057V72.8493C61.276 72.3873 60.6667 71.468 60.6667 70.41V62.0833C60.6667 51.377 69.377 42.6667 80.0833 42.6667C90.7897 42.6667 99.5 51.377 99.5 62.0833V70.41C99.5 71.1463 100.097 71.7433 100.833 71.7433C101.57 71.7433 102.167 71.1463 102.167 70.41V62.0833C102.167 49.9065 92.2602 40 80.0833 40C67.9065 40 58 49.9065 58 62.0833V70.41C58 72.9605 59.7845 75.1042 62.1795 75.68C62.4285 82.4898 66.5133 88.3377 72.3333 91.1205V91.4717C72.3333 92.9572 71.754 94.3528 70.702 95.4018C68.8367 97.262 66.4857 97.0287 66.7618 97.0287C59.156 97.0287 53 103.184 53 110.791V118.667C53 119.403 53.597 120 54.3333 120C55.0697 120 55.6667 119.403 55.6667 118.667V110.791C55.6667 107.024 57.5373 103.632 60.5642 101.585V118.667C60.5642 119.403 61.1612 120 61.8975 120C62.6338 120 63.2308 119.403 63.2308 118.667V100.27C65.8153 99.405 66.645 99.9077 68.5042 99.5102L70.3645 107.953C70.5998 109.022 71.956 109.367 72.6733 108.541L77.471 103.016C79.0953 104.821 79.0423 104.783 79.2092 104.906C79.4692 105.098 79.8112 105.2 80.1665 105.155C80.8137 105.074 80.9275 104.799 82.5032 102.986L87.3267 108.541C88.044 109.367 89.4002 109.022 89.6355 107.953L91.496 99.5098C92.0608 99.6298 92.6432 99.6952 93.238 99.6952C99.37 99.6952 104.333 104.658 104.333 110.791V118.667C104.333 119.403 104.93 120 105.667 120C106.403 120 107 119.403 107 118.667V110.791C107 103.184 100.845 97.0285 93.2377 97.0287ZM64.8333 75.0208V64.2057C64.8333 60.5297 67.824 57.539 71.5 57.539H88.5C92.176 57.539 95.1667 60.5293 95.1667 64.2052V75.021C95.1667 83.384 88.363 90.1877 80 90.1877C71.637 90.1877 64.8333 83.3838 64.8333 75.0208ZM72.3983 104.791L71.0162 98.5177C71.5245 98.2108 72.0013 97.8452 72.4408 97.4272L75.6737 101.019L72.3983 104.791ZM99.4358 104.588V118.667C99.4358 119.403 98.8388 120 98.1025 120C97.3662 120 96.7692 119.403 96.7692 118.667V104.588C96.7692 103.851 97.3662 103.254 98.1025 103.254C98.8388 103.254 99.4358 103.851 99.4358 104.588ZM83.7623 83.9795C87.3755 83.638 88.976 80.2795 89.0425 80.1367C89.4793 79.1965 88.7195 78.1387 87.6925 78.2488C85.1328 78.519 85.1265 76.6098 82.9982 76.0475C82.068 75.8015 81.062 75.9197 79.9998 76.3982C78.9375 75.9198 77.9317 75.8015 77.0015 76.0475C74.8682 76.6112 74.8705 78.5193 72.3073 78.2488C71.2805 78.1388 70.5203 79.196 70.9573 80.1367C71.0237 80.2795 72.6243 83.638 76.2375 83.9795C77.837 84.131 79.1458 83.622 79.9998 83.1348C81.1327 83.781 82.4245 84.106 83.7623 83.9795ZM74.709 80.605C77.366 79.6582 76.9655 77.6813 79.3323 79.0502C79.7455 79.2892 80.2545 79.2892 80.6677 79.0502C83.031 77.6833 82.627 79.6523 85.291 80.605C83.8602 81.697 82.1008 81.4977 80.8288 80.4885C80.3435 80.1035 79.6568 80.1033 79.1715 80.4885C77.8945 81.5013 76.1373 81.6952 74.709 80.605Z" fill="#1A75CF"/>
</svg>
