<svg width="20" height="21" viewBox="0 0 20 21" fill="none" xmlns="http://www.w3.org/2000/svg">
<g clip-path="url(#clip0)">
<path d="M17.0711 3.42891C15.1823 1.54016 12.6711 0.5 10 0.5C7.32891 0.5 4.81766 1.54016 2.92891 3.42891C1.0402 5.31766 0 7.82891 0 10.5C0 13.1711 1.0402 15.6823 2.92891 17.5711C4.81766 19.4598 7.32891 20.5 10 20.5C12.6711 20.5 15.1823 19.4598 17.0711 17.5711C18.9598 15.6823 20 13.1711 20 10.5C20 7.82891 18.9598 5.31766 17.0711 3.42891ZM10 19.3281C5.13215 19.3281 1.17188 15.3679 1.17188 10.5C1.17188 5.63215 5.13215 1.67188 10 1.67188C14.8679 1.67188 18.8281 5.63215 18.8281 10.5C18.8281 15.3679 14.8679 19.3281 10 19.3281Z" fill="white"/>
<path d="M10.6275 9.91402H9.37228C8.65716 9.91402 8.0754 9.33227 8.0754 8.61719C8.0754 7.90207 8.6572 7.32031 9.37228 7.32031H11.8827C12.2063 7.32031 12.4686 7.05797 12.4686 6.73438C12.4686 6.41078 12.2063 6.14844 11.8827 6.14844H10.5858V4.85156C10.5858 4.52797 10.3235 4.26562 9.99989 4.26562C9.6763 4.26562 9.41396 4.52797 9.41396 4.85156V6.14844H9.37232C8.01103 6.14844 6.90356 7.25594 6.90356 8.61719C6.90356 9.97844 8.01107 11.0859 9.37232 11.0859H10.6276C11.3426 11.0859 11.9244 11.6677 11.9244 12.3828C11.9244 13.0979 11.3426 13.6796 10.6276 13.6796H8.11712C7.79353 13.6796 7.53118 13.942 7.53118 14.2656C7.53118 14.5892 7.79353 14.8515 8.11712 14.8515H9.41396V16.1484C9.41396 16.472 9.6763 16.7344 9.99989 16.7344C10.3235 16.7344 10.5858 16.472 10.5858 16.1484V14.8515H10.6275C11.9888 14.8515 13.0962 13.744 13.0962 12.3828C13.0962 11.0215 11.9888 9.91402 10.6275 9.91402Z" fill="white"/>
</g>
<defs>
<clipPath id="clip0">
<rect width="20" height="20" fill="white" transform="translate(0 0.5)"/>
</clipPath>
</defs>
</svg>
