<svg width="60" height="60" viewBox="0 0 60 60" fill="none" xmlns="http://www.w3.org/2000/svg">
<rect width="60" height="60" rx="30" fill="white" fill-opacity="0.1"/>
<path d="M43.5676 43.0628C43.5301 43.0628 43.4914 43.0602 43.4526 43.0525C43.1013 42.9879 42.8675 42.6508 42.9308 42.3007L43.9202 36.8628L44.0365 36.3591C44.1579 35.8347 43.8479 35.309 43.3312 35.1591L38.2136 33.6789C37.9385 33.5988 37.7473 33.3443 37.7473 33.0589V26.917C37.7473 26.5605 37.458 26.2712 37.1015 26.2712C36.745 26.2712 36.4557 26.5605 36.4557 26.917V37.2762C36.4557 37.5797 36.24 37.8445 35.9442 37.9078C35.9016 37.9168 35.8538 37.922 35.8073 37.922C35.5541 37.922 35.3229 37.7722 35.2196 37.5397C34.4523 35.823 33.3143 35.1695 32.5729 35.132L32.5161 35.1307C32.2771 35.1307 32.0898 35.1979 32.0278 35.3077C31.9607 35.4252 31.9788 35.712 32.2552 36.1317L36.2051 42.0592C36.3007 42.2026 36.3356 42.3757 36.3007 42.5436C36.2671 42.7128 36.1689 42.8587 36.0256 42.9543C35.9171 43.0254 35.7943 43.0628 35.6665 43.0628C35.4495 43.0628 35.2493 42.9556 35.1291 42.7761L31.1766 36.8447C30.4714 35.7688 30.7052 35.0183 30.908 34.6657C31.2051 34.1477 31.8044 33.839 32.5135 33.839C32.5548 33.839 32.5962 33.8403 32.6375 33.8416C33.5133 33.8855 34.4148 34.3531 35.164 35.1294V26.917C35.164 25.8488 36.0333 24.9795 37.1015 24.9795C38.1697 24.9795 39.039 25.8488 39.039 26.917V32.5719L43.6916 33.9178C44.867 34.2588 45.5723 35.4588 45.2971 36.6497L45.1873 37.1237L44.2057 42.5332C44.1476 42.8394 43.8802 43.0628 43.5676 43.0628Z" fill="white"/>
<path d="M23.521 40.4792C23.1645 40.4792 22.8752 40.1898 22.8752 39.8333C22.8752 39.4768 23.1645 39.1875 23.521 39.1875H27.396V36.6042H18.3582C16.9335 36.6042 15.7749 35.4455 15.7749 34.0208V18.5208C15.7749 17.0961 16.9335 15.9375 18.3582 15.9375H41.6082C43.0329 15.9375 44.1916 17.0961 44.1916 18.5208V32.0833C44.1916 32.4398 43.9022 32.7292 43.5457 32.7292C43.1892 32.7292 42.8999 32.4398 42.8999 32.0833V18.5208C42.8999 17.8091 42.3212 17.2292 41.6082 17.2292H18.3582C17.6465 17.2292 17.0666 17.8091 17.0666 18.5208V34.0208C17.0666 34.7338 17.6465 35.3125 18.3582 35.3125H29.3374C29.6939 35.3125 29.9832 35.6018 29.9832 35.9583C29.9832 36.3148 29.6939 36.6042 29.3374 36.6042H28.6877V39.1875H29.9794C30.3359 39.1875 30.6252 39.4768 30.6252 39.8333C30.6252 40.1898 30.3359 40.4792 29.9794 40.4792H23.521Z" fill="white"/>
</svg>
