<svg width="61" height="60" viewBox="0 0 61 60" fill="none" xmlns="http://www.w3.org/2000/svg">
<rect x="0.666748" width="60" height="60" rx="30" fill="#6554C0"/>
<path d="M30.6667 44.8543C22.4762 44.8543 15.8125 38.1906 15.8125 30.0002C15.8125 21.8097 22.4762 15.146 30.6667 15.146C38.8571 15.146 45.5208 21.8097 45.5208 30.0002C45.5208 38.1906 38.8571 44.8543 30.6667 44.8543ZM30.6667 16.4377C23.1879 16.4377 17.1042 22.5214 17.1042 30.0002C17.1042 37.4789 23.1879 43.5627 30.6667 43.5627C38.1454 43.5627 44.2292 37.4789 44.2292 30.0002C44.2292 22.5214 38.1454 16.4377 30.6667 16.4377Z" fill="white"/>
<path d="M39.7084 34.1359C39.6283 34.1359 39.5496 34.1217 39.4759 34.092C39.3158 34.03 39.1892 33.9086 39.1181 33.751C39.0484 33.5934 39.0445 33.4178 39.1065 33.2563C39.5082 32.2152 39.711 31.1199 39.7084 30.0026C39.7084 29.6461 39.9965 29.3568 40.353 29.3555C40.7095 29.3555 40.9988 29.6448 41.0001 30C41.0014 31.2775 40.7702 32.5304 40.3103 33.72C40.216 33.9693 39.9745 34.1359 39.7084 34.1359Z" fill="white"/>
<path d="M36.4791 38.3986C36.2763 38.3986 36.0839 38.3017 35.9624 38.1403C35.7493 37.8561 35.8061 37.4505 36.0903 37.2361C36.7762 36.7207 37.3846 36.1123 37.8999 35.4265C38.0214 35.2663 38.2151 35.1694 38.4166 35.1694C38.5574 35.1694 38.6917 35.2134 38.8041 35.2986C39.0883 35.513 39.1464 35.9186 38.9333 36.2028C38.3456 36.9855 37.6506 37.6817 36.8666 38.2694C36.7542 38.3534 36.6199 38.3986 36.4791 38.3986Z" fill="white"/>
<path d="M30.6706 40.3348C29.4926 40.3348 28.3313 40.1372 27.2231 39.7458C26.8873 39.627 26.7103 39.2576 26.8278 38.9217C26.9183 38.6634 27.1637 38.4903 27.4375 38.4903C27.5098 38.4903 27.5809 38.5019 27.6493 38.5265C28.622 38.8688 29.6385 39.0432 30.6693 39.0432C31.7866 39.0432 32.8806 38.8417 33.9217 38.4425C33.9966 38.4141 34.0741 38.3999 34.1529 38.3999C34.419 38.3999 34.6605 38.5665 34.7561 38.8145C34.8181 38.976 34.8129 39.1517 34.7432 39.3092C34.6734 39.4668 34.5456 39.5869 34.3841 39.6489C33.1958 40.1036 31.9467 40.3348 30.6706 40.3348Z" fill="white"/>
<path d="M24.8542 38.3986C24.7147 38.3986 24.5804 38.3547 24.468 38.2707C22.4362 36.7478 21.0399 34.5404 20.5349 32.0526C19.9859 29.3479 20.5246 26.5915 22.05 24.291C23.4734 22.1443 25.6163 20.6253 28.1054 19.9924C28.2668 18.7252 29.366 17.7319 30.6667 17.7319C32.0914 17.7319 33.2501 18.8906 33.2501 20.3153C33.2501 21.74 32.0914 22.8986 30.6667 22.8986C29.6076 22.8986 28.6647 22.2489 28.2746 21.284C26.1614 21.8575 24.3414 23.1711 23.126 25.004C21.7917 27.0164 21.3202 29.4293 21.8007 31.7969C22.2425 33.9721 23.4644 35.9044 25.2417 37.2361C25.5259 37.4505 25.584 37.8561 25.3709 38.1403C25.2495 38.3017 25.0557 38.3986 24.8542 38.3986ZM30.6667 19.021C29.955 19.021 29.3751 19.601 29.3751 20.3127C29.3751 21.0244 29.955 21.6044 30.6667 21.6044C31.3797 21.6044 31.9584 21.0244 31.9584 20.3127C31.9584 19.601 31.3797 19.021 30.6667 19.021Z" fill="white"/>
</svg>
