<svg width="160" height="160" viewBox="0 0 160 160" fill="none" xmlns="http://www.w3.org/2000/svg">
<path d="M0 20C0 8.95431 8.95431 0 20 0H140C151.046 0 160 8.95431 160 20V140C160 151.046 151.046 160 140 160H20C8.95431 160 0 151.046 0 140V20Z" fill="#EEEDF5" fill-opacity="0.4"/>
<path d="M93.2378 97.0286C91.2742 97.0286 89.4925 96.0286 88.4722 94.3535C88.089 93.7245 87.2685 93.5251 86.6398 93.9083C86.0112 94.2913 85.8117 95.1118 86.1948 95.7406C86.9045 96.9056 87.8652 97.8463 88.9835 98.5195L87.6017 104.791L84.2702 100.954C84.875 100.259 84.729 99.4468 84.208 98.9938C83.6527 98.5108 82.8103 98.5693 82.327 99.125L79.9827 101.821L74.0773 95.2595C74.5798 94.2945 74.8845 93.2351 74.9715 92.1311C86.4005 95.4955 97.8333 86.8696 97.8333 75.0208V64C97.8333 63.2637 97.2363 62.6667 96.5 62.6667C95.7637 62.6667 95.1667 63.2637 95.1667 64V75.0208C95.1667 83.3836 88.363 90.1875 80 90.1875C71.637 90.1875 64.8333 83.3838 64.8333 75.0208V63.7053C68.0838 63.5208 70.8487 61.48 71.834 57.7813C77.3857 61.3367 83.6087 63.6402 90.1393 64.5543C90.8713 64.6563 91.543 64.1458 91.6447 63.4187C91.7467 62.6895 91.2383 62.0155 90.5092 61.9133C83.8592 60.9825 77.3698 58.4937 71.6037 54.4117C70.7222 53.7873 69.4947 54.4225 69.5 55.5085C69.5002 55.5417 69.4877 58.8485 66.9793 60.3575C65.3932 61.3118 63.7888 61.0037 63.5128 61.0007C62.8313 60.9942 62.2538 61.5055 62.1762 62.18C62.1615 62.309 62.1667 61.8698 62.1667 72.8493C61.276 72.3873 60.6667 71.468 60.6667 70.41V54.1667C60.6667 52.4205 62.0872 51 63.8333 51C64.3785 51 64.8688 50.668 65.0713 50.1618C66.8927 45.6087 71.238 42.6667 76.142 42.6667H87.5765C94.1513 42.6667 99.5 48.0155 99.5 54.5902V70.41C99.5 71.1463 100.097 71.7433 100.833 71.7433C101.57 71.7433 102.167 71.1463 102.167 70.41V54.5902C102.167 46.5452 95.6217 40 87.5765 40H76.142C70.422 40 65.3225 43.2717 62.9278 48.4035C60.1398 48.84 58 51.2582 58 54.1667V70.41C58 72.9608 59.7847 75.1046 62.1802 75.6801C62.429 82.49 66.5135 88.3373 72.3333 91.12V91.4716C72.3333 92.9571 71.754 94.3528 70.7022 95.4018C68.8367 97.262 66.4858 97.0286 66.7618 97.0286C59.1558 97.0286 53 103.184 53 110.79V118.667C53 119.403 53.597 120 54.3333 120C55.0697 120 55.6667 119.403 55.6667 118.667V110.79C55.6667 104.658 60.6292 99.6951 66.7622 99.6953C67.3457 99.6953 67.9282 99.6333 68.5042 99.5101L70.3647 107.953C70.6002 109.023 71.9565 109.366 72.6735 108.541L75.3003 105.516L73.6772 118.501C73.5858 119.232 74.1043 119.898 74.8348 119.99C75.5668 120.081 76.232 119.562 76.3233 118.832L78.1992 103.825C78.284 103.919 79.0252 104.75 79.1202 104.834C79.6705 105.317 80.5088 105.268 80.9982 104.716C81.2618 104.415 80.5798 105.198 81.7978 103.798L83.677 118.832C83.7682 119.561 84.4332 120.081 85.1655 119.989C85.8962 119.898 86.4145 119.232 86.3232 118.501L84.7 105.516L87.3268 108.541C88.0448 109.367 89.4005 109.021 89.6357 107.953L91.4962 99.5096C92.061 99.6296 92.6433 99.695 93.238 99.695C99.3703 99.6951 104.333 104.657 104.333 110.79V118.667C104.333 119.403 104.93 120 105.667 120C106.403 120 107 119.403 107 118.667V110.79C107 103.184 100.845 97.0283 93.2378 97.0286ZM72.3983 104.791L71.0162 98.5176C71.5245 98.2106 72.0013 97.8451 72.4408 97.4271L75.6735 101.019L72.3983 104.791Z" fill="#1A75CF"/>
</svg>
