<svg width="160" height="160" viewBox="0 0 160 160" fill="none" xmlns="http://www.w3.org/2000/svg">
<rect width="160" height="160" rx="20" fill="#EEEDF5" fill-opacity="0.4"/>
<g clip-path="url(#clip0)">
<path d="M119.992 118.313C119.95 117.784 118.89 105.289 113.078 98.1368C107.601 91.3991 99.8548 89.4448 95.2589 88.893L91.8916 83.5622C92.0454 83.3327 92.173 83.0757 92.3487 82.8627C92.519 82.6552 92.7375 82.4813 92.9377 82.3043C94.015 81.3515 95.6428 79.9117 95.6428 76.5004V69.8622H96.4247C98.0641 69.8622 99.6046 69.2238 100.761 68.066C101.919 66.9069 102.557 65.3676 102.557 63.73C102.557 60.981 100.74 58.6489 98.2429 57.8725C98.6305 56.4833 98.9253 54.8769 98.9491 53.1581C98.954 53.0825 98.9564 53.0092 98.9564 52.936C98.9564 50.6246 97.682 46.8282 94.8341 43.5573C92.068 40.3804 87.6545 39.2 83.589 40.5507C82.505 40.9114 81.2623 41.1019 79.9946 41.1019C78.7587 41.1019 77.5422 40.92 76.4772 40.5751C72.624 39.33 68.5017 40.3121 65.7179 43.1392C63.0928 45.8046 61.1158 49.2598 60.6776 51.946C60.6202 52.2701 60.5909 52.6058 60.5909 52.936C60.5909 54.7646 60.9535 56.4919 61.4357 57.9811C59.1035 58.8509 57.4354 61.1025 57.4354 63.7294C57.4354 65.3694 58.0738 66.91 59.2311 68.0648C60.3877 69.2238 61.9282 69.8622 63.5676 69.8622H63.9033V76.5004C63.9033 79.9098 65.5305 81.3503 66.6072 82.303C66.8367 82.5057 67.0344 82.6815 67.1864 82.8493C67.1931 82.856 67.2523 82.9225 67.3701 83.1185C67.461 83.2698 67.5575 83.4169 67.6551 83.5628L64.2781 88.9076C62.2572 89.189 59.466 89.7817 56.5266 91.0341C55.7325 91.3722 55.3633 92.2902 55.7014 93.0837C56.0395 93.8777 56.9569 94.2476 57.751 93.9089C60.1796 92.8749 62.5013 92.3415 64.272 92.0668L69.4892 103.33L71.0975 116.875H55.9376V111.82C55.9376 110.957 55.2381 110.258 54.3751 110.258C53.5121 110.258 52.8126 110.957 52.8126 111.82V116.875H43.3161C43.7348 113.808 44.9305 107.183 47.8779 102.229C48.3192 101.487 48.0757 100.529 47.3341 100.087C46.5925 99.6462 45.6337 99.8897 45.1924 100.631C40.8839 107.872 40.0392 117.89 40.005 118.313C39.9702 118.747 40.1185 119.177 40.4145 119.497C40.7106 119.818 41.1262 120 41.5626 120H118.435C118.871 120 119.287 119.818 119.583 119.497C119.879 119.177 120.027 118.747 119.992 118.313ZM76.7317 88.34C79.1243 88.5237 81.5522 88.5012 83.9381 88.2357L79.7859 93.1539L75.6202 88.2363C75.9901 88.2778 76.3606 88.3126 76.7317 88.34ZM69.734 86.1226L77.5788 95.3835L75.0874 97.4623L71.5736 100.394L66.9807 90.4799L69.734 86.1226ZM74.2445 116.875L72.6631 103.555L78.2258 98.9131V116.875H74.2445ZM87.975 100.391L84.9775 97.8816L81.9947 95.3841L89.8146 86.1251L92.5654 90.4799L87.975 100.391ZM86.9062 76.6841C86.9056 77.1419 86.9038 77.3738 86.902 77.491C86.7628 77.9811 86.4589 78.3266 85.9547 78.5713C85.5879 78.7496 85.1442 78.8521 84.6778 78.8832C83.9442 78.9315 83.1538 78.799 82.5111 78.4896C80.9858 77.7559 79.1804 77.7553 77.6417 78.4529C76.4949 78.9723 74.922 79.0114 73.9833 78.542C73.5786 78.34 73.3113 78.0629 73.1575 77.6845C73.1312 77.6192 73.1068 77.5514 73.0873 77.48C73.0848 77.3641 73.0812 77.1138 73.0806 76.5828C73.0806 76.4131 73.0757 76.2441 73.0659 76.0762C72.9212 73.5567 71.7195 71.2422 69.7193 69.6651L66.883 67.4288C66.7347 66.6274 66.6603 65.8113 66.6603 64.9959V62.0491C66.6603 62.0479 66.6603 62.0473 66.6603 62.0461C66.6609 60.6655 67.1369 58.4181 67.9035 56.1806C68.7623 53.6739 69.5832 52.3397 69.8994 52.0882C70.4463 51.6512 71.2733 51.6304 71.8067 52.1047C73.9662 54.0096 76.2403 54.6645 77.8431 54.8708C76.7585 55.2986 75.6678 55.5757 74.665 55.5757C73.8026 55.5757 73.1031 56.2752 73.1031 57.1376C73.1031 58.0007 73.8026 58.7001 74.665 58.7001C77.0417 58.7001 79.7889 57.7217 82.8291 55.7918C84.7505 54.5717 86.1665 53.3589 86.5254 53.0434C87.1339 52.6332 87.7412 51.8801 88.4755 51.7226C89.3647 51.5322 89.9061 52.1492 90.3358 52.834C91.5516 54.7737 93.332 59.2092 93.332 61.8953V64.9965C93.332 65.5056 93.3027 66.0152 93.2453 66.5212C93.2161 66.7818 93.1782 67.0412 93.1337 67.3C93.105 67.4672 93.0983 67.5771 92.9939 67.7034L90.4127 69.6523C88.2197 71.3082 86.9093 73.9369 86.9062 76.6841ZM99.4325 63.73C99.4325 64.5326 99.1194 65.2877 98.5499 65.8571C97.9835 66.4247 97.2285 66.7379 96.4247 66.7379H96.3661C96.3765 66.6396 96.385 66.5413 96.3935 66.4431C96.3954 66.418 96.3984 66.3936 96.4003 66.3686C96.4381 65.9127 96.4576 65.4549 96.4576 64.9953V62.3091C96.6359 61.9844 96.8983 61.4766 97.1876 60.8205C98.4779 61.1586 99.4325 62.3348 99.4325 63.73ZM63.719 52.817C63.7263 52.6961 63.7403 52.5759 63.7605 52.4568C64.037 50.7448 65.4377 47.8774 67.9444 45.3322C69.3312 43.9235 71.2001 43.1716 73.1428 43.1716C73.9308 43.1716 74.7303 43.2949 75.5152 43.5488C76.8873 43.9925 78.4358 44.2269 79.9946 44.2269C81.5931 44.2269 83.1764 43.9809 84.5747 43.5164C87.4397 42.5643 90.5415 43.3858 92.4775 45.6093C94.9385 48.4365 95.832 51.5395 95.832 52.936C95.8296 52.9824 95.8271 53.0287 95.8253 53.0751C95.8125 54.2775 95.633 55.4268 95.381 56.4608C95.1515 55.7729 94.9318 55.1949 94.7755 54.8043C94.2335 53.4468 93.2246 51.2068 92.0369 49.9422C90.7631 48.5866 88.6732 48.1899 86.9734 48.9247C86.4991 49.1298 86.0585 49.4197 85.6715 49.7615C82.9652 52.1498 80.0972 51.83 79.9885 51.8166C79.8457 51.7964 79.7004 51.7964 79.557 51.8166C79.5277 51.8209 76.5956 52.1529 73.8868 49.7725C73.8856 49.7713 73.8844 49.7701 73.8832 49.7689C73.8703 49.7573 73.8575 49.7457 73.8447 49.7347C72.1778 48.2869 69.6992 48.2491 67.9505 49.6443C67.1632 50.2748 66.6395 51.252 66.1958 52.1376C65.7081 53.1099 65.3047 54.1243 64.9507 55.1522C64.7456 55.7466 64.5588 56.3478 64.3904 56.9539C64.0034 55.7479 63.7159 54.3691 63.7159 52.936C63.7159 52.9006 63.7165 52.8646 63.719 52.817ZM63.5682 66.7379C62.7638 66.7379 62.0094 66.4247 61.4405 65.8553C60.8729 65.2889 60.5604 64.5339 60.5604 63.73C60.5604 62.4044 61.4271 61.2734 62.6234 60.8748C62.9829 61.5956 63.3119 62.1553 63.5347 62.5112V64.9965C63.5347 65.4293 63.5524 65.8608 63.5859 66.2905C63.5859 66.296 63.5865 66.3014 63.5865 66.3063C63.5975 66.4394 63.6097 66.5724 63.6238 66.7049C63.6244 66.7159 63.6256 66.7269 63.6262 66.7379H63.5682ZM67.0283 76.5004V71.5224L67.7845 72.1187C69.1621 73.2051 69.9537 74.8336 69.9556 76.5865C69.9568 77.679 69.9665 77.8432 70.0019 78.0117C70.0044 78.0251 70.0074 78.0379 70.0105 78.0519C70.0361 78.1685 70.0672 78.282 70.1002 78.3943C70.4823 79.6993 71.3356 80.7131 72.5874 81.3381C74.6437 82.3659 77.256 82.0589 78.9332 81.2984C78.935 81.2978 78.9363 81.2972 78.9375 81.2966C79.6589 80.9719 80.467 80.9743 81.1555 81.3057C83.0232 82.2048 85.439 82.2957 87.3194 81.3826C88.7098 80.7082 89.6559 79.5247 89.9812 78.0556C90.0239 77.8682 90.03 77.8395 90.0312 76.6884C90.0331 75.0246 90.7777 73.4279 92.0375 72.3537C92.1925 72.2219 92.3561 72.101 92.5178 71.9783V76.501C92.5178 78.5042 91.7897 79.1487 90.8674 79.9648C89.3031 81.3497 88.5377 83.2271 86.6114 84.2586C84.5814 85.3462 82.0533 85.3237 79.8066 85.3279C77.5679 85.3328 75.0318 85.3536 72.9994 84.2928C71.0328 83.2662 70.2638 81.3668 68.6781 79.9636C67.7565 79.1475 67.0283 78.503 67.0283 76.5004ZM81.3508 98.9211L86.8824 103.553L86.1317 109.772L85.2742 116.875H81.3508V98.9211ZM108.124 116.875V111.82C108.124 110.957 107.424 110.258 106.561 110.258C105.699 110.258 104.999 110.957 104.999 111.82V116.875H88.4224L89.2372 110.122L90.0575 103.331L95.204 92.2182L95.2833 92.0479C98.954 92.5539 105.911 94.2745 110.652 100.108C114.675 105.058 116.195 113.335 116.68 116.875H108.124Z" fill="#1A75CF"/>
</g>
<defs>
<clipPath id="clip0">
<rect width="80" height="80" fill="white" transform="translate(40 40)"/>
</clipPath>
</defs>
</svg>
