<svg width="60" height="60" viewBox="0 0 60 60" fill="none" xmlns="http://www.w3.org/2000/svg">
<rect width="60" height="60" rx="30" fill="white" fill-opacity="0.1"/>
<path d="M41.4792 43.707C39.2342 43.707 37.3252 42.0279 37.0087 39.832H23.9913C23.6748 42.0279 21.7657 43.707 19.5208 43.707C17.0279 43.707 15 41.6791 15 39.1862C15 36.6933 17.0279 34.6654 19.5208 34.6654C20.0078 34.6654 20.487 34.7442 20.9507 34.8992L27.2334 24.2184C26.4338 23.3801 25.9792 22.2589 25.9792 21.1029C25.9792 18.6099 28.0071 16.582 30.5 16.582C32.9929 16.582 35.0208 18.6099 35.0208 21.1029C35.0208 22.2576 34.5662 23.3801 33.7666 24.2184L40.0493 34.8992C40.5117 34.7429 40.9922 34.6654 41.4792 34.6654C43.9721 34.6654 46 36.6933 46 39.1862C46 41.6791 43.9721 43.707 41.4792 43.707ZM41.4792 35.957C39.6992 35.957 38.25 37.4063 38.25 39.1862C38.25 40.9661 39.6992 42.4154 41.4792 42.4154C43.2591 42.4154 44.7083 40.9661 44.7083 39.1862C44.7083 37.4063 43.2591 35.957 41.4792 35.957ZM19.5208 35.957C17.7396 35.957 16.2917 37.4063 16.2917 39.1862C16.2917 40.9661 17.7396 42.4154 19.5208 42.4154C21.302 42.4154 22.75 40.9661 22.75 39.1862C22.75 37.4063 21.302 35.957 19.5208 35.957ZM37.0087 38.5404C37.187 37.3094 37.8715 36.1999 38.8945 35.4843L32.7436 25.0269C32.0616 25.4183 31.2931 25.6237 30.5 25.6237C29.7069 25.6237 28.9384 25.4183 28.2564 25.0269L22.1042 35.4843C23.1272 36.1999 23.813 37.3094 23.99 38.5404H37.0087ZM30.5 17.8737C28.7188 17.8737 27.2708 19.3217 27.2708 21.1029C27.2708 22.8841 28.7188 24.332 30.5 24.332C32.2799 24.332 33.7292 22.8841 33.7292 21.1029C33.7292 19.3217 32.2799 17.8737 30.5 17.8737Z" fill="white"/>
</svg>
