<svg width="60" height="60" viewBox="0 0 60 60" fill="none" xmlns="http://www.w3.org/2000/svg">
<rect width="60" height="60" rx="30" fill="#00B8D9"/>
<path d="M30.5 30.4948C29.663 30.4948 28.8377 30.221 28.175 29.7237C28.0368 29.6204 27.9477 29.4692 27.9232 29.2987C27.8986 29.1282 27.9425 28.959 28.0459 28.8208C28.1673 28.6594 28.361 28.5625 28.5625 28.5625C28.7033 28.5625 28.8377 28.6077 28.95 28.6917C29.3905 29.0223 29.942 29.2045 30.5 29.2045C31.058 29.2045 31.6096 29.0223 32.05 28.6917C32.1611 28.6077 32.2954 28.5625 32.4375 28.5625C32.639 28.5625 32.8328 28.6594 32.9542 28.8208C33.0575 28.959 33.1014 29.1283 33.0769 29.3C33.0524 29.4705 32.9632 29.6217 32.825 29.725C32.1624 30.2223 31.337 30.4948 30.5 30.4948Z" fill="white"/>
<path d="M44.7083 46.0002C44.3518 46.0002 44.0625 45.7108 44.0625 45.3543V41.3424C44.0664 40.747 43.7887 40.176 43.3198 39.8144C42.0281 38.8288 39.7225 37.5178 36.0283 36.8087C35.3877 38.803 33.7447 40.2871 31.678 40.7147C31.2892 40.7947 30.8927 40.8361 30.4987 40.8361C27.9735 40.8361 25.7428 39.1944 24.9742 36.81C21.2865 37.5204 18.9757 38.8301 17.6776 39.817C17.2113 40.176 16.9336 40.7457 16.9375 41.3385V45.3543C16.9375 45.7108 16.6482 46.0002 16.2917 46.0002C15.9352 46.0002 15.6458 45.7108 15.6458 45.3543V41.3424C15.6394 40.353 16.1044 39.3985 16.8923 38.7914C18.379 37.6612 21.0437 36.1628 25.3036 35.4395C25.3204 35.4356 25.3372 35.433 25.354 35.4317C26.9854 35.1566 28.7084 35.021 30.5 35.021C38.042 35.021 42.2606 37.3822 44.1051 38.7888C44.8943 39.3972 45.3606 40.353 45.3542 41.3463V45.3543C45.3542 45.7108 45.0648 46.0002 44.7083 46.0002ZM26.2672 36.5955C26.9182 38.3483 28.609 39.5431 30.5 39.5431C30.8061 39.5431 31.1135 39.5121 31.4158 39.4488C32.9554 39.1298 34.1993 38.0512 34.7379 36.5955C33.3959 36.4082 31.9712 36.3127 30.5 36.3127C29.0327 36.3127 27.6105 36.4082 26.2672 36.5955Z" fill="white"/>
<path d="M33.0833 26.9478C33.6183 26.9478 34.052 26.514 34.052 25.979C34.052 25.444 33.6183 25.0103 33.0833 25.0103C32.5482 25.0103 32.1145 25.444 32.1145 25.979C32.1145 26.514 32.5482 26.9478 33.0833 26.9478Z" fill="white"/>
<path d="M27.9167 26.9478C28.4518 26.9478 28.8855 26.514 28.8855 25.979C28.8855 25.444 28.4518 25.0103 27.9167 25.0103C27.3817 25.0103 26.948 25.444 26.948 25.979C26.948 26.514 27.3817 26.9478 27.9167 26.9478Z" fill="white"/>
<path d="M30.5001 34.375C25.8707 34.375 22.1042 30.6085 22.1042 25.9792V23.3958C22.1042 18.7665 25.8707 15 30.5001 15C35.1294 15 38.8959 18.7665 38.8959 23.3958V25.9792C38.8959 30.6085 35.1294 34.375 30.5001 34.375ZM23.3959 25.9792C23.3959 29.8968 26.5825 33.0833 30.5001 33.0833C34.4177 33.0833 37.6042 29.8968 37.6042 25.9792V23.9538C35.8915 23.7368 34.3079 22.9696 33.0873 21.767C31.071 23.795 28.6452 24.0636 26.7349 24.0636C26.4365 24.0636 26.1575 24.0572 25.9005 24.0507C25.6899 24.0455 25.5026 24.0417 25.3334 24.0417H23.3959V25.9792ZM25.3334 22.75C25.5142 22.75 25.7145 22.7552 25.9315 22.7603C26.1704 22.7655 26.4313 22.772 26.7103 22.772C28.529 22.772 30.8398 22.502 32.5861 20.4005C32.7075 20.2532 32.8858 20.1667 33.0615 20.1667C33.0718 20.1667 33.117 20.1692 33.1196 20.1692C33.2785 20.1692 33.4567 20.2532 33.5781 20.3979C34.5843 21.5965 36.0207 22.4051 37.5655 22.6518C37.1922 19.0558 34.1607 16.2917 30.5001 16.2917C26.7982 16.2917 23.7537 19.1023 23.4256 22.75H25.3334Z" fill="white"/>
</svg>
