<svg width="160" height="160" viewBox="0 0 160 160" fill="none" xmlns="http://www.w3.org/2000/svg">
<rect width="160" height="160" rx="20" fill="#EEEDF5" fill-opacity="0.4"/>
<path d="M110.5 106.214C110.322 95.3419 99.2127 92.1297 91.1007 89.7843C90.1543 89.5107 89.2441 89.2474 88.3911 88.9846V84.4994C90.0495 83.4592 91.5027 82.1206 92.6749 80.5592H97.6163C100.034 80.5592 102.002 78.5906 102.002 76.1711V70.8592C102.295 70.1754 102.458 69.4229 102.458 68.6328V66.9807C102.458 66.1914 102.295 65.4393 102.002 64.756V62.0157C102.002 49.8763 92.1318 40 80 40C67.8705 40 58.0026 49.8763 58.0026 62.0159V64.6778C58.0026 64.6987 58.005 64.7188 58.0058 64.7396C57.7081 65.4274 57.5423 66.1849 57.5423 66.9809V68.6329C57.5423 71.7559 60.0795 74.2967 63.1981 74.2967H64.4885C65.3823 78.5855 68.0137 82.2433 71.6089 84.4986V88.9846C70.7558 89.2474 69.8457 89.5105 68.8993 89.7843C60.7873 92.1297 49.6779 95.3421 49.5002 106.214C49.5 106.223 49.5 106.231 49.5 106.24V118.437C49.5 119.3 50.1993 120 51.0615 120H55.6912C56.5535 120 57.2528 119.3 57.2528 118.437C57.2528 117.575 56.5535 116.875 55.6912 116.875H52.6229V106.253C52.6887 102.46 54.4301 99.616 58.103 97.3043C60.5267 95.7788 63.4898 94.6919 66.4105 93.7827L70.1833 101.138C70.6039 101.958 71.6805 102.236 72.4457 101.72L74.128 100.584L75.5722 106.016L73.0976 116.875H69.7135C68.8512 116.875 68.1519 117.574 68.1519 118.437C68.1519 119.3 68.8512 120 69.7135 120H108.938C109.801 120 110.5 119.3 110.5 118.437V106.24C110.5 106.231 110.5 106.223 110.5 106.214ZM90.2338 92.7863C90.3367 92.816 90.4413 92.8465 90.545 92.8765L87.8455 98.1443L82.7938 94.7357L87.0741 91.8468C88.0685 92.1599 89.126 92.466 90.2338 92.7863ZM80.0011 96.6205L83.1323 98.7334L81.619 104.425H78.381L76.8682 98.7351L80.0011 96.6205ZM80.0008 92.8513L74.7318 89.2961V86.0067C76.381 86.5903 78.1535 86.9105 79.9998 86.9105C81.8461 86.9105 83.6189 86.5914 85.2679 86.0078V89.2961L80.0008 92.8513ZM92.7218 62.3017C92.7004 62.2881 92.6792 62.2745 92.6578 62.2609C89.4536 60.2199 86.6862 58.4573 82.3501 59.6987C82.3098 59.7102 82.2699 59.7234 82.2307 59.738C81.3114 60.0835 80.4755 60.4055 79.6669 60.717C74.7288 62.619 72.0327 63.6577 67.2781 63.524V62.2727C67.2781 55.2533 72.9851 49.5427 79.9998 49.5427C87.0146 49.5427 92.7216 55.2533 92.7216 62.2727L92.7218 62.3017ZM98.8787 76.1711C98.8787 76.8676 98.3124 77.4342 97.6163 77.4342H94.5044C94.9439 76.4375 95.2843 75.3876 95.5116 74.2965H96.8021C97.5353 74.2965 98.2353 74.1547 98.8788 73.8992V76.1711H98.8787ZM99.3346 68.6328C99.3346 70.0326 98.1986 71.1715 96.8019 71.1715H95.8435C95.8438 71.1328 95.845 64.4463 95.845 64.4463H96.8021C98.1986 64.4463 99.3348 65.5832 99.3348 66.9807L99.3346 68.6328ZM63.1981 71.1717C61.8016 71.1717 60.6654 70.0328 60.6654 68.6329V66.9809C60.6654 65.5834 61.8014 64.4465 63.1981 64.4465H64.1551C64.1551 64.4465 64.1564 71.1329 64.1567 71.1717H63.1981ZM64.1843 61.3213H63.1979C62.4679 61.3213 61.7706 61.462 61.1295 61.7151C61.2908 51.4369 69.6932 43.125 80 43.125C90.3098 43.125 98.7145 51.4379 98.8747 61.7168C98.2325 61.4626 97.5335 61.3213 96.8019 61.3213H95.8155C95.3221 53.0201 88.4175 46.4177 80 46.4177C71.5823 46.4177 64.6778 53.0202 64.1843 61.3213ZM67.3721 72.5756C67.3719 72.574 67.3716 72.5725 67.3715 72.5709C67.3123 72.0736 67.2782 71.5686 67.2782 71.0556V66.6489C72.6208 66.7792 75.8077 65.5523 80.7889 63.6335C81.5734 63.3313 82.3843 63.019 83.2677 62.6867C86.2175 61.8627 87.9147 62.9442 90.9807 64.8971C91.5127 65.236 92.0962 65.6074 92.7218 65.9889V71.0556C92.7218 73.3792 92.0934 75.5573 91.0024 77.4344H80C79.1377 77.4344 78.4385 78.1339 78.4385 78.9969C78.4385 79.8598 79.1377 80.5594 80 80.5594H88.4517C86.2028 82.5642 83.2418 83.7856 80 83.7856C73.4994 83.7855 68.1255 78.8805 67.3721 72.5756ZM72.1582 98.1444L69.4558 92.8761C69.5592 92.8463 69.6635 92.816 69.7662 92.7863C70.874 92.466 71.9315 92.1597 72.9262 91.8466L77.2083 94.736L72.1582 98.1444ZM76.301 116.875L78.4261 107.55H81.5744L83.7027 116.875H76.301ZM107.377 116.875H86.9063L84.4278 106.016L85.8727 100.582L87.559 101.72C88.3245 102.236 89.4011 101.958 89.8215 101.138L93.5902 93.783C96.5107 94.6922 99.4736 95.779 101.897 97.3043C105.57 99.6159 107.311 102.46 107.377 106.253V116.875H107.377Z" fill="#1A75CF"/>
</svg>
