<svg width="61" height="60" viewBox="0 0 61 60" fill="none" xmlns="http://www.w3.org/2000/svg">
<rect x="0.333252" width="60" height="60" rx="30" fill="#FF5630"/>
<path d="M24.5208 40.3332C24.1656 40.3332 23.875 40.0438 23.875 39.6873C23.875 39.3308 24.1656 39.0415 24.5208 39.0415H27.1042C27.4607 39.0415 27.75 39.3308 27.75 39.6873C27.75 40.0438 27.4607 40.3332 27.1042 40.3332H24.5208Z" fill="white"/>
<path d="M45.1887 45.5C44.9859 45.5 44.7922 45.4031 44.672 45.2417L40.797 40.075C40.7144 39.9639 40.6679 39.827 40.6679 39.6875V33.7988C40.6679 32.2113 38.7653 30.4921 36.7929 28.813V34.2535L37.896 35.3565C38.1478 35.6084 38.1478 36.0179 37.896 36.2697C37.772 36.3912 37.6105 36.4583 37.4374 36.4583C37.2643 36.4583 37.1029 36.3912 36.9802 36.2697L34.0739 33.3635C33.937 33.2279 33.7562 33.1517 33.5624 33.1517C33.3842 33.1517 33.215 33.2162 33.0819 33.3325C32.8533 33.6709 32.8636 34.1282 33.109 34.4562L36.6379 38.6245C36.7373 38.7407 36.7916 38.8892 36.7916 39.0417V40.3333C36.7916 41.067 38.2189 43.1827 39.2341 44.4512C39.4563 44.7289 39.4111 45.137 39.1334 45.3592C39.0184 45.4496 38.8763 45.5 38.7304 45.5C38.5328 45.5 38.3493 45.4122 38.2253 45.2585C37.7694 44.6888 35.4999 41.7761 35.4999 40.3333V39.278L34.207 37.75H18.7083C17.9965 37.75 17.4166 37.1713 17.4166 36.4583V18.375C17.4166 17.6633 17.9965 17.0833 18.7083 17.0833H32.9166C33.6296 17.0833 34.2083 17.6633 34.2083 18.375V31.9659C34.5002 32.0641 34.7663 32.2281 34.9884 32.449L35.4999 32.9618V17.0833C35.4999 16.3716 34.9213 15.7917 34.2083 15.7917H17.4166C16.7075 15.7943 16.1275 16.3742 16.1249 17.0859V40.3333C16.1288 41.0425 16.71 41.625 17.4218 41.6315H32.9166C33.2731 41.6315 33.5624 41.9208 33.5624 42.2773C33.5624 42.6338 33.2731 42.9231 32.9166 42.9231H17.4166C15.997 42.9128 14.8397 41.7516 14.8333 40.3372V17.0833C14.8384 15.6638 15.9958 14.5052 17.414 14.5H34.2083C35.633 14.5 36.7916 15.6586 36.7916 17.0833V27.1183L37.1985 27.4645C39.6462 29.5389 41.9583 31.4983 41.9583 33.7988V39.4731L45.7041 44.468C45.8074 44.6049 45.8513 44.7754 45.8268 44.9459C45.8023 45.1164 45.7131 45.2688 45.5749 45.3721C45.4625 45.4548 45.3282 45.5 45.1887 45.5ZM18.7083 36.4583H33.1142L32.1015 35.261C31.4828 34.4395 31.4777 33.3183 32.0783 32.5187C32.0964 32.4955 32.117 32.4722 32.1377 32.4503C32.3586 32.2294 32.6247 32.0654 32.9179 31.9659V18.375H18.7095L18.7083 36.4583Z" fill="white"/>
<path d="M21.9373 31.2917C21.5821 31.2917 21.2915 31.0023 21.2915 30.6458C21.2915 30.2893 21.5821 30 21.9373 30H29.6873C30.0438 30 30.3332 30.2893 30.3332 30.6458C30.3332 31.0023 30.0438 31.2917 29.6873 31.2917H21.9373Z" fill="white"/>
<path d="M21.9373 27.4167C21.5821 27.4167 21.2915 27.1273 21.2915 26.7708C21.2915 26.4143 21.5821 26.125 21.9373 26.125H29.6873C30.0438 26.125 30.3332 26.4143 30.3332 26.7708C30.3332 27.1273 30.0438 27.4167 29.6873 27.4167H21.9373Z" fill="white"/>
<path d="M21.9373 23.5417C21.5821 23.5417 21.2915 23.2523 21.2915 22.8958C21.2915 22.5393 21.5821 22.25 21.9373 22.25H27.104C27.4605 22.25 27.7498 22.5393 27.7498 22.8958C27.7498 23.2523 27.4605 23.5417 27.104 23.5417H21.9373Z" fill="white"/>
</svg>
