<svg width="25" height="25" viewBox="0 0 25 25" fill="none" xmlns="http://www.w3.org/2000/svg">
<g clip-path="url(#clip0)">
<path d="M4.14773 3.91064C1.86069 3.91064 0 5.77133 0 8.05832C0 9.19129 0.618 10.6716 1.83678 12.458C2.70872 13.7361 3.56941 14.7025 3.60559 14.7431C3.74355 14.8974 3.94073 14.9856 4.14773 14.9856C4.35472 14.9856 4.5519 14.8974 4.68987 14.7431C4.72609 14.7026 5.58673 13.7361 6.45868 12.458C7.6775 10.6716 8.29545 9.19129 8.29545 8.05832C8.29545 5.77133 6.43477 3.91064 4.14773 3.91064ZM4.14773 9.98607C3.08481 9.98607 2.22003 9.12129 2.22003 8.05837C2.22003 6.9954 3.08481 6.13067 4.14773 6.13067C5.2107 6.13067 6.07543 6.99545 6.07543 8.05837C6.07547 9.12129 5.21065 9.98607 4.14773 9.98607Z" fill="white"/>
<path d="M17.1453 19.6352H15.3359C14.054 19.6352 13.0111 18.5922 13.0111 17.3104C13.0111 15.2266 11.3157 13.5312 9.23195 13.5312H7.48416C7.08254 14.1036 6.69202 14.6069 6.38574 14.9855H9.23205C10.514 14.9855 11.5569 16.0284 11.5569 17.3104C11.5569 19.3941 13.2522 21.0894 15.3359 21.0894H18.2437C17.9374 20.7108 17.5469 20.2075 17.1453 19.6352Z" fill="white"/>
<path d="M20.4819 10.0142C18.1949 10.0142 16.3342 11.8748 16.3342 14.1618C16.3342 15.2948 16.9522 16.7751 18.171 18.5616C19.043 19.8396 19.9036 20.8061 19.9398 20.8466C20.0778 21.0009 20.2749 21.0892 20.482 21.0892C20.689 21.0892 20.8861 21.0009 21.0241 20.8466C21.0604 20.8061 21.921 19.8396 22.7929 18.5616C24.0117 16.7752 24.6297 15.2948 24.6297 14.1618C24.6296 11.8748 22.7689 10.0142 20.4819 10.0142ZM20.4819 16.0896C19.4189 16.0896 18.5542 15.2248 18.5542 14.1619C18.5542 13.0989 19.419 12.2342 20.4819 12.2342C21.5448 12.2342 22.4096 13.099 22.4096 14.1619C22.4096 15.2248 21.5449 16.0896 20.4819 16.0896Z" fill="white"/>
</g>
<defs>
<clipPath id="clip0">
<rect width="24.6296" height="24.6296" fill="white" transform="translate(0 0.185059)"/>
</clipPath>
</defs>
</svg>
