<svg width="160" height="160" viewBox="0 0 160 160" fill="none" xmlns="http://www.w3.org/2000/svg">
<rect width="160" height="160" rx="20" fill="#EEEDF5" fill-opacity="0.4"/>
<path d="M106.996 110.792V118.667C106.996 119.403 106.399 120 105.663 120C104.927 120 104.33 119.403 104.33 118.667V110.792C104.33 104.66 99.3682 99.6978 93.236 99.698C90.3346 99.698 87.7021 98.2198 86.1938 95.7438C85.8109 95.1151 86.01 94.2947 86.6389 93.9117C87.2677 93.5286 88.0879 93.7279 88.471 94.3568C89.4912 96.0318 91.2725 97.0317 93.236 97.0317C100.841 97.0313 106.996 103.186 106.996 110.792ZM83.7318 97.4279C83.8886 98.1473 83.4325 98.8576 82.7131 99.0144C79.2046 99.7788 75.6362 99.0136 72.7951 97.0743C69.9824 100.088 66.2666 99.698 66.764 99.698C60.6323 99.6978 55.67 104.659 55.67 110.792V118.667C55.67 119.403 55.0731 120 54.3368 120C53.6006 120 53.0037 119.403 53.0037 118.667V110.792C53.0037 103.187 59.1577 97.0317 66.7637 97.0317C69.8403 97.0317 72.3345 94.5528 72.3345 91.4754V91.1243C66.5154 88.3418 62.4309 82.4947 62.182 75.6858C59.7873 75.11 58.003 72.9667 58.003 70.4165V63.5052C57.9302 60.1223 58.4324 51.6496 64.6101 45.6947C72.2383 38.3414 84.4714 38.8085 93.4665 43.1387C94.3432 43.5612 94.4764 44.7457 93.7483 45.3591C98.3052 46.4706 102.235 49.2719 104.759 53.2811C104.89 53.4875 105.128 53.8117 105.066 54.3288C105.027 54.6506 104.931 54.9229 104.683 55.1745C103.059 56.8223 102.164 59.0058 102.164 61.323V70.4168C102.164 71.1531 101.567 71.75 100.831 71.75C100.094 71.75 99.4976 71.1531 99.4976 70.4168V61.323C99.4976 58.6505 100.411 56.1139 102.088 54.0761C99.5316 50.4206 95.5437 48.0696 91.0337 47.5867L88.6905 47.3357C87.3203 47.189 87.0515 45.3015 88.3249 44.7774L89.3905 44.3386C75.5114 39.5 60.6692 44.8762 60.6692 63.4907V70.4165C60.6692 71.4743 61.2784 72.3937 62.169 72.8555V64.2128C62.169 59.0671 66.3554 54.8807 71.5011 54.8807H88.4988C93.6445 54.8807 97.8309 59.0668 97.8309 64.2123V75.128C97.8309 86.7222 86.5011 95.5287 74.9723 92.1346C74.8973 93.0858 74.6605 94.0037 74.2747 94.8569C76.5174 96.3971 79.3495 97.0183 82.1453 96.4091C82.8647 96.2524 83.575 96.7085 83.7318 97.4279ZM79.9999 90.1914C88.3619 90.1914 95.1646 83.3886 95.1646 75.0267V64.2123C95.1646 60.5371 92.1744 57.547 88.4988 57.547H71.5011C67.8255 57.547 64.8353 60.5373 64.8353 64.2128V75.0267C64.8353 83.3886 71.638 90.1914 79.9999 90.1914ZM93.4982 113.168H89.4987C88.7625 113.168 88.1656 113.764 88.1656 114.501C88.1656 115.237 88.7625 115.834 89.4987 115.834H93.4982C94.2344 115.834 94.8313 115.237 94.8313 114.501C94.8313 113.764 94.2344 113.168 93.4982 113.168Z" fill="#1A75CF"/>
</svg>
