<svg width="20" height="20" viewBox="0 0 20 20" fill="none" xmlns="http://www.w3.org/2000/svg">
<path d="M12.9769 11.1503C12.9414 11.0929 12.8492 11.0574 12.7105 10.9884C12.5711 10.9206 11.8847 10.5851 11.7576 10.5387C11.7021 10.5187 11.6531 10.5026 11.6079 10.5026C11.5485 10.5026 11.4956 10.5297 11.4434 10.6077C11.3505 10.7464 11.0827 11.0574 11.0021 11.1503C10.9563 11.2032 10.9092 11.2297 10.8524 11.2297C10.8098 11.2297 10.7602 11.2148 10.7008 11.1845C10.5602 11.1168 10.1111 10.9697 9.57887 10.4993C9.16467 10.1322 8.88467 9.67933 8.80274 9.54062C8.72145 9.4032 8.79435 9.32772 8.86467 9.25933C8.92725 9.19546 9.00338 9.09675 9.07435 9.01611C9.14403 8.93546 9.16725 8.87804 9.21306 8.78578C9.25887 8.69353 9.23629 8.61223 9.2008 8.5432C9.16661 8.47417 8.8879 7.79352 8.77048 7.51611C8.68403 7.30965 8.59693 7.2832 8.52467 7.2832C8.50016 7.2832 8.47693 7.28643 8.45629 7.28643C8.37629 7.28643 8.28403 7.27417 8.18983 7.27417C8.09693 7.27417 7.94661 7.30901 7.81822 7.44836C7.69112 7.58578 7.32983 7.92062 7.32983 8.60127C7.32983 9.28256 7.82919 9.93933 7.90016 10.0316C7.96919 10.1245 8.86467 11.5664 10.2814 12.1206C11.1027 12.4419 11.4485 12.5148 11.6434 12.5148C11.7853 12.5148 11.8473 12.4761 11.955 12.4664C12.2098 12.4438 12.7795 12.1309 12.8963 11.8084C13.0124 11.4858 13.0124 11.2077 12.9769 11.1503Z" fill="#A9B1BE"/>
<path d="M14.6348 0H5.36516C2.45677 0 0 2.45742 0 5.36516V14.6342C0 17.5426 2.45677 20 5.36516 20H14.6348C17.5426 20 20 17.5426 20 14.6335V5.36516C20 2.45742 17.5432 0 14.6348 0ZM18.7097 14.6335C18.7097 16.8426 16.8439 18.709 14.6348 18.709H5.36516C3.15677 18.709 1.29032 16.8432 1.29032 14.6335V5.36516C1.29032 3.15677 3.15677 1.29032 5.36516 1.29032H14.6348C16.8432 1.29032 18.7097 3.15613 18.7097 5.36516V14.6335Z" fill="#A9B1BE"/>
<path d="M10.1052 3.56152C6.61359 3.56152 3.77295 6.38281 3.77295 9.8512C3.77295 10.897 4.03295 11.9222 4.52843 12.8338L3.59617 15.586C3.51811 15.8164 3.57617 16.0706 3.74649 16.2447C3.86972 16.3712 4.03682 16.4383 4.20714 16.4383C4.2723 16.4383 4.33811 16.4286 4.40262 16.408L7.29617 15.4893C8.16391 15.9151 9.12908 16.1396 10.1052 16.1396C13.5975 16.1396 16.4388 13.3189 16.4388 9.8512C16.4388 6.38281 13.5975 3.56152 10.1052 3.56152ZM10.1039 14.8499C9.24972 14.8499 8.4065 14.6351 7.66585 14.228C7.57037 14.1757 7.46327 14.1486 7.35553 14.1486C7.29037 14.1486 7.22456 14.1583 7.1594 14.1789L5.22585 14.7925L5.84262 12.9731C5.90391 12.7925 5.88198 12.5931 5.78262 12.4299C5.31101 11.6557 5.06198 10.7641 5.06198 9.85185C5.06198 7.09572 7.32391 4.85249 10.1039 4.85249C12.8846 4.85249 15.1471 7.09572 15.1471 9.85185C15.1471 12.6073 12.8852 14.8499 10.1039 14.8499Z" fill="#A9B1BE"/>
</svg>
